<?xml version="1.0" encoding="UTF-8" standalone="no"?>
<!-- Created with Inkscape (http://www.inkscape.org/) -->

<svg
   xmlns:dc="http://purl.org/dc/elements/1.1/"
   xmlns:cc="http://creativecommons.org/ns#"
   xmlns:rdf="http://www.w3.org/1999/02/22-rdf-syntax-ns#"
   xmlns:svg="http://www.w3.org/2000/svg"
   xmlns="http://www.w3.org/2000/svg"
   xmlns:xlink="http://www.w3.org/1999/xlink"
   xmlns:sodipodi="http://sodipodi.sourceforge.net/DTD/sodipodi-0.dtd"
   xmlns:inkscape="http://www.inkscape.org/namespaces/inkscape"
   width="112.88889mm"
   height="120.139mm"
   viewBox="0 0 112.88889 120.139"
   version="1.1"
   id="svg1217"
   inkscape:version="0.92.3 (2405546, 2018-03-11)"
   sodipodi:docname="system-calls.svg">
  <defs
     id="defs1211">
    <filter
       id="filter32419"
       height="1.6095845"
       y="-0.30479226"
       width="1.3658448"
       x="-0.18292241"
       inkscape:collect="always">
      <feGaussianBlur
         id="feGaussianBlur32421"
         stdDeviation="1.4584077"
         inkscape:collect="always" />
    </filter>
    <filter
       id="filter30073"
       height="1.2294391"
       y="-0.11471957"
       width="1.1508039"
       x="-0.075401939"
       inkscape:collect="always">
      <feGaussianBlur
         id="feGaussianBlur30075"
         stdDeviation="1.9983367"
         inkscape:collect="always" />
    </filter>
    <filter
       id="filter15289"
       height="1.2112486"
       y="-0.10562432"
       width="1.1759661"
       x="-0.087983117"
       inkscape:collect="always">
      <feGaussianBlur
         id="feGaussianBlur15291"
         stdDeviation="2.3968446"
         inkscape:collect="always" />
    </filter>
    <filter
       id="filter7507"
       inkscape:collect="always">
      <feGaussianBlur
         id="feGaussianBlur7509"
         stdDeviation="0.7070985"
         inkscape:collect="always" />
    </filter>
    <filter
       id="filter13199"
       height="1.5729303"
       y="-0.28646517"
       width="1.4130092"
       x="-0.20650458"
       inkscape:collect="always">
      <feGaussianBlur
         id="feGaussianBlur13201"
         stdDeviation="3.3272911"
         inkscape:collect="always" />
    </filter>
    <filter
       id="filter8904"
       height="2.0747404"
       y="-0.53737026"
       width="2.2603998"
       x="-0.63019985"
       inkscape:collect="always">
      <feGaussianBlur
         id="feGaussianBlur8906"
         stdDeviation="2.5774812"
         inkscape:collect="always" />
    </filter>
    <radialGradient
       gradientUnits="userSpaceOnUse"
       gradientTransform="matrix(0.75148135,-0.74962761,0.32986596,0.33068154,2327.8309,-17.464625)"
       r="30.715441"
       fy="88.765541"
       fx="120.52536"
       cy="88.765541"
       cx="120.52536"
       id="radialGradient21883"
       xlink:href="#linearGradient21873"
       inkscape:collect="always" />
    <linearGradient
       id="linearGradient21873">
      <stop
         id="stop21875"
         offset="0"
         style="stop-color:#ffffff;stop-opacity:1" />
      <stop
         id="stop21877"
         offset="1"
         style="stop-color:#ffd035;stop-opacity:0" />
    </linearGradient>
    <filter
       id="filter5292"
       inkscape:collect="always">
      <feGaussianBlur
         id="feGaussianBlur5294"
         stdDeviation="0.45845113"
         inkscape:collect="always" />
    </filter>
    <radialGradient
       gradientUnits="userSpaceOnUse"
       gradientTransform="matrix(-1.2521022,1.7665669,-1.269969,-0.90012502,2501.0882,-378.93186)"
       r="11.243015"
       fy="17.4856"
       fx="135.05795"
       cy="17.4856"
       cx="135.05795"
       id="radialGradient61424"
       xlink:href="#linearGradient61418"
       inkscape:collect="always" />
    <linearGradient
       id="linearGradient61418">
      <stop
         id="stop61420"
         offset="0"
         style="stop-color:#ffffff;stop-opacity:0.43137255;" />
      <stop
         id="stop61422"
         offset="1"
         style="stop-color:#ffffff;stop-opacity:0;" />
    </linearGradient>
    <filter
       id="filter63644"
       height="1.3728435"
       y="-0.18642177"
       width="1.3480119"
       x="-0.17400594"
       inkscape:collect="always">
      <feGaussianBlur
         id="feGaussianBlur63646"
         stdDeviation="1.6302928"
         inkscape:collect="always" />
    </filter>
    <radialGradient
       r="7.5"
       fy="45.686523"
       fx="143.875"
       cy="45.686523"
       cx="143.875"
       gradientTransform="matrix(1.1898301,-0.18971767,0.35588044,2.231934,2131.6628,-191.11517)"
       gradientUnits="userSpaceOnUse"
       id="radialGradient26374"
       xlink:href="#linearGradient26333"
       inkscape:collect="always" />
    <linearGradient
       id="linearGradient26333"
       inkscape:collect="always">
      <stop
         id="stop26335"
         offset="0"
         style="stop-color:#ebebeb;stop-opacity:1;" />
      <stop
         id="stop26337"
         offset="1"
         style="stop-color:#ebebeb;stop-opacity:0;" />
    </linearGradient>
    <filter
       id="filter27389"
       height="1.2192107"
       y="-0.10960537"
       width="1.172971"
       x="-0.086485483"
       inkscape:collect="always">
      <feGaussianBlur
         id="feGaussianBlur27391"
         stdDeviation="0.57656991"
         inkscape:collect="always" />
    </filter>
    <radialGradient
       gradientUnits="userSpaceOnUse"
       gradientTransform="matrix(-0.25056529,0.8180256,-0.58074739,-0.17788582,2371.5332,-213.65325)"
       r="12.92474"
       fy="41.36657"
       fx="129.47032"
       cy="41.36657"
       cx="129.47032"
       id="radialGradient6296"
       xlink:href="#linearGradient6284"
       inkscape:collect="always" />
    <linearGradient
       id="linearGradient6284">
      <stop
         id="stop6286"
         offset="0"
         style="stop-color:#b3b3b3;stop-opacity:0;" />
      <stop
         id="stop6288"
         offset="1"
         style="stop-color:#b3b3b3;stop-opacity:1;" />
    </linearGradient>
    <filter
       id="filter6390"
       inkscape:collect="always">
      <feGaussianBlur
         id="feGaussianBlur6392"
         stdDeviation="0.22829725"
         inkscape:collect="always" />
    </filter>
    <filter
       id="filter33396"
       height="1.065143"
       y="-0.032571495"
       width="1.7599825"
       x="-0.37999123"
       inkscape:collect="always">
      <feGaussianBlur
         id="feGaussianBlur33398"
         stdDeviation="0.799997"
         inkscape:collect="always" />
    </filter>
    <radialGradient
       r="12.92474"
       fy="120.68013"
       fx="145.26382"
       cy="120.68013"
       cx="145.26382"
       gradientTransform="matrix(-0.16109562,-0.78564774,0.37763661,-0.07743368,2242.0889,8.6445507)"
       gradientUnits="userSpaceOnUse"
       id="radialGradient6398"
       xlink:href="#linearGradient6284"
       inkscape:collect="always" />
    <radialGradient
       r="7.5"
       fy="41.715195"
       fx="102.31428"
       cy="41.715195"
       cx="102.31428"
       gradientTransform="matrix(0.94193103,-1.120754,1.4611022,1.2279746,2110.922,-53.976494)"
       gradientUnits="userSpaceOnUse"
       id="radialGradient6404"
       xlink:href="#linearGradient26333"
       inkscape:collect="always" />
    <filter
       id="filter8627"
       inkscape:collect="always">
      <feGaussianBlur
         id="feGaussianBlur8629"
         stdDeviation="0.10215438"
         inkscape:collect="always" />
    </filter>
    <filter
       id="filter9676"
       height="1.2822114"
       y="-0.14110573"
       width="1.1751024"
       x="-0.087551206"
       inkscape:collect="always">
      <feGaussianBlur
         id="feGaussianBlur9678"
         stdDeviation="0.14692698"
         inkscape:collect="always" />
    </filter>
    <filter
       id="filter13236"
       height="1.3533216"
       y="-0.17666073"
       width="1.3753037"
       x="-0.18765192"
       inkscape:collect="always">
      <feGaussianBlur
         id="feGaussianBlur13238"
         stdDeviation="1.3156324"
         inkscape:collect="always" />
    </filter>
    <radialGradient
       r="7.5"
       fy="55.220627"
       fx="101.83118"
       cy="55.220627"
       cx="101.83118"
       gradientTransform="matrix(0.39138358,-0.74726366,0.99190214,0.51951434,2192.8943,-52.887831)"
       gradientUnits="userSpaceOnUse"
       id="radialGradient26720"
       xlink:href="#linearGradient26333"
       inkscape:collect="always" />
    <radialGradient
       gradientUnits="userSpaceOnUse"
       gradientTransform="matrix(0.56974062,-0.43173737,0.95857499,1.2649802,2222.0016,-88.694024)"
       r="5.5658851"
       fy="28.437618"
       fx="109.99909"
       cy="28.437618"
       cx="109.99909"
       id="radialGradient28856"
       xlink:href="#linearGradient28850"
       inkscape:collect="always" />
    <linearGradient
       id="linearGradient28850">
      <stop
         id="stop28852"
         offset="0"
         style="stop-color:#ffffff;stop-opacity:1" />
      <stop
         id="stop28854"
         offset="1"
         style="stop-color:#ffffff;stop-opacity:0;" />
    </linearGradient>
    <filter
       id="filter28894"
       height="1.4484683"
       y="-0.22423416"
       width="1.4171218"
       x="-0.20856091"
       inkscape:collect="always">
      <feGaussianBlur
         id="feGaussianBlur28896"
         stdDeviation="0.96735508"
         inkscape:collect="always" />
    </filter>
    <radialGradient
       r="5.5658851"
       fy="10.377914"
       fx="58.151138"
       cy="10.377914"
       cx="58.151138"
       gradientTransform="matrix(0.56311172,-0.44034839,1.0990649,1.4054703,2221.1241,-89.972756)"
       gradientUnits="userSpaceOnUse"
       id="radialGradient28902"
       xlink:href="#linearGradient28850"
       inkscape:collect="always" />
    <filter
       id="filter32423"
       height="1.4125"
       y="-0.20625003"
       width="1.1677966"
       x="-0.083898298"
       inkscape:collect="always">
      <feGaussianBlur
         id="feGaussianBlur32425"
         stdDeviation="1.4584077"
         inkscape:collect="always" />
    </filter>
    <filter
       id="filter34755"
       height="1.5322199"
       y="-0.26610994"
       width="1.4371119"
       x="-0.21855593"
       inkscape:collect="always">
      <feGaussianBlur
         id="feGaussianBlur34757"
         stdDeviation="1.4638934"
         inkscape:collect="always" />
    </filter>
    <clipPath
       id="clipPath37379"
       clipPathUnits="userSpaceOnUse">
      <path
         style="fill:#ff0000"
         d="m 66,295.50854 c -3.025001,-0.99557 -7.827467,-2.75099 -10.672148,-3.90095 -2.844682,-1.14995 -11.169682,-3.6476 -18.5,-5.55033 C 0.061499,276.51381 0,276.48883 0,271.0964 c 0,-1.66091 1.178942,-6.42866 2.619871,-10.59501 2.401288,-6.94316 2.55507,-8.32607 1.843187,-16.57518 -1.269513,-14.71075 -1.213131,-16.38184 0.656441,-19.4561 2.088387,-3.43408 6.811042,-5.03015 14.907995,-5.03832 6.726274,-0.007 8.976043,-1.43354 12.679933,-8.04134 2.191391,-3.90948 3.703577,-5.33075 7.024312,-6.602 5.596088,-2.14231 8.490903,-0.92905 15.470959,6.48409 5.324127,5.65446 7.285247,8.49547 19.434198,28.15367 3.569004,5.775 5.115714,7.17869 7.729554,11.5 2.61384,4.32131 12.39545,18.02175 12.63355,25.62784 0.2381,7.84418 -4.19375,12.76609 -7.26076,15.6474 -2.68631,2.52367 -9.85923,5.24795 -13.614967,5.17098 C 72.680923,297.34286 69.024999,296.5041 66,295.50854 Z"
         id="path37381"
         sodipodi:nodetypes="cssssssssssszzsss"
         inkscape:export-filename="/home/gringer/interface/tux_new_flat.png"
         inkscape:export-xdpi="89.886803"
         inkscape:export-ydpi="89.886803"
         inkscape:connector-curvature="0" />
    </clipPath>
    <filter
       id="filter40583"
       inkscape:collect="always">
      <feGaussianBlur
         id="feGaussianBlur40585"
         stdDeviation="3.2820015"
         inkscape:collect="always" />
    </filter>
    <clipPath
       id="clipPath41564"
       clipPathUnits="userSpaceOnUse">
      <path
         style="fill:#ff0000"
         d="m 174.5,296.28014 c -5.51259,-2.03807 -10.34186,-8.19825 -10.62251,-11.77821 -0.29919,-3.81655 -1.15094,-8.48442 -0.38112,-13.07572 0.76983,-4.5913 1.03992,-6.54512 2.06159,-15.5 1.02167,-8.95488 1.23198,-17.97057 1.31704,-27 0.11419,-12.37878 -1.20155,-17.40197 2.16585,-19.41154 3.59176,-2.14345 6.58085,0.0938 19.87048,1.23512 13.26514,1.13919 11.17045,1.14375 33.34778,-1.88946 3.28339,2.15136 4.74089,9.69394 4.74089,15.52314 0,4.13412 0.57858,5.59511 3.85961,9.74592 4.43289,5.60802 9.01923,9.67239 13.51027,11.97266 3.93389,2.01491 4.59575,3.02949 4.61481,7.07416 0.0214,4.55222 -5.52713,9.78373 -15.50307,14.61717 -11.13475,5.39489 -19.80304,11.22823 -27.98162,18.83027 -3.85,3.57859 -7.44517,6.73666 -10.5,8.3158 -3.05483,1.57914 -14.98741,3.37876 -20.5,1.34069 z"
         id="path41566"
         sodipodi:nodetypes="czsscszcsssssszz"
         inkscape:export-filename="/home/gringer/interface/tux_new_flat.png"
         inkscape:export-xdpi="89.886803"
         inkscape:export-ydpi="89.886803"
         inkscape:connector-curvature="0" />
    </clipPath>
    <filter
       id="filter43513"
       inkscape:collect="always">
      <feGaussianBlur
         id="feGaussianBlur43515"
         stdDeviation="3.0515169"
         inkscape:collect="always" />
    </filter>
    <filter
       id="filter51373"
       height="1.0793091"
       y="-0.039654557"
       width="1.2464404"
       x="-0.12322022"
       inkscape:collect="always">
      <feGaussianBlur
         id="feGaussianBlur51375"
         stdDeviation="1.2015429"
         inkscape:collect="always" />
    </filter>
    <filter
       id="filter56281"
       height="1.2230153"
       y="-0.11150763"
       width="1.0820838"
       x="-0.041041911"
       inkscape:collect="always">
      <feGaussianBlur
         id="feGaussianBlur56283"
         stdDeviation="0.62352988"
         inkscape:collect="always" />
    </filter>
    <filter
       id="filter58261"
       height="1.3276887"
       y="-0.16384436"
       width="1.1357775"
       x="-0.067888752"
       inkscape:collect="always">
      <feGaussianBlur
         id="feGaussianBlur58263"
         stdDeviation="1.7001627"
         inkscape:collect="always" />
    </filter>
  </defs>
  <sodipodi:namedview
     id="base"
     pagecolor="#ffffff"
     bordercolor="#666666"
     borderopacity="1.0"
     inkscape:pageopacity="0.0"
     inkscape:pageshadow="2"
     inkscape:zoom="0.7"
     inkscape:cx="-337.61441"
     inkscape:cy="101.33742"
     inkscape:document-units="mm"
     inkscape:current-layer="text4157"
     showgrid="false"
     fit-margin-top="0"
     fit-margin-left="0"
     fit-margin-right="0"
     fit-margin-bottom="0"
     inkscape:window-width="1853"
     inkscape:window-height="1025"
     inkscape:window-x="67"
     inkscape:window-y="27"
     inkscape:window-maximized="1" />
  <metadata
     id="metadata1214">
    <rdf:RDF>
      <cc:Work
         rdf:about="">
        <dc:format>image/svg+xml</dc:format>
        <dc:type
           rdf:resource="http://purl.org/dc/dcmitype/StillImage" />
        <dc:title></dc:title>
      </cc:Work>
    </rdf:RDF>
  </metadata>
  <g
     inkscape:label="Layer 1"
     inkscape:groupmode="layer"
     id="layer1"
     transform="translate(-60.22298,-55.506524)">
    <circle
       id="path4142"
       style="display:inline;fill:#d78e8e;fill-opacity:1;stroke:none;stroke-width:0.1083981"
       cx="116.66743"
       cy="115.53854"
       r="56.444447" />
    <path
       style="display:inline;fill:#d40000;stroke:#ffffff;stroke-width:0.84666669;stroke-miterlimit:4;stroke-dasharray:none;stroke-opacity:1"
       d="m 116.71838,55.929857 c -2.40869,1.458119 -4.63145,3.060895 -6.66267,4.776535 1.16174,-0.141233 2.32967,-0.244565 3.49921,-0.311819 l 0.0724,1.24986 C 96.857201,62.603568 81.071731,71.383449 71.565506,85.873408 l -1.040038,-0.679445 c 0.642046,-0.977841 1.31472,-1.93335 2.017708,-2.869038 -2.5014,0.902269 -4.998593,2.025452 -7.460716,3.371345 0.0626,2.805136 0.335261,5.526325 0.802018,8.145034 0.460023,-1.076807 0.954696,-2.133783 1.481651,-3.178482 l 1.114631,0.562829 c -0.510421,1.014024 -0.992986,2.049068 -1.445122,3.107447 -6.493894,15.200372 -5.471173,31.724122 1.401278,45.426862 l -1.118552,0.56163 c -0.524933,-1.04565 -1.015254,-2.10717 -1.473274,-3.18483 -0.471691,2.6178 -0.751091,5.34047 -0.819227,8.14539 2.459395,1.35058 4.953217,2.47473 7.452741,3.38196 -0.701093,-0.9371 -1.369959,-1.89058 -2.010055,-2.86968 l 1.04218,-0.68706 c 5.629916,8.61555 13.780948,15.71936 23.955023,20.06591 5.900668,2.52087 11.997248,3.9073 18.054048,4.26038 l -0.0733,1.24333 c -1.17044,-0.0692 -2.33402,-0.17447 -3.49617,-0.31804 2.23835,1.84812 4.57715,3.46034 6.66015,4.78822 2.40867,-1.45812 4.63365,-3.06618 6.66491,-4.78179 -1.16176,0.14124 -2.32967,0.24459 -3.49919,0.31183 l -0.0716,-1.23717 c 16.76975,-0.95896 32.56016,-9.74848 42.06626,-24.23946 l 1.03255,0.68246 c -0.64201,0.97785 -1.3147,1.93338 -2.01769,2.86907 2.50138,-0.90231 5.00384,-2.02328 7.46594,-3.36914 -0.0626,-2.80515 -0.33826,-5.53379 -0.805,-8.15252 -0.46001,1.07683 -0.95169,2.14125 -1.47867,3.18597 l -1.11986,-0.56505 c 0.51135,-1.01566 0.99967,-2.05032 1.45261,-3.11046 6.49386,-15.20035 5.4675,-31.7195 -1.40354,-45.421644 l 1.11857,-0.561599 c 0.52493,1.045657 1.01527,2.107189 1.47324,3.184797 0.47169,-2.617787 0.75113,-5.340421 0.81926,-8.145378 -2.45941,-1.350557 -4.95624,-2.482183 -7.45577,-3.389407 0.70108,0.93708 1.37299,1.898049 2.01309,2.877132 l -1.03996,0.681826 C 156.19657,77.351753 148.04962,70.249421 137.8758,65.902986 131.97338,63.381382 125.86799,61.996111 119.80904,61.643339 l 0.0733,-1.24328 c 1.17042,0.06915 2.33924,0.176673 3.50141,0.320233 -2.27232,-1.797655 -4.53818,-3.527244 -6.66539,-4.790435 z m 16.95633,19.792216 c 8.15808,3.48529 14.69116,9.181534 19.20692,16.088387 l -0.74583,0.485717 c -0.49231,-0.753317 -1.01127,-1.488808 -1.5498,-2.208978 -0.14426,2.241577 -0.4755,4.40662 -0.9736,6.464539 2.02941,0.603554 4.06639,1.402606 6.07615,2.404041 -0.35152,-0.827212 -0.7295,-1.641536 -1.1332,-2.44557 l 0.79672,-0.402098 c 5.51306,10.991309 6.33669,24.243169 1.12727,36.436929 -0.36315,0.85015 -0.75561,1.6823 -1.16563,2.49677 l -0.79392,-0.40104 c 0.40523,-0.80326 0.78496,-1.62019 1.13807,-2.44668 -2.01168,0.99756 -4.04844,1.7967 -6.07891,2.39628 0.49425,2.05886 0.82147,4.22655 0.96152,6.46831 0.53979,-0.71908 1.05625,-1.45646 1.54999,-2.2088 l 0.74845,0.493 c -7.62765,11.61972 -20.29252,18.66327 -33.74357,19.42959 l -0.0533,-0.88903 c 0.89659,-0.0515 1.79,-0.13119 2.68268,-0.23991 -1.87215,-1.24064 -3.57636,-2.60595 -5.1001,-4.066 -1.67376,1.52536 -3.49985,2.98853 -5.10498,4.05601 0.89162,0.1104 1.78867,0.19687 2.68399,0.24949 l -0.0513,0.88763 c -4.86329,-0.28214 -9.75808,-1.39683 -14.495993,-3.42096 -8.156934,-3.48479 -14.693492,-9.17764 -19.209157,-16.08314 l 0.748054,-0.49097 c 0.492305,0.75334 1.009044,1.49406 1.547595,2.21419 0.144264,-2.24156 0.475499,-4.4066 0.973577,-6.46452 -2.029415,-0.60353 -4.066402,-1.4026 -6.076172,-2.40402 0.351523,0.8272 0.72948,1.64152 1.133221,2.44554 l -0.796721,0.40213 c -5.513955,-10.99172 -6.334766,-24.24771 -1.125052,-36.442198 0.363173,-0.850109 0.753388,-1.677038 1.16341,-2.491497 l 0.793917,0.401032 c -0.405252,0.80324 -0.782754,1.614942 -1.135806,2.441414 2.011661,-0.997498 4.0514,-1.789214 6.081853,-2.38877 -0.494253,-2.058863 -0.82145,-4.226571 -0.961486,-6.468311 -0.539789,0.719063 -1.056277,1.456423 -1.55,2.208797 L 80.489949,91.734141 C 88.118215,80.110196 100.78402,73.071692 114.2387,72.306771 l 0.0481,0.886785 c -0.89661,0.05148 -1.79002,0.13117 -2.68266,0.239909 1.87215,1.240665 3.5838,2.602965 5.10753,4.063036 1.67702,-1.519031 3.49482,-2.990596 5.09976,-4.058274 -0.89161,-0.110376 -1.78563,-0.189376 -2.68099,-0.242004 l 0.0535,-0.892873 c 4.85918,0.283363 9.7569,1.39633 14.49077,3.418723 z"
       id="path4144"
       inkscape:connector-curvature="0"
       sodipodi:nodetypes="cccccccccccscccccccsccccccccccccccscccccccsccccsccccccccccccccccccccccscccccccsccccccccccccccs" />
    <circle
       transform="rotate(91.57126)"
       id="path4146"
       style="display:inline;fill:none;stroke:none;stroke-width:0.23544906"
       cx="112.29601"
       cy="-119.79165"
       r="46.080742" />
    <g
       transform="matrix(0.17069892,0,0,0.17069892,-277.71478,51.43022)"
       style="font-style:normal;font-variant:normal;font-weight:bold;font-stretch:normal;font-size:48px;line-height:125%;font-family:Sans;-inkscape-font-specification:'Sans Bold';text-align:center;letter-spacing:0px;word-spacing:0px;text-anchor:middle;display:inline;fill:#ffffff;fill-opacity:1;stroke:none"
       id="text4149">
      <path
         d="m 2050.9908,212.51802 6.848,3.93884 c -1.8166,1.32003 -3.4134,2.70885 -4.7902,4.16647 -1.3767,1.45769 -2.4972,2.93778 -3.3615,4.44026 -1.1467,1.99376 -1.7198,3.62527 -1.7193,4.89454 6e-4,1.26933 0.5788,2.23637 1.7345,2.90112 0.8669,0.49862 1.7287,0.57133 2.5855,0.21817 0.8508,-0.37588 1.9356,-1.30929 3.2546,-2.80021 l 2.7594,-3.1427 c 2.7914,-3.18186 5.3603,-5.10749 7.7064,-5.77689 2.3461,-0.66933 4.8773,-0.22289 7.5934,1.33932 3.5684,2.05255 5.616,4.64343 6.1426,7.77265 0.5204,3.10651 -0.47,6.83407 -2.9712,11.18269 -1.18,2.05153 -2.5592,3.99809 -4.1376,5.83968 -1.5783,1.84161 -3.3445,3.57518 -5.2985,5.20071 l -7.0431,-4.05103 c 2.2863,-1.43441 4.2637,-2.95032 5.9324,-4.54774 1.6625,-1.62016 3.009,-3.32597 4.0394,-5.11745 1.047,-1.82034 1.5455,-3.38902 1.4955,-4.70602 -0.05,-1.31696 -0.6385,-2.29953 -1.7654,-2.94772 -1.0113,-0.58166 -1.9826,-0.6981 -2.9138,-0.34932 -0.923,0.33438 -2.1662,1.35932 -3.7298,3.07483 l -2.5724,2.81765 c -2.5548,2.83734 -5.0228,4.57099 -7.404,5.20097 -2.3729,0.61555 -4.8451,0.18375 -7.4168,-1.29541 -3.2217,-1.85307 -5.1011,-4.31841 -5.6382,-7.39602 -0.537,-3.07756 0.3162,-6.56674 2.5598,-10.46755 1.0222,-1.77698 2.2107,-3.52562 3.5654,-5.24592 1.3403,-1.72853 2.8553,-3.44318 4.5449,-5.14392"
         style="font-style:normal;font-variant:normal;font-weight:bold;font-stretch:normal;font-size:48px;font-family:Sans;-inkscape-font-specification:'Sans Bold';fill:#ffffff;stroke-width:1.06666672"
         id="path3348"
         inkscape:connector-curvature="0" />
      <path
         d="m 2063.6807,207.68006 5.4316,-7.11341 19.6679,5.54987 -11.217,-16.61738 5.4315,-7.11341 17.2145,27.95955 c 1.7589,2.83196 2.6481,5.25138 2.6675,7.25828 0.043,2.00378 -0.7199,4.03228 -2.2877,6.08549 l -3.1406,4.11306 -4.6693,-3.56542 1.6992,-2.22542 c 0.9204,-1.20544 1.3959,-2.22636 1.4264,-3.06281 0.041,-0.84967 -0.3193,-1.80615 -1.0802,-2.86942 l -0.4643,-0.66903 -30.6795,-7.72995"
         style="font-style:normal;font-variant:normal;font-weight:bold;font-stretch:normal;font-size:48px;font-family:Sans;-inkscape-font-specification:'Sans Bold';fill:#ffffff;stroke-width:1.06666672"
         id="path3350"
         inkscape:connector-curvature="0" />
      <path
         d="m 2104.6607,160.97796 4.8821,4.73337 c -1.9086,0.81926 -3.6271,1.72983 -5.1556,2.73173 -1.5285,1.00196 -2.8438,2.07132 -3.946,3.20807 -1.1834,1.22055 -1.9095,2.28078 -2.1785,3.1807 -0.2692,0.87639 -0.086,1.62202 0.5473,2.23686 0.5146,0.49888 1.1241,0.66036 1.8286,0.48443 0.7161,-0.18786 1.7026,-0.79835 2.9596,-1.83146 l 1.2578,-0.97416 c 3.6092,-2.88459 6.4435,-4.43121 8.5029,-4.63991 2.0594,-0.20862 4.1122,0.67896 6.1584,2.66277 2.1419,2.07667 2.9856,4.42681 2.5312,7.05043 -0.4545,2.62366 -2.2015,5.50302 -5.2409,8.6381 -1.2878,1.32825 -2.7297,2.59992 -4.3257,3.81504 -1.5724,1.21477 -3.293,2.36701 -5.162,3.4567 l -4.8821,-4.73336 c 1.8635,-0.67708 3.6006,-1.5349 5.2111,-2.57347 1.622,-1.05051 3.106,-2.26981 4.4517,-3.65788 1.2181,-1.25642 1.9612,-2.36994 2.229,-3.3406 0.2678,-0.97062 0.061,-1.78658 -0.6213,-2.44788 -0.5743,-0.55684 -1.2138,-0.74733 -1.9182,-0.57143 -0.7049,0.15236 -1.7674,0.80528 -3.1874,1.95873 l -1.24,0.99157 c -3.1317,2.51185 -5.739,3.87229 -7.822,4.0813 -2.083,0.20904 -4.1117,-0.64356 -6.0861,-2.55781 -2.1299,-2.06503 -3.0018,-4.32634 -2.6155,-6.78393 0.3863,-2.45754 2.0412,-5.19405 4.9647,-8.20951 1.1486,-1.18461 2.4449,-2.34206 3.889,-3.47238 1.4439,-1.13024 3.0999,-2.27557 4.9679,-3.43602"
         style="font-style:normal;font-variant:normal;font-weight:bold;font-stretch:normal;font-size:48px;font-family:Sans;-inkscape-font-specification:'Sans Bold';fill:#ffffff;stroke-width:1.06666672"
         id="path3352"
         inkscape:connector-curvature="0" />
      <path
         d="m 2114.8861,140.2808 5.1191,6.08247 7.0581,-5.94017 4.121,4.89659 -7.0579,5.94017 7.6465,9.08547 c 0.8371,0.99464 1.6035,1.50412 2.2994,1.52845 0.685,0.0116 1.6141,-0.47625 2.7873,-1.46361 l 3.5194,-2.96204 4.1211,4.89658 -5.872,4.9421 c -2.7034,2.2752 -5.0948,3.3293 -7.174,3.1623 -2.0774,-0.19045 -4.2536,-1.63736 -6.5288,-4.34068 l -7.6465,-9.08546 -3.4047,2.86545 -4.121,-4.89659 3.4046,-2.86545 -5.1192,-6.08249 6.8476,-5.76309"
         style="font-style:normal;font-variant:normal;font-weight:bold;font-stretch:normal;font-size:48px;font-family:Sans;-inkscape-font-specification:'Sans Bold';fill:#ffffff;stroke-width:1.06666672"
         id="path3354"
         inkscape:connector-curvature="0" />
      <path
         d="m 2164.8206,131.18539 1.4196,2.11827 -17.3823,11.64957 c 1.3491,1.62384 2.8559,2.50999 4.5204,2.65846 1.6645,0.14849 3.4659,-0.42678 5.4042,-1.72583 1.5644,-1.04849 3.0105,-2.34863 4.3379,-3.90044 1.3321,-1.57488 2.548,-3.41299 3.6476,-5.51432 l 3.8414,5.73179 c -1.3129,1.84298 -2.7372,3.51981 -4.2728,5.03048 -1.5264,1.52455 -3.1686,2.87602 -4.9269,4.05442 -4.2088,2.82076 -8.1976,3.94915 -11.9664,3.38516 -3.7642,-0.58712 -6.9406,-2.81203 -9.5294,-6.67476 -2.5424,-3.79349 -3.3998,-7.54256 -2.5721,-11.24725 0.8415,-3.71389 3.2697,-6.91629 7.2847,-9.60719 3.655,-2.44956 7.314,-3.30673 10.9768,-2.57148 3.6767,0.72603 6.7491,2.93041 9.2173,6.61312 m -9.2987,2.6506 c -0.9464,-1.41215 -2.1226,-2.26907 -3.5286,-2.57075 -1.4014,-0.32475 -2.7667,-0.0417 -4.0958,0.84898 -1.4399,0.96502 -2.336,2.15751 -2.6885,3.57746 -0.3617,1.40614 -0.1431,2.94491 0.6561,4.61629 l 9.6568,-6.47198"
         style="font-style:normal;font-variant:normal;font-weight:bold;font-stretch:normal;font-size:48px;font-family:Sans;-inkscape-font-specification:'Sans Bold';fill:#ffffff;stroke-width:1.06666672"
         id="path3356"
         inkscape:connector-curvature="0" />
      <path
         d="m 2192.262,107.01051 c 0.3134,-2.04708 0.9891,-3.80125 2.027,-5.26254 1.0461,-1.48329 2.4187,-2.611598 4.1177,-3.384936 2.9276,-1.332512 5.5683,-1.444892 7.922,-0.337142 2.3538,1.107837 4.3143,3.383448 5.8816,6.826828 l 7.0633,15.51816 -8.1915,3.72839 -6.0483,-13.28827 c -0.075,-0.20408 -0.1602,-0.41231 -0.2568,-0.62472 -0.081,-0.21924 -0.2121,-0.52608 -0.3915,-0.92051 -0.8217,-1.80511 -1.681,-2.98884 -2.5777,-3.55119 -0.9038,-0.57745 -1.9473,-0.59692 -3.1305,-0.0584 -1.5473,0.70429 -2.4556,1.88685 -2.7252,3.54768 -0.2543,1.654 0.1522,3.69384 1.2197,6.11953 l 5.6961,12.51464 -8.1913,3.72839 -6.0483,-13.28827 c -1.2842,-2.82146 -2.352,-4.52371 -3.2033,-5.10677 -0.8583,-0.59816 -1.9094,-0.61419 -3.1532,-0.048 -1.5625,0.71119 -2.475,1.90478 -2.7376,3.58079 -0.2696,1.66089 0.1377,3.68211 1.2217,6.06366 l 5.7065,12.5374 -8.1914,3.72839 -11.5994,-25.48436 8.1913,-3.7284 1.6986,3.73164 c 0.3453,-1.89674 0.9968,-3.50262 1.9548,-4.81765 0.9732,-1.32188 2.2409,-2.33841 3.8034,-3.0496 1.7596,-0.80088 3.5078,-1.08385 5.2445,-0.8489 1.7367,0.23502 3.3026,0.95976 4.6978,2.17422"
         style="font-style:normal;font-variant:normal;font-weight:bold;font-stretch:normal;font-size:48px;font-family:Sans;-inkscape-font-specification:'Sans Bold';fill:#ffffff;stroke-width:1.06666672"
         id="path3358"
         inkscape:connector-curvature="0" />
      <path
         d="m 2273.6903,105.55866 c -1.5604,1.2356 -3.2371,2.26454 -5.0301,3.08681 -1.7932,0.8223 -3.7125,1.43133 -5.7578,1.8271 -6.1035,1.18101 -11.2681,0.41486 -15.4938,-2.29844 -4.2289,-2.72965 -6.9085,-7.0153 -8.0389,-12.85696 -1.1334,-5.857984 -0.246,-10.83387 2.6626,-14.927673 2.9055,-4.1101 7.4099,-6.755668 13.5134,-7.936712 2.0453,-0.395736 4.0532,-0.5466 6.0237,-0.452591 1.9703,0.09409 3.9099,0.423296 5.8185,0.987608 l 1.4676,7.584321 c -1.982,-0.855689 -3.8777,-1.39708 -5.6871,-1.624174 -1.8095,-0.227024 -3.655,-0.158495 -5.5368,0.205586 -3.3708,0.652277 -5.8126,2.245173 -7.3256,4.778692 -1.5128,2.533579 -1.9021,5.698477 -1.1674,9.494704 0.7313,3.779905 2.2714,6.563007 4.6202,8.349309 2.3488,1.78634 5.2086,2.35337 8.5794,1.70112 1.8817,-0.3641 3.6197,-0.98898 5.2138,-1.87463 1.5941,-0.88562 3.151,-2.095083 4.6708,-3.628394 l 1.4675,7.584324"
         style="font-style:normal;font-variant:normal;font-weight:bold;font-stretch:normal;font-size:48px;font-family:Sans;-inkscape-font-specification:'Sans Bold';fill:#ffffff;stroke-width:1.06666672"
         id="path3360"
         inkscape:connector-curvature="0" />
      <path
         d="m 2293.4869,93.500212 c -1.8635,0.106919 -3.2515,0.503721 -4.1636,1.190409 -0.8956,0.685758 -1.308,1.644285 -1.2373,2.875583 0.065,1.131481 0.4903,2.000208 1.2762,2.606176 0.8017,0.5884 1.8765,0.84393 3.2243,0.76661 1.6805,-0.0964 3.0605,-0.77655 4.1399,-2.040444 1.0784,-1.280521 1.5657,-2.827628 1.4617,-4.641324 l -0.059,-1.023317 -4.6424,0.266307 m 13.4593,-4.152634 0.9149,15.948782 -9.0102,0.51686 -0.2377,-4.14318 c -1.1007,1.76593 -2.3774,3.08288 -3.8299,3.95083 -1.4537,0.85131 -3.2538,1.33853 -5.4003,1.46167 -2.8952,0.16608 -5.2979,-0.53914 -7.208,-2.11567 -1.8944,-1.59412 -2.9189,-3.73896 -3.0734,-6.434538 -0.1881,-3.277933 0.7971,-5.746741 2.9556,-7.40643 2.1751,-1.660612 5.6754,-2.62933 10.5008,-2.906156 l 5.2663,-0.302101 -0.041,-0.698851 c -0.081,-1.41432 -0.6977,-2.413981 -1.8497,-2.998985 -1.1531,-0.601597 -2.9109,-0.834637 -5.2737,-0.69912 -1.9136,0.109792 -3.683,0.403276 -5.3084,0.880453 -1.6253,0.477223 -3.1232,1.139094 -4.4936,1.985613 l -0.3909,-6.813798 c 1.8869,-0.575641 3.7886,-1.035312 5.7054,-1.379014 1.9159,-0.360283 3.8388,-0.5958 5.769,-0.706553 5.0417,-0.289185 8.7347,0.500612 11.0789,2.369396 2.3599,1.851245 3.6682,5.01484 3.925,9.490792"
         style="font-style:normal;font-variant:normal;font-weight:bold;font-stretch:normal;font-size:48px;font-family:Sans;-inkscape-font-specification:'Sans Bold';fill:#ffffff;stroke-width:1.06666672"
         id="path3362"
         inkscape:connector-curvature="0" />
      <path
         d="m 2317.7346,66.765062 8.9436,0.341408 -1.484,38.87169 -8.9434,-0.34141 1.4838,-38.871688"
         style="font-style:normal;font-variant:normal;font-weight:bold;font-stretch:normal;font-size:48px;font-family:Sans;-inkscape-font-specification:'Sans Bold';fill:#ffffff;stroke-width:1.06666672"
         id="path3364"
         inkscape:connector-curvature="0" />
      <path
         d="m 2337.8052,67.887173 8.9031,0.91586 -3.9807,38.695797 -8.9031,-0.91586 3.9807,-38.695797"
         style="font-style:normal;font-variant:normal;font-weight:bold;font-stretch:normal;font-size:48px;font-family:Sans;-inkscape-font-specification:'Sans Bold';fill:#ffffff;stroke-width:1.06666672"
         id="path3366"
         inkscape:connector-curvature="0" />
      <path
         d="m 2377.936,75.707917 9.3572,2.25472 -8.7437,36.286423 -9.3571,-2.25472 8.7436,-36.286423"
         style="font-style:normal;font-variant:normal;font-weight:bold;font-stretch:normal;font-size:48px;font-family:Sans;-inkscape-font-specification:'Sans Bold';fill:#ffffff;stroke-width:1.06666672"
         id="path3368"
         inkscape:connector-curvature="0" />
      <path
         d="m 2419.6233,109.69599 -5.6889,16.07295 -8.4842,-3.00292 0.9259,-2.61598 3.4283,-9.68618 c 0.8064,-2.27817 1.3074,-3.86879 1.5033,-4.77187 0.2116,-0.89749 0.264,-1.59498 0.1573,-2.09246 -0.1354,-0.66668 -0.4331,-1.24938 -0.8929,-1.7481 -0.4546,-0.51441 -1.043,-0.89953 -1.7658,-1.15535 -1.7597,-0.62281 -3.3842,-0.42872 -4.8735,0.58227 -1.4838,0.99531 -2.6512,2.69489 -3.502,5.09875 l -4.5961,12.98562 -8.4372,-2.98624 9.3426,-26.395442 8.437,2.986232 -1.3679,3.865048 c 1.8175,-1.089278 3.569,-1.742269 5.2547,-1.958974 1.6911,-0.232377 3.4007,-0.04272 5.1291,0.568962 3.048,1.078843 5.0267,2.83114 5.9362,5.256894 0.925,2.43135 0.7565,5.43028 -0.5059,8.99679"
         style="font-style:normal;font-variant:normal;font-weight:bold;font-stretch:normal;font-size:48px;font-family:Sans;-inkscape-font-specification:'Sans Bold';fill:#ffffff;stroke-width:1.06666672"
         id="path3370"
         inkscape:connector-curvature="0" />
      <path
         d="m 2446.0642,101.31123 -3.4862,7.14489 8.2908,4.04522 -2.8064,5.75187 -8.2908,-4.04524 -5.2072,10.67239 c -0.5702,1.16834 -0.7254,2.0755 -0.4656,2.72147 0.267,0.63099 1.0896,1.28267 2.4676,1.95506 l 4.1342,2.01713 -2.8065,5.75186 -6.8977,-3.36555 c -3.1756,-1.54941 -5.1083,-3.30839 -5.7982,-5.27697 -0.6677,-1.97626 -0.2269,-4.55214 1.3225,-7.72765 l 5.2073,-10.67238 -3.9994,-1.95136 2.8065,-5.75186 3.9994,1.95136 3.4861,-7.144882 8.0436,3.924642"
         style="font-style:normal;font-variant:normal;font-weight:bold;font-stretch:normal;font-size:48px;font-family:Sans;-inkscape-font-specification:'Sans Bold';fill:#ffffff;stroke-width:1.06666672"
         id="path3372"
         inkscape:connector-curvature="0" />
      <path
         d="m 2474.6107,143.30449 -1.363,2.15521 -17.6855,-11.18399 c -0.9393,1.89069 -1.1401,3.62716 -0.6025,5.20942 0.5375,1.58226 1.7923,2.99696 3.7644,4.24409 1.5917,1.00659 3.3657,1.80304 5.3219,2.38934 1.9791,0.5811 4.1519,0.94947 6.5185,1.10511 l -3.6879,5.83175 c -2.2165,-0.45519 -4.3262,-1.07939 -6.329,-1.87261 -2.0117,-0.77917 -3.912,-1.73442 -5.701,-2.86571 -4.2822,-2.70804 -6.9277,-5.89944 -7.9364,-9.57418 -0.9858,-3.67992 -0.2361,-7.48493 2.2493,-11.41503 2.4407,-3.85964 5.5225,-6.16034 9.2454,-6.9021 3.7369,-0.73281 7.6478,0.19243 11.7329,2.77574 3.7187,2.35172 5.9827,5.35116 6.7921,8.99835 0.8233,3.65611 0.05,7.35763 -2.3192,11.10461 m -6.1856,-7.43163 c 0.9086,-1.43681 1.2164,-2.85912 0.9235,-4.26696 -0.2699,-1.413 -1.081,-2.54709 -2.4332,-3.40227 -1.4651,-0.92642 -2.9182,-1.2636 -4.3592,-1.01153 -1.4324,0.23799 -2.7512,1.06048 -3.9564,2.46743 l 9.8253,6.21333"
         style="font-style:normal;font-variant:normal;font-weight:bold;font-stretch:normal;font-size:48px;font-family:Sans;-inkscape-font-specification:'Sans Bold';fill:#ffffff;stroke-width:1.06666672"
         id="path3374"
         inkscape:connector-curvature="0" />
      <path
         d="m 2501.3593,156.51424 c -0.3827,-0.7757 -0.8277,-1.47332 -1.3352,-2.09286 -0.484,-0.62214 -1.0319,-1.17791 -1.6435,-1.66731 -1.7959,-1.43697 -3.6452,-1.96684 -5.548,-1.58961 -1.8793,0.37463 -3.678,1.63556 -5.3961,3.78278 l -8.0595,10.07243 -6.9883,-5.5917 17.4936,-21.86263 6.9882,5.59169 -2.8739,3.59173 c 2.0433,-0.71298 3.9044,-0.93145 5.5832,-0.65539 1.7023,0.27348 3.3668,1.06102 4.9935,2.36261 0.2342,0.18744 0.4776,0.40351 0.7301,0.64819 0.2628,0.23169 0.6284,0.58833 1.0969,1.0699 l -5.041,6.34017"
         style="font-style:normal;font-variant:normal;font-weight:bold;font-stretch:normal;font-size:48px;font-family:Sans;-inkscape-font-specification:'Sans Bold';fill:#ffffff;stroke-width:1.06666672"
         id="path3376"
         inkscape:connector-curvature="0" />
      <path
         d="m 2532.0566,160.17871 -4.0583,4.24802 -3.5792,-3.41935 c -0.916,-0.87496 -1.7158,-1.31644 -2.3997,-1.3244 -0.6724,-0.0199 -1.4,0.37973 -2.1829,1.1992 l -1.347,1.40998 5.5315,5.28445 -4.421,4.62762 -5.5315,-5.28443 -14.9208,15.61826 -6.4714,-6.18245 14.9208,-15.61827 -3.2177,-3.07396 4.421,-4.62764 3.2176,3.07397 1.347,-1.40999 c 2.1069,-2.20533 4.2757,-3.24507 6.5067,-3.11922 2.2422,0.11384 4.6529,1.40264 7.2319,3.86639 l 4.953,4.73182"
         style="font-style:normal;font-variant:normal;font-weight:bold;font-stretch:normal;font-size:48px;font-family:Sans;-inkscape-font-specification:'Sans Bold';fill:#ffffff;stroke-width:1.06666672"
         id="path3378"
         inkscape:connector-curvature="0" />
      <path
         d="m 2525.6387,192.50966 c -1.2074,-1.42352 -2.36,-2.29267 -3.4575,-2.60744 -1.0867,-0.30207 -2.1003,-0.0542 -3.0408,0.7436 -0.8643,0.73312 -1.3018,1.5959 -1.3122,2.58831 0.013,0.99434 0.456,2.00626 1.3292,3.03578 1.089,1.2837 2.463,1.97592 4.122,2.07667 1.6716,0.0899 3.2003,-0.45265 4.5857,-1.6278 l 0.7816,-0.66304 -3.008,-3.54608 m 11.4199,8.24533 -12.1825,10.3338 -5.8381,-6.88244 3.1648,-2.68453 c -2.0727,0.18456 -3.8929,-0.0418 -5.4605,-0.67892 -1.555,-0.64797 -3.0278,-1.79174 -4.4187,-3.43132 -1.8759,-2.21154 -2.7595,-4.55444 -2.6511,-7.02872 0.1321,-2.47236 1.2277,-4.58183 3.2866,-6.32839 2.5039,-2.12389 5.0682,-2.82385 7.6931,-2.09989 2.6355,0.73669 5.5165,2.94797 8.6431,6.63386 l 3.4122,4.02271 0.5339,-0.45282 c 1.0803,-0.91641 1.5071,-2.01063 1.2805,-3.28266 -0.214,-1.28282 -1.0864,-2.82662 -2.6174,-4.63145 -1.2398,-1.46164 -2.5395,-2.69762 -3.8992,-3.70794 -1.3596,-1.01031 -2.79,-1.80767 -4.2911,-2.39209 l 5.2047,-4.41491 c 1.5958,1.15979 3.1079,2.40138 4.5365,3.72478 1.4412,1.31265 2.7872,2.70614 4.0378,4.18049 3.2667,3.85112 4.8598,7.27511 4.7793,10.272 -0.057,2.9988 -1.7951,5.94828 -5.2139,8.84844"
         style="font-style:normal;font-variant:normal;font-weight:bold;font-stretch:normal;font-size:48px;font-family:Sans;-inkscape-font-specification:'Sans Bold';fill:#ffffff;stroke-width:1.06666672"
         id="path3380"
         inkscape:connector-curvature="0" />
      <path
         d="m 2564.9079,221.82319 -6.0916,4.02263 c 0.025,-1.47449 -0.1354,-2.83653 -0.4813,-4.08613 -0.3367,-1.2357 -0.8678,-2.40291 -1.5932,-3.50163 -1.3777,-2.08619 -3.0643,-3.30931 -5.0596,-3.66938 -1.9722,-0.35534 -4.0502,0.18794 -6.2337,1.62985 -2.1835,1.4419 -3.5061,3.14413 -3.9678,5.10669 -0.4385,1.96727 0.031,3.994 1.4087,6.0802 0.7715,1.16825 1.6755,2.15912 2.712,2.97264 1.0456,0.82738 2.2031,1.46112 3.4724,1.90123 l -6.1125,4.0364 c -1.2027,-0.88357 -2.3078,-1.86147 -3.3153,-2.93367 -1.0124,-1.04916 -1.9181,-2.17872 -2.7171,-3.38869 -2.7829,-4.21411 -3.8816,-8.22206 -3.2964,-12.02384 0.5992,-3.81096 2.825,-6.98844 6.6775,-9.53244 3.8525,-2.54399 7.6419,-3.33863 11.3681,-2.38392 3.74,0.94555 7.0015,3.52536 9.7843,7.73946 0.8082,1.22389 1.4913,2.50039 2.0495,3.82951 0.5812,1.33385 1.0465,2.7342 1.396,4.20109"
         style="font-style:normal;font-variant:normal;font-weight:bold;font-stretch:normal;font-size:48px;font-family:Sans;-inkscape-font-specification:'Sans Bold';fill:#ffffff;stroke-width:1.06666672"
         id="path3382"
         inkscape:connector-curvature="0" />
      <path
         d="m 2571.3199,262.20537 -2.2815,1.139 -9.3466,-18.72154 c -1.782,1.13185 -2.8525,2.51383 -3.2113,4.14596 -0.3587,1.6321 -0.017,3.49197 1.0253,5.5796 0.8412,1.68501 1.9471,3.28446 3.3177,4.79838 1.3928,1.52135 3.0615,2.9609 5.0062,4.31865 l -6.1735,3.08204 c -1.6612,-1.53647 -3.1436,-3.16224 -4.4468,-4.87733 -1.3183,-1.70769 -2.4501,-3.5084 -3.3955,-5.40216 -2.2632,-4.53314 -2.8757,-8.63297 -1.8374,-12.29949 1.0606,-3.65905 3.6711,-6.52709 7.8315,-8.60412 4.0858,-2.03979 7.9134,-2.41389 11.4829,-1.12226 3.5768,1.30654 6.4448,4.122 8.6037,8.44637 1.9653,3.93666 2.3506,7.67485 1.156,11.21458 -1.1873,3.55461 -3.7642,6.32205 -7.7307,8.30232 m -1.4477,-9.56008 c 1.521,-0.75935 2.5204,-1.81715 2.9983,-3.1734 0.5002,-1.3488 0.393,-2.73895 -0.3217,-4.17046 -0.7743,-1.55082 -1.8432,-2.59123 -3.2068,-3.12126 -1.3488,-0.53747 -2.903,-0.51605 -4.6623,0.0642 l 5.1925,10.40087"
         style="font-style:normal;font-variant:normal;font-weight:bold;font-stretch:normal;font-size:48px;font-family:Sans;-inkscape-font-specification:'Sans Bold';fill:#ffffff;stroke-width:1.06666672"
         id="path3384"
         inkscape:connector-curvature="0" />
    </g>
    <circle
       style="display:inline;fill:none;stroke:none;stroke-width:0.264842"
       id="path4155"
       transform="matrix(-0.72540457,0.68832275,0.68832275,0.72540457,0,0)"
       cx="-5.1032882"
       cy="164.11702"
       r="51.833363" />
    <g
       transform="matrix(0.17069892,0,0,0.17069892,-277.71478,51.43022)"
       style="font-style:normal;font-variant:normal;font-weight:normal;font-stretch:normal;font-size:32px;line-height:125%;font-family:Sans;-inkscape-font-specification:Sans;text-align:start;letter-spacing:0px;word-spacing:0px;writing-mode:lr-tb;text-anchor:start;display:inline;fill:#000000;fill-opacity:1;stroke:none"
       id="text4157" />
    <g
       style="display:inline"
       id="g4281"
       transform="matrix(0.21959668,0,0,0.21959668,87.506779,80.710596)">
      <path
         inkscape:export-ydpi="89.886803"
         inkscape:export-xdpi="89.886803"
         inkscape:export-filename="/home/gringer/interface/tux_new_flat.png"
         id="path2389"
         d="M 131.03333,83.587953 C 119.1255,84.34438 105.40395,87.287078 97.9,97.221286 c -3.272704,7.065264 -0.524928,15.687614 -5.766667,22.100004 -5.836629,9.3941 -10.752778,19.21771 -12.695738,30.1813 -6.185186,18.43756 -19.174444,34.84531 -19.304262,55.0187 -2.839314,22.99938 8.756012,44.82266 21.6,62.86667 7.396534,10.13974 17.540139,20.00671 30.999997,20.3 15.57153,1.40677 31.86106,-0.59825 44.86667,-9.7 22.81086,-12.68814 36.66123,-37.8788 38.26667,-63.56667 1.79423,-23.53233 -1.30502,-48.68376 -16.13334,-67.76667 -4.76154,-9.59921 -6.05171,-20.70677 -11.35176,-30.16627 -5.56104,-9.19679 -4.21496,-22.833805 -14.94824,-28.300397 -6.70892,-3.854549 -14.73559,-4.838688 -22.4,-4.6 z"
         style="fill:#ffffff;fill-opacity:1;stroke:none;stroke-width:1.06666672"
         inkscape:connector-curvature="0" />
      <path
         sodipodi:nodetypes="ccccssc"
         id="path30079"
         d="m 79.549513,127.54707 c 3.758404,3.82316 10.92901,4.99343 16.263456,7.07107 -3.273939,2.19683 -6.605427,1.42528 -10.253048,1.76776 -2.886411,1.97038 -5.360372,3.77685 -8.485282,1.76777 -1.277101,-1.2771 0.894667,-3.20354 1.414214,-4.24264 0.811157,-1.62231 0.707107,-3.38468 0.707107,-4.59619 0,-0.60093 0.235702,-1.17852 0.353553,-1.76777 z"
         style="fill:#cccccc;fill-opacity:1;fill-rule:evenodd;stroke:none;filter:url(#filter32419)"
         inkscape:connector-curvature="0"
         transform="scale(1.0666667)" />
      <path
         inkscape:export-ydpi="89.886803"
         inkscape:export-xdpi="89.886803"
         inkscape:export-filename="/home/gringer/interface/tux_new_flat.png"
         sodipodi:nodetypes="csssssssccsssssssscccssssszzzzsssssssc"
         id="path4393-2"
         d="M 126.4,0.12128635 C 111.60911,1.169314 98.874549,9.0083348 92.566667,22.487953 c -5.107264,10.913976 -5.689728,18.337465 -4.1,52.366667 0.765525,16.386826 1.011808,30.94994 0.566666,32.36667 -1.31088,4.17211 -7.068352,12.63342 -17.1,25.06667 -11.549305,14.31423 -13.549985,17.80975 -16.966666,29.6 -3.710877,12.80546 -7.169149,20.96602 -13.433334,31.83333 -4.383823,7.6052 -5.443871,10.46751 -5.933333,16 -0.425585,4.81045 -0.168944,7.26619 0.866667,8.63333 7.117787,8.43 9.323409,16.36863 20.366666,28 11.905566,10.48602 30.968502,22.60949 38.533334,19.73334 6.123933,-2.32832 7.330813,-9.42814 2.633333,-15.4 -1.158261,-1.47249 -8.898816,-8.17357 -17.233333,-14.86667 -8.334508,-6.69311 -16.057746,-13.16096 -17.166667,-14.4 -1.802103,-2.01355 -1.989531,-3.52545 -1.5,-14.26667 0.671764,-14.73974 3.416867,-23.53431 13.033333,-42 4.786095,-9.19032 6.91039,-14.61447 7.433334,-18.8 0.804096,-6.43576 4.354069,-14.59251 11.066666,-25.53333 4.03135,-6.57069 3.548139,-7.8894 4.833334,-16.4 C 101.1805,87.969446 140.66525,90.140156 154.4,93.421286 c 2.39917,0.433398 3.76678,3.784512 4,7.200004 0.72884,1.52858 4.00646,8.34552 7.3,15.16667 3.29354,6.82117 6.93019,16.30841 8.06667,21.06666 1.51866,6.35843 3.055,9.85848 5.76666,13.2 4.88689,6.022 8.70456,13.80095 11.46667,23.36667 1.37249,4.75318 3.73879,12.67029 3.44992,24.83524 -0.37425,16.11919 -1.41942,15.66149 -1.38064,18.75682 0.0777,6.19907 -4.16662,7.60807 -4.43824,14.76349 -0.28124,7.40904 12.36015,11.5509 24.70546,9.11747 12.34531,-2.43342 18.97179,-7.71989 21.4889,-12.09683 2.62762,-4.56911 4.42468,-19.03798 3.7746,-29.27619 -0.74721,-11.76812 -3.29318,-21.9348 -9.4,-37.43333 -4.94421,-12.54797 -7.24002,-16.20374 -18,-28.63334 -7.92023,-9.14921 -20.15164,-30.08057 -23.96667,-41 -2.1032,-6.019819 -2.81283,-10.957504 -3.7,-26.5 C 182.18247,42.288556 181.24701,37.133788 176.5,27.45462 171.51325,17.286598 165.09949,11.011315 154.3,5.8212863 144.88461,1.2964255 135.27453,-0.50753072 126.4,0.12128635 Z"
         style="fill:#000000;stroke-width:1.06666672"
         inkscape:connector-curvature="0" />
      <path
         inkscape:export-ydpi="89.886803"
         inkscape:export-xdpi="89.886803"
         inkscape:export-filename="/home/gringer/interface/tux_new_flat.png"
         sodipodi:nodetypes="czcczzzz"
         id="path2427"
         d="m 101.21904,80.741916 c 2.48336,0.962592 6.22289,-1.504651 7.78573,-3.225398 1.56284,-1.720746 3.29554,-4.547413 4.61904,-6.636501 1.89476,-3.497404 2.86188,-7.448154 1.80952,-11.258731 -1.33423,-4.194721 -6.28817,-12.79343 -12.41111,-12.360317 -6.122945,0.433112 -7.317388,9.455237 -7.855553,13.493651 -0.538166,4.038414 -0.09818,9.180938 0.6,12.466666 0.698176,3.285728 2.969013,6.558038 5.452373,7.52063 z"
         style="fill:#ffffff;fill-opacity:1;stroke:none;stroke-width:1.06666672"
         inkscape:connector-curvature="0" />
      <path
         inkscape:export-ydpi="89.886803"
         inkscape:export-xdpi="89.886803"
         inkscape:export-filename="/home/gringer/interface/tux_new_flat.png"
         sodipodi:nodetypes="csscc"
         style="fill:#000000;stroke-width:1.06666672"
         d="m 98.666667,66.665959 c 0,-5.771939 1.787913,-8.611339 5.422393,-8.611339 3.45605,0 6.43338,3.315225 7.30368,8.466389 0.67811,4.013728 1.22793,6.968821 -2.09841,9.727915 -6.4365,4.070613 -10.064645,-4.30096 -10.627663,-9.582965 z"
         id="path4391-3"
         inkscape:connector-curvature="0" />
      <path
         inkscape:export-ydpi="89.886803"
         inkscape:export-xdpi="89.886803"
         inkscape:export-filename="/home/gringer/interface/tux_new_flat.png"
         sodipodi:nodetypes="cczccccc"
         id="path2431"
         d="m 139.01587,78.602236 c 1.79123,2.317461 2.55216,2.350378 6.51746,2.303978 5.85705,0.12832 11.00198,-2.032731 13.56667,-8.684928 2.56469,-6.652196 -0.12853,-11.766613 -2.63333,-17.033333 -2.2842,-4.980788 -5.64848,-8.586385 -11.16667,-8.866667 -3.71279,-0.07405 -6.82852,1.650515 -9.66667,3.9 -3.74161,3.228651 -5.43747,7.324362 -6.00263,11.744986 -0.24813,5.321567 6.10649,12.089765 9.38517,16.635964 z"
         style="fill:#ffffff;fill-opacity:1;stroke:none;stroke-width:1.06666672"
         inkscape:connector-curvature="0" />
      <path
         inkscape:export-ydpi="89.886803"
         inkscape:export-xdpi="89.886803"
         inkscape:export-filename="/home/gringer/interface/tux_new_flat.png"
         sodipodi:nodetypes="ccssc"
         style="fill:#000000;stroke-width:1.06666672"
         d="m 140.99584,77.265724 c -5.25088,-3.642912 -5.15628,-10.772041 -2.65766,-16.040431 2.39092,-3.493764 3.53266,-4.201527 6.80922,-4.221006 7.08173,-0.0421 10.6897,11.794706 5.33334,17.497266 -2.84256,3.026272 -4.94667,4.770624 -9.4849,2.764171 z"
         id="path2163"
         inkscape:connector-curvature="0" />
      <path
         style="opacity:0.35;fill:#000000;filter:url(#filter30073)"
         d="m 107.03369,115.84439 c -1.11626,-0.48419 -2.63193,-1.55305 -4.26593,-2.91422 -5.489245,-4.60412 -8.252838,-17.709803 -14.19865,-16.036841 -0.37791,-0.871471 -0.305543,-1.983546 0.197471,-3.285424 0.503015,-1.301878 1.436677,-2.793559 2.781358,-4.424241 1.344681,-1.630682 3.100381,-3.400365 5.247471,-5.258248 8.75586,-7.57646 11.9327,-8.85895 20.43713,-8.25046 3.70604,0.26517 7.34899,0.98899 8.09544,1.60849 2.1684,1.79961 15.73449,7.14276 18.13524,7.14276 1.20349,0 3.20117,1.07831 4.4393,2.39624 1.94885,2.07445 4.54008,4.476601 3.94687,8.678571 -0.77148,5.464653 -3.83995,0.251531 -5.87834,0.782331 -1.37152,0.35714 -6.9265,9.876292 -11.92114,13.217152 -4.99464,3.34085 -10.53366,6.49085 -12.30893,7 -4.67513,1.34081 -10.72582,1.07088 -14.70729,-0.65611 z"
         id="use15293"
         inkscape:export-filename="/home/gringer/interface/tux_new_flat.png"
         inkscape:export-xdpi="89.886803"
         inkscape:export-ydpi="89.886803"
         sodipodi:nodetypes="cccsssssssssssc"
         inkscape:connector-curvature="0"
         transform="scale(1.0666667)" />
      <path
         sodipodi:nodetypes="cccsssssssssssc"
         inkscape:export-ydpi="89.886803"
         inkscape:export-xdpi="89.886803"
         inkscape:export-filename="/home/gringer/interface/tux_new_flat.png"
         id="path2165"
         d="m 114.16927,112.90068 c -1.19068,-0.51647 -2.80739,-1.65658 -4.55033,-3.1085 -5.85519,-4.91106 -10.580801,-11.017441 -15.145223,-17.105962 -0.403104,-0.929569 -0.325912,-2.115783 0.210636,-3.504453 0.536549,-1.38867 1.532456,-2.979796 2.966782,-4.71919 1.434326,-1.739394 3.307075,-3.627056 5.597305,-5.608798 9.33958,-8.081557 12.72821,-9.449547 21.7996,-8.800491 3.95311,0.282848 7.83893,1.054923 8.63514,1.715723 2.31296,1.919584 16.78345,7.618944 19.34425,7.618944 1.28373,0 3.41459,1.150197 4.73526,2.555989 2.07877,2.212747 2.30307,3.251232 1.67031,7.733334 -0.82291,5.82896 -2.0642,8.649255 -4.23848,9.215439 -1.46296,0.380952 -6.88033,3.677565 -12.20795,7.241145 -5.32762,3.56358 -11.2359,6.92358 -13.12952,7.46667 -4.98681,1.4302 -11.44088,1.14228 -15.68778,-0.69985 z"
         style="fill:#f2ba0a;stroke-width:1.06666672"
         inkscape:connector-curvature="0" />
      <path
         inkscape:export-ydpi="89.886803"
         inkscape:export-xdpi="89.886803"
         inkscape:export-filename="/home/gringer/interface/tux_new_flat.png"
         sodipodi:nodetypes="czcczccz"
         id="path4395-2"
         d="m 131.1699,284.80641 c -20.58997,1.83778 -24.62457,-1.50983 -31.604823,-4.67877 -6.769024,-3.07305 -11.336938,-9.27749 -12.702442,-6.63919 5.28272,7.15252 8.912725,19.4899 8.973877,34.29475 7.294478,-4.31159 6.354188,-5.20941 18.811108,-6.57778 12.52667,-1.37603 41.92453,-0.0993 64.05238,2.81587 -5.03914,-17.05276 1.93002,-34.15261 2.3056,-51.24366 -15.28958,22.52056 -29.18046,30.18516 -49.8357,32.02878 z"
         style="fill:#000000;stroke-width:1.06666672"
         inkscape:connector-curvature="0" />
      <path
         style="opacity:0.35;fill:#000000;filter:url(#filter15289)"
         d="m 155.55796,269.92621 c 1.02167,-8.95488 1.23198,-17.97057 1.31704,-27 0.11419,-12.37878 -1.20155,-17.40197 2.16585,-19.41154 3.59176,-2.14345 6.58085,0.0938 19.87048,1.23512 13.26514,1.13919 11.17045,1.14375 33.34778,-1.88946 3.28339,2.15136 4.74089,9.69394 4.74089,15.52314 0,4.13412 1.98896,-0.43079 3.85961,9.74592 1.99052,10.8288 -33.82661,43.19061 -65.30165,21.79682 z"
         id="use10192"
         sodipodi:nodetypes="ccszcszc"
         inkscape:export-filename="/home/gringer/interface/tux_new_flat.png"
         inkscape:export-xdpi="89.886803"
         inkscape:export-ydpi="89.886803"
         inkscape:connector-curvature="0"
         transform="scale(1.0666667)" />
      <path
         inkscape:export-ydpi="89.886803"
         inkscape:export-xdpi="89.886803"
         inkscape:export-filename="/home/gringer/interface/tux_new_flat.png"
         sodipodi:nodetypes="czsscszcsssssszz"
         id="path4404"
         d="m 186.13333,316.03215 c -5.88009,-2.17394 -11.03131,-8.7448 -11.33067,-12.56342 -0.31914,-4.07099 -1.22767,-9.05005 -0.40653,-13.94744 0.82115,-4.89739 1.10925,-6.98146 2.19903,-16.53333 1.08978,-9.55187 1.31411,-19.16861 1.40484,-28.8 0.1218,-13.20403 -1.28165,-18.5621 2.31024,-20.70565 3.83121,-2.28634 7.01957,0.10006 21.19518,1.31747 14.14948,1.21513 11.91515,1.22 35.57096,-2.01543 3.50229,2.29479 5.05695,10.3402 5.05695,16.55802 0,4.40973 0.61716,5.96812 4.11692,10.39565 4.72842,5.98188 9.62051,10.31721 14.41096,12.77083 4.19614,2.14924 4.90213,3.23146 4.92246,7.54577 0.0228,4.85571 -5.89561,10.43598 -16.53661,15.59165 -11.87707,5.75455 -21.12324,11.97678 -29.84706,20.08562 -4.10667,3.81717 -7.94151,7.18577 -11.2,8.87019 -3.25849,1.68442 -15.98657,3.60401 -21.86667,1.43007 z"
         style="fill:#f2ba0a;stroke-width:1.06666672"
         inkscape:connector-curvature="0" />
      <path
         sodipodi:nodetypes="czc"
         id="path2300"
         d="m 174.50088,135.72929 c 14.28205,2.95984 23.81142,21.14423 25.71849,31.63617 1.90707,10.49194 -3.00345,31.50782 -8.94352,43.13544"
         style="fill:none;stroke:#ffffff;stroke-width:0.60243022;stroke-linecap:butt;stroke-linejoin:miter;stroke-miterlimit:4;stroke-dasharray:none;stroke-opacity:1;filter:url(#filter7507)"
         inkscape:connector-curvature="0"
         transform="scale(1.0666667)" />
      <path
         style="opacity:0.35;fill:#000000;filter:url(#filter13199)"
         d="m 217.52679,221.45746 c 2.89595,-8.14715 -6.1145,-8.64162 -14.09524,-10.76786 -7.7582,-2.06696 -17.36538,-2.21292 -19.90313,1.16667 -2.42198,3.2254 -3.99886,6.28449 -4.1131,11.25446 -0.11424,4.96997 2.13651,7.20716 5.6503,10.34673 3.51379,3.13957 7.91434,4.51835 14.55938,3.03125 7.86549,-2.49093 15.08085,-7.09513 17.90179,-15.03125 z"
         id="use8911"
         sodipodi:nodetypes="czzzzcz"
         inkscape:export-filename="/home/gringer/interface/tux_new_flat.png"
         inkscape:export-xdpi="89.886803"
         inkscape:export-ydpi="89.886803"
         inkscape:connector-curvature="0"
         transform="scale(1.0666667)" />
      <path
         inkscape:export-ydpi="89.886803"
         inkscape:export-xdpi="89.886803"
         inkscape:export-filename="/home/gringer/interface/tux_new_flat.png"
         sodipodi:nodetypes="czzzzcz"
         id="path2178"
         d="m 234.16191,227.68796 c 3.08901,-8.6903 -6.52213,-9.21773 -15.03492,-11.48572 -8.27542,-2.20476 -18.52308,-2.36045 -21.23001,1.24445 -2.58344,3.44042 -4.26545,6.70345 -4.38731,12.00476 -0.12185,5.3013 2.27895,7.68763 6.02699,11.03651 3.74804,3.34887 8.44196,4.81957 15.53001,3.23333 8.38985,-2.65699 16.08624,-7.56814 19.09524,-16.03333 z"
         style="fill:#000000;stroke-width:1.06666672"
         inkscape:connector-curvature="0" />
      <path
         inkscape:export-ydpi="89.886803"
         inkscape:export-xdpi="89.886803"
         inkscape:export-filename="/home/gringer/interface/tux_new_flat.png"
         sodipodi:nodetypes="cssssssssssszzsss"
         id="path4406"
         d="M 70.4,315.20911 C 67.173332,314.14717 62.050702,312.27472 59.016375,311.0481 55.982048,309.82148 47.102048,307.15732 39.283042,305.12774 0.06559893,294.94806 0,294.92142 0,289.16949 c 0,-1.77163 1.2575381,-6.85723 2.7945291,-11.30134 2.5613738,-7.40604 2.725408,-8.88114 1.9660661,-17.68019 -1.3541472,-15.69147 -1.2940064,-17.47397 0.7002037,-20.75318 2.2276128,-3.66301 7.2651111,-5.36549 15.9018611,-5.3742 7.174693,-0.007 9.574446,-1.52911 13.525262,-8.57743 2.337484,-4.17012 3.950482,-5.68614 7.4926,-7.04214 5.96916,-2.28513 9.056963,-0.99098 16.502356,6.91637 5.679069,6.03142 7.77093,9.06183 20.729811,30.03058 3.806938,6.16 5.456762,7.65727 8.244858,12.26666 2.788096,4.6094 13.221813,19.2232 13.475783,27.33637 0.25398,8.36712 -4.47333,13.61716 -7.744807,16.69056 -2.865398,2.69191 -10.516512,5.59781 -14.522632,5.51571 -1.539573,-0.0315 -5.439225,-0.92622 -8.665891,-1.98815 z"
         style="fill:#f2ba0a;stroke-width:1.06666672"
         inkscape:connector-curvature="0" />
      <path
         sodipodi:nodetypes="ccssc"
         id="path5704"
         d="m 184.29011,158.58573 c -3.48855,4.56941 -3.94093,5.58138 4.07446,2.63186 2.02686,0 2.68348,-2.72777 2.21755,-4.59149 -0.45307,-1.81228 -6.28845,-8.41374 -7.80929,-7.72758 -2.62515,1.18437 5.28832,7.6242 1.51728,9.68721 z"
         style="opacity:0.57345976;fill:#ffffff;fill-opacity:1;fill-rule:evenodd;stroke:#000000;stroke-width:1.20486045px;stroke-linecap:butt;stroke-linejoin:miter;stroke-opacity:1;filter:url(#filter8904)"
         inkscape:connector-curvature="0"
         transform="scale(1.0666667)" />
      <path
         style="opacity:0.7819905;fill:url(#radialGradient21883);fill-opacity:1;stroke-width:1.06666672"
         d="m 114.16927,112.90068 c -1.19068,-0.51647 -2.80739,-1.65658 -4.55033,-3.1085 -5.85519,-4.91106 -10.580801,-11.017441 -15.145223,-17.105962 -0.403104,-0.929569 -0.325912,-2.115783 0.210636,-3.504453 0.536549,-1.38867 1.532456,-2.979796 2.966782,-4.71919 1.434326,-1.739394 3.307075,-3.627056 5.597305,-5.608798 9.33958,-8.081557 12.72821,-9.449547 21.7996,-8.800491 3.95311,0.282848 7.83893,1.054923 8.63514,1.715723 2.31296,1.919584 16.78345,7.618944 19.34425,7.618944 1.28373,0 3.41459,1.150197 4.73526,2.555989 2.07877,2.212747 2.30307,3.251232 1.67031,7.733334 -0.82291,5.82896 -2.0642,8.649255 -4.23848,9.215439 -1.46296,0.380952 -6.88033,3.677565 -12.20795,7.241145 -5.32762,3.56358 -11.2359,6.92358 -13.12952,7.46667 -4.98681,1.4302 -11.44088,1.14228 -15.68778,-0.69985 z"
         id="use20900"
         inkscape:export-filename="/home/gringer/interface/tux_new_flat.png"
         inkscape:export-xdpi="89.886803"
         inkscape:export-ydpi="89.886803"
         sodipodi:nodetypes="cccsssssssssssc"
         inkscape:connector-curvature="0" />
      <path
         sodipodi:nodetypes="cccccc"
         id="path17759"
         d="m 89.230142,86.588857 c 4.184035,0.226747 6.301586,4.768708 9.655384,6.68566 6.164164,4.129843 14.503514,5.065793 21.231114,1.738938 5.84785,-2.517192 10.77831,-6.65648 16.31122,-9.73824 2.28187,-1.591865 4.68886,-3.029037 7.29589,-4.015688 1.27443,-0.649364 0.87655,0.0963 0.1448,0.270103"
         style="fill:none;stroke:#000000;stroke-width:1.20486045;stroke-linecap:round;stroke-linejoin:miter;stroke-miterlimit:4;stroke-dasharray:none;stroke-opacity:0.78431373;filter:url(#filter5292)"
         inkscape:connector-curvature="0"
         transform="scale(1.0666667)" />
      <path
         sodipodi:nodetypes="ccczcccc"
         id="path21885"
         d="m 150.34437,20.255502 c -0.22447,0 -0.22447,0 0,0 -5.24414,-6.296568 -14.15274,-9.951123 -22.05499,-11.953472 -1.53703,5.379084 1.93778,7.912767 0.98108,12.349542 -0.94522,4.383496 0.31844,5.66635 -0.32578,8.528776 7.59956,0.464458 1.42612,-0.414131 7.51275,-5.077878 7.8119,-4.867535 7.57858,0.260637 12.20336,-0.81651 0.91747,-0.458736 1.91048,-1.895993 1.68358,-3.030458 z"
         style="fill:url(#radialGradient61424);fill-opacity:1;fill-rule:evenodd;stroke:none;filter:url(#filter63644)"
         inkscape:connector-curvature="0"
         transform="scale(1.0666667)" />
      <path
         sodipodi:nodetypes="ccsc"
         id="path25354"
         d="m 132.81944,38.749023 c 2.86031,1.032483 8.51199,1.618462 11.08676,3.187522 1.78557,0.946563 3.13663,2.327041 4.18999,3.91345 1.05336,1.586408 1.80903,3.378746 2.40381,5.149028"
         style="fill:none;stroke:url(#radialGradient26374);stroke-width:2.4097209;stroke-linecap:butt;stroke-linejoin:miter;stroke-miterlimit:4;stroke-dasharray:none;stroke-opacity:1;filter:url(#filter27389)"
         inkscape:connector-curvature="0"
         transform="scale(1.0666667)" />
      <path
         style="fill:url(#radialGradient6296);fill-opacity:1;stroke:none;filter:url(#filter6390)"
         d="m 148.41851,56.113302 c -2.62772,-7.315593 -5.49923,-12.146761 -12.19976,-12.687096 -8.0885,0.429311 -10.93335,4.621074 -13.64972,10.377237 7.8423,-5.679771 18.38943,-2.776789 25.84948,2.309859 z"
         id="use5308"
         sodipodi:nodetypes="cccc"
         inkscape:export-filename="/home/gringer/interface/tux_new_flat.png"
         inkscape:export-xdpi="89.886803"
         inkscape:export-ydpi="89.886803"
         inkscape:connector-curvature="0"
         transform="scale(1.0666667)" />
      <path
         sodipodi:nodetypes="ccccccccc"
         id="path4159-9"
         d="m 110.49683,170.42878 c 0.96695,7.90669 -1.26098,9.49659 -0.95056,14.50055 0.18283,6.5524 -0.008,13.11112 -1.2576,19.65828 -0.39376,7.24043 2.29304,15.91414 2.28372,23.11367 0.17289,1.28136 -0.71077,2.62422 -1.2569,0.74288 -3.65282,-5.25662 -3.05712,-13.87063 -3.12518,-20.01425 -0.0459,-3.76128 -0.24957,-7.52014 -0.32677,-11.27924 -0.42922,-6.26028 -0.17206,-12.76824 1.98174,-18.89828 1.24068,-3.18262 -0.60534,-6.76043 2.65155,-7.82361 z"
         style="fill:#cccccc;fill-opacity:1;fill-rule:nonzero;stroke:none;filter:url(#filter33396)"
         inkscape:connector-curvature="0"
         transform="scale(1.0666667)" />
      <path
         inkscape:export-ydpi="89.886803"
         inkscape:export-xdpi="89.886803"
         inkscape:export-filename="/home/gringer/interface/tux_new_flat.png"
         sodipodi:nodetypes="ccc"
         id="use6394"
         d="M 106.95448,52.684902 C 98.563657,39.431605 91.928088,42.86941 89.427832,54.260563 c 3.884419,-4.660496 12.974338,-5.11723 17.526648,-1.575661 z"
         style="fill:url(#radialGradient6398);fill-opacity:1;stroke:none;filter:url(#filter6390)"
         inkscape:connector-curvature="0"
         transform="scale(1.0666667)" />
      <path
         style="fill:none;stroke:url(#radialGradient6404);stroke-width:1.92777646;stroke-linecap:butt;stroke-linejoin:miter;stroke-miterlimit:4;stroke-dasharray:none;stroke-opacity:1;filter:url(#filter27389)"
         d="m 89.910345,46.183373 c 3.092623,-8.966031 13.193985,-6.17872 16.569695,-0.333378 1.05336,1.586408 2.45549,4.671676 3.05027,6.441958"
         id="use6400"
         sodipodi:nodetypes="ccc"
         inkscape:connector-curvature="0"
         transform="scale(1.0666667)" />
      <path
         sodipodi:nodetypes="ccc"
         d="m 122.98977,71.136534 c -1.4605,-1.299928 -2.75376,-1.482952 -4.03889,-1.712373 1.72346,-1.87978 3.01813,-0.488922 4.03889,1.712373 z"
         id="path7521"
         style="fill:#000000;fill-opacity:1;fill-rule:nonzero;stroke:none;filter:url(#filter8627)"
         inkscape:connector-curvature="0"
         transform="scale(1.0666667)" />
      <path
         sodipodi:nodetypes="cczc"
         id="path7535"
         d="m 106.12711,70.55473 c 1.38759,-1.397931 2.47769,-1.437243 4.02764,-1.59832 -0.98848,-0.616528 -1.02399,-1.190609 -2.5813,-0.738853 -1.46761,0.425736 -1.41768,1.721711 -1.44634,2.337173 z"
         style="fill:#000000;fill-opacity:1;fill-rule:nonzero;stroke:none;filter:url(#filter9676)"
         inkscape:connector-curvature="0"
         transform="scale(1.0666667)" />
      <path
         id="path9680"
         d="m 173.25269,101.49505 c -1.08254,-3.803767 -4.62369,-5.220943 -8.40405,-7.111121 -3.13984,-1.569922 -4.27496,-1.715206 -7.75758,-2.585861 -2.3373,-0.584325 2.15488,4.309769 3.23233,6.464653 1.39022,2.780439 2.44348,3.594039 3.87879,6.464649 0.95401,1.90802 3.01684,3.01684 4.52526,4.52526 2.11683,2.11684 2.65513,-5.41993 4.52525,-7.75758 z"
         style="fill:#8b8b8b;fill-opacity:1;fill-rule:evenodd;stroke:none;filter:url(#filter13236)"
         inkscape:connector-curvature="0"
         transform="scale(1.0666667)" />
      <path
         sodipodi:nodetypes="cc"
         id="use26716"
         d="m 111.16035,61.045254 c 4.44488,-0.842523 7.89949,-1.276245 10.36996,3.10858"
         style="fill:none;stroke:url(#radialGradient26720);stroke-width:1.92777646;stroke-linecap:butt;stroke-linejoin:miter;stroke-miterlimit:4;stroke-dasharray:none;stroke-opacity:1;filter:url(#filter27389)"
         inkscape:connector-curvature="0"
         transform="scale(1.0666667)" />
      <path
         sodipodi:nodetypes="ccccz"
         id="path27827"
         d="m 132.3667,56.031916 c -0.40462,-3.5513 8.13216,-2.158315 9.77354,1.621388 0.75725,1.881078 1.99207,4.155884 0.9339,6.14271 -1.80227,1.491908 -4.11949,-0.387719 -4.32674,-2.386969 -0.15655,-3.849919 -5.97608,-1.825829 -6.3807,-5.377129 z"
         style="fill:url(#radialGradient28856);fill-opacity:1;fill-rule:evenodd;stroke:none;filter:url(#filter28894)"
         inkscape:connector-curvature="0"
         transform="scale(1.0666667)" />
      <path
         style="fill:url(#radialGradient28902);fill-opacity:1;fill-rule:evenodd;stroke:none;filter:url(#filter28894)"
         d="m 91.859516,57.599252 c -0.40462,-3.5513 8.132162,-2.158315 9.773544,1.621388 0.75725,1.881078 1.99207,4.155884 0.9339,6.14271 -1.80227,1.491908 -3.903162,-4.281704 -4.110412,-6.280954 -0.15655,-3.849919 -6.192412,2.068156 -6.597032,-1.483144 z"
         id="use28898"
         sodipodi:nodetypes="ccccz"
         inkscape:connector-curvature="0"
         transform="scale(1.0666667)" />
      <path
         transform="matrix(-1.0666667,0,0,1.0666667,235.65651,0.75424725)"
         style="fill:#cccccc;fill-opacity:1;fill-rule:evenodd;stroke:none;filter:url(#filter32423)"
         d="m 91.216775,135.6788 c -35.702018,1.50828 -27.094377,5.92654 -41.7193,13.08147 5.697031,-9.49851 5.633352,-10.1059 9.545942,-16.97056 8.729513,0.87779 18.935051,2.75876 32.173358,3.88909 z"
         id="use31262"
         sodipodi:nodetypes="cccc"
         inkscape:connector-curvature="0" />
      <path
         sodipodi:nodetypes="czzzzcz"
         id="path33400"
         d="m 105.5,135.62402 c 0.76535,1.55994 5.02251,1.2002 5.25,3.75 0.22749,2.5498 -0.0545,8.41312 1,7.25 1.17394,-1.29481 1.47358,-4.77948 2.75,-7 1.27642,-2.22052 6.56614,-0.86544 7,-3.25 0.43963,-2.41628 -8.98694,1.27606 -9.25,-5.75 -0.76306,6.72394 -7.51535,3.44006 -6.75,5 z"
         style="fill:#cccccc;fill-opacity:1;fill-rule:evenodd;stroke:none;filter:url(#filter34755)"
         inkscape:connector-curvature="0"
         transform="scale(1.0666667)" />
      <path
         sodipodi:nodetypes="csssssssssssscssscccsscccszssccsz"
         clip-path="url(#clipPath37379)"
         id="use36039"
         d="m 44.78125,203.09375 c -1.167402,0.0717 -4.663478,1.15192 -6.0625,1.6875 -3.320735,1.27125 -3.80861,2.68426 -6,6.59375 -3.70389,6.6078 -5.961226,8.05571 -12.6875,8.0625 -8.096953,0.008 -12.8178632,1.59717 -14.90625,5.03125 -1.869572,3.07426 -0.47386,6.99544 0.795653,21.70619 C 6.632536,254.42405 5.0262881,253.55683 2.625,260.5 1.184071,264.66635 1,269.43283 1,271.09375 c 0,5.39243 0.2961487,6.92531 37.0625,16.46875 7.330318,1.90273 12.90532,3.63129 15.75,4.78125 2.844681,1.14996 7.912499,2.91068 10.9375,3.90625 3.024999,0.99556 7.181648,3.09542 8.625,3.125 3.755737,0.077 15.188687,0.33617 17.875,-2.1875 3.06701,-2.88131 8.4881,-11.03082 8.25,-18.875 -0.2381,-7.60609 -12.511157,-22.80369 -15.125,-27.125 -2.61384,-4.32131 -2.680994,-7.975 -6.25,-13.75 -12.148951,-19.6582 -17.113373,-22.00179 -22.4375,-27.65625 -5.235042,-5.55985 -7.404044,-6.90257 -10.90625,-6.6875 z m -0.81618,1.3125 c 2.645254,-0.62906 11.878761,6.3521 13.72243,8.625 4.227557,6.28835 12.673404,19.91729 17.68056,28.39254 3.735897,6.32347 7.891936,12.22438 10.380089,17.49281 3.137044,6.64239 -2.140905,11.73064 -0.86763,14.67102 -4.278446,8.81696 -6.073756,12.07513 -11.992036,14.66606 -9.532604,-2.66813 -17.36052,-1.58017 -27.161769,-3.89584 C 39.817575,282.93239 31.944128,279.4647 24.865,278.43161 16.777687,277.2514 7.9785528,276.1238 5.6865801,274.21047 c -2.2919728,-1.91332 0.084014,-8.63988 1.151396,-11.50578 1.0673816,-2.86589 3.6344339,-7.87479 2.6127384,-11.17082 -2.7071504,-8.73338 -3.7178296,-20.82242 -3.8299984,-28.0115 3.378803,-2.89103 12.1135019,-0.53449 19.7650069,0.26164 4.166012,-0.43384 6.205122,-4.12411 8.723732,-8.80926 2.477917,-4.60946 7.210362,-9.93944 9.855615,-10.5685 z"
         style="fill:#000000;fill-opacity:0.65945949;filter:url(#filter40583)"
         inkscape:connector-curvature="0"
         transform="scale(1.0666667)" />
      <path
         sodipodi:nodetypes="cscssssssssssscsccszcczsccz"
         clip-path="url(#clipPath41564)"
         id="use38572"
         d="m 172.5625,208.625 c -1.33746,0.48135 -6.40882,-3.29483 -7.53125,-2.625 -3.3674,2.00957 -0.54206,11.55872 -0.65625,23.9375 -0.0851,9.02943 -1.29082,17.54512 -2.3125,26.5 -1.02167,8.95488 -1.29267,11.9087 -2.0625,16.5 -0.76982,4.5913 2.57581,9.49596 2.875,13.3125 0.28065,3.57996 6.61241,10.99317 12.125,13.03125 5.51259,2.03807 19.44517,-0.26461 22.5,-1.84375 3.05483,-1.57914 8.15,-5.73392 12,-9.3125 8.17858,-7.60204 14.83401,-11.94885 25.96875,-17.34375 9.97594,-4.83344 15.55269,-13.04153 15.53125,-17.59375 -0.0191,-4.04467 -2.6911,-8.57884 -6.625,-10.59375 -4.49104,-2.30027 -5.0671,-3.86073 -9.5,-9.46875 -3.28103,-4.15081 -4.875,-4.11588 -4.875,-8.25 0,-5.8292 -4.46661,-16.34865 -7.75,-18.5 -22.17733,3.03321 -20.57861,3.51419 -33.84375,2.375 -9.13662,-0.78464 -12.90135,-0.084 -15.84375,-0.125 z m 48.9375,0.46875 c 5.08835,3.06877 6.64396,20.37218 10.98696,26.78905 3.93792,5.81836 15.76782,10.83582 16.01304,15.71095 0.23268,4.62577 -7.33922,10.35965 -12.8125,13.25 -11.48954,4.88265 -31.93474,12.5338 -41.625,20 -6.439,5.68597 -21.36056,3.72806 -23.40625,-7.09375 -2.04569,-10.8218 -4.90264,-14.34156 -3.86086,-27.05913 C 167.50966,241.9713 165.95816,229.73941 165.4375,221 l 0.96875,-12.375 c -2.60283,-6.19527 50.0054,-2.60002 55.09375,0.46875 z"
         style="fill:#000000;fill-opacity:0.65882353;filter:url(#filter43513)"
         inkscape:connector-curvature="0"
         transform="scale(1.0666667)" />
      <path
         sodipodi:nodetypes="ccccccccc"
         id="path46424"
         d="m 62.025126,149.09864 c -6.063112,12.32497 -5.356104,17.18411 -10.099269,30.61827 -3.401464,4.36444 -0.09944,11.41393 -5.25184,14.84375 -3.277912,3.72432 0.400033,4.65084 2.919733,6.51348 2.691904,3.14958 4.676574,5.78843 8.56434,7.5527 -3.932887,-6.05216 -9.032497,-7.31584 -8.507964,-14.57966 1.440754,-8.86612 5.674583,-21.08635 7.865197,-29.60784 2.37644,-9.94172 10.319844,-18.24716 11.265927,-28.53309 -1.427083,1.33333 -2.500614,6.90931 -6.756124,13.19239 z"
         style="fill:#ffffff;fill-opacity:0.43137255;fill-rule:evenodd;stroke:none;filter:url(#filter51373)"
         inkscape:connector-curvature="0"
         transform="scale(1.0666667)" />
      <path
         sodipodi:nodetypes="ccccccc"
         id="path51377"
         d="m 192.91545,200.85171 c -4.48788,-1.1045 -11.96148,6.59611 -9.32107,8.41422 3.09535,-13.33485 21.87268,-6.12514 30.77233,-3.40196 1.20187,3.07621 -2.40275,3.78097 -4.13816,8.30024 4.07078,-2.55695 4.36473,-2.04609 8.94837,-4.68191 0.91349,-1.67285 0.0241,-3.2627 -3.93372,-4.36064 -5.69633,-1.50567 -16.36245,-4.51196 -22.32775,-4.26995 z"
         style="fill:#ffffff;fill-opacity:0.43137255;fill-rule:evenodd;stroke:none;filter:url(#filter56281)"
         inkscape:connector-curvature="0"
         transform="scale(1.0666667)" />
      <path
         sodipodi:nodetypes="csszzzzccccscccsc"
         id="path56285"
         d="m 88.388348,86.656202 c 1.143761,0.304601 2.970071,1.272848 4.949747,1.767767 1.368057,0.342015 3.119149,2.986352 3.764087,3.496321 0.915082,0.723579 2.399312,1.483263 3.306978,2.078427 1.02383,0.671335 1.84933,1.183223 2.82843,1.849874 1.00908,0.687063 1.30655,1.130734 2.47487,2.828427 1.16832,1.697692 3.10892,3.568492 6.01041,2.298102 2.90149,-1.270389 3.51721,-3.898054 7.07107,-4.772976 8.20431,-1.443796 16.45822,-13.628918 25.10229,-13.965359 3.18579,0.595355 3.96439,0.388728 4.59619,3.358757 -0.0745,2.508041 -0.21962,6.272288 -3.24448,7.071068 -6.01585,3.043094 -15.33509,9.83703 -21.45065,12.80644 -4.69385,2.2791 -5.99976,1.07246 -11.2656,1.6678 -1.65037,0 -7.96642,-1.91939 -8.587,-3.16053 -2.96019,-2.63423 -1.88934,-2.01484 -4.881721,-4.662059 -2.01979,-2.030468 -6.823341,-7.575285 -8.117641,-9.314025 -0.856663,-1.150826 -1.151711,-1.386318 -2.55698,-3.348034 z"
         style="fill:#000000;fill-opacity:0.15686275;fill-rule:evenodd;stroke:none;filter:url(#filter58261)"
         inkscape:connector-curvature="0"
         transform="scale(1.0666667)" />
    </g>
  </g>
</svg>
