<?xml version="1.0" encoding="UTF-8" standalone="no"?>
<!-- Created with Inkscape (http://www.inkscape.org/) -->
<svg xmlns:dc="http://purl.org/dc/elements/1.1/" xmlns:cc="http://creativecommons.org/ns#" xmlns:rdf="http://www.w3.org/1999/02/22-rdf-syntax-ns#" xmlns:svg="http://www.w3.org/2000/svg" xmlns="http://www.w3.org/2000/svg" xmlns:sodipodi="http://sodipodi.sourceforge.net/DTD/sodipodi-0.dtd" xmlns:inkscape="http://www.inkscape.org/namespaces/inkscape" width="128" height="128" viewBox="0 0 33.866667 33.866667" version="1.1" id="svg821" inkscape:version="0.91 r13725" sodipodi:docname="KDElogoBoxBlue.svg">
  <defs id="defs815"/>
  <sodipodi:namedview id="base" pagecolor="#ffffff" bordercolor="#666666" borderopacity="1.0" inkscape:pageopacity="0.0" inkscape:pageshadow="2" inkscape:zoom="5.6" inkscape:cx="62.936714" inkscape:cy="68.6291" inkscape:document-units="mm" inkscape:current-layer="layer1" showgrid="true" units="px" inkscape:window-width="3840" inkscape:window-height="2045" inkscape:window-x="0" inkscape:window-y="0" inkscape:window-maximized="1" width="128px" inkscape:snap-bbox="true" inkscape:bbox-nodes="true">
    <inkscape:grid type="xygrid" id="grid1391"/>
  </sodipodi:namedview>
  <metadata id="metadata818">
    <rdf:RDF>
      <cc:Work rdf:about="">
        <dc:format>image/svg+xml</dc:format>
        <dc:type rdf:resource="http://purl.org/dc/dcmitype/StillImage"/>
        <dc:title/>
      </cc:Work>
    </rdf:RDF>
  </metadata>
  <g inkscape:label="Layer 1" inkscape:groupmode="layer" id="layer1" transform="translate(0,-263.13332)">
    <rect style="opacity:1;fill:#1d99f3;fill-opacity:1;stroke:none;stroke-width:0.26458332;stroke-miterlimit:4;stroke-dasharray:0.26458333, 1.05833332;stroke-dashoffset:0;stroke-opacity:1" id="rect4157" width="33.866657" height="33.866657" x="-1.0093054e-06" y="263.13333"/>
    <path style="fill:#fcfcfc;fill-opacity:1;stroke-width:0.26458332" d="m 18.806093,267.47665 -4.30242,0.41187 0,17.71561 4.256854,-0.64088 0,-7.55326 5.722052,8.37759 4.485864,-1.41935 -5.859342,-8.05685 5.905207,-7.59912 -4.57729,-1.05245 -5.676491,7.59883 z m -9.7525379,4.31712 c -0.048583,0.005 -0.095505,0.0265 -0.1319937,0.0632 l -1.6886323,1.68833 c -0.070997,0.0712 -0.084372,0.18161 -0.032029,0.26782 l 1.9770249,3.25614 c -0.3506458,0.5895 -0.6316883,1.22509 -0.8325515,1.89559 l -3.6294987,0.75494 c -0.1009834,0.0209 -0.1737386,0.11039 -0.1737386,0.21402 l 0,2.38772 c 0,0.10098 0.069086,0.18844 0.1663888,0.21196 l 3.5227806,0.86107 c 0.1878584,0.77655 0.4789703,1.51268 0.863721,2.18928 l -2.0390565,3.10944 c -0.056889,0.0869 -0.044999,0.20138 0.028501,0.27458 l 1.6880407,1.68834 c 0.070997,0.0708 0.1818338,0.0847 0.2684073,0.0326 l 3.195283,-1.94057 c 0.627649,0.36219 1.304542,0.64721 2.019948,0.8405 l 0.745534,3.58451 c 0.02098,0.10157 0.110762,0.17375 0.213725,0.17375 l 2.388015,0 c 0.10039,0 0.187999,-0.0685 0.21196,-0.16699 l 0.87812,-3.59186 c 0.737452,-0.19902 1.434925,-0.49565 2.07786,-0.8743 l 3.148834,2.06463 c 0.08658,0.057 0.201086,0.0456 0.274579,-0.0279 l 1.688634,-1.68834 c 0.07143,-0.0714 0.08422,-0.18182 0.03174,-0.26781 l -1.149466,-1.89442 -0.37189,0.11759 c -0.05421,0.0171 -0.113326,-0.003 -0.145224,-0.0503 0,0 -0.73319,-1.07332 -1.680107,-2.45915 -1.131974,2.21544 -3.435023,3.73297 -6.094527,3.73297 -3.778467,0 -6.8418307,-3.06343 -6.8418307,-6.84212 0,-2.77974 1.6579867,-5.17032 4.0381317,-6.24122 l 0,-1.76506 c -0.433181,0.15154 -0.851957,0.33425 -1.249718,0.55092 -2.91e-4,-2.7e-4 -5.82e-4,-0.001 -0.0017,-0.002 l -3.2229195,-2.11384 c -0.043406,-0.0284 -0.093713,-0.0397 -0.1422847,-0.0347 z" id="path5692_2_-3" inkscape:connector-curvature="0"/>
  </g>
</svg>