<?xml version="1.0" encoding="UTF-8" standalone="no"?>
<!-- Generator: Adobe Illustrator 16.0.0, SVG Export Plug-In . SVG Version: 6.00 Build 0)  -->
<svg id="OpenGL_ES_2_" xmlns:rdf="http://www.w3.org/1999/02/22-rdf-syntax-ns#" xmlns="http://www.w3.org/2000/svg" xml:space="preserve" height="500px" viewBox="460.2 -190.6 1500 500" width="1500px" version="1.1" y="0px" x="0px" xmlns:cc="http://creativecommons.org/ns#" xmlns:dc="http://purl.org/dc/elements/1.1/"><metadata id="metadata38"><rdf:RDF><cc:Work rdf:about=""><dc:format>image/svg+xml</dc:format><dc:type rdf:resource="http://purl.org/dc/dcmitype/StillImage"/><dc:title/></cc:Work></rdf:RDF></metadata><g id="OpenGL_ES_1_"><g id="OpenGL_ES"><g id="g5" fill="#BA2A8D"><path id="path7" d="m615.4 21.71c3.76-11.77 9.41-22.19 16.94-31.26 7.52-9.07 16.9-16.31 28.1-21.71s24.25-8.11 39.13-8.11 27.92 2.71 39.12 8.11 20.57 12.65 28.1 21.71c7.52 9.07 13.18 19.49 16.94 31.26s5.65 24.02 5.65 36.75-1.89 24.99-5.65 36.75c-3.76 11.77-9.41 22.2-16.94 31.26s-16.9 16.27-28.1 21.58c-11.2 5.31-24.25 7.98-39.12 7.98-14.88 0-27.93-2.67-39.13-7.98-11.2-5.32-20.57-12.52-28.1-21.58-7.52-9.06-13.18-19.49-16.94-31.26s-5.64-24.02-5.64-36.75 1.88-24.98 5.64-36.75zm22.9 64.71c2.46 9.16 6.31 17.41 11.57 24.74 5.25 7.33 12 13.22 20.24 17.68 8.23 4.46 18.05 6.67 29.45 6.67 11.39 0 21.21-2.22 29.45-6.67 8.23-4.45 14.98-10.34 20.24-17.68 5.25-7.33 9.11-15.57 11.56-24.74 2.46-9.17 3.68-18.46 3.68-27.89 0-9.42-1.23-18.71-3.68-27.88s-6.31-17.41-11.56-24.75c-5.26-7.33-12.01-13.22-20.24-17.67-8.24-4.45-18.05-6.68-29.45-6.68s-21.21 2.23-29.45 6.68-14.99 10.34-20.24 17.67c-5.26 7.33-9.12 15.58-11.57 24.75-2.46 9.17-3.68 18.45-3.68 27.88 0.01 9.42 1.23 18.72 3.68 27.89z"/><path id="path9" d="m826.37 32.88v16.14h0.4c3.22-6.61 8.28-11.41 15.19-14.41s14.5-4.5 22.79-4.5c9.2 0 17.22 1.69 24.05 5.07s12.5 7.95 17.03 13.7c4.53 5.76 7.94 12.4 10.24 19.92s3.46 15.51 3.46 23.95c0 8.45-1.12 16.43-3.34 23.95-2.23 7.53-5.6 14.09-10.13 19.69s-10.21 10.02-17.04 13.24-14.77 4.83-23.83 4.83c-2.92 0-6.18-0.31-9.78-0.92-3.61-0.62-7.17-1.61-10.7-3-3.53-1.38-6.87-3.27-10.02-5.65s-5.79-5.33-7.94-8.88h-0.4v61.47h-19.74v-164.6h19.76zm70.05 42.34c-1.46-5.29-3.67-10.01-6.66-14.16-2.98-4.14-6.81-7.44-11.48-9.9-4.68-2.45-10.15-3.68-16.42-3.68-6.59 0-12.18 1.31-16.77 3.92-4.6 2.61-8.34 6.02-11.26 10.24-2.91 4.22-5.02 9.02-6.32 14.39s-1.95 10.82-1.95 16.34c0 5.84 0.69 11.48 2.07 16.92 1.38 5.45 3.56 10.25 6.54 14.39 2.99 4.15 6.85 7.48 11.6 10.01s10.49 3.8 17.23 3.8 12.36-1.3 16.88-3.91c4.52-2.61 8.15-6.06 10.91-10.36 2.75-4.29 4.74-9.2 5.97-14.73 1.22-5.53 1.84-11.2 1.84-17.04 0-5.53-0.72-10.94-2.18-16.23z"/><path id="path11" d="m1020.2 144.33c-8.92 6.75-20.14 10.12-33.67 10.12-9.54 0-17.81-1.54-24.8-4.6-7-3.07-12.88-7.37-17.65-12.89-4.77-5.53-8.34-12.13-10.73-19.81-2.38-7.67-3.72-16.04-4.03-25.1 0-9.06 1.38-17.35 4.16-24.87 2.77-7.52 6.65-14.05 11.66-19.58 5-5.53 10.93-9.82 17.77-12.89 6.85-3.07 14.35-4.61 22.51-4.61 10.62 0 19.43 2.2 26.44 6.58 7.01 4.39 12.63 9.96 16.86 16.73s7.16 14.16 8.77 22.15c1.62 8 2.27 15.61 1.96 22.84h-89.21c-0.15 5.21 0.46 10.15 1.84 14.83s3.6 8.81 6.68 12.42c3.07 3.6 6.98 6.47 11.74 8.62s10.36 3.22 16.8 3.22c8.28 0 15.07-1.92 20.37-5.76 5.29-3.84 8.78-9.69 10.47-17.53h19.37c-2.63 13.34-8.39 23.39-17.31 30.13zm-4.78-76.4c-1.76-4.13-4.14-7.7-7.12-10.68-2.99-2.98-6.52-5.36-10.58-7.12-4.07-1.76-8.55-2.65-13.45-2.65-5.06 0-9.62 0.88-13.68 2.65-4.07 1.76-7.55 4.18-10.46 7.24-2.91 3.07-5.21 6.63-6.9 10.69s-2.68 8.39-2.99 12.98h68.29c-0.31-4.6-1.35-8.97-3.11-13.11z"/><path id="path13" d="m1071.08 32.88v18.9h0.37c8.18-14.45 21.15-21.67 38.91-21.67 7.87 0 14.43 1.08 19.69 3.23 5.25 2.15 9.49 5.15 12.74 8.99 3.24 3.84 5.52 8.41 6.83 13.72 1.31 5.3 1.97 11.18 1.97 17.64v78.39h-19.74v-80.64c0-7.37-2.16-13.21-6.47-17.51-4.32-4.3-10.25-6.45-17.79-6.45-6.01 0-11.21 0.93-15.6 2.77s-8.05 4.45-10.97 7.83-5.12 7.33-6.58 11.86c-1.47 4.53-2.19 9.49-2.19 14.87v67.28h-19.74v-119.21h18.57z"/><path id="path15" d="m1288.03 150.79c-8.91 3.76-17.91 5.64-26.99 5.64-14.33 0-27.22-2.5-38.67-7.48-11.45-4.99-21.1-11.86-28.96-20.62-7.86-8.75-13.89-19.04-18.08-30.86-4.2-11.82-6.29-24.56-6.29-38.22 0-14 2.09-27 6.27-39 4.18-11.99 10.2-22.45 18.04-31.38 7.85-8.93 17.49-15.93 28.93-21.01s24.33-7.62 38.66-7.62c9.61 0 18.91 1.45 27.91 4.34 9 2.9 17.12 7.15 24.38 12.77 7.25 5.61 13.24 12.53 17.96 20.76s7.61 17.67 8.65 28.32h-39.31c-2.45-10.48-7.17-18.34-14.16-23.59-6.99-5.24-15.47-7.87-25.42-7.87-9.26 0-17.13 1.8-23.59 5.39s-11.71 8.41-15.73 14.45-6.95 12.92-8.78 20.62c-1.84 7.7-2.75 15.67-2.75 23.9 0 7.88 0.92 15.54 2.76 22.98s4.77 14.14 8.79 20.09c4.02 5.95 9.27 10.72 15.75 14.31 6.47 3.59 14.35 5.38 23.62 5.38 13.64 0 24.18-3.44 31.62-10.32s11.77-16.86 13-29.94h-41.41v-30.79h78.52v101.2h-26.13l-4.18-21.23c-7.37 9.43-15.5 16.03-24.41 19.78z"/><path id="path17" d="m1409.46-35.03v152.38h91.22v34.73h-132.28v-187.11h41.06z"/></g><path id="path19" d="m1215.3 175.35c-62.81 38.2-156.9 59.95-261.87 59.95-189.12-0.01-342.43-78.76-342.43-175.9 0-97.15 153.31-175.9 342.43-175.9 105.36 0 199.82 22.15 262.63 60.59-68.56-64.41-191.5-109.67-332.06-109.7-215.28-0.02-389.81 100.68-389.83 224.95-0.02 124.26 174.48 225.03 389.76 225.06 140.01 0.03 262.63-45.09 331.37-109.05z" fill="#BA2A8D"/><g id="g21" fill="#BA2A8D"><path id="path23" d="m1562.97-35.38h139.96v34.6h-98.81v40.1h90.68v31.98h-90.68v45.87h100.9v34.6h-142.05v-187.15z"/><path id="path25" d="m1753 89.64c0 24.9 19.39 34.6 41.41 34.6 14.42 0 36.43-4.19 36.43-23.32 0-20.18-28.04-23.59-55.56-30.93-27.78-7.34-55.83-18.08-55.83-53.2 0-38.27 36.17-56.61 69.98-56.61 39.05 0 74.96 17.03 74.96 60.28h-39.84c-1.31-22.54-17.3-28.31-36.96-28.31-13.1 0-28.3 5.5-28.3 21.23 0 14.41 8.91 16.25 55.82 28.31 13.63 3.41 55.56 12.06 55.56 54.52 0 34.33-27 60.02-77.84 60.02-41.41 0-80.2-20.44-79.67-66.57l39.84-0.02z"/></g><line id="line27" y2="205.9" x1="1530.69" x2="1530.69" stroke="#BA2A8D" stroke-linecap="round" y1="-87.7" stroke-width="11.6449" fill="none"/></g></g><g id="TM"><path id="path30" d="m1896.24 131.8h-7.27v18.9h-6.35v-18.9h-7.27v-5.46h20.88v5.46z"/><path id="path32" d="m1899.07 126.34h9.35l4.2 16.24h0.07l4.2-16.24h9.35v24.36h-5.97v-18.49h-0.07l-5.12 18.49h-4.84l-5.12-18.49h-0.07v18.49h-5.97v-24.36z"/></g></svg>