<svg xmlns="http://www.w3.org/2000/svg" viewBox="0 0 866.3 132"><defs><style>.a{fill:#3ddc84;}</style></defs><title>Android1</title><path d="M59.3,56.4c12.4,0,22.7,6.4,27.6,13.3V58.1h18.9v86.1H92.2a5.378,5.378,0,0,1-5.4-5.4v-6.2C82,139.6,71.7,146,59.3,146c-23.6,0-41.5-20.2-41.5-44.8S35.7,56.4,59.3,56.4m3.4,17.2C47.4,73.6,37,85.7,37,101.2s10.3,27.6,25.7,27.6c15.3,0,25.7-12.1,25.7-27.6S78.1,73.6,62.7,73.6m64.6-15.5h19V69.8c5.2-8.6,15-13.4,26.2-13.4,20,0,32.9,14.1,32.9,36v51.8H191.8a5.378,5.378,0,0,1-5.4-5.4V95.5c0-13.6-6.9-21.9-17.9-21.9-12.6,0-22.2,9.8-22.2,28.2v42.4H132.7a5.378,5.378,0,0,1-5.4-5.4Zm134.6-1.7c12.4,0,22.7,6.4,27.6,13.3V15.1h18.9V144.3H294.8a5.378,5.378,0,0,1-5.4-5.4v-6.2c-4.8,6.9-15.2,13.3-27.6,13.3-23.6,0-41.5-20.2-41.5-44.8.1-24.6,18-44.8,41.6-44.8m3.4,17.2c-15.3,0-25.7,12.1-25.7,27.6s10.3,27.6,25.7,27.6c15.3,0,25.7-12.1,25.7-27.6s-10.4-27.6-25.7-27.6m64.6-15.5h18.9V73.4a24.26,24.26,0,0,1,22.7-16.2,38.519,38.519,0,0,1,7.4.7V77.4a30.541,30.541,0,0,0-9.5-1.6c-10.9,0-20.7,9.1-20.7,26.4v42H335.1a5.378,5.378,0,0,1-5.4-5.4V58.1ZM430.1,146c-25.5,0-45.1-19.8-45.1-44.8s19.6-44.8,45.1-44.8,45.1,19.8,45.1,44.8S455.6,146,430.1,146m0-17.6c15.2,0,25.8-11.9,25.8-27.2S445.2,74,430.1,74c-15.3,0-26,11.9-26,27.2s10.7,27.2,26,27.2M500,39.3a12.783,12.783,0,0,1-12.7-12.7A12.829,12.829,0,0,1,500,14a12.65,12.65,0,0,1,0,25.3m-9.4,18.8h18.9v86.1H496a5.378,5.378,0,0,1-5.4-5.4V58.1Zm76-1.7c12.4,0,22.7,6.4,27.6,13.3V15.1h18.9V144.3H599.5a5.378,5.378,0,0,1-5.4-5.4v-6.2c-4.8,6.9-15.2,13.3-27.6,13.3-23.6,0-41.5-20.2-41.5-44.8.1-24.6,18-44.8,41.6-44.8m3.5,17.2c-15.3,0-25.7,12.1-25.7,27.6s10.3,27.6,25.7,27.6c15.3,0,25.7-12.1,25.7-27.6s-10.4-27.6-25.7-27.6" transform="translate(-17.8 -14)"/><path class="a" d="M822.2,111.7a9.6,9.6,0,1,1,9.6-9.6,9.6,9.6,0,0,1-9.6,9.6m-105.7,0a9.6,9.6,0,1,1,9.6-9.6,9.6,9.6,0,0,1-9.6,9.6M825.6,54.1,844.8,21a3.963,3.963,0,1,0-6.9-3.9L818.5,50.6A117.178,117.178,0,0,0,769.4,40a119.152,119.152,0,0,0-49.2,10.5L700.8,17a3.963,3.963,0,0,0-6.9,3.9L713,54a113.107,113.107,0,0,0-58.6,90.4H884.1a112.53,112.53,0,0,0-58.5-90.3" transform="translate(-17.8 -14)"/></svg>