<?xml version="1.0" encoding="UTF-8" standalone="no"?>
<!-- Created with Inkscape (http://www.inkscape.org/) -->

<svg xmlns="http://www.w3.org/2000/svg" width="823" height="358" version="1.1">
  <g id="g1" transform="translate(-1206.1954,-1303.1401)">
    <g id="g2" transform="scale(2.5964,2.5964)">
      <path id="path1" style="fill:#008033" d="m 494.3961,506.25189 c 0,0 -22.07313,99.66531 -22.07313,99.66531 0.007,0 42.56794,0 42.58107,0 26.42493,0 105.67893,0 105.67893,0 0,0 54.9637,0 54.9637,0 -6.54807,-0.57144 -11.71765,-2.87011 -14.79791,-7.06027 -0.57144,-0.77509 -1.04346,-1.60999 -1.45726,-2.48348 -0.26266,-0.64358 -0.5098,-1.29299 -0.75933,-1.94982 -0.65683,-2.08851 -0.91869,-4.40613 -0.80043,-6.87557 0.3283,-6.88299 3.55798,-15.07028 9.1538,-23.64385 5.94376,-9.11134 14.55808,-18.66103 25.22417,-27.52284 2.39056,-1.98475 4.86251,-3.94473 7.45021,-5.84946 3.19852,-2.35312 6.42159,-4.5204 9.64637,-6.54716 11.881,-7.48 23.73244,-12.71396 34.23426,-15.37255 -10.0354,3.27398 -21.3098,8.83213 -32.4487,16.39877 -0.40056,0.27054 -0.79632,0.5477 -1.19037,0.82098 -6.18028,4.28217 -11.77918,8.82996 -16.66566,13.42273 -15.72311,14.78399 -24.03368,30.10323 -20.25732,39.07805 0.26928,0.61733 0.59027,1.20681 0.96469,1.76512 4.05877,5.97001 14.11814,7.00194 26.86612,3.79691 0.86698,-0.21678 1.73385,-0.4622 2.62708,-0.71836 4.07202,-1.17564 8.39516,-2.76338 12.84809,-4.7205 1.07052,-0.47293 2.15256,-0.95888 3.24282,-1.47781 0.11164,-0.0525 0.21677,-0.10502 0.32841,-0.16415 14.0549,-6.98344 24.85637,-15.01891 27.19454,-19.84683 0.5122,-1.05019 0.63537,-1.9456 0.28732,-2.64763 -1.66821,-3.38242 -13.34157,-1.09734 -27.48186,5.02837 -1.13626,0.49257 -2.28554,0.99951 -3.44806,1.53933 0.94575,-0.87805 1.93008,-1.75953 2.93495,-2.62708 1.60246,-1.38055 3.26165,-2.7305 5.02838,-4.06379 2.76509,-2.09377 5.56043,-3.98663 8.31228,-5.66465 12.88587,-9.7216 19.40027,-18.91776 18.04072,-22.33031 -0.25604,-0.64302 -0.80122,-1.08524 -1.64195,-1.35453 -2.6861,-0.85453 -7.5889,0.1653 -13.5459,2.60654 -4.91262,2.015 -10.55513,5.00349 -16.2756,8.72277 0,0 -0.77989,0.51311 -0.77989,0.51311 0,0 -0.14371,0.0821 -0.14371,0.0821 0,0 -2.75025,1.82665 -2.75025,1.82665 0,0 1.58031,-2.89397 1.58031,-2.89397 2.34479,-4.29198 6.16384,-8.77014 10.91893,-12.93017 3.48744,-3.04156 7.47156,-5.90734 11.76034,-8.4149 1.62221,-0.94974 3.24202,-1.83179 4.86423,-2.62708 1.66158,-0.81185 3.32409,-1.53329 4.94629,-2.17562 4.71309,-1.86386 9.89054,-4.21766 13.81393,-4.52565 -0.35729,0 -11.69996,1.22131 -11.69996,1.22131 0,0 -37.14865,0 -37.14865,0 0,0 -163.80338,0 -163.80338,0 0,0 -56.32262,0 -56.32262,0 z m 161.18057,0.14372 c -0.64358,9.8233 1.26103,24.21153 5.58258,40.18623 0.76835,2.84248 1.60497,5.73531 2.52446,8.66124 0.57144,1.80679 1.16081,3.58527 1.76512,5.33624 -0.35466,0.52144 -0.71184,1.03969 -1.04677,1.55988 -5.39217,8.26354 -8.54378,16.07287 -9.3385,22.86385 -2.27903,-7.63171 -3.99484,-15.99091 -4.96684,-24.85477 -0.27591,-2.53975 -0.49177,-5.05097 -0.63628,-7.53228 -1.06401,-18.02384 1.28899,-34.36245 6.11623,-46.22039 z m -107.6082,12.78645 c 0.12306,-0.003 0.24429,0 0.3694,0 0,0 24.28013,0 24.28013,0 2.07539,0 3.68036,0.38903 4.82324,1.16994 1.13615,0.78547 1.56228,1.80153 1.293,3.03757 0,0 -2.89397,13.07388 -2.89397,13.07388 0,0 -8.55851,0 -8.55851,0 0,0 2.81178,-12.72504 2.81178,-12.72504 0,0 -21.42726,0 -21.42726,0 0,0 -7.73753,34.97328 -7.73753,34.97328 0,0 -2.79134,12.66339 -2.79134,12.66339 0,0 21.40671,0 21.40671,0 0,0 0.0205,-0.0822 0.0205,-0.0822 0,1.1e-4 4.28947,-19.3747 4.28947,-19.3747 0,-1.2e-4 -10.05674,0 -10.05674,0 0,-1.2e-4 0.96458,-4.37166 0.96458,-4.37166 0,0 18.61548,0 18.61548,0 0,0 -5.33635,24.1774 -5.33635,24.1774 -0.0723,0.34416 -0.19863,0.65603 -0.3694,0.96469 -0.44005,0.80123 -1.20772,1.48751 -2.27823,2.05233 -1.48431,0.7816 -3.26085,1.16994 -5.33624,1.16994 0,0 -24.25959,0 -24.25959,0 -2.07539,0 -3.68036,-0.38834 -4.82313,-1.16994 -1.13626,-0.78148 -1.56889,-1.77962 -1.29299,-3.01702 0,0 10.69303,-48.33436 10.69303,-48.33436 0.27579,-1.23604 1.13626,-2.2521 2.62708,-3.03757 0.0525,-0.0282 0.11164,-0.0347 0.16415,-0.0615 1.3608,-0.68171 2.95778,-1.06481 4.80269,-1.10841 z m 38.05183,0 c 0,0 30.5604,0 30.5604,0 2.04913,0 3.65993,0.38903 4.8027,1.16994 1.14939,0.78547 1.58944,1.80153 1.31354,3.03757 0,0 -5.70575,25.77837 -5.70575,25.77837 -0.26917,1.22815 -1.15019,2.23017 -2.64763,3.01702 -1.49744,0.78947 -3.26005,1.19037 -5.31569,1.19037 0,0 -22.20714,0 -22.20714,0 0,0 -4.28959,19.35427 -4.28959,19.35427 0,0 -0.69781,3.18129 -0.69781,3.18129 0,0 -8.37381,0 -8.37381,0 0,0 0.63617,-2.87342 0.63617,-2.87342 0,0 11.92461,-53.85541 11.92461,-53.85541 z m 42.21812,0 c 0,0 8.37392,0 8.37392,0 0,0 -9.4821,42.83397 -9.4821,42.83397 0,0 -2.07299,9.35905 -2.07299,9.35905 0,0 20.03153,0 20.03153,0 0.21026,1.53614 0.45569,3.04488 0.71835,4.53581 0,0 -30.12948,0 -30.12948,0 1.1e-4,0 2.38086,-10.75467 2.38086,-10.75467 0,0 10.17991,-45.97416 10.17991,-45.97416 z m -34.84999,4.55635 c 0,0 -5.56203,25.08057 -5.56203,25.08057 0,0 20.87306,0 20.87306,0 0,0 5.54159,-25.08057 5.54159,-25.08057 0,0 -20.85262,0 -20.85262,0 z m -44.50891,59.19439 c 0.082,-0.003 0.1638,0 0.24633,0 0.972,0 1.82083,0.17066 2.50392,0.49257 0.72897,0.34142 1.2503,0.84883 1.53933,1.51878 0.28241,0.65021 0.35627,1.3882 0.20524,2.19605 0,0 -0.0616,0.30786 -0.0616,0.30786 0,0 -2.40129,0 -2.40129,0 0,0 0.0205,-0.28732 0.0205,-0.28732 0.0621,-0.56447 -0.008,-1.0083 -0.22579,-1.31354 -0.0284,-0.0384 -0.0695,-0.0888 -0.10262,-0.12317 -0.0542,-0.0554 -0.13562,-0.11848 -0.20525,-0.16415 -0.33595,-0.21163 -0.86161,-0.32841 -1.53933,-0.32841 -0.89974,0 -1.5721,0.15684 -2.0319,0.47202 -0.44656,0.30866 -0.72897,0.65351 -0.82098,1.06731 -0.0919,0.42031 0.0591,0.64119 0.16427,0.75934 0.003,0.003 0.0166,0.0169 0.0204,0.0206 0.1331,0.11346 0.5953,0.37932 2.03201,0.71835 1.3003,0.31529 2.16157,0.5985 2.64752,0.84153 0.73559,0.3743 1.2495,0.85956 1.51878,1.45714 0.26929,0.59108 0.32842,1.28318 0.16427,2.0319 -0.16427,0.72908 -0.53617,1.40143 -1.08787,2.03189 -0.54507,0.63058 -1.23877,1.12965 -2.07287,1.47781 -0.8276,0.34142 -1.73556,0.53354 -2.66818,0.53354 -1.18215,0 -2.13121,-0.17899 -2.87331,-0.53354 -0.77509,-0.3678 -1.33408,-0.94826 -1.6625,-1.7036 -0.31529,-0.73559 -0.38252,-1.5705 -0.20524,-2.48336 0,0 0.0615,-0.28732 0.0615,-0.28732 0,0 2.36031,0 2.36031,0 0,0 -0.0205,0.28732 -0.0205,0.28732 -0.0591,0.54507 -8e-4,0.98512 0.14371,1.31354 0.1379,0.31528 0.40068,0.57635 0.82098,0.77988 0.44656,0.21677 1.00488,0.32841 1.64196,0.32841 0.57132,0 1.09345,-0.096 1.55976,-0.26677 0.4598,-0.16426 0.82509,-0.38092 1.08787,-0.65683 0.25604,-0.27579 0.40637,-0.56722 0.47201,-0.8825 0.0656,-0.28241 0.05,-0.52133 -0.0616,-0.71836 -0.12477,-0.21015 -0.37191,-0.39656 -0.75934,-0.5542 0,0 -2.01134,-0.59519 -2.01134,-0.59519 -1.12314,-0.28241 -1.87917,-0.55169 -2.31922,-0.82098 -0.5977,-0.35466 -1.02873,-0.80944 -1.25201,-1.35452 -0.22328,-0.53856 -0.24714,-1.13546 -0.10263,-1.78567 0.15103,-0.69609 0.48686,-1.35863 1.00568,-1.94971 0.52544,-0.59769 1.2035,-1.06651 2.01135,-1.37518 0.71424,-0.2678 1.46593,-0.42487 2.25769,-0.45147 z m 21.55031,0.041 c 0.1299,-0.01 0.25205,0 0.39006,0 0,0 1.47769,0.16427 1.47769,0.16427 0,0 0.49256,0.041 0.49256,0.041 0,0 -0.71835,1.82665 -0.71835,1.82665 0,0 -0.14361,0.28732 -0.14361,0.28732 0,0 -1.12884,-0.10262 -1.12884,-0.10262 -0.33332,0 -0.57818,0.0515 -0.7389,0.16426 -0.0106,0.008 -0.0312,0.0324 -0.0411,0.041 -0.0215,0.019 -0.0576,0.0518 -0.0821,0.0821 -0.0987,0.12967 -0.21917,0.36128 -0.30776,0.77999 -1.1e-4,0 -0.0428,0.17728 -0.0822,0.32842 0.51881,0 1.76512,0 1.76512,0 0,0 -0.45158,2.03178 -0.45158,2.03178 0,0 -1.29049,0 -1.72403,0 -0.13128,0.59119 -1.74458,7.81972 -1.74458,7.81972 0,0 -2.38074,0 -2.38074,0 0,0 1.54743,-6.94612 1.74457,-7.81972 -0.40067,0 -1.37518,0 -1.37518,0 0,0 0.45158,-2.03178 0.45158,-2.03178 0,0 0.98022,0 1.35464,0 0.0656,-0.28241 0.16415,-0.63628 0.16415,-0.63628 0.14452,-0.65683 0.29554,-1.12885 0.49256,-1.45726 0.26929,-0.45318 0.64941,-0.83239 1.12885,-1.1083 0.39485,-0.22944 0.89426,-0.36665 1.45714,-0.41049 z m 5.6852,0.10262 c 0,0 -0.62224,2.80037 -0.77988,3.50971 0.45969,0 1.53933,0 1.53933,0 0,0 -0.45158,2.03178 -0.45158,2.03178 0,0 -1.13204,0 -1.53934,0 -0.12476,0.56482 -1.10818,4.94641 -1.10818,4.94641 0,0 -0.0822,0.52624 -0.0822,0.67726 1.2e-4,0.005 -3.4e-4,0.0168 0,0.0205 3.5e-4,10e-4 -4.5e-4,0.0192 0,0.0205 6.9e-4,10e-4 0.0198,-9.2e-4 0.0206,0 0,0 0.24634,0.0204 0.24634,0.0204 0,0 1.12873,-0.0821 1.12873,-0.0821 0,0 -0.12306,1.82666 -0.12306,1.82666 0,0 0.0206,0.32841 0.0206,0.32841 0,0 -1.62141,0.1847 -1.62141,0.1847 -0.6437,0 -1.11571,-0.10502 -1.45725,-0.32842 -0.36118,-0.23641 -0.57145,-0.54998 -0.65683,-0.94403 -0.0131,-0.0723 -0.041,-0.17739 -0.041,-0.32841 0,-0.29554 0.0558,-0.79553 0.24622,-1.66251 0,0 0.86287,-3.86505 1.04677,-4.67952 -0.30866,0 -1.12884,0 -1.12884,0 0,0 0.45158,-2.03178 0.45158,-2.03178 0,0 0.80043,0 1.12873,0 0.10513,-0.47293 0.47213,-2.09354 0.47213,-2.09354 0,0 1.90873,-1.00568 1.90873,-1.00568 0,0 0.77988,-0.41049 0.77988,-0.41049 z m -75.63152,0.0821 c 0,0 9.23589,0 9.23589,0 0,0 -0.51312,2.29878 -0.51312,2.29878 0,0 -6.16132,0 -6.7524,0 -0.10513,0.46631 -0.52624,2.35449 -0.67726,3.03757 0.85374,0 5.84935,0 5.84935,0 0,0 -0.51311,2.29867 -0.51311,2.29867 0,0 -5.25827,0 -5.84946,0 -0.12466,0.57144 -1.2519,5.64411 -1.2519,5.64411 0,0 -2.48348,0 -2.48348,0 0,0 2.95549,-13.27913 2.95549,-13.27913 z m 12.37608,3.24282 c 0.0927,-0.0113 0.19394,0 0.28732,0 0.59119,0 1.13706,0.17978 1.6625,0.5542 0,0 0.32841,0.22579 0.32841,0.22579 0,0 -1.27256,2.09343 -1.27256,2.09343 0,0 -0.34884,-0.24634 -0.34884,-0.24634 -0.25616,-0.16415 -0.53195,-0.24623 -0.82098,-0.24623 -0.24954,0 -0.48195,0.0887 -0.71836,0.24623 -0.24953,0.16426 -0.45809,0.38183 -0.61573,0.67737 -0.2759,0.50569 -0.47784,1.07211 -0.61573,1.68294 0,0 -1.1083,5.04892 -1.1083,5.04892 0,0 -2.38074,0 -2.38074,0 0,0 2.19604,-9.8515 2.19604,-9.8515 0,0 2.2166,0 2.2166,0 0,0 -0.0764,0.29873 -0.10263,0.41037 0.10502,-0.0788 0.21587,-0.18709 0.30787,-0.24622 0.31814,-0.18984 0.65409,-0.30833 0.98513,-0.34896 z m 7.06038,0 c 0.14326,-0.0109 0.28447,0 0.43092,0 1.33991,0 2.35369,0.46961 3.01714,1.39573 0.41369,0.59758 0.63617,1.33648 0.63617,2.21659 0,0.48594 -0.0599,1.00898 -0.1847,1.58031 0,0 -0.1847,0.71836 -0.1847,0.71836 0,0 -6.02103,0 -6.69087,0 -0.0131,0.13789 -0.0206,0.28572 -0.0206,0.41049 0,0.51231 0.10513,0.91538 0.32841,1.21091 0.10605,0.14452 0.22911,0.27465 0.3694,0.3694 0.2646,0.1726 0.60603,0.26688 1.00567,0.26688 0.48606,0 0.91299,-0.1339 1.31354,-0.38994 0.38093,-0.24303 0.74553,-0.63137 1.06732,-1.16994 0,0 2.54501,0 2.54501,0 0,0 -0.22579,0.49257 -0.22579,0.49257 -0.48595,0.98524 -1.16412,1.75359 -2.01135,2.29878 -0.84723,0.54507 -1.85953,0.84141 -2.97605,0.84141 -1.45143,0 -2.53188,-0.4695 -3.20172,-1.39561 -0.66333,-0.90637 -0.80625,-2.15918 -0.45158,-3.73538 0.35467,-1.60258 1.06241,-2.88324 2.09354,-3.77648 0.92417,-0.80134 1.97288,-1.24585 3.14019,-1.33408 z m 10.69303,0 c 0.14337,-0.0109 0.28446,0 0.43103,0 1.3398,0 2.35369,0.46961 3.01703,1.39573 0.4138,0.59758 0.63628,1.33648 0.63628,2.21659 0,0.47943 -0.0599,0.99494 -0.1847,1.55976 0,0 -0.1847,0.73891 -0.1847,0.73891 0,0 -6.02103,0 -6.69099,0 -0.006,0.0919 -0.0139,0.17488 -0.0204,0.26677 -0.005,0.0345 0.002,0.0869 0,0.12317 -2.3e-4,0.006 0,0.0148 0,0.0205 0,0.0985 0.0139,0.19542 0.0204,0.28731 0.0329,0.37442 0.13059,0.6872 0.30798,0.9236 0.0337,0.046 0.0654,0.10274 0.10251,0.14372 0.30091,0.32179 0.72658,0.49256 1.27256,0.49256 0.48606,0 0.91949,-0.1339 1.31354,-0.38994 0.38093,-0.24303 0.74541,-0.63137 1.06721,-1.16994 0,0 2.56555,0 2.56555,0 0,0 -0.24622,0.49257 -0.24622,0.49257 -0.48606,0.98524 -1.16412,1.75359 -2.01147,2.29878 -0.84723,0.54507 -1.85941,0.84141 -2.97593,0.84141 -1.45155,0 -2.53188,-0.4695 -3.20183,-1.39561 -0.43343,-0.59108 -0.63628,-1.34391 -0.63628,-2.23715 0,-0.13789 0.007,-0.28652 0.0205,-0.43103 0.0264,-0.34143 0.0789,-0.68628 0.16426,-1.0672 0.35467,-1.59596 1.04175,-2.88324 2.07288,-3.77648 0.92428,-0.80134 1.99354,-1.24585 3.16074,-1.33408 z m 29.12381,0 c 0.14668,-0.0112 0.28161,0 0.43103,0 1.36605,0 2.41602,0.46219 3.0991,1.37518 0.67646,0.91287 0.84073,2.14433 0.49256,3.69428 -0.26928,1.20852 -0.65831,2.18463 -1.19037,2.89397 -0.53194,0.70934 -1.21012,1.28888 -2.01135,1.68294 -0.79472,0.39405 -1.63624,0.59518 -2.48348,0.59518 -1.3923,0 -2.42925,-0.47612 -3.0991,-1.39561 -0.43354,-0.58446 -0.65682,-1.33729 -0.65682,-2.23715 0,-0.48594 0.0534,-1.00236 0.18481,-1.58031 0.39405,-1.76021 1.19859,-3.10081 2.38074,-3.96117 0.86778,-0.62646 1.82608,-0.98832 2.85288,-1.06731 z m 36.0609,0 c 0.17317,-0.0106 0.33355,0 0.51311,0 0.8276,0 1.47781,0.0838 1.97037,0.28731 0.52544,0.21027 0.89815,0.50741 1.1083,0.86208 0.20353,0.33492 0.30787,0.7462 0.30787,1.25201 0,0 -0.24634,1.49824 -0.24634,1.49824 0,0 -0.45147,2.03189 -0.45147,2.03189 -0.38755,1.73385 -0.47293,2.38406 -0.49268,2.62709 -0.0196,0.32841 0.0107,0.6486 0.10274,0.94414 0,0 0.16415,0.53355 0.16415,0.53355 0,0 -2.42184,0 -2.42184,0 0,0 -0.10262,-0.30787 -0.10262,-0.30787 -0.0394,-0.1444 -0.028,-0.3283 -0.0411,-0.49256 -0.45969,0.28241 -0.92029,0.53286 -1.33409,0.67737 -0.61071,0.21015 -1.24459,0.3283 -1.88818,0.3283 -1.11651,0 -1.9432,-0.29063 -2.44238,-0.86196 -0.38092,-0.4203 -0.55421,-0.93433 -0.55421,-1.51878 0,-0.22328 0.0297,-0.4549 0.0822,-0.69781 0.11164,-0.49918 0.31438,-0.96138 0.63617,-1.37518 0.31529,-0.40718 0.68799,-0.7421 1.10841,-0.98513 0.40718,-0.24303 0.86116,-0.4154 1.33397,-0.53366 0,0 1.45726,-0.24622 1.45726,-0.24622 1.12314,-0.13139 1.96135,-0.29474 2.56556,-0.47213 0.0131,-0.0656 0.041,-0.14361 0.041,-0.14361 0.0952,-0.42258 0.0833,-0.74027 -0.0204,-0.90305 -0.008,-0.0105 -0.0325,-0.0321 -0.0411,-0.0411 -0.0222,-0.0236 -0.0563,-0.0607 -0.0821,-0.0821 -0.24702,-0.19554 -0.66824,-0.28732 -1.23146,-0.28732 -0.63708,0 -1.1083,0.10422 -1.43671,0.30787 -0.3218,0.20353 -0.61985,0.57624 -0.88251,1.1083 0,0 -2.48348,0 -2.48348,0 0,0 0.22579,-0.49257 0.22579,-0.49257 0.29554,-0.68308 0.64781,-1.2495 1.08775,-1.68305 0.44006,-0.43343 1.03444,-0.76926 1.72403,-1.00567 0.52852,-0.17442 1.10567,-0.29017 1.72403,-0.32841 z m 10.40582,0 c 0.0926,-0.0113 0.19395,0 0.28732,0 0.59759,0 1.1575,0.17978 1.68294,0.5542 0,0 0.30786,0.22579 0.30786,0.22579 0,0 -1.27244,2.09343 -1.27244,2.09343 0,0 -0.34896,-0.24634 -0.34896,-0.24634 -0.25616,-0.16415 -0.51802,-0.24623 -0.80043,-0.24623 -0.24954,0 -0.49588,0.0887 -0.73891,0.24623 -0.24953,0.16426 -0.43103,0.38183 -0.59518,0.67737 -0.26929,0.50569 -0.47773,1.07211 -0.61573,1.68294 0,0 -1.12885,5.04892 -1.12885,5.04892 1.2e-4,0 -2.38074,0 -2.38074,0 0,0 2.19604,-9.8515 2.19604,-9.8515 0,0 2.2166,0 2.2166,0 0,0 -0.0558,0.29873 -0.0821,0.41037 0.10514,-0.0788 0.20936,-0.18709 0.30787,-0.24622 0.313,-0.18984 0.63388,-0.30833 0.96469,-0.34896 z m 7.03972,0 c 0.14326,-0.0109 0.28447,0 0.43104,0 1.3398,0 2.36031,0.46961 3.01702,1.39573 0.42042,0.59758 0.63628,1.33648 0.63628,2.21659 0,0.48594 -0.0805,1.00898 -0.20524,1.58031 0,0 -0.16415,0.71836 -0.16415,0.71836 0,0 -6.02754,0 -6.69099,0 -0.0131,0.13789 -0.041,0.28572 -0.041,0.41049 0,0.51231 0.11164,0.91538 0.32841,1.21091 0.0337,0.046 0.0859,0.10274 0.12306,0.14372 0.0216,0.023 0.0594,0.0607 0.0822,0.0821 0.2936,0.26688 0.69313,0.41048 1.19037,0.41048 0.48594,0 0.91287,-0.1339 1.31354,-0.38994 0.38093,-0.24303 0.7389,-0.63137 1.0672,-1.16994 0,0 2.56556,0 2.56556,0 0,0 -0.24623,0.49257 -0.24623,0.49257 -0.48605,0.98524 -1.17073,1.75359 -2.01146,2.29878 -0.85374,0.54507 -1.85291,0.84141 -2.97593,0.84141 -1.45143,0 -2.51133,-0.4695 -3.18129,-1.39561 -0.66333,-0.90637 -0.82006,-2.15918 -0.47201,-3.73538 0.35467,-1.60258 1.04174,-2.88324 2.07287,-3.77648 0.93011,-0.80134 1.99457,-1.24585 3.16074,-1.33408 z m -35.93773,0.18481 c 0,0 2.44227,0 2.44227,0 0,0 0.30136,5.84604 0.30786,5.93142 0.0985,-0.20935 0.175,-0.38549 0.18481,-0.41049 0,0 2.68861,-5.52093 2.68861,-5.52093 0,0 2.23715,0 2.23715,0 0,0 0.20524,5.77549 0.20524,5.80825 0.0656,-0.11815 3.05812,-5.80825 3.05812,-5.80825 0,0 2.42184,0 2.42184,0 0,0 -5.33624,9.8515 -5.33624,9.8515 0,0 -2.19616,0 -2.19616,0 0,0 -0.21255,-5.34195 -0.22568,-5.64411 -0.90636,1.85873 -2.75025,5.64411 -2.75025,5.64411 0,0 -2.25769,0 -2.25769,0 0,0 -0.77988,-9.8515 -0.77988,-9.8515 z m -57.34457,1.86763 c -0.56573,0.0239 -1.07953,0.22784 -1.55976,0.61573 -0.38093,0.30216 -0.63788,0.71676 -0.84153,1.16983 0,1.1e-4 4.04325,0 4.04325,0 0.007,-0.0721 0.0205,-0.16004 0.0205,-0.22568 0,-0.37442 -0.0666,-0.66505 -0.18469,-0.86207 -0.28903,-0.47282 -0.71756,-0.69781 -1.35464,-0.69781 -0.0381,0 -0.0854,-0.002 -0.12317,0 z m 10.69314,0 c -0.56573,0.0239 -1.07964,0.22784 -1.55988,0.61573 -0.38092,0.30216 -0.63126,0.71676 -0.84152,1.16983 0,1.1e-4 4.04336,0 4.04336,0 0.006,-0.0721 0.0204,-0.16004 0.0204,-0.22568 0,-0.37442 -0.0599,-0.66505 -0.1847,-0.86207 -0.0573,-0.096 -0.13492,-0.19155 -0.20524,-0.26678 -0.27419,-0.28332 -0.65158,-0.43103 -1.14939,-0.43103 -0.0381,0 -0.0854,-0.002 -0.12306,0 z m 82.71233,0 c -0.58183,0.0179 -1.12519,0.21495 -1.6214,0.61573 -0.37442,0.30216 -0.63138,0.71676 -0.84153,1.16983 0,1.1e-4 4.02281,0 4.02281,0 0.007,-0.0721 0.0204,-0.16004 0.0204,-0.22568 0,-0.37442 -0.0599,-0.66505 -0.1847,-0.86207 -0.28241,-0.46631 -0.71744,-0.69119 -1.35464,-0.69781 -0.0188,2.3e-4 -0.0223,-5.7e-4 -0.041,0 z m -53.77333,0.0411 c -0.54291,0.0645 -1.04768,0.31209 -1.51879,0.73879 -0.56482,0.51231 -0.97439,1.31685 -1.21092,2.38086 -0.0985,0.44656 -0.1436,0.8284 -0.1436,1.16982 0,0.46631 0.0895,0.83251 0.26677,1.1083 0.0473,0.0709 0.10982,0.14566 0.16415,0.20524 0.292,0.31004 0.69975,0.47213 1.21092,0.47213 0.66334,0 1.24791,-0.24713 1.80622,-0.75945 0.56482,-0.51881 0.96789,-1.33157 1.21092,-2.42183 0.22328,-0.99826 0.19212,-1.74367 -0.12317,-2.2166 -0.30216,-0.45968 -0.74381,-0.67726 -1.35463,-0.67726 -0.10365,0 -0.2073,-0.012 -0.30787,0 z m 37.08724,3.59167 c -0.55831,0.15113 -1.18386,0.2783 -2.01146,0.38994 -0.61733,0.092 -1.05739,0.18892 -1.31354,0.28743 -0.22328,0.0919 -0.40307,0.21917 -0.55409,0.38994 -0.14452,0.16415 -0.24143,0.33652 -0.28732,0.53366 -0.0131,0.0788 -0.0205,0.16004 -0.0205,0.22568 0,0.005 -1.1e-4,0.0153 0,0.0205 6.9e-4,0.0156 -0.002,0.0465 0,0.0615 0.004,0.0298 0.0123,0.0749 0.0205,0.10262 0.003,0.009 0.0171,0.0322 0.0204,0.0411 0.007,0.0177 0.0116,0.0447 0.0205,0.0615 0.009,0.0167 0.03,0.0457 0.0411,0.0616 0.0172,0.0236 0.0406,0.0599 0.0615,0.0821 0.16426,0.1839 0.49176,0.26678 0.96469,0.26678 0.51882,0 1.01801,-0.0985 1.4777,-0.3283 0.45318,-0.2234 0.81846,-0.55672 1.08774,-0.94415 0.19703,-0.27591 0.35467,-0.70032 0.49268,-1.25201 z m -110.47601,-17.13049 12.97408,-56.872 7.63227,0 -11.49133,50.43219 29.63348,0 -1.48276,6.43981 -37.26574,0" />
      <path id="path2" style="fill:none;stroke:#008033;stroke-width:3.28386545;stroke-linecap:butt;stroke-linejoin:miter;stroke-miterlimit:4;" d="m 657.13929,595.58958 c 0.26666,0.68536 0.53332,1.3697 0.81093,2.03897 0.42773,0.90933 0.92212,1.77962 1.51639,2.59227 3.21051,4.36412 8.58716,6.75365 15.41365,7.3485 0,0 7.34291,0 7.34291,0 2.32184,-0.18105 4.75463,-0.51871 7.27635,-1.01196 4.34917,-0.85042 8.95941,-2.15677 13.74726,-3.90261 3.62705,-1.32244 7.3541,-2.88712 11.13674,-4.70566 8.23717,-3.94873 16.74659,-9.0416 25.09494,-15.18751 2.74946,-2.02243 5.38784,-4.09759 7.92063,-6.20768 2.32184,-1.9319 4.54917,-3.8937 6.67649,-5.8772 5.93771,-5.72218 10.42009,-11.53375 12.95848,-16.63666 2.64398,-5.31398 3.17158,-9.85744 1.00544,-12.71967 -1.32758,-1.75691 -3.54931,-2.69843 -6.40983,-2.92 12.88622,-9.6692 20.3959,-21.39849 17.70204,-28.79368 -0.85545,-2.36008 -2.73838,-4.12087 -5.43783,-5.09458 -1.19973,-0.43149 -2.54958,-0.70489 -4.02144,-0.82931 0,0 -3.96586,0 -3.96586,0 -5.53783,0.39941 -13.59087,2.38234 -20.42272,5.73052" />
    </g>
    <g id="g3" style="fill:#008033" transform="matrix(1.705222,0,0,1.705222,1975.9379,2328.3877)">
      <path id="path3" transform="translate(-451.3678,-427.5077)" d="m 0,36 c 0,0 7.46,0 7.46,0 0,0 3.35,-14 3.35,-14 0,0 12.12,0 12.12,0 0,0 1.56,-6 1.56,-6 0,0 -12.17,0 -12.17,0 0,0 2.02,-9 2.02,-9 0,0 12.95,0 12.95,0 0,0 1.56,-7 1.56,-7 C 28.85,0 8.4,0 8.4,0 8.4,0 0,36 0,36 z" />
      <path id="path4" transform="translate(-425.4178,-417.5077)" d="m 7.51,26 c 0,0 2.24,-9.4 2.24,-9.4 1.18,-5.09 3.67,-9.6 8.38,-9.6 0.42,0 0.83,0.21 1.14,0.26 0,0 1.82,-7.21 1.82,-7.21 -0.42,0 -0.88,-0.05 -1.4,-0.05 -3.47,0 -6.38,2.44 -8.32,5.94 0,0 -0.2,0 -0.2,0 C 11.46,4.23 11.71,2.61 11.9,1 11.9,1 5.47,1 5.47,1 5.1,3.08 4.53,7.15 3.66,10.82 3.66,10.82 0,26 0,26 c 0,0 7.51,0 7.51,0 z" />
      <path id="path5" transform="translate(-404.7878,-417.5077)" d="M 20.06,19.25 C 17.99,20.26 15.63,20 12.88,20 10.71,20 9.03,19.62 8.11,18.88 7.63,18.07 7.43,16.81 7.47,16 17.6,16.27 23.99,13.93 24.31,7.53 24.55,2.7 21.02,0 15.89,0 6.73,0 0.73,8.08 0.34,15.86 0,22.65 3.52,26 10.78,26 c 2.79,0 6.49,-0.32 9.52,-1.23 0,0 -0.24,-5.52 -0.24,-5.52 z M 17.32,7.53 C 17.2,9.91 14.26,10.05 8.47,10 9.1,7.91 11.22,6 14.69,6 c 1.71,0 2.69,0.65 2.63,1.53 z" />
      <path id="path6" transform="translate(-378.2678,-417.5077)" d="M 20.05,19.25 C 17.98,20.26 15.62,20 12.88,20 10.7,20 9.03,19.62 8.11,18.88 7.63,18.07 7.42,16.81 7.46,16 17.6,16.27 23.98,13.93 24.31,7.53 24.55,2.7 21.02,0 15.89,0 6.72,0 0.72,8.08 0.33,15.86 0,22.65 3.52,26 10.77,26 c 2.8,0 6.5,-0.32 9.53,-1.23 0,0 -0.25,-5.52 -0.25,-5.52 z M 17.32,7.53 C 17.2,9.91 14.26,10.05 8.46,10 9.1,7.91 11.21,6 14.68,6 c 1.71,0 2.7,0.65 2.64,1.53 z" />
      <path id="path7" transform="translate(-342.3578,-417.5077)" d="M 22.74,26 C 22.8,22.83 23.56,17.85 24.35,14.58 24.35,14.58 27.56,1 27.56,1 25.52,0.31 22.34,0 19.28,0 6.86,0 0.7,9.2 0.27,17.82 0,23.23 2.93,26 7.49,26 c 2.95,0 6.28,-1.43 8.87,-5.73 0,0 0.11,0 0.11,0 -0.2,2.07 -0.44,4.08 -0.57,5.73 0,0 6.84,0 6.84,0 z M 17.61,11.72 C 16.15,18.08 13.17,20 10.95,20 8.88,20 7.98,18.53 8.1,16.39 8.34,11.56 12.16,6 16.98,6 c 0.78,0 1.39,-0.14 1.96,-0.28 0,0 -1.33,6 -1.33,6 z" />
      <path id="path8" transform="translate(-314.7278,-417.5077)" d="m 0,24.82 c 1.44,1.12 4.46,1.13 7.61,1.18 6.73,0.05 11.81,-2.89 12.11,-8.29 0.17,-3.6 -2.62,-5.73 -5.35,-7.16 C 12.4,9.6 11.41,8.69 11.46,7.63 11.53,6.2 12.87,6 14.84,6 c 2.22,0 4,0.27 5.02,0.47 0,0 2.02,-5.42 2.02,-5.42 C 20.73,0.36 18.43,0 15.48,0 8.95,0 4.17,3.45 3.9,8.69 c -0.16,3.24 2.17,5.42 4.99,6.9 2.28,1.17 3.06,2.07 3,3.34 C 11.82,20.21 10.68,20 8.61,20 6.18,20 3.49,19.68 2.07,19.46 2.07,19.46 0,24.82 0,24.82 z" />
      <path id="path9" transform="translate(-282.2778,-428.5077)" d="m 7.45,37 c 0,0 6.05,-25 6.05,-25 0,0 -7.41,0 -7.41,0 0,0 -6.09,25 -6.09,25 0,0 7.45,0 7.45,0 z M 10.92,9 C 13.46,9 15.72,6.9 15.86,3.3 15.98,0.86 14.4,0 12.07,0 9.64,0 7.42,1.58 7.29,3.94 7.17,6.32 8.75,9 10.92,9 z" />
      <path id="path10" transform="translate(-267.9878,-416.8177)" d="m 7.46,25.31 c 0,0 2.64,-11.26 2.64,-11.26 1.37,-5.73 4.32,-7.74 6.75,-7.74 1.92,0 2.48,0.82 2.39,2.01 -0.05,0.96 -0.2,1.97 -0.4,2.87 0,0 -3.36,14.12 -3.36,14.12 0,0 7.46,0 7.46,0 0,0 3.54,-14.81 3.54,-14.81 C 26.75,9.22 27.05,7.31 27.11,6.15 27.33,1.64 25.08,0 20.94,0 c -3.32,0 -6.55,1.54 -9.1,4.88 0,0 -0.1,0 -0.1,0 0,0 0.68,-4.57 0.68,-4.57 0,0 -6.58,0 -6.58,0 C 5.41,2.45 4.86,5.04 4.08,8.06 4.08,8.06 0,25.31 0,25.31 c 0,0 7.46,0 7.46,0 z" />
      <path id="path11" transform="translate(-228.4278,-427.5077)" d="m 0,36 c 0,0 7.46,0 7.46,0 0,0 3.36,-14 3.36,-14 0,0 12.11,0 12.11,0 0,0 1.56,-6 1.56,-6 0,0 -12.17,0 -12.17,0 0,0 2.02,-9 2.02,-9 0,0 12.95,0 12.95,0 0,0 1.56,-7 1.56,-7 C 28.85,0 8.4,0 8.4,0 8.4,0 0,36 0,36 z" />
      <path id="path12" transform="translate(-202.4778,-417.5077)" d="m 7.51,26 c 0,0 2.24,-9.4 2.24,-9.4 1.18,-5.09 3.67,-9.6 8.38,-9.6 0.42,0 0.83,0.21 1.14,0.26 0,0 1.82,-7.21 1.82,-7.21 -0.42,0 -0.88,-0.05 -1.4,-0.05 -3.47,0 -6.38,2.44 -8.32,5.94 0,0 -0.2,0 -0.2,0 C 11.46,4.23 11.71,2.61 11.9,1 11.9,1 5.47,1 5.47,1 5.11,3.08 4.53,7.15 3.66,10.82 3.66,10.82 0,26 0,26 c 0,0 7.51,0 7.51,0 z" />
      <path id="path13" transform="translate(-181.8478,-417.5077)" d="M 20.06,19.25 C 17.99,20.26 15.63,20 12.88,20 10.71,20 9.03,19.62 8.11,18.88 7.63,18.07 7.43,16.81 7.47,16 17.6,16.27 23.99,13.93 24.31,7.53 24.55,2.7 21.02,0 15.89,0 6.73,0 0.73,8.08 0.34,15.86 0,22.65 3.53,26 10.78,26 c 2.79,0 6.5,-0.32 9.52,-1.23 0,0 -0.24,-5.52 -0.24,-5.52 z M 17.32,7.53 C 17.2,9.91 14.26,10.05 8.47,10 9.1,7.91 11.22,6 14.69,6 c 1.71,0 2.69,0.65 2.63,1.53 z" />
      <path id="path14" transform="translate(-155.3278,-417.5077)" d="M 20.05,19.25 C 17.98,20.26 15.62,20 12.88,20 10.7,20 9.03,19.62 8.11,18.88 7.63,18.07 7.42,16.81 7.46,16 17.6,16.27 23.98,13.93 24.31,7.53 24.55,2.7 21.02,0 15.89,0 6.72,0 0.72,8.08 0.33,15.86 0,22.65 3.52,26 10.77,26 c 2.8,0 6.5,-0.32 9.53,-1.23 0,0 -0.25,-5.52 -0.25,-5.52 z M 17.32,7.53 C 17.2,9.91 14.26,10.05 8.46,10 9.1,7.91 11.21,6 14.68,6 c 1.71,0 2.7,0.65 2.64,1.53 z" />
      <path id="path15" transform="translate(-128.9478,-428.5077)" d="M 23.31,0 C 23.31,0 20.5,11.36 20.5,11.36 19.48,10.94 18.15,11 17.11,11 7.53,11 0.75,19.2 0.3,28.08 0,34.34 3.34,37 7.64,37 c 3.01,0 6.18,-1.33 8.58,-4.77 0,0 0.1,0 0.1,0 0,0 -0.57,4.77 -0.57,4.77 0,0 6.78,0 6.78,0 0.31,-3 0.96,-6.57 1.69,-9.83 0,0 6.49,-27.17 6.49,-27.17 0,0 -7.4,0 -7.4,0 z M 17.47,24.42 C 16.3,29.35 13.54,31 11.36,31 9.19,31 7.98,29.49 8.13,26.8 8.38,21.82 11.8,17 16.25,17 c 1.25,0 2.32,0.19 2.91,0.47 0,0 -1.69,6.95 -1.69,6.95 z" />
      <path id="path16" transform="translate(-99.2378,-417.5077)" d="M 10.61,26 C 19.31,26 26.02,19.41 26.49,10.44 26.78,4.5 23.08,0 16.25,0 7.23,0 0.76,7.3 0.31,16.12 0,22.54 4.14,26 10.61,26 z m 1.17,-6 C 9.24,20 7.84,18.38 7.99,15.96 8.19,11.93 10.68,6 14.97,6 c 2.96,0 3.87,2.27 3.75,4.5 -0.22,4.4 -2.9,9.5 -6.94,9.5 z" />
      <path id="path17" transform="translate(-70.6778,-417.5077)" d="M 7.2,26 C 7.2,26 9.9,14.58 9.9,14.58 11.03,9.49 13.85,6 16.38,6 c 1.82,0 2.32,1.33 2.23,3.07 -0.05,0.9 -0.25,1.91 -0.46,2.91 0,0 -3.34,14.02 -3.34,14.02 0,0 7.2,0 7.2,0 0,0 2.7,-11.47 2.7,-11.47 C 25.95,9.28 28.61,6 31.09,6 c 1.71,0 2.42,1.22 2.34,2.96 -0.05,1.01 -0.26,2.12 -0.52,3.13 0,0 -3.24,13.91 -3.24,13.91 0,0 7.25,0 7.25,0 0,0 3.49,-14.81 3.49,-14.81 0.27,-1.33 0.58,-3.4 0.63,-4.46 C 41.26,2.33 39.11,0 35.23,0 31.91,0 28.68,1.5 26.23,4.66 26.14,2.38 24.51,0 20.47,0 17.2,0 14.08,1.48 11.58,4.83 c 0,0 -0.1,0 -0.1,0 0,0 0.67,-3.83 0.67,-3.83 0,0 -6.42,0 -6.42,0 C 5.31,3.14 4.8,5.73 4.02,8.75 4.02,8.75 0,26 0,26 c 0,0 7.2,0 7.2,0 z" />
    </g>
  </g>
</svg>
