<?xml version="1.0" encoding="utf-8" standalone="yes"?>
<!DOCTYPE svg PUBLIC "-//W3C//DTD SVG 1.1//EN" "http://www.w3.org/Graphics/SVG/1.1/DTD/svg11.dtd">
<svg xmlns:rdf="http://www.w3.org/1999/02/22-rdf-syntax-ns#" xmlns:svg="http://www.w3.org/2000/svg" xmlns="http://www.w3.org/2000/svg" width="431" height="345" version="1.1">
<style type="text/css"><![CDATA[
#P1 {fill:url(#LO)}
rect {opacity:.40740739;fill:#000cff;width:.50507629;height:0}
]]></style>
  <defs>
    <linearGradient id="LO" gradientUnits="userSpaceOnUse" x1="319.20822" y1="235.14877" x2="657.65295" y2="269.49396">
      <stop style="stop-color:#e54c18" offset="0"/>
      <stop style="stop-color:#fec350" offset="1"/>
    </linearGradient>
  </defs>
  <g transform="translate(142.2839,-24.99705)">
    <g transform="translate(-413.2102,-40.70387)">
      <path d="M342.0739,390.70219L 453.17118,245.44599L 338.79445,85.733013L 412.30881,85.794093L 503.44682,211.37696L 367.17669,390.70219L 342.0739,390.70219 z M559.52169,390.8049L 469.01289,265.00644L 606.41773,85.596933L 630.89946,85.596933L 519.34879,231.53848L 633.03722,390.8049L 559.52169,390.8049z"/>
      <path id="P1" d="M486.41071,143.82651C 477.55968,143.82651 468.10342,144.51187 459.5906,145.32904C 474.75653,165.10903 487.34067,181.85855 501.82347,200.88092C 493.69471,183.38799 476.98783,166.61333 482.7635,157.98625C 488.48067,149.44656 499.01457,150.88393 499.81696,150.88393C 516.70545,150.88393 532.96221,152.79132 548.16071,156.32143L 551.72321,151.41518C 531.4524,146.19692 509.43472,143.82651 486.41071,143.82651 z M577.87946,159.79018L 574.59821,164.47768C 621.42401,182.81432 653.09821,217.83797 653.09821,257.97767C 653.09821,317.0837 584.43336,365.04017 499.81696,365.04017C 415.20056,365.04016 346.50446,317.08369 346.50446,257.97767C 346.50447,225.78991 366.87604,196.89765 399.09821,177.25893L 389.19196,162.16518C 338.64582,183.59701 305.09822,221.2148 305.09821,264.04017C 305.09821,330.67385 386.32071,384.72767 486.41071,384.72767C 586.5007,384.72767 667.75445,330.67386 667.75446,264.04017C 667.75446,219.60725 631.63191,180.74772 577.87946,159.79018z"/>
    </g>
    <rect x="322.36493" y="180.85307" width=".50507629" height="0"/>
  </g>
</svg>
