<svg width="675" height="225" viewBox="0 0 540 180" version="1.1" xmlns="http://www.w3.org/2000/svg" xmlns:xlink="http://www.w3.org/1999/xlink">
	<defs>
		<marker id="dot" viewBox="-1 -1 2 2" markerWidth="6" markerHeight="6">
			<circle r="1" fill="black" stroke="none"/>
		</marker>
	</defs>
	<clipPath id="plot"><rect x="30" width="479" height="180"/></clipPath>
	<g fill="none">
		<path id="ticks" d="M27 24h6m-6 66h6m-6 66h6M49 18v6m44.1-6v6m44.1-6v6m44.1-6v6m44.1-6v6m44.1-6v6m44.1-6v6m44.1-6v6m44.1-6v6m44.1-6v6m44.1-6v6" stroke="#888"/>
		<use xlink:href="#ticks" transform="matrix(-1,0,0,-1,540,180)"/>
		<rect x="27" y="18" width="486" height="144" stroke="#000"/>
		<g clip-path="url(#plot)">
			<g id="red3">
				<path id="red" d="m22 90c2.04-17.24 4.08-34.48 6.13-46.67 2.04-12.19 4.08-19.33 6.12-19.33s4.08 7.14 6.13 19.33c2.04 12.19 4.08 29.43 6.12 46.67s4.08 34.48 6.13 46.67c2.04 12.19 4.08 19.33 6.12 19.33s4.08-7.14 6.12-19.33c2.05-12.19 4.09-29.43 6.13-46.67" stroke="red"/>
				<use xlink:href="#red" x="49"/>
				<use xlink:href="#red" x="98"/>
			</g>
			<use xlink:href="#red3" x="147"/>
			<use xlink:href="#red3" x="294"/>
			<use xlink:href="#red" x="441"/>
			<path d="m16 136.67c18.37-12.19 36.75-29.43 55.12-46.67s36.75-34.48 55.13-46.67c18.37-12.19 36.75-19.33 55.12-19.33s36.75 7.14 55.13 19.33c18.37 12.19 36.75 29.43 55.12 46.67s36.75 34.48 55.13 46.67c18.37 12.19 36.75 19.33 55.12 19.33s36.75-7.14 55.13-19.33c18.37-12.19 36.75-29.43 55.12-46.67" stroke="blue"/>
		</g>
		<g stroke="#000" marker-end="url(#dot)">
			<path d="M49 90v20"/>
			<path d="M93.1 90v-20"/>
			<path d="M137.2 90v-54"/>
			<path d="M181.3 90v-65.96"/>
			<path d="M225.4 90v-54"/>
			<path d="M269.5 90v-20"/>
			<path d="M313.6 90v20"/>
			<path d="M357.7 90v54"/>
			<path d="M401.8 90v65.96"/>
			<path d="M445.9 90v54"/>
			<path d="M490 90v20"/>
		</g>
	</g>
	<g font-family="'Liberation Sans', Arial, sans-serif" font-size="16">
		<text x="25" y="95" text-anchor="end">0</text>
		<text text-anchor="middle">
			<tspan x="52" y="177">0</tspan>
			<tspan x="96">1</tspan>
			<tspan x="140">2</tspan>
			<tspan x="184">3</tspan>
			<tspan x="228">4</tspan>
			<tspan x="273">5</tspan>
			<tspan x="317">6</tspan>
			<tspan x="361">7</tspan>
			<tspan x="405">8</tspan>
			<tspan x="449">9</tspan>
			<tspan x="490">10</tspan>
		</text>
	</g>
</svg>