<?xml version="1.0" encoding="UTF-8"?>
<!DOCTYPE svg PUBLIC "-//W3C//DTD SVG 1.1//EN" "http://www.w3.org/Graphics/SVG/1.1/DTD/svg11.dtd">
<!-- Creator: Corel DESIGNER -->
<svg xmlns="http://www.w3.org/2000/svg" xml:space="preserve" width="720px" height="600px" style="shape-rendering:geometricPrecision; text-rendering:geometricPrecision; image-rendering:optimizeQuality; fill-rule:evenodd; clip-rule:evenodd" viewBox="0 0 720 600" xmlns:xlink="http://www.w3.org/1999/xlink">
 <defs>
  <style type="text/css">
   <![CDATA[
    .str0 {stroke:#1F1A17;stroke-width:1.87512;stroke-linecap:round;stroke-linejoin:round;stroke-opacity:0.400000}
    .str1 {stroke:#3D3B7E;stroke-width:3.74988;stroke-linecap:round;stroke-linejoin:round}
    .fil19 {fill:none}
    .fil18 {fill:none}
    .fil20 {fill:#1F1A17}
    .fil0 {fill:white}
    .fil9 {fill:#E8B13A}
    .fil11 {fill:#E8B23B}
    .fil4 {fill:#EAB74A}
    .fil15 {fill:#EAB84C}
    .fil7 {fill:#EBBB53}
    .fil10 {fill:#EBBC55}
    .fil14 {fill:#EBBC56}
    .fil6 {fill:#F8E7C3}
    .fil13 {fill:#F8E8C4}
    .fil16 {fill:#F8E8C5}
    .fil12 {fill:#FDF9EF}
    .fil3 {fill:#FDF9F0}
    .fil8 {fill:#FDFAF1}
    .fil5 {fill:#FEFCF7}
    .fil2 {fill:#FEFCF8}
    .fil1 {fill:#FFFFFE}
    .fil28 {fill:#1C1C1C}
    .fil23 {fill:#2E2E2E}
    .fil30 {fill:#363636}
    .fil26 {fill:#383838}
    .fil29 {fill:#3B3B3B}
    .fil25 {fill:#BABABA}
    .fil31 {fill:#BDBDBD}
    .fil22 {fill:#EDEDED}
    .fil27 {fill:#F0F0F0}
    .fil24 {fill:whitesmoke}
    .fil21 {fill:#F7F7F7}
    .fil17 {fill:#E5A823}
   ]]>
  </style>
 </defs>
 <g id="Layer_x0020_1">
  <metadata id="CorelCorpID_0Corel-Layer"/>
  <rect class="fil0" x="-0.000354331" y="-0.000354331" width="720.001" height="600"/>
  <circle class="fil1" cx="330.837" cy="506.639" r="25.1532"/>
  <circle class="fil2" cx="680.788" cy="331.661" r="25.1532"/>
  <circle class="fil3" cx="622.462" cy="389.987" r="25.1532"/>
  <circle class="fil4" cx="622.46" cy="331.663" r="25.1532"/>
  <circle class="fil5" cx="622.46" cy="273.336" r="25.1532"/>
  <circle class="fil6" cx="564.137" cy="389.987" r="25.1532"/>
  <circle class="fil7" cx="564.135" cy="331.663" r="25.1532"/>
  <circle class="fil1" cx="564.135" cy="273.336" r="25.1532"/>
  <circle class="fil1" cx="505.814" cy="448.313" r="25.1532"/>
  <circle class="fil7" cx="505.814" cy="389.987" r="25.1532"/>
  <circle class="fil6" cx="505.812" cy="331.663" r="25.1532"/>
  <circle class="fil8" cx="447.489" cy="448.313" r="25.1532"/>
  <circle class="fil9" cx="447.489" cy="389.987" r="25.1532"/>
  <circle class="fil8" cx="447.486" cy="331.66" r="25.1532"/>
  <circle class="fil6" cx="389.164" cy="448.313" r="25.1532"/>
  <circle class="fil10" cx="389.164" cy="389.987" r="25.1532"/>
  <circle class="fil1" cx="389.162" cy="331.663" r="25.1532"/>
  <circle class="fil10" cx="330.837" cy="448.313" r="25.1532"/>
  <circle class="fil6" cx="330.837" cy="389.987" r="25.1532"/>
  <circle class="fil8" cx="272.513" cy="506.639" r="25.1532"/>
  <circle class="fil11" cx="272.513" cy="448.313" r="25.1532"/>
  <circle class="fil12" cx="272.513" cy="389.987" r="25.1532"/>
  <circle class="fil13" cx="214.185" cy="506.639" r="25.1532"/>
  <circle class="fil14" cx="214.185" cy="448.313" r="25.1532"/>
  <circle class="fil1" cx="214.185" cy="389.987" r="25.1532"/>
  <circle class="fil1" cx="155.863" cy="564.963" r="25.1532"/>
  <circle class="fil15" cx="155.862" cy="506.638" r="25.1532"/>
  <circle class="fil16" cx="155.862" cy="448.312" r="25.1532"/>
  <circle class="fil2" cx="97.537" cy="564.963" r="25.1532"/>
  <circle class="fil15" cx="97.5366" cy="506.637" r="25.1532"/>
  <circle class="fil3" cx="97.5366" cy="448.312" r="25.1532"/>
  <circle class="fil2" cx="39.2117" cy="506.637" r="25.1532"/>
  <g id="_33887128">
   <circle id="_33892432" class="fil17" cx="389.158" cy="215.012" r="25.1532"/>
   <circle id="_33891904" class="fil17" cx="447.483" cy="215.012" r="25.1532"/>
   <circle id="_33891240" class="fil17" cx="505.809" cy="215.011" r="25.1532"/>
   <circle id="_33890712" class="fil17" cx="564.133" cy="156.687" r="25.1532"/>
   <circle id="_33890184" class="fil17" cx="622.458" cy="156.687" r="25.1532"/>
   <circle id="_33889656" class="fil17" cx="272.509" cy="273.337" r="25.1532"/>
   <circle id="_33889128" class="fil17" cx="330.834" cy="273.337" r="25.1532"/>
   <circle id="_33888600" class="fil17" cx="214.184" cy="273.337" r="25.1532"/>
   <circle id="_33888072" class="fil17" cx="155.858" cy="331.662" r="25.1532"/>
   <circle id="_33887408" class="fil17" cx="97.5334" cy="331.662" r="25.1532"/>
  </g>
  <path class="fil18 str0" d="M564.136 32.2094l0 15.6515m7.82575 -7.82575l-15.6515 0"/>
  <path class="fil18 str0" d="M505.811 32.2094l0 15.6515m7.82575 -7.82575l-15.6515 0"/>
  <path class="fil18 str0" d="M622.461 32.2094l0 15.6515m7.82575 -7.82575l-15.6515 0"/>
  <path class="fil18 str0" d="M622.461 148.86l0 15.6515m7.82575 -7.82575l-15.6515 0"/>
  <path class="fil18 str0" d="M447.486 32.2094l0 15.6515m7.82575 -7.82575l-15.6515 0"/>
  <path class="fil18 str0" d="M622.461 90.535l0 15.6515m7.82575 -7.82575l-15.6515 0"/>
  <path class="fil18 str0" d="M564.136 90.535l0 15.6515m7.82575 -7.82575l-15.6515 0"/>
  <path class="fil18 str0" d="M505.811 90.535l0 15.6515m7.82575 -7.82575l-15.6515 0"/>
  <path class="fil18 str0" d="M564.136 148.86l0 15.6515m7.82575 -7.82575l-15.6515 0"/>
  <path class="fil18 str0" d="M505.811 148.86l0 15.6515m7.82575 -7.82575l-15.6515 0"/>
  <path class="fil18 str0" d="M447.486 148.86l0 15.6515m7.82575 -7.82575l-15.6515 0"/>
  <path class="fil18 str0" d="M330.835 32.2094l0 15.6515m7.82575 -7.82575l-15.6515 0"/>
  <path class="fil18 str0" d="M272.51 32.2094l0 15.6515m7.82575 -7.82575l-15.6515 0"/>
  <path class="fil18 str0" d="M389.16 32.2094l0 15.6515m7.82575 -7.82575l-15.6515 0"/>
  <path class="fil18 str0" d="M447.485 90.5347l0 15.6515m7.82575 -7.82575l-15.6515 0"/>
  <path class="fil18 str0" d="M389.16 90.5347l0 15.6515m7.82575 -7.82575l-15.6515 0"/>
  <path class="fil18 str0" d="M330.835 90.5347l0 15.6515m7.82575 -7.82575l-15.6515 0"/>
  <path class="fil18 str0" d="M272.51 90.5347l0 15.6515m7.82575 -7.82575l-15.6515 0"/>
  <path class="fil18 str0" d="M330.835 148.859l0 15.6515m7.82575 -7.82575l-15.6515 0"/>
  <path class="fil18 str0" d="M272.51 148.859l0 15.6515m7.82575 -7.82575l-15.6515 0"/>
  <path class="fil18 str0" d="M389.16 148.859l0 15.6515m7.82575 -7.82575l-15.6515 0"/>
  <path class="fil18 str0" d="M622.461 265.51l0 15.6515m7.82575 -7.82575l-15.6515 0"/>
  <path class="fil18 str0" d="M622.461 207.185l0 15.6515m7.82575 -7.82575l-15.6515 0"/>
  <path class="fil18 str0" d="M564.136 207.185l0 15.6515m7.82575 -7.82575l-15.6515 0"/>
  <path class="fil18 str0" d="M505.811 207.185l0 15.6515m7.82575 -7.82575l-15.6515 0"/>
  <path class="fil18 str0" d="M564.136 265.51l0 15.6515m7.82575 -7.82575l-15.6515 0"/>
  <path class="fil18 str0" d="M505.811 265.51l0 15.6515m7.82575 -7.82575l-15.6515 0"/>
  <path class="fil18 str0" d="M447.486 265.509l0 15.6515m7.82575 -7.82575l-15.6515 0"/>
  <path class="fil18 str0" d="M447.486 207.184l0 15.6515m7.82575 -7.82575l-15.6515 0"/>
  <path class="fil18 str0" d="M447.486 323.835l0 15.6515m7.82575 -7.82575l-15.6515 0"/>
  <path class="fil18 str0" d="M622.461 323.836l0 15.6515m7.82575 -7.82575l-15.6515 0"/>
  <path class="fil18 str0" d="M564.136 323.836l0 15.6515m7.82575 -7.82575l-15.6515 0"/>
  <path class="fil18 str0" d="M505.811 323.836l0 15.6515m7.82575 -7.82575l-15.6515 0"/>
  <path class="fil18 str0" d="M389.16 207.185l0 15.6515m7.82575 -7.82575l-15.6515 0"/>
  <path class="fil18 str0" d="M330.835 207.185l0 15.6515m7.82575 -7.82575l-15.6515 0"/>
  <path class="fil18 str0" d="M389.16 265.51l0 15.6515m7.82575 -7.82575l-15.6515 0"/>
  <path class="fil18 str0" d="M330.835 265.51l0 15.6515m7.82575 -7.82575l-15.6515 0"/>
  <path class="fil18 str0" d="M272.51 265.509l0 15.6515m7.82575 -7.82575l-15.6515 0"/>
  <path class="fil18 str0" d="M272.51 207.184l0 15.6515m7.82575 -7.82575l-15.6515 0"/>
  <path class="fil18 str0" d="M272.51 323.835l0 15.6515m7.82575 -7.82575l-15.6515 0"/>
  <path class="fil18 str0" d="M389.16 323.836l0 15.6515m7.82575 -7.82575l-15.6515 0"/>
  <path class="fil18 str0" d="M330.835 323.836l0 15.6515m7.82575 -7.82575l-15.6515 0"/>
  <path class="fil18 str0" d="M97.5348 207.184l0 15.6515m7.82575 -7.82575l-15.6515 0"/>
  <path class="fil18 str0" d="M39.2099 207.184l0 15.6515m7.82575 -7.82575l-15.6515 0"/>
  <path class="fil18 str0" d="M97.5345 265.51l0 15.6515m7.82575 -7.82575l-15.6515 0"/>
  <path class="fil18 str0" d="M39.2095 265.51l0 15.6515m7.82575 -7.82575l-15.6515 0"/>
  <path class="fil18 str0" d="M155.861 207.185l0 15.6515m7.82575 -7.82575l-15.6515 0"/>
  <path class="fil18 str0" d="M155.86 265.51l0 15.6515m7.82575 -7.82575l-15.6515 0"/>
  <path class="fil18 str0" d="M214.185 207.184l0 15.6515m7.82575 -7.82575l-15.6515 0"/>
  <path class="fil18 str0" d="M214.185 265.509l0 15.6515m7.82575 -7.82575l-15.6515 0"/>
  <path class="fil18 str0" d="M97.5345 323.835l0 15.6515m7.82575 -7.82575l-15.6515 0"/>
  <path class="fil18 str0" d="M39.2095 323.835l0 15.6515m7.82575 -7.82575l-15.6515 0"/>
  <path class="fil18 str0" d="M155.86 323.836l0 15.6515m7.82575 -7.82575l-15.6515 0"/>
  <path class="fil18 str0" d="M214.185 323.835l0 15.6515m7.82575 -7.82575l-15.6515 0"/>
  <line class="fil19 str1" x1="97.5334" y1="331.662" x2="622.459" y2="156.686"/>
  <path class="fil18 str0" d="M622.463 557.137l0 15.6515m7.82575 -7.82575l-15.6515 0"/>
  <path class="fil18 str0" d="M564.138 557.137l0 15.6515m7.82575 -7.82575l-15.6515 0"/>
  <path class="fil18 str0" d="M505.813 557.137l0 15.6515m7.82575 -7.82575l-15.6515 0"/>
  <path class="fil18 str0" d="M447.488 557.137l0 15.6515m7.82575 -7.82575l-15.6515 0"/>
  <path class="fil18 str0" d="M330.837 557.136l0 15.6515m7.82575 -7.82575l-15.6515 0"/>
  <path class="fil18 str0" d="M272.512 557.136l0 15.6515m7.82575 -7.82575l-15.6515 0"/>
  <path class="fil18 str0" d="M389.162 557.136l0 15.6515m7.82575 -7.82575l-15.6515 0"/>
  <path class="fil18 str0" d="M214.187 557.136l0 15.6515m7.82575 -7.82575l-15.6515 0"/>
  <path class="fil18 str0" d="M97.537 557.137l0 15.6515m7.82575 -7.82575l-15.6515 0"/>
  <path class="fil18 str0" d="M39.212 557.137l0 15.6515m7.82575 -7.82575l-15.6515 0"/>
  <path class="fil18 str0" d="M155.863 557.137l0 15.6515m7.82575 -7.82575l-15.6515 0"/>
  <path class="fil18 str0" d="M622.463 382.162l0 15.6515m7.82575 -7.82575l-15.6515 0"/>
  <path class="fil18 str0" d="M564.138 382.162l0 15.6515m7.82575 -7.82575l-15.6515 0"/>
  <path class="fil18 str0" d="M505.813 382.162l0 15.6515m7.82575 -7.82575l-15.6515 0"/>
  <path class="fil18 str0" d="M564.138 440.487l0 15.6515m7.82575 -7.82575l-15.6515 0"/>
  <path class="fil18 str0" d="M505.813 440.487l0 15.6515m7.82575 -7.82575l-15.6515 0"/>
  <path class="fil18 str0" d="M622.463 440.487l0 15.6515m7.82575 -7.82575l-15.6515 0"/>
  <path class="fil18 str0" d="M447.488 382.162l0 15.6515m7.82575 -7.82575l-15.6515 0"/>
  <path class="fil18 str0" d="M447.488 440.487l0 15.6515m7.82575 -7.82575l-15.6515 0"/>
  <path class="fil18 str0" d="M622.463 498.812l0 15.6515m7.82575 -7.82575l-15.6515 0"/>
  <path class="fil18 str0" d="M564.138 498.812l0 15.6515m7.82575 -7.82575l-15.6515 0"/>
  <path class="fil18 str0" d="M505.813 498.812l0 15.6515m7.82575 -7.82575l-15.6515 0"/>
  <path class="fil18 str0" d="M389.162 382.162l0 15.6515m7.82575 -7.82575l-15.6515 0"/>
  <path class="fil18 str0" d="M330.837 382.162l0 15.6515m7.82575 -7.82575l-15.6515 0"/>
  <path class="fil18 str0" d="M272.512 382.162l0 15.6515m7.82575 -7.82575l-15.6515 0"/>
  <path class="fil18 str0" d="M330.837 440.487l0 15.6515m7.82575 -7.82575l-15.6515 0"/>
  <path class="fil18 str0" d="M272.512 440.487l0 15.6515m7.82575 -7.82575l-15.6515 0"/>
  <path class="fil18 str0" d="M389.162 440.487l0 15.6515m7.82575 -7.82575l-15.6515 0"/>
  <path class="fil18 str0" d="M214.187 440.487l0 15.6515m7.82575 -7.82575l-15.6515 0"/>
  <path class="fil18 str0" d="M214.187 382.162l0 15.6515m7.82575 -7.82575l-15.6515 0"/>
  <path class="fil18 str0" d="M447.487 498.812l0 15.6515m7.82575 -7.82575l-15.6515 0"/>
  <path class="fil18 str0" d="M389.162 498.812l0 15.6515m7.82575 -7.82575l-15.6515 0"/>
  <path class="fil18 str0" d="M330.837 498.812l0 15.6515m7.82575 -7.82575l-15.6515 0"/>
  <path class="fil18 str0" d="M272.512 498.812l0 15.6515m7.82575 -7.82575l-15.6515 0"/>
  <path class="fil18 str0" d="M214.187 498.812l0 15.6515m7.82575 -7.82575l-15.6515 0"/>
  <path class="fil18 str0" d="M97.537 382.161l0 15.6515m7.82575 -7.82575l-15.6515 0"/>
  <path class="fil18 str0" d="M39.212 382.161l0 15.6515m7.82575 -7.82575l-15.6515 0"/>
  <path class="fil18 str0" d="M97.5366 440.486l0 15.6515m7.82575 -7.82575l-15.6515 0"/>
  <path class="fil18 str0" d="M39.2117 440.486l0 15.6515m7.82575 -7.82575l-15.6515 0"/>
  <path class="fil18 str0" d="M155.863 382.161l0 15.6515m7.82575 -7.82575l-15.6515 0"/>
  <path class="fil18 str0" d="M155.862 440.486l0 15.6515m7.82575 -7.82575l-15.6515 0"/>
  <path class="fil18 str0" d="M97.5366 498.812l0 15.6515m7.82575 -7.82575l-15.6515 0"/>
  <path class="fil18 str0" d="M39.2117 498.812l0 15.6515m7.82575 -7.82575l-15.6515 0"/>
  <path class="fil18 str0" d="M155.862 498.812l0 15.6515m7.82575 -7.82575l-15.6515 0"/>
  <path class="fil18 str0" d="M680.788 382.162l0 15.6515m7.82575 -7.82575l-15.6515 0"/>
  <path class="fil18 str0" d="M680.788 440.487l0 15.6515m7.82575 -7.82575l-15.6515 0"/>
  <path class="fil18 str0" d="M680.788 498.812l0 15.6515m7.82575 -7.82575l-15.6515 0"/>
  <path class="fil18 str0" d="M680.788 557.137l0 15.6515m7.82575 -7.82575l-15.6515 0"/>
  <path class="fil18 str0" d="M680.788 32.2094l0 15.6515m7.82575 -7.82575l-15.6515 0"/>
  <path class="fil18 str0" d="M680.788 90.535l0 15.6515m7.82575 -7.82575l-15.6515 0"/>
  <path class="fil18 str0" d="M680.788 148.86l0 15.6515m7.82575 -7.82575l-15.6515 0"/>
  <path class="fil18 str0" d="M680.788 207.185l0 15.6515m7.82575 -7.82575l-15.6515 0"/>
  <path class="fil18 str0" d="M680.788 265.51l0 15.6515m7.82575 -7.82575l-15.6515 0"/>
  <path class="fil18 str0" d="M680.788 323.836l0 15.6515m7.82575 -7.82575l-15.6515 0"/>
  <path class="fil19 str1" d="M88.3159 478.971c-11.9052,3.96602 -19.9403,15.1165 -19.9403,27.6658 0,16.1026 13.0585,29.1611 29.1611,29.1611 3.13299,0 6.25146,-0.50563 9.22075,-1.49528m-18.4415 -55.3316l524.923 -174.985m18.4472 55.3493c11.9091,-3.96744 19.9467,-15.1211 19.9467,-27.6746 0,-16.1075 -13.0628,-29.1703 -29.1703,-29.1703 -3.13406,0 -6.25358,0.50563 -9.22358,1.49563"/>
  <line class="fil19 str1" x1="631.686" y1="359.336" x2="106.757" y2="534.303"/>
  <g id="_33676936">
   <circle id="_34001632" class="fil20" cx="121.168" cy="93.1644" r="4.75009"/>
   <circle id="_34000968" class="fil20" cx="110.154" cy="93.1644" r="4.75009"/>
   <circle id="_33685120" class="fil20" cx="99.1391" cy="93.1645" r="4.75009"/>
   <circle id="_33684592" class="fil20" cx="88.1249" cy="104.179" r="4.75009"/>
   <circle id="_33684064" class="fil20" cx="77.1104" cy="104.179" r="4.75009"/>
   <circle id="_33683536" class="fil20" cx="143.197" cy="82.1499" r="4.75009"/>
   <circle id="_33683008" class="fil20" cx="132.183" cy="82.1499" r="4.75009"/>
   <circle id="_33682480" class="fil20" cx="154.211" cy="82.1499" r="4.75009"/>
   <circle id="_33681952" class="fil20" cx="165.226" cy="71.1355" r="4.75009"/>
   <circle id="_33677208" class="fil20" cx="176.24" cy="71.1355" r="4.75009"/>
  </g>
  <circle class="fil21" cx="187.3" cy="104.179" r="4.75201"/>
  <circle class="fil22" cx="176.281" cy="115.198" r="4.75201"/>
  <circle class="fil23" cx="176.28" cy="104.18" r="4.75201"/>
  <circle class="fil24" cx="176.28" cy="93.1603" r="4.75201"/>
  <circle class="fil25" cx="165.262" cy="115.198" r="4.75201"/>
  <circle class="fil26" cx="165.261" cy="104.18" r="4.75201"/>
  <circle class="fil0" cx="165.261" cy="93.1603" r="4.75201"/>
  <circle class="fil0" cx="154.243" cy="126.217" r="4.75201"/>
  <circle class="fil26" cx="154.243" cy="115.198" r="4.75201"/>
  <circle class="fil25" cx="154.243" cy="104.18" r="4.75201"/>
  <circle class="fil27" cx="143.224" cy="126.217" r="4.75201"/>
  <circle class="fil28" cx="143.224" cy="115.198" r="4.75201"/>
  <circle class="fil27" cx="143.224" cy="104.179" r="4.75201"/>
  <circle class="fil25" cx="132.206" cy="126.217" r="4.75201"/>
  <circle class="fil29" cx="132.206" cy="115.198" r="4.75201"/>
  <circle class="fil0" cx="132.205" cy="104.18" r="4.75201"/>
  <circle class="fil29" cx="121.186" cy="126.217" r="4.75201"/>
  <circle class="fil25" cx="121.186" cy="115.198" r="4.75201"/>
  <circle class="fil27" cx="110.167" cy="137.236" r="4.75201"/>
  <circle class="fil28" cx="110.167" cy="126.217" r="4.75201"/>
  <circle class="fil22" cx="110.167" cy="115.198" r="4.75201"/>
  <circle class="fil25" cx="99.148" cy="137.236" r="4.75201"/>
  <circle class="fil29" cx="99.148" cy="126.217" r="4.75201"/>
  <circle class="fil0" cx="99.148" cy="115.198" r="4.75201"/>
  <circle class="fil0" cx="88.1296" cy="148.255" r="4.75201"/>
  <circle class="fil30" cx="88.1295" cy="137.236" r="4.75201"/>
  <circle class="fil31" cx="88.1295" cy="126.217" r="4.75201"/>
  <circle class="fil21" cx="77.1106" cy="148.255" r="4.75201"/>
  <circle class="fil23" cx="77.1105" cy="137.236" r="4.75201"/>
  <circle class="fil22" cx="77.1105" cy="126.217" r="4.75201"/>
  <circle class="fil21" cx="66.0916" cy="137.236" r="4.75201"/>
  <circle class="fil0" cx="121.186" cy="137.236" r="4.75201"/>
 </g>
</svg>