<?xml version="1.0" encoding="UTF-8" standalone="no"?>
<!-- Created with Inkscape (http://www.inkscape.org/) -->

<svg
   version="1.1"
   id="svg11772"
   width="500.3067"
   height="143.15836"
   viewBox="0 0 500.3067 143.15836"
   sodipodi:docname="ac97_phases.svg"
   inkscape:version="1.2.2 (b0a8486541, 2022-12-01)"
   xmlns:inkscape="http://www.inkscape.org/namespaces/inkscape"
   xmlns:sodipodi="http://sodipodi.sourceforge.net/DTD/sodipodi-0.dtd"
   xmlns="http://www.w3.org/2000/svg"
   xmlns:svg="http://www.w3.org/2000/svg">
  <defs
     id="defs11776">
    <clipPath
       clipPathUnits="userSpaceOnUse"
       id="clipPath11962">
      <path
         d="M 435.36,478.68 H 452.28 V 478.8 H 435.36 Z"
         id="path11960" />
    </clipPath>
  </defs>
  <sodipodi:namedview
     id="namedview11774"
     pagecolor="#ffffff"
     bordercolor="#666666"
     borderopacity="1.0"
     inkscape:showpageshadow="2"
     inkscape:pageopacity="0.0"
     inkscape:pagecheckerboard="0"
     inkscape:deskcolor="#d1d1d1"
     showgrid="false"
     inkscape:zoom="1.6086107"
     inkscape:cx="247.10764"
     inkscape:cy="-173.13076"
     inkscape:window-width="1976"
     inkscape:window-height="1166"
     inkscape:window-x="0"
     inkscape:window-y="0"
     inkscape:window-maximized="1"
     inkscape:current-layer="g11778" />
  <g
     id="g11778"
     inkscape:groupmode="layer"
     inkscape:label="ac97_r23"
     transform="matrix(1.3333333,0,0,-1.3333333,-102.73327,676.47998)">
    <text
       xml:space="preserve"
       transform="matrix(1,0,0,-1,88.2,469.44)"
       style="font-variant:normal;font-weight:normal;font-size:5.5537px;font-family:Arial;-inkscape-font-specification:Arial;writing-mode:lr-tb;fill:#000000;fill-opacity:1;fill-rule:nonzero;stroke:none"
       id="text11854"><tspan
         x="0 3.3599885 6.6000171 10.198814"
         y="0"
         sodipodi:role="line"
         id="tspan11848">SYNC</tspan><tspan
         x="-4.0797482 -0.71975952 0.60091037 3.7215343 6.4806128 10.079411 12.958448"
         y="17.880136"
         sodipodi:role="line"
         id="tspan11850">BIT_CLK</tspan><tspan
         x="-11.399525 -8.0423126 -4.4435153 -1.2034868 1.9171373 5.2743487 8.0150995 11.988772 15.58757"
         y="34.56012"
         sodipodi:role="line"
         id="tspan11852">SDATA_OUT</tspan></text>
    <text
       xml:space="preserve"
       transform="matrix(1,0,0,-1,145.8,435.96)"
       style="font-variant:normal;font-weight:normal;font-size:4.6097px;font-family:Arial;-inkscape-font-specification:Arial;writing-mode:lr-tb;fill:#000000;fill-opacity:1;fill-rule:nonzero;stroke:none"
       id="text11858"><tspan
         x="0 2.0305729 2.9898515 5.2785673 6.3595419 7.7996125 10.079109"
         y="0"
         sodipodi:role="line"
         id="tspan11856">slot(1)</tspan></text>
    <path
       d="M 183.36,446.88 177.84,428.28 M 181.56,446.88 175.92,428.28 M 175.8,442.2 H 173.88 L 172.08,432.84 M 172.08,432.84 H 159.48 L 157.68,442.2 H 145.08 L 143.28,432.84 H 128.76"
       style="fill:none;stroke:#000000;stroke-width:0.12;stroke-linecap:butt;stroke-linejoin:miter;stroke-miterlimit:10;stroke-dasharray:none;stroke-opacity:1"
       id="path11860" />
    <text
       xml:space="preserve"
       transform="matrix(1,0,0,-1,154.8,414.24)"
       style="font-variant:normal;font-weight:normal;font-size:5.5537px;font-family:Arial;-inkscape-font-specification:Arial;writing-mode:lr-tb;fill:#000000;fill-opacity:1;fill-rule:nonzero;stroke:none"
       id="text11866"><tspan
         x="0 3.1206241 4.199708 8.399416 11.158494 12.599679 15.97022 17.049303 19.803383 21.244568 22.565239 24.365192 27.725182 30.479261 31.558346 32.757389 35.516468"
         y="0"
         sodipodi:role="line"
         id="tspan11862">Time Slot &quot;Valid&quot;</tspan><tspan
         x="14.520148 17.760178 18.839262 20.280447"
         y="7.4397364"
         sodipodi:role="line"
         id="tspan11864">Bits</tspan></text>
    <path
       d="M 321.6,446.88 316.08,428.28 M 319.8,446.88 314.16,428.28 M 323.28,464.76 317.64,446.04 M 321.36,464.76 315.72,446.04 M 113.88,484.08 V 505.44 M 428.76,484.08 V 507.36 M 194.28,478.68 H 201.72 M 186.96,442.2 188.88,432.84 H 192.6 M 254.28,432.84 H 248.64 L 246.84,442.2 H 233.64 L 231.84,432.84 H 218.76 L 216.84,442.2 H 203.76 L 201.96,432.84 H 194.52 M 186.96,432.84 188.88,442.2 H 196.32 M 198.24,442.2 H 201.96 L 203.76,432.84 H 216.84 L 218.76,442.2 H 231.84 L 233.64,432.84 H 246.84 L 248.64,442.2 H 256.08 M 274.8,442.2 H 276.72 L 278.52,432.84 H 280.44 M 274.8,432.84 H 276.72 L 278.52,442.2 H 284.16 M 142.2,463.2 V 470.16 M 157.2,463.2 V 470.16 M 133.8,465.48 H 140.76"
       style="fill:none;stroke:#000000;stroke-width:0.12;stroke-linecap:butt;stroke-linejoin:miter;stroke-miterlimit:10;stroke-dasharray:none;stroke-opacity:1"
       id="path11868" />
    <path
       d="M 140.52,466.56 142.32,465.48 140.52,464.4 V 466.56"
       style="fill:#000000;fill-opacity:1;fill-rule:evenodd;stroke:none"
       id="path11870" />
    <path
       d="M 166.56,465.48 H 158.64"
       style="fill:none;stroke:#000000;stroke-width:0.12;stroke-linecap:butt;stroke-linejoin:miter;stroke-miterlimit:10;stroke-dasharray:none;stroke-opacity:1"
       id="path11872" />
    <path
       d="M 158.88,464.4 157.2,465.48 158.88,466.56 V 464.4"
       style="fill:#000000;fill-opacity:1;fill-rule:evenodd;stroke:none"
       id="path11874" />
    <text
       xml:space="preserve"
       transform="matrix(1,0,0,-1,286.92,491.52)"
       style="font-variant:normal;font-weight:normal;font-size:5.5537px;font-family:Arial;-inkscape-font-specification:Arial;writing-mode:lr-tb;fill:#000000;fill-opacity:1;fill-rule:nonzero;stroke:none"
       id="text11878"><tspan
         x="0 2.7590783 5.5181565 6.9593415 9.71842"
         y="0"
         sodipodi:role="line"
         id="tspan11876">20.8 </tspan></text>
    <text
       xml:space="preserve"
       transform="matrix(1,0,0,-1,298.08,491.52)"
       style="font-variant:normal;font-weight:normal;font-size:5.0648px;font-family:Symbol;-inkscape-font-specification:Symbol;writing-mode:lr-tb;fill:#000000;fill-opacity:1;fill-rule:nonzero;stroke:none"
       id="text11882"><tspan
         x="0"
         y="0"
         id="tspan11880">µ</tspan></text>
    <text
       xml:space="preserve"
       transform="matrix(1,0,0,-1,300.96,491.52)"
       style="font-variant:normal;font-weight:normal;font-size:5.5537px;font-family:Arial;-inkscape-font-specification:Arial;writing-mode:lr-tb;fill:#000000;fill-opacity:1;fill-rule:nonzero;stroke:none"
       id="text11888"><tspan
         x="0"
         y="0"
         id="tspan11884">s</tspan><tspan
         x="-15.839707 -14.159714 -11.400636 -8.5215969 -7.2003722 -4.6806583 -1.0818608 1.317893"
         y="6.1201773"
         sodipodi:role="line"
         id="tspan11886">(48 kHz)</tspan></text>
    <path
       d="M 194.52,442.2 H 200.04 M 190.68,432.84 H 198.24 M 199.8,478.68 H 207.36 M 283.92,469.32 H 289.56 M 284.16,442.2 H 287.88 M 280.44,432.84 H 287.88 M 186.84,464.76 181.2,446.04 M 184.92,464.76 179.28,446.04 M 188.64,483.36 183.12,464.76 M 186.84,483.36 181.2,464.76 M 196.08,478.68 H 187.8 M 175.8,442.2 H 179.52 M 186.96,442.2 H 183.24 M 129,442.2 H 143.4 L 145.2,432.84 H 157.8 L 159.6,442.2 H 172.2 L 174,432.84 H 177.6 M 179.52,432.84 H 186.96 M 275.88,446.88 270.24,428.28 M 273.96,446.88 268.44,428.28 M 280.2,464.28 274.68,445.68 M 278.4,464.28 272.76,445.68 M 280.2,481.08 274.68,462.36 M 278.4,481.08 272.76,462.36 M 285.84,469.32 H 278.4 M 258,432.84 H 261.72 L 263.64,442.2 H 272.04 M 274.8,432.84 H 272.04 M 248.52,428.64 V 427.56 L 248.88,426.6 249.24,425.76 249.84,425.04 250.56,424.44 251.4,424.08 252.24,423.96 H 265.08 L 266.16,423.72 267.12,423.12 267.96,422.4 268.8,421.56 270,419.4 270.48,420.48 271.08,421.56 271.92,422.4 272.76,423.12 273.84,423.72 274.8,423.96 H 287.76 L 288.6,424.08 289.32,424.44 290.04,425.04 290.64,425.76 291.12,426.6 291.36,427.56 291.48,428.64 M 287.88,442.2 H 291.6 L 293.52,432.84 H 306.6 L 308.52,442.2 H 317.76 M 287.88,432.84 H 291.6 L 293.52,442.2 H 306.6 L 308.52,432.84 H 315.96 M 320.64,442.2 H 321.48 L 323.4,432.84 H 336.48 M 336.48,432.84 338.4,442.2 M 317.76,432.84 H 321.48 L 323.4,442.2 H 336.48 L 338.4,432.84 M 293.28,428.64 293.4,427.56 293.64,426.6 294.12,425.76 294.72,425.04 295.44,424.44 296.28,424.08 297.12,423.96 H 309.96 L 310.92,423.72 312,423.12 312.84,422.4 313.56,421.56 314.28,420.48 314.76,419.4 315.96,421.56 316.8,422.4 317.64,423.12 318.6,423.72 319.68,423.96 H 332.52 L 333.36,424.08 334.2,424.44 334.92,425.04 335.52,425.76 335.88,426.6 336.24,427.56 V 428.64"
       style="fill:none;stroke:#000000;stroke-width:0.12;stroke-linecap:butt;stroke-linejoin:miter;stroke-miterlimit:10;stroke-dasharray:none;stroke-opacity:1"
       id="path11890" />
    <path
       d="M 366.48,446.88 360.84,428.28 M 364.68,446.88 359.04,428.28 M 365.4,442.2 H 366.36 L 368.28,432.84 H 381.36 M 338.76,428.64 338.88,427.56 339.12,426.6 339.6,425.76 340.2,425.04 340.92,424.44 341.76,424.08 342.48,423.96 H 355.44 L 356.52,423.72 357.36,423.12 358.32,422.4 359.16,421.56 359.76,420.48 360.24,419.4 361.44,421.56 362.28,422.4 363.12,423.12 364.08,423.72 365.16,423.96 H 378 L 378.84,424.08 379.68,424.44 380.4,425.04 380.88,425.76 381.36,426.6 381.72,427.56 V 428.64 M 338.4,442.2 H 351.48 L 353.28,432.84 H 360.84 M 338.4,432.84 H 351.48 L 353.28,442.2 H 362.64 M 396.24,432.72 398.16,441.96 M 426.36,446.88 420.72,428.28 M 424.44,446.88 418.8,428.28 M 425.28,441.96 H 426.12 L 428.04,432.72 H 441.12 M 441.12,432.72 443.04,441.96 M 422.4,432.72 H 426.12 L 428.04,441.96 H 441.12 L 443.04,432.72 M 398.28,428.04 398.4,427.08 398.64,426 399.12,425.16 399.72,424.44 400.44,423.84 401.16,423.48 H 414.96 L 415.92,423.12 416.88,422.52 417.84,421.8 418.56,420.96 419.28,419.88 419.76,418.8 420.24,419.88 420.96,420.96 421.68,421.8 422.64,422.52 423.6,423.12 424.68,423.48 H 438.36 L 439.08,423.84 439.8,424.44 440.4,425.16 440.88,426 441.12,427.08 441.24,428.04 M 398.16,441.96 H 411.24 L 413.16,432.72 H 420.6 M 398.16,432.72 H 411.24 L 413.16,441.96 H 422.4 M 362.64,432.84 H 366.36 L 368.28,442.2 H 381.36 L 383.16,432.84"
       style="fill:none;stroke:#000000;stroke-width:0.12;stroke-linecap:butt;stroke-linejoin:miter;stroke-miterlimit:10;stroke-dasharray:none;stroke-opacity:1"
       id="path11892" />
    <text
       xml:space="preserve"
       transform="matrix(1,0,0,-1,262.68,412.8)"
       style="font-variant:normal;font-weight:normal;font-size:5.5537px;font-family:Arial;-inkscape-font-specification:Arial;writing-mode:lr-tb;fill:#000000;fill-opacity:1;fill-rule:nonzero;stroke:none"
       id="text11898"><tspan
         x="0 3.3677638 4.4468474 7.1981506 8.6393356 9.9600058"
         y="0"
         sodipodi:role="line"
         id="tspan11894">Slot 1</tspan><tspan
         x="45.959644 49.199673 50.278755 53.157795 54.478466 55.919651"
         y="-0.35987976"
         sodipodi:role="line"
         id="tspan11896">Slot 2</tspan></text>
    <text
       xml:space="preserve"
       transform="matrix(1,0,0,-1,283.08,435.96)"
       style="font-variant:normal;font-weight:normal;font-size:4.6097px;font-family:Arial;-inkscape-font-specification:Arial;writing-mode:lr-tb;fill:#000000;fill-opacity:1;fill-rule:nonzero;stroke:none"
       id="text11904"><tspan
         x="0 15.599225 17.878721 46.678284 60.477421 62.756916 89.636536"
         y="0"
         sodipodi:role="line"
         id="tspan11900">0190190</tspan><tspan
         x="120.2408 122.52029 151.31985"
         y="0.1198522"
         sodipodi:role="line"
         id="tspan11902">190</tspan></text>
    <path
       d="M 369.96,464.76 364.32,446.04 M 368.04,464.76 362.4,446.04 M 368.04,481.08 362.4,462.36 M 366.12,481.08 360.6,462.36 M 425.28,465.12 419.64,446.4 M 423.36,465.12 417.72,446.4 M 423.48,481.08 417.84,462.36 M 421.68,481.08 416.04,462.36 M 345.6,469.32 H 362.4 M 321.36,481.08 315.72,462.36 M 319.44,481.08 313.92,462.36 M 278.4,469.32 H 277.44 M 289.56,469.32 H 315.72 M 318.6,469.32 H 343.8 M 338.16,469.32 H 349.44"
       style="fill:none;stroke:#000000;stroke-width:0.12;stroke-linecap:butt;stroke-linejoin:miter;stroke-miterlimit:10;stroke-dasharray:none;stroke-opacity:1"
       id="path11906" />
    <text
       xml:space="preserve"
       transform="matrix(1,0,0,-1,354.12,413.16)"
       style="font-variant:normal;font-weight:normal;font-size:5.5537px;font-family:Arial;-inkscape-font-specification:Arial;writing-mode:lr-tb;fill:#000000;fill-opacity:1;fill-rule:nonzero;stroke:none"
       id="text11912"><tspan
         x="0 3.3677638 4.4468474 7.1981506 8.6393356 9.9600058"
         y="0"
         sodipodi:role="line"
         id="tspan11908">Slot 3</tspan><tspan
         x="56.639965 60.010506 61.089588 63.84367 65.284851 66.726036 69.480118"
         y="-0.23991984"
         sodipodi:role="line"
         id="tspan11910">Slot 12</tspan></text>
    <path
       d="M 443.04,441.96 H 444.84"
       style="fill:none;stroke:#000000;stroke-width:0.12;stroke-linecap:butt;stroke-linejoin:miter;stroke-miterlimit:10;stroke-dasharray:none;stroke-opacity:1"
       id="path11914" />
    <text
       xml:space="preserve"
       transform="matrix(1,0,0,-1,167.88,464.04)"
       style="font-variant:normal;font-weight:normal;font-size:4.1653px;font-family:Arial;-inkscape-font-specification:Arial;writing-mode:lr-tb;fill:#000000;fill-opacity:1;fill-rule:nonzero;stroke:none"
       id="text11920"><tspan
         x="0 2.039331 4.1986222 5.2791014 7.3184323 8.3993273 10.438659"
         y="0"
         sodipodi:role="line"
         id="tspan11916">81.4 ns</tspan><tspan
         x="-28.199915 -26.160583 -24.001291 -22.920397 -20.881065 -18.841734 -16.682444 -15.601547 -12.601699 -9.9625645"
         y="-7.0797606"
         sodipodi:role="line"
         id="tspan11918">12.288 MHz</tspan></text>
    <path
       d="M 144.36,428.64 144.48,427.56 144.72,426.6 145.2,425.76 145.8,425.04 146.52,424.44 147.24,424.08 148.08,423.96 H 168.96 L 170.04,423.72 171,423.12 171.96,422.4 172.68,421.56 173.4,420.48 173.88,419.4 174.36,420.48 175.08,421.56 175.8,422.4 176.64,423.12 177.72,423.72 178.68,423.96 H 199.56 L 200.4,424.08 201.24,424.44 201.84,425.04 202.44,425.76 202.92,426.6 203.28,427.56 203.4,428.64"
       style="fill:none;stroke:#000000;stroke-width:0.12;stroke-linecap:butt;stroke-linejoin:miter;stroke-miterlimit:10;stroke-dasharray:none;stroke-opacity:1"
       id="path11922" />
    <text
       xml:space="preserve"
       transform="matrix(1,0,0,-1,160.68,435.96)"
       style="font-variant:normal;font-weight:normal;font-size:4.6097px;font-family:Arial;-inkscape-font-specification:Arial;writing-mode:lr-tb;fill:#000000;fill-opacity:1;fill-rule:nonzero;stroke:none"
       id="text11926"><tspan
         x="0 2.1601055 2.9995317 5.2790284 6.4798551 7.8000731 10.07957 62.399666 63.48064 66.479713 48.000343 49.440414 51.719913 28.800484 30.826908 31.786186 34.070755 35.15173 36.591797 38.876366 41.160934"
         y="0"
         sodipodi:role="line"
         id="tspan11924">slot(2)ID1&quot;0&quot;slot(12)</tspan></text>
    <text
       xml:space="preserve"
       transform="matrix(1,0,0,-1,126.96,401.16)"
       style="font-variant:normal;font-weight:normal;font-size:5.5537px;font-family:Arial;-inkscape-font-specification:Arial;writing-mode:lr-tb;fill:#000000;fill-opacity:1;fill-rule:nonzero;stroke:none"
       id="text11930"><tspan
         x="0 1.6799942 3.4799485 6.236805 8.0367594 9.4779444 12.358093 13.678763 15.119948 16.199032 20.398741 23.157818 24.599003 26.998756 28.197802 30.954659 32.395844 33.716515 36.236782 38.993637 41.750496 43.191681 45.948536 47.027622 49.906658 52.306412 53.747597 56.14735 59.02639 60.105473 61.184559 63.943634 65.384819 68.758141 72.356934 76.436684 77.877869 80.634727 83.391579 84.832771 87.589622"
         y="0"
         sodipodi:role="line"
         id="tspan11928">(&quot;1&quot; = time slot contains valid PCM data)</tspan></text>
    <path
       d="M 256.08,442.2 H 261.72 L 263.64,432.84 H 269.64 M 258,432.84 H 253.92"
       style="fill:none;stroke:#000000;stroke-width:0.12;stroke-linecap:butt;stroke-linejoin:miter;stroke-miterlimit:10;stroke-dasharray:none;stroke-opacity:1"
       id="path11932" />
    <text
       xml:space="preserve"
       transform="matrix(1,0,0,-1,253.8,435.96)"
       style="font-variant:normal;font-weight:normal;font-size:4.6097px;font-family:Arial;-inkscape-font-specification:Arial;writing-mode:lr-tb;fill:#000000;fill-opacity:1;fill-rule:nonzero;stroke:none"
       id="text11936"><tspan
         x="0 2.2794967"
         y="0"
         sodipodi:role="line"
         id="tspan11934">19</tspan></text>
    <path
       d="M 319.44,451.56 H 321.36 V 458.52 M 381.36,432.96 383.16,442.2 H 387 M 383.28,432.96 H 387 M 392.64,446.88 387,428.28 M 390.84,446.88 385.2,428.28 M 387,442.2 H 389.64 M 391.56,442.08 H 396.48 L 397.8,432.72 M 388.92,432.96 H 396.24 M 396.12,464.76 390.48,446.04 M 394.2,464.76 388.56,446.04 M 394.56,481.08 388.92,462.36 M 392.64,481.08 387,462.36 M 364.56,469.44 H 389.04 M 444.84,441.96 H 450.48 M 443.16,432.72 H 450.6 M 315.72,491.04 H 427.32"
       style="fill:none;stroke:#000000;stroke-width:0.12;stroke-linecap:butt;stroke-linejoin:miter;stroke-miterlimit:10;stroke-dasharray:none;stroke-opacity:1"
       id="path11938" />
    <path
       d="M 427.08,492.12 428.76,491.04 427.08,489.96 V 492.12"
       style="fill:#000000;fill-opacity:1;fill-rule:evenodd;stroke:none"
       id="path11940" />
    <path
       d="M 278.4,491.04 H 115.44"
       style="fill:none;stroke:#000000;stroke-width:0.12;stroke-linecap:butt;stroke-linejoin:miter;stroke-miterlimit:10;stroke-dasharray:none;stroke-opacity:1"
       id="path11942" />
    <path
       d="M 115.56,489.96 113.88,491.04 115.56,492.12 V 489.96"
       style="fill:#000000;fill-opacity:1;fill-rule:evenodd;stroke:none"
       id="path11944" />
    <path
       d="M 185.4,478.68 H 115.56 L 112.92,469.56 H 108.36"
       style="fill:none;stroke:#000000;stroke-width:0.12;stroke-linecap:butt;stroke-linejoin:miter;stroke-miterlimit:10;stroke-dasharray:none;stroke-opacity:1"
       id="path11946" />
    <text
       xml:space="preserve"
       transform="matrix(1,0,0,-1,132.24,438.36)"
       style="font-variant:normal;font-weight:normal;font-size:3.721px;font-family:Arial;-inkscape-font-specification:Arial;writing-mode:lr-tb;fill:#000000;fill-opacity:1;fill-rule:nonzero;stroke:none"
       id="text11952"><tspan
         x="0 2.2802289 4.1995206 4.9187899 5.6380591"
         y="0"
         sodipodi:role="line"
         id="tspan11948">Valid</tspan><tspan
         x="-1.0798342 0.9607622 2.0405965 3.8400719 6.7201262"
         y="4.9199061"
         sodipodi:role="line"
         id="tspan11950">Frame</tspan></text>
    <path
       d="M 274.8,469.44 H 235.44 M 120.24,442.2 H 106.68 M 122.04,432.96 H 107.16 M 119.88,442.2 H 127.2 L 129,432.96 M 121.68,432.96 H 127.2 L 128.76,442.08 M 390.96,469.44 H 418.08 M 420,469.44 H 427.56 M 427.44,469.44 429.6,478.8 H 435.36"
       style="fill:none;stroke:#000000;stroke-width:0.12;stroke-linecap:butt;stroke-linejoin:miter;stroke-miterlimit:10;stroke-dasharray:none;stroke-opacity:1"
       id="path11954" />
    <g
       id="g11956">
      <g
         id="g11958"
         clip-path="url(#clipPath11962)">
        <path
           d="M 435.36,478.8 H 452.28"
           style="fill:none;stroke:#000000;stroke-width:0.12;stroke-linecap:butt;stroke-linejoin:miter;stroke-miterlimit:10;stroke-dasharray:none;stroke-opacity:1"
           id="path11964" />
      </g>
    </g>
    <text
       xml:space="preserve"
       transform="matrix(1,0,0,-1,104.64,416.52)"
       style="font-variant:normal;font-weight:normal;font-size:4.1653px;font-family:Arial;-inkscape-font-specification:Arial;writing-mode:lr-tb;fill:#000000;fill-opacity:1;fill-rule:nonzero;stroke:none"
       id="text11970"><tspan
         x="0 2.4000459 4.5593376 6.5982518 7.6791472 9.7180614 10.798957 11.879852 13.918766 15.23875 17.277664 19.083323 20.042591 22.081505 24.120419"
         y="0"
         sodipodi:role="line"
         id="tspan11966">End of previous</tspan><tspan
         x="2.2800853 4.680131 6.8394227 8.8829184 9.7222271 11.881518 12.962414 15.235002 16.435024 18.478519 21.71829"
         y="5.6398163"
         sodipodi:role="line"
         id="tspan11968">Audio Frame</tspan></text>
    <path
       d="M 116.04,421.2 V 428.76"
       style="fill:none;stroke:#000000;stroke-width:0.12;stroke-linecap:butt;stroke-linejoin:miter;stroke-miterlimit:10;stroke-dasharray:none;stroke-opacity:1"
       id="path11972" />
    <path
       d="M 115.2,428.4 116.16,430.56 117,428.4 H 115.2"
       style="fill:#000000;fill-opacity:1;fill-rule:evenodd;stroke:none"
       id="path11974" />
    <path
       d="M 207.36,478.68 H 233.16 M 233.52,478.68 235.44,469.56 M 233.52,484.08 V 505.08"
       style="fill:none;stroke:#000000;stroke-width:0.12;stroke-linecap:butt;stroke-linejoin:miter;stroke-miterlimit:10;stroke-dasharray:none;stroke-opacity:1"
       id="path11976" />
    <text
       xml:space="preserve"
       transform="matrix(1,0,0,-1,160.68,498.48)"
       style="font-variant:normal;font-weight:normal;font-size:5.5537px;font-family:Arial;-inkscape-font-specification:Arial;writing-mode:lr-tb;fill:#000000;fill-opacity:1;fill-rule:nonzero;stroke:none"
       id="text11980"><tspan
         x="0 3.1206241 5.8797021 8.6387806 10.079966 13.319994 16.199032 18.958111 21.477823"
         y="0"
         sodipodi:role="line"
         id="tspan11978">Tag Phase</tspan></text>
    <path
       d="M 158.76,500.4 H 115.44"
       style="fill:none;stroke:#000000;stroke-width:0.12;stroke-linecap:butt;stroke-linejoin:miter;stroke-miterlimit:10;stroke-dasharray:none;stroke-opacity:1"
       id="path11982" />
    <path
       d="M 115.56,499.32 113.88,500.4 115.56,501.48 V 499.32"
       style="fill:#000000;fill-opacity:1;fill-rule:evenodd;stroke:none"
       id="path11984" />
    <path
       d="M 186.84,500.4 H 232.08"
       style="fill:none;stroke:#000000;stroke-width:0.12;stroke-linecap:butt;stroke-linejoin:miter;stroke-miterlimit:10;stroke-dasharray:none;stroke-opacity:1"
       id="path11986" />
    <path
       d="M 231.84,501.48 233.52,500.4 231.84,499.32 V 501.48"
       style="fill:#000000;fill-opacity:1;fill-rule:evenodd;stroke:none"
       id="path11988" />
    <text
       xml:space="preserve"
       transform="matrix(1,0,0,-1,313.92,498.48)"
       style="font-variant:normal;font-weight:normal;font-size:5.5537px;font-family:Arial;-inkscape-font-specification:Arial;writing-mode:lr-tb;fill:#000000;fill-opacity:1;fill-rule:nonzero;stroke:none"
       id="text11992"><tspan
         x="0 3.4788377 6.3578758 7.679101 10.558139 11.878809 15.238797 17.997875 20.876913 23.276667"
         y="0"
         sodipodi:role="line"
         id="tspan11990">Data Phase</tspan></text>
    <path
       d="M 310.08,500.4 H 234.96"
       style="fill:none;stroke:#000000;stroke-width:0.12;stroke-linecap:butt;stroke-linejoin:miter;stroke-miterlimit:10;stroke-dasharray:none;stroke-opacity:1"
       id="path11994" />
    <path
       d="M 235.2,499.32 233.52,500.4 235.2,501.48 V 499.32"
       style="fill:#000000;fill-opacity:1;fill-rule:evenodd;stroke:none"
       id="path11996" />
    <path
       d="M 342.48,500.4 H 427.44"
       style="fill:none;stroke:#000000;stroke-width:0.12;stroke-linecap:butt;stroke-linejoin:miter;stroke-miterlimit:10;stroke-dasharray:none;stroke-opacity:1"
       id="path11998" />
    <path
       d="M 427.2,501.48 428.88,500.4 427.2,499.32 V 501.48"
       style="fill:#000000;fill-opacity:1;fill-rule:evenodd;stroke:none"
       id="path12000" />
    <path
       d="M 108.6,451.56 H 112.32 V 460.8 H 119.88 V 451.56 H 127.32 V 460.8 H 134.76 V 451.56 H 142.2 V 460.8 H 149.76 V 451.56 H 157.2 V 460.8 H 164.64 V 451.56 H 172.2 V 460.8 H 179.64 V 451.56 H 181.56 M 127.32,460.8 126.36,458.52 M 127.32,460.8 128.28,458.52 M 134.76,451.56 133.8,453.84 M 134.76,451.56 135.72,453.84 M 129.24,456.24 129.36,456 V 452.28 L 129.24,451.08 129,449.64 128.88,448.08 128.76,446.64 128.4,444.96"
       style="fill:none;stroke:#000000;stroke-width:0.12;stroke-linecap:butt;stroke-linejoin:miter;stroke-miterlimit:10;stroke-dasharray:none;stroke-opacity:1"
       id="path12002" />
    <path
       d="M 128.28,443.4 127.68,445.68 127.8,445.56 H 127.92 V 445.44 H 128.04 L 128.16,445.32 H 128.4 V 445.2 H 129.24 L 129.36,445.32 128.28,443.4"
       style="fill:#000000;fill-opacity:1;fill-rule:evenodd;stroke:none"
       id="path12004" />
    <path
       d="M 138.48,443.4 138.6,443.52 138.72,443.88 V 444.48 L 138.6,445.2 138.48,446.16 138.36,447.36 138.12,448.56 137.88,449.88 137.64,451.44 137.28,453 136.92,454.68"
       style="fill:none;stroke:#000000;stroke-width:0.12;stroke-linecap:butt;stroke-linejoin:miter;stroke-miterlimit:10;stroke-dasharray:none;stroke-opacity:1"
       id="path12006" />
    <path
       d="M 136.68,456.24 136.32,453.84 136.44,453.96 V 454.08 H 136.56 L 136.8,454.32 H 136.92 L 137.04,454.44 H 137.88 L 136.68,456.24"
       style="fill:#000000;fill-opacity:1;fill-rule:evenodd;stroke:none"
       id="path12008" />
    <path
       d="M 120.84,453.84 119.88,451.56 118.92,453.84 M 112.32,460.8 111.36,458.52 M 112.32,460.8 113.28,458.52 M 143.16,458.52 142.2,460.8 141.36,458.52 M 150.72,453.84 149.76,451.56 148.8,453.84 M 157.2,460.8 156.24,458.52 M 157.2,460.8 158.16,458.52 M 165.6,453.84 164.64,451.56 163.68,453.84 M 172.2,460.8 171.24,458.52 M 172.2,460.8 173.04,458.52 M 179.64,451.56 178.68,453.84 M 179.64,451.56 180.6,453.84 M 183.36,451.56 H 187.08 V 460.8 H 194.52 V 451.56 H 202.08 V 460.8 H 209.52 V 451.56 H 216.96 M 216.96,451.56 V 460.8 H 224.52 V 451.56 H 231.96 V 460.8 H 239.4 V 451.56 H 246.84 V 460.8 H 254.4 V 451.56 H 261.84 V 460.8 H 269.28 V 451.56 H 274.92 M 187.08,460.8 186.12,458.52 M 187.08,460.8 188.04,458.52 M 194.52,451.56 193.68,453.84 M 194.52,451.56 195.48,453.84 M 202.08,460.8 201.12,458.52 M 202.08,460.8 203.04,458.52 M 209.52,451.56 208.56,453.84 M 209.52,451.56 210.48,453.84 M 216.96,460.8 216,458.52 M 216.96,460.8 217.92,458.52 M 224.52,451.56 223.56,453.84 M 224.52,451.56 225.36,453.84 M 231.96,460.8 231,458.52 M 231.96,460.8 232.92,458.52 M 239.4,451.56 238.56,453.84 M 239.4,451.56 240.36,453.84 M 246.84,460.8 246,458.52 M 246.84,460.8 247.8,458.52 M 254.4,451.56 253.44,453.84 M 254.4,451.56 255.36,453.84 M 261.84,460.8 261,458.52 M 261.84,460.8 262.8,458.52 M 269.28,451.56 268.44,453.84 M 269.28,451.56 270.24,453.84 M 278.64,460.8 H 284.28 V 451.56 H 291.72 V 460.8 H 299.16 V 451.56 H 306.72 V 460.8 H 314.16 V 451.56 H 317.88 M 284.28,451.56 283.32,453.84 M 284.28,451.56 285.24,453.84 M 291.72,460.8 290.88,458.52 M 291.72,460.8 292.68,458.52 M 299.16,451.56 298.32,453.84 M 299.16,451.56 300.12,453.84 M 306.72,460.8 305.76,458.52"
       style="fill:none;stroke:#000000;stroke-width:0.12;stroke-linecap:butt;stroke-linejoin:miter;stroke-miterlimit:10;stroke-dasharray:none;stroke-opacity:1"
       id="path12010" />
    <path
       d="M 306.72,460.8 307.68,458.52 M 314.16,451.56 313.32,453.84 M 314.16,451.56 315.12,453.84 M 322.56,460.8 H 329.16 V 451.56 H 336.6 V 460.8 H 344.04 V 451.56 H 351.48 V 460.8 H 359.04 V 451.56 H 364.68 M 329.16,451.56 328.2,453.84 M 329.16,451.56 330,453.84 M 336.6,460.8 335.64,458.52 M 336.6,460.8 337.56,458.52 M 344.04,451.56 343.2,453.84 M 344.04,451.56 345,453.84 M 351.48,460.8 350.64,458.52 M 351.48,460.8 352.44,458.52 M 359.04,451.56 358.08,453.84 M 359.04,451.56 360,453.84 M 368.4,460.8 H 374.04 V 451.56 H 381.48 V 460.8 H 388.92 V 451.56 H 390.84 M 374.04,451.56 373.08,453.84 M 374.04,451.56 374.88,453.84 M 381.48,460.8 380.52,458.52 M 381.48,460.8 382.32,458.52 M 392.64,451.56 H 396.48 V 460.8 H 403.92 V 451.56 H 411.36 V 460.8 H 418.8 V 451.56 M 396.48,460.8 395.52,458.52 M 396.48,460.8 397.32,458.52 M 403.92,451.56 402.96,453.84 M 403.92,451.56 404.76,453.84 M 411.36,460.8 410.4,458.52 M 411.36,460.8 412.32,458.52 M 426.36,451.56 V 460.8 H 433.8 V 451.56 H 441.24 V 460.8 H 448.8 M 426.36,451.56 H 421.68 M 426.36,460.8 425.4,458.52 M 426.36,460.8 427.2,458.52 M 433.8,451.56 432.84,453.84 M 433.8,451.56 434.64,453.84 M 441.24,460.8 440.28,458.52 M 441.24,460.8 442.2,458.52"
       style="fill:none;stroke:#000000;stroke-width:0.12;stroke-linecap:butt;stroke-linejoin:miter;stroke-miterlimit:10;stroke-dasharray:none;stroke-opacity:1"
       id="path12012" />
    <text
       xml:space="preserve"
       transform="matrix(1,0,0,-1,237.48,435.84)"
       style="font-variant:normal;font-weight:normal;font-size:4.6097px;font-family:Arial;-inkscape-font-specification:Arial;writing-mode:lr-tb;fill:#000000;fill-opacity:1;fill-rule:nonzero;stroke:none"
       id="text12016"><tspan
         x="0 1.2008269 4.0800457"
         y="0"
         sodipodi:role="line"
         id="tspan12014">ID0</tspan></text>
    <path
       d="M 220.08,428.04 220.2,427.08 220.56,426 221.04,425.16 221.52,424.44 222.24,423.84 223.08,423.6 223.92,423.48 H 228.36 L 229.44,423.12 230.4,422.52 231.24,421.8 232.08,420.96 233.28,418.8 233.76,419.88 234.36,420.96 235.2,421.8 236.04,422.52 237.12,423.12 238.08,423.48 H 242.52 L 243.36,423.6 244.2,423.84 244.92,424.44 245.52,425.16 246,426 246.24,427.08 V 428.04"
       style="fill:none;stroke:#000000;stroke-width:0.12;stroke-linecap:butt;stroke-linejoin:miter;stroke-miterlimit:10;stroke-dasharray:none;stroke-opacity:1"
       id="path12018" />
    <text
       xml:space="preserve"
       transform="matrix(1,0,0,-1,222.84,411.48)"
       style="font-variant:normal;font-weight:normal;font-size:5.5537px;font-family:Arial;-inkscape-font-specification:Arial;writing-mode:lr-tb;fill:#000000;fill-opacity:1;fill-rule:nonzero;stroke:none"
       id="text12022"><tspan
         x="0 3.5987976 6.3578758 9.1169538 11.995992 14.395746 15.836931 17.278116"
         y="0"
         sodipodi:role="line"
         id="tspan12020">Codec ID</tspan></text>
  </g>
</svg>
