<?xml version="1.0" encoding="UTF-8" standalone="no"?>
<!-- Created with Inkscape (http://www.inkscape.org/) -->
<svg
   xmlns:svg="http://www.w3.org/2000/svg"
   xmlns="http://www.w3.org/2000/svg"
   xmlns:xlink="http://www.w3.org/1999/xlink"
   version="1.0"
   width="576pt"
   height="432pt"
   viewBox="0 0 576 432"
   id="svg1">
  <defs
     id="defs6729" />
  <path
     d="M 0,432 L 576,432 L 576,0 L 0,0 L 0,432"
     id="path6282"
     style="opacity:0;fill:#ffffff;stroke:#ffffff;stroke-width:1;stroke-linecap:square;stroke-linejoin:miter" />
  <g
     id="axes1">
    <path
       d="M 72,388.8 L 518.4,388.8 L 518.4,43.2 L 72,43.2 L 72,388.8"
       id="path6285"
       style="opacity:0;fill:#ffffff" />
    <g
       id="line2d1">
      <defs
         id="defs6288">
        <clipPath
           id="pdfe8138a4e5f5c14e3df41988c01b1aa">
          <rect
             width="446.4"
             height="345.6"
             x="72"
             y="43.2"
             id="rect6291" />
        </clipPath>
      </defs>
      <path
         d="M 92.2909,357.382 L 94.32,357.382 L 94.32,106.036 L 98.3782,106.036 L 98.3782,106.036 L 102.436,106.036 L 102.436,357.382 L 106.495,357.382 L 106.495,106.036 L 110.553,106.036 L 110.553,357.382 L 114.611,357.382 L 114.611,106.036 L 118.669,106.036 L 118.669,106.036 L 122.727,106.036 L 122.727,106.036 L 126.785,106.036 L 126.785,357.382 L 130.844,357.382 L 130.844,106.036 L 134.902,106.036 L 134.902,106.036 L 138.96,106.036 L 138.96,106.036 L 143.018,106.036 L 143.018,106.036 L 147.076,106.036 L 147.076,106.036 L 151.135,106.036 L 151.135,357.382 L 155.193,357.382 L 155.193,106.036 L 159.251,106.036 L 159.251,106.036 L 163.309,106.036 L 163.309,106.036 L 167.367,106.036 L 167.367,106.036 L 171.425,106.036 L 171.425,106.036 L 175.484,106.036 L 175.484,106.036 L 179.542,106.036 L 179.542,106.036 L 183.6,106.036 L 183.6,106.036 L 187.658,106.036 L 187.658,106.036 L 191.716,106.036 L 191.716,106.036 L 195.775,106.036 L 195.775,106.036 L 199.833,106.036 L 199.833,106.036 L 203.891,106.036 L 203.891,106.036 L 207.949,106.036 L 207.949,106.036 L 212.007,106.036 L 212.007,106.036 L 216.065,106.036 L 216.065,106.036 L 220.124,106.036 L 220.124,106.036 L 224.182,106.036 L 224.182,106.036 L 228.24,106.036 L 228.24,106.036 L 232.298,106.036 L 232.298,106.036 L 236.356,106.036 L 236.356,106.036 L 240.415,106.036 L 240.415,106.036 L 244.473,106.036 L 244.473,357.382 L 248.531,357.382 L 248.531,106.036 L 252.589,106.036 L 252.589,106.036 L 256.647,106.036 L 256.647,106.036 L 260.705,106.036 L 260.705,106.036 L 264.764,106.036 L 264.764,357.382 L 268.822,357.382 L 268.822,106.036 L 272.88,106.036 L 272.88,106.036 L 276.938,106.036 L 276.938,357.382 L 280.996,357.382 L 280.996,106.036 L 285.055,106.036 L 285.055,357.382 L 289.113,357.382 L 289.113,106.036 L 293.171,106.036 L 293.171,357.382 L 297.229,357.382 L 297.229,106.036 L 301.287,106.036 L 301.287,357.382 L 305.345,357.382 L 305.345,106.036 L 309.404,106.036 L 309.404,357.382 L 313.462,357.382 L 313.462,357.382 L 317.52,357.382 L 317.52,106.036 L 321.578,106.036 L 321.578,357.382 L 325.636,357.382 L 325.636,357.382 L 329.695,357.382 L 329.695,106.036 L 333.753,106.036 L 333.753,357.382 L 337.811,357.382 L 337.811,357.382 L 341.869,357.382 L 341.869,357.382 L 345.927,357.382 L 345.927,357.382 L 349.985,357.382 L 349.985,357.382 L 354.044,357.382 L 354.044,357.382 L 358.102,357.382 L 358.102,106.036 L 362.16,106.036 L 362.16,357.382 L 366.218,357.382 L 366.218,357.382 L 370.276,357.382 L 370.276,357.382 L 374.335,357.382 L 374.335,357.382 L 378.393,357.382 L 378.393,357.382 L 382.451,357.382 L 382.451,357.382 L 386.509,357.382 L 386.509,357.382 L 390.567,357.382 L 390.567,357.382 L 394.625,357.382 L 394.625,357.382 L 398.684,357.382 L 398.684,357.382 L 402.742,357.382 L 402.742,357.382 L 406.8,357.382 L 406.8,357.382 L 410.858,357.382 L 410.858,357.382 L 414.916,357.382 L 414.916,357.382 L 418.975,357.382 L 418.975,357.382 L 423.033,357.382 L 423.033,357.382 L 427.091,357.382 L 427.091,357.382 L 431.149,357.382 L 431.149,357.382 L 435.207,357.382 L 435.207,357.382 L 439.265,357.382 L 439.265,357.382 L 443.324,357.382 L 443.324,357.382 L 447.382,357.382 L 447.382,357.382 L 451.44,357.382 L 451.44,106.036 L 455.498,106.036 L 455.498,357.382 L 459.556,357.382 L 459.556,357.382 L 463.615,357.382 L 463.615,357.382 L 467.673,357.382 L 467.673,106.036 L 471.731,106.036 L 471.731,357.382 L 475.789,357.382 L 475.789,357.382 L 479.847,357.382 L 479.847,106.036 L 483.905,106.036 L 483.905,357.382 L 487.964,357.382 L 487.964,106.036 L 492.022,106.036 L 492.022,357.382 L 494.051,357.382"
         clip-path="url(#pdfe8138a4e5f5c14e3df41988c01b1aa)"
         id="path6293"
         style="opacity:1;fill:none;stroke:#0000ff;stroke-width:1;stroke-linecap:square;stroke-linejoin:miter" />
    </g>
    <g
       id="line2d2">
      <path
         d="M 92.2909,231.709 L 96.3491,223.818 L 100.407,215.958 L 104.465,208.16 L 108.524,200.456 L 112.582,192.874 L 116.64,185.446 L 120.698,178.2 L 124.756,171.166 L 128.815,164.37 L 132.873,157.841 L 136.931,151.602 L 140.989,145.68 L 145.047,140.098 L 149.105,134.877 L 153.164,130.038 L 157.222,125.6 L 161.28,121.581 L 165.338,117.997 L 169.396,114.862 L 173.455,112.187 L 177.513,109.985 L 181.571,108.262 L 185.629,107.027 L 189.687,106.284 L 193.745,106.036 L 197.804,106.284 L 201.862,107.027 L 205.92,108.262 L 209.978,109.985 L 214.036,112.187 L 218.095,114.862 L 222.153,117.997 L 226.211,121.581 L 230.269,125.6 L 234.327,130.038 L 238.385,134.877 L 242.444,140.098 L 246.502,145.68 L 250.56,151.602 L 254.618,157.841 L 258.676,164.37 L 262.735,171.166 L 266.793,178.2 L 270.851,185.446 L 274.909,192.874 L 278.967,200.456 L 283.025,208.16 L 287.084,215.958 L 291.142,223.818 L 295.2,231.709 L 299.258,239.6 L 303.316,247.46 L 307.375,255.258 L 311.433,262.963 L 315.491,270.544 L 319.549,277.972 L 323.607,285.218 L 327.665,292.252 L 331.724,299.048 L 335.782,305.578 L 339.84,311.816 L 343.898,317.738 L 347.956,323.321 L 352.015,328.542 L 356.073,333.38 L 360.131,337.818 L 364.189,341.837 L 368.247,345.421 L 372.305,348.557 L 376.364,351.231 L 380.422,353.434 L 384.48,355.156 L 388.538,356.391 L 392.596,357.134 L 396.655,357.382 L 400.713,357.134 L 404.771,356.391 L 408.829,355.156 L 412.887,353.434 L 416.945,351.231 L 421.004,348.557 L 425.062,345.421 L 429.12,341.837 L 433.178,337.818 L 437.236,333.38 L 441.295,328.542 L 445.353,323.321 L 449.411,317.738 L 453.469,311.816 L 457.527,305.578 L 461.585,299.048 L 465.644,292.252 L 469.702,285.218 L 473.76,277.972 L 477.818,270.544 L 481.876,262.963 L 485.935,255.258 L 489.993,247.46 L 494.051,239.6"
         clip-path="url(#pdfe8138a4e5f5c14e3df41988c01b1aa)"
         id="path6296"
         style="opacity:1;fill:none;stroke:#008000;stroke-width:5;stroke-linecap:square;stroke-linejoin:miter" />
    </g>
    <g
       id="matplotlib.axis1">
      <g
         id="xtick1">
        <g
           id="line2d3">
          <defs
             id="defs6301">
            <path
               d="M 0,0 L 0,-4"
               id="mffffbd93ab9c4a8848ec339ada90541e" />
          </defs>
          <g
             id="g6304">
            <use
               id="use6306"
               style="opacity:1;fill:none;stroke:#000000;stroke-width:0.5;stroke-linecap:butt;stroke-linejoin:miter"
               x="92.2909"
               y="388.8"
               width="576"
               height="432"
               xlink:href="#mffffbd93ab9c4a8848ec339ada90541e" />
          </g>
        </g>
        <g
           id="line2d4">
          <defs
             id="defs6309">
            <path
               d="M 0,0 L 0,4"
               id="m55446021c8a568fc6cf5567925c8a1ef" />
          </defs>
          <g
             id="g6312">
            <use
               id="use6314"
               style="opacity:1;fill:none;stroke:#000000;stroke-width:0.5;stroke-linecap:butt;stroke-linejoin:miter"
               x="92.2909"
               y="43.2"
               width="576"
               height="432"
               xlink:href="#m55446021c8a568fc6cf5567925c8a1ef" />
          </g>
        </g>
        <defs
           id="defs6316">
          <path
             d="M 31.7812,-66.4062 C 26.7083,-66.4062 22.8906,-63.9062 20.3281,-58.9062 C 17.776,-53.9167 16.5,-46.4062 16.5,-36.375 C 16.5,-26.3854 17.776,-18.8906 20.3281,-13.8906 C 22.8906,-8.89062 26.7083,-6.39062 31.7812,-6.39062 C 36.8958,-6.39062 40.7292,-8.89062 43.2812,-13.8906 C 45.8438,-18.8906 47.125,-26.3854 47.125,-36.375 C 47.125,-46.4062 45.8438,-53.9167 43.2812,-58.9062 C 40.7292,-63.9062 36.8958,-66.4062 31.7812,-66.4062 M 31.7812,-74.2188 C 39.9583,-74.2188 46.2031,-70.9844 50.5156,-64.5156 C 54.8281,-58.0573 56.9844,-48.6771 56.9844,-36.375 C 56.9844,-24.1042 54.8281,-14.7344 50.5156,-8.26562 C 46.2031,-1.80729 39.9583,1.42188 31.7812,1.42188 C 23.6146,1.42188 17.375,-1.80729 13.0625,-8.26562 C 8.75,-14.7344 6.59375,-24.1042 6.59375,-36.375 C 6.59375,-48.6771 8.75,-58.0573 13.0625,-64.5156 C 17.375,-70.9844 23.6146,-74.2188 31.7812,-74.2188"
             id="c_95f14088edd5858aea2c3b4aa58e4de2" />
        </defs>
        <g
           transform="matrix(0.16,0,0,0.16,88.2597,404.675)"
           id="g6319"
           style="opacity:1;fill:#000000">
          <use
             id="use6321"
             x="0"
             y="0"
             width="576"
             height="432"
             xlink:href="#c_95f14088edd5858aea2c3b4aa58e4de2" />
        </g>
      </g>
      <g
         id="xtick2">
        <g
           id="line2d5">
          <g
             id="g6325">
            <use
               id="use6327"
               style="opacity:1;fill:none;stroke:#000000;stroke-width:0.5;stroke-linecap:butt;stroke-linejoin:miter"
               x="173.455"
               y="388.8"
               width="576"
               height="432"
               xlink:href="#mffffbd93ab9c4a8848ec339ada90541e" />
          </g>
        </g>
        <g
           id="line2d6">
          <g
             id="g6330">
            <use
               id="use6332"
               style="opacity:1;fill:none;stroke:#000000;stroke-width:0.5;stroke-linecap:butt;stroke-linejoin:miter"
               x="173.455"
               y="43.2"
               width="576"
               height="432"
               xlink:href="#m55446021c8a568fc6cf5567925c8a1ef" />
          </g>
        </g>
        <defs
           id="defs6334">
          <path
             d="M 19.1875,-8.29688 L 53.6094,-8.29688 L 53.6094,0 L 7.32812,0 L 7.32812,-8.29688 C 11.0677,-12.1719 16.1667,-17.3698 22.625,-23.8906 C 29.0938,-30.4219 33.1562,-34.6354 34.8125,-36.5312 C 37.9688,-40.0729 40.1719,-43.0729 41.4219,-45.5312 C 42.6823,-47.9896 43.3125,-50.4062 43.3125,-52.7812 C 43.3125,-56.6562 41.9531,-59.8125 39.2344,-62.25 C 36.5156,-64.6979 32.974,-65.9219 28.6094,-65.9219 C 25.5156,-65.9219 22.25,-65.3854 18.8125,-64.3125 C 15.3854,-63.2396 11.7188,-61.6094 7.8125,-59.4219 L 7.8125,-69.3906 C 11.7812,-70.9844 15.4896,-72.1875 18.9375,-73 C 22.3958,-73.8125 25.5573,-74.2188 28.4219,-74.2188 C 35.974,-74.2188 41.9948,-72.3281 46.4844,-68.5469 C 50.974,-64.776 53.2188,-59.7344 53.2188,-53.4219 C 53.2188,-50.4219 52.6562,-47.5781 51.5312,-44.8906 C 50.4167,-42.2135 48.375,-39.0521 45.4062,-35.4062 C 44.5938,-34.4583 42.0052,-31.7292 37.6406,-27.2188 C 33.2865,-22.7083 27.1354,-16.401 19.1875,-8.29688"
             id="c_eaed548a39c8bfc1ad9c7a767102867e" />
        </defs>
        <g
           transform="matrix(0.16,0,0,0.16,164.384,404.675)"
           id="g6337"
           style="opacity:1;fill:#000000">
          <use
             id="use6339"
             x="0"
             y="0"
             width="576"
             height="432"
             xlink:href="#c_eaed548a39c8bfc1ad9c7a767102867e" />
          <use
             id="use6341"
             x="63.623"
             y="0"
             width="576"
             height="432"
             xlink:href="#c_95f14088edd5858aea2c3b4aa58e4de2" />
        </g>
      </g>
      <g
         id="xtick3">
        <g
           id="line2d7">
          <g
             id="g6345">
            <use
               id="use6347"
               style="opacity:1;fill:none;stroke:#000000;stroke-width:0.5;stroke-linecap:butt;stroke-linejoin:miter"
               x="254.618"
               y="388.8"
               width="576"
               height="432"
               xlink:href="#mffffbd93ab9c4a8848ec339ada90541e" />
          </g>
        </g>
        <g
           id="line2d8">
          <g
             id="g6350">
            <use
               id="use6352"
               style="opacity:1;fill:none;stroke:#000000;stroke-width:0.5;stroke-linecap:butt;stroke-linejoin:miter"
               x="254.618"
               y="43.2"
               width="576"
               height="432"
               xlink:href="#m55446021c8a568fc6cf5567925c8a1ef" />
          </g>
        </g>
        <defs
           id="defs6354">
          <path
             d="M 37.7969,-64.3125 L 12.8906,-25.3906 L 37.7969,-25.3906 L 37.7969,-64.3125 z M 35.2031,-72.9062 L 47.6094,-72.9062 L 47.6094,-25.3906 L 58.0156,-25.3906 L 58.0156,-17.1875 L 47.6094,-17.1875 L 47.6094,0 L 37.7969,0 L 37.7969,-17.1875 L 4.89062,-17.1875 L 4.89062,-26.7031 L 35.2031,-72.9062 z"
             id="c_47a349c5fab6f63bcee0b405ba445c6f" />
        </defs>
        <g
           transform="matrix(0.16,0,0,0.16,245.353,404.675)"
           id="g6357"
           style="opacity:1;fill:#000000">
          <use
             id="use6359"
             x="0"
             y="0"
             width="576"
             height="432"
             xlink:href="#c_47a349c5fab6f63bcee0b405ba445c6f" />
          <use
             id="use6361"
             x="63.623"
             y="0"
             width="576"
             height="432"
             xlink:href="#c_95f14088edd5858aea2c3b4aa58e4de2" />
        </g>
      </g>
      <g
         id="xtick4">
        <g
           id="line2d9">
          <g
             id="g6365">
            <use
               id="use6367"
               style="opacity:1;fill:none;stroke:#000000;stroke-width:0.5;stroke-linecap:butt;stroke-linejoin:miter"
               x="335.782"
               y="388.8"
               width="576"
               height="432"
               xlink:href="#mffffbd93ab9c4a8848ec339ada90541e" />
          </g>
        </g>
        <g
           id="line2d10">
          <g
             id="g6370">
            <use
               id="use6372"
               style="opacity:1;fill:none;stroke:#000000;stroke-width:0.5;stroke-linecap:butt;stroke-linejoin:miter"
               x="335.782"
               y="43.2"
               width="576"
               height="432"
               xlink:href="#m55446021c8a568fc6cf5567925c8a1ef" />
          </g>
        </g>
        <defs
           id="defs6374">
          <path
             d="M 33.0156,-40.375 C 28.5885,-40.375 25.0781,-38.8594 22.4844,-35.8281 C 19.901,-32.8073 18.6094,-28.6615 18.6094,-23.3906 C 18.6094,-18.151 19.901,-14.0052 22.4844,-10.9531 C 25.0781,-7.91146 28.5885,-6.39062 33.0156,-6.39062 C 37.4427,-6.39062 40.9479,-7.91146 43.5312,-10.9531 C 46.1146,-14.0052 47.4062,-18.151 47.4062,-23.3906 C 47.4062,-28.6615 46.1146,-32.8073 43.5312,-35.8281 C 40.9479,-38.8594 37.4427,-40.375 33.0156,-40.375 M 52.5938,-71.2969 L 52.5938,-62.3125 C 50.1146,-63.4792 47.6146,-64.3698 45.0938,-64.9844 C 42.5729,-65.6094 40.0729,-65.9219 37.5938,-65.9219 C 31.0833,-65.9219 26.1094,-63.724 22.6719,-59.3281 C 19.2448,-54.9323 17.2865,-48.2917 16.7969,-39.4062 C 18.7135,-42.2396 21.1198,-44.4115 24.0156,-45.9219 C 26.9219,-47.4323 30.1146,-48.1875 33.5938,-48.1875 C 40.9167,-48.1875 46.7031,-45.9635 50.9531,-41.5156 C 55.2031,-37.0781 57.3281,-31.0365 57.3281,-23.3906 C 57.3281,-15.901 55.1146,-9.89062 50.6875,-5.35938 C 46.2604,-0.838542 40.3698,1.42188 33.0156,1.42188 C 24.5781,1.42188 18.1302,-1.80729 13.6719,-8.26562 C 9.21354,-14.7344 6.98438,-24.1042 6.98438,-36.375 C 6.98438,-47.8958 9.71875,-57.0833 15.1875,-63.9375 C 20.6562,-70.7917 27.9948,-74.2188 37.2031,-74.2188 C 39.6823,-74.2188 42.1823,-73.974 44.7031,-73.4844 C 47.224,-72.9948 49.8542,-72.2656 52.5938,-71.2969"
             id="c_b3a8b59ce25d33f84315ee39f6514694" />
        </defs>
        <g
           transform="matrix(0.16,0,0,0.16,326.688,404.675)"
           id="g6377"
           style="opacity:1;fill:#000000">
          <use
             id="use6379"
             x="0"
             y="0"
             width="576"
             height="432"
             xlink:href="#c_b3a8b59ce25d33f84315ee39f6514694" />
          <use
             id="use6381"
             x="63.623"
             y="0"
             width="576"
             height="432"
             xlink:href="#c_95f14088edd5858aea2c3b4aa58e4de2" />
        </g>
      </g>
      <g
         id="xtick5">
        <g
           id="line2d11">
          <g
             id="g6385">
            <use
               id="use6387"
               style="opacity:1;fill:none;stroke:#000000;stroke-width:0.5;stroke-linecap:butt;stroke-linejoin:miter"
               x="416.945"
               y="388.8"
               width="576"
               height="432"
               xlink:href="#mffffbd93ab9c4a8848ec339ada90541e" />
          </g>
        </g>
        <g
           id="line2d12">
          <g
             id="g6390">
            <use
               id="use6392"
               style="opacity:1;fill:none;stroke:#000000;stroke-width:0.5;stroke-linecap:butt;stroke-linejoin:miter"
               x="416.945"
               y="43.2"
               width="576"
               height="432"
               xlink:href="#m55446021c8a568fc6cf5567925c8a1ef" />
          </g>
        </g>
        <defs
           id="defs6394">
          <path
             d="M 31.7812,-34.625 C 27.0938,-34.625 23.4062,-33.3698 20.7188,-30.8594 C 18.0417,-28.349 16.7031,-24.901 16.7031,-20.5156 C 16.7031,-16.1198 18.0417,-12.6667 20.7188,-10.1562 C 23.4062,-7.64583 27.0938,-6.39062 31.7812,-6.39062 C 36.4688,-6.39062 40.1615,-7.65104 42.8594,-10.1719 C 45.5677,-12.7031 46.9219,-16.151 46.9219,-20.5156 C 46.9219,-24.901 45.5781,-28.349 42.8906,-30.8594 C 40.2135,-33.3698 36.5104,-34.625 31.7812,-34.625 M 21.9219,-38.8125 C 17.6927,-39.8542 14.3958,-41.8229 12.0312,-44.7188 C 9.67708,-47.625 8.5,-51.1615 8.5,-55.3281 C 8.5,-61.151 10.5729,-65.7552 14.7188,-69.1406 C 18.875,-72.526 24.5625,-74.2188 31.7812,-74.2188 C 39.0417,-74.2188 44.7396,-72.526 48.875,-69.1406 C 53.0104,-65.7552 55.0781,-61.151 55.0781,-55.3281 C 55.0781,-51.1615 53.8958,-47.625 51.5312,-44.7188 C 49.1771,-41.8229 45.901,-39.8542 41.7031,-38.8125 C 46.4531,-37.7083 50.151,-35.5417 52.7969,-32.3125 C 55.4531,-29.0938 56.7812,-25.1615 56.7812,-20.5156 C 56.7812,-13.4427 54.625,-8.01562 50.3125,-4.23438 C 46,-0.463542 39.8229,1.42188 31.7812,1.42188 C 23.75,1.42188 17.5729,-0.463542 13.25,-4.23438 C 8.9375,-8.01562 6.78125,-13.4427 6.78125,-20.5156 C 6.78125,-25.1615 8.11458,-29.0938 10.7812,-32.3125 C 13.4583,-35.5417 17.1719,-37.7083 21.9219,-38.8125 M 18.3125,-54.3906 C 18.3125,-50.6198 19.4896,-47.6771 21.8438,-45.5625 C 24.2083,-43.4479 27.5208,-42.3906 31.7812,-42.3906 C 36.0208,-42.3906 39.3333,-43.4479 41.7188,-45.5625 C 44.1146,-47.6771 45.3125,-50.6198 45.3125,-54.3906 C 45.3125,-58.1719 44.1146,-61.1198 41.7188,-63.2344 C 39.3333,-65.349 36.0208,-66.4062 31.7812,-66.4062 C 27.5208,-66.4062 24.2083,-65.349 21.8438,-63.2344 C 19.4896,-61.1198 18.3125,-58.1719 18.3125,-54.3906"
             id="c_0f8aa7a3642d7cc7afc284b770f4c32d" />
        </defs>
        <g
           transform="matrix(0.16,0,0,0.16,407.836,404.675)"
           id="g6397"
           style="opacity:1;fill:#000000">
          <use
             id="use6399"
             x="0"
             y="0"
             width="576"
             height="432"
             xlink:href="#c_0f8aa7a3642d7cc7afc284b770f4c32d" />
          <use
             id="use6401"
             x="63.623"
             y="0"
             width="576"
             height="432"
             xlink:href="#c_95f14088edd5858aea2c3b4aa58e4de2" />
        </g>
      </g>
      <g
         id="xtick6">
        <g
           id="line2d13">
          <g
             id="g6405">
            <use
               id="use6407"
               style="opacity:1;fill:none;stroke:#000000;stroke-width:0.5;stroke-linecap:butt;stroke-linejoin:miter"
               x="498.109"
               y="388.8"
               width="576"
               height="432"
               xlink:href="#mffffbd93ab9c4a8848ec339ada90541e" />
          </g>
        </g>
        <g
           id="line2d14">
          <g
             id="g6410">
            <use
               id="use6412"
               style="opacity:1;fill:none;stroke:#000000;stroke-width:0.5;stroke-linecap:butt;stroke-linejoin:miter"
               x="498.109"
               y="43.2"
               width="576"
               height="432"
               xlink:href="#m55446021c8a568fc6cf5567925c8a1ef" />
          </g>
        </g>
        <defs
           id="defs6414">
          <path
             d="M 12.4062,-8.29688 L 28.5156,-8.29688 L 28.5156,-63.9219 L 10.9844,-60.4062 L 10.9844,-69.3906 L 28.4219,-72.9062 L 38.2812,-72.9062 L 38.2812,-8.29688 L 54.3906,-8.29688 L 54.3906,0 L 12.4062,0 L 12.4062,-8.29688 z"
             id="c_2322e4f977aa11305e2465866d88750f" />
        </defs>
        <g
           transform="matrix(0.16,0,0,0.16,484.242,404.675)"
           id="g6417"
           style="opacity:1;fill:#000000">
          <use
             id="use6419"
             x="0"
             y="0"
             width="576"
             height="432"
             xlink:href="#c_2322e4f977aa11305e2465866d88750f" />
          <use
             id="use6421"
             x="63.623"
             y="0"
             width="576"
             height="432"
             xlink:href="#c_95f14088edd5858aea2c3b4aa58e4de2" />
          <use
             id="use6423"
             x="127.246"
             y="0"
             width="576"
             height="432"
             xlink:href="#c_95f14088edd5858aea2c3b4aa58e4de2" />
        </g>
      </g>
      <defs
         id="defs6425">
        <path
           d="M 19.6719,-64.7969 L 19.6719,-8.10938 L 31.5938,-8.10938 C 41.6562,-8.10938 49.0208,-10.3854 53.6875,-14.9375 C 58.3542,-19.5 60.6875,-26.6979 60.6875,-36.5312 C 60.6875,-46.2917 58.3542,-53.4427 53.6875,-57.9844 C 49.0208,-62.526 41.6562,-64.7969 31.5938,-64.7969 L 19.6719,-64.7969 z M 9.8125,-72.9062 L 30.0781,-72.9062 C 44.2031,-72.9062 54.5677,-69.9688 61.1719,-64.0938 C 67.7865,-58.2188 71.0938,-49.0312 71.0938,-36.5312 C 71.0938,-23.9583 67.7708,-14.724 61.125,-8.82812 C 54.4896,-2.94271 44.1406,0 30.0781,0 L 9.8125,0 L 9.8125,-72.9062 z"
           id="c_253991bd8207791f1c7c50d72e47b21e" />
        <path
           d="M 9.42188,-54.6875 L 18.4062,-54.6875 L 18.4062,0 L 9.42188,0 L 9.42188,-54.6875 z M 9.42188,-75.9844 L 18.4062,-75.9844 L 18.4062,-64.5938 L 9.42188,-64.5938 L 9.42188,-75.9844 z"
           id="c_8d6ee5dadaaa9460f50eedd5d62d2be4" />
        <path
           d="M 44.2812,-53.0781 L 44.2812,-44.5781 C 41.75,-45.8802 39.1146,-46.8542 36.375,-47.5 C 33.6458,-48.1562 30.8125,-48.4844 27.875,-48.4844 C 23.4167,-48.4844 20.0729,-47.8021 17.8438,-46.4375 C 15.6146,-45.0729 14.5,-43.0208 14.5,-40.2812 C 14.5,-38.1979 15.2969,-36.5625 16.8906,-35.375 C 18.4844,-34.1875 21.6927,-33.0573 26.5156,-31.9844 L 29.5938,-31.2969 C 35.9688,-29.9323 40.5,-28.0052 43.1875,-25.5156 C 45.875,-23.026 47.2188,-19.5521 47.2188,-15.0938 C 47.2188,-10.0104 45.2083,-5.98438 41.1875,-3.01562 C 37.1667,-0.0572917 31.6406,1.42188 24.6094,1.42188 C 21.6823,1.42188 18.6302,1.13542 15.4531,0.5625 C 12.276,-0.0104167 8.93229,-0.864583 5.42188,-2 L 5.42188,-11.2812 C 8.74479,-9.55208 12.0156,-8.25521 15.2344,-7.39062 C 18.4531,-6.53646 21.6458,-6.10938 24.8125,-6.10938 C 29.0417,-6.10938 32.2917,-6.83333 34.5625,-8.28125 C 36.8438,-9.72917 37.9844,-11.7708 37.9844,-14.4062 C 37.9844,-16.8438 37.1615,-18.7135 35.5156,-20.0156 C 33.8802,-21.3177 30.276,-22.5729 24.7031,-23.7812 L 21.5781,-24.5156 C 16.0156,-25.6823 11.9948,-27.4792 9.51562,-29.9062 C 7.04688,-32.3333 5.8125,-35.6615 5.8125,-39.8906 C 5.8125,-45.0365 7.63542,-49.0052 11.2812,-51.7969 C 14.9271,-54.599 20.1042,-56 26.8125,-56 C 30.125,-56 33.2448,-55.7552 36.1719,-55.2656 C 39.1094,-54.7865 41.8125,-54.0573 44.2812,-53.0781"
           id="c_172c370045494a373b8cd42e76c2a247" />
        <path
           d="M 48.7812,-52.5938 L 48.7812,-44.1875 C 46.2396,-45.5938 43.6927,-46.6458 41.1406,-47.3438 C 38.5885,-48.0417 36.0104,-48.3906 33.4062,-48.3906 C 27.5729,-48.3906 23.0417,-46.5417 19.8125,-42.8438 C 16.5938,-39.1562 14.9844,-33.974 14.9844,-27.2969 C 14.9844,-20.6198 16.5938,-15.4323 19.8125,-11.7344 C 23.0417,-8.04688 27.5729,-6.20312 33.4062,-6.20312 C 36.0104,-6.20312 38.5885,-6.55208 41.1406,-7.25 C 43.6927,-7.94792 46.2396,-9 48.7812,-10.4062 L 48.7812,-2.09375 C 46.2708,-0.927083 43.6719,-0.0520833 40.9844,0.53125 C 38.3073,1.125 35.4531,1.42188 32.4219,1.42188 C 24.1823,1.42188 17.6354,-1.16667 12.7812,-6.34375 C 7.9375,-11.5208 5.51562,-18.5052 5.51562,-27.2969 C 5.51562,-36.2135 7.96354,-43.224 12.8594,-48.3281 C 17.7656,-53.4427 24.4844,-56 33.0156,-56 C 35.776,-56 38.474,-55.7135 41.1094,-55.1406 C 43.7448,-54.5781 46.3021,-53.7292 48.7812,-52.5938"
           id="c_c1179d714cec38b60d6622b5a8807824" />
        <path
           d="M 41.1094,-46.2969 C 40.099,-46.8802 39,-47.3073 37.8125,-47.5781 C 36.625,-47.8594 35.3177,-48 33.8906,-48 C 28.8073,-48 24.9062,-46.349 22.1875,-43.0469 C 19.4688,-39.7448 18.1094,-35 18.1094,-28.8125 L 18.1094,0 L 9.07812,0 L 9.07812,-54.6875 L 18.1094,-54.6875 L 18.1094,-46.1875 C 20.0052,-49.5104 22.4635,-51.974 25.4844,-53.5781 C 28.5156,-55.1927 32.1979,-56 36.5312,-56 C 37.1458,-56 37.8281,-55.9583 38.5781,-55.875 C 39.3281,-55.8021 40.1562,-55.6823 41.0625,-55.5156 L 41.1094,-46.2969 z"
           id="c_4118e466f114a602b61b3a6298d386e9" />
        <path
           d="M 56.2031,-29.5938 L 56.2031,-25.2031 L 14.8906,-25.2031 C 15.2865,-19.0156 17.151,-14.3021 20.4844,-11.0625 C 23.8177,-7.82292 28.4635,-6.20312 34.4219,-6.20312 C 37.8698,-6.20312 41.2135,-6.625 44.4531,-7.46875 C 47.6927,-8.3125 50.9115,-9.58333 54.1094,-11.2812 L 54.1094,-2.78125 C 50.8802,-1.41667 47.5729,-0.375 44.1875,0.34375 C 40.8021,1.0625 37.3698,1.42188 33.8906,1.42188 C 25.1615,1.42188 18.25,-1.11458 13.1562,-6.1875 C 8.0625,-11.2708 5.51562,-18.1458 5.51562,-26.8125 C 5.51562,-35.7604 7.93229,-42.8594 12.7656,-48.1094 C 17.599,-53.3698 24.1198,-56 32.3281,-56 C 39.6823,-56 45.5,-53.6302 49.7812,-48.8906 C 54.0625,-44.1615 56.2031,-37.7292 56.2031,-29.5938 M 47.2188,-32.2344 C 47.1562,-37.1406 45.7812,-41.0573 43.0938,-43.9844 C 40.4062,-46.9219 36.849,-48.3906 32.4219,-48.3906 C 27.4115,-48.3906 23.401,-46.974 20.3906,-44.1406 C 17.3802,-41.3073 15.6458,-37.3177 15.1875,-32.1719 L 47.2188,-32.2344 z"
           id="c_9ba5f7895f8afffb5c1e159e8b3594f8" />
        <path
           d="M 18.3125,-70.2188 L 18.3125,-54.6875 L 36.8125,-54.6875 L 36.8125,-47.7031 L 18.3125,-47.7031 L 18.3125,-18.0156 C 18.3125,-13.5573 18.9219,-10.6927 20.1406,-9.42188 C 21.3594,-8.15104 23.8438,-7.51562 27.5938,-7.51562 L 36.8125,-7.51562 L 36.8125,0 L 27.5938,0 C 20.6562,0 15.8698,-1.29167 13.2344,-3.875 C 10.599,-6.46875 9.28125,-11.1823 9.28125,-18.0156 L 9.28125,-47.7031 L 2.6875,-47.7031 L 2.6875,-54.6875 L 9.28125,-54.6875 L 9.28125,-70.2188 L 18.3125,-70.2188 z"
           id="c_7719cac8f98cf2bca3e99fb2bb21e785" />
        <path
           d=""
           id="c_d41d8cd98f00b204e9800998ecf8427e" />
        <path
           d="M 52,-44.1875 C 54.25,-48.2292 56.9375,-51.2083 60.0625,-53.125 C 63.1875,-55.0417 66.8646,-56 71.0938,-56 C 76.7917,-56 81.1875,-54.0052 84.2812,-50.0156 C 87.375,-46.0365 88.9219,-40.3698 88.9219,-33.0156 L 88.9219,0 L 79.8906,0 L 79.8906,-32.7188 C 79.8906,-37.9583 78.9583,-41.8438 77.0938,-44.375 C 75.2396,-46.9167 72.4115,-48.1875 68.6094,-48.1875 C 63.9531,-48.1875 60.2708,-46.6406 57.5625,-43.5469 C 54.8646,-40.4635 53.5156,-36.25 53.5156,-30.9062 L 53.5156,0 L 44.4844,0 L 44.4844,-32.7188 C 44.4844,-37.9896 43.5573,-41.8854 41.7031,-44.4062 C 39.849,-46.9271 36.9844,-48.1875 33.1094,-48.1875 C 28.5156,-48.1875 24.8646,-46.6354 22.1562,-43.5312 C 19.4583,-40.4271 18.1094,-36.2188 18.1094,-30.9062 L 18.1094,0 L 9.07812,0 L 9.07812,-54.6875 L 18.1094,-54.6875 L 18.1094,-46.1875 C 20.1615,-49.5417 22.6198,-52.0156 25.4844,-53.6094 C 28.349,-55.2031 31.75,-56 35.6875,-56 C 39.6667,-56 43.0469,-54.9896 45.8281,-52.9688 C 48.6094,-50.9583 50.6667,-48.0312 52,-44.1875"
           id="c_e33e9f75b343c712beb8957b453e5802" />
        <path
           d="M 31,-75.875 C 26.6458,-68.3958 23.4062,-60.9896 21.2812,-53.6562 C 19.1667,-46.3333 18.1094,-38.9115 18.1094,-31.3906 C 18.1094,-23.8802 19.1771,-16.4375 21.3125,-9.0625 C 23.4479,-1.6875 26.6771,5.72917 31,13.1875 L 23.1875,13.1875 C 18.3125,5.53125 14.6615,-1.98958 12.2344,-9.375 C 9.80729,-16.7604 8.59375,-24.099 8.59375,-31.3906 C 8.59375,-38.651 9.79688,-45.9583 12.2031,-53.3125 C 14.6198,-60.6771 18.2812,-68.1979 23.1875,-75.875 L 31,-75.875 z"
           id="c_b0f7b12c8586f9371b0da951288e8a00" />
        <path
           d="M 54.8906,-33.0156 L 54.8906,0 L 45.9062,0 L 45.9062,-32.7188 C 45.9062,-37.8958 44.8958,-41.7656 42.875,-44.3281 C 40.8542,-46.901 37.8281,-48.1875 33.7969,-48.1875 C 28.9427,-48.1875 25.1146,-46.6406 22.3125,-43.5469 C 19.5104,-40.4635 18.1094,-36.25 18.1094,-30.9062 L 18.1094,0 L 9.07812,0 L 9.07812,-54.6875 L 18.1094,-54.6875 L 18.1094,-46.1875 C 20.2656,-49.4792 22.7969,-51.9375 25.7031,-53.5625 C 28.6198,-55.1875 31.9844,-56 35.7969,-56 C 42.0781,-56 46.8281,-54.0573 50.0469,-50.1719 C 53.276,-46.2865 54.8906,-40.5677 54.8906,-33.0156"
           id="c_ea4b10e8bc619072d4c12d4803cf87f6" />
        <path
           d="M 8.01562,-75.875 L 15.8281,-75.875 C 20.7031,-68.1979 24.3542,-60.6771 26.7812,-53.3125 C 29.2083,-45.9583 30.4219,-38.651 30.4219,-31.3906 C 30.4219,-24.099 29.2083,-16.7604 26.7812,-9.375 C 24.3542,-1.98958 20.7031,5.53125 15.8281,13.1875 L 8.01562,13.1875 C 12.3385,5.72917 15.5677,-1.6875 17.7031,-9.0625 C 19.8385,-16.4375 20.9062,-23.8802 20.9062,-31.3906 C 20.9062,-38.9115 19.8385,-46.3333 17.7031,-53.6562 C 15.5677,-60.9896 12.3385,-68.3958 8.01562,-75.875"
           id="c_157e265291c81b12d8997119af5f28cb" />
      </defs>
      <g
         transform="matrix(0.18,0,0,0.18,219.997,423.581)"
         id="g6439"
         style="opacity:1;fill:#000000">
        <use
           id="use6441"
           x="0"
           y="0"
           width="576"
           height="432"
           xlink:href="#c_253991bd8207791f1c7c50d72e47b21e" />
        <use
           id="use6443"
           x="77.002"
           y="0"
           width="576"
           height="432"
           xlink:href="#c_8d6ee5dadaaa9460f50eedd5d62d2be4" />
        <use
           id="use6445"
           x="104.785"
           y="0"
           width="576"
           height="432"
           xlink:href="#c_172c370045494a373b8cd42e76c2a247" />
        <use
           id="use6447"
           x="156.885"
           y="0"
           width="576"
           height="432"
           xlink:href="#c_c1179d714cec38b60d6622b5a8807824" />
        <use
           id="use6449"
           x="211.865"
           y="0"
           width="576"
           height="432"
           xlink:href="#c_4118e466f114a602b61b3a6298d386e9" />
        <use
           id="use6451"
           x="250.729"
           y="0"
           width="576"
           height="432"
           xlink:href="#c_9ba5f7895f8afffb5c1e159e8b3594f8" />
        <use
           id="use6453"
           x="312.252"
           y="0"
           width="576"
           height="432"
           xlink:href="#c_7719cac8f98cf2bca3e99fb2bb21e785" />
        <use
           id="use6455"
           x="351.461"
           y="0"
           width="576"
           height="432"
           xlink:href="#c_9ba5f7895f8afffb5c1e159e8b3594f8" />
        <use
           id="use6457"
           x="412.984"
           y="0"
           width="576"
           height="432"
           xlink:href="#c_d41d8cd98f00b204e9800998ecf8427e" />
        <use
           id="use6459"
           x="444.771"
           y="0"
           width="576"
           height="432"
           xlink:href="#c_7719cac8f98cf2bca3e99fb2bb21e785" />
        <use
           id="use6461"
           x="483.98"
           y="0"
           width="576"
           height="432"
           xlink:href="#c_8d6ee5dadaaa9460f50eedd5d62d2be4" />
        <use
           id="use6463"
           x="511.764"
           y="0"
           width="576"
           height="432"
           xlink:href="#c_e33e9f75b343c712beb8957b453e5802" />
        <use
           id="use6465"
           x="609.176"
           y="0"
           width="576"
           height="432"
           xlink:href="#c_9ba5f7895f8afffb5c1e159e8b3594f8" />
        <use
           id="use6467"
           x="670.699"
           y="0"
           width="576"
           height="432"
           xlink:href="#c_d41d8cd98f00b204e9800998ecf8427e" />
        <use
           id="use6469"
           x="702.486"
           y="0"
           width="576"
           height="432"
           xlink:href="#c_b0f7b12c8586f9371b0da951288e8a00" />
        <use
           id="use6471"
           x="741.5"
           y="0"
           width="576"
           height="432"
           xlink:href="#c_ea4b10e8bc619072d4c12d4803cf87f6" />
        <use
           id="use6473"
           x="804.879"
           y="0"
           width="576"
           height="432"
           xlink:href="#c_157e265291c81b12d8997119af5f28cb" />
      </g>
    </g>
    <g
       id="matplotlib.axis2">
      <g
         id="ytick1">
        <g
           id="line2d15">
          <defs
             id="defs6478">
            <path
               d="M 0,0 L 4,0"
               id="m2d700b5b5d738bf2751cd81726959973" />
          </defs>
          <g
             id="g6481">
            <use
               id="use6483"
               style="opacity:1;fill:none;stroke:#000000;stroke-width:0.5;stroke-linecap:butt;stroke-linejoin:miter"
               x="72"
               y="357.382"
               width="576"
               height="432"
               xlink:href="#m2d700b5b5d738bf2751cd81726959973" />
          </g>
        </g>
        <g
           id="line2d16">
          <defs
             id="defs6486">
            <path
               d="M 0,0 L -4,0"
               id="mb380ebd9df8a07a3be12f7447ef9bdd8" />
          </defs>
          <g
             id="g6489">
            <use
               id="use6491"
               style="opacity:1;fill:none;stroke:#000000;stroke-width:0.5;stroke-linecap:butt;stroke-linejoin:miter"
               x="518.4"
               y="357.382"
               width="576"
               height="432"
               xlink:href="#mb380ebd9df8a07a3be12f7447ef9bdd8" />
          </g>
        </g>
        <defs
           id="defs6493">
          <path
             d="M 10.5938,-35.5 L 73.1875,-35.5 L 73.1875,-27.2031 L 10.5938,-27.2031 L 10.5938,-35.5 z"
             id="c_139293c3576e2a5eaff9a02b9ab719e6" />
          <path
             d="M 10.6875,-12.4062 L 21,-12.4062 L 21,0 L 10.6875,0 L 10.6875,-12.4062 z"
             id="c_640b5960c5fe26e83b53fed68bcebad3" />
        </defs>
        <g
           transform="matrix(0.16,0,0,0.16,31.8906,363.202)"
           id="g6497"
           style="opacity:1;fill:#000000">
          <use
             id="use6499"
             x="0"
             y="0"
             width="576"
             height="432"
             xlink:href="#c_139293c3576e2a5eaff9a02b9ab719e6" />
          <use
             id="use6501"
             x="83.7891"
             y="0"
             width="576"
             height="432"
             xlink:href="#c_2322e4f977aa11305e2465866d88750f" />
          <use
             id="use6503"
             x="147.412"
             y="0"
             width="576"
             height="432"
             xlink:href="#c_640b5960c5fe26e83b53fed68bcebad3" />
          <use
             id="use6505"
             x="179.199"
             y="0"
             width="576"
             height="432"
             xlink:href="#c_95f14088edd5858aea2c3b4aa58e4de2" />
        </g>
      </g>
      <g
         id="ytick2">
        <g
           id="line2d17">
          <g
             id="g6509">
            <use
               id="use6511"
               style="opacity:1;fill:none;stroke:#000000;stroke-width:0.5;stroke-linecap:butt;stroke-linejoin:miter"
               x="72"
               y="294.545"
               width="576"
               height="432"
               xlink:href="#m2d700b5b5d738bf2751cd81726959973" />
          </g>
        </g>
        <g
           id="line2d18">
          <g
             id="g6514">
            <use
               id="use6516"
               style="opacity:1;fill:none;stroke:#000000;stroke-width:0.5;stroke-linecap:butt;stroke-linejoin:miter"
               x="518.4"
               y="294.545"
               width="576"
               height="432"
               xlink:href="#mb380ebd9df8a07a3be12f7447ef9bdd8" />
          </g>
        </g>
        <defs
           id="defs6518">
          <path
             d="M 10.7969,-72.9062 L 49.5156,-72.9062 L 49.5156,-64.5938 L 19.8281,-64.5938 L 19.8281,-46.7344 C 21.2552,-47.224 22.6823,-47.5885 24.1094,-47.8281 C 25.5469,-48.0677 26.9844,-48.1875 28.4219,-48.1875 C 36.5573,-48.1875 43,-45.9583 47.75,-41.5 C 52.5104,-37.0417 54.8906,-31.0052 54.8906,-23.3906 C 54.8906,-15.5469 52.4479,-9.44792 47.5625,-5.09375 C 42.6771,-0.75 35.7917,1.42188 26.9062,1.42188 C 23.8438,1.42188 20.724,1.16146 17.5469,0.640625 C 14.3802,0.119792 11.1042,-0.661458 7.71875,-1.70312 L 7.71875,-11.625 C 10.6458,-10.0312 13.6719,-8.84375 16.7969,-8.0625 C 19.9219,-7.28125 23.224,-6.89062 26.7031,-6.89062 C 32.3385,-6.89062 36.7969,-8.36979 40.0781,-11.3281 C 43.3698,-14.2865 45.0156,-18.3073 45.0156,-23.3906 C 45.0156,-28.4635 43.3698,-32.4792 40.0781,-35.4375 C 36.7969,-38.4062 32.3385,-39.8906 26.7031,-39.8906 C 24.0677,-39.8906 21.4375,-39.599 18.8125,-39.0156 C 16.1979,-38.4323 13.526,-37.5208 10.7969,-36.2812 L 10.7969,-72.9062 z"
             id="c_2f869442ca5f4cfa589132f61f547ba5" />
        </defs>
        <g
           transform="matrix(0.16,0,0,0.16,32.2344,300.366)"
           id="g6521"
           style="opacity:1;fill:#000000">
          <use
             id="use6523"
             x="0"
             y="0"
             width="576"
             height="432"
             xlink:href="#c_139293c3576e2a5eaff9a02b9ab719e6" />
          <use
             id="use6525"
             x="83.7891"
             y="0"
             width="576"
             height="432"
             xlink:href="#c_95f14088edd5858aea2c3b4aa58e4de2" />
          <use
             id="use6527"
             x="147.412"
             y="0"
             width="576"
             height="432"
             xlink:href="#c_640b5960c5fe26e83b53fed68bcebad3" />
          <use
             id="use6529"
             x="179.199"
             y="0"
             width="576"
             height="432"
             xlink:href="#c_2f869442ca5f4cfa589132f61f547ba5" />
        </g>
      </g>
      <g
         id="ytick3">
        <g
           id="line2d19">
          <g
             id="g6533">
            <use
               id="use6535"
               style="opacity:1;fill:none;stroke:#000000;stroke-width:0.5;stroke-linecap:butt;stroke-linejoin:miter"
               x="72"
               y="231.709"
               width="576"
               height="432"
               xlink:href="#m2d700b5b5d738bf2751cd81726959973" />
          </g>
        </g>
        <g
           id="line2d20">
          <g
             id="g6538">
            <use
               id="use6540"
               style="opacity:1;fill:none;stroke:#000000;stroke-width:0.5;stroke-linecap:butt;stroke-linejoin:miter"
               x="518.4"
               y="231.709"
               width="576"
               height="432"
               xlink:href="#mb380ebd9df8a07a3be12f7447ef9bdd8" />
          </g>
        </g>
        <g
           transform="matrix(0.16,0,0,0.16,44.6563,237.529)"
           id="g6542"
           style="opacity:1;fill:#000000">
          <use
             id="use6544"
             x="0"
             y="0"
             width="576"
             height="432"
             xlink:href="#c_95f14088edd5858aea2c3b4aa58e4de2" />
          <use
             id="use6546"
             x="63.623"
             y="0"
             width="576"
             height="432"
             xlink:href="#c_640b5960c5fe26e83b53fed68bcebad3" />
          <use
             id="use6548"
             x="95.4102"
             y="0"
             width="576"
             height="432"
             xlink:href="#c_95f14088edd5858aea2c3b4aa58e4de2" />
        </g>
      </g>
      <g
         id="ytick4">
        <g
           id="line2d21">
          <g
             id="g6552">
            <use
               id="use6554"
               style="opacity:1;fill:none;stroke:#000000;stroke-width:0.5;stroke-linecap:butt;stroke-linejoin:miter"
               x="72"
               y="168.873"
               width="576"
               height="432"
               xlink:href="#m2d700b5b5d738bf2751cd81726959973" />
          </g>
        </g>
        <g
           id="line2d22">
          <g
             id="g6557">
            <use
               id="use6559"
               style="opacity:1;fill:none;stroke:#000000;stroke-width:0.5;stroke-linecap:butt;stroke-linejoin:miter"
               x="518.4"
               y="168.873"
               width="576"
               height="432"
               xlink:href="#mb380ebd9df8a07a3be12f7447ef9bdd8" />
          </g>
        </g>
        <g
           transform="matrix(0.16,0,0,0.16,45,174.693)"
           id="g6561"
           style="opacity:1;fill:#000000">
          <use
             id="use6563"
             x="0"
             y="0"
             width="576"
             height="432"
             xlink:href="#c_95f14088edd5858aea2c3b4aa58e4de2" />
          <use
             id="use6565"
             x="63.623"
             y="0"
             width="576"
             height="432"
             xlink:href="#c_640b5960c5fe26e83b53fed68bcebad3" />
          <use
             id="use6567"
             x="95.4102"
             y="0"
             width="576"
             height="432"
             xlink:href="#c_2f869442ca5f4cfa589132f61f547ba5" />
        </g>
      </g>
      <g
         id="ytick5">
        <g
           id="line2d23">
          <g
             id="g6571">
            <use
               id="use6573"
               style="opacity:1;fill:none;stroke:#000000;stroke-width:0.5;stroke-linecap:butt;stroke-linejoin:miter"
               x="72"
               y="106.036"
               width="576"
               height="432"
               xlink:href="#m2d700b5b5d738bf2751cd81726959973" />
          </g>
        </g>
        <g
           id="line2d24">
          <g
             id="g6576">
            <use
               id="use6578"
               style="opacity:1;fill:none;stroke:#000000;stroke-width:0.5;stroke-linecap:butt;stroke-linejoin:miter"
               x="518.4"
               y="106.036"
               width="576"
               height="432"
               xlink:href="#mb380ebd9df8a07a3be12f7447ef9bdd8" />
          </g>
        </g>
        <g
           transform="matrix(0.16,0,0,0.16,45.3594,111.857)"
           id="g6580"
           style="opacity:1;fill:#000000">
          <use
             id="use6582"
             x="0"
             y="0"
             width="576"
             height="432"
             xlink:href="#c_2322e4f977aa11305e2465866d88750f" />
          <use
             id="use6584"
             x="63.623"
             y="0"
             width="576"
             height="432"
             xlink:href="#c_640b5960c5fe26e83b53fed68bcebad3" />
          <use
             id="use6586"
             x="95.4102"
             y="0"
             width="576"
             height="432"
             xlink:href="#c_95f14088edd5858aea2c3b4aa58e4de2" />
        </g>
      </g>
      <g
         id="ytick6">
        <g
           id="line2d25">
          <g
             id="g6590">
            <use
               id="use6592"
               style="opacity:1;fill:none;stroke:#000000;stroke-width:0.5;stroke-linecap:butt;stroke-linejoin:miter"
               x="72"
               y="43.2"
               width="576"
               height="432"
               xlink:href="#m2d700b5b5d738bf2751cd81726959973" />
          </g>
        </g>
        <g
           id="line2d26">
          <g
             id="g6595">
            <use
               id="use6597"
               style="opacity:1;fill:none;stroke:#000000;stroke-width:0.5;stroke-linecap:butt;stroke-linejoin:miter"
               x="518.4"
               y="43.2"
               width="576"
               height="432"
               xlink:href="#mb380ebd9df8a07a3be12f7447ef9bdd8" />
          </g>
        </g>
        <g
           transform="matrix(0.16,0,0,0.16,45.7031,48.9188)"
           id="g6599"
           style="opacity:1;fill:#000000">
          <use
             id="use6601"
             x="0"
             y="0"
             width="576"
             height="432"
             xlink:href="#c_2322e4f977aa11305e2465866d88750f" />
          <use
             id="use6603"
             x="63.623"
             y="0"
             width="576"
             height="432"
             xlink:href="#c_640b5960c5fe26e83b53fed68bcebad3" />
          <use
             id="use6605"
             x="95.4102"
             y="0"
             width="576"
             height="432"
             xlink:href="#c_2f869442ca5f4cfa589132f61f547ba5" />
        </g>
      </g>
      <defs
         id="defs6607">
        <path
           d="M 53.5156,-70.5156 L 53.5156,-60.8906 C 49.776,-62.6823 46.2448,-64.0156 42.9219,-64.8906 C 39.599,-65.776 36.3906,-66.2188 33.2969,-66.2188 C 27.9323,-66.2188 23.7917,-65.1771 20.875,-63.0938 C 17.9583,-61.0104 16.5,-58.0469 16.5,-54.2031 C 16.5,-50.974 17.4688,-48.5365 19.4062,-46.8906 C 21.3438,-45.2552 25.0156,-43.9323 30.4219,-42.9219 L 36.375,-41.7031 C 43.7292,-40.2969 49.1562,-37.8281 52.6562,-34.2969 C 56.1562,-30.7656 57.9062,-26.0417 57.9062,-20.125 C 57.9062,-13.0521 55.5365,-7.69271 50.7969,-4.04688 C 46.0677,-0.401042 39.1302,1.42188 29.9844,1.42188 C 26.5365,1.42188 22.8646,1.03125 18.9688,0.25 C 15.0833,-0.53125 11.0573,-1.6875 6.89062,-3.21875 L 6.89062,-13.375 C 10.8906,-11.1354 14.8125,-9.44271 18.6562,-8.29688 C 22.5,-7.16146 26.276,-6.59375 29.9844,-6.59375 C 35.6094,-6.59375 39.9531,-7.69792 43.0156,-9.90625 C 46.0781,-12.125 47.6094,-15.2865 47.6094,-19.3906 C 47.6094,-22.9635 46.5104,-25.7604 44.3125,-27.7812 C 42.1146,-29.8021 38.5104,-31.3177 33.5,-32.3281 L 27.4844,-33.5 C 20.1302,-34.9583 14.8073,-37.25 11.5156,-40.375 C 8.23438,-43.5 6.59375,-47.849 6.59375,-53.4219 C 6.59375,-59.8698 8.86458,-64.9479 13.4062,-68.6562 C 17.9479,-72.3646 24.2031,-74.2188 32.1719,-74.2188 C 35.599,-74.2188 39.0833,-73.9062 42.625,-73.2812 C 46.1771,-72.6667 49.8073,-71.7448 53.5156,-70.5156"
           id="c_eb5940431fe3662aeb21079bbb2b168d" />
        <path
           d="M 45.4062,-27.9844 C 45.4062,-34.4948 44.0625,-39.5365 41.375,-43.1094 C 38.6979,-46.6927 34.9323,-48.4844 30.0781,-48.4844 C 25.2656,-48.4844 21.5156,-46.6927 18.8281,-43.1094 C 16.1406,-39.5365 14.7969,-34.4948 14.7969,-27.9844 C 14.7969,-21.5052 16.1406,-16.474 18.8281,-12.8906 C 21.5156,-9.30729 25.2656,-7.51562 30.0781,-7.51562 C 34.9323,-7.51562 38.6979,-9.30729 41.375,-12.8906 C 44.0625,-16.474 45.4062,-21.5052 45.4062,-27.9844 M 54.3906,-6.78125 C 54.3906,2.52083 52.3229,9.44271 48.1875,13.9844 C 44.0625,18.526 37.7344,20.7969 29.2031,20.7969 C 26.0469,20.7969 23.0677,20.5625 20.2656,20.0938 C 17.4635,19.625 14.7448,18.901 12.1094,17.9219 L 12.1094,9.1875 C 14.7448,10.6146 17.349,11.6667 19.9219,12.3438 C 22.4948,13.0312 25.1146,13.375 27.7812,13.375 C 33.6771,13.375 38.0885,11.8385 41.0156,8.76562 C 43.9427,5.69271 45.4062,1.04688 45.4062,-5.17188 L 45.4062,-9.625 C 43.5521,-6.39583 41.1771,-3.98438 38.2812,-2.39062 C 35.3854,-0.796875 31.9167,0 27.875,0 C 21.1771,0 15.776,-2.55208 11.6719,-7.65625 C 7.56771,-12.7708 5.51562,-19.5469 5.51562,-27.9844 C 5.51562,-36.4427 7.56771,-43.224 11.6719,-48.3281 C 15.776,-53.4427 21.1771,-56 27.875,-56 C 31.9167,-56 35.3854,-55.2031 38.2812,-53.6094 C 41.1771,-52.0156 43.5521,-49.6094 45.4062,-46.3906 L 45.4062,-54.6875 L 54.3906,-54.6875 L 54.3906,-6.78125 z"
           id="c_401cc870e2737ac21a21bd24c8b21204" />
        <path
           d="M 34.2812,-27.4844 C 27.0208,-27.4844 21.9896,-26.6562 19.1875,-25 C 16.3854,-23.3438 14.9844,-20.5104 14.9844,-16.5 C 14.9844,-13.3125 16.0365,-10.7812 18.1406,-8.90625 C 20.2448,-7.04167 23.099,-6.10938 26.7031,-6.10938 C 31.6927,-6.10938 35.6927,-7.875 38.7031,-11.4062 C 41.7135,-14.9375 43.2188,-19.6302 43.2188,-25.4844 L 43.2188,-27.4844 L 34.2812,-27.4844 z M 52.2031,-31.2031 L 52.2031,0 L 43.2188,0 L 43.2188,-8.29688 C 41.1667,-4.98438 38.6094,-2.53646 35.5469,-0.953125 C 32.4844,0.630208 28.7396,1.42188 24.3125,1.42188 C 18.7188,1.42188 14.2656,-0.151042 10.9531,-3.29688 C 7.65104,-6.44271 6,-10.651 6,-15.9219 C 6,-22.0677 8.05729,-26.7031 12.1719,-29.8281 C 16.2969,-32.9531 22.4427,-34.5156 30.6094,-34.5156 L 43.2188,-34.5156 L 43.2188,-35.4062 C 43.2188,-39.5417 41.8594,-42.7396 39.1406,-45 C 36.4219,-47.2604 32.6042,-48.3906 27.6875,-48.3906 C 24.5625,-48.3906 21.5156,-48.0156 18.5469,-47.2656 C 15.5885,-46.5156 12.7448,-45.3906 10.0156,-43.8906 L 10.0156,-52.2031 C 13.2969,-53.474 16.4844,-54.4219 19.5781,-55.0469 C 22.6719,-55.6823 25.6823,-56 28.6094,-56 C 36.526,-56 42.4375,-53.9479 46.3438,-49.8438 C 50.25,-45.75 52.2031,-39.5365 52.2031,-31.2031"
           id="c_97cced06352dabd27facc1bd04e1f2f5" />
        <path
           d="M 9.42188,-75.9844 L 18.4062,-75.9844 L 18.4062,0 L 9.42188,0 L 9.42188,-75.9844 z"
           id="c_9998e24eb7348bc393d3f7b1cdcc5b5e" />
        <path
           d="M 18.1094,-8.20312 L 18.1094,20.7969 L 9.07812,20.7969 L 9.07812,-54.6875 L 18.1094,-54.6875 L 18.1094,-46.3906 C 20.0052,-49.6406 22.3906,-52.0521 25.2656,-53.625 C 28.151,-55.2083 31.5938,-56 35.5938,-56 C 42.2396,-56 47.6354,-53.3646 51.7812,-48.0938 C 55.9375,-42.8229 58.0156,-35.8906 58.0156,-27.2969 C 58.0156,-18.7031 55.9375,-11.7656 51.7812,-6.48438 C 47.6354,-1.21354 42.2396,1.42188 35.5938,1.42188 C 31.5938,1.42188 28.151,0.630208 25.2656,-0.953125 C 22.3906,-2.53646 20.0052,-4.95312 18.1094,-8.20312 M 48.6875,-27.2969 C 48.6875,-33.901 47.3281,-39.0833 44.6094,-42.8438 C 41.8906,-46.6042 38.1562,-48.4844 33.4062,-48.4844 C 28.6458,-48.4844 24.9062,-46.6042 22.1875,-42.8438 C 19.4688,-39.0833 18.1094,-33.901 18.1094,-27.2969 C 18.1094,-20.6927 19.4688,-15.5104 22.1875,-11.75 C 24.9062,-7.98958 28.6458,-6.10938 33.4062,-6.10938 C 38.1562,-6.10938 41.8906,-7.98958 44.6094,-11.75 C 47.3281,-15.5104 48.6875,-20.6927 48.6875,-27.2969"
           id="c_513dbe2c276079f39ecef771c689c13a" />
        <path
           d="M 8.5,-21.5781 L 8.5,-54.6875 L 17.4844,-54.6875 L 17.4844,-21.9219 C 17.4844,-16.7448 18.4896,-12.8594 20.5,-10.2656 C 22.5208,-7.68229 25.5521,-6.39062 29.5938,-6.39062 C 34.4375,-6.39062 38.2656,-7.9375 41.0781,-11.0312 C 43.901,-14.125 45.3125,-18.3438 45.3125,-23.6875 L 45.3125,-54.6875 L 54.2969,-54.6875 L 54.2969,0 L 45.3125,0 L 45.3125,-8.40625 C 43.1354,-5.08333 40.6042,-2.61458 37.7188,-1 C 34.8438,0.614583 31.5,1.42188 27.6875,1.42188 C 21.4062,1.42188 16.6354,-0.53125 13.375,-4.4375 C 10.125,-8.34375 8.5,-14.0573 8.5,-21.5781"
           id="c_ad942dc9c9bd7b75a502756345a27d65" />
        <path
           d="M 45.4062,-46.3906 L 45.4062,-75.9844 L 54.3906,-75.9844 L 54.3906,0 L 45.4062,0 L 45.4062,-8.20312 C 43.5208,-4.95312 41.1354,-2.53646 38.25,-0.953125 C 35.375,0.630208 31.9167,1.42188 27.875,1.42188 C 21.2708,1.42188 15.8906,-1.21354 11.7344,-6.48438 C 7.58854,-11.7656 5.51562,-18.7031 5.51562,-27.2969 C 5.51562,-35.8906 7.58854,-42.8229 11.7344,-48.0938 C 15.8906,-53.3646 21.2708,-56 27.875,-56 C 31.9167,-56 35.375,-55.2083 38.25,-53.625 C 41.1354,-52.0521 43.5208,-49.6406 45.4062,-46.3906 M 14.7969,-27.2969 C 14.7969,-20.6927 16.1562,-15.5104 18.875,-11.75 C 21.5938,-7.98958 25.3281,-6.10938 30.0781,-6.10938 C 34.8281,-6.10938 38.5677,-7.98958 41.2969,-11.75 C 44.0365,-15.5104 45.4062,-20.6927 45.4062,-27.2969 C 45.4062,-33.901 44.0365,-39.0833 41.2969,-42.8438 C 38.5677,-46.6042 34.8281,-48.4844 30.0781,-48.4844 C 25.3281,-48.4844 21.5938,-46.6042 18.875,-42.8438 C 16.1562,-39.0833 14.7969,-33.901 14.7969,-27.2969"
           id="c_ef35182080b6b1a8670663c93ffc438b" />
      </defs>
      <g
         transform="matrix(0,-0.18,0.18,0,26.8906,287.75)"
         id="g6616"
         style="opacity:1;fill:#000000">
        <use
           id="use6618"
           x="0"
           y="0"
           width="576"
           height="432"
           xlink:href="#c_eb5940431fe3662aeb21079bbb2b168d" />
        <use
           id="use6620"
           x="63.4766"
           y="0"
           width="576"
           height="432"
           xlink:href="#c_8d6ee5dadaaa9460f50eedd5d62d2be4" />
        <use
           id="use6622"
           x="91.2598"
           y="0"
           width="576"
           height="432"
           xlink:href="#c_401cc870e2737ac21a21bd24c8b21204" />
        <use
           id="use6624"
           x="154.736"
           y="0"
           width="576"
           height="432"
           xlink:href="#c_ea4b10e8bc619072d4c12d4803cf87f6" />
        <use
           id="use6626"
           x="218.115"
           y="0"
           width="576"
           height="432"
           xlink:href="#c_97cced06352dabd27facc1bd04e1f2f5" />
        <use
           id="use6628"
           x="279.395"
           y="0"
           width="576"
           height="432"
           xlink:href="#c_9998e24eb7348bc393d3f7b1cdcc5b5e" />
        <use
           id="use6630"
           x="307.178"
           y="0"
           width="576"
           height="432"
           xlink:href="#c_d41d8cd98f00b204e9800998ecf8427e" />
        <use
           id="use6632"
           x="338.965"
           y="0"
           width="576"
           height="432"
           xlink:href="#c_97cced06352dabd27facc1bd04e1f2f5" />
        <use
           id="use6634"
           x="400.244"
           y="0"
           width="576"
           height="432"
           xlink:href="#c_e33e9f75b343c712beb8957b453e5802" />
        <use
           id="use6636"
           x="497.656"
           y="0"
           width="576"
           height="432"
           xlink:href="#c_513dbe2c276079f39ecef771c689c13a" />
        <use
           id="use6638"
           x="561.133"
           y="0"
           width="576"
           height="432"
           xlink:href="#c_9998e24eb7348bc393d3f7b1cdcc5b5e" />
        <use
           id="use6640"
           x="588.916"
           y="0"
           width="576"
           height="432"
           xlink:href="#c_8d6ee5dadaaa9460f50eedd5d62d2be4" />
        <use
           id="use6642"
           x="616.699"
           y="0"
           width="576"
           height="432"
           xlink:href="#c_7719cac8f98cf2bca3e99fb2bb21e785" />
        <use
           id="use6644"
           x="655.908"
           y="0"
           width="576"
           height="432"
           xlink:href="#c_ad942dc9c9bd7b75a502756345a27d65" />
        <use
           id="use6646"
           x="719.287"
           y="0"
           width="576"
           height="432"
           xlink:href="#c_ef35182080b6b1a8670663c93ffc438b" />
        <use
           id="use6648"
           x="782.764"
           y="0"
           width="576"
           height="432"
           xlink:href="#c_9ba5f7895f8afffb5c1e159e8b3594f8" />
      </g>
    </g>
    <path
       d="M 72,388.8 L 518.4,388.8 L 518.4,43.2 L 72,43.2 L 72,388.8"
       id="path6650"
       style="opacity:1;fill:none;stroke:#000000;stroke-width:1;stroke-linecap:square;stroke-linejoin:miter" />
    <g
       id="legend1">
      <path
         d="M 338.887,84.0149 L 509.472,84.0149 L 509.472,50.112 L 338.887,50.112 L 338.887,84.0149"
         id="path6653"
         style="opacity:1;fill:#ffffff;stroke:#000000;stroke-width:1;stroke-linecap:square;stroke-linejoin:miter" />
      <g
         id="line2d27">
        <path
           d="M 348.102,58.2258 L 370.422,58.2258"
           id="path6656"
           style="opacity:1;fill:none;stroke:#0000ff;stroke-width:1;stroke-linecap:square;stroke-linejoin:miter" />
      </g>
      <g
         id="line2d28" />
      <g
         id="line2d29">
        <path
           d="M 348.102,74.3011 L 370.422,74.3011"
           id="path6660"
           style="opacity:1;fill:none;stroke:#008000;stroke-width:5;stroke-linecap:square;stroke-linejoin:miter" />
      </g>
      <g
         id="line2d30" />
      <defs
         id="defs6663">
        <path
           d="M 19.6719,-64.7969 L 19.6719,-37.4062 L 32.0781,-37.4062 C 36.6719,-37.4062 40.2188,-38.5938 42.7188,-40.9688 C 45.2292,-43.3438 46.4844,-46.7292 46.4844,-51.125 C 46.4844,-55.4896 45.2292,-58.8594 42.7188,-61.2344 C 40.2188,-63.6094 36.6719,-64.7969 32.0781,-64.7969 L 19.6719,-64.7969 z M 9.8125,-72.9062 L 32.0781,-72.9062 C 40.2552,-72.9062 46.4323,-71.0573 50.6094,-67.3594 C 54.7969,-63.6615 56.8906,-58.25 56.8906,-51.125 C 56.8906,-43.9271 54.7969,-38.4896 50.6094,-34.8125 C 46.4323,-31.1354 40.2552,-29.2969 32.0781,-29.2969 L 19.6719,-29.2969 L 19.6719,0 L 9.8125,0 L 9.8125,-72.9062 z"
           id="c_327b9c9a7a4c52b6e19f7c7b1f991304" />
        <path
           d="M 9.8125,-72.9062 L 24.5156,-72.9062 L 43.1094,-23.2969 L 61.8125,-72.9062 L 76.5156,-72.9062 L 76.5156,0 L 66.8906,0 L 66.8906,-64.0156 L 48.0938,-14.0156 L 38.1875,-14.0156 L 19.3906,-64.0156 L 19.3906,0 L 9.8125,0 L 9.8125,-72.9062 z"
           id="c_3aaee3ac65605b1702cae12f94b9d601" />
        <path
           d="M 4.20312,-54.6875 L 13.1875,-54.6875 L 24.4219,-12.0156 L 35.5938,-54.6875 L 46.1875,-54.6875 L 57.4219,-12.0156 L 68.6094,-54.6875 L 77.5938,-54.6875 L 63.2812,0 L 52.6875,0 L 40.9219,-44.8281 L 29.1094,0 L 18.5,0 L 4.20312,-54.6875 z"
           id="c_e2ce8966524644ff4b82af7c54bbbd08" />
        <path
           d="M 2.98438,-54.6875 L 12.5,-54.6875 L 29.5938,-8.79688 L 46.6875,-54.6875 L 56.2031,-54.6875 L 35.6875,0 L 23.4844,0 L 2.98438,-54.6875 z"
           id="c_01ee178938cf38c2d4d18ed1f41f722a" />
      </defs>
      <g
         transform="matrix(0.144,0,0,0.144,387.35,63.4445)"
         id="g6669"
         style="opacity:1;fill:#000000">
        <use
           id="use6671"
           x="0"
           y="0"
           width="576"
           height="432"
           xlink:href="#c_327b9c9a7a4c52b6e19f7c7b1f991304" />
        <use
           id="use6673"
           x="60.3027"
           y="0"
           width="576"
           height="432"
           xlink:href="#c_253991bd8207791f1c7c50d72e47b21e" />
        <use
           id="use6675"
           x="137.305"
           y="0"
           width="576"
           height="432"
           xlink:href="#c_3aaee3ac65605b1702cae12f94b9d601" />
        <use
           id="use6677"
           x="223.584"
           y="0"
           width="576"
           height="432"
           xlink:href="#c_d41d8cd98f00b204e9800998ecf8427e" />
        <use
           id="use6679"
           x="255.371"
           y="0"
           width="576"
           height="432"
           xlink:href="#c_172c370045494a373b8cd42e76c2a247" />
        <use
           id="use6681"
           x="307.471"
           y="0"
           width="576"
           height="432"
           xlink:href="#c_8d6ee5dadaaa9460f50eedd5d62d2be4" />
        <use
           id="use6683"
           x="335.254"
           y="0"
           width="576"
           height="432"
           xlink:href="#c_ea4b10e8bc619072d4c12d4803cf87f6" />
        <use
           id="use6685"
           x="398.633"
           y="0"
           width="576"
           height="432"
           xlink:href="#c_9ba5f7895f8afffb5c1e159e8b3594f8" />
        <use
           id="use6687"
           x="460.156"
           y="0"
           width="576"
           height="432"
           xlink:href="#c_d41d8cd98f00b204e9800998ecf8427e" />
        <use
           id="use6689"
           x="491.943"
           y="0"
           width="576"
           height="432"
           xlink:href="#c_e2ce8966524644ff4b82af7c54bbbd08" />
        <use
           id="use6691"
           x="573.73"
           y="0"
           width="576"
           height="432"
           xlink:href="#c_97cced06352dabd27facc1bd04e1f2f5" />
        <use
           id="use6693"
           x="635.01"
           y="0"
           width="576"
           height="432"
           xlink:href="#c_01ee178938cf38c2d4d18ed1f41f722a" />
        <use
           id="use6695"
           x="694.189"
           y="0"
           width="576"
           height="432"
           xlink:href="#c_9ba5f7895f8afffb5c1e159e8b3594f8" />
      </g>
      <defs
         id="defs6697" />
      <g
         transform="matrix(0.144,0,0,0.144,387.35,79.5199)"
         id="g6700"
         style="opacity:1;fill:#000000">
        <use
           id="use6708"
           x="216.406"
           y="0"
           width="576"
           height="432"
           xlink:href="#c_d41d8cd98f00b204e9800998ecf8427e" />
        <use
           id="use6710"
           x="248.193"
           y="0"
           width="576"
           height="432"
           xlink:href="#c_172c370045494a373b8cd42e76c2a247" />
        <use
           id="use6712"
           x="300.293"
           y="0"
           width="576"
           height="432"
           xlink:href="#c_8d6ee5dadaaa9460f50eedd5d62d2be4" />
        <use
           id="use6714"
           x="328.076"
           y="0"
           width="576"
           height="432"
           xlink:href="#c_ea4b10e8bc619072d4c12d4803cf87f6" />
        <use
           id="use6716"
           x="391.455"
           y="0"
           width="576"
           height="432"
           xlink:href="#c_9ba5f7895f8afffb5c1e159e8b3594f8" />
        <use
           id="use6718"
           x="452.979"
           y="0"
           width="576"
           height="432"
           xlink:href="#c_d41d8cd98f00b204e9800998ecf8427e" />
        <use
           id="use6720"
           x="484.766"
           y="0"
           width="576"
           height="432"
           xlink:href="#c_e2ce8966524644ff4b82af7c54bbbd08" />
        <use
           id="use6722"
           x="566.553"
           y="0"
           width="576"
           height="432"
           xlink:href="#c_97cced06352dabd27facc1bd04e1f2f5" />
        <use
           id="use6724"
           x="627.832"
           y="0"
           width="576"
           height="432"
           xlink:href="#c_01ee178938cf38c2d4d18ed1f41f722a" />
        <use
           id="use6726"
           x="687.012"
           y="0"
           width="576"
           height="432"
           xlink:href="#c_9ba5f7895f8afffb5c1e159e8b3594f8" />
      </g>
    </g>
  </g>
  <path
     d="M 382.733,78.6499 C 382.277,79.0373 381.839,79.3107 381.417,79.4702 C 380.995,79.6297 380.543,79.7095 380.06,79.7095 C 379.262,79.7095 378.65,79.5147 378.221,79.125 C 377.793,78.7354 377.579,78.2375 377.579,77.6314 C 377.579,77.2759 377.659,76.9512 377.821,76.6572 C 377.983,76.3633 378.195,76.1275 378.457,75.9497 C 378.719,75.772 379.014,75.6376 379.342,75.5464 C 379.584,75.4826 379.948,75.4211 380.436,75.3618 C 381.429,75.2434 382.161,75.1021 382.63,74.938 C 382.635,74.7694 382.637,74.6623 382.637,74.6167 C 382.637,74.1154 382.521,73.7622 382.289,73.5572 C 381.974,73.2792 381.507,73.1402 380.887,73.1402 C 380.308,73.1402 379.881,73.2416 379.605,73.4444 C 379.33,73.6472 379.126,74.0061 378.994,74.521 L 377.79,74.357 C 377.9,73.842 378.08,73.4261 378.331,73.1094 C 378.581,72.7927 378.943,72.5489 379.417,72.378 C 379.891,72.2071 380.441,72.1216 381.065,72.1216 C 381.685,72.1216 382.188,72.1945 382.576,72.3404 C 382.963,72.4862 383.248,72.6696 383.43,72.8906 C 383.612,73.1117 383.74,73.3908 383.813,73.7281 C 383.854,73.9377 383.874,74.3159 383.874,74.8628 L 383.874,76.5034 C 383.874,77.6473 383.901,78.3708 383.953,78.6739 C 384.005,78.9769 384.109,79.2674 384.264,79.5454 L 382.979,79.5454 C 382.851,79.2902 382.769,78.9917 382.733,78.6499 L 382.733,78.6499 z M 382.63,75.9019 C 382.184,76.0842 381.514,76.2391 380.621,76.3667 C 380.115,76.4396 379.757,76.5217 379.547,76.6128 C 379.338,76.704 379.176,76.8373 379.062,77.0127 C 378.948,77.1882 378.891,77.383 378.891,77.5972 C 378.891,77.9253 379.015,78.1988 379.264,78.4175 C 379.512,78.6363 379.875,78.7456 380.354,78.7456 C 380.828,78.7456 381.249,78.642 381.619,78.4346 C 381.988,78.2272 382.259,77.9435 382.432,77.5835 C 382.564,77.3055 382.63,76.8954 382.63,76.3531 L 382.63,75.9019 z M 385.789,79.5454 L 385.789,72.2857 L 386.896,72.2857 L 386.896,73.3179 C 387.429,72.5204 388.199,72.1216 389.207,72.1216 C 389.644,72.1216 390.046,72.2002 390.413,72.3574 C 390.78,72.5147 391.054,72.7209 391.237,72.9761 C 391.419,73.2313 391.547,73.5344 391.62,73.8853 C 391.665,74.1131 391.688,74.5119 391.688,75.0816 L 391.688,79.5454 L 390.457,79.5454 L 390.457,75.1294 C 390.457,74.6281 390.41,74.2533 390.314,74.0049 C 390.218,73.7565 390.048,73.5583 389.805,73.4102 C 389.561,73.2621 389.275,73.188 388.947,73.188 C 388.423,73.188 387.97,73.3544 387.59,73.687 C 387.209,74.0197 387.019,74.6509 387.019,75.5806 L 387.019,79.5454 L 385.789,79.5454 z M 398.319,78.6499 C 397.863,79.0373 397.424,79.3107 397.003,79.4702 C 396.581,79.6297 396.129,79.7095 395.646,79.7095 C 394.848,79.7095 394.235,79.5147 393.807,79.125 C 393.379,78.7354 393.165,78.2375 393.165,77.6314 C 393.165,77.2759 393.245,76.9512 393.407,76.6572 C 393.569,76.3633 393.781,76.1275 394.043,75.9497 C 394.305,75.772 394.6,75.6376 394.928,75.5464 C 395.17,75.4826 395.534,75.4211 396.022,75.3618 C 397.015,75.2434 397.747,75.1021 398.216,74.938 C 398.221,74.7694 398.223,74.6623 398.223,74.6167 C 398.223,74.1154 398.107,73.7622 397.874,73.5572 C 397.56,73.2792 397.093,73.1402 396.473,73.1402 C 395.894,73.1402 395.467,73.2416 395.191,73.4444 C 394.916,73.6472 394.712,74.0061 394.58,74.521 L 393.376,74.357 C 393.486,73.842 393.666,73.4261 393.916,73.1094 C 394.167,72.7927 394.529,72.5489 395.003,72.378 C 395.477,72.2071 396.026,72.1216 396.651,72.1216 C 397.271,72.1216 397.774,72.1945 398.162,72.3404 C 398.549,72.4862 398.834,72.6696 399.016,72.8906 C 399.198,73.1117 399.326,73.3908 399.399,73.7281 C 399.44,73.9377 399.46,74.3159 399.46,74.8628 L 399.46,76.5034 C 399.46,77.6473 399.487,78.3708 399.539,78.6739 C 399.591,78.9769 399.695,79.2674 399.85,79.5454 L 398.565,79.5454 C 398.437,79.2902 398.355,78.9917 398.319,78.6499 L 398.319,78.6499 z M 398.216,75.9019 C 397.77,76.0842 397.1,76.2391 396.207,76.3667 C 395.701,76.4396 395.343,76.5217 395.133,76.6128 C 394.924,76.704 394.762,76.8373 394.648,77.0127 C 394.534,77.1882 394.477,77.383 394.477,77.5972 C 394.477,77.9253 394.601,78.1988 394.85,78.4175 C 395.098,78.6363 395.461,78.7456 395.94,78.7456 C 396.414,78.7456 396.835,78.642 397.205,78.4346 C 397.574,78.2272 397.845,77.9435 398.018,77.5835 C 398.15,77.3055 398.216,76.8954 398.216,76.3531 L 398.216,75.9019 z M 401.347,79.5454 L 401.347,69.5239 L 402.578,69.5239 L 402.578,79.5454 L 401.347,79.5454 z M 404.034,75.9156 C 404.034,74.5712 404.407,73.5754 405.155,72.9282 C 405.779,72.3905 406.54,72.1216 407.438,72.1216 C 408.436,72.1216 409.252,72.4486 409.885,73.1026 C 410.519,73.7565 410.835,74.66 410.835,75.813 C 410.835,76.7473 410.695,77.4821 410.415,78.0176 C 410.135,78.5531 409.727,78.9689 409.191,79.2652 C 408.656,79.5614 408.071,79.7095 407.438,79.7095 C 406.422,79.7095 405.6,79.3836 404.974,78.732 C 404.347,78.0803 404.034,77.1415 404.034,75.9156 L 404.034,75.9156 z M 405.298,75.9156 C 405.298,76.8452 405.501,77.5414 405.907,78.0039 C 406.312,78.4665 406.823,78.6978 407.438,78.6978 C 408.049,78.6978 408.557,78.4654 408.962,78.0005 C 409.368,77.5357 409.571,76.827 409.571,75.8745 C 409.571,74.9768 409.367,74.2966 408.959,73.834 C 408.551,73.3714 408.044,73.1402 407.438,73.1402 C 406.823,73.1402 406.312,73.3703 405.907,73.8306 C 405.501,74.2909 405.298,74.9859 405.298,75.9156 L 405.298,75.9156 z M 412.059,80.147 L 413.255,80.3247 C 413.305,80.6939 413.444,80.9627 413.672,81.1314 C 413.978,81.3592 414.395,81.4732 414.923,81.4732 C 415.493,81.4732 415.933,81.3592 416.243,81.1314 C 416.553,80.9035 416.762,80.5845 416.872,80.1743 C 416.935,79.9237 416.965,79.3973 416.96,78.5952 C 416.423,79.2287 415.753,79.5454 414.951,79.5454 C 413.953,79.5454 413.18,79.1854 412.633,78.4654 C 412.086,77.7453 411.813,76.8817 411.813,75.8745 C 411.813,75.1818 411.938,74.5427 412.189,73.9571 C 412.44,73.3714 412.803,72.9191 413.279,72.6001 C 413.756,72.2811 414.315,72.1216 414.957,72.1216 C 415.814,72.1216 416.521,72.468 417.077,73.1607 L 417.077,72.2857 L 418.211,72.2857 L 418.211,78.5611 C 418.211,79.6913 418.096,80.4922 417.866,80.9639 C 417.636,81.4356 417.271,81.8081 416.772,82.0816 C 416.273,82.355 415.659,82.4917 414.93,82.4917 C 414.064,82.4917 413.365,82.2969 412.832,81.9072 C 412.298,81.5176 412.041,80.9308 412.059,80.147 L 412.059,80.147 z M 413.078,75.7857 C 413.078,76.7381 413.267,77.4331 413.645,77.8706 C 414.023,78.3081 414.497,78.5269 415.067,78.5269 C 415.632,78.5269 416.106,78.3093 416.489,77.874 C 416.872,77.4388 417.063,76.7564 417.063,75.8267 C 417.063,74.938 416.866,74.2681 416.472,73.8169 C 416.077,73.3658 415.602,73.1402 415.046,73.1402 C 414.499,73.1402 414.035,73.3623 413.652,73.8067 C 413.269,74.251 413.078,74.9107 413.078,75.7857 L 413.078,75.7857 z"
     id="text7267"
     style="font-size:14px;font-style:normal;font-weight:normal;fill:#000000;fill-opacity:1;stroke:none;stroke-width:1px;stroke-linecap:butt;stroke-linejoin:miter;stroke-opacity:1;font-family:Bitstream Vera Sans" />
</svg>
