<?xml version="1.0" encoding="UTF-8" standalone="no"?>
<!DOCTYPE svg PUBLIC "-//W3C//DTD SVG 1.0//EN" "http://www.w3.org/TR/2001/REC-SVG-20010904/DTD/svg10.dtd">
<!-- Created with Inkscape (http://www.inkscape.org/) -->
<svg xmlns="http://www.w3.org/2000/svg" xmlns:xlink="http://www.w3.org/1999/xlink" version="1.0" x="0.0000000" y="0.0000000" width="180.00000" height="180.00000" id="svg1">
  <defs id="defs3">
    <linearGradient id="linearGradient4680">
      <stop style="stop-color:#dfdfdf;stop-opacity:1.0000000;" offset="0.0000000" id="stop4681"/>
      <stop style="stop-color:#ffffff;stop-opacity:1.0000000;" offset="1.0000000" id="stop4682"/>
    </linearGradient>
    <radialGradient cx="133.31841" cy="133.55470" r="21.845400" fx="133.31841" fy="133.55470" id="radialGradient4677" gradientUnits="userSpaceOnUse">
      <stop style="stop-color:#181884;stop-opacity:1.0000000;" offset="0.0000000" id="stop4678"/>
      <stop style="stop-color:#4949b9;stop-opacity:1.0000000;" offset="1.0000000" id="stop4679"/>
    </radialGradient>
    <radialGradient cx="133.31841" cy="133.55470" r="21.845400" fx="133.31841" fy="133.55470" id="radialGradient4641" gradientUnits="userSpaceOnUse">
      <stop style="stop-color:#7542aa;stop-opacity:1.0000000;" offset="0.0000000" id="stop4642"/>
      <stop style="stop-color:#7000b0;stop-opacity:1.0000000;" offset="1.0000000" id="stop4643"/>
    </radialGradient>
    <linearGradient id="linearGradient1950">
      <stop style="stop-color:#110b85;stop-opacity:1.0000000;" offset="0.0000000" id="stop1951"/>
      <stop style="stop-color:#aca9e2;stop-opacity:1.0000000;" offset="1.0000000" id="stop1952"/>
    </linearGradient>
    <radialGradient cx="133.31841" cy="133.55470" r="21.845400" fx="133.31841" fy="133.55470" id="radialGradient11404" gradientUnits="userSpaceOnUse">
      <stop style="stop-color:#9454d6;stop-opacity:1.0000000;" offset="0.0000000" id="stop11406"/>
      <stop style="stop-color:#5b008e;stop-opacity:1.0000000;" offset="1.0000000" id="stop11413"/>
    </radialGradient>
    <radialGradient cx="133.31841" cy="133.55470" r="21.845400" fx="133.31841" fy="133.55470" id="radialGradient11386" gradientUnits="userSpaceOnUse">
      <stop style="stop-color:#6969b9;stop-opacity:1.0000000;" offset="0.0000000" id="stop11388"/>
      <stop style="stop-color:#4949b9;stop-opacity:1.0000000;" offset="1.0000000" id="stop11400"/>
    </radialGradient>
    <radialGradient cx="133.31841" cy="133.55470" r="21.845400" fx="133.31841" fy="133.55470" id="aigrd10" gradientUnits="userSpaceOnUse">
      <stop style="stop-color:#ffffff;stop-opacity:1.0000000;" offset="0.0000000" id="stop6233"/>
      <stop style="stop-color:#d6ffb1;stop-opacity:1.0000000;" offset="0.088100001" id="stop6235"/>
      <stop style="stop-color:#aeff66;stop-opacity:1.0000000;" offset="0.17960000" id="stop6237"/>
      <stop style="stop-color:#92ff2f;stop-opacity:1.0000000;" offset="0.25560001" id="stop6239"/>
      <stop style="stop-color:#80ff0d;stop-opacity:1.0000000;" offset="0.31209999" id="stop6241"/>
      <stop style="stop-color:#79ff00;stop-opacity:1.0000000;" offset="0.34270000" id="stop6243"/>
      <stop style="stop-color:#008300;stop-opacity:1.0000000;" offset="1.0000000" id="stop6245"/>
    </radialGradient>
    <linearGradient x1="0.27052844" y1="-0.17698607" x2="0.74302948" y2="1.1761287" id="linearGradient11385" xlink:href="#radialGradient11386"/>
    <linearGradient x1="-179.19104" y1="90.119766" x2="-198.43378" y2="54.748360" id="linearGradient1953" xlink:href="#linearGradient1950" gradientUnits="userSpaceOnUse" gradientTransform="scale(0.905311,1.104593)"/>
    <linearGradient x1="-244.23773" y1="9.1394253" x2="-256.38763" y2="-33.951046" id="linearGradient1957" xlink:href="#linearGradient1950" gradientUnits="userSpaceOnUse" gradientTransform="scale(0.909282,1.099769)"/>
    <linearGradient x1="172.28047" y1="38.940964" x2="32.318054" y2="133.96558" id="linearGradient4539" xlink:href="#radialGradient4677" gradientUnits="userSpaceOnUse" gradientTransform="scale(0.914156,1.093905)"/>
    <linearGradient x1="31.456532" y1="278.96948" x2="19.112892" y2="275.60028" id="linearGradient4631" xlink:href="#radialGradient11404" gradientUnits="userSpaceOnUse" gradientTransform="matrix(2.238052,0.000000,0.000000,0.446817,0.854260,-0.459986)" spreadMethod="reflect"/>
    <linearGradient x1="111.58600" y1="234.83861" x2="97.559563" y2="230.40222" id="linearGradient4640" xlink:href="#radialGradient4641" gradientUnits="userSpaceOnUse" gradientTransform="matrix(2.238052,0.000000,0.000000,0.446817,-151.7078,2.281253)" spreadMethod="reflect"/>
    <linearGradient x1="144.46248" y1="150.61409" x2="66.349022" y2="165.79967" id="linearGradient4683" xlink:href="#linearGradient4680" gradientUnits="userSpaceOnUse" gradientTransform="scale(1.072116,0.932735)"/>
  </defs>
  <path d="M 37.325650,64.342006 L 48.707639,89.492954 L 51.174018,87.925522 L 56.563724,99.835238 L 51.419562,103.10445 L 60.592107,123.37316 L 63.269890,121.67138 L 86.803825,173.67466 L 172.91568,118.94891 L 145.36458,58.068826 L 134.97014,55.149862 L 138.66929,43.274149 L 131.23752,26.852060 L 105.18631,21.215255 L 37.325650,64.342006 z " style="opacity:0.31999996;fill:#000000;fill-opacity:1.0000000;fill-rule:evenodd;stroke:none;stroke-width:0.85741091pt;stroke-linecap:butt;stroke-linejoin:miter;stroke-opacity:1.0000000" id="Shadow"/>
  <path d="M -243.36427,-32.472380 L -243.36427,-21.847380 L -242.27052,-21.847380 L -242.27052,-8.3473802 L -243.36427,-8.3473802 L -243.36427,13.715119 L -205.17677,13.715119 L -205.17677,-12.003630 L -208.30177,-15.128630 L -205.17677,-18.253630 L -205.17677,-25.191130 L -213.27052,-32.472380 L -243.36427,-32.472380 z " transform="matrix(2.254975,-1.433080,1.071246,2.367148,606.8463,-212.7134)" style="fill:url(#linearGradient1957);fill-opacity:1.0000000;fill-rule:evenodd;stroke:none;stroke-width:0.85741091pt;stroke-linecap:butt;stroke-linejoin:miter;stroke-opacity:1.0000000" id="Side"/>
  <path d="M -244.58080,-16.821804 L -244.58080,-8.2436352 L -242.21035,-8.2436352 L -241.55023,-15.909522 L -242.21035,-16.821804 L -244.58080,-16.821804 z " transform="matrix(2.254975,-1.433080,1.071246,2.367148,606.8463,-212.7134)" style="fill:#e5e750;fill-opacity:1.0000000;fill-rule:evenodd;stroke:none;stroke-width:1.0000000pt;stroke-linecap:butt;stroke-linejoin:miter;stroke-opacity:1.0000000" id="SwitchSide"/>
  <g transform="matrix(2.254975,-1.433080,1.071246,2.367148,186.1343,-364.4353)" id="Front">
    <path d="M -121.33630,106.09448 L -121.18750,116.40625 L -120.09375,116.40625 L -120.09375,129.90625 L -121.18750,129.90625 L -121.18750,151.96875 L -83.000000,151.96875 L -83.000000,126.25000 L -86.125000,123.12500 L -83.000000,120.00000 L -83.000000,113.06250 L -90.584929,106.49261 L -121.33630,106.09448 z " style="fill:url(#linearGradient11385);fill-opacity:1.0000000;fill-rule:evenodd;stroke:none;stroke-width:0.85741091pt;stroke-linecap:butt;stroke-linejoin:miter;stroke-opacity:1.0000000" id="path6227"/>
    <rect width="2.3704436" height="8.5781689" rx="1.8820801" ry="0.0000000" x="-122.40402" y="121.43182" style="fill:#f4ff00;fill-opacity:1.0000000;fill-rule:evenodd;stroke:none;stroke-width:1.0000000pt;stroke-linecap:butt;stroke-linejoin:miter;stroke-opacity:1.0000000" id="rect6228"/>
  </g>
  <path d="M 119.86483,23.234871 C 121.43484,103.99019 52.930421,83.277940 73.802331,166.39112 L 75.427331,169.98487 L 161.52108,115.32862 L 133.98983,54.453621 L 123.58358,51.516122 L 127.30233,39.641122 L 119.86483,23.234871 z " style="opacity:0.18442620;fill:url(#linearGradient4539);fill-opacity:1.0000000;fill-rule:evenodd;stroke:none;stroke-width:0.85741091pt;stroke-linecap:butt;stroke-linejoin:miter;stroke-opacity:1.0000000" id="shaded_curve"/>
  <g id="Label">
    <g transform="matrix(3.816338,-2.425356,1.994055,4.406292,382.3039,-278.9697)" style="fill:#ffffff;fill-opacity:1.0000000;stroke:#09007f;stroke-width:0.091857225;stroke-miterlimit:4.0000000;stroke-opacity:1.0000000" id="g4562">
      <path d="M -98.056011,27.714734 C -97.637662,27.752188 -97.205773,27.734351 -96.786541,27.731559 C -95.998769,27.716693 -95.133086,27.748961 -94.376377,27.501273 C -94.053281,27.371502 -93.662194,27.115857 -93.985900,26.768962 C -94.591207,26.240748 -95.484814,26.153809 -96.248244,26.055453 C -96.976475,25.965842 -98.255743,25.984503 -98.603192,25.186707 C -98.754631,24.476704 -98.034573,23.998632 -97.491464,23.718686 C -96.509751,23.266678 -95.443171,23.020614 -94.371700,22.903603 C -93.826327,22.859020 -93.307555,22.871676 -92.770371,22.982610 L -93.238325,23.679729 C -93.539203,23.611396 -93.827106,23.610293 -94.134201,23.631450 C -94.977712,23.712559 -95.829389,23.900855 -96.598758,24.262638 C -96.872441,24.407815 -97.316586,24.652696 -97.294738,25.022640 C -97.239004,25.308119 -96.169465,25.314696 -95.953315,25.342713 C -94.856097,25.489609 -93.653021,25.665370 -92.806104,26.442058 C -92.113526,27.261132 -92.991998,27.875837 -93.741166,28.152193 C -94.710790,28.444134 -95.745450,28.444085 -96.750442,28.477641 C -97.183135,28.487351 -97.624459,28.461145 -98.056011,28.499781 L -98.056011,27.714734 z " style="fill-rule:nonzero;stroke-linecap:butt;stroke-linejoin:miter" id="path4563"/>
      <path d="M -92.598497,23.032574 C -92.169429,22.695273 -91.629810,22.854765 -91.160757,22.992124 C -90.599099,23.167302 -90.048767,23.372302 -89.503200,23.592121 C -88.944751,23.820991 -88.331482,24.012444 -87.897100,24.450054 C -87.491131,24.941107 -87.598402,25.428354 -87.962052,25.908356 C -88.466014,26.522924 -89.060510,27.058104 -89.660914,27.576280 C -90.326131,28.125492 -91.209870,28.459716 -91.944678,27.801047 C -92.384878,27.321115 -92.714470,26.678930 -92.806132,26.031563 C -92.827002,25.586214 -92.651532,25.271533 -92.310712,24.993375 L -91.222600,25.430386 C -91.415035,25.572639 -91.496987,25.739363 -91.497382,25.979679 C -91.444558,26.494589 -91.176493,27.030553 -90.813818,27.398465 C -90.733670,27.469111 -91.087586,27.379538 -91.198053,27.440329 C -91.351369,27.524701 -90.890761,27.269999 -90.752297,27.162985 C -90.184921,26.700856 -89.622192,26.209050 -89.174470,25.626877 C -88.993319,25.366651 -88.861110,25.092534 -89.074256,24.812442 C -89.368138,24.491798 -89.889804,24.363332 -90.278981,24.203156 C -90.769377,24.005069 -91.264070,23.823263 -91.772288,23.675985 C -92.388895,23.508329 -91.720880,23.685846 -91.385770,23.417920 L -92.598497,23.032574 z " style="fill-rule:nonzero;stroke-linecap:butt;stroke-linejoin:miter" id="path4564"/>
    </g>
    <g id="g4644">
      <path d="M 82.334028,103.42015 L 70.221553,111.38257 C 63.939573,115.37489 61.268493,123.91310 64.252803,130.50757 L 66.159053,134.72632 L 70.565303,131.94507 C 70.624963,131.40212 70.586623,130.75521 70.659053,130.22632 C 71.098963,127.01407 71.762143,124.04077 72.627803,121.28882 C 73.493463,118.53687 74.539243,115.99322 75.752803,113.60132 C 76.966363,111.20942 78.331703,108.98341 79.815303,106.85132 C 80.561273,105.77928 81.534578,104.44555 82.334028,103.42015 z " style="fill:url(#linearGradient4631);fill-opacity:1.0000000;fill-rule:evenodd;stroke:none;stroke-width:1.1625000;stroke-linecap:butt;stroke-linejoin:miter;stroke-miterlimit:4.0000000;stroke-opacity:1.0000000" id="path4596"/>
      <path d="M 80.509144,104.65712 C 79.709694,105.68252 79.440275,106.67883 78.694305,107.75087 C 77.210705,109.88296 76.568200,111.45185 75.354640,113.84375 C 74.141080,116.23565 73.095300,118.77930 72.229640,121.53125 C 71.363980,124.28320 70.700800,127.25650 70.260890,130.46875 C 70.188460,130.99764 70.226800,131.64455 70.167140,132.18750 L 142.76089,86.062503 L 140.85464,81.812503 C 137.87031,75.218033 130.38663,73.132680 124.10464,77.125003 L 80.509144,104.65712 z " style="fill:url(#linearGradient4640);fill-opacity:1.0000000;fill-rule:evenodd;stroke:none;stroke-width:1.1625000;stroke-linecap:butt;stroke-linejoin:miter;stroke-miterlimit:4.0000000;stroke-opacity:1.0000000" id="path4566"/>
      <path d="M 70.176393,132.13292 L 66.176393,134.66417 L 70.444324,143.94682 C 70.401654,143.06093 69.753313,141.11194 69.738893,140.25792 C 69.689453,137.32977 69.917223,134.71666 70.176393,132.13292 z " style="fill:#ffffff;fill-opacity:1.0000000;fill-rule:evenodd;stroke:none;stroke-width:1.1625000;stroke-linecap:butt;stroke-linejoin:miter;stroke-miterlimit:4.0000000;stroke-opacity:1.0000000" id="path4602"/>
      <path d="M 70.121547,132.15554 C 69.864911,134.71208 69.639368,137.29769 69.688324,140.19501 C 69.702607,141.04005 70.008020,142.21577 70.050272,143.09234 L 73.092205,149.93517 C 76.047357,156.46025 83.426907,158.55455 89.647457,154.60425 L 143.42879,120.43643 C 149.64935,116.48615 152.26335,108.06874 149.30822,101.54366 L 142.40762,86.268623 L 70.121547,132.15554 z " style="fill:url(#linearGradient4683);fill-opacity:1.0000000;fill-rule:evenodd;stroke:none;stroke-width:1.1549882;stroke-linecap:butt;stroke-linejoin:miter;stroke-miterlimit:4.0000000;stroke-opacity:1.0000000" id="path4567"/>
    </g>
  </g>
  <path d="M -181.79656,97.357465 L -183.32855,96.336136 L -183.41366,80.845981 L -184.34988,79.994874 L -184.34988,73.186014 L -182.39233,72.845571 L -182.47744,70.292249 L -183.32854,69.356030 L -183.41365,61.270510 L -159.24221,58.036301 L -152.34824,63.142946 L -152.34824,68.930476 L -154.73134,71.483799 L -152.43335,73.781789 L -152.60357,92.931707 L -181.79656,97.357465 z " transform="matrix(3.115280,-1.409809,1.409810,3.115278,505.5709,-390.6712)" style="fill:none;fill-opacity:0.75000000;fill-rule:evenodd;stroke:url(#linearGradient1953);stroke-width:1.0000000pt;stroke-linecap:butt;stroke-linejoin:miter;stroke-opacity:1.0000000" id="Outline"/>
</svg>