<?xml version="1.0" encoding="UTF-8" standalone="no"?>
<!-- Created with Inkscape (http://www.inkscape.org/) -->

<svg
   version="1.1"
   id="svg2"
   xml:space="preserve"
   width="234.33279"
   height="68.268013"
   viewBox="0 0 234.3328 68.267998"
   sodipodi:docname="bootlin-logo.svg"
   inkscape:version="0.92.3 (2405546, 2018-03-11)"
   inkscape:export-filename="bootlin-logo.png"
   inkscape:export-xdpi="54.021206"
   inkscape:export-ydpi="54.021206"
   xmlns:inkscape="http://www.inkscape.org/namespaces/inkscape"
   xmlns:sodipodi="http://sodipodi.sourceforge.net/DTD/sodipodi-0.dtd"
   xmlns="http://www.w3.org/2000/svg"
   xmlns:svg="http://www.w3.org/2000/svg"
   xmlns:rdf="http://www.w3.org/1999/02/22-rdf-syntax-ns#"
   xmlns:cc="http://creativecommons.org/ns#"
   xmlns:dc="http://purl.org/dc/elements/1.1/"><metadata
     id="metadata8"><rdf:RDF><cc:Work
         rdf:about=""><dc:format>image/svg+xml</dc:format><dc:type
           rdf:resource="http://purl.org/dc/dcmitype/StillImage" /></cc:Work></rdf:RDF></metadata><defs
     id="defs6" /><sodipodi:namedview
     pagecolor="#ffffff"
     bordercolor="#666666"
     borderopacity="1"
     objecttolerance="10"
     gridtolerance="10"
     guidetolerance="10"
     inkscape:pageopacity="0"
     inkscape:pageshadow="2"
     inkscape:window-width="1920"
     inkscape:window-height="966"
     id="namedview4"
     showgrid="false"
     inkscape:zoom="4.6143112"
     inkscape:cx="84.990352"
     inkscape:cy="52.400271"
     inkscape:window-x="0"
     inkscape:window-y="35"
     inkscape:window-maximized="1"
     inkscape:current-layer="g12"
     inkscape:measure-start="0,0"
     inkscape:measure-end="0,0"
     fit-margin-top="15"
     fit-margin-left="25"
     fit-margin-right="25"
     fit-margin-bottom="25"
     inkscape:showpageshadow="2"
     inkscape:pagecheckerboard="0"
     inkscape:deskcolor="#d1d1d1"><inkscape:page
       x="0"
       y="0"
       width="234.33279"
       height="68.267998"
       id="page2"
       margin="0"
       bleed="0" /></sodipodi:namedview><g
     id="g10"
     inkscape:groupmode="layer"
     inkscape:label="ink_ext_XXXXXX"
     transform="matrix(1.3333333,0,0,-1.3333333,-18.455201,104.80707)"><g
       id="g12"
       transform="scale(0.1)"><g
         id="g1979"><path
           inkscape:connector-curvature="0"
           id="path14"
           style="fill:#231f20;fill-opacity:1;fill-rule:nonzero;stroke:none"
           d="M 333.832,334.824 C 364.512,360.391 376.441,394.473 375.875,431.402 375.305,446.172 371.895,461.508 367.355,473.441 350.879,512.637 310.543,534.223 270.211,534.223 218.516,531.953 179.883,496.734 179.883,446.738 V 401.863 C 179.883,346.191 223.629,313.242 275.32,313.242 296.91,314.941 317.359,321.758 333.832,334.824 Z M 325.879,284.27 326.449,284.836 C 308.84,277.449 289.52,274.043 271.914,274.043 237.828,274.043 198.063,288.809 178.746,324.031 V 297.336 C 178.746,284.836 172.5,277.449 159.434,277.449 146.367,277.449 138.414,284.836 138.414,297.336 V 640.461 C 138.414,666.586 179.883,666.586 179.883,640.461 V 527.406 C 196.926,557.516 233.852,573.422 271.914,573.422 357.125,573.422 415.066,512.637 417.344,431.969 419.047,366.074 387.805,309.836 325.879,284.27" /><path
           inkscape:connector-curvature="0"
           id="path16"
           style="fill:#231f20;fill-opacity:1;fill-rule:nonzero;stroke:none"
           d="M 619.547,535.93 C 608.75,535.93 597.961,534.223 589.438,531.953 541.719,519.453 513.883,475.145 513.883,424.02 513.883,398.457 521.836,371.758 538.879,351.863 558.762,328.008 588.867,314.375 620.113,314.375 650.793,314.375 682.035,329.148 701.918,351.863 717.82,371.184 726.914,398.457 726.914,422.883 726.914,474.574 699.078,519.453 650.793,531.953 641.699,534.223 630.336,535.93 619.547,535.93 Z M 506.492,326.875 C 480.934,356.98 470.137,393.34 471.84,435.945 477.523,499.004 514.449,551.836 576.938,569.449 590.57,573.422 605.906,574.563 620.113,574.563 633.746,574.563 647.383,573.422 662.152,569.449 724.07,551.836 762.699,499.57 767.813,435.945 770.09,393.34 758.727,356.98 733.73,326.875 705.895,293.359 664.988,275.742 620.113,275.742 574.668,275.742 534.332,293.359 506.492,326.875" /><path
           inkscape:connector-curvature="0"
           id="path18"
           style="fill:#231f20;fill-opacity:1;fill-rule:nonzero;stroke:none"
           d="M 965.469,535.93 C 954.672,535.93 943.883,534.223 935.359,531.953 887.641,519.453 859.805,475.145 859.805,424.02 859.805,398.457 867.758,371.758 884.801,351.863 904.684,328.008 934.789,314.375 966.035,314.375 996.715,314.375 1027.96,329.148 1047.84,351.863 1063.75,371.184 1072.83,398.457 1072.83,422.883 1072.83,474.574 1045,519.453 996.715,531.953 987.621,534.223 976.262,535.93 965.469,535.93 Z M 852.418,326.875 C 826.855,356.98 816.059,393.34 817.766,435.945 823.445,499.004 860.371,551.836 922.859,569.449 936.492,573.422 951.836,574.563 966.035,574.563 979.668,574.563 993.305,573.422 1008.08,569.449 1070,551.836 1108.62,499.57 1113.74,435.945 1116.01,393.34 1104.65,356.98 1079.65,326.875 1051.82,293.359 1010.91,275.742 966.035,275.742 920.59,275.742 880.254,293.359 852.418,326.875" /><path
           inkscape:connector-curvature="0"
           id="path20"
           style="fill:#231f20;fill-opacity:1;fill-rule:nonzero;stroke:none"
           d="M 1294.35,570.016 C 1319.91,570.016 1319.91,534.223 1294.35,534.223 H 1232.43 V 380.84 C 1232.43,348.457 1237.54,314.375 1276.17,314.375 1284.69,314.375 1297.19,317.219 1302.87,320.625 1326.73,334.258 1345.48,300.742 1319.91,286.543 1305.71,278.586 1291.5,276.887 1276.17,276.887 1208,276.887 1191.52,326.875 1191.52,380.84 V 534.223 H 1154.03 C 1127.33,534.223 1129.03,570.016 1154.03,570.016 H 1191.52 V 635.914 C 1191.52,663.18 1232.43,662.613 1232.43,635.914 V 570.016 H 1294.35" /><path
           inkscape:connector-curvature="0"
           id="path22"
           style="fill:#231f20;fill-opacity:1;fill-rule:nonzero;stroke:none"
           d="M 1424.99,297.898 C 1424.99,287.109 1415.9,278.586 1404.53,278.586 1392.04,278.586 1383.52,287.109 1383.52,297.898 V 638.754 C 1383.52,649.547 1392.04,658.066 1404.53,658.066 1415.9,658.066 1424.99,649.547 1424.99,638.754 V 297.898" /><path
           inkscape:connector-curvature="0"
           id="path848"
           d="M 1498.25,551.27 C 1498.25,575.691 1539.73,576.266 1539.73,551.836 V 295.625 C 1539.73,270.637 1498.25,271.199 1498.25,295.625 V 551.27"
           style="fill:#231f20;fill-opacity:1;fill-rule:nonzero;stroke:none" /><path
           inkscape:connector-curvature="0"
           id="path26"
           style="fill:#231f20;fill-opacity:1;fill-rule:nonzero;stroke:none"
           d="M 1854.43,447.875 C 1854.43,500.141 1812.39,536.5 1766.39,536.5 1711.28,536.5 1659.58,491.051 1659.58,429.133 V 297.336 C 1659.58,284.836 1652.2,277.449 1639.13,277.449 1626.06,277.449 1617.55,284.836 1617.55,297.336 V 551.836 C 1617.55,577.969 1658.45,578.535 1658.45,551.27 V 516.047 C 1678.9,557.516 1722.64,575.129 1766.95,575.129 1832.85,575.129 1895.91,529.684 1895.91,447.875 V 297.336 C 1895.91,284.836 1888.52,277.449 1875.46,277.449 1862.96,277.449 1854.43,284.836 1854.43,297.336 V 447.875" /><path
           inkscape:connector-curvature="0"
           id="path855"
           d="M 1497.2164,611.57262 C 1497.1844,611.66082 1496.6979,613.61005 1496.1361,615.90417 1489.8291,641.66157 1485.8956,669.94784 1484.5175,699.45497 1484.1074,708.2354 1484.0149,712.6068 1484.0122,723.32663 1484.0122,737.68489 1484.3382,747.13996 1485.2919,760.03252 1485.7288,765.9384 1486.7364,776.00723 1486.965,776.75127 1487.057,777.05114 1487.3351,777.16149 1491.7647,778.65676 1518.6943,787.74727 1546.1623,788.46428 1572.877,780.77407 1586.7198,776.78923 1600.883,770.12309 1611.013,762.8248 L 1612.2506,761.93314 1611.4838,760.24486 C 1602.9759,741.51204 1594.375,725.59657 1583.4873,708.43893 1562.9148,676.01917 1536.6187,645.05566 1509.4117,621.21515 1505.1624,617.49163 1497.7086,611.41219 1497.3927,611.41219 1497.3277,611.41219 1497.2488,611.48419 1497.2164,611.57261 Z"
           style="fill:#ff631a;fill-opacity:1;stroke-width:0.128342" /></g></g></g></svg>
