<?xml version="1.0" encoding="UTF-8" standalone="no"?>
<!-- Created with Inkscape (http://www.inkscape.org/) -->

<svg
   width="461.73743"
   height="444.6387"
   id="svg2"
   sodipodi:version="0.32"
   inkscape:version="1.4 (e7c3feb100, 2024-10-09)"
   sodipodi:docname="logo-square.svg"
   inkscape:output_extension="org.inkscape.output.svg.inkscape"
   inkscape:export-filename="/home/mike/intragit/conferences/template/common/logo-square.png"
   inkscape:export-xdpi="96"
   inkscape:export-ydpi="96"
   version="1.0"
   xmlns:inkscape="http://www.inkscape.org/namespaces/inkscape"
   xmlns:sodipodi="http://sodipodi.sourceforge.net/DTD/sodipodi-0.dtd"
   xmlns="http://www.w3.org/2000/svg"
   xmlns:svg="http://www.w3.org/2000/svg"
   xmlns:rdf="http://www.w3.org/1999/02/22-rdf-syntax-ns#"
   xmlns:cc="http://creativecommons.org/ns#"
   xmlns:dc="http://purl.org/dc/elements/1.1/">
  <defs
     id="defs4">
    <inkscape:perspective
       sodipodi:type="inkscape:persp3d"
       inkscape:vp_x="0 : 526.18109 : 1"
       inkscape:vp_y="0 : 1000 : 0"
       inkscape:vp_z="744.09448 : 526.18109 : 1"
       inkscape:persp3d-origin="372.04724 : 350.78739 : 1"
       id="perspective10" />
    <clipPath
       id="clipPath36"
       clipPathUnits="userSpaceOnUse">
      <path
         style="clip-rule:evenodd"
         inkscape:connector-curvature="0"
         id="path34"
         d="m 1487.04,776.914 c 72.39,27.117 125.32,-15.066 125.32,-15.066 -43.99,-98.914 -115,-150.703 -115,-150.703 -21.82,84.617 -10.32,165.769 -10.32,165.769" />
    </clipPath>
    <clipPath
       id="clipPath42"
       clipPathUnits="userSpaceOnUse">
      <path
         inkscape:connector-curvature="0"
         id="path40"
         d="m 1481.49,608.77 h 132.461 V 788.809 H 1481.49 Z" />
    </clipPath>
    <clipPath
       id="clipPath48"
       clipPathUnits="userSpaceOnUse">
      <path
         inkscape:connector-curvature="0"
         id="path46"
         d="m 1556.85,670.953 h -70.12 c -6.29,59.379 0.31,105.961 0.31,105.961 17.61,6.598 34.07,9.094 48.89,9.094 46.12,0 76.43,-24.16 76.43,-24.16 -16.44,-36.961 -36.64,-67.336 -55.51,-90.895" />
    </clipPath>
    <clipPath
       id="clipPath60"
       clipPathUnits="userSpaceOnUse">
      <path
         style="clip-rule:evenodd"
         inkscape:connector-curvature="0"
         id="path58"
         d="m 1487.04,776.914 c 72.39,27.117 125.32,-15.066 125.32,-15.066 -43.99,-98.914 -115,-150.703 -115,-150.703 -21.82,84.617 -10.32,165.769 -10.32,165.769" />
    </clipPath>
    <clipPath
       id="clipPath66"
       clipPathUnits="userSpaceOnUse">
      <path
         inkscape:connector-curvature="0"
         id="path64"
         d="m 1481.49,608.77 h 132.461 V 788.809 H 1481.49 Z" />
    </clipPath>
    <clipPath
       id="clipPath72"
       clipPathUnits="userSpaceOnUse">
      <path
         inkscape:connector-curvature="0"
         id="path70"
         d="m 1497.36,611.145 c -5.29,20.507 -8.62,40.812 -10.63,59.808 h 70.12 c -31.63,-39.488 -59.49,-59.808 -59.49,-59.808" />
    </clipPath>
    <clipPath
       clipPathUnits="userSpaceOnUse"
       id="clipPath3971">
      <rect
         id="rect3973"
         width="457.73743"
         height="440.63873"
         x="808.1748"
         y="214.99738" />
    </clipPath>
  </defs>
  <sodipodi:namedview
     id="base"
     pagecolor="#ffffff"
     bordercolor="#666666"
     borderopacity="1.0"
     gridtolerance="10000"
     guidetolerance="10"
     objecttolerance="10"
     inkscape:pageopacity="0.0"
     inkscape:pageshadow="2"
     inkscape:zoom="1.979899"
     inkscape:cx="195.71705"
     inkscape:cy="222.73863"
     inkscape:document-units="px"
     inkscape:current-layer="layer1"
     showgrid="false"
     inkscape:window-width="2304"
     inkscape:window-height="1371"
     inkscape:window-x="0"
     inkscape:window-y="0"
     inkscape:window-maximized="1"
     fit-margin-top="0"
     fit-margin-left="0"
     fit-margin-right="0"
     fit-margin-bottom="0"
     showguides="false"
     inkscape:showpageshadow="2"
     inkscape:pagecheckerboard="0"
     inkscape:deskcolor="#d1d1d1" />
  <metadata
     id="metadata7">
    <rdf:RDF>
      <cc:Work
         rdf:about="">
        <dc:format>image/svg+xml</dc:format>
        <dc:type
           rdf:resource="http://purl.org/dc/dcmitype/StillImage" />
        <dc:title />
      </cc:Work>
    </rdf:RDF>
  </metadata>
  <g
     inkscape:label="Layer 1"
     inkscape:groupmode="layer"
     id="layer1"
     transform="translate(-806.1748,-212.99738)">
    <g
       id="g852"
       transform="matrix(0.99609659,0,0,1.0087332,42.746995,-25.780637)">
      <ellipse
         id="path3205"
         style="display:inline;overflow:visible;visibility:visible;fill:#ffffff;fill-opacity:1;fill-rule:nonzero;stroke:#000000;stroke-width:5.08497;stroke-linecap:butt;stroke-linejoin:miter;stroke-miterlimit:4;stroke-dasharray:none;stroke-dashoffset:0;stroke-opacity:1;marker:none"
         cx="1020.3005"
         cy="505.43073"
         rx="75.27742"
         ry="99.89109" />
      <path
         sodipodi:nodetypes="cccc"
         id="path3203"
         d="M 1030.8934,485.45341 C 1022.8353,503.62622 1015.4203,510.85049 1004.0251,520.21442 1000.4335,505.7612 999.04698,499.50874 1001.0094,481.72164 1008.3195,479.61088 1016.4783,475.99796 1030.8934,485.45341 Z"
         style="fill:#ff641a;fill-opacity:1;fill-rule:evenodd;stroke:#000000;stroke-width:5.08497;stroke-linecap:butt;stroke-linejoin:miter;stroke-miterlimit:4;stroke-dasharray:none;stroke-opacity:1"
         inkscape:connector-curvature="0" />
      <path
         sodipodi:nodetypes="cccc"
         id="path3168"
         d="M 1092.9006,479.96093 C 1097.1633,487.21299 1118.7563,508.65995 1119.6204,538.19646 1120.3039,553.23622 1094.7542,505.9632 1091.3591,538.94308 1093.5111,522.13869 1091.3471,504.97572 1092.9006,479.96093 Z"
         style="fill:#000000;fill-opacity:1;fill-rule:evenodd;stroke:none;stroke-width:0.495177"
         inkscape:connector-curvature="0" />
      <path
         sodipodi:nodetypes="cccc"
         id="path3170"
         d="M 947.5869,479.07033 C 944.16323,487.18355 926.81996,511.17728 926.126,544.22117 925.57695,561.04687 946.09814,508.16029 948.82503,545.05645 947.09655,526.25658 948.83503,507.05556 947.5869,479.07033 Z"
         style="fill:#000000;fill-opacity:1;fill-rule:evenodd;stroke:none;stroke-width:0.495177"
         inkscape:connector-curvature="0" />
      <path
         sodipodi:nodetypes="csssc"
         id="path3178"
         d="M 1009.4863,602.86671 C 1011.904,612.33434 999.85121,616.292 985.91393,618.58162 967.90733,621.53973 956.33496,613.70905 963.14748,598.03136 969.57803,583.23267 981.30118,571.42192 991.55518,581.51056 1002.1305,591.91532 998.49373,589.27468 1009.4863,602.86671 Z"
         style="display:inline;overflow:visible;visibility:visible;fill:#ff641a;fill-opacity:1;fill-rule:nonzero;stroke:#000000;stroke-width:4.78676;stroke-linecap:butt;stroke-linejoin:miter;stroke-miterlimit:4;stroke-dasharray:none;stroke-dashoffset:0;stroke-opacity:1;marker:none"
         inkscape:connector-curvature="0" />
      <path
         sodipodi:nodetypes="csssc"
         id="path3181"
         d="M 1023.4819,608.33801 C 1020.9135,618.3958 1033.7177,622.60018 1048.5237,625.03251 1067.6528,628.17502 1079.9465,619.85622 1072.7094,603.20124 1065.878,587.48006 1053.424,574.93309 1042.5308,585.65061 1031.2963,596.70397 1035.1598,593.8987 1023.4819,608.33801 Z"
         style="display:inline;overflow:visible;visibility:visible;fill:#f56019;fill-opacity:1;fill-rule:nonzero;stroke:#000000;stroke-width:5.08514;stroke-linecap:butt;stroke-linejoin:miter;stroke-miterlimit:4;stroke-dasharray:none;stroke-dashoffset:0;stroke-opacity:1;marker:none"
         inkscape:connector-curvature="0" />
      <path
         id="path3245"
         d="M 984.35691,466.11316 C 981.89547,465.27681 980.58477,463.02295 980.44228,459.38164 980.23456,454.07347 982.42359,450.86349 986.36245,450.70033 988.76652,450.60073 991.05557,452.17983 991.82207,454.4666 992.31258,455.93002 992.5333,458.61136 992.29124,460.16598 991.51614,465.14367 988.39307,467.48457 984.35691,466.11316 Z"
         style="fill:#000000;stroke-width:0.495177"
         inkscape:connector-curvature="0" />
      <path
         id="path3268"
         d="M 1048.1207,466.77003 C 1045.6593,465.93367 1044.3486,463.67981 1044.2061,460.0385 1043.9984,454.73033 1046.1875,451.52036 1050.1263,451.35719 1052.5304,451.25759 1054.8195,452.83669 1055.5859,455.12347 1056.0764,456.58689 1056.2972,459.26823 1056.0551,460.82285 1055.28,465.80053 1052.1569,468.14144 1048.1207,466.77003 Z"
         style="fill:#000000;stroke-width:0.495177"
         inkscape:connector-curvature="0" />
      <ellipse
         transform="scale(-1,1)"
         id="path3173"
         style="display:inline;overflow:visible;visibility:visible;fill:#ffffff;fill-opacity:1;fill-rule:nonzero;stroke:#000000;stroke-width:4.33279;stroke-linecap:butt;stroke-linejoin:miter;stroke-miterlimit:4;stroke-dasharray:none;stroke-dashoffset:0;stroke-opacity:1;marker:none"
         cx="-1125.3909"
         cy="561.96393"
         rx="46.647923"
         ry="61.900539" />
      <path
         sodipodi:nodetypes="cccc"
         id="path3175"
         d="M 1118.8268,549.58437 C 1123.8202,560.8457 1128.4151,565.32244 1135.4765,571.12508 1137.7022,562.16871 1138.5614,558.29418 1137.3453,547.27187 1132.8154,545.96388 1127.7595,543.72502 1118.8268,549.58437 Z"
         style="fill:#ff641a;fill-opacity:1;fill-rule:evenodd;stroke:#000000;stroke-width:4.33279;stroke-linecap:butt;stroke-linejoin:miter;stroke-miterlimit:4;stroke-dasharray:none;stroke-opacity:1"
         inkscape:connector-curvature="0" />
      <path
         sodipodi:nodetypes="cccc"
         id="path3177"
         d="M 1080.4021,546.18079 C 1077.7607,550.67476 1064.3799,563.96501 1063.8444,582.26819 1063.4208,591.58804 1079.2535,562.29388 1081.3574,582.73086 1080.0238,572.31751 1081.3674,561.68196 1080.4021,546.18079 Z"
         style="fill:#000000;fill-opacity:1;fill-rule:evenodd;stroke:none;stroke-width:0.495177"
         inkscape:connector-curvature="0" />
      <path
         sodipodi:nodetypes="cccc"
         id="path3179"
         d="M 1170.4502,545.62891 C 1172.5717,550.65652 1183.319,565.52495 1183.749,586.00159 1184.0893,596.42813 1171.3727,563.65538 1169.6829,586.5192 1170.754,574.8693 1169.6729,562.9708 1170.4502,545.62891 Z"
         style="fill:#000000;fill-opacity:1;fill-rule:evenodd;stroke:none;stroke-width:0.495177"
         inkscape:connector-curvature="0" />
      <path
         sodipodi:nodetypes="csssc"
         id="path3182"
         d="M 1132.0923,622.34307 C 1130.5941,628.20997 1138.063,630.66246 1146.6997,632.08129 1157.858,633.91437 1165.0291,629.06185 1160.8076,619.34669 1156.8227,610.17624 1149.5581,602.85736 1143.2039,609.10909 1136.6506,615.55671 1138.9042,613.92035 1132.0923,622.34307 Z"
         style="display:inline;overflow:visible;visibility:visible;fill:#ff641a;fill-opacity:1;fill-rule:nonzero;stroke:#000000;stroke-width:4.33279;stroke-linecap:butt;stroke-linejoin:miter;stroke-miterlimit:4;stroke-dasharray:none;stroke-dashoffset:0;stroke-opacity:1;marker:none"
         inkscape:connector-curvature="0" />
      <path
         sodipodi:nodetypes="csssc"
         id="path3184"
         d="M 1123.4194,625.73352 C 1125.0111,631.96614 1117.0766,634.57151 1107.9016,636.07877 1096.0477,638.02613 1088.4295,632.87113 1092.9143,622.55037 1097.1476,612.80826 1104.865,605.03316 1111.6153,611.6746 1118.5771,618.52414 1116.183,616.78577 1123.4194,625.73352 Z"
         style="display:inline;overflow:visible;visibility:visible;fill:#ff641a;fill-opacity:1;fill-rule:nonzero;stroke:#000000;stroke-width:4.33279;stroke-linecap:butt;stroke-linejoin:miter;stroke-miterlimit:4;stroke-dasharray:none;stroke-dashoffset:0;stroke-opacity:1;marker:none"
         inkscape:connector-curvature="0" />
      <path
         id="path3186"
         d="M 1147.6645,537.59961 C 1149.1898,537.08134 1150.002,535.68467 1150.0903,533.42821 1150.2191,530.13884 1148.8626,528.14969 1146.4217,528.04858 1144.9319,527.98688 1143.5135,528.9654 1143.0385,530.38246 1142.7346,531.28932 1142.5978,532.95089 1142.7478,533.91426 1143.2281,536.99883 1145.1634,538.44944 1147.6645,537.59961 Z"
         style="fill:#000000;stroke-width:4.33279;stroke-miterlimit:4;stroke-dasharray:none"
         inkscape:connector-curvature="0" />
      <path
         id="path3188"
         d="M 1108.1514,538.00665 C 1109.6766,537.48838 1110.4888,536.09171 1110.5771,533.83526 1110.7059,530.5459 1109.3494,528.55674 1106.9085,528.45563 1105.4188,528.39393 1104.0003,529.37244 1103.5253,530.78951 1103.2214,531.69636 1103.0846,533.35794 1103.2346,534.3213 1103.7149,537.40588 1105.6502,538.85649 1108.1514,538.00665 Z"
         style="fill:#000000;stroke-width:4.33279;stroke-miterlimit:4;stroke-dasharray:none"
         inkscape:connector-curvature="0" />
      <text
         id="text2426"
         y="433.17877"
         x="1184.9023"
         style="font-style:normal;font-weight:normal;font-size:5.94212px;line-height:0%;font-family:'Bitstream Vera Sans';fill:#000000;fill-opacity:1;stroke:none;stroke-width:0.495177"
         xml:space="preserve"><tspan
           style="font-size:5.94212px;line-height:1.25;stroke-width:0.495177"
           y="433.17877"
           x="1184.9023"
           id="tspan2428"
           sodipodi:role="line"> </tspan></text>
    </g>
    <text
       xml:space="preserve"
       style="font-style:normal;font-weight:normal;font-size:40px;line-height:125%;font-family:Sans;-inkscape-font-specification:Sans;letter-spacing:0px;word-spacing:0px;fill:#000000;fill-opacity:1;stroke:none;stroke-width:1px;stroke-linecap:butt;stroke-linejoin:miter;stroke-opacity:1"
       x="-597.19489"
       y="462.8696"
       id="text1478"><tspan
         sodipodi:role="line"
         id="tspan1476"
         x="-597.19489"
         y="498.26022" /></text>
    <g
       transform="matrix(2.0891533,0,0,-2.0891533,825.48879,402.54036)"
       inkscape:label="ink_ext_XXXXXX"
       id="g10">
      <g
         transform="scale(0.1)"
         id="g12">
        <path
           inkscape:connector-curvature="0"
           id="path14"
           style="fill:#231f20;fill-opacity:1;fill-rule:nonzero;stroke:none"
           d="m 333.832,334.824 c 30.68,25.567 42.609,59.649 42.043,96.578 -0.57,14.77 -3.98,30.106 -8.52,42.039 -16.476,39.196 -56.812,60.782 -97.144,60.782 -51.695,-2.27 -90.328,-37.489 -90.328,-87.485 v -44.875 c 0,-55.672 43.746,-88.621 95.437,-88.621 21.59,1.699 42.039,8.516 58.512,21.582 z m -7.953,-50.554 0.57,0.566 c -17.609,-7.387 -36.929,-10.793 -54.535,-10.793 -34.086,0 -73.851,14.766 -93.168,49.988 v -26.695 c 0,-12.5 -6.246,-19.887 -19.312,-19.887 -13.067,0 -21.02,7.387 -21.02,19.887 v 343.125 c 0,26.125 41.469,26.125 41.469,0 V 527.406 c 17.043,30.11 53.969,46.016 92.031,46.016 85.211,0 143.152,-60.785 145.43,-141.453 1.703,-65.895 -29.539,-122.133 -91.465,-147.699" />
        <path
           inkscape:connector-curvature="0"
           id="path16"
           style="fill:#231f20;fill-opacity:1;fill-rule:nonzero;stroke:none"
           d="m 619.547,535.93 c -10.797,0 -21.586,-1.707 -30.109,-3.977 -47.719,-12.5 -75.555,-56.808 -75.555,-107.933 0,-25.563 7.953,-52.262 24.996,-72.157 19.883,-23.855 49.988,-37.488 81.234,-37.488 30.68,0 61.922,14.773 81.805,37.488 15.902,19.321 24.996,46.594 24.996,71.02 0,51.691 -27.836,96.57 -76.121,109.07 -9.094,2.27 -20.457,3.977 -31.246,3.977 z M 506.492,326.875 c -25.558,30.105 -36.355,66.465 -34.652,109.07 5.683,63.059 42.609,115.891 105.098,133.504 13.632,3.973 28.968,5.114 43.175,5.114 13.633,0 27.27,-1.141 42.039,-5.114 61.918,-17.613 100.547,-69.879 105.661,-133.504 2.277,-42.605 -9.086,-78.965 -34.083,-109.07 -27.835,-33.516 -68.742,-51.133 -113.617,-51.133 -45.445,0 -85.781,17.617 -113.621,51.133" />
        <path
           inkscape:connector-curvature="0"
           id="path18"
           style="fill:#231f20;fill-opacity:1;fill-rule:nonzero;stroke:none"
           d="m 965.469,535.93 c -10.797,0 -21.586,-1.707 -30.11,-3.977 -47.718,-12.5 -75.554,-56.808 -75.554,-107.933 0,-25.563 7.953,-52.262 24.996,-72.157 19.883,-23.855 49.988,-37.488 81.234,-37.488 30.68,0 61.925,14.773 81.805,37.488 15.91,19.321 24.99,46.594 24.99,71.02 0,51.691 -27.83,96.57 -76.115,109.07 -9.094,2.27 -20.453,3.977 -31.246,3.977 z M 852.418,326.875 c -25.563,30.105 -36.359,66.465 -34.652,109.07 5.679,63.059 42.605,115.891 105.093,133.504 13.633,3.973 28.977,5.114 43.176,5.114 13.633,0 27.27,-1.141 42.045,-5.114 61.92,-17.613 100.54,-69.879 105.66,-133.504 2.27,-42.605 -9.09,-78.965 -34.09,-109.07 -27.83,-33.516 -68.74,-51.133 -113.615,-51.133 -45.445,0 -85.781,17.617 -113.617,51.133" />
        <path
           inkscape:connector-curvature="0"
           id="path20"
           style="fill:#231f20;fill-opacity:1;fill-rule:nonzero;stroke:none"
           d="m 1294.35,570.016 c 25.56,0 25.56,-35.793 0,-35.793 h -61.92 V 380.84 c 0,-32.383 5.11,-66.465 43.74,-66.465 8.52,0 21.02,2.844 26.7,6.25 23.86,13.633 42.61,-19.883 17.04,-34.082 -14.2,-7.957 -28.41,-9.656 -43.74,-9.656 -68.17,0 -84.65,49.988 -84.65,103.953 v 153.383 h -37.49 c -26.7,0 -25,35.793 0,35.793 h 37.49 v 65.898 c 0,27.266 40.91,26.699 40.91,0 v -65.898 h 61.92" />
        <path
           inkscape:connector-curvature="0"
           id="path22"
           style="fill:#231f20;fill-opacity:1;fill-rule:nonzero;stroke:none"
           d="m 1424.99,297.898 c 0,-10.789 -9.09,-19.312 -20.46,-19.312 -12.49,0 -21.01,8.523 -21.01,19.312 v 340.856 c 0,10.793 8.52,19.312 21.01,19.312 11.37,0 20.46,-8.519 20.46,-19.312 V 297.898" />
        <path
           inkscape:connector-curvature="0"
           id="path848"
           d="m 1498.25,551.27 c 0,24.421 41.48,24.996 41.48,0.566 V 295.625 c 0,-24.988 -41.48,-24.426 -41.48,0 V 551.27"
           style="fill:#231f20;fill-opacity:1;fill-rule:nonzero;stroke:none" />
        <path
           inkscape:connector-curvature="0"
           id="path26"
           style="fill:#231f20;fill-opacity:1;fill-rule:nonzero;stroke:none"
           d="m 1854.43,447.875 c 0,52.266 -42.04,88.625 -88.04,88.625 -55.11,0 -106.81,-45.449 -106.81,-107.367 V 297.336 c 0,-12.5 -7.38,-19.887 -20.45,-19.887 -13.07,0 -21.58,7.387 -21.58,19.887 v 254.5 c 0,26.133 40.9,26.699 40.9,-0.566 v -35.223 c 20.45,41.469 64.19,59.082 108.5,59.082 65.9,0 128.96,-45.445 128.96,-127.254 V 297.336 c 0,-12.5 -7.39,-19.887 -20.45,-19.887 -12.5,0 -21.03,7.387 -21.03,19.887 v 150.539" />
        <path
           inkscape:connector-curvature="0"
           id="path855"
           d="m 1497.2164,611.57262 c -0.032,0.0882 -0.5185,2.03743 -1.0803,4.33155 -6.307,25.7574 -10.2405,54.04367 -11.6186,83.5508 -0.4101,8.78043 -0.5026,13.15183 -0.5053,23.87166 0,14.35826 0.326,23.81333 1.2797,36.70589 0.4369,5.90588 1.4445,15.97471 1.6731,16.71875 0.092,0.29987 0.3701,0.41022 4.7997,1.90549 26.9296,9.09051 54.3976,9.80752 81.1123,2.11731 13.8428,-3.98484 28.006,-10.65098 38.136,-17.94927 l 1.2376,-0.89166 -0.7668,-1.68828 c -8.5079,-18.73282 -17.1088,-34.64829 -27.9965,-51.80593 -20.5725,-32.41976 -46.8686,-63.38327 -74.0756,-87.22378 -4.2493,-3.72352 -11.7031,-9.80296 -12.019,-9.80296 -0.065,0 -0.1439,0.072 -0.1763,0.16042 z"
           style="fill:#ff631a;fill-opacity:1;stroke-width:0.12834226" />
      </g>
    </g>
    <rect
       style="fill:#9999cc;fill-opacity:0;stroke:#000000;stroke-width:4;stroke-linecap:round;stroke-linejoin:round;stroke-miterlimit:1.89999998;stroke-dasharray:none;stroke-opacity:1"
       id="rect2389"
       width="457.73743"
       height="440.6387"
       x="808.1748"
       y="214.99738"
       inkscape:export-xdpi="13.155146"
       inkscape:export-ydpi="13.155146"
       clip-path="none"
       mask="none" />
  </g>
</svg>
