<?xml version="1.0" encoding="UTF-8" standalone="no"?>
<!-- Created with Inkscape (http://www.inkscape.org/) -->

<svg
   xmlns:dc="http://purl.org/dc/elements/1.1/"
   xmlns:cc="http://creativecommons.org/ns#"
   xmlns:rdf="http://www.w3.org/1999/02/22-rdf-syntax-ns#"
   xmlns:svg="http://www.w3.org/2000/svg"
   xmlns="http://www.w3.org/2000/svg"
   xmlns:sodipodi="http://sodipodi.sourceforge.net/DTD/sodipodi-0.dtd"
   xmlns:inkscape="http://www.inkscape.org/namespaces/inkscape"
   width="520.30042"
   height="475.89835"
   id="svg2"
   sodipodi:version="0.32"
   inkscape:version="0.92.2 (5c3e80d, 2017-08-06)"
   sodipodi:docname="2penguins.svg"
   inkscape:output_extension="org.inkscape.output.svg.inkscape"
   inkscape:export-filename="/home/mike/intragit/sales/logos/logo-1000x400.png"
   inkscape:export-xdpi="65.775719"
   inkscape:export-ydpi="65.775719"
   version="1.0">
  <defs
     id="defs4">
    <inkscape:perspective
       sodipodi:type="inkscape:persp3d"
       inkscape:vp_x="0 : 526.18109 : 1"
       inkscape:vp_y="0 : 1000 : 0"
       inkscape:vp_z="744.09448 : 526.18109 : 1"
       inkscape:persp3d-origin="372.04724 : 350.78739 : 1"
       id="perspective10" />
  </defs>
  <sodipodi:namedview
     id="base"
     pagecolor="#ffffff"
     bordercolor="#666666"
     borderopacity="1.0"
     gridtolerance="10000"
     guidetolerance="10"
     objecttolerance="10"
     inkscape:pageopacity="0.0"
     inkscape:pageshadow="2"
     inkscape:zoom="0.98994949"
     inkscape:cx="376.51328"
     inkscape:cy="84.655738"
     inkscape:document-units="px"
     inkscape:current-layer="layer1"
     showgrid="false"
     inkscape:window-width="1853"
     inkscape:window-height="990"
     inkscape:window-x="67"
     inkscape:window-y="28"
     inkscape:window-maximized="0"
     fit-margin-top="0"
     fit-margin-left="0"
     fit-margin-right="0"
     fit-margin-bottom="0"
     showguides="false" />
  <metadata
     id="metadata7">
    <rdf:RDF>
      <cc:Work
         rdf:about="">
        <dc:format>image/svg+xml</dc:format>
        <dc:type
           rdf:resource="http://purl.org/dc/dcmitype/StillImage" />
        <dc:title />
      </cc:Work>
    </rdf:RDF>
  </metadata>
  <g
     inkscape:label="Layer 1"
     inkscape:groupmode="layer"
     id="layer1"
     transform="translate(-57.383998,-172.8393)">
    <ellipse
       ry="201.72824"
       rx="152.02138"
       cy="379.70221"
       cx="247.58954"
       style="display:inline;overflow:visible;visibility:visible;fill:#ffffff;fill-opacity:1;fill-rule:nonzero;stroke:#000000;stroke-width:10.26900005;stroke-linecap:butt;stroke-linejoin:miter;stroke-miterlimit:4;stroke-dasharray:none;stroke-dashoffset:0;stroke-opacity:1;marker:none"
       id="path3205" />
    <path
       inkscape:connector-curvature="0"
       style="fill:#ff641a;fill-opacity:1;fill-rule:evenodd;stroke:#000000;stroke-width:10.26900005;stroke-linecap:butt;stroke-linejoin:miter;stroke-miterlimit:4;stroke-dasharray:none;stroke-opacity:1"
       d="m 268.98177,339.35838 c -16.27336,36.69967 -31.24766,51.28895 -54.26009,70.19923 -7.25328,-29.188 -10.05334,-41.81474 -6.09005,-77.73546 14.76262,-4.26264 31.23905,-11.55887 60.35014,7.53623 z"
       id="path3203"
       sodipodi:nodetypes="cccc" />
    <path
       inkscape:connector-curvature="0"
       style="fill:#000000;fill-opacity:1;fill-rule:evenodd;stroke:none"
       d="m 394.20419,328.26642 c 8.60824,14.64541 52.21506,57.95717 53.9599,117.60561 1.38051,30.37251 -50.21664,-65.09449 -57.07297,1.50777 4.34595,-33.93616 -0.0249,-68.59646 3.11307,-119.11338 z"
       id="path3168"
       sodipodi:nodetypes="cccc" />
    <path
       inkscape:connector-curvature="0"
       style="fill:#000000;fill-opacity:1;fill-rule:evenodd;stroke:none"
       d="m 100.74572,326.46787 c -6.914027,16.38452 -41.938443,64.83942 -43.339875,131.57096 -1.108799,33.97917 40.333353,-72.82429 45.840245,1.68682 -3.490608,-37.96599 0.02,-76.74211 -2.50037,-133.25778 z"
       id="path3170"
       sodipodi:nodetypes="cccc" />
    <path
       inkscape:connector-curvature="0"
       style="display:inline;overflow:visible;visibility:visible;fill:#ff641a;fill-opacity:1;fill-rule:nonzero;stroke:#000000;stroke-width:9.66676617;stroke-linecap:butt;stroke-linejoin:miter;stroke-miterlimit:4;stroke-dasharray:none;stroke-dashoffset:0;stroke-opacity:1;marker:none"
       d="m 225.75041,576.47242 c 4.88245,19.1197 -19.45791,27.11214 -47.60394,31.73596 -36.364,5.97387 -59.73418,-9.84005 -45.97643,-41.50087 12.98638,-29.88569 36.66107,-53.73726 57.36883,-33.36344 21.35662,21.01223 14.01227,15.67948 36.21154,43.12835 z"
       id="path3178"
       sodipodi:nodetypes="csssc" />
    <path
       inkscape:connector-curvature="0"
       style="display:inline;overflow:visible;visibility:visible;fill:#f56019;fill-opacity:1;fill-rule:nonzero;stroke:#000000;stroke-width:10.26935005;stroke-linecap:butt;stroke-linejoin:miter;stroke-miterlimit:4;stroke-dasharray:none;stroke-dashoffset:0;stroke-opacity:1;marker:none"
       d="m 254.01444,587.5216 c -5.1868,20.31154 20.67083,28.80219 50.57136,33.71424 38.63077,6.34625 63.45774,-10.45343 48.84241,-44.08785 -13.7959,-31.74864 -38.94637,-57.08701 -60.94496,-35.44317 -22.6879,22.32205 -14.88573,16.65686 -38.46881,45.81678 z"
       id="path3181"
       sodipodi:nodetypes="csssc" />
    <path
       inkscape:connector-curvature="0"
       style="fill:#000000"
       d="m 175.00209,300.30112 c -4.97083,-1.689 -7.61777,-6.24063 -7.90552,-13.59419 -0.41948,-10.71977 4.00121,-17.20224 11.95568,-17.53175 4.85498,-0.20112 9.47768,2.98782 11.0256,7.60591 0.99058,2.95535 1.43633,8.37029 0.94747,11.50981 -1.56529,10.05234 -7.87227,14.77975 -16.02323,12.01022 z"
       id="path3245" />
    <path
       inkscape:connector-curvature="0"
       style="fill:#000000"
       d="m 303.77199,301.62764 c -4.97084,-1.68899 -7.61777,-6.24062 -7.90553,-13.59419 -0.41948,-10.71976 4.00121,-17.20224 11.95568,-17.53175 4.85498,-0.20111 9.47769,2.98783 11.0256,7.60592 0.99058,2.95535 1.43633,8.37028 0.94747,11.50981 -1.56529,10.05233 -7.87227,14.77974 -16.02322,12.01021 z"
       id="path3268" />
    <ellipse
       ry="125.007"
       rx="94.204628"
       cy="493.87"
       cx="-459.81781"
       style="display:inline;overflow:visible;visibility:visible;fill:#ffffff;fill-opacity:1;fill-rule:nonzero;stroke:#000000;stroke-width:8.75;stroke-linecap:butt;stroke-linejoin:miter;stroke-miterlimit:4;stroke-dasharray:none;stroke-dashoffset:0;stroke-opacity:1;marker:none"
       id="path3173"
       transform="scale(-1,1)" />
    <path
       inkscape:connector-curvature="0"
       style="fill:#ff641a;fill-opacity:1;fill-rule:evenodd;stroke:#000000;stroke-width:8.75;stroke-linecap:butt;stroke-linejoin:miter;stroke-miterlimit:4;stroke-dasharray:none;stroke-opacity:1"
       d="m 446.56148,468.8697 c 10.08428,22.74206 19.36356,31.78275 33.6239,43.50107 4.49471,-18.08722 6.22986,-25.91176 3.77388,-48.17112 -9.1481,-2.64147 -19.35821,-7.1628 -37.39778,4.67005 z"
       id="path3175"
       sodipodi:nodetypes="cccc" />
    <path
       inkscape:connector-curvature="0"
       style="fill:#000000;fill-opacity:1;fill-rule:evenodd;stroke:none"
       d="m 368.96363,461.99624 c -5.33436,9.07547 -32.35664,35.9149 -33.43788,72.87786 -0.85548,18.82124 31.11826,-40.33777 35.36699,0.93433 -2.6931,-21.02956 0.0154,-42.50786 -1.92911,-73.81219 z"
       id="path3177"
       sodipodi:nodetypes="cccc" />
    <path
       inkscape:connector-curvature="0"
       style="fill:#000000;fill-opacity:1;fill-rule:evenodd;stroke:none"
       d="m 550.81402,460.88171 c 4.28449,10.15316 25.98842,40.17971 26.85686,81.53192 0.68711,21.05621 -24.99377,-45.12777 -28.40629,1.04528 2.16306,-23.52677 -0.0124,-47.55556 1.54943,-82.5772 z"
       id="path3179"
       sodipodi:nodetypes="cccc" />
    <path
       inkscape:connector-curvature="0"
       style="display:inline;overflow:visible;visibility:visible;fill:#ff641a;fill-opacity:1;fill-rule:nonzero;stroke:#000000;stroke-width:8.75;stroke-linecap:butt;stroke-linejoin:miter;stroke-miterlimit:4;stroke-dasharray:none;stroke-dashoffset:0;stroke-opacity:1;marker:none"
       d="m 473.3511,615.80457 c -3.02556,11.8481 12.05767,16.80086 29.49921,19.66615 22.53405,3.70189 37.01609,-6.09768 28.49069,-25.71727 -8.0474,-18.51957 -22.71814,-33.29991 -35.55033,-20.67466 -13.23428,13.02086 -8.68312,9.71626 -22.43957,26.72578 z"
       id="path3182"
       sodipodi:nodetypes="csssc" />
    <path
       inkscape:connector-curvature="0"
       style="display:inline;overflow:visible;visibility:visible;fill:#ff641a;fill-opacity:1;fill-rule:nonzero;stroke:#000000;stroke-width:8.75;stroke-linecap:butt;stroke-linejoin:miter;stroke-miterlimit:4;stroke-dasharray:none;stroke-dashoffset:0;stroke-opacity:1;marker:none"
       d="m 455.83644,622.65153 c 3.21415,12.58666 -12.8093,17.84815 -31.33807,20.89205 -23.93872,3.93264 -39.32351,-6.47779 -30.26667,-27.32037 8.54904,-19.674 24.13429,-35.37569 37.76638,-21.96343 14.05924,13.83253 9.22439,10.32193 23.83836,28.39175 z"
       id="path3184"
       sodipodi:nodetypes="csssc" />
    <path
       inkscape:connector-curvature="0"
       style="fill:#000000;stroke-width:8.75;stroke-miterlimit:4;stroke-dasharray:none"
       d="m 504.79882,444.66669 c 3.08033,-1.04663 4.72058,-3.86719 4.8989,-8.42405 0.25994,-6.64282 -2.47947,-10.65989 -7.4087,-10.86408 -3.00853,-0.12462 -5.87313,1.8515 -6.83235,4.71324 -0.61384,1.83137 -0.89006,5.1869 -0.58712,7.1324 0.96998,6.22923 4.87829,9.15872 9.92927,7.44249 z"
       id="path3186" />
    <path
       inkscape:connector-curvature="0"
       style="fill:#000000;stroke-width:8.75;stroke-miterlimit:4;stroke-dasharray:none"
       d="m 425.00267,445.48871 c 3.08033,-1.04663 4.72058,-3.86719 4.8989,-8.42405 0.25994,-6.64282 -2.47947,-10.65988 -7.4087,-10.86407 -3.00853,-0.12463 -5.87313,1.85149 -6.83234,4.71323 -0.61385,1.83137 -0.89007,5.1869 -0.58713,7.1324 0.96998,6.22924 4.87829,9.15872 9.92927,7.44249 z"
       id="path3188" />
    <text
       xml:space="preserve"
       style="font-style:normal;font-weight:normal;line-height:0%;font-family:'Bitstream Vera Sans';fill:#000000;fill-opacity:1;stroke:none"
       x="580"
       y="233.79076"
       id="text2426"><tspan
         sodipodi:role="line"
         id="tspan2428"
         x="580"
         y="233.79076"
         style="font-size:12px;line-height:1.25"> </tspan></text>
  </g>
</svg>
