<?xml version="1.0" encoding="UTF-8"?>
<!-- Created with Inkscape (http://www.inkscape.org/) -->
<svg width="610" height="230" version="1.1" viewBox="0 0 610 230" xmlns="http://www.w3.org/2000/svg" xmlns:cc="http://creativecommons.org/ns#" xmlns:dc="http://purl.org/dc/elements/1.1/" xmlns:rdf="http://www.w3.org/1999/02/22-rdf-syntax-ns#">
 <metadata>
  <rdf:RDF>
   <cc:Work rdf:about="">
    <dc:format>image/svg+xml</dc:format>
    <dc:type rdf:resource="http://purl.org/dc/dcmitype/StillImage"/>
    <dc:title/>
   </cc:Work>
  </rdf:RDF>
 </metadata>
 <path d="m568.912 29.0246c7.39273 0 12.2659 5.14766 12.2659 12.0031v147.945c0 6.8554-4.87317 12.0031-12.2659 12.0031h-475.228c-5.93079 0-9.14276-0.79949-13.087-4.45706-5.9885-5.55324-41.1463-42.3682-46.4377-48.0164-3.82056-4.07818-5.19985-6.12671-5.19985-11.8118v-95.6625c0-6.85541 4.87316-12.0031 12.2659-12.0031 0 0 352.15 6e-5 527.687 6e-5z" fill="#fff" stroke="#000" stroke-width="12.145"/>
 <path d="m120.948 103.042v52.3452h21.0785v-30.1387h360.864v30.1387h21.0785v-52.3452z" fill="#808080" stroke="#000" stroke-width="8.75"/>
 <g stroke-width="1.17438">
  <path d="m188.692 32.7186v13.0176h36.3317v-13.0176z"/>
  <path d="m384.41 32.7186v13.0176h36.3317v-13.0176z"/>
  <path d="m188.692 184.264v13.0176h36.3317v-13.0176z"/>
  <path d="m384.41 184.264v13.0176h36.3317v-13.0176z"/>
 </g>
 <g fill="#fcee21" stroke="#000" stroke-width="2.67614">
  <rect x="178.582" y="98.4805" width="16.1689" height="9.22932"/>
  <rect x="484.065" y="98.4805" width="16.1689" height="9.22932"/>
  <rect x="212.525" y="98.4805" width="16.1689" height="9.22932"/>
  <rect x="246.467" y="98.4805" width="16.1689" height="9.22932"/>
  <rect x="280.41" y="98.4805" width="16.1689" height="9.22932"/>
  <rect x="314.352" y="98.4805" width="16.1689" height="9.22932"/>
  <rect x="348.295" y="98.4805" width="16.1689" height="9.22932"/>
  <rect x="382.237" y="98.4805" width="16.1689" height="9.22932"/>
  <rect x="416.18" y="98.4805" width="16.1689" height="9.22932"/>
  <rect x="450.122" y="98.4805" width="16.1689" height="9.22932"/>
  <rect x="161.553" y="120.645" width="16.1689" height="9.22932"/>
  <rect x="467.035" y="120.645" width="16.1689" height="9.22932"/>
  <rect x="195.495" y="120.645" width="16.1689" height="9.22932"/>
  <rect x="229.437" y="120.645" width="16.1689" height="9.22932"/>
  <rect x="263.38" y="120.645" width="16.1689" height="9.22932"/>
  <rect x="297.322" y="120.645" width="16.1689" height="9.22932"/>
  <rect x="331.265" y="120.645" width="16.1689" height="9.22932"/>
  <rect x="365.207" y="120.645" width="16.1689" height="9.22932"/>
  <rect x="399.15" y="120.645" width="16.1689" height="9.22932"/>
  <rect x="433.092" y="120.645" width="16.1689" height="9.22932"/>
 </g>
 <g>
  <g aria-label="19">
   <path d="m183.082 88.9471h-1.52344v-9.70768q-0.55013 0.52474-1.44727 1.04948-0.88867 0.524739-1.5996 0.787109v-1.47266q1.27799-0.600912 2.23437-1.45573 0.95638-0.854817 1.35417-1.65885h0.98177z"/>
   <path d="m186.891 86.078 1.46419-0.135416q0.1862 1.03255 0.71094 1.49805 0.52474 0.465494 1.3457 0.465494 0.70248 0 1.22722-0.321614 0.5332-0.321615 0.87174-0.854818 0.33854-0.541667 0.56706-1.45573 0.22851-0.914063 0.22851-1.86198 0-0.101563-8e-3 -0.304688-0.45703 0.727865-1.2526 1.1849-0.78711 0.448568-1.70964 0.448568-1.54036 0-2.60677-1.11719-1.06641-1.11719-1.06641-2.94531 0-1.88737 1.10873-3.03841 1.11719-1.15104 2.79297-1.15104 1.21028 0 2.20898 0.651693 1.00716 0.651693 1.52344 1.86198 0.52474 1.20182 0.52474 3.48698 0 2.37826-0.51628 3.79167-0.51627 1.40495-1.54036 2.14128-1.01563 0.736329-2.38672 0.736329-1.45573 0-2.37826-0.804037-0.92252-0.8125-1.10872-2.27669zm6.23763-5.47591q0-1.31185-0.70247-2.08203-0.69401-0.770182-1.67579-0.770182-1.01562 0-1.76888 0.829427-0.75325 0.829427-0.75325 2.14974 0 1.1849 0.71094 1.92969 0.7194 0.736329 1.76888 0.736329 1.05794 0 1.73502-0.736329 0.68555-0.744791 0.68555-2.05664z"/>
  </g>
  <g aria-label="17">
   <path d="m217.037 89.1424h-1.52343v-9.70768q-0.55013 0.524739-1.44727 1.04948-0.88867 0.52474-1.59961 0.787109v-1.47266q1.278-0.600911 2.23438-1.45573t1.35416-1.65885h0.98177z"/>
   <path d="m220.719 78.3599v-1.46419h8.0319v1.1849q-1.18489 1.26107-2.35286 3.35156-1.15951 2.0905-1.79427 4.29948-0.45703 1.55729-0.58399 3.41081h-1.56575q0.0254-1.46419 0.57552-3.53776 0.55013-2.07357 1.57422-3.99479 1.03255-1.92969 2.19205-3.25z"/>
  </g>
  <g aria-label="15">
   <path d="m250.933 88.9471h-1.52343v-9.70768q-0.55013 0.52474-1.44727 1.04948-0.88867 0.524739-1.59961 0.787109v-1.47266q1.278-0.600912 2.23438-1.45573 0.95638-0.854817 1.35416-1.65885h0.98177z"/>
   <path d="m254.513 85.6971 1.59961-0.135417q0.17773 1.16797 0.82096 1.76042 0.6517 0.583984 1.56576 0.583984 1.10026 0 1.86198-0.829427t0.76172-2.20052q0-1.30338-0.73633-2.05664-0.72787-0.753256-1.91276-0.753256-0.73633 0-1.32878 0.338542-0.59245 0.330078-0.93099 0.863281l-1.43034-0.186198 1.20183-6.37305h6.16992v1.45573h-4.95117l-0.66862 3.33464q1.11718-0.778646 2.3444-0.778646 1.625 0 2.74218 1.12565 1.11719 1.12565 1.11719 2.89453 0 1.68424-0.98177 2.91146-1.19336 1.50651-3.25846 1.50651-1.69271 0-2.76758-0.947917-1.06641-0.947917-1.21875-2.51367z"/>
  </g>
  <g aria-label="13">
   <path d="m284.922 88.9393h-1.52343v-9.70768q-0.55014 0.524739-1.44727 1.04948-0.88867 0.52474-1.59961 0.787109v-1.47266q1.27799-0.600911 2.23438-1.45573 0.95638-0.854818 1.35416-1.65885h0.98177z"/>
   <path d="m288.511 85.6639 1.52344-0.203125q0.26237 1.29492 0.88867 1.87044 0.63477 0.567057 1.54037 0.567057 1.07487 0 1.81119-0.744792 0.7448-0.744792 0.7448-1.84505 0-1.04948-0.68555-1.72656-0.68555-0.685546-1.74349-0.685546-0.43164 0-1.07487 0.16927l0.16927-1.33724q0.15234 0.01693 0.24544 0.01693 0.97331 0 1.75196-0.507813 0.77864-0.507812 0.77864-1.56576 0-0.837891-0.56705-1.38802-0.56706-0.55013-1.4642-0.55013-0.88867 0-1.48112 0.558594t-0.76172 1.67578l-1.52343-0.270833q0.27929-1.5319 1.26953-2.36979 0.99023-0.846354 2.46289-0.846354 1.01562 0 1.87044 0.440104 0.85482 0.431641 1.30339 1.1849 0.45703 0.753255 0.45703 1.59961 0 0.804037-0.43164 1.46419t-1.278 1.04948q1.10026 0.253906 1.70964 1.05794 0.60937 0.795573 0.60937 1.9974 0 1.625-1.18489 2.75912-1.1849 1.12565-2.9961 1.12565-1.63346 0-2.71679-0.973308-1.07487-0.973307-1.22722-2.52214z"/>
  </g>
  <g aria-label="11">
   <path d="m319.499 89.1424h-1.52344v-9.70768q-0.55013 0.524739-1.44726 1.04948-0.88867 0.52474-1.59961 0.787109v-1.47266q1.27799-0.600911 2.23437-1.45573t1.35417-1.65885h0.98177z"/>
   <path d="m327.861 89.1424h-1.52344v-9.70768q-0.55013 0.524739-1.44726 1.04948-0.88867 0.52474-1.59961 0.787109v-1.47266q1.27799-0.600911 2.23437-1.45573t1.35417-1.65885h0.98177z"/>
  </g>
  <g aria-label="9">
   <path d="m352.528 86.078 1.46419-0.135416q0.1862 1.03255 0.71094 1.49805 0.52474 0.465494 1.3457 0.465494 0.70247 0 1.22721-0.321614 0.53321-0.321615 0.87175-0.854818 0.33854-0.541667 0.56706-1.45573 0.22851-0.914063 0.22851-1.86198 0-0.101563-8e-3 -0.304688-0.45703 0.727865-1.25261 1.1849-0.78711 0.448568-1.70963 0.448568-1.54037 0-2.60677-1.11719-1.06641-1.11719-1.06641-2.94531 0-1.88737 1.10872-3.03841 1.11719-1.15104 2.79297-1.15104 1.21029 0 2.20899 0.651693 1.00716 0.651693 1.52344 1.86198 0.52473 1.20182 0.52473 3.48698 0 2.37826-0.51627 3.79167-0.51628 1.40495-1.54037 2.14128-1.01562 0.736329-2.38671 0.736329-1.45573 0-2.37826-0.804037-0.92253-0.8125-1.10872-2.27669zm6.23763-5.47591q0-1.31185-0.70248-2.08203-0.69401-0.770182-1.67578-0.770182-1.01562 0-1.76888 0.829427-0.75325 0.829427-0.75325 2.14974 0 1.1849 0.71093 1.92969 0.7194 0.736329 1.76888 0.736329 1.05795 0 1.73503-0.736329 0.68555-0.744791 0.68555-2.05664z"/>
  </g>
  <g aria-label="7">
   <path d="m386.306 78.3599v-1.46419h8.0319v1.1849q-1.18489 1.26107-2.35286 3.35156-1.15951 2.0905-1.79427 4.29948-0.45703 1.55729-0.58399 3.41081h-1.56575q0.0254-1.46419 0.57552-3.53776 0.55013-2.07357 1.57422-3.99479 1.03255-1.92969 2.19205-3.25z"/>
  </g>
  <g aria-label="5">
   <path d="m420.151 85.6971 1.59961-0.135417q0.17773 1.16797 0.82096 1.76042 0.65169 0.583984 1.56575 0.583984 1.10026 0 1.86198-0.829427t0.76172-2.20052q0-1.30338-0.73633-2.05664-0.72786-0.753256-1.91276-0.753256-0.73632 0-1.32877 0.338542-0.59245 0.330078-0.93099 0.863281l-1.43034-0.186198 1.20182-6.37305h6.16992v1.45573h-4.95117l-0.66862 3.33464q1.11719-0.778646 2.3444-0.778646 1.625 0 2.74219 1.12565t1.11719 2.89453q0 1.68424-0.98177 2.91146-1.19336 1.50651-3.25847 1.50651-1.6927 0-2.76757-0.947917-1.06641-0.947917-1.21875-2.51367z"/>
  </g>
  <g aria-label="3">
   <path d="m454.144 85.6639 1.52344-0.203125q0.26237 1.29492 0.88867 1.87044 0.63477 0.567057 1.54037 0.567057 1.07487 0 1.81119-0.744792 0.7448-0.744792 0.7448-1.84505 0-1.04948-0.68555-1.72656-0.68555-0.685546-1.74349-0.685546-0.43164 0-1.07487 0.16927l0.16927-1.33724q0.15234 0.01693 0.24544 0.01693 0.97331 0 1.75196-0.507813 0.77864-0.507812 0.77864-1.56576 0-0.837891-0.56706-1.38802-0.56705-0.55013-1.46419-0.55013-0.88867 0-1.48112 0.558594t-0.76172 1.67578l-1.52343-0.270833q0.27929-1.5319 1.26953-2.36979 0.99023-0.846354 2.46289-0.846354 1.01562 0 1.87044 0.440104 0.85482 0.431641 1.30339 1.1849 0.45703 0.753255 0.45703 1.59961 0 0.804037-0.43164 1.46419t-1.278 1.04948q1.10026 0.253906 1.70964 1.05794 0.60937 0.795573 0.60937 1.9974 0 1.625-1.18489 2.75912-1.1849 1.12565-2.9961 1.12565-1.63346 0-2.71679-0.973308-1.07487-0.973307-1.22722-2.52214z"/>
  </g>
  <g aria-label="1">
   <path d="m493.392 89.1424h-1.52344v-9.70768q-0.55013 0.524739-1.44727 1.04948-0.88867 0.52474-1.59961 0.787109v-1.47266q1.278-0.600911 2.23438-1.45573t1.35417-1.65885h0.98177z"/>
  </g>
  <g aria-label="18">
   <path d="m199.995 151.671h-1.52344v-9.70768q-0.55013 0.52474-1.44727 1.04948-0.88867 0.52474-1.59961 0.78711v-1.47266q1.278-0.60091 2.23438-1.45573 0.95638-0.85481 1.35417-1.65885h0.98177z"/>
   <path d="m205.92 144.942q-0.94791-0.34701-1.40494-0.99024-0.45704-0.64323-0.45704-1.54036 0-1.35417 0.97331-2.2767 0.97331-0.92252 2.58985-0.92252 1.625 0 2.61523 0.94792 0.99023 0.93945 0.99023 2.29362 0 0.86328-0.45703 1.50651-0.44856 0.63476-1.37109 0.98177 1.14258 0.37239 1.73503 1.20182 0.60091 0.82943 0.60091 1.98047 0 1.59114-1.12565 2.67448-1.12566 1.08333-2.96224 1.08333-1.83659 0-2.96224-1.08333-1.12565-1.0918-1.12565-2.7168 0-1.21029 0.60937-2.02279 0.61784-0.82096 1.75195-1.11718zm-0.30468-2.58138q0 0.8802 0.56705 1.4388 0.56706 0.55859 1.47266 0.55859 0.88021 0 1.4388-0.55013 0.56706-0.55859 0.56706-1.36263 0-0.83789-0.58399-1.40495-0.57552-0.57552-1.4388-0.57552-0.87174 0-1.44726 0.5586-0.57552 0.55859-0.57552 1.33724zm-0.49089 5.72981q0 0.6517 0.30469 1.26107 0.31315 0.60938 0.92252 0.94792 0.60938 0.33008 1.31185 0.33008 1.0918 0 1.80274-0.70248 0.71094-0.70247 0.71094-1.7858 0-1.10026-0.73633-1.81967-0.72787-0.7194-1.82813-0.7194-1.07487 0-1.78581 0.71094-0.70247 0.71094-0.70247 1.77734z"/>
  </g>
  <g aria-label="16">
   <path d="m233.955 151.671h-1.52344v-9.70768q-0.55013 0.52474-1.44726 1.04948-0.88868 0.52474-1.59961 0.78711v-1.47266q1.27799-0.60091 2.23437-1.45573 0.95638-0.85481 1.35417-1.65885h0.98177z"/>
   <path d="m245.44 142.302-1.51497 0.11849q-0.20313-0.89713-0.57552-1.30338-0.61784-0.6517-1.52344-0.6517-0.72786 0-1.27799 0.40625-0.71941 0.52474-1.13412 1.5319-0.41471 1.00717-0.43164 2.86914 0.55013-0.83789 1.3457-1.24414 0.79558-0.40625 1.66732-0.40625 1.52344 0 2.58985 1.12566 1.07487 1.11718 1.07487 2.89453 0 1.16797-0.50782 2.17513-0.49935 0.99869-1.37955 1.5319-0.88021 0.5332-1.9974 0.5332-1.9043 0-3.10612-1.39648-1.20182-1.40495-1.20182-4.6211 0-3.597 1.32877-5.23047 1.15951-1.42187 3.12305-1.42187 1.46419 0 2.39518 0.82096 0.93946 0.82097 1.12565 2.26823zm-6.2207 5.34896q0 0.78711 0.33008 1.50651 0.33854 0.7194 0.93945 1.10026 0.60091 0.3724 1.26107 0.3724 0.96484 0 1.65885-0.77865 0.69401-0.77864 0.69401-2.11588 0-1.28646-0.68554-2.02279-0.68555-0.74479-1.72657-0.74479-1.03255 0-1.75195 0.74479-0.7194 0.73633-0.7194 1.93815z"/>
  </g>
  <g aria-label="14">
   <path d="m267.918 151.671h-1.52344v-9.70768q-0.55013 0.52474-1.44726 1.04948-0.88867 0.52474-1.59961 0.78711v-1.47266q1.27799-0.60091 2.23437-1.45573 0.95638-0.85481 1.35417-1.65885h0.98177z"/>
   <path d="m276.382 151.671v-2.9707h-5.38281v-1.39648l5.66211-8.04037h1.24414v8.04037h1.67578v1.39648h-1.67578v2.9707zm0-4.36718v-5.59441l-3.88476 5.59441z"/>
  </g>
  <g aria-label="12">
   <path d="m301.899 151.671h-1.52343v-9.70768q-0.55013 0.52474-1.44727 1.04948-0.88867 0.52474-1.59961 0.78711v-1.47266q1.278-0.60091 2.23438-1.45573 0.95638-0.85481 1.35416-1.65885h0.98177z"/>
   <path d="m313.485 150.207v1.46419h-8.20117q-0.0169-0.55013 0.17773-1.05794 0.31315-0.83789 0.9987-1.65039 0.69401-0.8125 1.9974-1.87891 2.02278-1.65885 2.73372-2.6237 0.71094-0.9733 0.71094-1.83658 0-0.9056-0.6517-1.52344-0.64322-0.6263-1.68424-0.6263-1.10026 0-1.76042 0.66015-0.66015 0.66016-0.66862 1.82813l-1.56575-0.16081q0.16081-1.75195 1.21028-2.66602 1.04948-0.92252 2.81836-0.92252 1.78581 0 2.82683 0.99023 1.04101 0.99024 1.04101 2.45443 0 0.74479-0.30468 1.46419-0.30469 0.7194-1.01563 1.51498-0.70247 0.79557-2.3444 2.18359-1.37109 1.15104-1.76042 1.56576-0.38932 0.40625-0.64323 0.82096z"/>
  </g>
  <g aria-label="10">
   <path d="m335.799 151.671h-1.52344v-9.70768q-0.55013 0.52474-1.44726 1.04948-0.88868 0.52474-1.59961 0.78711v-1.47266q1.27799-0.60091 2.23437-1.45573 0.95638-0.85481 1.35417-1.65885h0.98177z"/>
   <path d="m339.379 145.552q0-2.20052 0.44856-3.53776 0.45704-1.3457 1.34571-2.07357 0.89713-0.72786 2.2513-0.72786 0.9987 0 1.75195 0.40625 0.75326 0.39779 1.24414 1.1595 0.49089 0.75326 0.77019 1.84506 0.27929 1.08333 0.27929 2.92838 0 2.1836-0.44857 3.5293-0.44856 1.33724-1.3457 2.07357-0.88867 0.72786-2.2513 0.72786-1.79427 0-2.81836-1.28646-1.22721-1.54883-1.22721-5.04427zm1.56575 0q0 3.05534 0.71094 4.07097 0.7194 1.00716 1.76888 1.00716t1.76042-1.01563q0.7194-1.01562 0.7194-4.0625 0-3.0638-0.7194-4.07096-0.71094-1.00716-1.77735-1.00716-1.04948 0-1.67578 0.88867-0.78711 1.13411-0.78711 4.18945z"/>
  </g>
  <g aria-label="8">
   <path d="m371.565 144.942q-0.94792-0.34701-1.40495-0.99024t-0.45703-1.54036q0-1.35417 0.97331-2.2767 0.9733-0.92252 2.58984-0.92252 1.625 0 2.61523 0.94792 0.99024 0.93945 0.99024 2.29362 0 0.86328-0.45703 1.50651-0.44857 0.63476-1.3711 0.98177 1.14258 0.37239 1.73503 1.20182 0.60091 0.82943 0.60091 1.98047 0 1.59114-1.12565 2.67448-1.12565 1.08333-2.96224 1.08333t-2.96224-1.08333q-1.12565-1.0918-1.12565-2.7168 0-1.21029 0.60937-2.02279 0.61784-0.82096 1.75196-1.11718zm-0.30469-2.58138q0 0.8802 0.56706 1.4388 0.56706 0.55859 1.47265 0.55859 0.88021 0 1.43881-0.55013 0.56705-0.55859 0.56705-1.36263 0-0.83789-0.58398-1.40495-0.57552-0.57552-1.4388-0.57552-0.87175 0-1.44727 0.5586-0.57552 0.55859-0.57552 1.33724zm-0.49088 5.72981q0 0.6517 0.30468 1.26107 0.31315 0.60938 0.92253 0.94792 0.60937 0.33008 1.31185 0.33008 1.09179 0 1.80273-0.70248 0.71094-0.70247 0.71094-1.7858 0-1.10026-0.73633-1.81967-0.72786-0.7194-1.82812-0.7194-1.07487 0-1.78581 0.71094-0.70247 0.71094-0.70247 1.77734z"/>
  </g>
  <g aria-label="6">
   <path d="m411.111 142.302-1.51498 0.11849q-0.20312-0.89713-0.57552-1.30338-0.61784-0.6517-1.52343-0.6517-0.72787 0-1.278 0.40625-0.7194 0.52474-1.13411 1.5319-0.41472 1.00717-0.43164 2.86914 0.55013-0.83789 1.3457-1.24414t1.66732-0.40625q1.52343 0 2.58984 1.12566 1.07487 1.11718 1.07487 2.89453 0 1.16797-0.50781 2.17513-0.49935 0.99869-1.37956 1.5319-0.88021 0.5332-1.9974 0.5332-1.90429 0-3.10612-1.39648-1.20182-1.40495-1.20182-4.6211 0-3.597 1.32878-5.23047 1.1595-1.42187 3.12304-1.42187 1.4642 0 2.39519 0.82096 0.93945 0.82097 1.12565 2.26823zm-6.22071 5.34896q0 0.78711 0.33008 1.50651 0.33854 0.7194 0.93946 1.10026 0.60091 0.3724 1.26106 0.3724 0.96485 0 1.65886-0.77865 0.69401-0.77864 0.69401-2.11588 0-1.28646-0.68555-2.02279-0.68555-0.74479-1.72656-0.74479-1.03255 0-1.75195 0.74479-0.71941 0.73633-0.71941 1.93815z"/>
  </g>
  <g aria-label="4">
   <path d="m442.269 151.62v-2.9707h-5.38282v-1.39649l5.66211-8.04036h1.24414v8.04036h1.67579v1.39649h-1.67579v2.9707zm0-4.36719v-5.5944l-3.88477 5.5944z"/>
  </g>
  <g aria-label="2">
   <path d="m479.221 150.207v1.46419h-8.20117q-0.0169-0.55013 0.17773-1.05794 0.31316-0.83789 0.9987-1.65039 0.69401-0.8125 1.9974-1.87891 2.02279-1.65885 2.73372-2.6237 0.71094-0.9733 0.71094-1.83658 0-0.9056-0.65169-1.52344-0.64323-0.6263-1.68425-0.6263-1.10026 0-1.76041 0.66015-0.66016 0.66016-0.66862 1.82813l-1.56576-0.16081q0.16081-1.75195 1.21029-2.66602 1.04948-0.92252 2.81836-0.92252 1.7858 0 2.82682 0.99023 1.04102 0.99024 1.04102 2.45443 0 0.74479-0.30469 1.46419t-1.01563 1.51498q-0.70247 0.79557-2.3444 2.18359-1.37109 1.15104-1.76041 1.56576-0.38933 0.40625-0.64323 0.82096z"/>
  </g>
  <g aria-label="20">
   <path d="m168.872 150.207v1.46419h-8.20117q-0.0169-0.55013 0.17773-1.05794 0.31315-0.83789 0.9987-1.65039 0.69401-0.8125 1.9974-1.87891 2.02278-1.65885 2.73372-2.6237 0.71094-0.9733 0.71094-1.83658 0-0.9056-0.6517-1.52344-0.64323-0.6263-1.68424-0.6263-1.10026 0-1.76042 0.66015-0.66015 0.66016-0.66862 1.82813l-1.56575-0.16081q0.1608-1.75195 1.21028-2.66602 1.04948-0.92252 2.81836-0.92252 1.78581 0 2.82683 0.99023 1.04101 0.99024 1.04101 2.45443 0 0.74479-0.30469 1.46419-0.30468 0.7194-1.01562 1.51498-0.70247 0.79557-2.3444 2.18359-1.3711 1.15104-1.76042 1.56576-0.38932 0.40625-0.64323 0.82096z"/>
   <path d="m170.514 145.552q0-2.20052 0.44856-3.53776 0.45703-1.3457 1.34571-2.07357 0.89713-0.72786 2.2513-0.72786 0.9987 0 1.75195 0.40625 0.75326 0.39779 1.24414 1.1595 0.49089 0.75326 0.77019 1.84506 0.27929 1.08333 0.27929 2.92838 0 2.1836-0.44857 3.5293-0.44856 1.33724-1.3457 2.07357-0.88867 0.72786-2.2513 0.72786-1.79427 0-2.81836-1.28646-1.22721-1.54883-1.22721-5.04427zm1.56575 0q0 3.05534 0.71094 4.07097 0.7194 1.00716 1.76888 1.00716t1.76042-1.01563q0.7194-1.01562 0.7194-4.0625 0-3.0638-0.7194-4.07096-0.71094-1.00716-1.77735-1.00716-1.04948 0-1.67578 0.88867-0.78711 1.13411-0.78711 4.18945z"/>
  </g>
 </g>
</svg>