<?xml version="1.0" encoding="UTF-8" standalone="no"?>
<!-- Created with Inkscape (http://www.inkscape.org/) -->
<svg xmlns:svg="http://www.w3.org/2000/svg" xmlns="http://www.w3.org/2000/svg" version="1.0" width="518.48102" height="160" viewBox="-131.241 0 518.481 160" id="Layer_1" xml:space="preserve"><defs id="defs1925"/>
<path d="M -106.937,11.139 C -114.736,11.139 -121.114,17.518 -121.114,25.316 L -121.114,94.851 C -121.114,102.649 -119.239,115.123 -116.947,122.575 L -112.822,135.976 C -110.529,143.43 -102.274,149.522 -94.474,149.522 L 350.457,149.522 C 358.258,149.522 366.511,143.424 368.808,135.978 L 372.94,122.568 C 375.236,115.116 377.115,102.641 377.115,94.847 L 377.115,25.316 C 377.115,17.518 370.738,11.139 362.934,11.139 L -106.937,11.139 L -106.937,11.139 z " style="fill:#ffffff;stroke:#000000;stroke-width:4.05060005" id="path1628"/>
<g id="g1630">
	<g id="g1632">
		<rect width="36.456001" height="36.456001" x="-96.139999" y="20.587999" style="fill:none;stroke:#000000;stroke-width:2.02530003" id="rect1634"/>
		<rect width="36.456001" height="36.456001" x="-55.053001" y="20.587999" style="fill:none;stroke:#000000;stroke-width:2.02530003" id="rect1636"/>
		<rect width="36.456001" height="36.456001" x="-13.965" y="20.587999" style="fill:none;stroke:#000000;stroke-width:2.02530003" id="rect1638"/>
		<rect width="36.456001" height="36.456001" x="27.122999" y="20.587999" style="fill:none;stroke:#000000;stroke-width:2.02530003" id="rect1640"/>
		<rect width="36.456001" height="36.456001" x="68.208" y="20.587999" style="fill:none;stroke:#000000;stroke-width:2.02530003" id="rect1642"/>
		<rect width="36.455002" height="36.456001" x="109.296" y="20.587999" style="fill:none;stroke:#000000;stroke-width:2.02530003" id="rect1644"/>
		<rect width="36.456001" height="36.456001" x="150.383" y="20.587999" style="fill:none;stroke:#000000;stroke-width:2.02530003" id="rect1646"/>
		<rect width="36.456001" height="36.456001" x="191.47099" y="20.587999" style="fill:none;stroke:#000000;stroke-width:2.02530003" id="rect1648"/>
	</g>
	<g id="g1650">
		<rect width="36.456001" height="36.452" x="-96.139999" y="61.771" style="fill:none;stroke:#000000;stroke-width:2.02530003" id="rect1652"/>
		<rect width="36.456001" height="36.452" x="-55.053001" y="61.771" style="fill:none;stroke:#000000;stroke-width:2.02530003" id="rect1654"/>
		<rect width="36.456001" height="36.452" x="-13.965" y="61.771" style="fill:none;stroke:#000000;stroke-width:2.02530003" id="rect1656"/>
		<rect width="36.456001" height="36.452" x="27.122999" y="61.771" style="fill:none;stroke:#000000;stroke-width:2.02530003" id="rect1658"/>
		<rect width="36.456001" height="36.452" x="68.208" y="61.771" style="fill:none;stroke:#000000;stroke-width:2.02530003" id="rect1660"/>
		<rect width="36.455002" height="36.452" x="109.296" y="61.771" style="fill:none;stroke:#000000;stroke-width:2.02530003" id="rect1662"/>
		<rect width="36.456001" height="36.452" x="150.383" y="61.771" style="fill:none;stroke:#000000;stroke-width:2.02530003" id="rect1664"/>
		<rect width="36.456001" height="36.452" x="191.47099" y="61.771" style="fill:none;stroke:#000000;stroke-width:2.02530003" id="rect1666"/>
	</g>
	<g id="g1668">
		<rect width="36.456001" height="36.452" x="-96.139999" y="102.954" style="fill:none;stroke:#000000;stroke-width:2.02530003" id="rect1670"/>
		<rect width="36.456001" height="36.452" x="-55.053001" y="102.954" style="fill:none;stroke:#000000;stroke-width:2.02530003" id="rect1672"/>
		<rect width="36.456001" height="36.452" x="-13.965" y="102.954" style="fill:none;stroke:#000000;stroke-width:2.02530003" id="rect1674"/>
		<rect width="36.456001" height="36.452" x="27.122999" y="102.954" style="fill:none;stroke:#000000;stroke-width:2.02530003" id="rect1676"/>
		<rect width="36.456001" height="36.452" x="68.208" y="102.954" style="fill:none;stroke:#000000;stroke-width:2.02530003" id="rect1678"/>
		<rect width="36.455002" height="36.452" x="109.296" y="102.954" style="fill:none;stroke:#000000;stroke-width:2.02530003" id="rect1680"/>
		<rect width="36.456001" height="36.452" x="150.383" y="102.954" style="fill:none;stroke:#000000;stroke-width:2.02530003" id="rect1682"/>
		<rect width="36.456001" height="36.452" x="191.47099" y="102.954" style="fill:none;stroke:#000000;stroke-width:2.02530003" id="rect1684"/>
	</g>
</g>
<g id="g1686">
	<polygon points="353.134,72.906 313.643,72.906 313.643,33.415 302.169,33.415 302.169,72.906 262.671,72.906 262.671,84.379 302.169,84.379 302.169,123.874 313.643,123.874 313.643,84.379 353.134,84.379 353.134,72.906 " style="fill:#ffffff;stroke:#000000;stroke-width:2.02530003" id="polygon1688"/>
	<rect width="25.318001" height="25.318001" x="268.745" y="39.493999" style="fill:none;stroke:#000000;stroke-width:2.02530003" id="rect1690"/>
	<rect width="25.318001" height="25.318001" x="321.733" y="39.486" style="fill:none;stroke:#000000;stroke-width:2.02530003" id="rect1692"/>
	<rect width="25.316" height="25.318001" x="321.741" y="92.472" style="fill:none;stroke:#000000;stroke-width:2.02530003" id="rect1694"/>
	<rect width="25.316" height="25.32" x="268.75299" y="92.475998" style="fill:none;stroke:#000000;stroke-width:2.02530003" id="rect1696"/>
</g>
<g id="g1698">
	<g id="g1700">
		<g id="g1702">
			<g id="g1704">
				<rect width="28.354" height="20.253" x="-91.762001" y="30.372999" style="fill:none" id="rect1706"/>
				<path d="M -75.489,46.323 L -77.451,46.323 L -77.451,33.847 C -77.921,34.296 -78.538,34.746 -79.303,35.195 C -80.066,35.645 -80.753,35.98 -81.36,36.208 L -81.36,34.315 C -80.266,33.801 -79.311,33.177 -78.492,32.443 C -77.674,31.709 -77.094,30.999 -76.754,30.31 L -75.488,30.31 L -75.488,46.323 L -75.489,46.323 z " id="path1708"/>
			</g>
			<g id="g1710">
				<rect width="28.354" height="20.253" x="-50.868999" y="30.372999" style="fill:none" id="rect1712"/>
				<path d="M -31.669,44.44 L -31.669,46.323 L -42.208,46.323 C -42.224,45.85 -42.148,45.398 -41.981,44.965 C -41.715,44.248 -41.286,43.541 -40.696,42.847 C -40.105,42.153 -39.253,41.346 -38.138,40.433 C -36.408,39.003 -35.233,37.873 -34.62,37.044 C -34.004,36.214 -33.695,35.43 -33.695,34.688 C -33.695,33.912 -33.975,33.258 -34.528,32.725 C -35.084,32.192 -35.811,31.927 -36.704,31.927 C -37.648,31.927 -38.406,32.211 -38.974,32.778 C -39.54,33.346 -39.828,34.132 -39.834,35.139 L -41.844,34.932 C -41.706,33.428 -41.186,32.282 -40.285,31.494 C -39.385,30.705 -38.178,30.313 -36.66,30.313 C -35.128,30.313 -33.916,30.736 -33.024,31.584 C -32.131,32.434 -31.683,33.485 -31.683,34.739 C -31.683,35.377 -31.816,36.005 -32.077,36.62 C -32.339,37.237 -32.773,37.886 -33.379,38.567 C -33.986,39.246 -34.991,40.182 -36.394,41.372 C -37.57,42.359 -38.323,43.029 -38.659,43.382 C -38.992,43.734 -39.272,44.087 -39.491,44.443 L -31.669,44.44 L -31.669,44.44 z " id="path1714"/>
			</g>
			<g id="g1716">
				<rect width="28.354" height="20.253" x="-9.9790001" y="30.372999" style="fill:none" id="rect1718"/>
				<path d="M -1.062,42.098 L 0.899,41.83 C 1.126,42.943 1.505,43.748 2.042,44.239 C 2.58,44.732 3.239,44.979 4.02,44.979 C 4.948,44.979 5.726,44.661 6.357,44.023 C 6.99,43.387 7.305,42.594 7.305,41.656 C 7.305,40.759 7.009,40.017 6.423,39.434 C 5.835,38.851 5.087,38.559 4.182,38.559 C 3.811,38.559 3.352,38.632 2.801,38.776 L 3.017,37.049 C 3.147,37.064 3.252,37.072 3.334,37.072 C 4.166,37.072 4.913,36.855 5.578,36.42 C 6.245,35.984 6.577,35.316 6.577,34.41 C 6.577,33.694 6.333,33.099 5.846,32.631 C 5.362,32.161 4.736,31.924 3.966,31.924 C 3.204,31.924 2.57,32.163 2.064,32.641 C 1.558,33.117 1.229,33.834 1.085,34.789 L -0.877,34.442 C -0.639,33.132 -0.096,32.114 0.754,31.394 C 1.603,30.672 2.658,30.312 3.919,30.312 C 4.788,30.312 5.589,30.498 6.324,30.871 C 7.056,31.245 7.615,31.754 8.003,32.398 C 8.39,33.045 8.586,33.729 8.586,34.454 C 8.586,35.142 8.402,35.767 8.031,36.336 C 7.661,36.902 7.114,37.351 6.389,37.684 C 7.33,37.902 8.066,38.352 8.591,39.038 C 9.116,39.722 9.378,40.578 9.378,41.606 C 9.378,42.998 8.871,44.175 7.856,45.141 C 6.84,46.11 5.556,46.592 4.005,46.592 C 2.607,46.592 1.444,46.174 0.517,45.34 C -0.404,44.507 -0.933,43.426 -1.062,42.098 z " id="path1720"/>
			</g>
			<g id="g1722">
				<rect width="28.354" height="20.253" x="30.914" y="30.372999" style="fill:none" id="rect1724"/>
				<path d="M 46.095,46.323 L 46.095,42.51 L 39.181,42.51 L 39.181,40.722 L 46.458,30.375 L 48.056,30.375 L 48.056,40.722 L 50.207,40.722 L 50.207,42.51 L 48.056,42.51 L 48.056,46.323 L 46.095,46.323 L 46.095,46.323 z M 46.095,40.722 L 46.095,33.519 L 41.104,40.722 L 46.095,40.722 z " id="path1726"/>
			</g>
			<g id="g1728">
				<rect width="28.354" height="20.253" x="71.806999" y="30.372999" style="fill:none" id="rect1730"/>
				<path d="M 80.706,42.146 L 82.764,41.97 C 82.915,42.97 83.27,43.719 83.825,44.223 C 84.377,44.726 85.05,44.979 85.838,44.979 C 86.793,44.979 87.594,44.623 88.244,43.911 C 88.895,43.202 89.22,42.256 89.22,41.08 C 89.22,39.962 88.908,39.08 88.282,38.434 C 87.657,37.787 86.832,37.463 85.804,37.463 C 85.167,37.463 84.594,37.606 84.087,37.894 C 83.581,38.182 83.182,38.554 82.892,39.014 L 81.059,38.778 L 82.61,30.581 L 90.552,30.581 L 90.552,32.449 L 84.172,32.449 L 83.308,36.737 C 84.267,36.071 85.272,35.74 86.326,35.74 C 87.722,35.74 88.898,36.221 89.855,37.188 C 90.815,38.154 91.294,39.393 91.294,40.91 C 91.294,42.354 90.873,43.604 90.03,44.654 C 89.008,45.947 87.609,46.593 85.837,46.593 C 84.385,46.593 83.202,46.186 82.283,45.375 C 81.36,44.562 80.836,43.486 80.706,42.146 z " id="path1732"/>
			</g>
			<g id="g1734">
				<rect width="28.353001" height="20.253" x="112.697" y="30.372999" style="fill:none" id="rect1736"/>
				<path d="M 131.768,34.282 L 129.824,34.44 C 129.65,33.671 129.402,33.11 129.084,32.763 C 128.555,32.204 127.903,31.925 127.126,31.925 C 126.502,31.925 125.951,32.097 125.474,32.445 C 124.861,32.895 124.377,33.549 124.021,34.409 C 123.665,35.273 123.48,36.501 123.465,38.096 C 123.938,37.379 124.514,36.845 125.195,36.496 C 125.876,36.148 126.593,35.974 127.342,35.974 C 128.648,35.974 129.759,36.453 130.679,37.413 C 131.596,38.375 132.055,39.617 132.055,41.14 C 132.055,42.139 131.842,43.069 131.41,43.928 C 130.975,44.787 130.384,45.447 129.63,45.903 C 128.874,46.36 128.019,46.588 127.059,46.588 C 125.424,46.588 124.095,45.988 123.063,44.788 C 122.033,43.587 121.518,41.609 121.518,38.853 C 121.518,35.772 122.088,33.531 123.228,32.13 C 124.223,30.914 125.558,30.304 127.244,30.304 C 128.5,30.304 129.525,30.653 130.326,31.359 C 131.129,32.069 131.607,33.041 131.768,34.282 z M 123.766,41.147 C 123.766,41.822 123.909,42.466 124.195,43.083 C 124.483,43.7 124.882,44.171 125.395,44.492 C 125.906,44.817 126.45,44.976 127.02,44.976 C 127.853,44.976 128.567,44.643 129.159,43.976 C 129.751,43.308 130.046,42.402 130.046,41.256 C 130.046,40.154 129.751,39.285 129.167,38.65 C 128.582,38.016 127.842,37.698 126.943,37.698 C 126.058,37.698 125.308,38.016 124.69,38.65 C 124.073,39.286 123.766,40.118 123.766,41.147 z " id="path1738"/>
			</g>
			<g id="g1740">
				<rect width="28.354" height="20.253" x="153.589" y="30.372999" style="fill:none" id="rect1742"/>
				<path d="M 162.63,32.463 L 162.63,30.578 L 172.948,30.578 L 172.948,32.102 C 171.933,33.184 170.928,34.619 169.929,36.41 C 168.936,38.203 168.163,40.044 167.621,41.936 C 167.227,43.27 166.979,44.734 166.871,46.321 L 164.861,46.321 C 164.885,45.066 165.129,43.551 165.597,41.773 C 166.07,39.994 166.743,38.282 167.622,36.633 C 168.504,34.982 169.437,33.593 170.431,32.46 L 162.628,32.46 L 162.628,32.463 L 162.63,32.463 z " id="path1744"/>
			</g>
			<g id="g1746">
				<rect width="28.353001" height="20.253" x="194.48" y="30.372999" style="fill:none" id="rect1748"/>
				<path d="M 206.415,37.675 C 205.599,37.38 204.993,36.953 204.602,36.401 C 204.208,35.851 204.012,35.192 204.012,34.422 C 204.012,33.262 204.428,32.288 205.26,31.498 C 206.095,30.705 207.202,30.313 208.587,30.313 C 209.983,30.313 211.101,30.718 211.947,31.526 C 212.796,32.333 213.218,33.318 213.218,34.478 C 213.218,35.218 213.025,35.862 212.637,36.411 C 212.253,36.958 211.663,37.381 210.874,37.677 C 211.85,37.996 212.593,38.51 213.105,39.222 C 213.613,39.934 213.869,40.782 213.869,41.766 C 213.869,43.129 213.386,44.275 212.423,45.203 C 211.458,46.132 210.188,46.597 208.617,46.597 C 207.043,46.597 205.773,46.132 204.81,45.201 C 203.842,44.268 203.362,43.106 203.362,41.715 C 203.362,40.679 203.63,39.812 204.155,39.111 C 204.685,38.406 205.437,37.929 206.415,37.675 z M 205.371,41.718 C 205.371,42.276 205.504,42.816 205.767,43.336 C 206.028,43.859 206.419,44.263 206.946,44.55 C 207.47,44.835 208.03,44.98 208.632,44.98 C 209.573,44.98 210.344,44.679 210.953,44.079 C 211.558,43.477 211.861,42.713 211.861,41.785 C 211.861,40.845 211.549,40.063 210.923,39.449 C 210.298,38.833 209.513,38.527 208.568,38.527 C 207.64,38.527 206.879,38.831 206.275,39.44 C 205.674,40.044 205.371,40.805 205.371,41.718 z M 206.02,34.358 C 206.02,35.112 206.263,35.727 206.746,36.206 C 207.227,36.684 207.86,36.923 208.638,36.923 C 209.397,36.923 210.014,36.686 210.492,36.21 C 210.973,35.733 211.211,35.155 211.211,34.465 C 211.211,33.748 210.965,33.144 210.471,32.654 C 209.979,32.163 209.362,31.921 208.617,31.921 C 207.866,31.921 207.245,32.16 206.755,32.637 C 206.267,33.122 206.02,33.691 206.02,34.358 z " id="path1750"/>
			</g>
		</g>
		<g id="g1752">
			<g id="g1754">
				<rect width="28.354" height="20.252001" x="-91.762001" y="70.880997" style="fill:none" id="rect1756"/>
				<path d="M -82.562,83.143 L -80.678,82.971 C -80.518,83.851 -80.214,84.492 -79.767,84.889 C -79.319,85.286 -78.741,85.487 -78.038,85.487 C -77.437,85.487 -76.908,85.346 -76.452,85.073 C -75.996,84.797 -75.625,84.43 -75.339,83.969 C -75.051,83.504 -74.81,82.888 -74.615,82.102 C -74.419,81.319 -74.323,80.524 -74.323,79.712 C -74.323,79.624 -74.326,79.495 -74.333,79.32 C -74.723,79.944 -75.261,80.45 -75.937,80.837 C -76.613,81.224 -77.347,81.418 -78.139,81.418 C -79.458,81.418 -80.576,80.94 -81.488,79.984 C -82.402,79.029 -82.859,77.766 -82.859,76.202 C -82.859,74.585 -82.384,73.285 -81.428,72.299 C -80.472,71.312 -79.279,70.82 -77.841,70.82 C -76.803,70.82 -75.855,71.1 -74.994,71.658 C -74.137,72.215 -73.482,73.012 -73.036,74.045 C -72.591,75.08 -72.367,76.576 -72.367,78.533 C -72.367,80.569 -72.588,82.189 -73.032,83.399 C -73.473,84.606 -74.132,85.525 -75.007,86.154 C -75.881,86.787 -76.904,87.099 -78.08,87.099 C -79.326,87.099 -80.345,86.753 -81.136,86.061 C -81.928,85.369 -82.403,84.398 -82.562,83.143 z M -74.555,76.103 C -74.555,74.979 -74.853,74.085 -75.448,73.425 C -76.044,72.764 -76.765,72.434 -77.611,72.434 C -78.486,72.434 -79.246,72.788 -79.889,73.502 C -80.532,74.212 -80.854,75.134 -80.854,76.266 C -80.854,77.284 -80.55,78.11 -79.938,78.744 C -79.329,79.38 -78.57,79.698 -77.667,79.698 C -76.758,79.698 -76.015,79.38 -75.431,78.744 C -74.848,78.107 -74.555,77.227 -74.555,76.103 z " id="path1758"/>
			</g>
			<g id="g1760">
				<rect width="28.354" height="20.252001" x="-50.868999" y="70.880997" style="fill:none" id="rect1762"/>
				<path d="M -40.791,86.829 L -42.754,86.829 L -42.754,74.354 C -43.223,74.803 -43.842,75.252 -44.604,75.704 C -45.369,76.152 -46.056,76.489 -46.663,76.717 L -46.663,74.821 C -45.568,74.307 -44.613,73.683 -43.794,72.949 C -42.977,72.218 -42.398,71.506 -42.057,70.818 L -40.791,70.818 L -40.791,86.829 z " id="path1764"/>
				<path d="M -35.775,78.964 C -35.775,77.078 -35.58,75.56 -35.192,74.408 C -34.805,73.257 -34.225,72.372 -33.46,71.75 C -32.695,71.127 -31.731,70.818 -30.569,70.818 C -29.711,70.818 -28.959,70.99 -28.309,71.335 C -27.659,71.679 -27.127,72.177 -26.707,72.826 C -26.289,73.472 -25.96,74.264 -25.721,75.194 C -25.482,76.127 -25.361,77.384 -25.361,78.964 C -25.361,80.835 -25.552,82.346 -25.937,83.496 C -26.323,84.649 -26.898,85.537 -27.666,86.16 C -28.43,86.785 -29.397,87.098 -30.568,87.098 C -32.106,87.098 -33.315,86.548 -34.195,85.452 C -35.249,84.121 -35.775,81.96 -35.775,78.964 z M -33.766,78.96 C -33.766,81.58 -33.459,83.326 -32.843,84.189 C -32.231,85.055 -31.471,85.489 -30.571,85.489 C -29.668,85.489 -28.91,85.053 -28.296,84.185 C -27.68,83.317 -27.373,81.575 -27.373,78.96 C -27.373,76.336 -27.68,74.589 -28.294,73.729 C -28.908,72.865 -29.673,72.434 -30.59,72.434 C -31.491,72.434 -32.216,72.815 -32.756,73.577 C -33.429,74.547 -33.766,76.341 -33.766,78.96 z " id="path1766"/>
			</g>
			<g id="g1768">
				<rect width="28.354" height="20.252001" x="-9.9790001" y="70.880997" style="fill:none" id="rect1770"/>
				<path d="M 0.926,86.829 L -1.034,86.829 L -1.034,74.354 C -1.505,74.803 -2.122,75.252 -2.884,75.704 C -3.65,76.152 -4.335,76.489 -4.942,76.717 L -4.942,74.821 C -3.849,74.307 -2.893,73.683 -2.074,72.949 C -1.256,72.218 -0.678,71.506 -0.337,70.818 L 0.929,70.818 L 0.929,86.829 L 0.926,86.829 L 0.926,86.829 z " id="path1772"/>
				<path d="M 11.665,86.829 L 9.702,86.829 L 9.702,74.354 C 9.233,74.803 8.614,75.252 7.852,75.704 C 7.087,76.152 6.401,76.489 5.793,76.717 L 5.793,74.821 C 6.888,74.307 7.844,73.683 8.662,72.949 C 9.481,72.218 10.058,71.506 10.4,70.818 L 11.666,70.818 L 11.666,86.829 L 11.665,86.829 z " id="path1774"/>
			</g>
			<g id="g1776">
				<rect width="28.354" height="20.252001" x="30.914" y="70.880997" style="fill:none" id="rect1778"/>
				<path d="M 40.992,86.829 L 39.031,86.829 L 39.031,74.354 C 38.56,74.803 37.943,75.252 37.178,75.704 C 36.416,76.152 35.729,76.489 35.12,76.717 L 35.12,74.821 C 36.214,74.307 37.17,73.683 37.988,72.949 C 38.807,72.218 39.386,71.506 39.726,70.818 L 40.992,70.818 L 40.992,86.829 L 40.992,86.829 z " id="path1780"/>
				<path d="M 56.31,84.946 L 56.31,86.829 L 45.771,86.829 C 45.757,86.358 45.833,85.907 45.998,85.471 C 46.266,84.754 46.696,84.044 47.286,83.352 C 47.877,82.655 48.728,81.851 49.844,80.94 C 51.573,79.509 52.748,78.379 53.363,77.55 C 53.978,76.721 54.284,75.937 54.284,75.194 C 54.284,74.418 54.005,73.764 53.451,73.231 C 52.895,72.697 52.168,72.433 51.275,72.433 C 50.333,72.433 49.575,72.716 49.007,73.284 C 48.441,73.852 48.152,74.638 48.147,75.645 L 46.138,75.438 C 46.275,73.934 46.794,72.788 47.695,72 C 48.597,71.211 49.803,70.819 51.321,70.819 C 52.851,70.819 54.066,71.242 54.956,72.09 C 55.848,72.94 56.296,73.991 56.296,75.245 C 56.296,75.883 56.165,76.511 55.904,77.126 C 55.642,77.743 55.206,78.392 54.601,79.073 C 53.993,79.752 52.989,80.687 51.584,81.878 C 50.41,82.862 49.656,83.531 49.321,83.885 C 48.986,84.239 48.706,84.591 48.488,84.946 L 56.311,84.946 L 56.311,84.946 L 56.31,84.946 z " id="path1782"/>
			</g>
			<g id="g1784">
				<rect width="28.354" height="20.252001" x="71.806999" y="70.880997" style="fill:none" id="rect1786"/>
				<path d="M 81.885,86.829 L 79.921,86.829 L 79.921,74.354 C 79.452,74.803 78.833,75.252 78.07,75.704 C 77.306,76.152 76.619,76.489 76.011,76.717 L 76.011,74.821 C 77.106,74.307 78.062,73.683 78.88,72.949 C 79.699,72.218 80.276,71.506 80.619,70.818 L 81.885,70.818 L 81.885,86.829 L 81.885,86.829 z " id="path1788"/>
				<path d="M 86.917,82.603 L 88.88,82.333 C 89.105,83.451 89.486,84.254 90.021,84.744 C 90.559,85.239 91.219,85.484 92.001,85.484 C 92.929,85.484 93.707,85.166 94.339,84.526 C 94.971,83.889 95.286,83.098 95.286,82.155 C 95.286,81.259 94.99,80.521 94.402,79.937 C 93.816,79.353 93.068,79.063 92.163,79.063 C 91.792,79.063 91.331,79.134 90.781,79.278 L 90.999,77.554 C 91.128,77.568 91.233,77.576 91.313,77.576 C 92.147,77.576 92.893,77.359 93.557,76.923 C 94.224,76.488 94.557,75.819 94.557,74.913 C 94.557,74.196 94.314,73.604 93.828,73.134 C 93.342,72.665 92.715,72.428 91.946,72.428 C 91.186,72.428 90.552,72.667 90.046,73.144 C 89.54,73.621 89.211,74.337 89.068,75.293 L 87.104,74.945 C 87.345,73.634 87.887,72.618 88.736,71.896 C 89.584,71.175 90.639,70.814 91.902,70.814 C 92.771,70.814 93.572,71.001 94.306,71.374 C 95.038,71.749 95.598,72.256 95.987,72.901 C 96.374,73.547 96.57,74.231 96.57,74.956 C 96.57,75.645 96.385,76.271 96.014,76.838 C 95.643,77.404 95.097,77.854 94.371,78.188 C 95.313,78.405 96.048,78.855 96.572,79.541 C 97.097,80.226 97.361,81.079 97.361,82.106 C 97.361,83.5 96.852,84.676 95.837,85.644 C 94.823,86.611 93.54,87.095 91.988,87.095 C 90.588,87.095 89.425,86.678 88.5,85.841 C 87.575,85.016 87.047,83.932 86.917,82.603 z " id="path1790"/>
			</g>
			<g id="g1792">
				<rect width="28.353001" height="20.252001" x="112.697" y="70.880997" style="fill:none" id="rect1794"/>
				<path d="M 122.775,86.829 L 120.813,86.829 L 120.813,74.354 C 120.342,74.803 119.726,75.252 118.961,75.704 C 118.198,76.152 117.512,76.489 116.905,76.717 L 116.905,74.821 C 117.997,74.307 118.954,73.683 119.771,72.949 C 120.59,72.218 121.169,71.506 121.509,70.818 L 122.775,70.818 L 122.775,86.829 L 122.775,86.829 z " id="path1796"/>
				<path d="M 134.075,86.829 L 134.075,83.016 L 127.16,83.016 L 127.16,81.226 L 134.439,70.881 L 136.037,70.881 L 136.037,81.226 L 138.187,81.226 L 138.187,83.016 L 136.037,83.016 L 136.037,86.829 L 134.075,86.829 z M 134.075,81.226 L 134.075,74.025 L 129.083,81.226 L 134.075,81.226 L 134.075,81.226 z " id="path1798"/>
			</g>
			<g id="g1800">
				<rect width="28.354" height="20.252001" x="153.589" y="70.880997" style="fill:none" id="rect1802"/>
				<path d="M 163.666,86.829 L 161.702,86.829 L 161.702,74.354 C 161.233,74.803 160.616,75.252 159.85,75.704 C 159.088,76.152 158.401,76.489 157.793,76.717 L 157.793,74.821 C 158.889,74.307 159.842,73.683 160.661,72.949 C 161.479,72.218 162.058,71.506 162.399,70.818 L 163.663,70.818 L 163.663,86.829 L 163.666,86.829 L 163.666,86.829 z " id="path1804"/>
				<path d="M 168.686,82.651 L 170.744,82.479 C 170.896,83.478 171.246,84.228 171.802,84.732 C 172.352,85.235 173.025,85.486 173.816,85.486 C 174.771,85.486 175.572,85.126 176.223,84.416 C 176.873,83.706 177.196,82.763 177.196,81.586 C 177.196,80.472 176.884,79.588 176.257,78.94 C 175.634,78.295 174.808,77.97 173.782,77.97 C 173.143,77.97 172.57,78.114 172.063,78.403 C 171.557,78.691 171.16,79.063 170.865,79.521 L 169.034,79.285 L 170.585,71.089 L 178.527,71.089 L 178.527,72.956 L 172.149,72.956 L 171.28,77.245 C 172.242,76.579 173.249,76.248 174.301,76.248 C 175.696,76.248 176.874,76.729 177.829,77.696 C 178.789,78.661 179.271,79.901 179.271,81.418 C 179.271,82.861 178.847,84.109 178.005,85.164 C 176.982,86.457 175.584,87.1 173.812,87.1 C 172.36,87.1 171.175,86.695 170.257,85.884 C 169.337,85.07 168.812,83.995 168.686,82.651 z " id="path1806"/>
			</g>
			<g id="g1808">
				<rect width="28.353001" height="20.252001" x="194.48" y="70.880997" style="fill:none" id="rect1810"/>
				<path d="M 204.56,86.829 L 202.594,86.829 L 202.594,74.354 C 202.127,74.803 201.508,75.252 200.745,75.704 C 199.979,76.152 199.293,76.489 198.685,76.717 L 198.685,74.821 C 199.781,74.307 200.737,73.683 201.555,72.949 C 202.373,72.218 202.953,71.506 203.293,70.818 L 204.557,70.818 L 204.557,86.829 L 204.56,86.829 L 204.56,86.829 z " id="path1812"/>
				<path d="M 219.75,74.789 L 217.804,74.948 C 217.63,74.178 217.385,73.619 217.064,73.269 C 216.535,72.711 215.879,72.432 215.102,72.432 C 214.475,72.432 213.927,72.603 213.449,72.953 C 212.838,73.402 212.355,74.057 211.998,74.916 C 211.642,75.781 211.456,77.007 211.446,78.603 C 211.917,77.885 212.494,77.353 213.176,77.004 C 213.854,76.654 214.571,76.482 215.32,76.482 C 216.628,76.482 217.741,76.962 218.657,77.92 C 219.575,78.882 220.038,80.123 220.038,81.648 C 220.038,82.648 219.818,83.578 219.387,84.434 C 218.958,85.294 218.365,85.954 217.607,86.414 C 216.854,86.87 215.996,87.098 215.041,87.098 C 213.405,87.098 212.074,86.499 211.043,85.294 C 210.013,84.096 209.499,82.12 209.499,79.363 C 209.499,76.283 210.066,74.042 211.208,72.642 C 212.198,71.425 213.539,70.815 215.221,70.815 C 216.477,70.815 217.507,71.166 218.306,71.872 C 219.109,72.577 219.59,73.548 219.75,74.789 z M 211.743,81.655 C 211.743,82.329 211.886,82.972 212.173,83.589 C 212.46,84.206 212.861,84.677 213.371,84.998 C 213.886,85.324 214.428,85.484 214.999,85.484 C 215.832,85.484 216.546,85.149 217.137,84.483 C 217.733,83.816 218.028,82.907 218.028,81.761 C 218.028,80.66 217.733,79.791 217.15,79.157 C 216.562,78.523 215.821,78.205 214.922,78.205 C 214.036,78.205 213.284,78.523 212.669,79.157 C 212.052,79.794 211.743,80.627 211.743,81.655 z " id="path1814"/>
			</g>
		</g>
		<g id="g1816">
			<g id="g1818">
				<rect width="28.354" height="20.254" x="-91.762001" y="111.386" style="fill:none" id="rect1820"/>
				<path d="M -81.684,127.337 L -83.646,127.337 L -83.646,114.861 C -84.117,115.31 -84.733,115.757 -85.498,116.21 C -86.261,116.659 -86.949,116.997 -87.556,117.223 L -87.556,115.328 C -86.461,114.811 -85.507,114.188 -84.688,113.455 C -83.87,112.721 -83.29,112.011 -82.95,111.325 L -81.684,111.325 L -81.684,127.337 L -81.684,127.337 z " id="path1822"/>
				<path d="M -76.524,113.477 L -76.524,111.594 L -66.207,111.594 L -66.207,113.116 C -67.221,114.196 -68.228,115.633 -69.222,117.425 C -70.218,119.217 -70.99,121.058 -71.533,122.952 C -71.925,124.283 -72.176,125.749 -72.283,127.335 L -74.291,127.335 C -74.269,126.079 -74.023,124.566 -73.554,122.788 C -73.084,121.013 -72.409,119.294 -71.529,117.647 C -70.651,115.998 -69.715,114.608 -68.722,113.472 L -76.524,113.472 L -76.524,113.477 L -76.524,113.477 z " id="path1824"/>
			</g>
			<g id="g1826">
				<rect width="28.354" height="20.254" x="-50.868999" y="111.386" style="fill:none" id="rect1828"/>
				<path d="M -40.791,127.337 L -42.754,127.337 L -42.754,114.861 C -43.223,115.31 -43.842,115.757 -44.604,116.21 C -45.369,116.659 -46.056,116.997 -46.663,117.223 L -46.663,115.328 C -45.568,114.811 -44.613,114.188 -43.794,113.455 C -42.977,112.721 -42.398,112.011 -42.057,111.325 L -40.791,111.325 L -40.791,127.337 z " id="path1830"/>
				<path d="M -32.742,118.69 C -33.556,118.395 -34.163,117.968 -34.554,117.416 C -34.948,116.864 -35.143,116.206 -35.143,115.435 C -35.143,114.278 -34.726,113.301 -33.894,112.51 C -33.061,111.721 -31.952,111.327 -30.567,111.327 C -29.175,111.327 -28.054,111.73 -27.207,112.539 C -26.358,113.346 -25.935,114.331 -25.935,115.492 C -25.935,116.229 -26.129,116.877 -26.517,117.421 C -26.904,117.969 -27.492,118.392 -28.282,118.691 C -27.305,119.007 -26.562,119.521 -26.053,120.236 C -25.541,120.948 -25.287,121.795 -25.287,122.779 C -25.287,124.144 -25.768,125.287 -26.733,126.215 C -27.698,127.143 -28.967,127.61 -30.538,127.61 C -32.11,127.61 -33.381,127.143 -34.346,126.214 C -35.311,125.28 -35.793,124.121 -35.793,122.729 C -35.793,121.693 -35.53,120.823 -35.001,120.123 C -34.472,119.42 -33.718,118.943 -32.742,118.69 z M -33.782,122.733 C -33.782,123.291 -33.652,123.831 -33.388,124.35 C -33.127,124.872 -32.733,125.276 -32.208,125.565 C -31.684,125.849 -31.121,125.994 -30.521,125.994 C -29.583,125.994 -28.808,125.695 -28.204,125.093 C -27.598,124.491 -27.294,123.726 -27.294,122.8 C -27.294,121.859 -27.606,121.075 -28.23,120.464 C -28.854,119.848 -29.64,119.539 -30.586,119.539 C -31.513,119.539 -32.275,119.844 -32.877,120.45 C -33.48,121.062 -33.782,121.817 -33.782,122.733 z M -33.134,115.375 C -33.134,116.129 -32.892,116.744 -32.41,117.223 C -31.93,117.7 -31.296,117.937 -30.517,117.937 C -29.759,117.937 -29.142,117.7 -28.662,117.227 C -28.183,116.75 -27.943,116.171 -27.943,115.481 C -27.943,114.765 -28.19,114.162 -28.684,113.673 C -29.177,113.182 -29.795,112.939 -30.539,112.939 C -31.29,112.939 -31.911,113.176 -32.401,113.655 C -32.889,114.133 -33.134,114.709 -33.134,115.375 z " id="path1832"/>
			</g>
			<g id="g1834">
				<rect width="28.354" height="20.254" x="-9.9790001" y="111.386" style="fill:none" id="rect1836"/>
				<path d="M 0.099,127.337 L -1.862,127.337 L -1.862,114.861 C -2.333,115.31 -2.95,115.757 -3.713,116.21 C -4.478,116.659 -5.163,116.997 -5.771,117.223 L -5.771,115.328 C -4.678,114.811 -3.721,114.188 -2.904,113.455 C -2.086,112.721 -1.507,112.011 -1.166,111.325 L 0.1,111.325 L 0.1,127.337 L 0.099,127.337 z " id="path1838"/>
				<path d="M 5.418,123.65 L 7.302,123.478 C 7.462,124.358 7.765,124.998 8.214,125.395 C 8.661,125.792 9.237,125.994 9.942,125.994 C 10.544,125.994 11.07,125.856 11.526,125.581 C 11.983,125.302 12.353,124.936 12.639,124.476 C 12.928,124.013 13.168,123.396 13.363,122.611 C 13.557,121.826 13.656,121.033 13.656,120.215 C 13.656,120.13 13.651,120.002 13.646,119.825 C 13.254,120.45 12.718,120.957 12.042,121.343 C 11.363,121.733 10.63,121.926 9.841,121.926 C 8.52,121.926 7.403,121.447 6.491,120.49 C 5.577,119.531 5.118,118.27 5.118,116.708 C 5.118,115.091 5.595,113.791 6.55,112.802 C 7.505,111.818 8.7,111.327 10.137,111.327 C 11.175,111.327 12.122,111.605 12.983,112.163 C 13.843,112.719 14.496,113.518 14.941,114.551 C 15.387,115.581 15.612,117.08 15.612,119.036 C 15.612,121.073 15.392,122.695 14.946,123.901 C 14.506,125.11 13.847,126.028 12.971,126.659 C 12.096,127.292 11.073,127.606 9.899,127.606 C 8.651,127.606 7.632,127.259 6.843,126.568 C 6.056,125.876 5.576,124.904 5.418,123.65 z M 13.424,116.607 C 13.424,115.48 13.127,114.589 12.532,113.931 C 11.936,113.268 11.216,112.938 10.368,112.938 C 9.494,112.938 8.734,113.294 8.09,114.004 C 7.446,114.716 7.126,115.64 7.126,116.769 C 7.126,117.784 7.431,118.611 8.041,119.249 C 8.654,119.884 9.409,120.202 10.314,120.202 C 11.221,120.202 11.963,119.884 12.55,119.249 C 13.134,118.611 13.424,117.733 13.424,116.607 z " id="path1840"/>
			</g>
			<g id="g1842">
				<rect width="28.354" height="20.254" x="30.914" y="111.386" style="fill:none" id="rect1844"/>
				<path d="M 43.919,125.454 L 43.919,127.335 L 33.381,127.335 C 33.368,126.864 33.443,126.414 33.608,125.977 C 33.877,125.261 34.306,124.551 34.896,123.859 C 35.487,123.165 36.337,122.36 37.454,121.446 C 39.184,120.016 40.358,118.883 40.972,118.056 C 41.587,117.227 41.894,116.44 41.894,115.701 C 41.894,114.924 41.615,114.272 41.06,113.734 C 40.505,113.203 39.778,112.939 38.884,112.939 C 37.942,112.939 37.184,113.22 36.617,113.79 C 36.049,114.357 35.761,115.143 35.756,116.151 L 33.748,115.944 C 33.885,114.44 34.402,113.294 35.304,112.506 C 36.204,111.717 37.412,111.325 38.929,111.325 C 40.46,111.325 41.674,111.748 42.565,112.595 C 43.457,113.446 43.904,114.493 43.904,115.749 C 43.904,116.388 43.773,117.015 43.512,117.63 C 43.251,118.247 42.815,118.896 42.208,119.58 C 41.602,120.261 40.596,121.194 39.193,122.387 C 38.019,123.37 37.263,124.038 36.929,124.393 C 36.594,124.745 36.314,125.101 36.096,125.455 L 43.919,125.455 L 43.919,125.454 z " id="path1846"/>
				<path d="M 46.01,119.47 C 46.01,117.585 46.205,116.066 46.593,114.914 C 46.98,113.766 47.558,112.877 48.324,112.256 C 49.09,111.635 50.053,111.327 51.218,111.327 C 52.073,111.327 52.825,111.497 53.475,111.843 C 54.125,112.188 54.658,112.684 55.077,113.332 C 55.497,113.977 55.826,114.77 56.064,115.704 C 56.302,116.635 56.425,117.892 56.425,119.47 C 56.425,121.341 56.232,122.852 55.846,124.003 C 55.463,125.156 54.888,126.044 54.119,126.669 C 53.354,127.294 52.387,127.607 51.218,127.607 C 49.677,127.607 48.468,127.057 47.591,125.961 C 46.535,124.628 46.01,122.466 46.01,119.47 z M 48.02,119.464 C 48.02,122.086 48.325,123.833 48.941,124.695 C 49.555,125.557 50.315,125.994 51.216,125.994 C 52.116,125.994 52.873,125.556 53.489,124.691 C 54.104,123.822 54.412,122.078 54.412,119.463 C 54.412,116.838 54.104,115.092 53.491,114.23 C 52.878,113.37 52.113,112.938 51.194,112.938 C 50.293,112.938 49.571,113.318 49.03,114.078 C 48.356,115.053 48.02,116.847 48.02,119.464 z " id="path1848"/>
			</g>
			<g id="g1850">
				<rect width="28.354" height="20.254" x="71.806999" y="111.386" style="fill:none" id="rect1852"/>
				<path d="M 84.812,125.454 L 84.812,127.335 L 74.273,127.335 C 74.258,126.864 74.334,126.414 74.501,125.977 C 74.767,125.261 75.196,124.551 75.786,123.859 C 76.377,123.165 77.228,122.36 78.344,121.446 C 80.074,120.016 81.248,118.883 81.862,118.056 C 82.478,117.227 82.787,116.44 82.787,115.701 C 82.787,114.924 82.506,114.272 81.953,113.734 C 81.397,113.203 80.671,112.939 79.777,112.939 C 78.833,112.939 78.075,113.22 77.508,113.79 C 76.941,114.357 76.654,115.143 76.647,116.151 L 74.638,115.944 C 74.776,114.44 75.295,113.294 76.197,112.506 C 77.095,111.717 78.305,111.325 79.822,111.325 C 81.354,111.325 82.567,111.748 83.457,112.595 C 84.351,113.446 84.798,114.493 84.798,115.749 C 84.798,116.388 84.666,117.015 84.404,117.63 C 84.143,118.247 83.709,118.896 83.102,119.58 C 82.495,120.261 81.49,121.194 80.088,122.387 C 78.913,123.37 78.156,124.038 77.822,124.393 C 77.489,124.745 77.21,125.101 76.99,125.455 L 84.812,125.455 L 84.812,125.454 z " id="path1854"/>
				<path d="M 94.274,127.337 L 92.313,127.337 L 92.313,114.861 C 91.842,115.31 91.225,115.757 90.46,116.21 C 89.698,116.659 89.009,116.997 88.402,117.223 L 88.402,115.328 C 89.496,114.811 90.452,114.188 91.27,113.455 C 92.088,112.721 92.668,112.011 93.008,111.325 L 94.274,111.325 L 94.274,127.337 L 94.274,127.337 z " id="path1856"/>
			</g>
			<g id="g1858">
				<rect width="28.353001" height="20.254" x="112.697" y="111.386" style="fill:none" id="rect1860"/>
				<path d="M 125.704,125.454 L 125.704,127.335 L 115.167,127.335 C 115.152,126.864 115.227,126.414 115.395,125.977 C 115.661,125.261 116.09,124.551 116.68,123.859 C 117.271,123.165 118.123,122.36 119.238,121.446 C 120.967,120.016 122.142,118.883 122.756,118.056 C 123.372,117.227 123.68,116.44 123.68,115.701 C 123.68,114.924 123.4,114.272 122.846,113.734 C 122.291,113.203 121.565,112.939 120.672,112.939 C 119.728,112.939 118.969,113.22 118.402,113.79 C 117.836,114.357 117.548,115.143 117.542,116.151 L 115.533,115.944 C 115.67,114.44 116.189,113.294 117.091,112.506 C 117.989,111.717 119.198,111.325 120.716,111.325 C 122.248,111.325 123.46,111.748 124.352,112.595 C 125.245,113.446 125.693,114.493 125.693,115.749 C 125.693,116.388 125.561,117.015 125.298,117.63 C 125.037,118.247 124.603,118.896 123.997,119.58 C 123.39,120.261 122.385,121.194 120.982,122.387 C 119.806,123.37 119.051,124.038 118.716,124.393 C 118.383,124.745 118.104,125.101 117.885,125.455 L 125.704,125.455 L 125.704,125.454 z " id="path1862"/>
				<path d="M 138.091,125.454 L 138.091,127.335 L 127.556,127.335 C 127.541,126.864 127.616,126.414 127.783,125.977 C 128.05,125.261 128.479,124.551 129.066,123.859 C 129.658,123.165 130.51,122.36 131.626,121.446 C 133.356,120.016 134.533,118.883 135.143,118.056 C 135.76,117.227 136.067,116.44 136.067,115.701 C 136.067,114.924 135.788,114.272 135.234,113.734 C 134.68,113.203 133.953,112.939 133.058,112.939 C 132.113,112.939 131.355,113.22 130.789,113.79 C 130.224,114.357 129.935,115.143 129.927,116.151 L 127.921,115.944 C 128.059,114.44 128.578,113.294 129.478,112.506 C 130.376,111.717 131.584,111.325 133.102,111.325 C 134.634,111.325 135.843,111.748 136.739,112.595 C 137.634,113.446 138.08,114.493 138.08,115.749 C 138.08,116.388 137.946,117.015 137.684,117.63 C 137.423,118.247 136.991,118.896 136.383,119.58 C 135.776,120.261 134.771,121.194 133.368,122.387 C 132.191,123.37 131.437,124.038 131.101,124.393 C 130.765,124.745 130.49,125.101 130.271,125.455 L 138.091,125.455 L 138.091,125.454 z " id="path1864"/>
			</g>
			<g id="g1866">
				<rect width="28.354" height="20.254" x="153.589" y="111.386" style="fill:none" id="rect1868"/>
				<path d="M 166.593,125.454 L 166.593,127.335 L 156.056,127.335 C 156.043,126.864 156.118,126.414 156.283,125.977 C 156.553,125.261 156.981,124.551 157.573,123.859 C 158.163,123.165 159.014,122.36 160.131,121.446 C 161.861,120.016 163.034,118.883 163.65,118.056 C 164.265,117.227 164.57,116.44 164.57,115.701 C 164.57,114.924 164.291,114.272 163.735,113.734 C 163.179,113.203 162.453,112.939 161.559,112.939 C 160.618,112.939 159.86,113.22 159.294,113.79 C 158.729,114.357 158.438,115.143 158.432,116.151 L 156.42,115.944 C 156.561,114.44 157.077,113.294 157.979,112.506 C 158.879,111.717 160.089,111.325 161.607,111.325 C 163.137,111.325 164.35,111.748 165.244,112.595 C 166.135,113.446 166.581,114.493 166.581,115.749 C 166.581,116.388 166.453,117.015 166.189,117.63 C 165.928,118.247 165.495,118.896 164.884,119.58 C 164.277,120.261 163.272,121.194 161.869,122.387 C 160.696,123.37 159.942,124.038 159.606,124.393 C 159.27,124.745 158.991,125.101 158.773,125.455 L 166.593,125.455 L 166.593,125.454 z " id="path1870"/>
				<path d="M 168.701,123.112 L 170.662,122.843 C 170.887,123.956 171.268,124.762 171.807,125.25 C 172.343,125.742 173.001,125.991 173.783,125.991 C 174.713,125.991 175.49,125.673 176.121,125.032 C 176.755,124.397 177.073,123.604 177.073,122.665 C 177.073,121.765 176.776,121.027 176.188,120.441 C 175.601,119.858 174.855,119.567 173.948,119.567 C 173.58,119.567 173.117,119.638 172.567,119.783 L 172.781,118.06 C 172.913,118.074 173.016,118.081 173.099,118.081 C 173.927,118.081 174.677,117.863 175.341,117.427 C 176.004,116.993 176.34,116.323 176.34,115.419 C 176.34,114.701 176.095,114.109 175.612,113.639 C 175.126,113.17 174.499,112.931 173.727,112.931 C 172.965,112.931 172.334,113.17 171.826,113.647 C 171.32,114.126 170.996,114.842 170.849,115.799 L 168.889,115.45 C 169.126,114.138 169.67,113.123 170.517,112.396 C 171.368,111.68 172.423,111.318 173.683,111.318 C 174.551,111.318 175.355,111.506 176.086,111.879 C 176.819,112.252 177.38,112.761 177.765,113.405 C 178.153,114.051 178.349,114.734 178.349,115.462 C 178.349,116.152 178.163,116.777 177.793,117.344 C 177.427,117.913 176.879,118.361 176.153,118.693 C 177.092,118.913 177.826,119.361 178.354,120.047 C 178.878,120.732 179.141,121.588 179.141,122.616 C 179.141,124.009 178.633,125.187 177.619,126.15 C 176.6,127.12 175.318,127.604 173.767,127.604 C 172.367,127.604 171.205,127.187 170.281,126.352 C 169.356,125.521 168.83,124.439 168.701,123.112 z " id="path1872"/>
			</g>
			<g id="g1874">
				<rect width="28.353001" height="20.254" x="194.48" y="111.386" style="fill:none" id="rect1876"/>
				<path d="M 207.485,125.454 L 207.485,127.335 L 196.947,127.335 C 196.931,126.864 197.007,126.414 197.175,125.977 C 197.444,125.261 197.875,124.551 198.46,123.859 C 199.05,123.165 199.904,122.36 201.022,121.446 C 202.749,120.016 203.925,118.883 204.537,118.056 C 205.154,117.227 205.461,116.44 205.461,115.701 C 205.461,114.924 205.18,114.272 204.626,113.734 C 204.07,113.203 203.345,112.939 202.45,112.939 C 201.507,112.939 200.75,113.22 200.183,113.79 C 199.616,114.357 199.329,115.143 199.321,116.151 L 197.312,115.944 C 197.448,114.44 197.97,113.294 198.871,112.506 C 199.768,111.717 200.977,111.325 202.494,111.325 C 204.029,111.325 205.239,111.748 206.132,112.595 C 207.026,113.446 207.473,114.493 207.473,115.749 C 207.473,116.388 207.344,117.015 207.083,117.63 C 206.815,118.247 206.383,118.896 205.775,119.58 C 205.168,120.261 204.163,121.194 202.76,122.387 C 201.585,123.37 200.83,124.038 200.493,124.393 C 200.161,124.745 199.883,125.101 199.665,125.455 L 207.485,125.455 L 207.485,125.454 z " id="path1878"/>
				<path d="M 215.859,127.337 L 215.859,123.523 L 208.943,123.523 L 208.943,121.735 L 216.221,111.386 L 217.819,111.386 L 217.819,121.735 L 219.969,121.735 L 219.969,123.523 L 217.819,123.523 L 217.819,127.335 L 215.859,127.335 L 215.859,127.337 z M 215.859,121.734 L 215.859,114.531 L 210.869,121.734 L 215.859,121.734 z " id="path1880"/>
			</g>
		</g>
	</g>
	<g id="g1882">
		<g id="g1884">
			<rect width="33.754002" height="22.952999" x="264.104" y="46.915001" style="fill:none" id="rect1886"/>
			<path d="M 280.248,53.507 L 281.595,53.847 C 281.311,54.95 280.804,55.791 280.073,56.369 C 279.344,56.948 278.445,57.238 277.391,57.238 C 276.299,57.238 275.407,57.015 274.723,56.569 C 274.036,56.125 273.516,55.478 273.161,54.633 C 272.803,53.788 272.623,52.88 272.623,51.91 C 272.623,50.853 272.828,49.931 273.227,49.143 C 273.633,48.358 274.206,47.758 274.954,47.35 C 275.7,46.939 276.518,46.737 277.413,46.737 C 278.432,46.737 279.284,46.995 279.976,47.513 C 280.67,48.029 281.151,48.757 281.423,49.692 L 280.104,50.005 C 279.869,49.265 279.525,48.726 279.078,48.39 C 278.627,48.052 278.069,47.883 277.39,47.883 C 276.609,47.883 275.959,48.07 275.434,48.445 C 274.908,48.819 274.543,49.322 274.328,49.951 C 274.117,50.583 274.014,51.231 274.014,51.901 C 274.014,52.766 274.139,53.52 274.388,54.163 C 274.639,54.809 275.033,55.29 275.561,55.607 C 276.095,55.924 276.666,56.085 277.288,56.085 C 278.04,56.085 278.679,55.87 279.195,55.434 C 279.708,55.007 280.062,54.362 280.248,53.507 z " id="path1888"/>
			<path d="M 287.439,57.066 L 286.189,57.066 L 286.189,49.126 C 285.892,49.412 285.495,49.698 285.008,49.985 C 284.524,50.271 284.086,50.485 283.698,50.63 L 283.698,49.425 C 284.396,49.097 285.006,48.7 285.524,48.235 C 286.045,47.768 286.416,47.315 286.633,46.879 L 287.438,46.879 L 287.438,57.066 L 287.439,57.066 z " id="path1890"/>
		</g>
		<g id="g1892">
			<rect width="33.754002" height="22.952999" x="316.76401" y="46.915001" style="fill:none" id="rect1894"/>
			<path d="M 332.912,53.507 L 334.256,53.847 C 333.971,54.95 333.464,55.791 332.736,56.369 C 332.003,56.948 331.108,57.238 330.052,57.238 C 328.958,57.238 328.07,57.015 327.386,56.569 C 326.698,56.125 326.179,55.478 325.824,54.633 C 325.462,53.788 325.286,52.88 325.286,51.91 C 325.286,50.853 325.487,49.931 325.89,49.143 C 326.292,48.358 326.866,47.758 327.614,47.35 C 328.359,46.939 329.18,46.737 330.076,46.737 C 331.091,46.737 331.943,46.995 332.636,47.513 C 333.33,48.029 333.811,48.757 334.087,49.692 L 332.764,50.005 C 332.529,49.265 332.189,48.726 331.742,48.39 C 331.292,48.052 330.729,47.883 330.054,47.883 C 329.271,47.883 328.619,48.07 328.098,48.445 C 327.572,48.819 327.203,49.322 326.993,49.951 C 326.781,50.583 326.674,51.231 326.674,51.901 C 326.674,52.766 326.799,53.52 327.052,54.163 C 327.304,54.809 327.694,55.29 328.225,55.607 C 328.755,55.924 329.33,56.085 329.948,56.085 C 330.702,56.085 331.339,55.87 331.857,55.434 C 332.372,55.007 332.727,54.362 332.912,53.507 z " id="path1896"/>
			<path d="M 341.953,55.872 L 341.953,57.066 L 335.244,57.066 C 335.234,56.766 335.286,56.475 335.389,56.202 C 335.563,55.743 335.834,55.294 336.214,54.853 C 336.587,54.41 337.133,53.898 337.843,53.319 C 338.944,52.412 339.689,51.695 340.078,51.166 C 340.466,50.638 340.657,50.136 340.657,49.664 C 340.657,49.169 340.475,48.753 340.124,48.412 C 339.773,48.074 339.312,47.903 338.745,47.903 C 338.145,47.903 337.665,48.084 337.309,48.444 C 336.947,48.804 336.763,49.304 336.761,49.944 L 335.479,49.81 C 335.564,48.855 335.895,48.126 336.466,47.624 C 337.039,47.125 337.807,46.874 338.77,46.874 C 339.744,46.874 340.515,47.143 341.082,47.684 C 341.649,48.225 341.935,48.893 341.935,49.691 C 341.935,50.099 341.852,50.496 341.688,50.889 C 341.522,51.282 341.243,51.692 340.861,52.128 C 340.475,52.56 339.835,53.156 338.941,53.914 C 338.195,54.542 337.716,54.969 337.503,55.192 C 337.293,55.415 337.117,55.64 336.977,55.867 L 341.954,55.867 L 341.954,55.872 L 341.953,55.872 z " id="path1898"/>
		</g>
		<g id="g1900">
			<rect width="33.754002" height="22.952" x="264.104" y="99.066002" style="fill:none" id="rect1902"/>
			<path d="M 280.248,105.658 L 281.595,106 C 281.311,107.104 280.804,107.944 280.073,108.524 C 279.344,109.099 278.445,109.392 277.391,109.392 C 276.299,109.392 275.407,109.166 274.723,108.723 C 274.036,108.279 273.516,107.631 273.161,106.786 C 272.803,105.942 272.623,105.036 272.623,104.067 C 272.623,103.006 272.828,102.085 273.227,101.299 C 273.633,100.514 274.206,99.914 274.954,99.503 C 275.7,99.096 276.518,98.888 277.413,98.888 C 278.432,98.888 279.284,99.15 279.976,99.667 C 280.67,100.184 281.151,100.909 281.423,101.845 L 280.104,102.157 C 279.869,101.418 279.525,100.878 279.078,100.542 C 278.627,100.203 278.069,100.035 277.39,100.035 C 276.609,100.035 275.959,100.224 275.434,100.598 C 274.908,100.97 274.543,101.474 274.328,102.101 C 274.117,102.735 274.014,103.385 274.014,104.055 C 274.014,104.92 274.139,105.671 274.388,106.316 C 274.639,106.962 275.033,107.444 275.561,107.762 C 276.095,108.076 276.666,108.237 277.288,108.237 C 278.04,108.237 278.679,108.023 279.195,107.587 C 279.708,107.157 280.062,106.515 280.248,105.658 z " id="path1904"/>
			<path d="M 282.746,106.534 L 283.996,106.37 C 284.139,107.074 284.382,107.585 284.726,107.897 C 285.068,108.206 285.487,108.364 285.986,108.364 C 286.575,108.364 287.068,108.16 287.471,107.751 C 287.876,107.35 288.077,106.847 288.077,106.248 C 288.077,105.674 287.889,105.201 287.515,104.831 C 287.139,104.46 286.666,104.277 286.087,104.277 C 285.852,104.277 285.557,104.323 285.207,104.416 L 285.343,103.324 C 285.427,103.334 285.493,103.336 285.545,103.336 C 286.077,103.336 286.556,103.2 286.979,102.923 C 287.403,102.644 287.617,102.219 287.617,101.642 C 287.617,101.185 287.463,100.805 287.154,100.508 C 286.845,100.205 286.444,100.053 285.953,100.053 C 285.471,100.053 285.067,100.205 284.745,100.514 C 284.419,100.815 284.213,101.276 284.12,101.885 L 282.872,101.663 C 283.022,100.826 283.368,100.18 283.908,99.717 C 284.448,99.258 285.123,99.029 285.926,99.029 C 286.478,99.029 286.99,99.148 287.457,99.385 C 287.923,99.624 288.279,99.948 288.526,100.358 C 288.775,100.769 288.898,101.207 288.898,101.666 C 288.898,102.104 288.779,102.507 288.544,102.864 C 288.309,103.226 287.961,103.513 287.498,103.726 C 288.102,103.865 288.566,104.154 288.896,104.586 C 289.228,105.024 289.394,105.564 289.394,106.222 C 289.394,107.109 289.072,107.86 288.423,108.473 C 287.78,109.084 286.957,109.395 285.968,109.395 C 285.08,109.395 284.339,109.129 283.747,108.598 C 283.16,108.067 282.829,107.379 282.746,106.534 z " id="path1906"/>
		</g>
		<g id="g1908">
			<rect width="33.754002" height="22.952" x="316.76401" y="99.066002" style="fill:none" id="rect1910"/>
			<path d="M 332.912,105.658 L 334.256,106 C 333.971,107.104 333.464,107.944 332.736,108.524 C 332.003,109.099 331.108,109.392 330.052,109.392 C 328.958,109.392 328.07,109.166 327.386,108.723 C 326.698,108.279 326.179,107.631 325.824,106.786 C 325.462,105.942 325.286,105.036 325.286,104.067 C 325.286,103.006 325.487,102.085 325.89,101.299 C 326.292,100.514 326.866,99.914 327.614,99.503 C 328.363,99.096 329.18,98.888 330.076,98.888 C 331.091,98.888 331.943,99.15 332.636,99.667 C 333.33,100.184 333.811,100.909 334.087,101.845 L 332.764,102.157 C 332.529,101.418 332.189,100.878 331.742,100.542 C 331.292,100.203 330.729,100.035 330.054,100.035 C 329.271,100.035 328.619,100.224 328.098,100.598 C 327.572,100.97 327.203,101.474 326.993,102.101 C 326.781,102.735 326.674,103.385 326.674,104.055 C 326.674,104.92 326.799,105.671 327.052,106.316 C 327.304,106.962 327.694,107.444 328.225,107.762 C 328.755,108.076 329.33,108.237 329.948,108.237 C 330.702,108.237 331.339,108.023 331.857,107.587 C 332.372,107.157 332.727,106.515 332.912,105.658 z " id="path1912"/>
			<path d="M 339.397,109.219 L 339.397,106.787 L 334.999,106.787 L 334.999,105.65 L 339.625,99.068 L 340.646,99.068 L 340.646,105.65 L 342.019,105.65 L 342.019,106.787 L 340.646,106.787 L 340.646,109.219 L 339.397,109.219 z M 339.397,105.648 L 339.397,101.065 L 336.223,105.648 L 339.397,105.648 z " id="path1914"/>
		</g>
		<g id="g1916">
			<rect width="33.754002" height="22.948" x="291.70001" y="129.62" style="fill:none" id="rect1918"/>
			<path d="M 307.85,136.212 L 309.193,136.55 C 308.908,137.654 308.402,138.492 307.673,139.074 C 306.94,139.649 306.045,139.944 304.989,139.944 C 303.895,139.944 303.008,139.72 302.323,139.275 C 301.635,138.829 301.116,138.181 300.761,137.337 C 300.401,136.493 300.223,135.587 300.223,134.618 C 300.223,133.561 300.424,132.636 300.828,131.85 C 301.229,131.065 301.803,130.465 302.551,130.054 C 303.296,129.647 304.117,129.443 305.013,129.443 C 306.028,129.443 306.88,129.699 307.573,130.22 C 308.267,130.737 308.748,131.46 309.025,132.398 L 307.702,132.71 C 307.467,131.969 307.126,131.433 306.68,131.093 C 306.229,130.758 305.667,130.59 304.991,130.59 C 304.208,130.59 303.557,130.776 303.035,131.15 C 302.509,131.526 302.14,132.028 301.93,132.653 C 301.718,133.287 301.612,133.937 301.612,134.608 C 301.612,135.47 301.736,136.227 301.989,136.868 C 302.241,137.514 302.631,137.996 303.163,138.314 C 303.692,138.632 304.268,138.793 304.886,138.793 C 305.639,138.793 306.276,138.577 306.794,138.139 C 307.31,137.707 307.663,137.066 307.85,136.212 z " id="path1920"/>
			<path d="M 310.339,137.108 L 311.647,136.999 C 311.742,137.632 311.965,138.112 312.318,138.433 C 312.672,138.754 313.101,138.914 313.599,138.914 C 314.206,138.914 314.714,138.686 315.128,138.231 C 315.545,137.78 315.751,137.176 315.751,136.431 C 315.751,135.721 315.553,135.16 315.153,134.745 C 314.759,134.336 314.231,134.13 313.583,134.13 C 313.178,134.13 312.815,134.222 312.493,134.405 C 312.171,134.585 311.918,134.82 311.733,135.115 L 310.562,134.963 L 311.543,129.749 L 316.599,129.749 L 316.599,130.946 L 312.537,130.946 L 311.993,133.67 C 312.601,133.244 313.243,133.036 313.909,133.036 C 314.797,133.036 315.547,133.343 316.154,133.956 C 316.763,134.569 317.072,135.358 317.072,136.323 C 317.072,137.243 316.802,138.04 316.264,138.709 C 315.616,139.53 314.728,139.943 313.6,139.943 C 312.676,139.943 311.925,139.681 311.341,139.166 C 310.755,138.65 310.422,137.96 310.339,137.108 z " id="path1922"/>
		</g>
	</g>
</g>
</svg>