<?xml version="1.0" encoding="UTF-8"?>
<!DOCTYPE svg PUBLIC "-//W3C//DTD SVG 1.1//EN" "http://www.w3.org/Graphics/SVG/1.1/DTD/svg11.dtd">
<svg width="450" height="350" viewBox="0 0 4500 3500" xmlns="http://www.w3.org/2000/svg">
 <marker id="a" overflow="visible" orient="auto">
  <path transform="scale(-.2)" d="m0 0 5-5-17.5 5 17.5 5z" fill-rule="evenodd" stroke="#000"/>
 </marker>
 <marker id="b" overflow="visible" orient="auto">
  <path transform="scale(-.4)" d="m0 0 5-5-17.5 5 17.5 5z" fill-rule="evenodd" stroke="#000"/>
 </marker>
 <g stroke-width="10">
  <rect x="500" y="274" width="3750" height="2350" rx="53" fill="#dbdce1" stroke="#000" stroke-linejoin="round"/>
  <g font-family="Liberation Sans" font-size="100">
   <text x="150" y="424"><tspan x="150" y="424">Line 1</tspan></text>
   <text x="50" y="2574"><tspan x="50" y="2574">Last line</tspan></text>
  </g>
 </g>
 <path d="m775 373.49a25 25 0 1 1 0 .13"/>
 <g fill="none" stroke="#000">
  <path d="m4150 373.62-3550 150" stroke-dasharray="60,10" stroke-width="10"/>
  <path d="m600 373.62h3550" marker-end="url(#a)" stroke-width="15"/>
  <path d="m4150 2523.6-3500-2100" marker-end="url(#b)" stroke-dasharray="20,40" stroke-width="10"/>
  <path d="m4150 523.62-3550 150" stroke-dasharray="60,10" stroke-width="10"/>
  <path d="m600 523.62h3550" marker-end="url(#a)" stroke-width="15"/>
  <path d="m4150 673.62-3550 150" stroke-dasharray="60,10" stroke-width="10"/>
  <path d="m600 673.62h3550" marker-end="url(#a)" stroke-width="15"/>
  <path d="m600 2523.6h3550" marker-end="url(#a)" stroke-width="15"/>
  <path d="m4150 2373.6-3550 150" stroke-dasharray="60,10" stroke-width="10"/>
  <path d="m600 2373.6h3550" marker-end="url(#a)" stroke-width="15"/>
 </g>
 <text x="150" y="574" font-family="Liberation Sans" font-size="100" stroke-width="10"><tspan x="150" y="574">Line 2</tspan></text>
 <text x="150" y="724" font-family="Liberation Sans" font-size="100" stroke-width="10"><tspan x="150" y="724">Line 3</tspan></text>
 <path d="m925 3073.5a25 25 0 1 1 0 .13"/>
 <g stroke-width="10">
  <path d="m2800 3023.6-850 50" fill="none" marker-end="url(#b)" stroke="#000" stroke-dasharray="60,10"/>
  <path d="m4100 3173.6-750-400" fill="none" marker-end="url(#b)" stroke="#000" stroke-dasharray="20,40"/>
  <g font-family="Liberation Sans" font-size="100">
   <text x="650" y="3324"><tspan x="650" y="3324">Electron beam</tspan></text>
   <text x="1950" y="3324"><tspan x="1950" y="3324">Horizontal retrace</tspan></text>
   <text x="3350" y="3324"><tspan x="3350" y="3324">Vertical retrace</tspan></text>
  </g>
 </g>
</svg>