<?xml version="1.0" encoding="UTF-8" standalone="no"?>
<!-- Created with Inkscape (http://www.inkscape.org/) -->
<svg xmlns:svg="http://www.w3.org/2000/svg" xmlns="http://www.w3.org/2000/svg" version="1.0" width="337.013" height="150" viewBox="-104.705 -0.5 337.013 150" id="Layer_1" xml:space="preserve"><defs id="defs4541"/>
<path d="M 214.679,120.819 C 214.679,129.423 207.699,136.398 199.095,136.398 L -71.494,136.398 C -80.108,136.398 -87.078,129.422 -87.078,120.819 L -87.078,28.183 C -87.078,19.574 -80.108,12.599 -71.494,12.599 L 199.095,12.599 C 207.699,12.599 214.679,19.574 214.679,28.183 L 214.679,120.819 z " style="fill:#ffffff;stroke:#000000;stroke-width:2.59739995" id="path4424"/>
<path d="M -1.134,31.124 C -15.701,31.124 -25.549,42.859 -23.016,57.209 L -16.902,91.775 C -14.36,106.125 -0.365,117.869 14.202,117.869 L 113.4,117.869 C 127.964,117.869 141.959,106.125 144.503,91.775 L 150.619,57.209 C 153.15,42.859 143.311,31.124 128.733,31.124 L -1.134,31.124 L -1.134,31.124 z " style="fill:none;stroke:#000000;stroke-width:2.59739995" id="path4426"/>
<g id="g4428">
	<path d="M -57.976,61.373 C -50.725,61.373 -44.848,67.25 -44.848,74.501 C -44.848,81.744 -50.725,87.626 -57.976,87.626 C -65.226,87.626 -71.103,81.744 -71.103,74.501 C -71.104,67.25 -65.227,61.373 -57.976,61.373 z " style="fill:none;stroke:#000000;stroke-width:2.59739995" id="path4430"/>
	<path d="M 185.58,61.373 C 192.829,61.373 198.706,67.25 198.706,74.501 C 198.706,81.744 192.829,87.626 185.58,87.626 C 178.333,87.626 172.456,81.744 172.456,74.501 C 172.456,67.25 178.333,61.373 185.58,61.373 z " style="fill:none;stroke:#000000;stroke-width:2.59739995" id="path4432"/>
</g>
<g id="g4434">
	<path d="M 103.695,49.63 C 100.482,49.63 97.874,52.236 97.874,55.447 C 97.874,58.659 100.482,61.266 103.695,61.266 C 106.907,61.266 109.507,58.659 109.507,55.447 C 109.507,52.236 106.907,49.63 103.695,49.63 z " style="fill:none;stroke:#000000;stroke-width:2.59739995" id="path4436"/>
	<path d="M 80.893,49.63 C 77.679,49.63 75.077,52.236 75.077,55.447 C 75.077,58.659 77.68,61.266 80.893,61.266 C 84.112,61.266 86.716,58.659 86.716,55.447 C 86.716,52.236 84.111,49.63 80.893,49.63 z " style="fill:none;stroke:#000000;stroke-width:2.59739995" id="path4438"/>
	<path d="M 58.106,49.633 C 54.893,49.633 52.283,52.237 52.283,55.447 C 52.283,58.659 54.893,61.263 58.106,61.263 C 61.311,61.263 63.918,58.659 63.918,55.447 C 63.918,52.236 61.311,49.633 58.106,49.633 z " style="fill:none;stroke:#000000;stroke-width:2.59739995" id="path4440"/>
	<path d="M 35.304,49.63 C 32.09,49.63 29.493,52.236 29.493,55.447 C 29.493,58.659 32.09,61.266 35.304,61.266 C 38.518,61.266 41.125,58.659 41.125,55.447 C 41.125,52.236 38.518,49.63 35.304,49.63 z " style="fill:none;stroke:#000000;stroke-width:2.59739995" id="path4442"/>
	<path d="M 12.505,49.63 C 9.289,49.63 6.689,52.236 6.689,55.447 C 6.689,58.659 9.289,61.266 12.505,61.266 C 15.724,61.266 18.324,58.659 18.324,55.447 C 18.324,52.236 15.724,49.63 12.505,49.63 z " style="fill:none;stroke:#000000;stroke-width:2.59739995" id="path4444"/>
	<path d="M 92.289,68.681 C 89.08,68.681 86.477,71.287 86.477,74.501 C 86.477,77.708 89.08,80.313 92.289,80.313 C 95.503,80.313 98.115,77.708 98.115,74.501 C 98.115,71.287 95.503,68.681 92.289,68.681 z " style="fill:none;stroke:#000000;stroke-width:2.59739995" id="path4446"/>
	<path d="M 69.501,68.682 C 66.287,68.682 63.682,71.287 63.682,74.501 C 63.682,77.706 66.287,80.311 69.501,80.311 C 72.707,80.311 75.31,77.707 75.31,74.501 C 75.31,71.287 72.707,68.682 69.501,68.682 z " style="fill:none;stroke:#000000;stroke-width:2.59739995" id="path4448"/>
	<path d="M 115.093,68.681 C 118.306,68.681 120.911,71.285 120.911,74.498 C 120.911,77.706 118.306,80.303 115.093,80.303 C 111.884,80.303 109.281,77.706 109.281,74.498 C 109.281,71.284 111.884,68.681 115.093,68.681 z " style="fill:none;stroke:#000000;stroke-width:2.59739995" id="path4450"/>
	<path d="M 46.703,68.681 C 43.497,68.681 40.887,71.287 40.887,74.501 C 40.887,77.708 43.497,80.313 46.703,80.313 C 49.914,80.313 52.522,77.708 52.522,74.501 C 52.521,71.287 49.914,68.681 46.703,68.681 z " style="fill:none;stroke:#000000;stroke-width:2.59739995" id="path4452"/>
	<path d="M 23.907,68.681 C 20.693,68.681 18.085,71.287 18.085,74.501 C 18.085,77.708 20.693,80.313 23.907,80.313 C 27.12,80.313 29.731,77.708 29.731,74.501 C 29.731,71.287 27.121,68.681 23.907,68.681 z " style="fill:none;stroke:#000000;stroke-width:2.59739995" id="path4454"/>
	<path d="M 103.695,99.362 C 100.482,99.362 97.874,96.755 97.874,93.541 C 97.874,90.333 100.482,87.725 103.695,87.725 C 106.907,87.725 109.507,90.333 109.507,93.541 C 109.507,96.755 106.907,99.362 103.695,99.362 z " style="fill:none;stroke:#000000;stroke-width:2.59739995" id="path4456"/>
	<path d="M 80.893,99.362 C 77.679,99.362 75.077,96.755 75.077,93.541 C 75.077,90.333 77.68,87.725 80.893,87.725 C 84.112,87.725 86.716,90.333 86.716,93.541 C 86.716,96.755 84.111,99.362 80.893,99.362 z " style="fill:none;stroke:#000000;stroke-width:2.59739995" id="path4458"/>
	<path d="M 58.106,99.36 C 54.893,99.36 52.283,96.755 52.283,93.541 C 52.283,90.333 54.893,87.725 58.106,87.725 C 61.311,87.725 63.918,90.333 63.918,93.541 C 63.918,96.755 61.311,99.36 58.106,99.36 z " style="fill:none;stroke:#000000;stroke-width:2.59739995" id="path4460"/>
	<path d="M 35.304,99.362 C 32.09,99.362 29.493,96.755 29.493,93.541 C 29.493,90.333 32.09,87.725 35.304,87.725 C 38.518,87.725 41.125,90.333 41.125,93.541 C 41.125,96.755 38.518,99.362 35.304,99.362 z " style="fill:none;stroke:#000000;stroke-width:2.59739995" id="path4462"/>
	<path d="M 12.505,99.362 C 9.289,99.362 6.689,96.755 6.689,93.541 C 6.689,90.333 9.289,87.725 12.505,87.725 C 15.724,87.725 18.324,90.333 18.324,93.541 C 18.324,96.755 15.724,99.362 12.505,99.362 z " style="fill:none;stroke:#000000;stroke-width:2.59739995" id="path4464"/>
</g>
<g id="g4466">
	<g id="g4468">
		<path d="M 103.973,57.629 L 104.577,57.629 L 104.577,53.022 L 104.044,53.022 L 103.037,53.562 L 103.156,54.038 L 103.961,53.605 L 103.974,53.605 L 103.974,57.629 L 103.973,57.629 z " id="path4470"/>
	</g>
	<g id="g4472">
		<path d="M 82.444,57.573 L 82.444,57.057 L 80.384,57.057 L 80.384,57.041 L 80.744,56.7 C 81.713,55.764 82.332,55.076 82.332,54.229 C 82.332,53.569 81.914,52.888 80.93,52.888 C 80.395,52.888 79.938,53.093 79.626,53.355 L 79.821,53.795 C 80.036,53.619 80.383,53.405 80.8,53.405 C 81.488,53.405 81.708,53.838 81.708,54.305 C 81.708,54.998 81.168,55.593 79.993,56.711 L 79.507,57.185 L 79.507,57.571 L 82.444,57.571 L 82.444,57.573 z " id="path4474"/>
	</g>
	<g id="g4476">
		<path d="M 56.71,57.395 C 56.939,57.544 57.393,57.707 57.91,57.707 C 59.006,57.707 59.585,57.061 59.585,56.327 C 59.585,55.683 59.128,55.257 58.559,55.15 L 58.559,55.133 C 59.121,54.927 59.41,54.526 59.41,54.046 C 59.41,53.485 59,52.945 58.094,52.945 C 57.597,52.945 57.129,53.124 56.882,53.3 L 57.053,53.752 C 57.248,53.611 57.607,53.449 57.975,53.449 C 58.547,53.449 58.779,53.775 58.779,54.141 C 58.779,54.687 58.206,54.922 57.752,54.922 L 57.408,54.922 L 57.408,55.389 L 57.752,55.389 C 58.355,55.389 58.937,55.665 58.944,56.309 C 58.949,56.7 58.697,57.203 57.902,57.203 C 57.464,57.203 57.059,57.025 56.882,56.917 L 56.71,57.395 z " id="path4478"/>
	</g>
	<g id="g4480">
		<path d="M 36.356,57.629 L 36.356,56.375 L 37.002,56.375 L 37.002,55.891 L 36.356,55.891 L 36.356,53.022 L 35.684,53.022 L 33.628,55.972 L 33.628,56.375 L 35.77,56.375 L 35.77,57.629 L 36.356,57.629 z M 34.261,55.891 L 34.261,55.878 L 35.385,54.311 C 35.514,54.093 35.627,53.896 35.771,53.625 L 35.79,53.625 C 35.776,53.866 35.771,54.104 35.771,54.348 L 35.771,55.891 L 34.261,55.891 z " id="path4482"/>
	</g>
	<g id="g4484">
		<path d="M 13.822,53.082 L 11.618,53.082 L 11.32,55.277 C 11.491,55.249 11.697,55.228 11.966,55.228 C 12.88,55.228 13.285,55.645 13.285,56.255 C 13.29,56.875 12.782,57.261 12.199,57.261 C 11.774,57.261 11.398,57.117 11.21,57.003 L 11.05,57.479 C 11.277,57.621 11.697,57.762 12.199,57.762 C 13.199,57.762 13.918,57.089 13.918,56.191 C 13.918,55.595 13.615,55.192 13.254,54.992 C 12.973,54.824 12.625,54.742 12.262,54.742 C 12.095,54.742 11.991,54.759 11.889,54.773 L 12.064,53.604 L 13.822,53.604 L 13.822,53.082 L 13.822,53.082 z " id="path4486"/>
	</g>
	<g id="g4488">
		<path d="M 116.401,72.188 C 116.287,72.188 116.13,72.197 115.947,72.222 C 115.363,72.295 114.856,72.531 114.473,72.903 C 114.014,73.367 113.694,74.082 113.694,74.989 C 113.694,76.182 114.339,76.948 115.315,76.948 C 116.279,76.948 116.852,76.171 116.852,75.323 C 116.852,74.428 116.279,73.833 115.464,73.833 C 114.954,73.833 114.562,74.072 114.343,74.372 L 114.33,74.372 C 114.436,73.606 114.947,72.892 115.934,72.736 C 116.109,72.707 116.271,72.693 116.401,72.698 L 116.401,72.188 z M 115.323,76.464 C 114.669,76.464 114.318,75.9 114.311,75.142 C 114.311,75.03 114.338,74.945 114.373,74.872 C 114.544,74.534 114.896,74.307 115.271,74.307 C 115.844,74.307 116.217,74.704 116.217,75.361 C 116.217,76.019 115.86,76.465 115.329,76.465 L 115.323,76.465 L 115.323,76.464 z " id="path4490"/>
	</g>
	<g id="g4492">
		<path d="M 90.987,72.422 L 90.987,72.94 L 93.24,72.94 L 93.24,72.954 L 91.249,77.025 L 91.889,77.025 L 93.895,72.833 L 93.895,72.423 L 90.987,72.423 L 90.987,72.422 z " id="path4494"/>
	</g>
	<g id="g4496">
		<path d="M 69.647,72.188 C 68.841,72.188 68.227,72.685 68.227,73.417 C 68.227,73.812 68.443,74.21 68.962,74.45 L 68.962,74.47 C 68.4,74.711 68.054,75.13 68.054,75.712 C 68.054,76.383 68.635,76.948 69.602,76.948 C 70.477,76.948 71.162,76.419 71.162,75.609 C 71.162,75.057 70.812,74.646 70.239,74.419 L 70.239,74.398 C 70.804,74.138 71.005,73.714 71.005,73.326 C 71.005,72.742 70.546,72.189 69.655,72.189 L 69.647,72.189 L 69.647,72.188 z M 69.612,76.494 C 69.031,76.494 68.678,76.084 68.696,75.625 C 68.696,75.185 68.993,74.824 69.528,74.667 C 70.152,74.845 70.543,75.121 70.543,75.673 C 70.543,76.149 70.184,76.494 69.623,76.494 L 69.612,76.494 z M 69.643,72.633 C 70.197,72.633 70.414,73.019 70.414,73.386 C 70.414,73.802 70.109,74.09 69.711,74.222 C 69.182,74.081 68.826,73.832 68.834,73.373 C 68.834,72.976 69.118,72.633 69.633,72.633 L 69.643,72.633 z " id="path4498"/>
	</g>
	<g id="g4500">
		<path d="M 45.625,76.944 C 45.766,76.955 45.974,76.939 46.201,76.908 C 46.69,76.853 47.184,76.636 47.535,76.294 C 47.989,75.848 48.334,75.142 48.334,74.131 C 48.334,72.946 47.751,72.188 46.807,72.188 C 45.866,72.188 45.227,72.954 45.227,73.818 C 45.227,74.612 45.757,75.235 46.592,75.235 C 47.056,75.235 47.424,75.05 47.677,74.74 L 47.698,74.74 C 47.619,75.284 47.396,75.686 47.089,75.964 C 46.83,76.217 46.485,76.366 46.128,76.409 C 45.918,76.439 45.758,76.443 45.626,76.439 L 45.626,76.944 L 45.625,76.944 z M 46.756,72.663 C 47.413,72.663 47.705,73.258 47.697,74.05 C 47.697,74.149 47.676,74.222 47.651,74.278 C 47.479,74.556 47.154,74.761 46.733,74.761 C 46.2,74.761 45.846,74.354 45.846,73.781 C 45.846,73.131 46.225,72.664 46.753,72.664 L 46.756,72.664 L 46.756,72.663 z " id="path4502"/>
	</g>
	<g id="g4504">
		<path d="M 21.738,76.87 L 22.342,76.87 L 22.342,72.265 L 21.809,72.265 L 20.804,72.804 L 20.924,73.28 L 21.726,72.847 L 21.739,72.847 L 21.739,76.87 L 21.738,76.87 z " id="path4506"/>
		<path d="M 25.492,76.947 C 26.499,76.947 27.088,76.084 27.088,74.515 C 27.088,73.052 26.527,72.187 25.566,72.187 C 24.628,72.187 23.955,73.032 23.955,74.579 C 23.973,76.105 24.584,76.947 25.487,76.947 L 25.492,76.947 L 25.492,76.947 z M 25.505,76.464 C 24.929,76.464 24.567,75.745 24.581,74.547 C 24.581,73.394 24.95,72.672 25.516,72.672 C 26.165,72.672 26.452,73.416 26.452,74.547 C 26.452,75.725 26.142,76.464 25.516,76.464 L 25.505,76.464 z " id="path4508"/>
	</g>
	<g id="g4510">
		<path d="M 102.156,95.626 L 102.76,95.626 L 102.76,91.025 L 102.23,91.025 L 101.223,91.56 L 101.342,92.037 L 102.144,91.603 L 102.157,91.603 L 102.157,95.626 L 102.156,95.626 z " id="path4512"/>
		<path d="M 105.793,95.626 L 106.395,95.626 L 106.395,91.025 L 105.865,91.025 L 104.855,91.56 L 104.975,92.037 L 105.779,91.603 L 105.794,91.603 L 105.794,95.626 L 105.793,95.626 z " id="path4514"/>
	</g>
	<g id="g4516">
		<path d="M 78.833,95.573 L 79.437,95.573 L 79.437,90.964 L 78.907,90.964 L 77.9,91.505 L 78.019,91.979 L 78.821,91.545 L 78.834,91.545 L 78.834,95.573 L 78.833,95.573 z " id="path4518"/>
		<path d="M 84.053,95.573 L 84.053,95.052 L 81.993,95.052 L 81.993,95.032 L 82.353,94.697 C 83.327,93.763 83.943,93.073 83.943,92.226 C 83.943,91.566 83.522,90.884 82.538,90.884 C 82.009,90.884 81.547,91.089 81.234,91.353 L 81.432,91.794 C 81.645,91.611 81.993,91.403 82.409,91.403 C 83.099,91.403 83.317,91.837 83.317,92.301 C 83.317,92.995 82.777,93.592 81.605,94.713 L 81.118,95.182 L 81.118,95.571 L 84.053,95.571 L 84.053,95.573 z " id="path4520"/>
	</g>
	<g id="g4522">
		<path d="M 56.045,95.626 L 56.651,95.626 L 56.651,91.025 L 56.118,91.025 L 55.111,91.56 L 55.233,92.034 L 56.035,91.603 L 56.045,91.603 L 56.045,95.626 z " id="path4524"/>
		<path d="M 58.306,95.391 C 58.533,95.543 58.987,95.703 59.504,95.703 C 60.6,95.703 61.183,95.057 61.183,94.328 C 61.183,93.68 60.722,93.258 60.153,93.149 L 60.153,93.136 C 60.716,92.93 61.003,92.525 61.003,92.045 C 61.003,91.482 60.589,90.944 59.686,90.944 C 59.191,90.944 58.725,91.121 58.477,91.297 L 58.645,91.753 C 58.84,91.611 59.198,91.448 59.566,91.448 C 60.139,91.448 60.373,91.773 60.373,92.14 C 60.373,92.686 59.8,92.919 59.346,92.919 L 59,92.919 L 59,93.388 L 59.346,93.388 C 59.949,93.388 60.529,93.665 60.537,94.309 C 60.544,94.698 60.288,95.203 59.497,95.203 C 59.056,95.203 58.654,95.022 58.477,94.921 L 58.306,95.391 z " id="path4526"/>
	</g>
	<g id="g4528">
		<path d="M 33.069,95.626 L 33.67,95.626 L 33.67,91.025 L 33.137,91.025 L 32.129,91.56 L 32.252,92.037 L 33.054,91.603 L 33.069,91.603 L 33.069,95.626 L 33.069,95.626 z " id="path4530"/>
		<path d="M 37.86,95.626 L 37.86,94.373 L 38.507,94.373 L 38.507,93.894 L 37.86,93.894 L 37.86,91.026 L 37.193,91.026 L 35.14,93.97 L 35.14,94.373 L 37.274,94.373 L 37.274,95.626 L 37.86,95.626 L 37.86,95.626 z M 35.768,93.894 L 35.768,93.874 L 36.894,92.313 C 37.021,92.095 37.132,91.892 37.274,91.624 L 37.297,91.624 C 37.28,91.862 37.274,92.108 37.274,92.347 L 37.274,93.894 L 35.768,93.894 z " id="path4532"/>
	</g>
	<g id="g4534">
		<path d="M 10.389,95.682 L 10.995,95.682 L 10.995,91.081 L 10.456,91.081 L 9.457,91.621 L 9.577,92.096 L 10.376,91.657 L 10.389,91.657 L 10.389,95.682 L 10.389,95.682 z " id="path4536"/>
		<path d="M 15.417,91.081 L 13.212,91.081 L 12.915,93.277 C 13.082,93.244 13.29,93.224 13.558,93.224 C 14.475,93.224 14.876,93.645 14.876,94.251 C 14.886,94.877 14.376,95.258 13.797,95.258 C 13.372,95.258 12.994,95.115 12.801,95.001 L 12.646,95.476 C 12.872,95.619 13.29,95.765 13.796,95.765 C 14.789,95.765 15.507,95.088 15.507,94.188 C 15.507,93.591 15.214,93.191 14.852,92.993 C 14.564,92.823 14.215,92.745 13.858,92.745 C 13.686,92.745 13.59,92.758 13.48,92.772 L 13.658,91.6 L 15.416,91.6 L 15.416,91.081 L 15.417,91.081 z " id="path4538"/>
	</g>
</g>
</svg>