<?xml version="1.0" standalone="no"?> 
<svg width="2000" height="100%" version="1.1" xmlns="http://www.w3.org/2000/svg">
<rect x="12.3167033355513" width="46.387033994982" y="150" height="145" style="fill:rgb(0,0,255);fill-opacity:0.5;stroke-width:1;stroke:rgb(0,0,0)"/>
<text transform="translate(18.3167033355513,154) rotate(90)">tracer_init_tracefs</text>
<rect x="60.6235902286823" width="689.827144466155" y="150" height="145" style="fill:rgb(0,255,0);fill-opacity:0.5;stroke-width:1;stroke:rgb(0,0,0)"/>
<text transform="translate(66.6235902286823,154) rotate(90)">chr_dev_init</text>
<rect x="750.956578289326" width="2.0845461614706" y="150" height="145" style="fill:rgb(255,0,20);fill-opacity:0.5;stroke-width:1;stroke:rgb(0,0,0)"/>
<text transform="translate(751.956578289326,154) rotate(90)" font-size="3pt">inet_init</text>
<rect x="757.478431516861" width="7.95350823798117" y="150" height="145" style="fill:rgb(255,255,20);fill-opacity:0.5;stroke-width:1;stroke:rgb(0,0,0)"/>
<text transform="translate(758.478431516861,154) rotate(90)" font-size="3pt">kswapd_init</text>
<rect x="773.933641283594" width="2.40099250313858" y="150" height="145" style="fill:rgb(255,0,255);fill-opacity:0.5;stroke-width:1;stroke:rgb(0,0,0)"/>
<text transform="translate(774.933641283594,154) rotate(90)" font-size="3pt">pty_init</text>
<rect x="776.46168287558" width="3.01035757742841" y="150" height="145" style="fill:rgb(0,255,255);fill-opacity:0.5;stroke-width:1;stroke:rgb(0,0,0)"/>
<text transform="translate(777.46168287558,154) rotate(90)" font-size="3pt">serial8250_init</text>
<rect x="788.817206766058" width="2.0633713133293" y="150" height="145" style="fill:rgb(0,128,255);fill-opacity:0.5;stroke-width:1;stroke:rgb(0,0,0)"/>
<text transform="translate(789.817206766058,154) rotate(90)" font-size="3pt">inet6_init</text>
<rect x="794.843803823176" width="2.09395720508905" y="150" height="145" style="fill:rgb(0,255,128);fill-opacity:0.5;stroke-width:1;stroke:rgb(0,0,0)"/>
<text transform="translate(795.843803823176,154) rotate(90)" font-size="3pt">ubifs_init</text>
<rect x="797.303615348929" width="17.37043375862" y="150" height="145" style="fill:rgb(255,0,128);fill-opacity:0.5;stroke-width:1;stroke:rgb(0,0,0)"/>
<text transform="translate(803.303615348929,154) rotate(90)">clk_debug_init</text>
<rect x="815.181069082489" width="1131.50859632475" y="150" height="145" style="fill:rgb(255,255,128);fill-opacity:0.5;stroke-width:1;stroke:rgb(0,0,0)"/>
<text transform="translate(821.181069082489,154) rotate(90)">deferred_probe_initcall</text>
<text transform="translate(0,89) rotate(90)">0.14</text>
<text transform="translate(130,89) rotate(90)">0.25</text>
<text transform="translate(260,89) rotate(90)">0.36</text>
<text transform="translate(390,89) rotate(90)">0.47</text>
<text transform="translate(520,89) rotate(90)">0.58</text>
<text transform="translate(650,89) rotate(90)">0.69</text>
<text transform="translate(780,89) rotate(90)">0.8</text>
<text transform="translate(910,89) rotate(90)">0.91</text>
<text transform="translate(1040,89) rotate(90)">1.02</text>
<text transform="translate(1170,89) rotate(90)">1.13</text>
<text transform="translate(1300,89) rotate(90)">1.24</text>
<text transform="translate(1430,89) rotate(90)">1.36</text>
<text transform="translate(1560,89) rotate(90)">1.47</text>
<text transform="translate(1690,89) rotate(90)">1.58</text>
<text transform="translate(1820,89) rotate(90)">1.69</text>
</svg>
