<?xml version="1.0" encoding="UTF-8" standalone="no"?>
<svg id="svg2" xmlns:rdf="http://www.w3.org/1999/02/22-rdf-syntax-ns#" xmlns="http://www.w3.org/2000/svg" height="3840pt" width="1503pt" version="1.1" xmlns:cc="http://creativecommons.org/ns#" xmlns:dc="http://purl.org/dc/elements/1.1/" viewBox="0 0 1503 3840">
<g id="g4167">
<path id="rect4159" d="m613.48 3.1781c-2.33-0.0263-4.68 0.0631-7.03 0.2719-58.88 3.54-103.36 70.83-81.04 126.17 19.45 33.02 48.03 59.23 73.8 87.17 103.37 101.1 213.28 195.8 329.98 281.21-15.29 18.85-29.89 38.26-45.27 57.03-90.95-0.23-181.91 0.31031-272.85-0.27969 16.63 21.75 23.689 48.759 31.709 74.459 38.53 140.9 61.691 285.45 83.091 429.77-39.79 20.35-77.751 44.92-110.79 75.1-12.18 9.74-23.699 20.341-34.209 31.861-26.48 28.44-48.211 62.09-60.861 98.95-3.56 9.5-6.1 19.99-4.4 30.13 1.66 6.79 10.5 5.7 15.25 2.95 30.12-18.36 65.62-23.84 98-36.67 19.15 53.62 59.08 98.251 92.3 144.49-34.06 23.19-64.509 54.31-78.839 93.63-35.16 5.56-69.711 18.67-97.291 41.6-56.91 46.03-74.79 128.02-54.52 196.55 3.5 10.46-1.3194 20.88-2.6094 31.27-8.19 43.19-15.301 86.58-22.291 129.98-10.11 73.44-23.209 147.3-18.659 221.69-22.89 25.16-41.191 54.011-57.891 83.561-37.76 69.42-76.849 138.22-120.97 203.86-17.07 24.78-25.361 54.63-44.561 78.12-16.28-2.05-32.65-3.7503-48.73-7.0703 0.46-351.63 0.081-703.26 0.19064-1054.9 5.66-10.9 15.23-19.909 17.95-32.209 12.15-47.91 36.639-91.2 55.339-136.62 6.77-15.85 12.32-33.9 6.55-50.93-1.0238-2.1306-2.9604-3.1038-5.0406-3.1906-2.6746-0.1116-5.5852 1.2424-7.0984 3.4812-15.06 16.41-19.301 39.199-29.661 58.389-16.3 32.95-42.899 58.79-66.689 86.2-13.82 11.85-1.1603 30.95-10.27 44.85-16.68 31.99-44.051 57.77-57.611 91.5-3.76 10.78 10.421 9.1006 16.161 6.1406 24.92-10.17 44.16-30.12 62.92-48.73 1.15 343.59 0.01 688.84 0.56872 1033.1-15.12-1.1638-27.942-12.379-42.836-12.117-2.1277 0.037-4.2984 0.3094-6.5234 0.8781-20.56 4.33-41.101 17.5-62.691 11.27-11.77-5.92-28.839-11.8-39.019 0.1-6.16 5.78-1.681 15.689 5.189 18.669 23.65 10.88 49.97 13.5 74.72 20.77-22.81 7.5-45.15 16.99-65.55 29.72-11.38 6.05-18.241 22.58-9.2406 33.47 8.68 8.94 21.941 8.5291 33.431 7.3891 20.96 31.05 40.989 63.811 68.959 89.211 13.6 13.28 32.03 1.7297 43.42-8.3703-0.01 297.52 0.16064 595.05-0.0797 892.57-25.07 3.27-49.201 16.81-62.781 38.5-20.82 30.66-18.419 74.8 6.011 102.77 17.71 24.26 39.319 50.71 37.589 82.53 0.33 11.62-16.19 6.3197-17.28 16.08-0.65 17.53 25.69 8.4906 29.83-2.2094 13.97-32.48-8.2794-65.56-25.659-91.87-12.36-15.92-26.8-32.71-27.55-53.87-4.68-36.03 24.95-71.7 60.92-74.68 29.88-4.5 60.67 14.619 71.77 42.359 8.59 20.93 6.4287 46.13-6.7813 64.72-20.21 27.12-43.189 55.57-46.309 90.6-2.44 16.34 9.4206 36.601 27.641 34.741 10.02-1.41 8.5994-17.25-1.8906-16.5-14.5-5.26-9.0597-24.48-4.9797-35.4 10.25-33.78 41.27-55.981 51.43-89.541 15-49.45-23.941-103.88-74.791-108.47-0.15-303.39 0.00024-606.78-0.0687-910.17 0.24-0.31 0.72968-0.9394 0.97968-1.2594 49.87-17.01 98.409-50.63 118.89-100.8 3.65 1.47 5.5303-2.6106 7.6703-4.7906 20.17-27.14 40.671-54.03 60.741-81.23 71.67-95.65 142.87-191.71 210.75-290.11 14.14-22.7 32.25-44.201 38-70.991 15.28-59.05 22.379-119.81 30.889-180.1 4.67-36.92 9.521-73.839 13.111-110.89 0.3-0.31 0.88968-0.9306 1.1797-1.2406 12.94 37.85 32.169 73.321 43.059 111.94 27.4 99.2 35.941 202.3 47.681 304.18-0.18 1.07-0.40032 2.1494-0.67032 3.2594-31.83 201.18-56.59 403.45-83.57 605.34-3.59 7.43 4.4494 6.6391 8.6594 8.4391-7.68 46.58-19.85 93.071-18.13 140.61-0.22 14.74 13.481 24.329 14.411 38.789 10.53 63.22 6.6394 127.66 7.2594 191.47-4.8 132.31-10.77 265.51-36.35 395.74-3.51 10.96-1.8006 25.46-12.691 32.4-39.88 29.3-78.199 61.44-121.89 85.02-43.66 17.5-87.79 42.489-136.32 38.509-14.53 2.64-17.601 21.549-8.5406 31.459 15.1 17.99 40.66 20.731 62.6 22.331 83.24 4.25 166.74 8.6091 250.02 4.4891 32.74-7.77 68.211 5.4809 99.541-9.4891 17.83-8.79 24.389-29.34 25.189-47.85 2.13-48.6-19.4-94.05-38.33-137.37 35.78-123.81 67.081-249.22 87.341-376.61 13.35-87.64 24.079-176.98 12.709-265.44 4.27-44.25 13.56-87.871 21.03-131.66 1.53-0.31 4.5903-0.94 6.1203-1.25 18.14 0.04 36.28-0.1794 54.37-1.6594 1.1 0.3 2.2006 0.6997 3.2906 1.1797 21.23 58.22 35.91 119.17 63.38 174.99 13.36 16.8 21.899 36.59 29.459 56.55 37.49 99.36 67.14 201.48 95.17 303.84 21.44 85.46 45.879 171.23 52.959 259.33-42.2 30.62-85.249 61.19-132.01 84.6-44.33 15.71-89.231 37.639-137.54 32.309-12.41 1.34-18.019 17.769-11.309 27.609 14.94 23.59 45.761 26.24 70.941 29.1 90.58 7.64 181.53 18.13 272.48 13.4 25.87 1.49 55.489 7.8109 77.939-8.8891 18.72-15.68 20.32-42.85 17.37-65.27-8.29-52.86-30.689-102.1-53.389-150.04-0.47-146.98-5.8712-294.78-31.831-439.78-14.4-73.7-31.28-149.44-72.53-213.38-2.84-7.01-12.42-11.3-10.68-19.73 2.28-33.83-0.5406-67.64-4.2406-101.23 0.71-0.04 2.1103-0.1412 2.8203-0.1812 3.31-0.16 6.6003-0.5294 9.9203-1.0094-1.82-19.64-3.85-39.329-7.35-58.759 26.7-9.35 51.94-26.211 73.88-44.811-0.57 3.88-1.29 7.8197-2.35 11.63-18.45 16.46-25.98 44.221-17.93 67.641-1.5 10.99-6.3906 28.72 9.2594 31.38 8.35 25.89 23.46 49.301 42.72 68.411-15.6 1.04-31.19 3.0788-46.83 2.6188-10.77-1.99-20.809-12.33-32.259-9.1297-2.13 12.61 0.4288 26.81 1.1188 39.83 5 5.94 13.05-0.1397 18.85-1.7797 22.91-4.43 46.441-5.4803 69.731-5.8203-3.75 50.35-1.2703 101.71-11.47 151.32 1.3 7.24 10.839 5.0606 15.889 5.6406 14.92-0.89 30.701 2.3203 45.131-2.5797 9.5-4.11 4.4697-16.311 3.2297-23.961-7.24-43.52-10.91-87.539-15.5-131.39 26.1 1.76 52.87 0.6991 78.32 7.5391 5.05 1.52 13.589 6.8906 16.819 0.3406 2.63-12.96 2.2812-26.481 1.3312-39.561-12.98-2.51-23.101 9.6606-35.811 9.5406-14.35 0.18-28.68-1.1997-42.95-2.3297 19.65-17.55 33.01-40.97 42.7-65.2 8.01-22.03 16.68-46.07 11.42-69.72 6.39-40.37 13.4-81.419 9.0297-122.36-4.1899-12.16-5.4795-24.81-5.2797-37.58-1.09-33.17-1.5306-66.348-2.6406-99.508-6.83-207.5-7.7791-415.06-13.539-622.55-1.34-44.57-2.3803-89.28-5.9203-133.7 0.2-5.67 0.3797-11.309 0.5297-16.909 36.29-0.35 72.61 0.1991 108.9-0.2109 2.68-134.28-14.76-271.1-67.22-395.59-42.05-100.15-109.85-191.63-201.62-251.26 93.8-358.21 186.1-717.38 279.9-1076.1v-0.95938c-40.5 5.63-81.03 11.5-121.37 18.1-45.61 155.96-91.509 311.86-137.09 467.84-1.02 2.27-0.5503 6.1309-3.5203 6.7609-1.95-76.96-9.6409-153.66-13.761-230.52-3.92-19.62 17.871-28.96 24.631-44.65 11.56-26.95-0.3403-63.021-28.32-74.541-14.18-5.9062-30.081-9.2981-45.864-9.3438-17.888-0.0518-35.624 4.1956-50.536 13.955-23.15 26.03 13.639 62.719-9.3609 88.839-55.13 80.42-118.5 154.82-178.74 231.41-66.07-46.07-127.94-97.91-189.07-150.3-64.93-57.18-129.79-114.9-187.24-179.75-11.27-14.41-26.34-28.551-27.08-48.061-5.95-43.59 30.981-88.04 75.341-88.28 36.86-2.39 71.089 34.83 62.459 71.5-5.35 21.47-26.529 38.711-49.089 36.591-21.44-1.49-39.95-25.721-31.1-46.511 4.79-13.22 21.649-21.66 34.659-14.65 12.12 4.92 15.8 24.901 2.8703 31.261-7.59 5.63-21.391-3.3609-15.441-12.461 6.39-4.23 1.6297-11.689 0.37968-17.459-19.11 2.58-22.76 30.65-7.75 40.78 16.95 15.29 46.101-0.49031 45.961-22.17 1.91-18.481-13.34-36.001-31.64-37.631-25.32-3.11-49.439 21.29-46.259 46.57 1.31 30.91 35.1 54.87 64.75 46.23 33.42-6.74 55.929-43.64 47.859-76.58-7.27-34.547-40.14-60.798-75.2-61.192zm571.72 1776.9c4.13 2.11 3.0706 8.79 4.8906 12.9 11.04 40.45 21.71 80.99 31.25 121.83 16.76 76.13 34.779 153.76 27.659 232.22 5.47 121.51 24.62 241.86 41.43 362.18 2.29-0.011 4.5806-0.013 6.8719-0.01 3.4537 0.01 6.9094 0.045 10.366 0.081-3.4563-0.036-6.9118-0.072-10.366-0.08-2.2914-0.01-4.5819-0.0007-6.8719 0.01 5.0399 32.18 9.2211 64.519 15.011 96.578-25.2 20.54-63.161 24.89-87.441 48.3-7.27 20.23-11.159 41.941-15.259 63.141-7.46 13.07-20.761 21.86-28.641 34.83-0.52-0.32-1.5503-0.98-2.0703-1.3-30.01-203.52-77.589-404.11-126.89-603.69 25.12-56.64 48.089-114.42 65.219-174 19.98-66.14 48.321-129.31 74.841-192.99zm215.41 729.55c-2.2772 0.091-4.5552 0.1664-6.8328 0.2312 2.2779-0.065 4.5554-0.1423 6.8328-0.2328zm-122.19 295.89c29.66 6.38 60.25 7.9206 90.55 8.3906-3.89 16.59-12.101 32.13-22.211 45.78-9.11 12.95-26.42 24.68-42.5 16.37-20.01-10.61-30.86-32.62-38.35-53 3.43-6.3 6.4609-13.351 12.511-17.541z" fill="#ec9f00"/>
<path id="path4" d="m613.48 3.1781c-2.33-0.0263-4.68 0.0631-7.03 0.2719-58.88 3.54-103.36 70.83-81.04 126.17 19.45 33.02 48.03 59.23 73.8 87.17 103.37 101.1 213.28 195.8 329.98 281.21 3.42-4.14 6.6697-8.4094 9.8797-12.709-66.07-46.07-127.94-97.91-189.07-150.3-64.93-57.18-129.79-114.9-187.24-179.75-11.27-14.41-26.34-28.551-27.08-48.061-5.95-43.59 30.98-88.04 75.34-88.28 36.86-2.39 71.089 34.83 62.459 71.5-5.35 21.47-26.529 38.711-49.089 36.591-21.44-1.49-39.95-25.721-31.1-46.511 4.79-13.22 21.649-21.66 34.659-14.65 12.12 4.92 15.8 24.901 2.8703 31.261-7.59 5.63-21.391-3.3609-15.441-12.461 6.39-4.23 1.6297-11.689 0.3797-17.459-19.11 2.58-22.76 30.65-7.75 40.78 16.95 15.29 46.101-0.49031 45.961-22.17 1.91-18.48-13.34-36-31.64-37.63-25.32-3.11-49.439 21.29-46.259 46.57 1.31 30.91 35.1 54.87 64.75 46.23 33.42-6.74 55.929-43.64 47.859-76.58-7.27-34.547-40.14-60.798-75.2-61.192zm889.52 14.263c-40.5 5.63-81.03 11.5-121.37 18.1-45.61 155.96-91.509 311.86-137.09 467.84-1.02 2.27-0.5503 6.1309-3.5203 6.7609 9.48 193.65 6.6891 388.91-23.361 580.82 1.76 1.4 3.5612 2.7703 5.4312 4.0703 93.8-358.71 186.1-717.88 279.9-1076.6v-0.95938zm-891.93 537.31c16.63 21.75 23.689 48.759 31.709 74.459 38.53 140.9 61.691 285.45 83.091 429.77 13.78-7.08 28.23-12.7 42.38-18.95-0.01-78.96 7.9794-157.95 22.159-235.62 16.94-87.26 40.321-176.47 93.511-249.38-90.95-0.23-181.91 0.31031-272.85-0.27969zm187.58 517.94c-23.929 0.1838-47.962 4.3135-70.702 11.074-1.65 1.43-3.2406 2.92-4.8906 4.35 89.22-19.51 185.28 41.461 211.08 128.21 5.36-11.01 23.81-8.0497 33.93-13.48-13.77-51.11-49.281-97.73-99.341-117.55-22.325-9.025-46.149-12.788-70.078-12.605zm93.619 357.18c-41.67 15-85.151 24.45-128.51 33.2 12.19 18.09 25.561 35.329 39.511 52.089 33.23 8.17 67.889 10.57 101.61 3.9-1.44-30.12 1.1806-61.359-12.609-89.189zm-249.95 69.55c-35.16 5.56-69.711 18.67-97.291 41.6-56.91 46.03-74.79 128.02-54.52 196.55 3.5 10.46-1.3194 20.88-2.6094 31.27 56.3 9.16 113.05 15.47 169.87 20.4 0.54 6.63-1.23 13.2-1.75 19.8 0.3-0.31 0.8897-0.9306 1.1797-1.2406 12.94 37.85 32.169 73.321 43.059 111.94 27.4 99.2 35.941 202.3 47.681 304.18l0.8297-0.1c87.37-43.27 167.75-99.311 246.24-156.81 39.99-29.35 78.01-61.52 115.3-93.93 19.98-66.14 48.321-129.31 74.841-192.99 4.13 2.11 3.0706 8.79 4.8906 12.9 64.59-8.65 128.88-19.671 192.46-33.991 0.2-5.67 0.3797-11.309 0.5297-16.909-0.6-36.55 1.2603-73.181-1.4297-109.66-2.96-32.26-24.921-59.209-49.891-78.139-35.13-26.02-76.639-42.04-118.59-53.27-42.41 54.96-93.31 105.03-154.28 139.1 0.16 28.5 0.3288 57.009 0.069 85.509-0.39 12.93-9.97 25.46-23.1 27.37-28.91 4.95-58.449 3.9894-87.669 3.9594-9.86 0.54-20.36-4.8788-23.47-14.669-8.06-21.74-8.8597-45.201-10.93-68.041-39.09-1.48-78.041-6.21-115.91-16.15-0.78 26.36 10.62 54.87-3.25 79.47-3.82 7.64-9.7591 15.79-19.139 15.98-35.3 0.52-70.58-4.2294-105.9-2.8094-17.97-7.42-19.271-30.531-21.061-47.141-12.57-66.78-27.579-137.62-6.1594-204.18zm746.1 393.28c-1.29 3.29 2.4991 11.739-5.0609 9.6594-53.94 5.08-107.94 10.271-162.07 12.461 16.76 76.13 34.779 153.76 27.659 232.22 5.47 121.51 24.62 241.86 41.43 362.18 36.64-0.17 73.45 1.8803 110.18 0.4203 0.35 1.41 1.05 4.2094 1.4 5.6094-6.83-207.5-7.7791-415.06-13.539-622.55zm-922.81 6.1203c-10.11 73.44-23.209 147.3-18.659 221.69-22.89 25.16-41.191 54.011-57.891 83.561-37.76 69.42-76.849 138.22-120.97 203.86 31.69 17.73 63.05 36.18 95.18 53.2 71.67-95.65 142.87-191.71 210.75-290.11 14.14-22.7 32.25-44.201 38-70.991 15.28-59.05 22.379-119.81 30.889-180.1-57.72-4.07-115.23-10.609-172.74-16.909-2.53-0.04-4.5309-1.57-4.5609-4.2zm-350.34 565.12c-2.1277 0.037-4.2984 0.3094-6.5234 0.8781-20.56 4.33-41.101 17.5-62.691 11.27-11.77-5.92-28.839-11.8-39.019 0.1-6.16 5.78-1.6809 15.689 5.1891 18.669 23.65 10.88 49.97 13.5 74.72 20.77 16.31-5.03 34.429-12.6 51.109-5.8797 9.99 17.31 2.0203 37.75-0.7797 55.87 7.63 7.48 14.211 15.86 20.511 24.5 0.51-38.03-0.021-76.051 0.3188-114.06-15.12-1.1638-27.942-12.379-42.836-12.117zm59.527 15.038c0.32 46 0.33 92.02 0 138.03 2.37 4.89 5.4506 9.3503 8.2406 14.02 4.79 6.4-4.8103 11.54-7.0703 16.92 49.87-17.01 98.409-50.63 118.89-100.8-33.16-4.84-56.76-32.98-71.33-61.1-16.28-2.05-32.65-3.7503-48.73-7.0703zm1130.6 126.9c-25.2 20.54-63.161 24.89-87.441 48.3-7.27 20.23-11.159 41.941-15.259 63.141-7.46 13.07-20.761 21.86-28.641 34.83-0.52-0.32-1.5503-0.98-2.0703-1.3 1.47 8.05 2.8003 16.13 3.5703 24.32 26.7-9.35 51.94-26.211 73.88-44.811-0.57 3.88-1.29 7.8197-2.35 11.63-5.72 22.61-12.73 44.881-17.93 67.641-1.5 10.99-6.3906 28.72 9.2594 31.38 12.59 2.2 21.83-7.9894 27.45-17.859 3.43-6.3 6.4609-13.351 12.511-17.541 29.66 6.38 60.25 7.9206 90.55 8.3906 7.55-2.36 18.12 0.21 23.88-6.3 4.1-10.54 5.1-22.04 8.05-32.92 6.39-40.37 13.4-81.419 9.0297-122.36-4.19-12.16-5.4797-24.811-5.2797-37.581-30.89 5.85-65.09 2.2509-97.25 3.2109-1.07-4.01-1.2194-8.1503-1.9594-12.17zm-135.23 229.24c-76.4 6.27-152.83 12.579-229.46 15.409 1.1 0.3 2.2006 0.6997 3.2906 1.1797 21.23 58.22 35.91 119.17 63.38 174.99 13.36 16.8 21.899 36.59 29.459 56.55 37.49 99.36 67.14 201.48 95.17 303.84 21.44 85.46 45.879 171.23 52.959 259.33-42.2 30.62-85.249 61.19-132.01 84.6-44.33 15.71-89.231 37.639-137.54 32.309-12.41 1.34-18.019 17.769-11.309 27.609 14.94 23.59 45.761 26.24 70.941 29.1 90.58 7.64 181.53 18.13 272.48 13.4 25.87 1.49 55.489 7.8109 77.939-8.8891 18.72-15.68 20.32-42.85 17.37-65.27-8.29-52.86-30.689-102.1-53.389-150.04-0.47-146.98-5.8712-294.78-31.831-439.78-14.4-73.7-31.28-149.44-72.53-213.38-2.84-7.01-12.42-11.3-10.68-19.73 2.28-33.83-0.5406-67.64-4.2406-101.23zm-497.8 5.9188c-7.68 46.58-19.85 93.071-18.13 140.61-0.22 14.74 13.481 24.329 14.411 38.789 10.53 63.22 6.6394 127.66 7.2594 191.47-4.8 132.31-10.77 265.51-36.35 395.74-3.51 10.96-1.8006 25.46-12.691 32.4-39.88 29.3-78.199 61.44-121.89 85.02-43.66 17.5-87.79 42.489-136.32 38.509-14.53 2.64-17.601 21.549-8.5406 31.459 15.1 17.99 40.66 20.731 62.6 22.331 83.24 4.25 166.74 8.6091 250.02 4.4891 32.74-7.77 68.211 5.4809 99.541-9.4891 17.83-8.79 24.389-29.34 25.189-47.85 2.13-48.6-19.4-94.05-38.33-137.37 35.78-123.81 67.081-249.22 87.341-376.61 13.35-87.64 24.079-176.98 12.709-265.44 4.27-44.25 13.56-87.871 21.03-131.66 1.53-0.31 4.5903-0.94 6.1203-1.25-71.32 1.38-143.68 2.95-213.97-11.15z" fill="#c45300"/>
<path id="path8" fill="#e6e6e6" d="m1177.7 151.09c-17.888-0.0518-35.624 4.1956-50.536 13.955-23.15 26.03 13.639 62.719-9.3609 88.839-55.13 80.42-118.5 154.82-178.74 231.41-3.21 4.3-6.4597 8.5694-9.8797 12.709-15.29 18.85-29.89 38.26-45.27 57.03-53.19 72.91-76.571 162.12-93.511 249.38-14.18 77.67-22.169 156.66-22.159 235.62 63.62-23.49 132.19-35.7 200.04-29.33 87.61 8.02 174.1 34.289 249.37 80.259 30.05-191.91 32.841-387.17 23.361-580.82-1.95-76.96-9.6409-153.66-13.761-230.52-3.92-19.62 17.871-28.96 24.631-44.65 11.56-26.95-0.3403-63.021-28.32-74.541-14.18-5.9062-30.081-9.2981-45.864-9.3438zm-449.75 932.71c-39.93 11.09-76.84 30.31-112.87 50.32-12.18 9.74-23.699 20.341-34.209 31.861 3.54 23.62 20.509 42.55 42.759 50.43 8.56 4.59 19.951 8.5491 23.161 18.739-0.81 7.98-11.031 9.3609-17.381 11.311-36.56 5.58-72.99 12.02-109.4 18.47-3.56 9.5-6.1 19.99-4.4 30.13 1.66 6.79 10.5 5.7 15.25 2.95 30.12-18.36 65.62-23.84 98-36.67 19.15 53.62 59.08 98.251 92.3 144.49 14.74 18.69 28.38 38.2 42.6 57.28 43.36-8.75 86.841-18.2 128.51-33.2-5.6-13.52-12.521-29.85-27.641-34.58-11.23-3.11-24.06-3.3109-33.62-10.511-4.53-8.46 11.13-9.87 15.92-11.9 35.64-6.64 68.971-22.59 99.761-41.15 34.44-32.44 32.65-86.389 21.38-128.89-10.12 5.43-28.57 2.4697-33.93 13.48-3.91 49.71-35.901 97.649-83.211 115.61-20.93 7.62-42.81 13.741-64.98 15.991-5.07 3.52-6.4297-3.66-3.2297-5.2 15.89-11.03 33.719-18.76 51.259-26.75 32.61-12.6 60.321-40.841 67.541-75.641 3.52-18.69-2.0503-43.319-22.97-48.909-32.25-10.69-67.28-2.32-99.48 4.55-12.67 0.38-16.181 14.449-18.861 24.209-7.7 33.89-6.829 69.1-4.589 103.53-5.88 1.26-9.201-5.3291-12.661-8.7391-17.64-22.33-33.959-46.061-46.019-71.891-8.35-14.07 2.869-27.08 4.539-40.37-14.13-5.95-32.109-1.9297-43.789-13.43-5.76-8.8-0.8-19.89 1.55-29 11.74-30.76 36.639-54.63 63.819-72.17 1.65-1.43 3.2406-2.92 4.8906-4.35zm19.32 1143.4c-31.83 201.18-56.59 403.45-83.57 605.34-3.59 7.43 4.4494 6.6391 8.6594 8.4391 70.29 14.1 142.65 12.53 213.97 11.15 18.14 0.04 36.28-0.1794 54.37-1.6594 76.63-2.83 153.06-9.1394 229.46-15.409 0.71-0.04 2.1103-0.1412 2.8203-0.1812-29.53-3.56-61.99-6.5594-91.88-14.959-90.2-22.36-174.37-76.581-223.11-156.89-33.89-57.92-65.461-117.98-84.341-182.65-24.67-82.1-19.65-168.75-26.38-253.18z"/>
<path id="path12" d="m930.09 1009c-55.186 0.2768-110.14 11.916-161.84 31.002-14.15 6.25-28.6 11.87-42.38 18.95-39.79 20.35-77.751 44.92-110.79 75.1 36.03-20.01 72.94-39.23 112.87-50.32 45.48-13.52 96.13-16.519 140.78 1.5312 50.06 19.82 85.571 66.44 99.341 117.55 11.27 42.5 13.06 96.449-21.38 128.89-30.79 18.56-64.121 34.51-99.761 41.15-4.79 2.03-20.45 3.44-15.92 11.9 9.56 7.2 22.39 7.4009 33.62 10.511 15.12 4.73 22.041 21.06 27.641 34.58 13.79 27.83 11.169 59.069 12.609 89.189 1.83 51.78 4.7909 103.53 8.8609 155.19 2.07 22.84 2.8697 46.301 10.93 68.041 3.11 9.79 13.61 15.209 23.47 14.669 29.22 0.03 58.759 0.9906 87.669-3.9594 13.13-1.91 22.71-14.44 23.1-27.37 0.26-28.5 0.091-57.009-0.069-85.509 1.77-52.04 0.65-104.24 3.35-156.18 50.59 1.65 101.74 4.0497 150.93 17.08 41.95 11.23 83.459 27.25 118.59 53.27 24.97 18.93 46.931 45.879 49.891 78.139 2.69 36.48 0.8297 73.111 1.4297 109.66 36.29-0.35 72.61 0.1991 108.9-0.2109 2.68-134.28-14.76-271.1-67.22-395.59-42.05-100.15-109.85-191.63-201.62-251.26-1.87-1.3-3.6712-2.6703-5.4312-4.0703-75.27-45.97-161.76-72.239-249.37-80.259-12.722-1.1944-25.47-1.7358-38.205-1.6718zm-173.4 75.431c-11.216 0.031-22.476 1.2112-33.628 3.65-27.18 17.54-52.079 41.41-63.819 72.17-2.35 9.11-7.31 20.2-1.55 29 11.68 11.5 29.659 7.4797 43.789 13.43-1.67 13.29-12.889 26.3-4.5391 40.37 12.06 25.83 28.379 49.561 46.019 71.891 3.46 3.41 6.7809 9.9991 12.661 8.7391-2.24-34.43-3.1109-69.64 4.5891-103.53 2.68-9.76 6.1909-23.829 18.861-24.209 32.2-6.87 67.23-15.24 99.48-4.55 20.92 5.59 26.49 30.219 22.97 48.909-7.22 34.8-34.931 63.041-67.541 75.641-17.54 7.99-35.369 15.72-51.259 26.75-3.2 1.54-1.8403 8.72 3.2297 5.2 22.17-2.25 44.05-8.3706 64.98-15.991 47.31-17.96 79.301-65.899 83.211-115.61-22.575-75.906-98.944-132.08-177.45-131.86zm-4.4391 25.525c15.42 0.1155 30.548 5.6359 44.081 12.766 5.39 23.35-8.4791 49.63-30.639 58.92-25.59 11-55.331 6.0303-79.691-5.8297 8.9-28.18 25.299-60.621 57.659-65.341 2.8672-0.3734 5.7335-0.537 8.589-0.5156zm-0.989 5.425c-25.39 2.66-38.76 30.61-38.48 53.75 16.08 15.79 46.6 14.591 58.25-6.0891 11.43-16.67 3.5797-47.921-19.77-47.661zm-170.39 50.531c-26.48 28.44-48.211 62.09-60.861 98.95 36.41-6.45 72.84-12.89 109.4-18.47 6.35-1.95 16.571-3.3309 17.381-11.311-3.21-10.19-14.601-14.149-23.161-18.739-22.25-7.88-39.219-26.81-42.759-50.43zm-331.08 35.219c-2.6746-0.1116-5.5853 1.2424-7.0985 3.4812-15.06 16.41-19.301 39.199-29.661 58.389-16.3 32.95-42.899 58.79-66.689 86.2-13.82 11.85-1.1603 30.95-10.27 44.85-16.68 31.99-44.051 57.77-57.611 91.5-3.76 10.78 10.421 9.1006 16.161 6.1406 24.92-10.17 44.16-30.12 62.92-48.73 1.15 343.59 0.01 688.84 0.5688 1033.1-0.34 38.01 0.1912 76.031-0.3188 114.06 5.4 9.12 11.139 18.049 17.009 26.889 0.33-46.01 0.32-92.03 0-138.03 0.46-351.63 0.081-703.26 0.1906-1054.9 5.66-10.9 15.23-19.909 17.95-32.209 12.15-47.91 36.639-91.2 55.339-136.62 6.77-15.85 12.32-33.9 6.55-50.93-1.0238-2.1306-2.9604-3.1038-5.0406-3.1906zm471.37 204.63c-34.06 23.19-64.509 54.31-78.839 93.63-21.42 66.56-6.4106 137.4 6.1594 204.18 1.79 16.61 3.0909 39.721 21.061 47.141 35.32-1.42 70.6 3.3294 105.9 2.8094 9.38-0.19 15.319-8.3397 19.139-15.98 13.87-24.6 2.47-53.11 3.25-79.47-3.27-47.62-3.1994-95.861 5.4406-142.94-13.95-16.76-27.321-33.999-39.511-52.089-14.22-19.08-27.86-38.59-42.6-57.28zm-546.17 1243.6c-5.57 6.01-11.77 11.501-17.02 17.841-0.01 297.52 0.1603 595.05-0.08 892.57-25.07 3.27-49.201 16.81-62.781 38.5-20.82 30.66-18.419 74.8 6.0109 102.77 17.71 24.26 39.319 50.71 37.589 82.53 0.33 11.62-16.19 6.3197-17.28 16.08-0.65 17.53 25.69 8.4906 29.83-2.2094 13.97-32.48-8.2794-65.56-25.659-91.87-12.36-15.92-26.8-32.71-27.55-53.87-4.68-36.03 24.95-71.7 60.92-74.68 29.88-4.5 60.67 14.619 71.77 42.359 8.59 20.93 6.4288 46.13-6.7812 64.72-20.21 27.12-43.189 55.57-46.309 90.6-2.44 16.34 9.4206 36.601 27.641 34.741 10.02-1.41 8.5994-17.25-1.8906-16.5-14.5-5.26-9.0597-24.48-4.9797-35.4 10.25-33.78 41.27-55.981 51.43-89.541 15-49.45-23.941-103.88-74.791-108.47-0.15-303.39 0.001-606.78-0.069-910.17zm1072.1 92.7c-18.45 16.46-25.98 44.221-17.93 67.641 5.2-22.76 12.21-45.031 17.93-67.641zm153.7 32.8c-2.95 10.88-3.95 22.38-8.05 32.92-5.76 6.51-16.33 3.94-23.88 6.3-3.89 16.59-12.101 32.13-22.211 45.78-9.11 12.95-26.42 24.68-42.5 16.37-20.01-10.61-30.86-32.62-38.35-53-5.62 9.87-14.86 20.059-27.45 17.859 8.35 25.89 23.46 49.301 42.72 68.411-15.6 1.04-31.19 3.0788-46.83 2.6188-10.77-1.99-20.809-12.33-32.259-9.1297-2.13 12.61 0.4288 26.81 1.1188 39.83 5 5.94 13.05-0.1397 18.85-1.7797 22.91-4.43 46.441-5.4803 69.731-5.8203-3.75 50.35-1.2703 101.71-11.47 151.32 1.3 7.24 10.839 5.0606 15.889 5.6406 14.92-0.89 30.701 2.3203 45.131-2.5797 9.5-4.11 4.4697-16.311 3.2297-23.961-7.24-43.52-10.91-87.539-15.5-131.39 26.1 1.76 52.87 0.6991 78.32 7.5391 5.05 1.52 13.589 6.8906 16.819 0.3406 2.63-12.96 2.2812-26.481 1.3312-39.561-12.98-2.51-23.101 9.6606-35.811 9.5406-14.35 0.18-28.68-1.1997-42.95-2.3297 19.65-17.55 33.01-40.97 42.7-65.2 8.01-22.03 16.68-46.07 11.42-69.72z" fill="#002758"/>
<path id="path20" d="m752.25 1110c-2.8555-0.021-5.7218 0.1422-8.589 0.5156-32.36 4.72-48.759 37.161-57.659 65.341 24.36 11.86 54.101 16.83 79.691 5.8297 22.16-9.29 36.029-35.57 30.639-58.92-13.534-7.1297-28.662-12.65-44.081-12.766zm-0.989 5.425c23.35-0.26 31.2 30.991 19.77 47.661-11.65 20.68-42.17 21.879-58.25 6.0891-0.28-23.14 13.09-51.09 38.48-53.75zm310.93 368.53c-2.7 51.94-1.58 104.14-3.35 156.18 60.97-34.07 111.87-84.14 154.28-139.1-49.19-13.03-100.34-15.43-150.93-17.08zm-258.92 31.219c-8.64 47.08-8.7106 95.321-5.4406 142.94 37.87 9.94 76.821 14.67 115.91 16.15-4.07-51.66-7.0309-103.41-8.8609-155.19-33.72 6.67-68.379 4.27-101.61-3.9zm579.22 243.9c-63.58 14.32-127.87 25.341-192.46 33.991 11.04 40.45 21.71 80.99 31.25 121.83 54.13-2.19 108.13-7.3809 162.07-12.461 7.56 2.08 3.7709-6.3694 5.0609-9.6594-1.34-44.57-2.3803-89.28-5.9203-133.7zm-894.6 9.8406c-8.19 43.19-15.301 86.58-22.291 129.98 0.03 2.63 2.0309 4.16 4.5609 4.2 57.51 6.3 115.02 12.839 172.74 16.909 4.67-36.92 9.5209-73.839 13.111-110.89 0.52-6.6 2.29-13.17 1.75-19.8-56.82-4.93-113.57-11.24-169.87-20.4zm557.19 378.24c-27.67 16.62-60.411 21.72-90.941 31.08-68.05 16.87-136.37 33.281-205.38 45.661l-0.8297 0.1c-0.18 1.07-0.4003 2.1494-0.6703 3.2594 6.73 84.43 1.7097 171.08 26.38 253.18 18.88 64.67 50.451 124.73 84.341 182.65 48.74 80.31 132.91 134.53 223.11 156.89 29.89 8.4 62.35 11.399 91.88 14.959 3.31-0.16 6.6003-0.5294 9.9203-1.0094-1.82-19.64-3.85-39.329-7.35-58.759-0.77-8.19-2.1003-16.27-3.5703-24.32-30.01-203.52-77.589-404.11-126.89-603.69zm-777 260.85c-17.07 24.78-25.361 54.63-44.561 78.12 14.57 28.12 38.17 56.26 71.33 61.1 3.65 1.47 5.5303-2.6106 7.6703-4.7906 20.17-27.14 40.671-54.03 60.741-81.23-32.13-17.02-63.49-35.47-95.18-53.2zm1029.2 101.28c-2.2913-0.01-4.5819 0-6.8719 0.01 5.04 32.18 9.2209 64.52 15.011 96.58 0.74 4.02 0.8894 8.1603 1.9594 12.17 32.16-0.96 66.36 2.6391 97.25-3.2109-1.09-33.17-1.5306-66.349-2.6406-99.509-0.35-1.4-1.05-4.1994-1.4-5.6094-34.434 1.3688-68.939-0.3483-103.31-0.4281z" fill="#ffda1e"/>
</g>
</svg>
