<?xml version="1.0" encoding="UTF-8" standalone="no"?>
<!-- Created with Inkscape (http://www.inkscape.org/) -->
<svg xmlns:dc="http://purl.org/dc/elements/1.1/" xmlns:cc="http://creativecommons.org/ns#" xmlns:rdf="http://www.w3.org/1999/02/22-rdf-syntax-ns#" xmlns:svg="http://www.w3.org/2000/svg" xmlns="http://www.w3.org/2000/svg" xmlns:sodipodi="http://sodipodi.sourceforge.net/DTD/sodipodi-0.dtd" xmlns:inkscape="http://www.inkscape.org/namespaces/inkscape" width="428.64081" height="378.87061" id="svg2" version="1.1" inkscape:version="0.48.1 r9760" sodipodi:docname="New document 1">
  <defs id="defs4">
    <filter color-interpolation-filters="sRGB" height="1.9847089" y="-0.49235445" width="1.1519612" x="-0.075980619" id="filter3772" inkscape:collect="always">
      <feGaussianBlur id="feGaussianBlur3774" stdDeviation="3.4329803" inkscape:collect="always"/>
    </filter>
    <filter color-interpolation-filters="sRGB" id="filter3766" inkscape:collect="always">
      <feGaussianBlur id="feGaussianBlur3768" stdDeviation="10.994461" inkscape:collect="always"/>
    </filter>
    <inkscape:path-effect is_visible="true" id="path-effect3788" effect="spiro"/>
    <inkscape:path-effect fuse_tolerance="0" vertical_pattern="false" prop_units="false" tang_offset="0" normal_offset="0" spacing="0" scale_y_rel="false" prop_scale="1" copytype="single_stretched" pattern="M 0,5 C 0,2.24 2.24,0 5,0 7.76,0 10,2.24 10,5 10,7.76 7.76,10 5,10 2.24,10 0,7.76 0,5 z" is_visible="true" id="path-effect3790" effect="skeletal"/>
    <filter inkscape:collect="always" id="filter3950" color-interpolation-filters="sRGB">
      <feGaussianBlur inkscape:collect="always" stdDeviation="7.1777364" id="feGaussianBlur3952"/>
    </filter>
    <filter inkscape:collect="always" id="filter3974" x="-0.11689697" width="1.2337939" y="-0.037722446" height="1.0754449" color-interpolation-filters="sRGB">
      <feGaussianBlur inkscape:collect="always" stdDeviation="3.8592088" id="feGaussianBlur3976"/>
    </filter>
    <filter inkscape:collect="always" id="filter4002" x="-0.17253602" width="1.345072" y="-0.087935701" height="1.1758714" color-interpolation-filters="sRGB">
      <feGaussianBlur inkscape:collect="always" stdDeviation="8.5734308" id="feGaussianBlur4004"/>
    </filter>
  </defs>
  <sodipodi:namedview id="base" pagecolor="#ffffff" bordercolor="#666666" borderopacity="1.0" inkscape:pageopacity="0.0" inkscape:pageshadow="2" inkscape:zoom="0.48901549" inkscape:cx="456.32099" inkscape:cy="195.61019" inkscape:document-units="px" inkscape:current-layer="layer1" showgrid="false" fit-margin-top="0" fit-margin-left="0" fit-margin-right="0" fit-margin-bottom="0" inkscape:window-width="1230" inkscape:window-height="776" inkscape:window-x="50" inkscape:window-y="24" inkscape:window-maximized="1"/>
  <g inkscape:label="Layer 1" inkscape:groupmode="layer" id="layer1" transform="translate(-31.251396,-37.15239)">
    <path style="opacity:0.3476395;fill:#e6e6e6;fill-opacity:1;stroke:none;filter:url(#filter3766)" d="m 677.1562,246.64286 0,223.78125 c 0,15.31771 -12.3385,27.65625 -27.6562,27.65625 l -503.7812,0 0,15.21875 c 0,15.31771 12.3385,27.625 27.6562,27.625 l 518.9688,0 c 15.3177,0 27.6562,-12.30729 27.6562,-27.625 l 0,-239 c 0,-15.31771 -12.3385,-27.65625 -27.6562,-27.65625 l -15.1876,0 z" id="rect2987" inkscape:connector-curvature="0" transform="matrix(0.51154872,0,0,0.51154872,1002.8271,16.31645)"/>
    <g id="g4006" transform="matrix(0.75742765,0,0,0.54596249,-3.6508104,99.030792)">
      <g style="fill:#000000;filter:url(#filter3974)" id="g3954" transform="matrix(-0.20760221,0.89785598,0.72420328,0.16745024,156.53549,-168.20248)">
        <rect y="676.84698" x="493.99332" height="25.770653" width="23.76255" id="rect3956" style="fill:#000000;fill-opacity:1;stroke:none"/>
        <path inkscape:connector-curvature="0" id="path3958" d="m 686.23013,662.35783 0,52.375 -53.8125,0 0,3.34375 57.15625,0 0,-55.71875 -3.34375,0 z" style="fill:#000000;fill-opacity:1;stroke:none"/>
        <rect y="660.68878" x="631.42859" height="55.714287" width="57.142857" id="rect3960" style="fill:#000000;fill-opacity:1;stroke:none"/>
        <path sodipodi:nodetypes="ccccc" inkscape:connector-curvature="0" id="path3962" d="m 505.71429,669.18936 c 49.04761,-15.02049 98.09524,-15.6091 147.14285,-12.54145 l 0,67.26778 c -49.04761,1.93662 -98.09524,-1.58446 -147.14285,-14.82171 z" style="fill:#000000;fill-opacity:1;stroke:none"/>
        <rect y="668.81451" x="665.6861" height="12.383301" width="5.020257" id="rect3964" style="fill:#000000;fill-opacity:1;stroke:none"/>
        <rect style="fill:#000000;fill-opacity:1;stroke:none" id="rect3966" width="5.020257" height="12.383301" x="665.35144" y="695.25452"/>
        <path transform="matrix(1,0,0,0.71426806,0,194.92686)" d="m 632.21774,690.56897 c 0,4.62102 -24.27457,8.36709 -54.21878,8.36709 -29.9442,0 -54.21877,-3.74607 -54.21877,-8.36709 0,-4.62102 24.27457,-8.3671 54.21877,-8.3671 29.94421,0 54.21878,3.74608 54.21878,8.3671 z" sodipodi:ry="8.367095" sodipodi:rx="54.218777" sodipodi:cy="690.56897" sodipodi:cx="577.99896" id="path3968" style="opacity:0.25321889;fill:#000000;fill-opacity:1;stroke:none;filter:url(#filter3772)" sodipodi:type="arc"/>
      </g>
      <path style="fill:none;stroke:#000000;stroke-width:10;stroke-linecap:butt;stroke-linejoin:miter;stroke-miterlimit:4;stroke-opacity:1;stroke-dasharray:none;filter:url(#filter3950)" d="M 572.57167,-39.069274 C 654.66521,136.33553 425.8012,391.77585 246.40127,389.10818 145.94907,387.61446 51.219819,242.53405 70.976589,144.03256 90.373799,47.323746 227.19844,-36.309804 322.67601,-11.553424 473.53015,27.561546 589.15011,201.99695 550.80573,396.53898" id="path3946" inkscape:connector-curvature="0" sodipodi:nodetypes="caaac"/>
      <g style="fill:#000000;filter:url(#filter4002)" transform="matrix(-0.17955237,-0.34852023,-0.28111356,0.14482548,855.57534,39.626055)" id="g3978">
        <rect style="fill:#000000;fill-opacity:1;stroke:none" id="rect3980" width="23.76255" height="25.770653" x="493.99332" y="676.84698"/>
        <path style="fill:#000000;fill-opacity:1;stroke:none" d="m 686.23013,662.35783 0,52.375 -53.8125,0 0,3.34375 57.15625,0 0,-55.71875 -3.34375,0 z" id="path3982" inkscape:connector-curvature="0"/>
        <rect style="fill:#000000;fill-opacity:1;stroke:none" id="rect3984" width="57.142857" height="55.714287" x="631.42859" y="660.68878"/>
        <path style="fill:#000000;fill-opacity:1;stroke:none" d="m 505.71429,669.18936 c 49.04761,-15.02049 98.09524,-15.6091 147.14285,-12.54145 l 0,67.26778 c -49.04761,1.93662 -98.09524,-1.58446 -147.14285,-14.82171 z" id="path3986" inkscape:connector-curvature="0" sodipodi:nodetypes="ccccc"/>
        <rect style="fill:#000000;fill-opacity:1;stroke:none" id="rect3988" width="5.020257" height="12.383301" x="665.6861" y="668.81451"/>
        <rect y="695.25452" x="665.35144" height="12.383301" width="5.020257" id="rect3990" style="fill:#000000;fill-opacity:1;stroke:none"/>
        <path sodipodi:type="arc" style="opacity:0.25321889;fill:#000000;fill-opacity:1;stroke:none;filter:url(#filter3772)" id="path3992" sodipodi:cx="577.99896" sodipodi:cy="690.56897" sodipodi:rx="54.218777" sodipodi:ry="8.367095" d="m 632.21774,690.56897 c 0,4.62102 -24.27457,8.36709 -54.21878,8.36709 -29.9442,0 -54.21877,-3.74607 -54.21877,-8.36709 0,-4.62102 24.27457,-8.3671 54.21877,-8.3671 29.94421,0 54.21878,3.74608 54.21878,8.3671 z" transform="matrix(1,0,0,0.71426806,0,194.92686)"/>
      </g>
      <path sodipodi:nodetypes="caaac" inkscape:connector-curvature="0" id="path2985" d="M 572.57167,-37.024349 C 654.66521,138.38045 425.8012,393.82077 246.40127,391.1531 145.94907,389.65938 51.219815,244.57897 70.97659,146.07748 90.373797,49.368674 227.19844,-34.264879 322.67601,-9.5085019 473.53015,29.606466 589.15011,204.04188 550.80573,398.5839" style="fill:none;stroke:#000000;stroke-width:10;stroke-linecap:butt;stroke-linejoin:miter;stroke-miterlimit:4;stroke-opacity:1;stroke-dasharray:none"/>
      <g transform="matrix(-0.20760221,0.89785598,0.72420328,0.16745024,156.53549,-168.20248)" id="g3776">
        <rect style="fill:#000000;fill-opacity:1;stroke:none" id="rect3000" width="23.76255" height="25.770653" x="493.99332" y="676.84698"/>
        <path style="fill:#1a1a1a;fill-opacity:1;stroke:none" d="m 686.23013,662.35783 0,52.375 -53.8125,0 0,3.34375 57.15625,0 0,-55.71875 -3.34375,0 z" id="rect3809" inkscape:connector-curvature="0"/>
        <rect style="fill:#b3b3b3;fill-opacity:1;stroke:none" id="rect3807" width="57.142857" height="55.714287" x="631.42859" y="660.68878"/>
        <path style="fill:#000000;fill-opacity:1;stroke:none" d="m 505.71429,669.18936 c 49.04761,-15.02049 98.09524,-15.6091 147.14285,-12.54145 l 0,67.26778 c -49.04761,1.93662 -98.09524,-1.58446 -147.14285,-14.82171 z" id="rect3801" inkscape:connector-curvature="0" sodipodi:nodetypes="ccccc"/>
        <rect style="fill:#333333;fill-opacity:1;stroke:none" id="rect3814" width="5.020257" height="12.383301" x="665.6861" y="668.81451"/>
        <rect y="695.25452" x="665.35144" height="12.383301" width="5.020257" id="rect3816" style="fill:#333333;fill-opacity:1;stroke:none"/>
        <path sodipodi:type="arc" style="opacity:0.25321889;fill:#ffffff;fill-opacity:1;stroke:none;filter:url(#filter3772)" id="path3002" sodipodi:cx="577.99896" sodipodi:cy="690.56897" sodipodi:rx="54.218777" sodipodi:ry="8.367095" d="m 632.21774,690.56897 c 0,4.62102 -24.27457,8.36709 -54.21878,8.36709 -29.9442,0 -54.21877,-3.74607 -54.21877,-8.36709 0,-4.62102 24.27457,-8.3671 54.21877,-8.3671 29.94421,0 54.21878,3.74608 54.21878,8.3671 z" transform="matrix(1,0,0,0.71426806,0,194.92686)"/>
      </g>
      <g id="g3917" transform="matrix(-0.17955237,-0.34852023,-0.28111356,0.14482548,855.57534,39.626055)">
        <rect y="676.84698" x="493.99332" height="25.770653" width="23.76255" id="rect3919" style="fill:#000000;fill-opacity:1;stroke:none"/>
        <path inkscape:connector-curvature="0" id="path3921" d="m 686.23013,662.35783 0,52.375 -53.8125,0 0,3.34375 57.15625,0 0,-55.71875 -3.34375,0 z" style="fill:#1a1a1a;fill-opacity:1;stroke:none"/>
        <rect y="660.68878" x="631.42859" height="55.714287" width="57.142857" id="rect3923" style="fill:#b3b3b3;fill-opacity:1;stroke:none"/>
        <path sodipodi:nodetypes="ccccc" inkscape:connector-curvature="0" id="path3925" d="m 505.71429,669.18936 c 49.04761,-15.02049 98.09524,-15.6091 147.14285,-12.54145 l 0,67.26778 c -49.04761,1.93662 -98.09524,-1.58446 -147.14285,-14.82171 z" style="fill:#000000;fill-opacity:1;stroke:none"/>
        <rect y="668.81451" x="665.6861" height="12.383301" width="5.020257" id="rect3927" style="fill:#333333;fill-opacity:1;stroke:none"/>
        <rect style="fill:#333333;fill-opacity:1;stroke:none" id="rect3929" width="5.020257" height="12.383301" x="665.35144" y="695.25452"/>
        <path transform="matrix(1,0,0,0.71426806,0,194.92686)" d="m 632.21774,690.56897 c 0,4.62102 -24.27457,8.36709 -54.21878,8.36709 -29.9442,0 -54.21877,-3.74607 -54.21877,-8.36709 0,-4.62102 24.27457,-8.3671 54.21877,-8.3671 29.94421,0 54.21878,3.74608 54.21878,8.3671 z" sodipodi:ry="8.367095" sodipodi:rx="54.218777" sodipodi:cy="690.56897" sodipodi:cx="577.99896" id="path3931" style="opacity:0.25321889;fill:#ffffff;fill-opacity:1;stroke:none;filter:url(#filter3772)" sodipodi:type="arc"/>
      </g>
      <path style="opacity:0.26970951;fill:none;stroke:#e6e6e6;stroke-width:3;stroke-linecap:butt;stroke-linejoin:miter;stroke-miterlimit:4;stroke-opacity:1;stroke-dasharray:none" d="M 572.57167,-37.024349 C 654.66521,138.38045 425.8012,393.82077 246.40127,391.1531 145.94907,389.65938 51.219815,244.57897 70.97659,146.07748 90.373797,49.368674 227.19844,-34.264879 322.67601,-9.5085019 473.53015,29.606466 589.15011,204.04188 550.80573,398.5839" id="path3948" inkscape:connector-curvature="0" sodipodi:nodetypes="caaac"/>
    </g>
  </g>
  <metadata>
    <rdf:RDF>
      <cc:Work>
        <dc:format>image/svg+xml</dc:format>
        <dc:type rdf:resource="http://purl.org/dc/dcmitype/StillImage"/>
        <cc:license rdf:resource="http://creativecommons.org/licenses/publicdomain/"/>
        <dc:publisher>
          <cc:Agent rdf:about="http://openclipart.org/">
            <dc:title>Open Clip Art Library</dc:title>
          </cc:Agent>
        </dc:publisher>
        <dc:title>USB Cable</dc:title>
        <dc:date>2011-05-04T15:35:00</dc:date>
        <dc:description>USB cable </dc:description>
        <dc:source>http://openclipart.org/detail/135721/usb-cable-by-gsagri04</dc:source>
        <dc:creator>
          <cc:Agent>
            <dc:title>gsagri04</dc:title>
          </cc:Agent>
        </dc:creator>
        <dc:subject>
          <rdf:Bag>
            <rdf:li>Cable</rdf:li>
            <rdf:li>PC</rdf:li>
            <rdf:li>USB</rdf:li>
            <rdf:li>clip art</rdf:li>
            <rdf:li>clipart</rdf:li>
            <rdf:li>connect</rdf:li>
            <rdf:li>inkscape</rdf:li>
            <rdf:li>mini</rdf:li>
            <rdf:li>png</rdf:li>
            <rdf:li>portable</rdf:li>
            <rdf:li>svg</rdf:li>
            <rdf:li>wire</rdf:li>
          </rdf:Bag>
        </dc:subject>
      </cc:Work>
      <cc:License rdf:about="http://creativecommons.org/licenses/publicdomain/">
        <cc:permits rdf:resource="http://creativecommons.org/ns#Reproduction"/>
        <cc:permits rdf:resource="http://creativecommons.org/ns#Distribution"/>
        <cc:permits rdf:resource="http://creativecommons.org/ns#DerivativeWorks"/>
      </cc:License>
    </rdf:RDF>
  </metadata>
</svg>
