<?xml version="1.0" encoding="UTF-8" standalone="no"?>
<!-- Created with Inkscape (http://www.inkscape.org/) -->
<svg xmlns:dc="http://purl.org/dc/elements/1.1/" xmlns:cc="http://creativecommons.org/ns#" xmlns:rdf="http://www.w3.org/1999/02/22-rdf-syntax-ns#" xmlns:svg="http://www.w3.org/2000/svg" xmlns="http://www.w3.org/2000/svg" xmlns:sodipodi="http://sodipodi.sourceforge.net/DTD/sodipodi-0.dtd" xmlns:inkscape="http://www.inkscape.org/namespaces/inkscape" width="129.4375" height="47.1875" id="svg4118" version="1.1" inkscape:version="0.48.2 r9819" sodipodi:docname="serial_db9.svg">
  <defs id="defs4120"/>
  <sodipodi:namedview id="base" pagecolor="#ffffff" bordercolor="#666666" borderopacity="1.0" inkscape:pageopacity="0.0" inkscape:pageshadow="2" inkscape:zoom="3.959798" inkscape:cx="113.46941" inkscape:cy="17.419095" inkscape:document-units="px" inkscape:current-layer="layer1" showgrid="false" fit-margin-top="0" fit-margin-left="0" fit-margin-right="0" fit-margin-bottom="0" inkscape:window-width="675" inkscape:window-height="453" inkscape:window-x="603" inkscape:window-y="158" inkscape:window-maximized="0"/>
  <g inkscape:label="Layer 1" inkscape:groupmode="layer" id="layer1" transform="translate(-486.70564,-505.91262)">
    <g id="g3911" transform="translate(414.54939,448.53762)">
      <rect ry="13.769111" rx="13.769111" y="58.133766" x="72.920395" height="45.667313" width="127.91757" id="rect3885" style="fill:#e0e0e0;fill-opacity:1;stroke:#050505;stroke-width:1.5;stroke-linecap:square;stroke-miterlimit:4;stroke-opacity:1;stroke-dasharray:none"/>
      <g id="g3887">
        <g id="g3816" transform="translate(80,0)">
          <path sodipodi:nodetypes="sssssssss" inkscape:connector-curvature="0" id="rect2987" d="m 33.48153,64.260143 49.17997,0 c 7.5117,0 14.27497,5.755731 11.75102,11.765046 l -4.16566,9.918091 c -2.52394,6.009315 -4.23931,11.765046 -11.75101,11.765046 l -40.84866,0 c -7.5117,0 -8.50386,-5.755731 -11.0278,-11.765046 l -4.16566,-9.918091 c -2.523947,-6.009315 3.5161,-11.765046 11.0278,-11.765046 z" style="fill:#1a1a1a;stroke:none"/>
          <path sodipodi:nodetypes="sssssssss" inkscape:connector-curvature="0" id="path3770" d="m 34.9181,66.879204 45.41124,0 c 11.65387,0 11.93711,4.613248 10.09042,9.515568 l -4.48691,11.911201 c -1.99518,5.296533 -4.88918,6.555276 -9.44995,6.555276 l -37.71835,0 c -4.1807,0 -6.16881,-1.032821 -7.88128,-5.443037 L 25.8263,76.394772 c -1.8668,-4.807664 -0.78965,-9.515568 9.0918,-9.515568 z" style="fill:#b2b2b2;fill-opacity:1;stroke:none"/>
          <path style="fill:#3e4ac4;fill-opacity:1;stroke:#1e3332;stroke-opacity:1" d="m 37.33066,68.600421 41.48864,0 c 10.32999,0 10.41618,5.458195 9.21882,8.62908 L 84.17671,87.45532 c -1.7292,4.579281 -4.70478,5.851302 -8.87159,5.851302 l -34.46027,0 c -3.81957,0 -6.12803,-0.339108 -7.91426,-4.896441 l -4.38224,-11.18068 c -1.62846,-4.154801 -0.24559,-8.62908 8.78231,-8.62908 z" id="path3768" inkscape:connector-curvature="0" sodipodi:nodetypes="sssssssss"/>
          <g id="g3803">
            <g id="g3796">
              <path transform="matrix(1.1829587,0,0,1.1829587,-104.1623,-16.7618)" d="m 122.09202,78.567711 c 0,1.558095 -1.26308,2.82118 -2.82118,2.82118 -1.55809,0 -2.82118,-1.263085 -2.82118,-2.82118 0,-1.558095 1.26309,-2.821181 2.82118,-2.821181 1.5581,0 2.82118,1.263086 2.82118,2.821181 z" sodipodi:ry="2.8211806" sodipodi:rx="2.8211806" sodipodi:cy="78.567711" sodipodi:cx="119.27084" id="path3772" style="fill:#707070;fill-opacity:1;stroke:#0d1010;stroke-width:1;stroke-linecap:square;stroke-miterlimit:4;stroke-opacity:1;stroke-dasharray:none" sodipodi:type="arc"/>
              <path sodipodi:type="arc" style="fill:#707070;fill-opacity:1;stroke:#0d1010;stroke-width:1;stroke-linecap:square;stroke-miterlimit:4;stroke-opacity:1;stroke-dasharray:none" id="path3774" sodipodi:cx="119.27084" sodipodi:cy="78.567711" sodipodi:rx="2.8211806" sodipodi:ry="2.8211806" d="m 122.09202,78.567711 c 0,1.558095 -1.26308,2.82118 -2.82118,2.82118 -1.55809,0 -2.82118,-1.263085 -2.82118,-2.82118 0,-1.558095 1.26309,-2.821181 2.82118,-2.821181 1.5581,0 2.82118,1.263086 2.82118,2.821181 z" transform="matrix(1.1829587,0,0,1.1829587,-61.117166,-16.7618)"/>
              <path transform="matrix(1.1829587,0,0,1.1829587,-71.878453,-16.7618)" d="m 122.09202,78.567711 c 0,1.558095 -1.26308,2.82118 -2.82118,2.82118 -1.55809,0 -2.82118,-1.263085 -2.82118,-2.82118 0,-1.558095 1.26309,-2.821181 2.82118,-2.821181 1.5581,0 2.82118,1.263086 2.82118,2.821181 z" sodipodi:ry="2.8211806" sodipodi:rx="2.8211806" sodipodi:cy="78.567711" sodipodi:cx="119.27084" id="path3776" style="fill:#707070;fill-opacity:1;stroke:#0d1010;stroke-width:1;stroke-linecap:square;stroke-miterlimit:4;stroke-opacity:1;stroke-dasharray:none" sodipodi:type="arc"/>
              <path sodipodi:type="arc" style="fill:#707070;fill-opacity:1;stroke:#0d1010;stroke-width:1;stroke-linecap:square;stroke-miterlimit:4;stroke-opacity:1;stroke-dasharray:none" id="path3778" sodipodi:cx="119.27084" sodipodi:cy="78.567711" sodipodi:rx="2.8211806" sodipodi:ry="2.8211806" d="m 122.09202,78.567711 c 0,1.558095 -1.26308,2.82118 -2.82118,2.82118 -1.55809,0 -2.82118,-1.263085 -2.82118,-2.82118 0,-1.558095 1.26309,-2.821181 2.82118,-2.821181 1.5581,0 2.82118,1.263086 2.82118,2.821181 z" transform="matrix(1.1829587,0,0,1.1829587,-93.401017,-16.7618)"/>
              <path transform="matrix(1.1829587,0,0,1.1829587,-82.639732,-16.7618)" d="m 122.09202,78.567711 c 0,1.558095 -1.26308,2.82118 -2.82118,2.82118 -1.55809,0 -2.82118,-1.263085 -2.82118,-2.82118 0,-1.558095 1.26309,-2.821181 2.82118,-2.821181 1.5581,0 2.82118,1.263086 2.82118,2.821181 z" sodipodi:ry="2.8211806" sodipodi:rx="2.8211806" sodipodi:cy="78.567711" sodipodi:cx="119.27084" id="path3780" style="fill:#707070;fill-opacity:1;stroke:#0d1010;stroke-width:1;stroke-linecap:square;stroke-miterlimit:4;stroke-opacity:1;stroke-dasharray:none" sodipodi:type="arc"/>
            </g>
            <g id="g3790">
              <path transform="matrix(1.1829587,0,0,1.1829587,-66.497812,-6.7618)" d="m 122.09202,78.567711 c 0,1.558095 -1.26308,2.82118 -2.82118,2.82118 -1.55809,0 -2.82118,-1.263085 -2.82118,-2.82118 0,-1.558095 1.26309,-2.821181 2.82118,-2.821181 1.5581,0 2.82118,1.263086 2.82118,2.821181 z" sodipodi:ry="2.8211806" sodipodi:rx="2.8211806" sodipodi:cy="78.567711" sodipodi:cx="119.27084" id="path3782" style="fill:#707070;fill-opacity:1;stroke:#0d1010;stroke-width:1;stroke-linecap:square;stroke-miterlimit:4;stroke-opacity:1;stroke-dasharray:none" sodipodi:type="arc"/>
              <path sodipodi:type="arc" style="fill:#707070;fill-opacity:1;stroke:#0d1010;stroke-width:1;stroke-linecap:square;stroke-miterlimit:4;stroke-opacity:1;stroke-dasharray:none" id="path3784" sodipodi:cx="119.27084" sodipodi:cy="78.567711" sodipodi:rx="2.8211806" sodipodi:ry="2.8211806" d="m 122.09202,78.567711 c 0,1.558095 -1.26308,2.82118 -2.82118,2.82118 -1.55809,0 -2.82118,-1.263085 -2.82118,-2.82118 0,-1.558095 1.26309,-2.821181 2.82118,-2.821181 1.5581,0 2.82118,1.263086 2.82118,2.821181 z" transform="matrix(1.1829587,0,0,1.1829587,-77.259091,-6.7618)"/>
              <path transform="matrix(1.1829587,0,0,1.1829587,-98.781659,-6.7618)" d="m 122.09202,78.567711 c 0,1.558095 -1.26308,2.82118 -2.82118,2.82118 -1.55809,0 -2.82118,-1.263085 -2.82118,-2.82118 0,-1.558095 1.26309,-2.821181 2.82118,-2.821181 1.5581,0 2.82118,1.263086 2.82118,2.821181 z" sodipodi:ry="2.8211806" sodipodi:rx="2.8211806" sodipodi:cy="78.567711" sodipodi:cx="119.27084" id="path3786" style="fill:#707070;fill-opacity:1;stroke:#0d1010;stroke-width:1;stroke-linecap:square;stroke-miterlimit:4;stroke-opacity:1;stroke-dasharray:none" sodipodi:type="arc"/>
              <path sodipodi:type="arc" style="fill:#707070;fill-opacity:1;stroke:#0d1010;stroke-width:1;stroke-linecap:square;stroke-miterlimit:4;stroke-opacity:1;stroke-dasharray:none" id="path3788" sodipodi:cx="119.27084" sodipodi:cy="78.567711" sodipodi:rx="2.8211806" sodipodi:ry="2.8211806" d="m 122.09202,78.567711 c 0,1.558095 -1.26308,2.82118 -2.82118,2.82118 -1.55809,0 -2.82118,-1.263085 -2.82118,-2.82118 0,-1.558095 1.26309,-2.821181 2.82118,-2.821181 1.5581,0 2.82118,1.263086 2.82118,2.821181 z" transform="matrix(1.1829587,0,0,1.1829587,-88.020374,-6.7618)"/>
            </g>
          </g>
        </g>
        <g id="g3837" transform="translate(-17.795139,7.32107)">
          <path sodipodi:type="arc" style="fill:#818181;fill-opacity:1;stroke:#090909;stroke-width:0.45849293;stroke-linecap:square;stroke-miterlimit:4;stroke-opacity:1;stroke-dasharray:none" id="path3835" sodipodi:cx="188.97569" sodipodi:cy="83.472221" sodipodi:rx="2.6041667" sodipodi:ry="2.6041667" d="m 191.57986,83.472221 c 0,1.438242 -1.16593,2.604167 -2.60417,2.604167 -1.43824,0 -2.60416,-1.165925 -2.60416,-2.604167 0,-1.438241 1.16592,-2.604166 2.60416,-2.604166 1.43824,0 2.60417,1.165925 2.60417,2.604166 z" transform="matrix(3.2715882,0,0,3.2715882,-413.82359,-199.42357)"/>
          <path transform="matrix(1.3715883,0,0,1.3715883,-54.769793,-40.826358)" d="m 191.57986,83.472221 c 0,1.438242 -1.16593,2.604167 -2.60417,2.604167 -1.43824,0 -2.60416,-1.165925 -2.60416,-2.604167 0,-1.438241 1.16592,-2.604166 2.60416,-2.604166 1.43824,0 2.60417,1.165925 2.60417,2.604166 z" sodipodi:ry="2.6041667" sodipodi:rx="2.6041667" sodipodi:cy="83.472221" sodipodi:cx="188.97569" id="path3833" style="fill:#2b2b2b;fill-opacity:1;stroke:#181818;stroke-width:0.72908175;stroke-linecap:square;stroke-miterlimit:4;stroke-opacity:1;stroke-dasharray:none" sodipodi:type="arc"/>
        </g>
        <g transform="translate(-114.8368,7.32107)" id="g3879">
          <path transform="matrix(3.2715882,0,0,3.2715882,-413.82359,-199.42357)" d="m 191.57986,83.472221 c 0,1.438242 -1.16593,2.604167 -2.60417,2.604167 -1.43824,0 -2.60416,-1.165925 -2.60416,-2.604167 0,-1.438241 1.16592,-2.604166 2.60416,-2.604166 1.43824,0 2.60417,1.165925 2.60417,2.604166 z" sodipodi:ry="2.6041667" sodipodi:rx="2.6041667" sodipodi:cy="83.472221" sodipodi:cx="188.97569" id="path3881" style="fill:#818181;fill-opacity:1;stroke:#090909;stroke-width:0.45849293;stroke-linecap:square;stroke-miterlimit:4;stroke-opacity:1;stroke-dasharray:none" sodipodi:type="arc"/>
          <path sodipodi:type="arc" style="fill:#2b2b2b;fill-opacity:1;stroke:#181818;stroke-width:0.72908175;stroke-linecap:square;stroke-miterlimit:4;stroke-opacity:1;stroke-dasharray:none" id="path3883" sodipodi:cx="188.97569" sodipodi:cy="83.472221" sodipodi:rx="2.6041667" sodipodi:ry="2.6041667" d="m 191.57986,83.472221 c 0,1.438242 -1.16593,2.604167 -2.60417,2.604167 -1.43824,0 -2.60416,-1.165925 -2.60416,-2.604167 0,-1.438241 1.16592,-2.604166 2.60416,-2.604166 1.43824,0 2.60417,1.165925 2.60417,2.604166 z" transform="matrix(1.3715883,0,0,1.3715883,-54.769793,-40.826358)"/>
        </g>
      </g>
    </g>
  </g>
  <metadata>
    <rdf:RDF>
      <cc:Work>
        <dc:format>image/svg+xml</dc:format>
        <dc:type rdf:resource="http://purl.org/dc/dcmitype/StillImage"/>
        <cc:license rdf:resource="http://creativecommons.org/licenses/publicdomain/"/>
        <dc:publisher>
          <cc:Agent rdf:about="http://openclipart.org/">
            <dc:title>Open Clip Art Library</dc:title>
          </cc:Agent>
        </dc:publisher>
        <dc:title>Serial DB9 Female</dc:title>
        <dc:date>2012-12-05T11:09:15</dc:date>
        <dc:description>A Female DB 9 Serial Port</dc:description>
        <dc:source>http://openclipart.org/detail/173570/serial-db9-female-by-deusinvictus-173570</dc:source>
        <dc:creator>
          <cc:Agent>
            <dc:title>deusinvictus</dc:title>
          </cc:Agent>
        </dc:creator>
        <dc:subject>
          <rdf:Bag>
            <rdf:li>Computer Port</rdf:li>
            <rdf:li>DB 9</rdf:li>
            <rdf:li>DB9</rdf:li>
            <rdf:li>Serial</rdf:li>
            <rdf:li>clip art</rdf:li>
            <rdf:li>clipart</rdf:li>
          </rdf:Bag>
        </dc:subject>
      </cc:Work>
      <cc:License rdf:about="http://creativecommons.org/licenses/publicdomain/">
        <cc:permits rdf:resource="http://creativecommons.org/ns#Reproduction"/>
        <cc:permits rdf:resource="http://creativecommons.org/ns#Distribution"/>
        <cc:permits rdf:resource="http://creativecommons.org/ns#DerivativeWorks"/>
      </cc:License>
    </rdf:RDF>
  </metadata>
</svg>
