<?xml version="1.0" encoding="UTF-8" standalone="no"?>
<!-- Created with Inkscape (http://www.inkscape.org/) -->
<svg
   xmlns:dc="http://purl.org/dc/elements/1.1/"
   xmlns:cc="http://web.resource.org/cc/"
   xmlns:rdf="http://www.w3.org/1999/02/22-rdf-syntax-ns#"
   xmlns:svg="http://www.w3.org/2000/svg"
   xmlns="http://www.w3.org/2000/svg"
   xmlns:sodipodi="http://sodipodi.sourceforge.net/DTD/sodipodi-0.dtd"
   xmlns:inkscape="http://www.inkscape.org/namespaces/inkscape"
   width="570"
   height="210"
   id="svg2136"
   sodipodi:version="0.32"
   inkscape:version="0.44.1"
   sodipodi:docbase="/Users/bdesham/Documents/Miscellaneous/Commons images"
   sodipodi:docname="CBC-MAC structure (en) (export).svg"
   version="1.0">
  <defs
     id="defs2138">
    <marker
       inkscape:stockid="Arrow1Mend"
       orient="auto"
       refY="0"
       refX="0"
       id="Arrow1Mend"
       style="overflow:visible">
      <path
         id="path3211"
         d="M 0,0 L 5,-5 L -12.5,0 L 5,5 L 0,0 z "
         style="fill-rule:evenodd;stroke:black;stroke-width:1pt;marker-start:none"
         transform="matrix(-0.4,0,0,-0.4,-4,0)" />
    </marker>
  </defs>
  <sodipodi:namedview
     id="base"
     pagecolor="#ffffff"
     bordercolor="#666666"
     borderopacity="1.0"
     gridtolerance="10000"
     guidetolerance="10"
     objecttolerance="10"
     inkscape:pageopacity="0.0"
     inkscape:pageshadow="2"
     inkscape:zoom="2.4315789"
     inkscape:cx="285"
     inkscape:cy="105"
     inkscape:document-units="px"
     inkscape:current-layer="layer1"
     showgrid="true"
     gridspacingx="0.4cm"
     gridspacingy="0.4cm"
     grid_units="cm"
     inkscape:grid-points="true"
     inkscape:grid-bbox="false"
     inkscape:window-width="1440"
     inkscape:window-height="787"
     inkscape:window-x="0"
     inkscape:window-y="22"
     width="570px"
     height="210px" />
  <metadata
     id="metadata2141">
    <rdf:RDF>
      <cc:Work
         rdf:about="">
        <dc:format>image/svg+xml</dc:format>
        <dc:type
           rdf:resource="http://purl.org/dc/dcmitype/StillImage" />
      </cc:Work>
    </rdf:RDF>
  </metadata>
  <g
     inkscape:label="Layer 1"
     inkscape:groupmode="layer"
     id="layer1"
     transform="translate(-125.5719,-213.4169)">
    <g
       id="g2029"
       transform="translate(-25.83058,93.93008)">
      <path
         d="M 240.94488 196.29921 A 14.173228 14.173228 0 1 1  212.59842,196.29921 A 14.173228 14.173228 0 1 1  240.94488 196.29921 z"
         sodipodi:ry="14.173228"
         sodipodi:rx="14.173228"
         sodipodi:cy="196.29921"
         sodipodi:cx="226.77165"
         id="path2016"
         style="opacity:1;fill:none;fill-opacity:1;stroke:black;stroke-width:1.875;stroke-linecap:butt;stroke-linejoin:miter;stroke-miterlimit:4;stroke-dasharray:none;stroke-dashoffset:0;stroke-opacity:1"
         sodipodi:type="arc" />
      <path
         id="path2018"
         d="M 226.77165,182.12598 L 226.77165,210.47244"
         style="opacity:1;fill:none;fill-opacity:1;stroke:black;stroke-width:1.875;stroke-linecap:butt;stroke-linejoin:miter;stroke-miterlimit:4;stroke-dasharray:none;stroke-dashoffset:0;stroke-opacity:1" />
      <path
         id="path2020"
         d="M 212.59843,196.29921 L 240.94488,196.29921"
         style="opacity:1;fill:none;fill-opacity:1;stroke:black;stroke-width:1.875;stroke-linecap:butt;stroke-linejoin:miter;stroke-miterlimit:4;stroke-dasharray:none;stroke-dashoffset:0;stroke-opacity:1" />
    </g>
    <g
       id="g5277">
      <path
         style="fill:black;fill-opacity:1;stroke:none;stroke-width:1.875;stroke-linecap:butt;stroke-linejoin:miter;stroke-miterlimit:4;stroke-dashoffset:0;stroke-opacity:1"
         d="M 200,233.53125 L 200,276.0625 L 201.875,276.0625 L 201.875,233.53125 L 200,233.53125 z "
         id="path2148" />
      <path
         style="fill-rule:evenodd;stroke:black;stroke-width:0.4pt;marker-start:none"
         d="M 200.94107,268.55606 L 197.19107,264.80606 L 200.94107,277.93106 L 204.69107,264.80606 L 200.94107,268.55606 z "
         id="path5283" />
    </g>
    <g
       id="g5285">
      <path
         style="fill:black;fill-opacity:1;stroke:none;stroke-width:1.875;stroke-linecap:butt;stroke-linejoin:miter;stroke-miterlimit:4;stroke-dashoffset:0;stroke-opacity:1"
         d="M 144.25,289.28125 L 144.25,291.15625 L 186.78125,291.15625 L 186.78125,289.28125 L 144.25,289.28125 z "
         id="path2150" />
      <path
         style="fill-rule:evenodd;stroke:black;stroke-width:0.4pt;marker-start:none"
         d="M 179.26784,290.22929 L 175.51784,293.97929 L 188.64284,290.22929 L 175.51784,286.47929 L 179.26784,290.22929 z "
         id="path5291" />
    </g>
    <g
       id="g5293">
      <path
         style="fill:black;fill-opacity:1;stroke:none;stroke-width:1.875;stroke-linecap:butt;stroke-linejoin:miter;stroke-miterlimit:4;stroke-dashoffset:0;stroke-opacity:1"
         d="M 200,304.40625 L 200,346.9375 L 201.875,346.9375 L 201.875,304.40625 L 200,304.40625 z "
         id="path2152" />
      <path
         style="fill-rule:evenodd;stroke:black;stroke-width:0.4pt;marker-start:none"
         d="M 200.94107,339.4222 L 197.19107,335.6722 L 200.94107,348.7972 L 204.69107,335.6722 L 200.94107,339.4222 z "
         id="path5299" />
    </g>
    <g
       id="g5301">
      <path
         style="fill:black;fill-opacity:1;stroke:none;stroke-width:1.875;stroke-linecap:butt;stroke-linejoin:miter;stroke-miterlimit:4;stroke-dashoffset:0;stroke-opacity:1"
         d="M 144.25,360.15625 L 144.25,362.03125 L 186.78125,362.03125 L 186.78125,360.15625 L 144.25,360.15625 z "
         id="path2158" />
      <path
         style="fill-rule:evenodd;stroke:black;stroke-width:0.4pt;marker-start:none"
         d="M 179.26784,361.09542 L 175.51784,364.84542 L 188.64284,361.09542 L 175.51784,357.34542 L 179.26784,361.09542 z "
         id="path5307" />
    </g>
    <g
       id="g3251"
       transform="translate(2.51587,3.221425)">
      <rect
         y="343.70078"
         x="184.25197"
         height="28.346457"
         width="28.346457"
         id="rect2156"
         style="fill:white;fill-opacity:1;stroke:black;stroke-width:1.875;stroke-linecap:butt;stroke-linejoin:miter;stroke-miterlimit:4;stroke-dasharray:none;stroke-dashoffset:0;stroke-opacity:1" />
      <text
         id="text3227"
         y="364.43503"
         x="198.19229"
         style="font-size:18px;font-style:italic;font-weight:normal;text-align:center;text-anchor:middle;fill:black;fill-opacity:1;stroke:none;stroke-width:1px;stroke-linecap:butt;stroke-linejoin:miter;stroke-opacity:1;font-family:DejaVu Sans"
         xml:space="preserve"><tspan
           y="364.43503"
           x="198.19229"
           id="tspan3229"
           sodipodi:role="line">E</tspan></text>
    </g>
    <path
       transform="scale(0.966313,1.034861)"
       style="font-size:18.62749481px;font-style:italic;font-weight:normal;text-align:center;text-anchor:middle;fill:black;fill-opacity:1;stroke:none;stroke-width:1px;stroke-linecap:butt;stroke-linejoin:miter;stroke-opacity:1;font-family:DejaVu Sans"
       d="M 136.66589,340.74691 L 138.33945,340.74691 L 136.73865,348.99649 L 142.47789,344.71253 L 144.6517,344.71253 L 138.2485,349.5877 L 142.92356,354.89944 L 140.89528,354.89944 L 136.54765,349.92423 L 135.58353,354.89944 L 133.90997,354.89944 L 136.66589,340.74691"
       id="text3236" />
    <path
       style="font-size:18px;font-style:normal;font-weight:bold;text-align:center;text-anchor:middle;fill:black;fill-opacity:1;stroke:none;stroke-width:1px;stroke-linecap:butt;stroke-linejoin:miter;stroke-opacity:1;font-family:DejaVu Sans"
       d="M 135.50574,289.87781 C 135.50573,288.23719 135.35046,287.0829 135.03992,286.41492 C 134.73522,285.7411 134.2196,285.40419 133.49304,285.40417 C 132.76647,285.40419 132.24792,285.7411 131.93738,286.41492 C 131.62683,287.0829 131.47155,288.23719 131.47156,289.87781 C 131.47155,291.53602 131.62683,292.70496 131.93738,293.38464 C 132.24792,294.06433 132.76647,294.40418 133.49304,294.40417 C 134.21374,294.40418 134.72936,294.06433 135.03992,293.38464 C 135.35046,292.70496 135.50573,291.53602 135.50574,289.87781 M 138.88953,289.90417 C 138.88951,292.07801 138.42077,293.75672 137.48328,294.94031 C 136.54577,296.11804 135.21569,296.70691 133.49304,296.70691 C 131.76452,296.70691 130.43152,296.11804 129.49402,294.94031 C 128.55652,293.75672 128.08777,292.07801 128.08777,289.90417 C 128.08777,287.7245 128.55652,286.04579 129.49402,284.86804 C 130.43152,283.68446 131.76452,283.09266 133.49304,283.09265 C 135.21569,283.09266 136.54577,283.68446 137.48328,284.86804 C 138.42077,286.04579 138.88951,287.7245 138.88953,289.90417"
       id="text3240" />
    <path
       style="font-size:18px;font-style:normal;font-weight:normal;text-align:center;text-anchor:middle;fill:black;fill-opacity:1;stroke:none;stroke-width:1px;stroke-linecap:butt;stroke-linejoin:miter;stroke-opacity:1;font-family:DejaVu Sans"
       d="M 204.04265,224.05629 L 202.89128,229.9977 L 201.27409,229.9977 L 202.40788,224.10902 C 202.45474,223.85708 202.4899,223.64028 202.51335,223.45863 C 202.53677,223.277 202.54849,223.12173 202.54851,222.99281 C 202.54849,222.46548 202.40201,222.05532 202.10905,221.76234 C 201.81607,221.46938 201.40592,221.3229 200.87859,221.32289 C 200.09342,221.3229 199.39322,221.6188 198.778,222.21059 C 198.16276,222.79653 197.76432,223.56118 197.58269,224.50453 L 196.50163,229.9977 L 194.88445,229.9977 L 196.03581,224.10902 C 196.08268,223.89223 196.11784,223.69301 196.14128,223.51137 C 196.16471,223.32387 196.17643,223.15688 196.17644,223.01039 C 196.17643,222.4772 196.02994,222.06411 195.73698,221.77113 C 195.44401,221.47231 195.03971,221.3229 194.52409,221.32289 C 193.72721,221.3229 193.02116,221.6188 192.40593,222.21059 C 191.79069,222.79653 191.39225,223.56118 191.21062,224.50453 L 190.12956,229.9977 L 188.51237,229.9977 L 190.43718,220.15395 L 192.05437,220.15395 L 191.74675,221.68324 C 192.1862,221.10903 192.69889,220.67251 193.28484,220.37367 C 193.87663,220.06899 194.50944,219.91665 195.18327,219.91664 C 195.89811,219.91665 196.48405,220.10415 196.94109,220.47914 C 197.40397,220.85415 197.68229,221.37563 197.77605,222.04359 C 198.26822,221.3522 198.83658,220.82485 199.48112,220.46156 C 200.1315,220.09829 200.81705,219.91665 201.53777,219.91664 C 202.3815,219.91665 203.03189,220.15982 203.48894,220.64613 C 203.95181,221.13247 204.18326,221.82095 204.18327,222.71156 C 204.18326,222.90493 204.17154,223.1188 204.14812,223.35316 C 204.12466,223.58169 204.08951,223.81606 204.04265,224.05629 M 207.65495,228.50356 L 210.55534,228.50356 L 210.55534,218.49281 L 207.40007,219.12563 L 207.40007,217.50844 L 210.53777,216.87563 L 212.31316,216.87563 L 212.31316,228.50356 L 215.21355,228.50356 L 215.21355,229.9977 L 207.65495,229.9977 L 207.65495,228.50356"
       id="text3244" />
    <g
       id="g3256"
       transform="translate(130.0749,93.93008)">
      <path
         d="M 240.94488 196.29921 A 14.173228 14.173228 0 1 1  212.59842,196.29921 A 14.173228 14.173228 0 1 1  240.94488 196.29921 z"
         sodipodi:ry="14.173228"
         sodipodi:rx="14.173228"
         sodipodi:cy="196.29921"
         sodipodi:cx="226.77165"
         id="path3258"
         style="opacity:1;fill:none;fill-opacity:1;stroke:black;stroke-width:1.875;stroke-linecap:butt;stroke-linejoin:miter;stroke-miterlimit:4;stroke-dasharray:none;stroke-dashoffset:0;stroke-opacity:1"
         sodipodi:type="arc" />
      <path
         id="path3260"
         d="M 226.77165,182.12598 L 226.77165,210.47244"
         style="opacity:1;fill:none;fill-opacity:1;stroke:black;stroke-width:1.875;stroke-linecap:butt;stroke-linejoin:miter;stroke-miterlimit:4;stroke-dasharray:none;stroke-dashoffset:0;stroke-opacity:1" />
      <path
         id="path3262"
         d="M 212.59843,196.29921 L 240.94488,196.29921"
         style="opacity:1;fill:none;fill-opacity:1;stroke:black;stroke-width:1.875;stroke-linecap:butt;stroke-linejoin:miter;stroke-miterlimit:4;stroke-dasharray:none;stroke-dashoffset:0;stroke-opacity:1" />
    </g>
    <g
       id="g5309">
      <path
         style="fill:black;fill-opacity:1;stroke:none;stroke-width:1.875;stroke-linecap:butt;stroke-linejoin:miter;stroke-miterlimit:4;stroke-dashoffset:0;stroke-opacity:1"
         d="M 355.90625,233.53125 L 355.90625,276.0625 L 357.78125,276.0625 L 357.78125,233.53125 L 355.90625,233.53125 z "
         id="path3264" />
      <path
         style="fill-rule:evenodd;stroke:black;stroke-width:0.4pt;marker-start:none"
         d="M 356.84656,268.55606 L 353.09656,264.80606 L 356.84656,277.93106 L 360.59656,264.80606 L 356.84656,268.55606 z "
         id="path5315" />
    </g>
    <g
       id="g5317">
      <path
         style="fill:black;fill-opacity:1;stroke:none;stroke-width:1.875;stroke-linecap:butt;stroke-linejoin:miter;stroke-miterlimit:4;stroke-dashoffset:0;stroke-opacity:1"
         d="M 355.90625,304.40625 L 355.90625,346.9375 L 357.78125,346.9375 L 357.78125,304.40625 L 355.90625,304.40625 z "
         id="path3268" />
      <path
         style="fill-rule:evenodd;stroke:black;stroke-width:0.4pt;marker-start:none"
         d="M 356.84656,339.4222 L 353.09656,335.6722 L 356.84656,348.7972 L 360.59656,335.6722 L 356.84656,339.4222 z "
         id="path5323" />
    </g>
    <g
       id="g5325">
      <path
         style="fill:black;fill-opacity:1;stroke:none;stroke-width:1.875;stroke-linecap:butt;stroke-linejoin:miter;stroke-miterlimit:4;stroke-dashoffset:0;stroke-opacity:1"
         d="M 300.15625,360.15625 L 300.15625,362.03125 L 342.6875,362.03125 L 342.6875,360.15625 L 300.15625,360.15625 z "
         id="path3270" />
      <path
         style="fill-rule:evenodd;stroke:black;stroke-width:0.4pt;marker-start:none"
         d="M 335.17333,361.09542 L 331.42333,364.84542 L 344.54833,361.09542 L 331.42333,357.34542 L 335.17333,361.09542 z "
         id="path5331" />
    </g>
    <g
       id="g3272"
       transform="translate(158.4214,3.221425)">
      <rect
         y="343.70078"
         x="184.25197"
         height="28.346457"
         width="28.346457"
         id="rect3274"
         style="fill:white;fill-opacity:1;stroke:black;stroke-width:1.875;stroke-linecap:butt;stroke-linejoin:miter;stroke-miterlimit:4;stroke-dasharray:none;stroke-dashoffset:0;stroke-opacity:1" />
      <text
         id="text3276"
         y="364.43503"
         x="198.19229"
         style="font-size:18px;font-style:italic;font-weight:normal;text-align:center;text-anchor:middle;fill:black;fill-opacity:1;stroke:none;stroke-width:1px;stroke-linecap:butt;stroke-linejoin:miter;stroke-opacity:1;font-family:DejaVu Sans"
         xml:space="preserve"><tspan
           y="364.43503"
           x="198.19229"
           id="tspan3278"
           sodipodi:role="line">E</tspan></text>
    </g>
    <path
       transform="scale(0.966313,1.034861)"
       style="font-size:18.62748718px;font-style:italic;font-weight:normal;text-align:center;text-anchor:middle;fill:black;fill-opacity:1;stroke:none;stroke-width:1px;stroke-linecap:butt;stroke-linejoin:miter;stroke-opacity:1;font-family:DejaVu Sans"
       d="M 298.00633,340.74677 L 299.67989,340.74677 L 298.07909,348.99634 L 303.81832,344.71238 L 305.99214,344.71238 L 299.58894,349.58755 L 304.264,354.89929 L 302.23571,354.89929 L 297.88809,349.92408 L 296.92397,354.89929 L 295.25041,354.89929 L 298.00633,340.74677"
       id="text3280" />
    <path
       style="font-size:18px;font-style:normal;font-weight:normal;text-align:center;text-anchor:middle;fill:black;fill-opacity:1;stroke:none;stroke-width:1px;stroke-linecap:butt;stroke-linejoin:miter;stroke-opacity:1;font-family:DejaVu Sans"
       d="M 359.94815,224.05627 L 358.79678,229.99768 L 357.1796,229.99768 L 358.31339,224.10901 C 358.36025,223.85706 358.3954,223.64027 358.41885,223.45862 C 358.44228,223.27698 358.454,223.12171 358.45401,222.9928 C 358.454,222.46546 358.30751,222.05531 358.01456,221.76233 C 357.72157,221.46937 357.31142,221.32288 356.78409,221.32288 C 355.99892,221.32288 355.29873,221.61878 354.6835,222.21057 C 354.06826,222.79652 353.66982,223.56116 353.48819,224.50452 L 352.40714,229.99768 L 350.78995,229.99768 L 351.94131,224.10901 C 351.98818,223.89222 352.02334,223.693 352.04678,223.51135 C 352.07021,223.32386 352.08193,223.15687 352.08194,223.01038 C 352.08193,222.47718 351.93545,222.06409 351.64249,221.77112 C 351.34951,221.4723 350.94521,221.32288 350.4296,221.32288 C 349.63272,221.32288 348.92666,221.61878 348.31143,222.21057 C 347.69619,222.79652 347.29776,223.56116 347.11612,224.50452 L 346.03506,229.99768 L 344.41788,229.99768 L 346.34268,220.15393 L 347.95987,220.15393 L 347.65225,221.68323 C 348.0917,221.10902 348.6044,220.67249 349.19034,220.37366 C 349.78213,220.06898 350.41494,219.91664 351.08878,219.91663 C 351.80361,219.91664 352.38955,220.10414 352.84659,220.47913 C 353.30947,220.85414 353.58779,221.37562 353.68155,222.04358 C 354.17373,221.35218 354.74208,220.82484 355.38663,220.46155 C 356.03701,220.09828 356.72255,219.91664 357.44327,219.91663 C 358.287,219.91664 358.93739,220.1598 359.39444,220.64612 C 359.85731,221.13246 360.08876,221.82093 360.08878,222.71155 C 360.08876,222.90491 360.07704,223.11878 360.05362,223.35315 C 360.03017,223.58167 359.99501,223.81605 359.94815,224.05627 M 364.78214,228.50354 L 370.97842,228.50354 L 370.97842,229.99768 L 362.64639,229.99768 L 362.64639,228.50354 C 363.32022,227.80628 364.23721,226.87171 365.39737,225.69983 C 366.56338,224.5221 367.2958,223.76331 367.59464,223.42346 C 368.16299,222.7848 368.55849,222.24574 368.78116,221.80627 C 369.00967,221.36097 369.12392,220.92445 369.12393,220.4967 C 369.12392,219.79945 368.87783,219.23109 368.38565,218.79163 C 367.89932,218.35218 367.26357,218.13246 366.47842,218.13245 C 365.92178,218.13246 365.33291,218.22914 364.71182,218.42249 C 364.09659,218.61586 363.43741,218.90882 362.73428,219.30139 L 362.73428,217.50842 C 363.44913,217.22133 364.11709,217.00453 364.73819,216.85803 C 365.35928,216.71156 365.92764,216.63832 366.44327,216.63831 C 367.80264,216.63832 368.88662,216.97816 369.69522,217.65784 C 370.50381,218.33754 370.9081,219.24574 370.90811,220.38245 C 370.9081,220.92152 370.80556,221.43421 370.60049,221.92053 C 370.40127,222.40101 370.03506,222.96937 369.50186,223.62561 C 369.35537,223.79554 368.88955,224.28773 368.1044,225.10217 C 367.31924,225.91077 366.21182,227.04456 364.78214,228.50354"
       id="text3288" />
    <g
       id="g5333">
      <path
         style="fill:black;fill-opacity:1;stroke:none;stroke-width:1.875;stroke-linecap:butt;stroke-linejoin:miter;stroke-miterlimit:4;stroke-dashoffset:0;stroke-opacity:1"
         d="M 242.53125,289.28125 L 242.53125,290.21875 L 242.53125,402.6875 L 201.875,402.6875 L 201.875,375.28125 L 200,375.28125 L 200,403.625 L 200,404.5625 L 200.9375,404.5625 L 243.46875,404.5625 L 244.40625,404.5625 L 244.40625,403.625 L 244.40625,291.15625 L 342.6875,291.15625 L 342.6875,289.28125 L 243.46875,289.28125 L 242.53125,289.28125 z "
         id="path3292" />
      <path
         style="fill-rule:evenodd;stroke:black;stroke-width:0.4pt;marker-start:none"
         d="M 335.17335,290.22929 L 331.42335,293.97929 L 344.54835,290.22929 L 331.42335,286.47929 L 335.17335,290.22929 z "
         id="path5339" />
    </g>
    <g
       id="g5341">
      <path
         style="fill:black;fill-opacity:1;stroke:none;stroke-width:1.875;stroke-linecap:butt;stroke-linejoin:miter;stroke-miterlimit:4;stroke-dashoffset:0;stroke-opacity:1"
         d="M 398.4375,289.28125 L 398.4375,290.21875 L 398.4375,402.6875 L 357.78125,402.6875 L 357.78125,375.28125 L 355.90625,375.28125 L 355.90625,403.625 L 355.90625,404.5625 L 356.84375,404.5625 L 399.375,404.5625 L 400.3125,404.5625 L 400.3125,403.625 L 400.3125,291.15625 L 498.59375,291.15625 L 498.59375,289.28125 L 399.375,289.28125 L 398.4375,289.28125 z "
         id="path4179" />
      <path
         style="fill-rule:evenodd;stroke:black;stroke-width:0.4pt;marker-start:none"
         d="M 491.07886,290.22929 L 487.32886,293.97929 L 500.45386,290.22929 L 487.32886,286.47929 L 491.07886,290.22929 z "
         id="path5347" />
    </g>
    <g
       id="g4181"
       transform="translate(441.8859,93.93008)">
      <path
         d="M 240.94488 196.29921 A 14.173228 14.173228 0 1 1  212.59842,196.29921 A 14.173228 14.173228 0 1 1  240.94488 196.29921 z"
         sodipodi:ry="14.173228"
         sodipodi:rx="14.173228"
         sodipodi:cy="196.29921"
         sodipodi:cx="226.77165"
         id="path4183"
         style="opacity:1;fill:none;fill-opacity:1;stroke:black;stroke-width:1.875;stroke-linecap:butt;stroke-linejoin:miter;stroke-miterlimit:4;stroke-dasharray:none;stroke-dashoffset:0;stroke-opacity:1"
         sodipodi:type="arc" />
      <path
         id="path4185"
         d="M 226.77165,182.12598 L 226.77165,210.47244"
         style="opacity:1;fill:none;fill-opacity:1;stroke:black;stroke-width:1.875;stroke-linecap:butt;stroke-linejoin:miter;stroke-miterlimit:4;stroke-dasharray:none;stroke-dashoffset:0;stroke-opacity:1" />
      <path
         id="path4187"
         d="M 212.59843,196.29921 L 240.94488,196.29921"
         style="opacity:1;fill:none;fill-opacity:1;stroke:black;stroke-width:1.875;stroke-linecap:butt;stroke-linejoin:miter;stroke-miterlimit:4;stroke-dasharray:none;stroke-dashoffset:0;stroke-opacity:1" />
    </g>
    <g
       id="g5349">
      <path
         style="fill:black;fill-opacity:1;stroke:none;stroke-width:1.875;stroke-linecap:butt;stroke-linejoin:miter;stroke-miterlimit:4;stroke-dashoffset:0;stroke-opacity:1"
         d="M 667.71875,233.53125 L 667.71875,276.0625 L 669.59375,276.0625 L 669.59375,233.53125 L 667.71875,233.53125 z "
         id="path4189" />
      <path
         style="fill-rule:evenodd;stroke:black;stroke-width:0.4pt;marker-start:none"
         d="M 668.65756,268.55606 L 664.90756,264.80606 L 668.65756,277.93106 L 672.40756,264.80606 L 668.65756,268.55606 z "
         id="path5355" />
    </g>
    <g
       id="g5357">
      <path
         style="fill:black;fill-opacity:1;stroke:none;stroke-width:1.875;stroke-linecap:butt;stroke-linejoin:miter;stroke-miterlimit:4;stroke-dashoffset:0;stroke-opacity:1"
         d="M 667.71875,304.40625 L 667.71875,346.9375 L 669.59375,346.9375 L 669.59375,304.40625 L 667.71875,304.40625 z "
         id="path4191" />
      <path
         style="fill-rule:evenodd;stroke:black;stroke-width:0.4pt;marker-start:none"
         d="M 668.65756,339.4222 L 664.90756,335.6722 L 668.65756,348.7972 L 672.40756,335.6722 L 668.65756,339.4222 z "
         id="path5363" />
    </g>
    <g
       id="g5365">
      <path
         style="fill:black;fill-opacity:1;stroke:none;stroke-width:1.875;stroke-linecap:butt;stroke-linejoin:miter;stroke-miterlimit:4;stroke-dashoffset:0;stroke-opacity:1"
         d="M 611.96875,360.15625 L 611.96875,362.03125 L 654.46875,362.03125 L 654.46875,360.15625 L 611.96875,360.15625 z "
         id="path4193" />
      <path
         style="fill-rule:evenodd;stroke:black;stroke-width:0.4pt;marker-start:none"
         d="M 646.98433,361.09542 L 643.23433,364.84542 L 656.35933,361.09542 L 643.23433,357.34542 L 646.98433,361.09542 z "
         id="path5371" />
    </g>
    <g
       id="g4195"
       transform="translate(470.2324,3.221424)">
      <rect
         y="343.70078"
         x="184.25197"
         height="28.346457"
         width="28.346457"
         id="rect4197"
         style="fill:white;fill-opacity:1;stroke:black;stroke-width:1.875;stroke-linecap:butt;stroke-linejoin:miter;stroke-miterlimit:4;stroke-dasharray:none;stroke-dashoffset:0;stroke-opacity:1" />
      <text
         id="text4199"
         y="364.43503"
         x="198.19229"
         style="font-size:18px;font-style:italic;font-weight:normal;text-align:center;text-anchor:middle;fill:black;fill-opacity:1;stroke:none;stroke-width:1px;stroke-linecap:butt;stroke-linejoin:miter;stroke-opacity:1;font-family:DejaVu Sans"
         xml:space="preserve"><tspan
           y="364.43503"
           x="198.19229"
           id="tspan4201"
           sodipodi:role="line">E</tspan></text>
    </g>
    <path
       transform="scale(0.966313,1.034861)"
       style="font-size:18.62747574px;font-style:italic;font-weight:normal;text-align:center;text-anchor:middle;fill:black;fill-opacity:1;stroke:none;stroke-width:1px;stroke-linecap:butt;stroke-linejoin:miter;stroke-opacity:1;font-family:DejaVu Sans"
       d="M 620.68712,340.74659 L 622.36068,340.74659 L 620.75988,348.99616 L 626.49911,344.71221 L 628.67292,344.71221 L 622.26972,349.58737 L 626.94478,354.89911 L 624.9165,354.89911 L 620.56887,349.9239 L 619.60476,354.89911 L 617.9312,354.89911 L 620.68712,340.74659"
       id="text4203" />
    <path
       style="font-size:18px;font-style:italic;font-weight:normal;text-align:center;text-anchor:middle;fill:black;fill-opacity:1;stroke:none;stroke-width:1px;stroke-linecap:butt;stroke-linejoin:miter;stroke-opacity:1;font-family:DejaVu Sans"
       d="M 672.14587,224.05627 L 670.99451,229.99768 L 669.37732,229.99768 L 670.51111,224.10901 C 670.55797,223.85706 670.59313,223.64027 670.61658,223.45862 C 670.64,223.27698 670.65172,223.12171 670.65173,222.9928 C 670.65172,222.46546 670.50523,222.05531 670.21228,221.76233 C 669.9193,221.46937 669.50914,221.32288 668.98181,221.32288 C 668.19664,221.32288 667.49645,221.61878 666.88123,222.21057 C 666.26598,222.79652 665.86754,223.56116 665.68591,224.50452 L 664.60486,229.99768 L 662.98767,229.99768 L 664.13904,224.10901 C 664.1859,223.89222 664.22106,223.693 664.24451,223.51135 C 664.26794,223.32386 664.27965,223.15687 664.27966,223.01038 C 664.27965,222.47718 664.13317,222.06409 663.84021,221.77112 C 663.54723,221.4723 663.14294,221.32288 662.62732,221.32288 C 661.83044,221.32288 661.12438,221.61878 660.50916,222.21057 C 659.89392,222.79652 659.49548,223.56116 659.31384,224.50452 L 658.23279,229.99768 L 656.6156,229.99768 L 658.54041,220.15393 L 660.15759,220.15393 L 659.84998,221.68323 C 660.28942,221.10902 660.80212,220.67249 661.38806,220.37366 C 661.97985,220.06898 662.61266,219.91664 663.2865,219.91663 C 664.00133,219.91664 664.58727,220.10414 665.04431,220.47913 C 665.50719,220.85414 665.78551,221.37562 665.87927,222.04358 C 666.37145,221.35218 666.93981,220.82484 667.58435,220.46155 C 668.23473,220.09828 668.92028,219.91664 669.64099,219.91663 C 670.48473,219.91664 671.13512,220.1598 671.59216,220.64612 C 672.05504,221.13246 672.28648,221.82093 672.2865,222.71155 C 672.28648,222.90491 672.27476,223.11878 672.25134,223.35315 C 672.22789,223.58167 672.19273,223.81605 672.14587,224.05627 M 684.32751,220.15393 L 679.80994,224.97913 L 682.57849,229.99768 L 680.724,229.99768 L 678.64099,226.09534 L 675.0199,229.99768 L 673.05994,229.99768 L 677.90271,224.81213 L 675.32751,220.15393 L 677.18201,220.15393 L 679.07166,223.7135 L 682.36755,220.15393 L 684.32751,220.15393"
       id="text4207" />
    <g
       id="g5373">
      <path
         style="fill:black;fill-opacity:1;stroke:none;stroke-width:1.875;stroke-linecap:butt;stroke-linejoin:miter;stroke-miterlimit:4;stroke-dashoffset:0;stroke-opacity:1"
         d="M 554.34375,289.28125 L 554.34375,290.21875 L 554.34375,402.6875 L 513.6875,402.6875 L 513.6875,375.28125 L 511.8125,375.28125 L 511.8125,403.625 L 511.8125,404.5625 L 512.75,404.5625 L 555.28125,404.5625 L 556.21875,404.5625 L 556.21875,403.625 L 556.21875,291.15625 L 654.5,291.15625 L 654.5,289.28125 L 555.28125,289.28125 L 554.34375,289.28125 z "
         id="path4211" />
      <path
         style="fill-rule:evenodd;stroke:black;stroke-width:0.4pt;marker-start:none"
         d="M 646.98437,290.22929 L 643.23437,293.97929 L 656.35937,290.22929 L 643.23437,286.47929 L 646.98437,290.22929 z "
         id="path5379" />
    </g>
    <path
       style="font-size:18px;font-style:normal;font-weight:normal;text-align:center;text-anchor:middle;fill:black;fill-opacity:1;stroke:none;stroke-width:1px;stroke-linecap:butt;stroke-linejoin:miter;stroke-opacity:1;font-family:DejaVu Sans"
       d="M 500.50366,330.51654 L 502.35815,330.51654 L 502.35815,332.74896 L 500.50366,332.74896 L 500.50366,330.51654 M 506.23413,330.51654 L 508.08862,330.51654 L 508.08862,332.74896 L 506.23413,332.74896 L 506.23413,330.51654 M 511.9646,330.51654 L 513.81909,330.51654 L 513.81909,332.74896 L 511.9646,332.74896 L 511.9646,330.51654"
       id="text4213" />
    <g
       id="g5381">
      <path
         style="fill:black;fill-opacity:1;stroke:none;stroke-width:1.875;stroke-linecap:butt;stroke-linejoin:miter;stroke-miterlimit:4;stroke-dashoffset:0;stroke-opacity:1"
         d="M 667.71875,375.28125 L 667.71875,403.625 L 669.59375,403.625 L 669.59375,375.28125 L 667.71875,375.28125 z "
         id="path4217" />
      <path
         style="fill-rule:evenodd;stroke:black;stroke-width:0.4pt;marker-start:none"
         d="M 668.6576,396.11512 L 664.9076,392.36512 L 668.6576,405.49012 L 672.4076,392.36512 L 668.6576,396.11512 z "
         id="path5387" />
    </g>
    <path
       style="font-size:18px;font-style:normal;font-weight:normal;text-align:center;text-anchor:middle;fill:black;fill-opacity:1;stroke:none;stroke-width:1px;stroke-linecap:butt;stroke-linejoin:miter;stroke-opacity:1;font-family:DejaVu Sans"
       d="M 650.02478,411.60858 C 649.84313,411.50312 649.64391,411.42695 649.42712,411.38007 C 649.21618,411.32734 648.98181,411.30097 648.724,411.30096 C 647.80993,411.30097 647.10681,411.5998 646.61462,412.19745 C 646.12829,412.78925 645.88513,413.64179 645.88513,414.75507 L 645.88513,419.94061 L 644.25916,419.94061 L 644.25916,410.09686 L 645.88513,410.09686 L 645.88513,411.62616 C 646.22497,411.02851 646.66735,410.58613 647.21228,410.29901 C 647.7572,410.00605 648.41931,409.85957 649.19861,409.85956 C 649.30993,409.85957 649.43298,409.86836 649.56775,409.88593 C 649.70251,409.89765 649.85192,409.91816 650.01599,409.94745 L 650.02478,411.60858 M 659.73669,414.61444 L 659.73669,415.40546 L 652.30115,415.40546 C 652.37146,416.51874 652.70544,417.36835 653.3031,417.95428 C 653.90661,418.53436 654.7445,418.8244 655.81677,418.8244 C 656.43786,418.8244 657.03844,418.74823 657.61853,418.59589 C 658.20446,418.44354 658.78454,418.21503 659.35876,417.91034 L 659.35876,419.43964 C 658.77868,419.68573 658.18395,419.87323 657.57458,420.00214 C 656.9652,420.13104 656.34704,420.1955 655.72009,420.1955 C 654.14978,420.1955 652.90466,419.73846 651.98474,418.8244 C 651.07068,417.91034 650.61365,416.67401 650.61365,415.11542 C 650.61365,413.5041 651.04724,412.22675 651.91443,411.28339 C 652.78747,410.33418 653.96228,409.85957 655.43884,409.85956 C 656.76305,409.85957 657.80895,410.2873 658.57654,411.14276 C 659.34997,411.99238 659.73668,413.1496 659.73669,414.61444 M 658.11951,414.13983 C 658.10778,413.25507 657.85876,412.54902 657.37244,412.02167 C 656.89196,411.49433 656.25329,411.23066 655.45642,411.23065 C 654.55407,411.23066 653.83044,411.48554 653.28552,411.9953 C 652.74646,412.50507 652.43591,413.22285 652.35388,414.14862 L 658.11951,414.13983 M 668.63123,410.3869 L 668.63123,411.9162 C 668.17419,411.68183 667.69958,411.50605 667.2074,411.38885 C 666.7152,411.27168 666.20544,411.21308 665.6781,411.21307 C 664.87536,411.21308 664.27185,411.33613 663.86755,411.58221 C 663.46911,411.82832 663.26989,412.19746 663.2699,412.68964 C 663.26989,413.06464 663.41345,413.36054 663.70056,413.57733 C 663.98767,413.78828 664.56482,413.99042 665.43201,414.18378 L 665.98572,414.30682 C 667.13415,414.55292 667.9486,414.90156 668.42908,415.35272 C 668.9154,415.79804 669.15856,416.42206 669.15857,417.22479 C 669.15856,418.13886 668.79528,418.86249 668.06873,419.39569 C 667.34802,419.92889 666.35485,420.1955 665.08923,420.1955 C 664.56189,420.1955 664.01111,420.14276 663.43689,420.03729 C 662.86853,419.93768 662.26794,419.78534 661.63513,419.58026 L 661.63513,417.91034 C 662.23279,418.22089 662.82165,418.45526 663.40173,418.61346 C 663.98181,418.76581 664.55603,418.84198 665.12439,418.84198 C 665.8861,418.84198 666.47204,418.71307 666.8822,418.45526 C 667.29235,418.19159 667.49743,417.82245 667.49744,417.34784 C 667.49743,416.90839 667.34802,416.57148 667.04919,416.3371 C 666.75622,416.10273 666.10876,415.87714 665.10681,415.66034 L 664.54431,415.5285 C 663.54236,415.31757 662.81872,414.99531 662.37341,414.56171 C 661.9281,414.12226 661.70544,413.52167 661.70544,412.75995 C 661.70544,411.83418 662.03357,411.11933 662.68982,410.61542 C 663.34607,410.11152 664.27771,409.85957 665.48474,409.85956 C 666.08239,409.85957 666.64489,409.90351 667.17224,409.99139 C 667.69958,410.07929 668.18591,410.21113 668.63123,410.3869 M 671.54041,416.05585 L 671.54041,410.09686 L 673.15759,410.09686 L 673.15759,415.99432 C 673.15759,416.92597 673.33923,417.62616 673.70251,418.09491 C 674.06579,418.5578 674.61071,418.78925 675.33728,418.78925 C 676.21032,418.78925 676.8988,418.51093 677.40271,417.95428 C 677.91247,417.39765 678.16735,416.63886 678.16736,415.67792 L 678.16736,410.09686 L 679.78455,410.09686 L 679.78455,419.94061 L 678.16736,419.94061 L 678.16736,418.42889 C 677.77477,419.02655 677.31774,419.47186 676.79626,419.76483 C 676.28063,420.05194 675.68005,420.1955 674.99451,420.1955 C 673.86364,420.1955 673.00525,419.84393 672.41931,419.14081 C 671.83337,418.43768 671.5404,417.40937 671.54041,416.05585 M 683.13318,406.26483 L 684.75037,406.26483 L 684.75037,419.94061 L 683.13318,419.94061 L 683.13318,406.26483 M 689.72498,407.30194 L 689.72498,410.09686 L 693.05603,410.09686 L 693.05603,411.3537 L 689.72498,411.3537 L 689.72498,416.69745 C 689.72497,417.50019 689.83337,418.01581 690.05017,418.24432 C 690.27282,418.47284 690.72107,418.5871 691.3949,418.5871 L 693.05603,418.5871 L 693.05603,419.94061 L 691.3949,419.94061 C 690.14685,419.94061 689.28552,419.70917 688.81091,419.24628 C 688.3363,418.77753 688.099,417.92792 688.099,416.69745 L 688.099,411.3537 L 686.91248,411.3537 L 686.91248,410.09686 L 688.099,410.09686 L 688.099,407.30194 L 689.72498,407.30194"
       id="text4219" />
  </g>
</svg>
