<?xml version="1.0" encoding="UTF-8" standalone="no"?>
<!-- Created with Inkscape (http://www.inkscape.org/) -->

<svg
   xmlns:dc="http://purl.org/dc/elements/1.1/"
   xmlns:cc="http://creativecommons.org/ns#"
   xmlns:rdf="http://www.w3.org/1999/02/22-rdf-syntax-ns#"
   xmlns:svg="http://www.w3.org/2000/svg"
   xmlns="http://www.w3.org/2000/svg"
   xmlns:sodipodi="http://sodipodi.sourceforge.net/DTD/sodipodi-0.dtd"
   xmlns:inkscape="http://www.inkscape.org/namespaces/inkscape"
   version="1.0"
   width="600"
   height="700"
   viewBox="-150 -150 300 350"
   id="svg2"
   sodipodi:version="0.32"
   inkscape:version="0.92.4 5da689c313, 2019-01-14"
   sodipodi:docname="rgb-cube.svg">
  <metadata
     id="metadata94">
    <rdf:RDF>
      <cc:Work
         rdf:about="">
        <dc:format>image/svg+xml</dc:format>
        <dc:type
           rdf:resource="http://purl.org/dc/dcmitype/StillImage" />
        <dc:title>RGB Cube</dc:title>
      </cc:Work>
    </rdf:RDF>
  </metadata>
  <sodipodi:namedview
     inkscape:window-height="1016"
     inkscape:window-width="1920"
     inkscape:pageshadow="2"
     inkscape:pageopacity="0.0"
     guidetolerance="10.0"
     gridtolerance="10.0"
     objecttolerance="10.0"
     borderopacity="1.0"
     bordercolor="#666666"
     pagecolor="#ffffff"
     id="base"
     inkscape:zoom="0.5"
     inkscape:cx="14.390355"
     inkscape:cy="450.36645"
     inkscape:window-x="0"
     inkscape:window-y="27"
     inkscape:current-layer="svg2"
     showgrid="false"
     inkscape:window-maximized="1" />
  <defs
     id="defs183" />
  <style
     type="text/css"
     id="style4" />
  <title
     id="title6">RGB Cube</title>
  <desc
     id="desc8">The RGB color model mapped to a cube (with cut-away shown).</desc>
  <path
     inkscape:connector-curvature="0"
     id="path10"
     style="fill:#ff0000;stroke:#000000;stroke-width:0.5"
     d="M -86.6,54.996426 V 34.996429 l 17.3,9.999997 v 20 z" />
  <path
     inkscape:connector-curvature="0"
     id="path12"
     style="fill:#ff4000;stroke:#000000;stroke-width:0.5"
     d="m -69.3,64.996426 v -20 l 17.3,10 v 20 z" />
  <path
     inkscape:connector-curvature="0"
     id="path14"
     style="fill:#ff8000;stroke:#000000;stroke-width:0.5"
     d="m -52,74.996426 v -20 l 17.4,10 v 20 z" />
  <path
     inkscape:connector-curvature="0"
     id="path16"
     style="fill:#ffc000;stroke:#000000;stroke-width:0.5"
     d="m -34.6,84.996426 v -20 l 17.3,10 v 20 z" />
  <path
     inkscape:connector-curvature="0"
     id="path18"
     style="fill:#ffff00;stroke:#000000;stroke-width:0.5"
     d="m -17.3,94.996426 v -20 l 17.3,10 v 20.000004 z" />
  <path
     inkscape:connector-curvature="0"
     id="path20"
     style="fill:#ffff00;stroke:#000000;stroke-width:0.5"
     d="M 0,104.99643 V 84.996426 l 17.3,-10 v 20 z" />
  <path
     inkscape:connector-curvature="0"
     id="path22"
     style="fill:#c0ff00;stroke:#000000;stroke-width:0.5"
     d="m 17.3,94.996426 v -20 l 17.3,-10 v 20 z" />
  <path
     inkscape:connector-curvature="0"
     id="path24"
     style="fill:#80ff00;stroke:#000000;stroke-width:0.5"
     d="m 34.6,84.996426 v -20 l 17.4,-10 v 20 z" />
  <path
     inkscape:connector-curvature="0"
     id="path26"
     style="fill:#40ff00;stroke:#000000;stroke-width:0.5"
     d="m 52,74.996426 v -20 l 17.3,-10 v 20 z" />
  <path
     inkscape:connector-curvature="0"
     id="path28"
     style="fill:#00ff00;stroke:#000000;stroke-width:0.5"
     d="m 69.3,64.996426 v -20 l 17.3,-9.999997 v 19.999997 z" />
  <path
     inkscape:connector-curvature="0"
     id="path30"
     style="fill:#00ff40;stroke:#000000;stroke-width:0.5"
     d="M 69.3,44.996426 V 24.996429 l 17.3,-10 v 20 z" />
  <path
     inkscape:connector-curvature="0"
     id="path32"
     style="fill:#00ff80;stroke:#000000;stroke-width:0.5"
     d="M 69.3,24.996429 V 4.9964288 l 17.3,-10 V 14.996429 Z" />
  <path
     inkscape:connector-curvature="0"
     id="path34"
     style="fill:#00ffc0;stroke:#000000;stroke-width:0.5"
     d="M 69.3,4.9964288 V -15.003571 l 17.3,-10 v 19.9999998 z" />
  <path
     inkscape:connector-curvature="0"
     id="path36"
     style="fill:#00ffff;stroke:#000000;stroke-width:0.5"
     d="m 69.3,-15.003571 v -20 l 17.3,-10 v 20 z" />
  <path
     inkscape:connector-curvature="0"
     id="path38"
     style="fill:#00ffff;stroke:#000000;stroke-width:0.5"
     d="m 69.3,-35.003571 -17.3,-10 17.3,-10 17.3,10 z" />
  <path
     inkscape:connector-curvature="0"
     id="path40"
     style="fill:#00c0ff;stroke:#000000;stroke-width:0.5"
     d="m 52,-45.003571 -17.4,-10 17.4,-10.000003 17.3,10.000003 z" />
  <path
     inkscape:connector-curvature="0"
     id="path42"
     style="fill:#0080ff;stroke:#000000;stroke-width:0.5"
     d="m 34.6,-55.003571 -17.3,-10.000003 17.3,-10 17.4,10 z" />
  <path
     inkscape:connector-curvature="0"
     id="path44"
     style="fill:#0040ff;stroke:#000000;stroke-width:0.5"
     d="m 17.3,-65.003574 -17.3,-10 17.3,-10 17.3,10 z" />
  <path
     inkscape:connector-curvature="0"
     id="path46"
     style="fill:#0000ff;stroke:#000000;stroke-width:0.5"
     d="m 0,-75.003574 -17.3,-10 17.3,-10 17.3,10 z" />
  <path
     inkscape:connector-curvature="0"
     id="path48"
     style="fill:#4000ff;stroke:#000000;stroke-width:0.5"
     d="m -17.3,-65.003574 -17.3,-10 17.3,-10 17.3,10 z" />
  <path
     inkscape:connector-curvature="0"
     id="path50"
     style="fill:#8000ff;stroke:#000000;stroke-width:0.5"
     d="m -34.6,-55.003571 -17.4,-10.000003 17.4,-10 17.3,10 z" />
  <path
     inkscape:connector-curvature="0"
     id="path52"
     style="fill:#c000ff;stroke:#000000;stroke-width:0.5"
     d="m -52,-45.003571 -17.3,-10 17.3,-10.000003 17.4,10.000003 z" />
  <path
     inkscape:connector-curvature="0"
     id="path54"
     style="fill:#ff00ff;stroke:#000000;stroke-width:0.5"
     d="m -69.3,-35.003571 -17.3,-10 17.3,-10 17.3,10 z" />
  <path
     inkscape:connector-curvature="0"
     id="path56"
     style="fill:#ff00ff;stroke:#000000;stroke-width:0.5"
     d="m -69.3,-15.003571 -17.3,-10 v -20 l 17.3,10 z" />
  <path
     inkscape:connector-curvature="0"
     id="path58"
     style="fill:#ff00c0;stroke:#000000;stroke-width:0.5"
     d="m -69.3,4.9964288 -17.3,-10 V -25.003571 l 17.3,10 z" />
  <path
     inkscape:connector-curvature="0"
     id="path60"
     style="fill:#ff0080;stroke:#000000;stroke-width:0.5"
     d="m -69.3,24.996429 -17.3,-10 V -5.0035712 l 17.3,10 z" />
  <path
     inkscape:connector-curvature="0"
     id="path62"
     style="fill:#ff0040;stroke:#000000;stroke-width:0.5"
     d="m -69.3,44.996426 -17.3,-9.999997 v -20 l 17.3,10 z" />
  <path
     inkscape:connector-curvature="0"
     id="path64"
     style="fill:#ff4040;stroke:#000000;stroke-width:0.5"
     d="M -69.3,44.996426 V 24.996429 l 17.3,10 v 19.999997 z" />
  <path
     inkscape:connector-curvature="0"
     id="path66"
     style="fill:#ff8040;stroke:#000000;stroke-width:0.5"
     d="M -52,54.996426 V 34.996429 l 17.4,9.999997 v 20 z" />
  <path
     inkscape:connector-curvature="0"
     id="path68"
     style="fill:#ffc040;stroke:#000000;stroke-width:0.5"
     d="m -34.6,64.996426 v -20 l 17.3,10 v 20 z" />
  <path
     inkscape:connector-curvature="0"
     id="path70"
     style="fill:#ffff40;stroke:#000000;stroke-width:0.5"
     d="m -17.3,74.996426 v -20 l 17.3,10 v 20 z" />
  <path
     inkscape:connector-curvature="0"
     id="path72"
     style="fill:#ffff40;stroke:#000000;stroke-width:0.5"
     d="m 0,84.996426 v -20 l 17.3,-10 v 20 z" />
  <path
     inkscape:connector-curvature="0"
     id="path74"
     style="fill:#c0ff40;stroke:#000000;stroke-width:0.5"
     d="m 17.3,74.996426 v -20 l 17.3,-10 v 20 z" />
  <path
     inkscape:connector-curvature="0"
     id="path76"
     style="fill:#80ff40;stroke:#000000;stroke-width:0.5"
     d="m 34.6,64.996426 v -20 L 52,34.996429 v 19.999997 z" />
  <path
     inkscape:connector-curvature="0"
     id="path78"
     style="fill:#40ff40;stroke:#000000;stroke-width:0.5"
     d="M 52,54.996426 V 34.996429 l 17.3,-10 v 19.999997 z" />
  <path
     inkscape:connector-curvature="0"
     id="path80"
     style="fill:#40ff80;stroke:#000000;stroke-width:0.5"
     d="m 52,34.996429 v -20 L 69.3,4.9964288 V 24.996429 Z" />
  <path
     inkscape:connector-curvature="0"
     id="path82"
     style="fill:#40ffc0;stroke:#000000;stroke-width:0.5"
     d="M 52,14.996429 V -5.0035712 L 69.3,-15.003571 V 4.9964288 Z" />
  <path
     inkscape:connector-curvature="0"
     id="path84"
     style="fill:#40ffff;stroke:#000000;stroke-width:0.5"
     d="M 52,-5.0035712 V -25.003571 l 17.3,-10 v 20 z" />
  <path
     inkscape:connector-curvature="0"
     id="path86"
     style="fill:#40ffff;stroke:#000000;stroke-width:0.5"
     d="m 52,-25.003571 -17.4,-10 17.4,-10 17.3,10 z" />
  <path
     inkscape:connector-curvature="0"
     id="path88"
     style="fill:#40c0ff;stroke:#000000;stroke-width:0.5"
     d="m 34.6,-35.003571 -17.3,-10 17.3,-10 17.4,10 z" />
  <path
     inkscape:connector-curvature="0"
     id="path90"
     style="fill:#4080ff;stroke:#000000;stroke-width:0.5"
     d="m 17.3,-45.003571 -17.3,-10 17.3,-10.000003 17.3,10.000003 z" />
  <path
     inkscape:connector-curvature="0"
     id="path92"
     style="fill:#4040ff;stroke:#000000;stroke-width:0.5"
     d="m 0,-55.003571 -17.3,-10.000003 17.3,-10 17.3,10 z" />
  <path
     inkscape:connector-curvature="0"
     id="path94"
     style="fill:#8040ff;stroke:#000000;stroke-width:0.5"
     d="m -17.3,-45.003571 -17.3,-10 17.3,-10.000003 17.3,10.000003 z" />
  <path
     inkscape:connector-curvature="0"
     id="path96"
     style="fill:#c040ff;stroke:#000000;stroke-width:0.5"
     d="m -34.6,-35.003571 -17.4,-10 17.4,-10 17.3,10 z" />
  <path
     inkscape:connector-curvature="0"
     id="path98"
     style="fill:#ff40ff;stroke:#000000;stroke-width:0.5"
     d="m -52,-25.003571 -17.3,-10 17.3,-10 17.4,10 z" />
  <path
     inkscape:connector-curvature="0"
     id="path100"
     style="fill:#ff40ff;stroke:#000000;stroke-width:0.5"
     d="m -52,-5.0035712 -17.3,-9.9999998 v -20 l 17.3,10 z" />
  <path
     inkscape:connector-curvature="0"
     id="path102"
     style="fill:#ff40c0;stroke:#000000;stroke-width:0.5"
     d="M -52,14.996429 -69.3,4.9964288 V -15.003571 l 17.3,9.9999998 z" />
  <path
     inkscape:connector-curvature="0"
     id="path104"
     style="fill:#ff4080;stroke:#000000;stroke-width:0.5"
     d="m -52,34.996429 -17.3,-10 V 4.9964288 L -52,14.996429 Z" />
  <path
     inkscape:connector-curvature="0"
     id="path106"
     style="fill:#ff8080;stroke:#000000;stroke-width:0.5"
     d="m -52,34.996429 v -20 l 8.7,5 L -26,9.9964288 V 19.996429 l 8.7,5 -17.3,10 v 9.999997 z" />
  <path
     inkscape:connector-curvature="0"
     id="path108"
     style="fill:#ffc080;stroke:#000000;stroke-width:0.5"
     d="m -34.6,44.996426 v -9.999997 l 17.3,-10 17.3,10 -17.3,9.999997 v 10 z" />
  <path
     inkscape:connector-curvature="0"
     id="path110"
     style="fill:#ffff80;stroke:#000000;stroke-width:0.5"
     d="m -17.3,54.996426 v -10 L 0,34.996429 17.3,44.996426 v 10 l -17.3,10 z" />
  <path
     inkscape:connector-curvature="0"
     id="path112"
     style="fill:#c0ff80;stroke:#000000;stroke-width:0.5"
     d="m 17.3,54.996426 v -10 L 0,34.996429 l 17.3,-10 17.3,10 v 9.999997 z" />
  <path
     inkscape:connector-curvature="0"
     id="path114"
     style="fill:#80ff80;stroke:#000000;stroke-width:0.5"
     d="m 34.6,44.996426 v -9.999997 l -17.3,-10 8.7,-5 V 9.9964288 l 17.3,10.0000002 8.7,-5 v 20 z" />
  <path
     inkscape:connector-curvature="0"
     id="path116"
     style="fill:#80ffc0;stroke:#000000;stroke-width:0.5"
     d="m 52,14.996429 -8.7,5 L 26,9.9964288 V -10.003571 L 43.3,-0.00357125 52,-5.0035712 Z" />
  <path
     inkscape:connector-curvature="0"
     id="path118"
     style="fill:#80ffff;stroke:#000000;stroke-width:0.5"
     d="M 52,-5.0035712 43.3,-0.00357125 26,-10.003571 v -20 l 8.6,-5 17.4,10 z" />
  <path
     inkscape:connector-curvature="0"
     id="path120"
     style="fill:#80c0ff;stroke:#000000;stroke-width:0.5"
     d="m 34.6,-35.003571 -8.6,5 v 20 l -17.3,-10 v -20 l 8.6,-5 z" />
  <path
     inkscape:connector-curvature="0"
     id="path122"
     style="fill:#8080ff;stroke:#000000;stroke-width:0.5"
     d="m 17.3,-45.003571 -8.6,5 v 20 l -8.7,-5 -8.7,5 v -20 l -8.6,-5 17.3,-10 z" />
  <path
     inkscape:connector-curvature="0"
     id="path124"
     style="fill:#c080ff;stroke:#000000;stroke-width:0.5"
     d="m -17.3,-45.003571 8.6,5 v 20 l -17.3,10 v -20 l -8.6,-5 z" />
  <path
     inkscape:connector-curvature="0"
     id="path126"
     style="fill:#ff80ff;stroke:#000000;stroke-width:0.5"
     d="m -34.6,-35.003571 8.6,5 v 20 L -43.3,-0.00357125 -52,-5.0035712 V -25.003571 Z" />
  <path
     inkscape:connector-curvature="0"
     id="path128"
     style="fill:#ff80c0;stroke:#000000;stroke-width:0.5"
     d="m -52,-5.0035712 8.7,4.99999995 L -26,-10.003571 V 9.9964288 l -17.3,10.0000002 -8.7,-5 z" />
  <path
     inkscape:connector-curvature="0"
     id="path130"
     style="fill:#c08080;stroke:#000000;stroke-width:0.5"
     d="M -26,9.9964288 -8.7,-0.00357125 V 9.9964288 l 8.7,5.0000002 -17.3,10 -8.7,-5 z" />
  <path
     inkscape:connector-curvature="0"
     id="path132"
     style="fill:#c0c080;stroke:#000000;stroke-width:0.5"
     d="m -17.3,24.996429 17.3,-10 17.3,10 -17.3,10 z" />
  <path
     inkscape:connector-curvature="0"
     id="path134"
     style="fill:#80c080;stroke:#000000;stroke-width:0.5"
     d="m 17.3,24.996429 -17.3,-10 8.7,-5.0000002 V -0.00357125 L 26,9.9964288 V 19.996429 Z" />
  <path
     inkscape:connector-curvature="0"
     id="path136"
     style="fill:#80c0c0;stroke:#000000;stroke-width:0.5"
     d="M 26,9.9964288 8.7,-0.00357125 V -20.003571 l 17.3,10 z" />
  <path
     inkscape:connector-curvature="0"
     id="path138"
     style="fill:#8080c0;stroke:#000000;stroke-width:0.5"
     d="M 8.7,-20.003571 V -0.00357125 L 0,-5.0035712 -8.7,-0.00357125 V -20.003571 l 8.7,-5 z" />
  <path
     inkscape:connector-curvature="0"
     id="path140"
     style="fill:#c080c0;stroke:#000000;stroke-width:0.5"
     d="M -8.7,-20.003571 V -0.00357125 L -26,9.9964288 V -10.003571 Z" />
  <path
     inkscape:connector-curvature="0"
     id="path142"
     style="fill:#808080;stroke:#000000;stroke-width:0.5"
     d="M 0,14.996429 8.7,9.9964288 V -0.00357125 L 0,-5.0035712 -8.7,-0.00357125 V 9.9964288 Z" />
  <polyline
     style="fill:none;stroke:#000000;stroke-width:0.0125"
     id="polyline144"
     class="line"
     points="-0.866,+0.5 +0.000,+1.0 +0.866,+0.5 +0.866,-0.5 +0.000,-1.0 -0.866,-0.5 -0.866,+0.5"
     transform="matrix(100,0,0,100,0,4.9964288)" />
  <polyline
     style="fill:none;stroke:#000000;stroke-width:0.0125"
     id="polyline146"
     class="line"
     points="+0.000,+1.0 +0.000,+0.5"
     transform="matrix(100,0,0,100,0,4.9964288)" />
  <polyline
     style="fill:none;stroke:#000000;stroke-width:0.0125"
     id="polyline148"
     class="line"
     points="+0.866,-0.5 +0.433,-0.250"
     transform="matrix(100,0,0,100,0,4.9964288)" />
  <polyline
     style="fill:none;stroke:#000000;stroke-width:0.0125"
     id="polyline150"
     class="line"
     points="-0.866,-0.5 -0.433,-0.250"
     transform="matrix(100,0,0,100,0,4.9964288)" />
  <polyline
     style="fill:none;stroke:#000000;stroke-width:0.0125"
     id="polyline152"
     class="dash"
     points="+0.000,+0.5 +0.433,+0.250"
     transform="matrix(100,0,0,100,0,4.9964288)" />
  <polyline
     style="fill:none;stroke:#000000;stroke-width:0.0125"
     id="polyline154"
     class="dash"
     points="+0.433,+0.250 +0.433,-0.250"
     transform="matrix(100,0,0,100,0,4.9964288)" />
  <polyline
     style="fill:none;stroke:#000000;stroke-width:0.0125"
     id="polyline156"
     class="dash"
     points="+0.433,-0.250 +0.000,-0.5"
     transform="matrix(100,0,0,100,0,4.9964288)" />
  <polyline
     style="fill:none;stroke:#000000;stroke-width:0.0125"
     id="polyline158"
     class="dash"
     points="+0.000,-0.5 -0.433,-0.250"
     transform="matrix(100,0,0,100,0,4.9964288)" />
  <polyline
     style="fill:none;stroke:#000000;stroke-width:0.0125"
     id="polyline160"
     class="dash"
     points="-0.433,-0.250 -0.433,+0.250"
     transform="matrix(100,0,0,100,0,4.9964288)" />
  <polyline
     style="fill:none;stroke:#000000;stroke-width:0.0125"
     id="polyline162"
     class="dash"
     points="-0.433,+0.250 +0.000,+0.5"
     transform="matrix(100,0,0,100,0,4.9964288)" />
  <polyline
     style="fill:none;stroke:#000000;stroke-width:0.0125"
     id="polyline164"
     class="dash"
     points="-0.433,+0.250 +0.000,+0.0"
     transform="matrix(100,0,0,100,0,4.9964288)" />
  <polyline
     style="fill:none;stroke:#000000;stroke-width:0.0125"
     id="polyline166"
     class="dash"
     points="+0.433,+0.250 +0.000,+0.0"
     transform="matrix(100,0,0,100,0,4.9964288)" />
  <polyline
     style="fill:none;stroke:#000000;stroke-width:0.0125"
     id="polyline168"
     class="dash"
     points="+0.000,-0.5 +0.000,+0.0"
     transform="matrix(100,0,0,100,0,4.9964288)" />
  <path
     inkscape:connector-curvature="0"
     id="path170"
     style="fill:#c00000;stroke:#000000;stroke-width:1.25"
     d="m -77.9,59.996426 -17.4,10 4.4,2.5 h -17.4 v -10 l 4.4,2.5 17.3,-10 z" />
  <path
     inkscape:connector-curvature="0"
     id="path172"
     style="fill:#0000c0;stroke:#000000;stroke-width:1.25"
     d="m 0,-95.003574 v -19.999996 l -4.3,-2.5 8.6,-5 8.7,15 -4.3,-2.5 v 19.999996 z" />
  <path
     inkscape:connector-curvature="0"
     id="path174"
     style="fill:#00c000;stroke:#000000;stroke-width:1.25"
     d="m 86.6,54.996426 17.3,10 4.4,-2.5 v 10 H 90.9 l 4.4,-2.5 -17.4,-10 z" />
  <text
     xml:space="preserve"
     style="font-style:normal;font-variant:normal;font-weight:bold;font-stretch:normal;line-height:0%;font-family:Tahoma;text-align:start;writing-mode:lr-tb;text-anchor:start;fill:#000000;fill-opacity:1;stroke:none;stroke-width:1px;stroke-linecap:butt;stroke-linejoin:miter;stroke-opacity:1"
     x="18.182049"
     y="-103.71691"
     id="text1957"><tspan
       sodipodi:role="line"
       id="tspan1959"
       x="18.182049"
       y="-103.71691"
       style="font-style:normal;font-variant:normal;font-weight:bold;font-stretch:normal;font-size:20px;line-height:1;font-family:Cantarell;-inkscape-font-specification:'Cantarell Bold'">B</tspan></text>
  <text
     xml:space="preserve"
     style="font-style:normal;font-variant:normal;font-weight:bold;font-stretch:normal;line-height:0%;font-family:Tahoma;text-align:start;writing-mode:lr-tb;text-anchor:start;fill:#000000;fill-opacity:1;stroke:none;stroke-width:1px;stroke-linecap:butt;stroke-linejoin:miter;stroke-opacity:1"
     x="93.663025"
     y="93.329018"
     id="text1961"><tspan
       sodipodi:role="line"
       id="tspan1963"
       x="93.663025"
       y="93.329018"
       style="font-style:normal;font-variant:normal;font-weight:bold;font-stretch:normal;font-size:20px;line-height:1;font-family:Cantarell;-inkscape-font-specification:'Cantarell Bold'">G</tspan></text>
  <text
     xml:space="preserve"
     style="font-style:normal;font-variant:normal;font-weight:bold;font-stretch:normal;line-height:0%;font-family:Tahoma;text-align:start;writing-mode:lr-tb;text-anchor:start;fill:#000000;fill-opacity:1;stroke:none;stroke-width:1px;stroke-linecap:butt;stroke-linejoin:miter;stroke-opacity:1"
     x="-110.77935"
     y="92.944679"
     id="text1965"><tspan
       sodipodi:role="line"
       id="tspan1967"
       x="-110.77935"
       y="92.944679"
       style="font-style:normal;font-variant:normal;font-weight:bold;font-stretch:normal;font-size:20px;line-height:1;font-family:Cantarell;-inkscape-font-specification:'Cantarell Bold'">R</tspan></text>
  <path
     style="opacity:1;fill:none;fill-opacity:1;stroke:#000000;stroke-width:1;stroke-miterlimit:4;stroke-dasharray:none;stroke-opacity:1"
     d="m 13.241879,31.363619 9.720208,6.71752 -50.796796,92.530011 -34.078519,-23.82066 z"
     id="rect4610"
     inkscape:connector-curvature="0"
     sodipodi:nodetypes="ccccc" />
  <circle
     style="opacity:1;fill:#c0ff80;fill-opacity:1;stroke:#000000;stroke-width:1;stroke-miterlimit:4;stroke-dasharray:none;stroke-opacity:1"
     id="path4608-3"
     cx="-46.625"
     cy="121.37144"
     r="21.18988" />
  <text
     xml:space="preserve"
     style="font-style:normal;font-variant:normal;font-weight:normal;font-stretch:normal;font-size:20px;line-height:1.25;font-family:Cantarell;-inkscape-font-specification:Cantarell;letter-spacing:0px;word-spacing:0px;fill:#000000;fill-opacity:1;stroke:none;stroke-width:0.5"
     x="-10"
     y="129.62816"
     id="text4712"><tspan
       sodipodi:role="line"
       id="tspan4710"
       x="-10"
       y="129.62816"
       style="font-style:normal;font-variant:normal;font-weight:normal;font-stretch:normal;font-size:16px;font-family:Cantarell;-inkscape-font-specification:Cantarell;stroke-width:0.5">R=4/5</tspan><tspan
       sodipodi:role="line"
       x="-10"
       y="154.62816"
       style="font-style:normal;font-variant:normal;font-weight:normal;font-stretch:normal;font-size:16px;font-family:Cantarell;-inkscape-font-specification:Cantarell;stroke-width:0.5"
       id="tspan4714">G=5/5</tspan><tspan
       sodipodi:role="line"
       x="-10"
       y="179.62816"
       style="font-style:normal;font-variant:normal;font-weight:normal;font-stretch:normal;font-size:16px;font-family:Cantarell;-inkscape-font-specification:Cantarell;stroke-width:0.5"
       id="tspan4716">B=3/5</tspan></text>
  <circle
     style="opacity:1;fill:#c0ff80;fill-opacity:1;stroke:#000000;stroke-width:1;stroke-miterlimit:4;stroke-dasharray:none;stroke-opacity:1"
     id="path4608"
     cx="17.6875"
     cy="35.308929"
     r="6.0625" />
</svg>
