<?xml version="1.0" encoding="UTF-8" standalone="no"?>
<!-- Created with Inkscape (http://www.inkscape.org/) -->
<svg xmlns:dc="http://purl.org/dc/elements/1.1/" xmlns:cc="http://creativecommons.org/ns#" xmlns:rdf="http://www.w3.org/1999/02/22-rdf-syntax-ns#" xmlns:svg="http://www.w3.org/2000/svg" xmlns="http://www.w3.org/2000/svg" xmlns:xlink="http://www.w3.org/1999/xlink" version="1.1" width="549.92126" height="758.90637" id="svg559">
  <metadata id="metadata2189">
    <rdf:RDF>
      <cc:Work rdf:about="">
        <dc:format>image/svg+xml</dc:format>
        <dc:type rdf:resource="http://purl.org/dc/dcmitype/StillImage"/>
        <dc:title/>
      </cc:Work>
    </rdf:RDF>
  </metadata>
  <defs id="defs561">
    <linearGradient id="linearGradient3509">
      <stop id="stop3511" style="stop-color:#ffffff;stop-opacity:1" offset="0"/>
      <stop id="stop3513" style="stop-color:#ffffff;stop-opacity:0" offset="1"/>
    </linearGradient>
    <linearGradient id="linearGradient3262">
      <stop id="stop3264" style="stop-color:#ffffff;stop-opacity:1" offset="0"/>
      <stop id="stop3274" style="stop-color:#ffffff;stop-opacity:0.74901962" offset="0.15000001"/>
      <stop id="stop3270" style="stop-color:#ffffff;stop-opacity:0.49803922" offset="0.34999999"/>
      <stop id="stop3272" style="stop-color:#ffffff;stop-opacity:0.24705882" offset="0.60000002"/>
      <stop id="stop3266" style="stop-color:#ffffff;stop-opacity:0" offset="1"/>
    </linearGradient>
    <clipPath id="clipPath3307">
      <path d="m 381.9375,173.625 c -4.21332,42.13349 -10.03577,69.83124 -25.84375,78.53125 -17.27681,-5.22916 -28.69236,-31.13179 -41.53125,-71.5 4.55458,41.77797 4.61095,69.96794 -8.75,81.90625 -17.78835,-1.97776 -34.12725,-24.95431 -54.71875,-61.53125 13.0555,40.28403 18.83303,67.99943 7.84375,82.3125 -17.92384,2.14967 -38.78383,-16.95958 -66.75,-48.78125 21.06376,36.64714 32.42682,62.49985 24.71875,78.78125 -17.09049,5.60535 -41.41105,-8.8058 -75.1875,-34.09375 29.644,33.20511 46.34805,56.93535 39.59375,74.78125 10.6708,-14.25291 11.8868,-15.56615 17.875,-22.09375 5.58938,-6.09263 7.37985,-7.9614 18.34375,-17.78125 11.25046,-9.85812 13.26854,-11.37709 20.03125,-16.21875 6.9067,-4.94451 8.83177,-6.27851 22.5625,-14.1875 12.33451,-6.91037 14.78922,-8.04241 22.25,-11.3125 7.67774,-3.365 9.96838,-4.30144 24.5,-9.03125 13.208,-4.16737 15.8721,-4.79736 23.78125,-6.46875 8.26034,-1.7456 10.635,-2.20061 26.125,-3.90625 14.30407,-1.40317 16.96055,-1.46875 25.15625,-1.46875 8.85831,0 10.62725,0.01 28.34375,1.78125 13.10212,1.46659 15.92269,1.98412 23.6875,3.625 8.06288,1.70388 10.58999,2.32122 24.5,6.71875 13.79956,4.49943 16.24747,5.47934 23.78125,8.78125 7.46078,3.27009 9.91548,4.40213 22.25,11.3125 13.73073,7.90899 15.6558,9.24299 22.5625,14.1875 6.76271,4.84166 8.78078,6.36063 20.03125,16.21875 10.96381,9.82023 12.75437,11.68862 18.34375,17.78125 5.9882,6.5276 7.20417,7.84084 17.875,22.09375 -6.7543,-17.8459 9.94974,-41.57614 39.59375,-74.78125 -33.81975,25.32037 -58.12733,39.7259 -75.21875,34.0625 -7.65797,-16.28458 3.70927,-42.1429 24.75,-78.75 -27.95029,31.80361 -48.80176,50.9368 -66.71875,48.8125 -11.02566,-14.30287 -5.25367,-41.9956 7.8125,-82.3125 -20.60326,36.59783 -36.94985,59.54509 -54.75,61.5 -13.32788,-11.95522 -13.26959,-40.13141 -8.71875,-81.875 -12.94605,40.70516 -24.44869,66.66946 -41.96875,71.59375 -16.04038,-8.50889 -21.91562,-36.28182 -26.15625,-78.6875 z m 2.875,99.96875 c -1.37635,-0.005 -2.74998,0.0116 -4.125,0.0312 -73.3345,1.04709 -144.47788,37.47275 -186.65625,100.09375 -64.58021,97.0834 -49.12115,239.6031 62.40625,315.125 97.5272,64.4282 188.99395,36.13015 245.03125,5.03125 l -28,-48 c -60.39979,31.845 -131.1568,35.6623 -185.6875,-1.4375 -83.8576,-55.5432 -100.3532,-164.68105 -48.6875,-241.09375 50.833,-76.6977 156.02335,-100.0685 239.21875,-45.125 87.58159,59.3819 82.48805,162.54275 60.78125,208.71875 -9.5889,-6.5965 -19.19235,-13.18475 -28.78125,-19.78125 24.9959,-64.76217 -0.4447,-128.6783 -50.5,-162.1875 C 400.92381,345.54616 315.4392,352.2459 267.625,423.5 c -9.3484,14.13429 -9.36225,14.1554 -14.53125,28.0625 l 298.09375,199 c 12.3337,-12.84288 12.33425,-12.8473 20.21875,-24.625 67.0184,-100.11068 43.6842,-243.6293 -62.125,-314 -38.5768,-25.99295 -81.80179,-38.17927 -124.46875,-38.34375 z m 199.21875,371.5625 C 573.36046,659.40917 572.1757,660.7224 566.1875,667.25 c -5.67597,6.18706 -7.37489,7.95144 -18.8125,18.1875 -10.78937,9.44575 -12.93545,11.04559 -19.59375,15.8125 -6.50994,4.6605 -8.81667,6.24434 -20.5,13 -14.45549,8.12762 -16.40361,9.00226 -24.3125,12.46875 -7.53219,3.30119 -9.95847,4.31559 -23.75,8.8125 -13.91784,4.40011 -16.46669,5.01452 -24.53125,6.71875 -7.85097,1.6591 -10.59954,2.15064 -24.09375,3.65625 -17.21414,1.71782 -19.13867,1.71873 -27.90625,1.71875 -8.3454,0 -10.85061,-0.0498 -25.875,-1.53125 -14.78143,-1.63437 -17.28607,-2.09654 -25.40625,-3.8125 -8.06456,-1.70423 -10.6134,-2.31866 -24.53125,-6.71875 -13.79154,-4.49691 -16.21783,-5.48003 -23.75,-8.78125 -7.61208,-3.3364 -9.91741,-4.41451 -22.9375,-11.71875 -13.0274,-7.51241 -15.13014,-8.93022 -21.90625,-13.78125 -6.76271,-4.84166 -8.78078,-6.36064 -20.03125,-16.21875 -10.96381,-9.82023 -12.75438,-11.68864 -18.34375,-17.78125 -5.9882,-6.5276 -7.17295,-7.84086 -17.84375,-22.09375 6.7543,17.8459 -9.94976,41.57613 -39.59375,74.78125 33.79501,-25.30185 58.09802,-39.72364 75.1875,-34.09375 7.68616,16.2828 -3.69629,42.15158 -24.75,78.78125 27.97352,-31.83003 48.85426,-50.9427 66.78125,-48.78125 10.98226,14.31504 5.17844,42.03478 -7.875,82.3125 20.60326,-36.59783 36.94985,-59.57633 54.75,-61.53125 13.32788,11.95522 13.26959,40.16269 8.71875,81.90625 12.83495,-40.35584 24.26333,-66.25976 41.53125,-71.5 15.8262,8.68509 21.65955,36.37632 25.875,78.53125 4.24063,-42.40568 10.11585,-70.1786 26.15625,-78.6875 17.51525,4.93035 29.02481,30.89523 41.96875,71.59375 -4.55046,-41.74012 -4.63704,-69.91807 8.6875,-81.875 17.8025,1.95036 34.14441,24.89803 54.75,61.5 -13.06398,-40.31026 -18.83081,-68.00757 -7.8125,-82.3125 17.92005,-2.1356 38.76138,17.00084 66.71875,48.8125 -21.04075,-36.6071 -32.40797,-62.46542 -24.75,-78.75 17.09141,-5.66339 41.399,8.74213 75.21875,34.0625 -29.64397,-33.20509 -46.34805,-56.93535 -39.59375,-74.78125 z" id="path3309" style="font-size:12px;fill:#000000;fill-opacity:1;fill-rule:evenodd;stroke:none"/>
    </clipPath>
    <clipPath id="clipPath3311">
      <path d="m 381.9375,173.625 c -4.21332,42.13349 -10.03577,69.83124 -25.84375,78.53125 -17.27681,-5.22916 -28.69236,-31.13179 -41.53125,-71.5 4.55458,41.77797 4.61095,69.96794 -8.75,81.90625 -17.78835,-1.97776 -34.12725,-24.95431 -54.71875,-61.53125 13.0555,40.28403 18.83303,67.99943 7.84375,82.3125 -17.92384,2.14967 -38.78383,-16.95958 -66.75,-48.78125 21.06376,36.64714 32.42682,62.49985 24.71875,78.78125 -17.09049,5.60535 -41.41105,-8.8058 -75.1875,-34.09375 29.644,33.20511 46.34805,56.93535 39.59375,74.78125 10.6708,-14.25291 11.8868,-15.56615 17.875,-22.09375 5.58938,-6.09263 7.37985,-7.9614 18.34375,-17.78125 11.25046,-9.85812 13.26854,-11.37709 20.03125,-16.21875 6.9067,-4.94451 8.83177,-6.27851 22.5625,-14.1875 12.33451,-6.91037 14.78922,-8.04241 22.25,-11.3125 7.67774,-3.365 9.96838,-4.30144 24.5,-9.03125 13.208,-4.16737 15.8721,-4.79736 23.78125,-6.46875 8.26034,-1.7456 10.635,-2.20061 26.125,-3.90625 14.30407,-1.40317 16.96055,-1.46875 25.15625,-1.46875 8.85831,0 10.62725,0.01 28.34375,1.78125 13.10212,1.46659 15.92269,1.98412 23.6875,3.625 8.06288,1.70388 10.58999,2.32122 24.5,6.71875 13.79956,4.49943 16.24747,5.47934 23.78125,8.78125 7.46078,3.27009 9.91548,4.40213 22.25,11.3125 13.73073,7.90899 15.6558,9.24299 22.5625,14.1875 6.76271,4.84166 8.78078,6.36063 20.03125,16.21875 10.96381,9.82023 12.75437,11.68862 18.34375,17.78125 5.9882,6.5276 7.20417,7.84084 17.875,22.09375 -6.7543,-17.8459 9.94974,-41.57614 39.59375,-74.78125 -33.81975,25.32037 -58.12733,39.7259 -75.21875,34.0625 -7.65797,-16.28458 3.70927,-42.1429 24.75,-78.75 -27.95029,31.80361 -48.80176,50.9368 -66.71875,48.8125 -11.02566,-14.30287 -5.25367,-41.9956 7.8125,-82.3125 -20.60326,36.59783 -36.94985,59.54509 -54.75,61.5 -13.32788,-11.95522 -13.26959,-40.13141 -8.71875,-81.875 -12.94605,40.70516 -24.44869,66.66946 -41.96875,71.59375 -16.04038,-8.50889 -21.91562,-36.28182 -26.15625,-78.6875 z m 2.875,99.96875 c -1.37635,-0.005 -2.74998,0.0116 -4.125,0.0312 -73.3345,1.04709 -144.47788,37.47275 -186.65625,100.09375 -64.58021,97.0834 -49.12115,239.6031 62.40625,315.125 97.5272,64.4282 188.99395,36.13015 245.03125,5.03125 l -28,-48 c -60.39979,31.845 -131.1568,35.6623 -185.6875,-1.4375 -83.8576,-55.5432 -100.3532,-164.68105 -48.6875,-241.09375 50.833,-76.6977 156.02335,-100.0685 239.21875,-45.125 87.58159,59.3819 82.48805,162.54275 60.78125,208.71875 -9.5889,-6.5965 -19.19235,-13.18475 -28.78125,-19.78125 24.9959,-64.76217 -0.4447,-128.6783 -50.5,-162.1875 C 400.92381,345.54616 315.4392,352.2459 267.625,423.5 c -9.3484,14.13429 -9.36225,14.1554 -14.53125,28.0625 l 298.09375,199 c 12.3337,-12.84288 12.33425,-12.8473 20.21875,-24.625 67.0184,-100.11068 43.6842,-243.6293 -62.125,-314 -38.5768,-25.99295 -81.80179,-38.17927 -124.46875,-38.34375 z m 199.21875,371.5625 C 573.36046,659.40917 572.1757,660.7224 566.1875,667.25 c -5.67597,6.18706 -7.37489,7.95144 -18.8125,18.1875 -10.78937,9.44575 -12.93545,11.04559 -19.59375,15.8125 -6.50994,4.6605 -8.81667,6.24434 -20.5,13 -14.45549,8.12762 -16.40361,9.00226 -24.3125,12.46875 -7.53219,3.30119 -9.95847,4.31559 -23.75,8.8125 -13.91784,4.40011 -16.46669,5.01452 -24.53125,6.71875 -7.85097,1.6591 -10.59954,2.15064 -24.09375,3.65625 -17.21414,1.71782 -19.13867,1.71873 -27.90625,1.71875 -8.3454,0 -10.85061,-0.0498 -25.875,-1.53125 -14.78143,-1.63437 -17.28607,-2.09654 -25.40625,-3.8125 -8.06456,-1.70423 -10.6134,-2.31866 -24.53125,-6.71875 -13.79154,-4.49691 -16.21783,-5.48003 -23.75,-8.78125 -7.61208,-3.3364 -9.91741,-4.41451 -22.9375,-11.71875 -13.0274,-7.51241 -15.13014,-8.93022 -21.90625,-13.78125 -6.76271,-4.84166 -8.78078,-6.36064 -20.03125,-16.21875 -10.96381,-9.82023 -12.75438,-11.68864 -18.34375,-17.78125 -5.9882,-6.5276 -7.17295,-7.84086 -17.84375,-22.09375 6.7543,17.8459 -9.94976,41.57613 -39.59375,74.78125 33.79501,-25.30185 58.09802,-39.72364 75.1875,-34.09375 7.68616,16.2828 -3.69629,42.15158 -24.75,78.78125 27.97352,-31.83003 48.85426,-50.9427 66.78125,-48.78125 10.98226,14.31504 5.17844,42.03478 -7.875,82.3125 20.60326,-36.59783 36.94985,-59.57633 54.75,-61.53125 13.32788,11.95522 13.26959,40.16269 8.71875,81.90625 12.83495,-40.35584 24.26333,-66.25976 41.53125,-71.5 15.8262,8.68509 21.65955,36.37632 25.875,78.53125 4.24063,-42.40568 10.11585,-70.1786 26.15625,-78.6875 17.51525,4.93035 29.02481,30.89523 41.96875,71.59375 -4.55046,-41.74012 -4.63704,-69.91807 8.6875,-81.875 17.8025,1.95036 34.14441,24.89803 54.75,61.5 -13.06398,-40.31026 -18.83081,-68.00757 -7.8125,-82.3125 17.92005,-2.1356 38.76138,17.00084 66.71875,48.8125 -21.04075,-36.6071 -32.40797,-62.46542 -24.75,-78.75 17.09141,-5.66339 41.399,8.74213 75.21875,34.0625 -29.64397,-33.20509 -46.34805,-56.93535 -39.59375,-74.78125 z" id="path3313" style="font-size:12px;fill:#000000;fill-opacity:1;fill-rule:evenodd;stroke:none"/>
    </clipPath>
    <filter color-interpolation-filters="sRGB" id="filter3366">
      <feGaussianBlur id="feGaussianBlur3368" stdDeviation="14.173227"/>
    </filter>
    <linearGradient x1="382.54953" y1="280.10577" x2="382.54953" y2="557.28046" id="linearGradient3532" xlink:href="#linearGradient3509" gradientUnits="userSpaceOnUse" gradientTransform="translate(-107.71654,-138.10119)"/>
    <linearGradient x1="386.75247" y1="362.86322" x2="386.75247" y2="542.24011" id="linearGradient3542" xlink:href="#linearGradient3509" gradientUnits="userSpaceOnUse" gradientTransform="translate(-107.71654,-138.10119)"/>
    <radialGradient cx="524.92188" cy="558.96472" r="17.515625" fx="524.92188" fy="558.96472" id="radialGradient3550" xlink:href="#linearGradient3509" gradientUnits="userSpaceOnUse" gradientTransform="matrix(0.5349323,-0.8448949,1,0.6331347,-422.55705,510.46742)"/>
    <linearGradient x1="419.64124" y1="670.63263" x2="232.28918" y2="457.54633" id="linearGradient3558" xlink:href="#linearGradient3509" gradientUnits="userSpaceOnUse" gradientTransform="translate(-107.71654,-138.10119)"/>
    <linearGradient x1="472.21875" y1="648.46875" x2="499.21875" y2="694.03125" id="linearGradient3566" xlink:href="#linearGradient3509" gradientUnits="userSpaceOnUse" gradientTransform="translate(-107.71654,-138.10119)"/>
    <linearGradient x1="381.34219" y1="191.93869" x2="383.04688" y2="247.90936" id="linearGradient3574" xlink:href="#linearGradient3509" gradientUnits="userSpaceOnUse" gradientTransform="translate(-107.71654,-138.10119)"/>
    <linearGradient x1="318.69376" y1="198.74815" x2="318.86661" y2="255.63063" id="linearGradient3582" xlink:href="#linearGradient3509" gradientUnits="userSpaceOnUse" gradientTransform="translate(-107.71654,-138.10119)"/>
    <linearGradient x1="445.7951" y1="198.44858" x2="438.59241" y2="255.81599" id="linearGradient3590" xlink:href="#linearGradient3509" gradientUnits="userSpaceOnUse" gradientTransform="translate(-107.71654,-138.10119)"/>
    <linearGradient x1="257.7309" y1="240.82478" x2="300.71875" y2="240.82478" id="linearGradient3604" xlink:href="#linearGradient3509" gradientUnits="userSpaceOnUse" gradientTransform="translate(-107.71654,-138.10119)"/>
    <linearGradient x1="202.37982" y1="249.44212" x2="245.95103" y2="286.28125" id="linearGradient3612" xlink:href="#linearGradient3509" gradientUnits="userSpaceOnUse" gradientTransform="translate(-107.71654,-138.10119)"/>
    <linearGradient x1="154.62117" y1="291.5267" x2="210.60495" y2="315.24637" id="linearGradient3630" xlink:href="#linearGradient3509" gradientUnits="userSpaceOnUse" gradientTransform="translate(-107.71654,-138.10119)"/>
    <linearGradient x1="506.375" y1="218.1875" x2="475.69058" y2="264.98077" id="linearGradient3640" xlink:href="#linearGradient3509" gradientUnits="userSpaceOnUse" gradientTransform="translate(-107.71654,-138.10119)"/>
    <linearGradient x1="560.27661" y1="249.84375" x2="514.25" y2="285.78125" id="linearGradient3650" xlink:href="#linearGradient3509" gradientUnits="userSpaceOnUse" gradientTransform="translate(-107.71654,-138.10119)"/>
    <linearGradient x1="609.40625" y1="291.875" x2="558.26556" y2="319.74561" id="linearGradient3658" xlink:href="#linearGradient3509" gradientUnits="userSpaceOnUse" gradientTransform="translate(-107.71654,-138.10119)"/>
    <linearGradient x1="382.35052" y1="749.875" x2="382.35052" y2="779.81976" id="linearGradient3690" xlink:href="#linearGradient3509" gradientUnits="userSpaceOnUse" gradientTransform="translate(-107.71654,-138.10119)"/>
    <linearGradient x1="433.34247" y1="743.75" x2="439.75153" y2="770.08527" id="linearGradient3692" xlink:href="#linearGradient3509" gradientUnits="userSpaceOnUse" gradientTransform="translate(-107.71654,-138.10119)"/>
    <linearGradient x1="315.32422" y1="739.15625" x2="318.11243" y2="781.1015" id="linearGradient3694" xlink:href="#linearGradient3509" gradientUnits="userSpaceOnUse" gradientTransform="translate(-107.71654,-138.10119)"/>
    <linearGradient x1="263.92017" y1="719.53125" x2="262.10007" y2="775.99207" id="linearGradient3696" xlink:href="#linearGradient3509" gradientUnits="userSpaceOnUse" gradientTransform="translate(-107.71654,-138.10119)"/>
    <linearGradient x1="498.71881" y1="722.67517" x2="504.24789" y2="773.81586" id="linearGradient3698" xlink:href="#linearGradient3509" gradientUnits="userSpaceOnUse" gradientTransform="translate(-107.71654,-138.10119)"/>
    <linearGradient x1="221.06584" y1="690.28125" x2="221.63947" y2="742.41943" id="linearGradient3700" xlink:href="#linearGradient3509" gradientUnits="userSpaceOnUse" gradientTransform="translate(-107.71654,-138.10119)"/>
    <linearGradient x1="543.8891" y1="690.3689" x2="546.1084" y2="748.35437" id="linearGradient3702" xlink:href="#linearGradient3509" gradientUnits="userSpaceOnUse" gradientTransform="translate(-107.71654,-138.10119)"/>
    <linearGradient x1="186.59787" y1="653.09375" x2="186.59787" y2="701.6875" id="linearGradient3704" xlink:href="#linearGradient3509" gradientUnits="userSpaceOnUse" gradientTransform="translate(-107.71654,-138.10119)"/>
    <linearGradient x1="580.92993" y1="653.38116" x2="580.92993" y2="706.513" id="linearGradient3706" xlink:href="#linearGradient3262" gradientUnits="userSpaceOnUse" gradientTransform="translate(-107.71654,-138.10119)"/>
    <radialGradient cx="382.67188" cy="70.85936" r="240.95312" fx="382.67188" fy="70.85936" id="radialGradient3241" xlink:href="#linearGradient3262" gradientUnits="userSpaceOnUse" gradientTransform="matrix(-3.6176843,0,0,-1.8739726,1767.0579,306.4135)"/>
  </defs>
  <g transform="matrix(1,0,0,1.0540368,-107.71655,-147.15024)" id="g600" style="opacity:0.33000004;fill:#000000;fill-opacity:1;stroke:none;filter:url(#filter3366)">
    <path d="m 253.0964,451.5499 298.0828,199.0175 c 12.3337,-12.8429 12.3337,-12.8429 20.2182,-24.6206 67.0184,-100.1107 43.7081,-243.6352 -62.1011,-314.0059 -106.1899,-71.5505 -247.7678,-38.4091 -315.2532,61.7845 -64.5802,97.0834 -49.1298,239.61 62.3976,315.1319 97.5272,64.4282 188.9762,36.1043 245.0135,5.0054 L 473.477,645.883 C 413.0772,677.728 342.3128,681.5232 287.7821,644.4234 203.9245,588.8802 187.4273,479.7646 239.093,403.3519 c 50.833,-76.6977 156.0308,-100.0815 239.2262,-45.138 87.5816,59.3819 82.47,162.5595 60.7632,208.7355 -9.5889,-6.5965 -19.1778,-13.1929 -28.7667,-19.7894 24.9959,-64.7622 -0.4326,-128.689 -50.4879,-162.1982 -58.8887,-39.4226 -144.3998,-32.7074 -192.214,38.5467 -9.3484,14.1343 -9.3484,14.1343 -14.5174,28.0414 z" id="path582" style="font-size:12px;fill:#000000;fill-opacity:1;fill-rule:evenodd;stroke:none"/>
    <path d="m 381.9484,173.6221 c -4.4291,44.2913 -10.6299,72.6377 -28.3464,79.7244 17.7165,-1.7717 19.4882,-1.7717 28.3464,-1.7717 8.8583,0 10.63,0 28.3465,1.7717 -17.7165,-7.0867 -23.9173,-35.4331 -28.3465,-79.7244 z" id="path578" style="fill:#000000;fill-opacity:1;fill-rule:evenodd;stroke:none"/>
    <path d="m 314.5494,180.6657 c 4.8241,44.2501 4.618,73.266 -11.2504,83.8626 16.9673,-5.3964 18.7008,-5.7627 27.3676,-7.5942 8.6669,-1.8315 10.4003,-2.1978 28.1003,-4.1274 -18.7989,-3.2706 -30.7265,-29.7224 -44.2175,-72.141 z" id="path579" style="font-size:12px;fill:#000000;fill-opacity:1;fill-rule:evenodd;stroke:none"/>
    <path d="m 251.0898,201.0402 c 13.7231,42.344 19.4228,70.7954 6.0412,84.3979 15.5152,-8.7345 17.1379,-9.4457 25.251,-13.0017 8.1133,-3.5559 9.7359,-4.2671 26.6735,-9.7563 -19.0711,0.6212 -36.1294,-22.8518 -57.9657,-61.6399 z" id="path584" style="font-size:12px;fill:#000000;fill-opacity:1;fill-rule:evenodd;stroke:none"/>
    <path d="m 192.1871,234.5471 c 22.1815,38.5918 33.6405,65.2499 23.3605,81.3253 13.3739,-11.7537 14.8146,-12.785 22.0172,-17.9416 7.2028,-5.1565 8.6433,-6.1879 24.08,-15.0604 -18.5307,4.5508 -40.0735,-14.8881 -69.4577,-48.3233 z" id="path585" style="font-size:12px;fill:#000000;fill-opacity:1;fill-rule:evenodd;stroke:none"/>
    <path d="m 141.7323,279.2385 c 29.644,33.2051 46.3405,56.9368 39.5862,74.7827 10.6708,-14.2529 11.8686,-15.5585 17.8568,-22.0861 5.9884,-6.5276 7.1859,-7.8332 20.468,-19.6907 -17.1987,8.2645 -42.2787,-6.3285 -77.911,-33.0059 z" id="path586" style="font-size:12px;fill:#000000;fill-opacity:1;fill-rule:evenodd;stroke:none"/>
    <path d="m 450.0762,180.7087 c -4.8241,44.2501 -4.618,73.266 11.2504,83.8626 -16.9673,-5.3964 -18.7008,-5.7627 -27.3676,-7.5942 -8.6669,-1.8315 -10.4003,-2.1978 -28.1003,-4.1274 18.7989,-3.2706 30.7265,-29.7224 44.2175,-72.141 z" id="path587" style="font-size:12px;fill:#000000;fill-opacity:1;fill-rule:evenodd;stroke:none"/>
    <path d="m 513.5358,201.0832 c -13.7231,42.344 -19.4228,70.7954 -6.0412,84.3979 -15.5152,-8.7345 -17.1379,-9.4457 -25.251,-13.0017 -8.1133,-3.5559 -9.7359,-4.2671 -26.6735,-9.7563 19.0711,0.6212 36.1294,-22.8518 57.9657,-61.6399 z" id="path588" style="font-size:12px;fill:#000000;fill-opacity:1;fill-rule:evenodd;stroke:none"/>
    <path d="m 572.4385,234.5901 c -22.1815,38.5918 -33.6405,65.2499 -23.3605,81.3253 -13.3739,-11.7537 -14.8146,-12.785 -22.0172,-17.9416 -7.2028,-5.1565 -8.6433,-6.1879 -24.08,-15.0604 18.5307,4.5508 40.0735,-14.8881 69.4577,-48.3233 z" id="path589" style="font-size:12px;fill:#000000;fill-opacity:1;fill-rule:evenodd;stroke:none"/>
    <path d="m 622.8933,279.2815 c -29.644,33.2051 -46.3405,56.9368 -39.5862,74.7827 -10.6708,-14.2529 -11.8686,-15.5585 -17.8568,-22.0861 -5.9884,-6.5276 -7.1859,-7.8332 -20.468,-19.6907 17.1987,8.2645 42.2787,-6.3285 77.911,-33.0059 z" id="path590" style="font-size:12px;fill:#000000;fill-opacity:1;fill-rule:evenodd;stroke:none"/>
    <path d="m 382.6772,825.5905 c -4.4291,-44.2913 -10.6299,-72.6377 -28.3464,-79.7244 17.7165,1.7717 19.4882,1.7717 28.3464,1.7717 8.8583,0 10.63,0 28.3465,-1.7717 -17.7165,7.0867 -23.9173,35.4331 -28.3465,79.7244 z" id="path591" style="fill:#000000;fill-opacity:1;fill-rule:evenodd;stroke:none"/>
    <path d="m 315.2782,818.5469 c 4.8241,-44.2501 4.618,-73.266 -11.2504,-83.8626 16.9673,5.3964 18.7008,5.7627 27.3676,7.5942 8.6669,1.8315 10.4003,2.1978 28.1003,4.1274 -18.7989,3.2706 -30.7265,29.7224 -44.2175,72.141 z" id="path592" style="font-size:12px;fill:#000000;fill-opacity:1;fill-rule:evenodd;stroke:none"/>
    <path d="m 251.8186,798.1724 c 13.7231,-42.344 19.4228,-70.7954 6.0412,-84.3979 15.5152,8.7345 17.1379,9.4457 25.251,13.0017 8.1133,3.5559 9.7359,4.2671 26.6735,9.7563 -19.0711,-0.6212 -36.1294,22.8518 -57.9657,61.6399 z" id="path593" style="font-size:12px;fill:#000000;fill-opacity:1;fill-rule:evenodd;stroke:none"/>
    <path d="m 192.9159,764.6655 c 22.1815,-38.5918 33.6405,-65.2499 23.3605,-81.3253 13.3739,11.7537 14.8146,12.785 22.0172,17.9416 7.2028,5.1565 8.6433,6.1879 24.08,15.0604 -18.5307,-4.5508 -40.0735,14.8881 -69.4577,48.3233 z" id="path594" style="font-size:12px;fill:#000000;fill-opacity:1;fill-rule:evenodd;stroke:none"/>
    <path d="m 142.4611,719.9741 c 29.644,-33.2051 46.3405,-56.9368 39.5862,-74.7827 10.6708,14.2529 11.8686,15.5585 17.8568,22.0861 5.9884,6.5276 7.1859,7.8332 20.468,19.6907 -17.1987,-8.2645 -42.2787,6.3285 -77.911,33.0059 z" id="path595" style="font-size:12px;fill:#000000;fill-opacity:1;fill-rule:evenodd;stroke:none"/>
    <path d="m 450.805,818.5039 c -4.8241,-44.2501 -4.618,-73.266 11.2504,-83.8626 -16.9673,5.3964 -18.7008,5.7627 -27.3676,7.5942 -8.6669,1.8315 -10.4003,2.1978 -28.1003,4.1274 18.7989,3.2706 30.7265,29.7224 44.2175,72.141 z" id="path596" style="font-size:12px;fill:#000000;fill-opacity:1;fill-rule:evenodd;stroke:none"/>
    <path d="m 514.2646,798.1294 c -13.7231,-42.344 -19.4228,-70.7954 -6.0412,-84.3979 -15.5152,8.7345 -17.1379,9.4457 -25.251,13.0017 -8.1133,3.5559 -9.7359,4.2671 -26.6735,9.7563 19.0711,-0.6212 36.1294,22.8518 57.9657,61.6399 z" id="path597" style="font-size:12px;fill:#000000;fill-opacity:1;fill-rule:evenodd;stroke:none"/>
    <path d="m 573.1673,764.6225 c -22.1815,-38.5918 -33.6405,-65.2499 -23.3605,-81.3253 -13.3739,11.7537 -14.8146,12.785 -22.0172,17.9416 -7.2028,5.1565 -8.6433,6.1879 -24.08,15.0604 18.5307,-4.5508 40.0735,14.8881 69.4577,48.3233 z" id="path598" style="font-size:12px;fill:#000000;fill-opacity:1;fill-rule:evenodd;stroke:none"/>
    <path d="m 623.6221,719.9311 c -29.644,-33.2051 -46.3405,-56.9368 -39.5862,-74.7827 -10.6708,14.2529 -11.8686,15.5585 -17.8568,22.0861 -5.9884,6.5276 -7.1859,7.8332 -20.468,19.6907 17.1987,-8.2645 42.2787,6.3285 77.911,33.0059 z" id="path599" style="font-size:12px;fill:#000000;fill-opacity:1;fill-rule:evenodd;stroke:none"/>
  </g>
  <rect width="637.79529" height="708.66144" x="70.866142" y="131.10234" transform="translate(-107.71654,-138.10119)" clip-path="url(#clipPath3311)" id="rect2233" style="fill:#000000;fill-opacity:1;stroke:none"/>
  <path d="m 106.29921,166.53542 566.92914,0 c 0,0 141.73228,212.59842 0,283.46456 -141.73228,70.86614 -425.19685,70.86614 -566.92914,0 -141.732285,-70.86614 0,-283.46456 0,-283.46456 z" transform="translate(-107.71654,-138.10119)" clip-path="url(#clipPath3307)" id="rect2235" style="fill:url(#radialGradient3241);fill-opacity:1;stroke:none"/>
  <path d="M 294.12721,112.68006 C 280.74275,99.115451 278.39644,78.934491 275.20963,60.939401 c -0.29134,-1.03722 -0.89996,-8.71193 -1.14492,-6.04059 -3.04831,19.08651 -4.99637,39.98537 -17.53125,55.531249" id="path3507" style="font-size:12px;fill:none;stroke:url(#linearGradient3574);stroke-width:2;stroke-linecap:round;stroke-miterlimit:4;stroke-opacity:1;stroke-dasharray:none"/>
  <path d="m 242.47096,114.08631 c -15.59703,-9.93833 -22.04342,-28.473999 -28.72527,-44.813219 -0.77045,-1.53571 -3.13995,-9.54739 -3.11848,-7.90553 0.90904,19.53063 3.48515,40.688699 -5.96875,58.562499" id="path3505" style="font-size:12px;fill:none;stroke:url(#linearGradient3582);stroke-width:2;stroke-linecap:round;stroke-miterlimit:4;stroke-opacity:1;stroke-dasharray:none"/>
  <path d="m 346.00221,122.30506 c -10.39139,-16.21479 -8.46884,-36.530099 -7.84157,-54.966659 -0.0999,-1.05822 0.97126,-9.04899 0.0603,-5.65834 -6.92464,18.0957 -13.24796,38.333469 -28.90625,50.812499" id="path3503" style="font-size:12px;fill:none;stroke:url(#linearGradient3590);stroke-width:2;stroke-linecap:round;stroke-miterlimit:4;stroke-opacity:1;stroke-dasharray:none"/>
  <path d="m 192.50221,125.64881 c -17.58072,-6.82602 -27.82824,-24.27011 -37.84375,-39.249999 -0.36422,-0.16903 -5.47503,-9.59633 -3.8125,-5.625" id="path3501" style="font-size:12px;fill:none;stroke:url(#linearGradient3604);stroke-width:2;stroke-linecap:round;stroke-miterlimit:4;stroke-opacity:1;stroke-dasharray:none"/>
  <path d="m 398.15846,80.586311 c -10.36021,16.13243 -20.5406,34.446409 -38,43.718749" id="path3499" style="font-size:12px;fill:none;stroke:url(#linearGradient3640);stroke-width:2;stroke-linecap:round;stroke-miterlimit:4;stroke-opacity:1;stroke-dasharray:none"/>
  <path d="m 145.68971,147.68006 c -18.73033,-2.91501 -32.33787,-17.87038 -45.28125,-30.4375 -0.933638,-0.75746 -6.293558,-7.09139 -5.062498,-4.96875" id="path3497" style="font-size:12px;fill:none;stroke:url(#linearGradient3612);stroke-width:2;stroke-linecap:round;stroke-miterlimit:4;stroke-opacity:1;stroke-dasharray:none"/>
  <path d="m 453.59596,112.24256 c -13.55296,13.68788 -27.34936,29.58368 -46.5625,34.9375" id="path3495" style="font-size:12px;fill:none;stroke:url(#linearGradient3650);stroke-width:2;stroke-linecap:round;stroke-miterlimit:4;stroke-opacity:1;stroke-dasharray:none"/>
  <path d="m 434.22096,427.86756 c -1.29481,8.29851 -7.24954,-0.15038 -11.38583,-2.03523 -7.5493,-5.18498 -15.09179,-10.37987 -22.64542,-15.55852" id="path3493" style="font-size:12px;fill:none;stroke:url(#radialGradient3550);stroke-width:2;stroke-linecap:round;stroke-miterlimit:4;stroke-opacity:1;stroke-dasharray:none"/>
  <path d="m 104.37721,178.71131 c -18.873088,1.00975 -35.148578,-10.76486 -50.362518,-20.33323 -1.03535,-0.32215 -9.50887,-7.21719 -5.57498,-3.19802" id="path3491" style="font-size:12px;fill:none;stroke:url(#linearGradient3630);stroke-width:2;stroke-linecap:round;stroke-miterlimit:4;stroke-opacity:1;stroke-dasharray:none"/>
  <path d="m 501.18971,154.27381 c -16.07734,10.60078 -32.7545,23.29066 -52.65625,24.625" id="path3489" style="font-size:12px;fill:none;stroke:url(#linearGradient3658);stroke-width:2;stroke-linecap:round;stroke-miterlimit:4;stroke-opacity:1;stroke-dasharray:none"/>
  <path d="m 500.83078,567.91184 c -11.67765,-14.92469 -25.31362,-30.15469 -27.92232,-49.57553 -0.10851,-1.83304 0.13283,-4.09817 -1.4375,-1.09375 -7.69887,10.10322 -16.43557,19.39616 -25.875,27.875" id="path3487" style="font-size:12px;fill:none;stroke:url(#linearGradient3706);stroke-width:2;stroke-miterlimit:4;stroke-opacity:1;stroke-dasharray:none"/>
  <path d="m 103.34596,545.02381 c 2.81407,-0.37152 -5.053428,-5.30416 -6.820458,-7.91421 -6.65382,-6.80331 -13.06195,-13.92978 -18.67954,-21.61704 l 0,0.84375 c -1.14875,18.20461 -13.51535,32.80697 -24.03125,46.75" id="path3485" style="font-size:12px;fill:none;stroke:url(#linearGradient3704);stroke-width:2;stroke-miterlimit:4;stroke-opacity:1;stroke-dasharray:none"/>
  <path d="m 453.60344,609.7532 c -8.24448,-16.68531 -18.24798,-34.26903 -17.13248,-53.51064 -0.12175,-2.63298 2.28242,-5.50368 -1.84375,-1.46875 -9.41466,8.02987 -19.59232,15.21398 -30.34375,21.375" id="path3483" style="font-size:12px;fill:none;stroke:url(#linearGradient3702);stroke-width:2;stroke-miterlimit:4;stroke-opacity:1;stroke-dasharray:none"/>
  <path d="m 144.78346,576.43006 c 2.53913,-1.0355 -6.15062,-4.08993 -8.38661,-6.35373 -8.03395,-5.29281 -15.67049,-11.02689 -22.86339,-17.39627 l 0.1875,0.78125 c 2.80772,18.44674 -6.82607,35.85947 -14.406248,51.96875" id="path3481" style="font-size:12px;fill:none;stroke:url(#linearGradient3700);stroke-width:2;stroke-miterlimit:4;stroke-opacity:1;stroke-dasharray:none"/>
  <path d="m 398.48167,641.13269 c -4.6176,-18.34601 -11.03987,-38.11564 -5.32321,-56.89013 0.41903,-1.95513 2.6358,-3.56572 -1.40625,-1.03125 -10.79442,6.05535 -23.24624,11.06725 -34.34375,14.96875" id="path3479" style="font-size:12px;fill:none;stroke:url(#linearGradient3698);stroke-width:2;stroke-miterlimit:4;stroke-opacity:1;stroke-dasharray:none"/>
  <path d="m 191.53346,598.80506 c 4.68907,-1.26857 -4.96038,-2.27618 -6.53255,-3.5987 -9.85346,-3.7059 -19.36092,-8.10046 -28.4987,-13.2763 l 0.28125,0.625 c 6.66333,17.83535 0.65143,37.15907 -3.58966,54.83582" id="path3477" style="font-size:12px;fill:none;stroke:url(#linearGradient3696);stroke-width:2;stroke-miterlimit:4;stroke-opacity:1;stroke-dasharray:none"/>
  <path d="m 241.81471,610.61756 c 2.56415,-1.80103 -6.09373,-1.17576 -8.21875,-2.09375 -10.01563,-1.54786 -20.5532,-4.17892 -29.75,-6.96875" id="path3475" style="font-size:12px;fill:none;stroke:url(#linearGradient3694);stroke-width:2;stroke-miterlimit:4;stroke-opacity:1;stroke-dasharray:none"/>
  <path d="m 346.87721,601.39881 c -0.88542,0.27083 -1.77083,0.54167 -2.65625,0.8125 -11.70415,3.79199 -25.25499,6.02001 -36.5625,7.6875" id="path3473" style="font-size:12px;fill:none;stroke:url(#linearGradient3692);stroke-width:2;stroke-miterlimit:4;stroke-opacity:1;stroke-dasharray:none"/>
  <path d="m 293.53346,612.55506 c 3.97678,-3.26621 -5.67725,-0.15617 -7.6875,-0.8125 -10.35388,0.44914 -20.74855,0.3267 -31.0625,-0.75 l 0.5,0.46875" id="path3407" style="font-size:12px;fill:none;stroke:url(#linearGradient3690);stroke-width:2;stroke-miterlimit:4;stroke-opacity:1;stroke-dasharray:none"/>
  <path d="m 487.53346,435.36756 c 25.35993,-73.95398 9.3974,-160.72102 -42.125,-219.75 -42.40883,-49.4341 -107.03971,-79.05793 -172.40625,-77.65625 -80.55779,0.68807 -159.35181,46.91987 -196.559498,118.63492 -37.17089,69.59679 -34.82108,158.71972 7.68403,225.40356" id="path3517" style="font-size:12px;fill:none;stroke:url(#linearGradient3532);stroke-width:2;stroke-linecap:round;stroke-miterlimit:4;stroke-opacity:1;stroke-dasharray:none"/>
  <path d="m 400.18971,410.27381 c 16.00239,-38.95313 13.09854,-85.40055 -9.93625,-121.0355 -30.01812,-48.65537 -92.25813,-73.98292 -147.68875,-60.277 -36.35366,8.38272 -67.0817,33.77416 -85.89141,65.4617 -3.984,5.73835 -6.52347,12.14195 -8.85859,18.69455" id="path3519" style="font-size:12px;fill:none;stroke:url(#linearGradient3542);stroke-width:2;stroke-linecap:round;stroke-miterlimit:4;stroke-opacity:1;stroke-dasharray:none"/>
  <path d="m 365.00221,510.86756 c -47.63018,24.87925 -106.40209,33.54333 -157.2068,12.93387 -52.65123,-21.5685 -93.21885,-70.27165 -104.25376,-126.22395 -11.055158,-51.94343 3.5466,-108.49908 37.80431,-148.55367" id="path3521" style="font-size:12px;fill:none;stroke:url(#linearGradient3558);stroke-width:2;stroke-linecap:round;stroke-miterlimit:4;stroke-opacity:1;stroke-dasharray:none"/>
  <path d="m 391.00221,555.43006 c -8.66667,-14.85417 -17.33333,-29.70833 -26,-44.5625" id="path3523" style="font-size:12px;fill:none;stroke:url(#linearGradient3566);stroke-width:2;stroke-linecap:round;stroke-miterlimit:4;stroke-opacity:1;stroke-dasharray:none"/>
</svg>