<?xml version="1.0" encoding="UTF-8" standalone="no"?>
<!-- Created with Inkscape (http://www.inkscape.org/) -->

<svg
   xmlns:dc="http://purl.org/dc/elements/1.1/"
   xmlns:cc="http://creativecommons.org/ns#"
   xmlns:rdf="http://www.w3.org/1999/02/22-rdf-syntax-ns#"
   xmlns:svg="http://www.w3.org/2000/svg"
   xmlns="http://www.w3.org/2000/svg"
   xmlns:sodipodi="http://sodipodi.sourceforge.net/DTD/sodipodi-0.dtd"
   xmlns:inkscape="http://www.inkscape.org/namespaces/inkscape"
   width="744.09448819"
   height="1052.3622047"
   id="svg3041"
   version="1.1"
   inkscape:version="0.48.0 r9654"
   sodipodi:docname="New document 2">
  <defs
     id="defs3043" />
  <sodipodi:namedview
     id="base"
     pagecolor="#ffffff"
     bordercolor="#666666"
     borderopacity="1.0"
     inkscape:pageopacity="0.0"
     inkscape:pageshadow="2"
     inkscape:zoom="0.35"
     inkscape:cx="375"
     inkscape:cy="520"
     inkscape:document-units="px"
     inkscape:current-layer="layer1"
     showgrid="false"
     inkscape:window-width="719"
     inkscape:window-height="568"
     inkscape:window-x="0"
     inkscape:window-y="26"
     inkscape:window-maximized="0" />
  <metadata
     id="metadata3046">
    <rdf:RDF>
      <cc:Work
         rdf:about="">
        <dc:format>image/svg+xml</dc:format>
        <dc:type
           rdf:resource="http://purl.org/dc/dcmitype/StillImage" />
        <dc:title></dc:title>
      </cc:Work>
    </rdf:RDF>
  </metadata>
  <g
     inkscape:label="Layer 1"
     inkscape:groupmode="layer"
     id="layer1">
    <g
       id="g4833"
       transform="translate(108.18008,-98.997722)">
      <path
         transform="matrix(0.6856195,0,0,1.1314491,-15.24469,128.49793)"
         d="m 605.08139,267.97873 c 0,98.46791 -99.27122,178.29193 -221.72848,178.29193 -122.45727,0 -221.72849,-79.82402 -221.72849,-178.29193 0,-98.46792 99.27122,-178.291932 221.72849,-178.291932 122.45726,0 221.72848,79.824012 221.72848,178.291932 z"
         sodipodi:ry="178.29193"
         sodipodi:rx="221.72849"
         sodipodi:cy="267.97873"
         sodipodi:cx="383.35291"
         id="path3205"
         style="fill:#ffffff;fill-opacity:1;fill-rule:nonzero;stroke:#000000;stroke-width:11.65960598;stroke-linecap:butt;stroke-linejoin:miter;stroke-miterlimit:4;stroke-opacity:1;stroke-dasharray:none;stroke-dashoffset:0;marker:none;visibility:visible;display:inline;overflow:visible"
         sodipodi:type="arc" />
      <path
         inkscape:connector-curvature="0"
         sodipodi:nodetypes="cccc"
         id="path3203"
         d="m 268.98177,391.35838 c -16.27336,36.69967 -31.24766,51.28895 -54.26009,70.19923 -7.25328,-29.188 -10.05334,-41.81474 -6.09005,-77.73546 14.76262,-4.26264 31.23905,-11.55887 60.35014,7.53623 z"
         style="fill:#f57f19;fill-opacity:1;fill-rule:evenodd;stroke:#000000;stroke-width:10.26935005;stroke-linecap:butt;stroke-linejoin:miter;stroke-miterlimit:4;stroke-opacity:1;stroke-dasharray:none" />
      <path
         inkscape:connector-curvature="0"
         sodipodi:nodetypes="cccc"
         id="path3168"
         d="m 394.20419,380.26642 c 8.60824,14.64541 52.21506,57.95717 53.9599,117.60561 1.38051,30.37251 -50.21664,-65.09449 -57.07297,1.50777 4.34595,-33.93616 -0.0249,-68.59646 3.11307,-119.11338 z"
         style="fill:#000000;fill-opacity:1;fill-rule:evenodd;stroke:none" />
      <path
         inkscape:connector-curvature="0"
         sodipodi:nodetypes="cccc"
         id="path3170"
         d="m 100.74572,378.46787 c -6.914027,16.38452 -41.938443,64.83942 -43.339875,131.57096 -1.108799,33.97917 40.333353,-72.82429 45.840245,1.68682 -3.490608,-37.96599 0.02,-76.74211 -2.50037,-133.25778 z"
         style="fill:#000000;fill-opacity:1;fill-rule:evenodd;stroke:none" />
      <path
         inkscape:connector-curvature="0"
         sodipodi:nodetypes="csssc"
         id="path3178"
         d="m 225.75041,628.47242 c 4.88245,19.1197 -19.45791,27.11214 -47.60394,31.73596 -36.364,5.97387 -59.73418,-9.84005 -45.97643,-41.50087 12.98638,-29.88569 36.66107,-53.73726 57.36883,-33.36344 21.35662,21.01223 14.01227,15.67948 36.21154,43.12835 z"
         style="fill:#f57f19;fill-opacity:1;fill-rule:nonzero;stroke:#000000;stroke-width:9.66676617;stroke-linecap:butt;stroke-linejoin:miter;stroke-miterlimit:4;stroke-opacity:1;stroke-dasharray:none;stroke-dashoffset:0;marker:none;visibility:visible;display:inline;overflow:visible" />
      <path
         inkscape:connector-curvature="0"
         sodipodi:nodetypes="csssc"
         id="path3181"
         d="m 254.01444,639.5216 c -5.1868,20.31154 20.67083,28.80219 50.57136,33.71424 38.63077,6.34625 63.45774,-10.45343 48.84241,-44.08785 -13.7959,-31.74864 -38.94637,-57.08701 -60.94496,-35.44317 -22.6879,22.32205 -14.88573,16.65686 -38.46881,45.81678 z"
         style="fill:#f57f19;fill-opacity:1;fill-rule:nonzero;stroke:#000000;stroke-width:10.26935005;stroke-linecap:butt;stroke-linejoin:miter;stroke-miterlimit:4;stroke-opacity:1;stroke-dasharray:none;stroke-dashoffset:0;marker:none;visibility:visible;display:inline;overflow:visible" />
      <path
         inkscape:connector-curvature="0"
         id="path3245"
         d="m 175.00209,352.30112 c -4.97083,-1.689 -7.61777,-6.24063 -7.90552,-13.59419 -0.41948,-10.71977 4.00121,-17.20224 11.95568,-17.53175 4.85498,-0.20112 9.47768,2.98782 11.0256,7.60591 0.99058,2.95535 1.43633,8.37029 0.94747,11.50981 -1.56529,10.05234 -7.87227,14.77975 -16.02323,12.01022 z"
         style="fill:#000000" />
      <path
         inkscape:connector-curvature="0"
         id="path3268"
         d="m 303.77199,353.62764 c -4.97084,-1.68899 -7.61777,-6.24062 -7.90553,-13.59419 -0.41948,-10.71976 4.00121,-17.20224 11.95568,-17.53175 4.85498,-0.20111 9.47769,2.98783 11.0256,7.60592 0.99058,2.95535 1.43633,8.37028 0.94747,11.50981 -1.56529,10.05233 -7.87227,14.77974 -16.02322,12.01021 z"
         style="fill:#000000" />
    </g>
    <g
       id="g4843"
       transform="translate(108.18008,-98.997722)">
      <path
         transform="matrix(-0.4248648,0,0,0.7011366,622.69098,357.9803)"
         d="m 605.08139,267.97873 c 0,98.46791 -99.27122,178.29193 -221.72848,178.29193 -122.45727,0 -221.72849,-79.82402 -221.72849,-178.29193 0,-98.46792 99.27122,-178.291932 221.72849,-178.291932 122.45726,0 221.72848,79.824012 221.72848,178.291932 z"
         sodipodi:ry="178.29193"
         sodipodi:rx="221.72849"
         sodipodi:cy="267.97873"
         sodipodi:cx="383.35291"
         id="path3173"
         style="fill:#ffffff;fill-opacity:1;fill-rule:nonzero;stroke:#000000;stroke-width:16.03176498;stroke-linecap:butt;stroke-linejoin:miter;stroke-miterlimit:4;stroke-opacity:1;stroke-dasharray:none;stroke-dashoffset:0;marker:none;visibility:visible;display:inline;overflow:visible"
         sodipodi:type="arc" />
      <path
         inkscape:connector-curvature="0"
         sodipodi:nodetypes="cccc"
         id="path3175"
         d="m 446.56148,520.8697 c 10.08428,22.74206 19.36356,31.78275 33.6239,43.50107 4.49471,-18.08722 6.22986,-25.91176 3.77388,-48.17112 -9.1481,-2.64147 -19.35821,-7.1628 -37.39778,4.67005 z"
         style="fill:#f57f19;fill-opacity:1;fill-rule:evenodd;stroke:#000000;stroke-width:8.75;stroke-linecap:butt;stroke-linejoin:miter;stroke-miterlimit:4;stroke-opacity:1;stroke-dasharray:none" />
      <path
         inkscape:connector-curvature="0"
         sodipodi:nodetypes="cccc"
         id="path3177"
         d="m 368.96363,513.99624 c -5.33436,9.07547 -32.35664,35.9149 -33.43788,72.87786 -0.85548,18.82124 31.11826,-40.33777 35.36699,0.93433 -2.6931,-21.02956 0.0154,-42.50786 -1.92911,-73.81219 z"
         style="fill:#000000;fill-opacity:1;fill-rule:evenodd;stroke:none" />
      <path
         inkscape:connector-curvature="0"
         sodipodi:nodetypes="cccc"
         id="path3179"
         d="m 550.81402,512.88171 c 4.28449,10.15316 25.98842,40.17971 26.85686,81.53192 0.68711,21.05621 -24.99377,-45.12777 -28.40629,1.04528 2.16306,-23.52677 -0.0124,-47.55556 1.54943,-82.5772 z"
         style="fill:#000000;fill-opacity:1;fill-rule:evenodd;stroke:none" />
      <path
         inkscape:connector-curvature="0"
         sodipodi:nodetypes="csssc"
         id="path3182"
         d="m 473.3511,667.80457 c -3.02556,11.8481 12.05767,16.80086 29.49921,19.66615 22.53405,3.70189 37.01609,-6.09768 28.49069,-25.71727 -8.0474,-18.51957 -22.71814,-33.29991 -35.55033,-20.67466 -13.23428,13.02086 -8.68312,9.71626 -22.43957,26.72578 z"
         style="fill:#f57f19;fill-opacity:1;fill-rule:nonzero;stroke:#000000;stroke-width:8.75;stroke-linecap:butt;stroke-linejoin:miter;stroke-miterlimit:4;stroke-opacity:1;stroke-dasharray:none;stroke-dashoffset:0;marker:none;visibility:visible;display:inline;overflow:visible" />
      <path
         inkscape:connector-curvature="0"
         sodipodi:nodetypes="csssc"
         id="path3184"
         d="m 455.83644,674.65153 c 3.21415,12.58666 -12.8093,17.84815 -31.33807,20.89205 -23.93872,3.93264 -39.32351,-6.47779 -30.26667,-27.32037 8.54904,-19.674 24.13429,-35.37569 37.76638,-21.96343 14.05924,13.83253 9.22439,10.32193 23.83836,28.39175 z"
         style="fill:#f57f19;fill-opacity:1;fill-rule:nonzero;stroke:#000000;stroke-width:8.75;stroke-linecap:butt;stroke-linejoin:miter;stroke-miterlimit:4;stroke-opacity:1;stroke-dasharray:none;stroke-dashoffset:0;marker:none;visibility:visible;display:inline;overflow:visible" />
      <path
         inkscape:connector-curvature="0"
         id="path3186"
         d="m 504.79882,496.66669 c 3.08033,-1.04663 4.72058,-3.86719 4.8989,-8.42405 0.25994,-6.64282 -2.47947,-10.65989 -7.4087,-10.86408 -3.00853,-0.12462 -5.87313,1.8515 -6.83235,4.71324 -0.61384,1.83137 -0.89006,5.1869 -0.58712,7.1324 0.96998,6.22923 4.87829,9.15872 9.92927,7.44249 z"
         style="fill:#000000;stroke-width:8.75;stroke-miterlimit:4;stroke-dasharray:none" />
      <path
         inkscape:connector-curvature="0"
         id="path3188"
         d="m 425.00267,497.48871 c 3.08033,-1.04663 4.72058,-3.86719 4.8989,-8.42405 0.25994,-6.64282 -2.47947,-10.65988 -7.4087,-10.86407 -3.00853,-0.12463 -5.87313,1.85149 -6.83234,4.71323 -0.61385,1.83137 -0.89007,5.1869 -0.58713,7.1324 0.96998,6.22924 4.87829,9.15872 9.92927,7.44249 z"
         style="fill:#000000;stroke-width:8.75;stroke-miterlimit:4;stroke-dasharray:none" />
    </g>
  </g>
</svg>
