<?xml version="1.0" encoding="UTF-8" standalone="no"?>
<!-- Created with Inkscape (http://www.inkscape.org/) -->

<svg
   xmlns:dc="http://purl.org/dc/elements/1.1/"
   xmlns:cc="http://creativecommons.org/ns#"
   xmlns:rdf="http://www.w3.org/1999/02/22-rdf-syntax-ns#"
   xmlns:svg="http://www.w3.org/2000/svg"
   xmlns="http://www.w3.org/2000/svg"
   xmlns:sodipodi="http://sodipodi.sourceforge.net/DTD/sodipodi-0.dtd"
   xmlns:inkscape="http://www.inkscape.org/namespaces/inkscape"
   width="744.09448819"
   height="1052.3622047"
   id="svg3038"
   version="1.1"
   inkscape:version="0.48.0 r9654"
   sodipodi:docname="New document 2">
  <defs
     id="defs3040" />
  <sodipodi:namedview
     id="base"
     pagecolor="#ffffff"
     bordercolor="#666666"
     borderopacity="1.0"
     inkscape:pageopacity="0.0"
     inkscape:pageshadow="2"
     inkscape:zoom="0.35"
     inkscape:cx="375"
     inkscape:cy="520"
     inkscape:document-units="px"
     inkscape:current-layer="layer1"
     showgrid="false"
     inkscape:window-width="496"
     inkscape:window-height="413"
     inkscape:window-x="648"
     inkscape:window-y="26"
     inkscape:window-maximized="0" />
  <metadata
     id="metadata3043">
    <rdf:RDF>
      <cc:Work
         rdf:about="">
        <dc:format>image/svg+xml</dc:format>
        <dc:type
           rdf:resource="http://purl.org/dc/dcmitype/StillImage" />
        <dc:title></dc:title>
      </cc:Work>
    </rdf:RDF>
  </metadata>
  <g
     inkscape:label="Layer 1"
     inkscape:groupmode="layer"
     id="layer1">
    <path
       inkscape:connector-curvature="0"
       d="m 530.26238,574.25352 c -8.923,-13.42 -23.369,-22.039 -39.49,-23.564 -16.542,-1.565 -32.093,4.106 -43.234,15.768 -6.793,7.111 -11.229,15.041 -13.83,24.729 -1.151,4.281 -1.312,5.869 -1.301,12.756 0.01,6.871 0.182,8.506 1.356,12.939 5.126,19.334 20.212,34.174 39.659,39.014 1.674,0.417 3.73,0.853 4.567,0.969 3.705,0.513 12.668,0.298 16.66,-0.4 16.435,-2.865 31.037,-13.469 38.531,-27.98 8.746,-16.93 7.588,-38.432 -2.918,-54.231 z m -2.183,40.915 c -4.294,15.913 -17.359,28.056 -33.849,31.459 -25.709,5.307 -50.76,-14.145 -52.357,-40.656 -1.033,-17.123 9.334,-34.303 25.251,-41.845 6.027,-2.856 10.88,-3.901 18.224,-3.926 7.064,-0.022 10.984,0.701 17.147,3.168 12.372,4.955 22.069,16.173 25.636,29.657 1.492,5.641 1.466,16.516 -0.052,22.143 z"
       id="path14" />
    <path
       inkscape:connector-curvature="0"
       d="m 464.73838,619.36052 c -4.864,-1.725 -8.595,-6.787 -9.251,-12.557 -0.976,-8.552 2.242,-15.192 8.802,-18.172 3.555,-1.613 10.012,-1.576 13.848,0.082 2.329,1.007 6.705,4.959 6.705,6.057 0,0.18 -1.512,1.072 -3.357,1.982 l -3.358,1.655 -1.792,-1.792 c -1,-1 -2.529,-1.931 -3.459,-2.104 -2.306,-0.435 -5.067,0.593 -6.316,2.347 -2.065,2.902 -2.208,10.489 -0.252,13.475 1.015,1.549 2.72,2.635 4.328,2.758 3.381,0.26 4.234,-0.032 6.234,-2.136 l 2.018,-2.12 2.599,1.43 c 1.429,0.787 2.805,1.617 3.058,1.846 0.877,0.79 -3.144,4.894 -6.379,6.51 -2.749,1.374 -3.615,1.558 -7.229,1.521 -2.264,-0.024 -5.051,-0.375 -6.199,-0.782 z"
       id="path16" />
    <path
       inkscape:connector-curvature="0"
       d="m 495.69338,619.36052 c -4.796,-1.701 -8.464,-6.604 -9.252,-12.369 -1.143,-8.352 2.224,-15.371 8.803,-18.358 3.817,-1.733 10.29,-1.601 14.159,0.293 2.395,1.171 6.394,4.847 6.394,5.876 0,0.175 -1.567,1.077 -3.485,2.004 l -3.484,1.687 -1.804,-1.969 c -1.622,-1.771 -2.054,-1.969 -4.276,-1.969 -3.059,0 -5.027,1.202 -6.089,3.719 -0.95,2.252 -1.07,7.773 -0.224,10.289 1.723,5.114 8.009,6.326 11.577,2.232 l 1.604,-1.84 3.091,1.562 c 1.7,0.857 3.091,1.705 3.091,1.882 0,1.16 -3.994,4.881 -6.681,6.223 -2.75,1.374 -3.615,1.558 -7.229,1.521 -2.259,-0.025 -5.046,-0.376 -6.195,-0.783 z"
       id="path18" />
  </g>
</svg>
