<?xml version="1.0" encoding="UTF-8"?>
<!-- Generator: Adobe Illustrator 14.0.0, SVG Export Plug-In  -->
<!DOCTYPE svg PUBLIC "-//W3C//DTD SVG 1.1//EN" "http://www.w3.org/Graphics/SVG/1.1/DTD/svg11.dtd" [
	<!ENTITY ns_flows "http://ns.adobe.com/Flows/1.0/">
]>
<svg version="1.1" xmlns="http://www.w3.org/2000/svg" xmlns:xlink="http://www.w3.org/1999/xlink" xmlns:a="http://ns.adobe.com/AdobeSVGViewerExtensions/3.0/" x="0px" y="0px" width="758px" height="171px" viewBox="-0.424 -0.244 758 171" enable-background="new -0.424 -0.244 758 171" xml:space="preserve">
<circle fill="#DD4814" cx="712.027" cy="45.326" r="45.326"/>
<path fill="#FFFFFF" d="M681.207,39.273c-3.344,0-6.053,2.709-6.053,6.053c0,3.342,2.709,6.051,6.053,6.051  c3.342,0,6.051-2.709,6.051-6.051C687.257,41.982,684.548,39.273,681.207,39.273z M724.414,66.777  c-2.895,1.672-3.887,5.371-2.215,8.264c1.67,2.895,5.369,3.887,8.264,2.215c2.895-1.67,3.887-5.369,2.215-8.264  C731.007,66.1,727.306,65.107,724.414,66.777z M694.351,45.326c0-5.98,2.971-11.264,7.516-14.463l-4.424-7.41  c-5.295,3.539-9.234,8.947-10.871,15.281c1.91,1.559,3.133,3.932,3.133,6.592c0,2.658-1.223,5.031-3.133,6.59  c1.635,6.336,5.574,11.744,10.871,15.283l4.424-7.412C697.322,56.59,694.351,51.307,694.351,45.326z M712.027,27.648  c9.234,0,16.811,7.08,17.605,16.109l8.623-0.127c-0.424-6.666-3.336-12.65-7.811-17.051c-2.301,0.869-4.959,0.736-7.256-0.588  c-2.301-1.328-3.744-3.568-4.139-6c-2.236-0.617-4.59-0.955-7.023-0.955c-4.184,0-8.139,0.982-11.65,2.721l4.205,7.535  C706.843,28.24,709.367,27.648,712.027,27.648z M712.027,63.002c-2.66,0-5.184-0.592-7.445-1.645l-4.205,7.535  c3.512,1.74,7.467,2.723,11.65,2.723c2.434,0,4.787-0.338,7.023-0.957c0.395-2.432,1.838-4.67,4.139-6  c2.299-1.326,4.955-1.457,7.256-0.588c4.475-4.4,7.387-10.385,7.811-17.051l-8.625-0.127  C728.837,55.924,721.261,63.002,712.027,63.002z M724.412,23.871c2.895,1.672,6.594,0.682,8.264-2.213  c1.672-2.895,0.682-6.594-2.213-8.266c-2.895-1.67-6.594-0.678-8.266,2.217C720.527,18.502,721.519,22.201,724.412,23.871z"/>
<path d="M90.651,164.257c-4.606,1.153-10.684,2.375-18.238,3.669c-7.555,1.296-16.296,1.942-26.225,1.942  c-8.633,0-15.901-1.261-21.799-3.775c-5.902-2.516-10.65-6.079-14.245-10.685c-3.599-4.604-6.188-10.037-7.77-16.296  C0.789,132.853,0,125.914,0,118.285V55.262h20.073v58.706c0,13.672,2.158,23.456,6.476,29.354  c4.316,5.902,11.581,8.851,21.799,8.851c2.158,0,4.387-0.072,6.691-0.218c2.3-0.141,4.458-0.323,6.475-0.539  c2.013-0.216,3.848-0.431,5.504-0.646c1.652-0.216,2.839-0.465,3.561-0.755V55.262h20.073V164.257z"/>
<path d="M139.644,60.225c2.445-1.581,6.151-3.237,11.115-4.963c4.964-1.728,10.684-2.59,17.159-2.59  c8.057,0,15.216,1.438,21.476,4.315c6.259,2.88,11.547,6.907,15.863,12.088c4.317,5.18,7.588,11.368,9.821,18.562  c2.229,7.196,3.346,15.107,3.346,23.74c0,9.066-1.333,17.235-3.993,24.5c-2.664,7.266-6.441,13.417-11.332,18.452  c-4.894,5.039-10.792,8.923-17.698,11.656c-6.907,2.731-14.677,4.1-23.311,4.1c-9.355,0-17.627-0.646-24.821-1.942  c-7.196-1.295-13.095-2.589-17.698-3.885V3.459l20.073-3.452V60.225z M139.644,150.013c2.013,0.576,4.856,1.115,8.526,1.617  c3.669,0.506,8.235,0.757,13.705,0.757c10.792,0,19.425-3.562,25.9-10.684c6.475-7.124,9.713-17.231,9.713-30.327  c0-5.751-0.577-11.148-1.727-16.187c-1.153-5.035-3.021-9.388-5.611-13.057c-2.59-3.67-5.936-6.547-10.037-8.635  c-4.101-2.084-9.032-3.129-14.785-3.129c-5.47,0-10.505,0.938-15.108,2.806c-4.607,1.872-8.131,3.815-10.576,5.827V150.013z"/>
<path d="M330.44,164.257c-4.607,1.153-10.684,2.375-18.238,3.669c-7.555,1.296-16.295,1.942-26.224,1.942  c-8.634,0-15.901-1.261-21.8-3.775c-5.902-2.516-10.65-6.079-14.245-10.685c-3.599-4.604-6.188-10.037-7.77-16.296  c-1.585-6.26-2.375-13.199-2.375-20.828V55.262h20.073v58.706c0,13.672,2.158,23.456,6.475,29.354  c4.316,5.902,11.581,8.851,21.799,8.851c2.158,0,4.388-0.072,6.691-0.218c2.3-0.141,4.458-0.323,6.475-0.539  c2.013-0.216,3.848-0.431,5.504-0.646c1.652-0.216,2.84-0.465,3.561-0.755V55.262h20.073V164.257z"/>
<path d="M359.359,58.499c4.604-1.151,10.717-2.375,18.347-3.671c7.625-1.294,16.402-1.941,26.33-1.941  c8.922,0,16.33,1.261,22.232,3.776c5.898,2.52,10.609,6.043,14.137,10.576c3.523,4.533,6.006,9.967,7.447,16.296  c1.436,6.333,2.158,13.312,2.158,20.937v63.023h-20.074v-58.708c0-6.905-0.469-12.803-1.402-17.697  c-0.938-4.89-2.48-8.849-4.641-11.87c-2.158-3.023-5.037-5.216-8.633-6.584c-3.6-1.367-8.061-2.051-13.381-2.051  c-2.16,0-4.393,0.074-6.691,0.216c-2.304,0.145-4.499,0.325-6.583,0.541c-2.089,0.215-3.96,0.469-5.611,0.755  c-1.656,0.29-2.844,0.506-3.562,0.646v94.751h-20.073V58.499z"/>
<path d="M496.413,55.262h42.52v16.835h-42.52v51.799c0,5.611,0.43,10.253,1.295,13.921c0.863,3.671,2.158,6.549,3.885,8.634  c1.727,2.088,3.885,3.562,6.475,4.425c2.59,0.863,5.611,1.296,9.064,1.296c6.186,0,11.08-0.682,14.678-2.051  c3.594-1.366,6.043-2.337,7.338-2.913l4.316,16.403c-2.016,1.008-5.578,2.304-10.684,3.884c-5.109,1.582-10.898,2.374-17.375,2.374  c-7.627,0-13.92-0.97-18.885-2.913s-8.957-4.856-11.979-8.741c-3.021-3.886-5.146-8.668-6.367-14.354  c-1.225-5.682-1.836-12.264-1.836-19.748V23.965l20.074-3.453V55.262z"/>
<path d="M648.143,164.257c-4.607,1.153-10.686,2.375-18.238,3.669c-7.555,1.296-16.295,1.942-26.225,1.942  c-8.633,0-15.9-1.261-21.799-3.775c-5.902-2.516-10.65-6.079-14.246-10.685c-3.598-4.604-6.188-10.037-7.77-16.296  c-1.586-6.26-2.375-13.199-2.375-20.828V55.262h20.074v58.706c0,13.672,2.158,23.456,6.475,29.354  c4.316,5.902,11.58,8.851,21.799,8.851c2.158,0,4.387-0.072,6.691-0.218c2.299-0.141,4.459-0.323,6.475-0.539  c2.014-0.216,3.848-0.431,5.504-0.646c1.652-0.216,2.84-0.465,3.561-0.755V55.262h20.074V164.257z"/>
</svg>