<?xml version="1.0" encoding="UTF-8" standalone="no"?>
<!-- Created with Inkscape (http://www.inkscape.org/) -->
<svg xmlns:dc="http://purl.org/dc/elements/1.1/" xmlns:cc="http://creativecommons.org/ns#" xmlns:rdf="http://www.w3.org/1999/02/22-rdf-syntax-ns#" xmlns:svg="http://www.w3.org/2000/svg" xmlns="http://www.w3.org/2000/svg" xmlns:sodipodi="http://sodipodi.sourceforge.net/DTD/sodipodi-0.dtd" xmlns:inkscape="http://www.inkscape.org/namespaces/inkscape" width="231.07043mm" height="120.06223mm" viewBox="0 0 231.07043 120.06223" version="1.1" id="svg5297" inkscape:version="0.92.0 r15299" sodipodi:docname="egl.svg">
  <defs id="defs5291"/>
  <sodipodi:namedview id="base" pagecolor="#ffffff" bordercolor="#666666" borderopacity="1.0" inkscape:pageopacity="0.0" inkscape:pageshadow="2" inkscape:zoom="0.92230816" inkscape:cx="434.77876" inkscape:cy="224.99949" inkscape:document-units="mm" inkscape:current-layer="layer1" showgrid="false" fit-margin-top="0" fit-margin-left="0" fit-margin-right="0" fit-margin-bottom="0" units="mm" inkscape:window-width="1280" inkscape:window-height="744" inkscape:window-x="-4" inkscape:window-y="-4" inkscape:window-maximized="1"/>
  <metadata id="metadata5294">
    <rdf:RDF>
      <cc:Work rdf:about="">
        <dc:format>image/svg+xml</dc:format>
        <dc:type rdf:resource="http://purl.org/dc/dcmitype/StillImage"/>
        <dc:title/>
      </cc:Work>
    </rdf:RDF>
  </metadata>
  <g inkscape:label="Layer 1" inkscape:groupmode="layer" id="layer1" transform="translate(-48.250501,-280.31414)">
    <g id="g5874" transform="matrix(0.26458333,0,0,0.26458333,31.493992,274.19946)">
      <g id="EGL_1_">
	<g id="g5848">
		<path id="path5842" d="M 454.574,173.726 H 335.365 v 47.247 h 109.508 v 39.733 H 335.365 V 318.9 h 124.527 v 39.736 H 289.375 V 133.993 h 165.199 z" inkscape:connector-curvature="0" style="fill:#ae1116"/>

		<path id="path5844" d="m 586.283,237.554 h 93.863 v 121.083 h -31.289 l -4.691,-28.16 c -11.892,13.767 -29.099,34.105 -70.086,34.105 -54.127,0 -103.249,-38.797 -103.249,-117.642 0,-61.011 33.79,-118.893 109.194,-118.893 h 0.625 c 68.834,0 96.052,44.743 98.557,75.716 h -46.933 c 0,-8.763 -15.956,-36.919 -49.12,-36.919 -33.479,0 -64.454,23.152 -64.454,80.72 0,61.326 33.477,77.282 65.394,77.282 10.322,0 44.74,-4.067 54.438,-49.435 h -52.249 z" inkscape:connector-curvature="0" style="fill:#ae1116"/>

		<path id="path5846" d="m 753.971,317.961 h 111.697 v 40.676 H 707.041 V 133.993 h 46.93 z" inkscape:connector-curvature="0" style="fill:#ae1116"/>

	</g>

	<path id="path5850" d="m 748.148,375.281 c -48.309,27.374 -165.566,64.96 -304.109,46.136 -173.408,-23.583 -246.52,-84.436 -246.52,-171.857 0,-87.424 86.602,-153.846 246.52,-170.982 C 576.447,64.38 694.3,95.325 744.498,121.184 H 746 C 713.277,95.02 610.776,25.872 440.625,25.008 230.729,23.934 64.22,136.424 65.226,249.988 64.22,363.551 230.729,476.047 440.625,474.992 619.178,474.08 723.199,397.995 750.299,375.281 Z" inkscape:connector-curvature="0" style="fill:#ae1116"/>

</g>
      <g enable-background="new    " id="TM_2_">
	<path id="path5853" d="m 904.791,339.736 h -7.268 v 18.9 h -6.346 v -18.9 h -7.266 v -5.459 h 20.879 v 5.459 z" inkscape:connector-curvature="0" style="fill:#ae1116"/>

	<path id="path5855" d="m 907.623,334.277 h 9.348 l 4.195,16.239 h 0.068 l 4.197,-16.239 h 9.348 v 24.359 h -5.971 v -18.491 h -0.068 l -5.117,18.491 h -4.844 l -5.119,-18.491 h -0.068 v 18.491 h -5.969 z" inkscape:connector-curvature="0" style="fill:#ae1116"/>

</g>
    </g>
  </g>
</svg>