<?xml version="1.0" standalone="no"?> 
<svg width="2000" height="100%" version="1.1" xmlns="http://www.w3.org/2000/svg">
<rect x="5.21390374331551" width="15.6417112299465" y="150" height="145" style="fill:rgb(0,0,255);fill-opacity:0.5;stroke-width:1;stroke:rgb(0,0,0)"/>
<text transform="translate(6.21390374331551,154) rotate(90)" font-size="3pt">customize_machine</text>
<rect x="20.855614973262" width="5.21390374331551" y="150" height="145" style="fill:rgb(0,255,0);fill-opacity:0.5;stroke-width:1;stroke:rgb(0,0,0)"/>
<text transform="translate(21.855614973262,154) rotate(90)" font-size="3pt">at91_pinctrl_init</text>
<rect x="26.0695187165775" width="20.855614973262" y="150" height="145" style="fill:rgb(255,0,20);fill-opacity:0.5;stroke-width:1;stroke:rgb(0,0,0)"/>
<text transform="translate(32.0695187165775,154) rotate(90)">param_sysfs_init</text>
<rect x="46.9251336898396" width="5.21390374331551" y="150" height="145" style="fill:rgb(255,255,20);fill-opacity:0.5;stroke-width:1;stroke:rgb(0,0,0)"/>
<text transform="translate(47.9251336898396,154) rotate(90)" font-size="3pt">at_dma_init</text>
<rect x="52.1390374331551" width="5.2139037433155" y="150" height="145" style="fill:rgb(255,0,255);fill-opacity:0.5;stroke-width:1;stroke:rgb(0,0,0)"/>
<text transform="translate(53.1390374331551,154) rotate(90)" font-size="3pt">at91_twi_init</text>
<rect x="57.3529411764706" width="5.21390374331551" y="150" height="145" style="fill:rgb(0,255,255);fill-opacity:0.5;stroke-width:1;stroke:rgb(0,0,0)"/>
<text transform="translate(58.3529411764706,154) rotate(90)" font-size="3pt">net_dev_init</text>
<rect x="62.5668449197861" width="26.0695187165775" y="150" height="145" style="fill:rgb(0,128,255);fill-opacity:0.5;stroke-width:1;stroke:rgb(0,0,0)"/>
<text transform="translate(68.5668449197861,154) rotate(90)">chr_dev_init</text>
<rect x="88.6363636363636" width="5.21390374331551" y="150" height="145" style="fill:rgb(0,255,128);fill-opacity:0.5;stroke-width:1;stroke:rgb(0,0,0)"/>
<text transform="translate(89.6363636363636,154) rotate(90)" font-size="3pt">alarmtimer_init</text>
<rect x="93.8502673796791" width="396.256684491979" y="150" height="145" style="fill:rgb(255,0,128);fill-opacity:0.5;stroke-width:1;stroke:rgb(0,0,0)"/>
<text transform="translate(99.8502673796791,154) rotate(90)">atmel_hlcdfb_init</text>
<rect x="490.106951871658" width="255.48128342246" y="150" height="145" style="fill:rgb(255,255,128);fill-opacity:0.5;stroke-width:1;stroke:rgb(0,0,0)"/>
<text transform="translate(496.106951871658,154) rotate(90)">atmel_serial_init</text>
<rect x="745.588235294118" width="5.21390374331554" y="150" height="145" style="fill:rgb(255,128,255);fill-opacity:0.5;stroke-width:1;stroke:rgb(0,0,0)"/>
<text transform="translate(746.588235294118,154) rotate(90)" font-size="3pt">brd_init</text>
<rect x="750.802139037433" width="10.427807486631" y="150" height="145" style="fill:rgb(128,255,255);fill-opacity:0.5;stroke-width:1;stroke:rgb(0,0,0)"/>
<text transform="translate(751.802139037433,154) rotate(90)" font-size="3pt">loop_init</text>
<rect x="761.229946524064" width="5.21390374331554" y="150" height="145" style="fill:rgb(0,0,255);fill-opacity:0.5;stroke-width:1;stroke:rgb(0,0,0)"/>
<text transform="translate(762.229946524064,154) rotate(90)" font-size="3pt">at24_init</text>
<rect x="766.44385026738" width="52.1390374331551" y="150" height="145" style="fill:rgb(0,255,0);fill-opacity:0.5;stroke-width:1;stroke:rgb(0,0,0)"/>
<text transform="translate(772.44385026738,154) rotate(90)">atmel_nand_init</text>
<rect x="818.582887700535" width="510.96256684492" y="150" height="145" style="fill:rgb(255,0,20);fill-opacity:0.5;stroke-width:1;stroke:rgb(0,0,0)"/>
<text transform="translate(824.582887700535,154) rotate(90)">ubi_init</text>
<rect x="1329.54545454545" width="20.8556149732619" y="150" height="145" style="fill:rgb(255,255,20);fill-opacity:0.5;stroke-width:1;stroke:rgb(0,0,0)"/>
<text transform="translate(1335.54545454545,154) rotate(90)">atmel_spi_driver_init</text>
<rect x="1350.40106951872" width="10.4278074866311" y="150" height="145" style="fill:rgb(255,0,255);fill-opacity:0.5;stroke-width:1;stroke:rgb(0,0,0)"/>
<text transform="translate(1351.40106951872,154) rotate(90)" font-size="3pt">at91_can_driver_init</text>
<rect x="1360.82887700535" width="20.8556149732619" y="150" height="145" style="fill:rgb(0,255,255);fill-opacity:0.5;stroke-width:1;stroke:rgb(0,0,0)"/>
<text transform="translate(1366.82887700535,154) rotate(90)">macb_init</text>
<rect x="1381.68449197861" width="46.9251336898396" y="150" height="145" style="fill:rgb(0,128,255);fill-opacity:0.5;stroke-width:1;stroke:rgb(0,0,0)"/>
<text transform="translate(1387.68449197861,154) rotate(90)">ehci_hcd_init</text>
<rect x="1428.60962566845" width="62.566844919786" y="150" height="145" style="fill:rgb(0,255,128);fill-opacity:0.5;stroke-width:1;stroke:rgb(0,0,0)"/>
<text transform="translate(1434.60962566845,154) rotate(90)">ohci_hcd_mod_init</text>
<rect x="1491.17647058824" width="5.21390374331554" y="150" height="145" style="fill:rgb(255,0,128);fill-opacity:0.5;stroke-width:1;stroke:rgb(0,0,0)"/>
<text transform="translate(1492.17647058824,154) rotate(90)" font-size="3pt">acm_init</text>
<rect x="1496.39037433155" width="10.4278074866309" y="150" height="145" style="fill:rgb(255,255,128);fill-opacity:0.5;stroke-width:1;stroke:rgb(0,0,0)"/>
<text transform="translate(1497.39037433155,154) rotate(90)" font-size="3pt">usb_stor_init</text>
<rect x="1506.81818181818" width="10.4278074866311" y="150" height="145" style="fill:rgb(255,128,255);fill-opacity:0.5;stroke-width:1;stroke:rgb(0,0,0)"/>
<text transform="translate(1507.81818181818,154) rotate(90)" font-size="3pt">udc_init</text>
<rect x="1517.24598930481" width="255.48128342246" y="150" height="145" style="fill:rgb(128,255,255);fill-opacity:0.5;stroke-width:1;stroke:rgb(0,0,0)"/>
<text transform="translate(1523.24598930481,154) rotate(90)">qt1070_driver_init</text>
<rect x="1772.72727272727" width="10.4278074866309" y="150" height="145" style="fill:rgb(0,0,255);fill-opacity:0.5;stroke-width:1;stroke:rgb(0,0,0)"/>
<text transform="translate(1773.72727272727,154) rotate(90)" font-size="3pt">atmel_tsadcc_driver_init</text>
<rect x="1783.1550802139" width="10.4278074866309" y="150" height="145" style="fill:rgb(0,255,0);fill-opacity:0.5;stroke-width:1;stroke:rgb(0,0,0)"/>
<text transform="translate(1784.1550802139,154) rotate(90)" font-size="3pt">at91_rtc_init</text>
<rect x="1793.58288770053" width="5.21390374331554" y="150" height="145" style="fill:rgb(255,0,20);fill-opacity:0.5;stroke-width:1;stroke:rgb(0,0,0)"/>
<text transform="translate(1794.58288770053,154) rotate(90)" font-size="3pt">at91sam9x5_video_init</text>
<rect x="1798.79679144385" width="5.21390374331554" y="150" height="145" style="fill:rgb(255,255,20);fill-opacity:0.5;stroke-width:1;stroke:rgb(0,0,0)"/>
<text transform="translate(1799.79679144385,154) rotate(90)" font-size="3pt">gspca_init</text>
<rect x="1804.01069518717" width="5.21390374331554" y="150" height="145" style="fill:rgb(255,0,255);fill-opacity:0.5;stroke-width:1;stroke:rgb(0,0,0)"/>
<text transform="translate(1805.01069518717,154) rotate(90)" font-size="3pt">uvc_init</text>
<rect x="1809.22459893048" width="5.21390374331531" y="150" height="145" style="fill:rgb(0,255,255);fill-opacity:0.5;stroke-width:1;stroke:rgb(0,0,0)"/>
<text transform="translate(1810.22459893048,154) rotate(90)" font-size="3pt">hid_init</text>
<rect x="1814.4385026738" width="5.21390374331577" y="150" height="145" style="fill:rgb(0,128,255);fill-opacity:0.5;stroke-width:1;stroke:rgb(0,0,0)"/>
<text transform="translate(1815.4385026738,154) rotate(90)" font-size="3pt">snd_soc_init</text>
<rect x="1819.65240641711" width="5.21390374331531" y="150" height="145" style="fill:rgb(0,255,128);fill-opacity:0.5;stroke-width:1;stroke:rgb(0,0,0)"/>
<text transform="translate(1820.65240641711,154) rotate(90)" font-size="3pt">wm8904_i2c_driver_init</text>
<rect x="1824.86631016043" width="10.4278074866311" y="150" height="145" style="fill:rgb(255,0,128);fill-opacity:0.5;stroke-width:1;stroke:rgb(0,0,0)"/>
<text transform="translate(1825.86631016043,154) rotate(90)" font-size="3pt">sama5d3ek_wm8904_driver_init</text>
<rect x="1824.86631016043" width="5.21390374331577" y="165" height="115" style="fill:rgb(128,128,128);fill-opacity:0.5;stroke-width:0;stroke:rgb(0,0,0)"/>
<rect x="1830.08021390374" width="5.21390374331531" y="300" height="145" style="fill:rgb(255,128,255);fill-opacity:0.5;stroke-width:1;stroke:rgb(0,0,0)"/>
<text transform="translate(1831.08021390374,304) rotate(90)" font-size="3pt">26_dapm_post_sequence_async</text>
<rect x="1830.08021390374" width="5.21390374331531" y="165" height="115" style="fill:rgb(128,128,128);fill-opacity:0.5;stroke-width:0;stroke:rgb(0,0,0)"/>
<rect x="1835.29411764706" width="5.21390374331554" y="150" height="145" style="fill:rgb(0,0,255);fill-opacity:0.5;stroke-width:1;stroke:rgb(0,0,0)"/>
<text transform="translate(1836.29411764706,154) rotate(90)" font-size="3pt">inet6_init</text>
<rect x="1840.50802139037" width="5.21390374331554" y="150" height="145" style="fill:rgb(0,255,0);fill-opacity:0.5;stroke-width:1;stroke:rgb(0,0,0)"/>
<text transform="translate(1841.50802139037,154) rotate(90)" font-size="3pt">sit_init</text>
<rect x="1845.72192513369" width="5.21390374331554" y="150" height="145" style="fill:rgb(255,0,20);fill-opacity:0.5;stroke-width:1;stroke:rgb(0,0,0)"/>
<text transform="translate(1846.72192513369,154) rotate(90)" font-size="3pt">can_init</text>
<rect x="1850.93582887701" width="5.21390374331554" y="150" height="145" style="fill:rgb(255,255,20);fill-opacity:0.5;stroke-width:1;stroke:rgb(0,0,0)"/>
<text transform="translate(1851.93582887701,154) rotate(90)" font-size="3pt">lib80211_init</text>
<rect x="1861.36363636364" width="5.21390374331531" y="150" height="145" style="fill:rgb(255,0,255);fill-opacity:0.5;stroke-width:1;stroke:rgb(0,0,0)"/>
<text transform="translate(1862.36363636364,154) rotate(90)" font-size="3pt">rtc_hctosys</text>
<rect x="1866.57754010695" width="57.3529411764705" y="150" height="145" style="fill:rgb(0,255,255);fill-opacity:0.5;stroke-width:1;stroke:rgb(0,0,0)"/>
<text transform="translate(1872.57754010695,154) rotate(90)">atmci_init</text>
<rect x="1923.93048128342" width="10.4278074866311" y="150" height="145" style="fill:rgb(0,128,255);fill-opacity:0.5;stroke-width:1;stroke:rgb(0,0,0)"/>
<text transform="translate(1924.93048128342,154) rotate(90)" font-size="3pt">atmel_aes_init</text>
<rect x="1934.35828877005" width="5.21390374331577" y="150" height="145" style="fill:rgb(0,255,128);fill-opacity:0.5;stroke-width:1;stroke:rgb(0,0,0)"/>
<text transform="translate(1935.35828877005,154) rotate(90)" font-size="3pt">atmel_tdes_init</text>
<rect x="1939.57219251337" width="5.21390374331531" y="150" height="145" style="fill:rgb(255,0,128);fill-opacity:0.5;stroke-width:1;stroke:rgb(0,0,0)"/>
<text transform="translate(1940.57219251337,154) rotate(90)" font-size="3pt">atmel_sha_drv_init</text>
<rect x="1944.78609625668" width="5.21390374331554" y="150" height="145" style="fill:rgb(255,255,128);fill-opacity:0.5;stroke-width:1;stroke:rgb(0,0,0)"/>
<text transform="translate(1945.78609625668,154) rotate(90)" font-size="3pt">alsa_sound_last_init</text>
<text transform="translate(0,89) rotate(90)">0.07</text>
<text transform="translate(130,89) rotate(90)">0.31</text>
<text transform="translate(260,89) rotate(90)">0.56</text>
<text transform="translate(390,89) rotate(90)">0.81</text>
<text transform="translate(520,89) rotate(90)">1.06</text>
<text transform="translate(650,89) rotate(90)">1.31</text>
<text transform="translate(780,89) rotate(90)">1.56</text>
<text transform="translate(910,89) rotate(90)">1.81</text>
<text transform="translate(1040,89) rotate(90)">2.06</text>
<text transform="translate(1170,89) rotate(90)">2.31</text>
<text transform="translate(1300,89) rotate(90)">2.56</text>
<text transform="translate(1430,89) rotate(90)">2.81</text>
<text transform="translate(1560,89) rotate(90)">3.06</text>
<text transform="translate(1690,89) rotate(90)">3.31</text>
<text transform="translate(1820,89) rotate(90)">3.56</text>
</svg>
