<?xml version="1.0" encoding="UTF-8" standalone="no"?>
<!-- Created with Inkscape (http://www.inkscape.org/) -->

<svg
   xmlns:dc="http://purl.org/dc/elements/1.1/"
   xmlns:cc="http://creativecommons.org/ns#"
   xmlns:rdf="http://www.w3.org/1999/02/22-rdf-syntax-ns#"
   xmlns:svg="http://www.w3.org/2000/svg"
   xmlns="http://www.w3.org/2000/svg"
   xmlns:xlink="http://www.w3.org/1999/xlink"
   xmlns:sodipodi="http://sodipodi.sourceforge.net/DTD/sodipodi-0.dtd"
   xmlns:inkscape="http://www.inkscape.org/namespaces/inkscape"
   sodipodi:docname="Linux_kernel_System_Call_Interface_and_uClibc.svg"
   inkscape:version="0.92.3 (2405546, 2018-03-11)"
   version="1.1"
   id="svg2"
   height="1198.3501"
   width="1553.9146">
  <title
     id="title4177">Linux kernel System Call Interface (SCI) and µClibc (uClibc)</title>
  <sodipodi:namedview
     id="base"
     pagecolor="#ffffff"
     bordercolor="#666666"
     borderopacity="1.0"
     inkscape:pageopacity="0.0"
     inkscape:pageshadow="2"
     inkscape:zoom="0.35"
     inkscape:cx="983.6268"
     inkscape:cy="490.38153"
     inkscape:document-units="px"
     inkscape:current-layer="layer3"
     showgrid="false"
     inkscape:window-width="1853"
     inkscape:window-height="1052"
     inkscape:window-x="67"
     inkscape:window-y="0"
     inkscape:window-maximized="1"
     inkscape:snap-bbox="true"
     inkscape:bbox-paths="true"
     inkscape:bbox-nodes="true"
     inkscape:snap-bbox-edge-midpoints="true"
     inkscape:snap-bbox-midpoints="true"
     inkscape:object-paths="true"
     inkscape:snap-intersection-paths="true"
     inkscape:object-nodes="true"
     inkscape:snap-smooth-nodes="true"
     inkscape:snap-midpoints="true"
     inkscape:snap-object-midpoints="true"
     inkscape:snap-center="true"
     fit-margin-top="0"
     fit-margin-left="0"
     fit-margin-right="0"
     fit-margin-bottom="0"
     inkscape:snap-global="true"
     showguides="true"
     inkscape:guide-bbox="true"
     inkscape:snap-grids="false"
     inkscape:snap-to-guides="true"
     inkscape:snap-page="false"
     inkscape:snap-nodes="true" />
  <defs
     id="defs4">
    <inkscape:path-effect
       effect="skeletal"
       id="path-effect4557"
       is_visible="true"
       pattern="m 56.3846,1.5 h 2851.2865 c 30.406,0 54.8844,10.74041 54.8844,24.08163 v 128.83674 c 0,13.34123 -24.4784,24.08163 -54.8844,24.08163 H 56.3846 C 25.9783,178.5 1.5,167.7596 1.5,154.41837 V 25.58163 C 1.5,12.24041 25.9783,1.5 56.3846,1.5 Z"
       copytype="single"
       prop_scale="1"
       scale_y_rel="false"
       spacing="0"
       normal_offset="0"
       tang_offset="0"
       prop_units="false"
       vertical_pattern="false"
       fuse_tolerance="0" />
    <inkscape:path-effect
       effect="skeletal"
       id="path-effect4320"
       is_visible="true"
       pattern="M 30,1.4999999 1.4999999,25.28125 H 16.5 V 41.5 h 27 V 25.28125 h 15 z"
       copytype="repeated_stretched"
       prop_scale="1"
       scale_y_rel="false"
       spacing="200"
       normal_offset="0"
       tang_offset="0"
       prop_units="false"
       vertical_pattern="false"
       fuse_tolerance="0" />
    <inkscape:path-effect
       effect="skeletal"
       id="path-effect3314"
       is_visible="true"
       pattern="m -3422.5999,-756.63473 h 335 c 11.08,0 20,8.92 20,20 v 60 c 0,11.08 -8.92,20 -20,20 h -335 c -11.08,0 -20,-8.92 -20,-20 v -60 c 0,-11.08 8.92,-20 20,-20 z"
       copytype="single"
       prop_scale="1"
       scale_y_rel="false"
       spacing="0"
       normal_offset="0"
       tang_offset="0"
       prop_units="false"
       vertical_pattern="false"
       fuse_tolerance="0" />
    <inkscape:path-effect
       effect="skeletal"
       id="path-effect7133"
       is_visible="true"
       pattern="M 30,1.4999999 1.4999999,25.28125 H 16.5 V 41.5 h 27 V 25.28125 h 15 z M 16.5,78.75893 V 94.97768 H 1.4999999 L 30,118.75893 58.5,94.97768 h -15 V 78.75893 Z"
       copytype="repeated_stretched"
       prop_scale="1"
       scale_y_rel="false"
       spacing="190"
       normal_offset="0"
       tang_offset="0"
       prop_units="false"
       vertical_pattern="false"
       fuse_tolerance="0" />
    <inkscape:path-effect
       effect="skeletal"
       id="path-effect7085"
       is_visible="true"
       pattern="M 30,1.4999999 1.4999999,25.28125 H 16.5 V 41.5 h 27 V 25.28125 h 15 z M 16.5,80.90179 V 97.12054 H 1.4999999 L 30,120.90179 58.5,97.12054 h -15 V 80.90179 Z"
       copytype="repeated_stretched"
       prop_scale="1"
       scale_y_rel="false"
       spacing="190"
       normal_offset="0"
       tang_offset="0"
       prop_units="false"
       vertical_pattern="false"
       fuse_tolerance="0" />
    <inkscape:path-effect
       effect="skeletal"
       id="path-effect7058"
       is_visible="true"
       pattern="M 30,1.4999999 1.4999999,25.28125 H 16.5 V 41.5 h 27 V 25.28125 h 15 z M 16.5,83.9375 v 16.21875 H 1.4999999 L 30,123.9375 58.5,100.15625 h -15 V 83.9375 Z"
       copytype="repeated_stretched"
       prop_scale="1"
       scale_y_rel="false"
       spacing="200"
       normal_offset="0"
       tang_offset="0"
       prop_units="false"
       vertical_pattern="false"
       fuse_tolerance="0" />
    <inkscape:path-effect
       effect="skeletal"
       id="path-effect6985"
       is_visible="true"
       pattern="m -530,661.49999 -28.5,23.78125 h 15 v 16.21875 h 27 v -16.21875 h 15 z m 0,43 -28.5,23.78125 h 15 v 16.21875 h 27 v -16.21875 h 15 z"
       copytype="repeated_stretched"
       prop_scale="1"
       scale_y_rel="false"
       spacing="0"
       normal_offset="0"
       tang_offset="0"
       prop_units="false"
       vertical_pattern="true"
       fuse_tolerance="0" />
    <inkscape:path-effect
       effect="skeletal"
       id="path-effect6961"
       is_visible="true"
       pattern="m 47.142857,58.642857 -28.5,23.78125 h 15 v 16.21875 h 27 v -16.21875 h 15 z"
       copytype="repeated"
       prop_scale="1"
       scale_y_rel="false"
       spacing="100"
       normal_offset="0"
       tang_offset="0"
       prop_units="false"
       vertical_pattern="false"
       fuse_tolerance="0" />
    <inkscape:path-effect
       vertical="false"
       scale_y_rel="false"
       prop_scale="1"
       bendpath="m 2332.125,319.32812 h 57"
       is_visible="true"
       id="path-effect3108"
       effect="bend_path" />
    <inkscape:path-effect
       bendpath-nodetypes="cc"
       vertical="false"
       scale_y_rel="false"
       prop_scale="1"
       bendpath="m -1083.699,599.74741 c 150.86877,-199.1116 439.63445,-169.16702 592.95436,0"
       is_visible="true"
       id="path-effect3377"
       effect="bend_path" />
    <inkscape:path-effect
       fuse_tolerance="0"
       vertical_pattern="false"
       prop_units="false"
       tang_offset="0"
       normal_offset="0"
       spacing="0"
       scale_y_rel="false"
       prop_scale="1"
       copytype="single_stretched"
       pattern="m -27.142857,-107.14286 h 1"
       is_visible="true"
       id="path-effect3375"
       effect="skeletal" />
    <inkscape:path-effect
       is_visible="true"
       id="path-effect3371"
       effect="spiro" />
    <inkscape:path-effect
       bendpath-nodetypes="cc"
       vertical="false"
       scale_y_rel="false"
       prop_scale="1"
       bendpath="m -1092.2704,495.46172 c 491.25465,39.05553 514.72045,61.878 638.66842,177.14286"
       is_visible="true"
       id="path-effect3369"
       effect="bend_path" />
    <inkscape:path-effect
       effect="bend_path"
       id="path-effect2986"
       is_visible="true"
       bendpath="m 1.5,20.78125 c 18.232425,-7.080985 37.031926,-8.067287 57,0"
       prop_scale="1"
       scale_y_rel="false"
       vertical="false"
       bendpath-nodetypes="cc" />
    <filter
       inkscape:collect="always"
       id="filter4509"
       style="color-interpolation-filters:sRGB">
      <feGaussianBlur
         inkscape:collect="always"
         stdDeviation="2.425"
         id="feGaussianBlur4511" />
    </filter>
    <filter
       inkscape:collect="always"
       id="filter4228">
      <feGaussianBlur
         inkscape:collect="always"
         stdDeviation="5.289375"
         id="feGaussianBlur4230" />
    </filter>
    <filter
       inkscape:collect="always"
       id="filter4428">
      <feGaussianBlur
         inkscape:collect="always"
         stdDeviation="4.9029247"
         id="feGaussianBlur4430" />
    </filter>
  </defs>
  <metadata
     id="metadata7">
    <rdf:RDF>
      <cc:Work
         rdf:about="">
        <dc:format>image/svg+xml</dc:format>
        <dc:type
           rdf:resource="http://purl.org/dc/dcmitype/StillImage" />
        <dc:title>Linux kernel System Call Interface (SCI) and µClibc (uClibc)</dc:title>
        <cc:license
           rdf:resource="http://creativecommons.org/licenses/by-sa/4.0/" />
        <dc:date>2014-02-27</dc:date>
        <dc:creator>
          <cc:Agent>
            <dc:title>Shmuel Csaba Otto Traian Xerxes</dc:title>
          </cc:Agent>
        </dc:creator>
        <dc:rights>
          <cc:Agent>
            <dc:title>Shmuel Csaba Otto Traian Xerxes</dc:title>
          </cc:Agent>
        </dc:rights>
        <dc:language>en-US</dc:language>
        <dc:subject>
          <rdf:Bag>
            <rdf:li>Linux kernel</rdf:li>
            <rdf:li>µClibc</rdf:li>
            <rdf:li>uClibc</rdf:li>
            <rdf:li>System Call Interface</rdf:li>
            <rdf:li>POSIX</rdf:li>
            <rdf:li>source code portability</rdf:li>
            <rdf:li>Linux system calls</rdf:li>
          </rdf:Bag>
        </dc:subject>
        <dc:description>Illustrates the coaction of Linux kernel, µClibc and POSIX-compatible as well as Linux-only applications</dc:description>
        <dc:contributor>
          <cc:Agent>
            <dc:title>Ivan T. Bowman et al.&quot;Conceptual Architecture of the Linux Kernel&quot;, &quot;Concrete Architecture of the Linux Kernel&quot;, &quot;Linux as a Case Study: Its Extracted Software Architecture&quot;</dc:title>
          </cc:Agent>
        </dc:contributor>
        <dc:identifier />
        <dc:source>https://commons.wikimedia.org/wiki/File:Linux_kernel_System_Call_Interface_and_uClibc.svg</dc:source>
      </cc:Work>
      <cc:License
         rdf:about="http://creativecommons.org/licenses/by-sa/4.0/">
        <cc:permits
           rdf:resource="http://creativecommons.org/ns#Reproduction" />
        <cc:permits
           rdf:resource="http://creativecommons.org/ns#Distribution" />
        <cc:requires
           rdf:resource="http://creativecommons.org/ns#Notice" />
        <cc:requires
           rdf:resource="http://creativecommons.org/ns#Attribution" />
        <cc:permits
           rdf:resource="http://creativecommons.org/ns#DerivativeWorks" />
        <cc:requires
           rdf:resource="http://creativecommons.org/ns#ShareAlike" />
      </cc:License>
    </rdf:RDF>
  </metadata>
  <g
     inkscape:groupmode="layer"
     id="layer6"
     inkscape:label="domains"
     style="display:inline"
     transform="translate(69.521503,62.345484)">
    <rect
       style="fill:#b3defd;fill-opacity:1;stroke:#333333;stroke-width:3;stroke-miterlimit:4;stroke-dasharray:none;stroke-opacity:1"
       id="rect4087"
       width="1440"
       height="1080"
       x="1.5"
       y="-1.5" />
    <circle
       transform="matrix(1.0007313,0,0,1.0007313,156.80309,-77.521877)"
       id="path4305"
       style="display:inline;fill:#8ed78e;fill-opacity:1;stroke:none"
       cx="380.71429"
       cy="602.14288"
       r="520.71429" />
    <circle
       transform="matrix(0.59533607,0,0,0.59533607,311.14285,166.58398)"
       id="path4299"
       style="display:inline;fill:#d78e8e;fill-opacity:1;stroke:none"
       cx="380.71429"
       cy="602.14288"
       r="520.71429" />
  </g>
  <g
     inkscape:groupmode="layer"
     id="layer5"
     inkscape:label="Kernel internal"
     style="display:inline"
     transform="translate(121.41349,10.44387)">
    <use
       x="0"
       y="0"
       xlink:href="#rect4481"
       id="use3957"
       transform="translate(-151.04386,107.02466)"
       width="1440"
       height="1080" />
    <use
       height="1080"
       width="1440"
       transform="translate(-103.43635,288.45691)"
       id="use3959"
       xlink:href="#rect4481"
       y="0"
       x="0" />
    <use
       x="0"
       y="0"
       xlink:href="#rect4481"
       id="use3961"
       transform="translate(0.83142834,156.72494)"
       width="1440"
       height="1080" />
    <use
       height="1080"
       width="1440"
       transform="translate(105.61928,291.08917)"
       id="use3963"
       xlink:href="#rect4481"
       y="0"
       x="0" />
    <use
       x="0"
       y="0"
       xlink:href="#rect4481"
       id="use3965"
       transform="translate(156.84523,109.29052)"
       width="1440"
       height="1080" />
    <use
       height="938.38098"
       width="832.69513"
       transform="translate(156.0138,-47.434417)"
       id="use4996"
       xlink:href="#rect4146"
       y="0"
       x="0" />
    <rect
       ry="20"
       rx="19.999996"
       y="528.46283"
       x="437.40378"
       height="97"
       width="97"
       id="rect4146"
       style="fill:#c1504f;stroke:#000000;stroke-width:3.00000024;stroke-miterlimit:4;stroke-dasharray:none;stroke-opacity:1" />
    <text
       id="text4154"
       y="559.02283"
       x="485.80051"
       style="font-style:normal;font-variant:normal;font-weight:bold;font-stretch:normal;line-height:0%;font-family:'Nimbus Sans L';-inkscape-font-specification:'Nimbus Sans L Bold';text-align:center;letter-spacing:0px;word-spacing:0px;text-anchor:middle;fill:#000000;fill-opacity:1;stroke:none"
       xml:space="preserve"><tspan
         y="559.02283"
         x="485.80051"
         id="tspan4156"
         sodipodi:role="line"
         style="font-size:20px;line-height:1.25">Linux</tspan><tspan
         y="584.02283"
         x="485.80051"
         sodipodi:role="line"
         id="tspan4880"
         style="font-size:20px;line-height:1.25">process</tspan><tspan
         id="tspan4158"
         y="609.02283"
         x="485.80051"
         sodipodi:role="line"
         style="font-size:20px;line-height:1.25">schedul<tspan
   id="tspan4686"
   style="font-style:normal;font-variant:normal;font-weight:bold;font-stretch:normal;font-size:20px;font-family:'Nimbus Sans L';-inkscape-font-specification:'Nimbus Sans L Bold';fill:#000000">e</tspan>r</tspan></text>
    <rect
       style="fill:#2e3436;stroke:#2e3436;stroke-width:3.00000024;stroke-miterlimit:4;stroke-dasharray:none;stroke-opacity:1;filter:url(#filter4509)"
       id="rect4481"
       width="97"
       height="97"
       x="430.75235"
       y="377.55789"
       rx="19.999996"
       ry="20" />
    <use
       height="938.38098"
       width="832.69513"
       transform="translate(-0.83143941,-156.72493)"
       id="use4992"
       xlink:href="#rect4146"
       y="0"
       x="0" />
    <text
       xml:space="preserve"
       style="font-style:normal;font-variant:normal;font-weight:bold;font-stretch:normal;line-height:0%;font-family:'Nimbus Sans L';-inkscape-font-specification:'Nimbus Sans L Bold';text-align:center;letter-spacing:0px;word-spacing:0px;text-anchor:middle;fill:#888888;fill-opacity:1;stroke:none"
       x="484.65906"
       y="400.3479"
       id="text4160"><tspan
         sodipodi:role="line"
         id="tspan4162"
         x="484.65906"
         y="400.3479"
         style="font-size:20px;line-height:1.25">Linux</tspan><tspan
         sodipodi:role="line"
         x="484.65906"
         y="425.3479"
         id="tspan4878"
         style="font-size:20px;line-height:1.25">memory</tspan><tspan
         sodipodi:role="line"
         x="484.65906"
         y="450.3479"
         id="tspan4164"
         style="font-size:20px;line-height:1.25">manager</tspan></text>
    <use
       height="938.38098"
       width="832.69513"
       transform="translate(-104.26778,131.73197)"
       id="use4994"
       xlink:href="#rect4146"
       y="0"
       x="0" />
    <text
       id="text4166"
       y="522.25842"
       x="641.50427"
       style="font-style:normal;font-variant:normal;font-weight:bold;font-stretch:normal;line-height:0%;font-family:'Nimbus Sans L';-inkscape-font-specification:'Nimbus Sans L Bold';text-align:center;letter-spacing:0px;word-spacing:0px;text-anchor:middle;fill:#000000;fill-opacity:1;stroke:none"
       xml:space="preserve"><tspan
         id="tspan4170"
         y="522.25842"
         x="641.50427"
         sodipodi:role="line"
         style="font-size:20px;line-height:1.25">IPC</tspan><tspan
         id="tspan4191"
         y="547.25842"
         x="641.50427"
         sodipodi:role="line"
         style="font-size:20px;line-height:1.25">manager</tspan></text>
    <text
       xml:space="preserve"
       style="font-style:normal;font-variant:normal;font-weight:bold;font-stretch:normal;line-height:0%;font-family:'Nimbus Sans L';-inkscape-font-specification:'Nimbus Sans L Bold';text-align:center;letter-spacing:0px;word-spacing:0px;text-anchor:middle;fill:#000000;fill-opacity:1;stroke:none"
       x="381.28241"
       y="703.37482"
       id="text4172"><tspan
         sodipodi:role="line"
         x="381.28241"
         y="703.37482"
         id="tspan4176"
         style="font-size:20px;line-height:1.25">I/O</tspan><tspan
         id="tspan4195"
         sodipodi:role="line"
         x="381.28241"
         y="728.37482"
         style="font-size:20px;line-height:1.25">interface</tspan></text>
    <use
       height="938.38098"
       width="832.69513"
       transform="translate(104.78785,134.36423)"
       id="use4998"
       xlink:href="#rect4146"
       y="0"
       x="0" />
    <text
       xml:space="preserve"
       style="font-style:normal;font-variant:normal;font-weight:bold;font-stretch:normal;line-height:0%;font-family:'Nimbus Sans L';-inkscape-font-specification:'Nimbus Sans L Bold';text-align:center;letter-spacing:0px;word-spacing:0px;text-anchor:middle;fill:#000000;fill-opacity:1;stroke:none"
       x="590.33801"
       y="705.88708"
       id="text4199"><tspan
         sodipodi:role="line"
         x="590.33801"
         y="705.88708"
         id="tspan4203"
         style="font-size:20px;line-height:1.25">Network</tspan><tspan
         sodipodi:role="line"
         x="590.33801"
         y="730.88708"
         id="tspan3317"
         style="font-size:20px;line-height:1.25">interface</tspan></text>
    <use
       x="0"
       y="0"
       xlink:href="#rect4146"
       id="use3299"
       transform="translate(-151.87529,-49.70028)"
       width="832.69513"
       height="938.38098" />
    <text
       xml:space="preserve"
       style="font-style:normal;font-variant:normal;font-weight:bold;font-stretch:normal;line-height:0%;font-family:'Nimbus Sans L';-inkscape-font-specification:'Nimbus Sans L Bold';text-align:center;letter-spacing:0px;word-spacing:0px;writing-mode:lr-tb;text-anchor:middle;fill:#000000;fill-opacity:1;stroke:none"
       x="334.38519"
       y="507.36255"
       id="text4699"><tspan
         sodipodi:role="line"
         id="tspan4701"
         x="334.38519"
         y="507.36255"
         style="font-size:20px;line-height:1.25">Virtual</tspan><tspan
         sodipodi:role="line"
         x="334.38519"
         y="532.36255"
         id="tspan4703"
         style="font-size:20px;line-height:1.25">file</tspan><tspan
         sodipodi:role="line"
         x="334.38519"
         y="557.36255"
         id="tspan4705"
         style="font-size:20px;line-height:1.25">system</tspan></text>
    <path
       style="display:inline;fill:#980101;fill-opacity:1;fill-rule:nonzero;stroke:#cccccf;stroke-width:2.99999976;stroke-linecap:square;stroke-miterlimit:4;stroke-dasharray:none;stroke-opacity:1"
       d="m 393.75713,535.21949 -11.34375,13.5 11.34375,13.5 v -7.125 h 30.23445 v 7.125 l 11.34375,-13.5 -11.34375,-13.5 v 7.09375 h -30.23445 z"
       id="path3124"
       inkscape:connector-curvature="0"
       sodipodi:nodetypes="ccccccccccc" />
    <path
       style="display:inline;fill:#980101;fill-opacity:1;fill-rule:nonzero;stroke:#cccccf;stroke-width:2.99999976;stroke-linecap:square;stroke-miterlimit:4;stroke-dasharray:none;stroke-opacity:1"
       d="m 485.07234,472.00123 -13.5,11.34375 h 7.09375 v 29.4762 h -7.09375 l 13.5,11.34375 13.5,-11.34375 h -7.125 v -29.4762 h 7.125 z"
       id="path3136"
       inkscape:connector-curvature="0"
       sodipodi:nodetypes="ccccccccccc" />
    <path
       sodipodi:nodetypes="ccccccccccc"
       inkscape:connector-curvature="0"
       id="path3927"
       d="m 548.81555,532.69411 -11.34375,13.5 11.34375,13.5 v -7.125 H 579.05 v 7.125 l 11.34375,-13.5 -11.34375,-13.5 v 7.09375 h -30.23445 z"
       style="display:inline;fill:#980101;fill-opacity:1;fill-rule:nonzero;stroke:#cccccf;stroke-width:2.99999976;stroke-linecap:square;stroke-miterlimit:4;stroke-dasharray:none;stroke-opacity:1" />
    <path
       style="display:inline;fill:#980101;fill-opacity:1;fill-rule:nonzero;stroke:#cccccf;stroke-width:2.99999976;stroke-linecap:square;stroke-miterlimit:4;stroke-dasharray:none;stroke-opacity:1"
       d="m 548.64708,620.40794 -17.56718,1.5247 -1.5247,17.56718 5.03814,-5.03814 21.37898,21.37899 -5.03813,5.03813 17.56718,-1.5247 1.5247,-17.56718 -5.01604,5.01604 -21.37898,-21.37899 z"
       id="path3933"
       inkscape:connector-curvature="0"
       sodipodi:nodetypes="ccccccccccc"
       inkscape:transform-center-x="11.616754"
       inkscape:transform-center-y="5.555839" />
    <path
       style="display:inline;fill:#980101;fill-opacity:1;fill-rule:nonzero;stroke:#cccccf;stroke-width:2.99999976;stroke-linecap:square;stroke-miterlimit:4;stroke-dasharray:none;stroke-opacity:1"
       d="m 445.77999,704.42004 -11.34375,13.5 11.34375,13.5 v -7.125 h 81.24715 v 7.125 l 11.34375,-13.5 -11.34375,-13.5 v 7.09375 h -81.24715 z"
       id="path3939"
       inkscape:connector-curvature="0"
       sodipodi:nodetypes="ccccccccccc" />
    <path
       style="display:inline;fill:#980101;fill-opacity:1;fill-rule:nonzero;stroke:#cccccf;stroke-width:2.99999976;stroke-linecap:square;stroke-miterlimit:4;stroke-dasharray:none;stroke-opacity:1"
       d="m 352.87474,587.15052 -16.82106,-5.28985 -8.1088,15.65817 6.57872,-2.73608 20.92023,50.30117 -6.57871,2.73608 16.82107,5.28985 8.1088,-15.65817 -6.54987,2.72409 -20.92024,-50.30118 z"
       id="path3941"
       inkscape:connector-curvature="0"
       sodipodi:nodetypes="ccccccccccc"
       inkscape:transform-center-x="-8.6656504"
       inkscape:transform-center-y="-3.9652077" />
    <path
       inkscape:transform-center-y="-8.1188727"
       inkscape:transform-center-x="-4.9900154"
       sodipodi:nodetypes="ccccccccccc"
       inkscape:connector-curvature="0"
       id="path3943"
       d="m 558.74764,428.92947 -16.91759,4.97249 1.98346,17.52133 3.94096,-5.93587 45.38593,30.13271 -3.94095,5.93586 16.9176,-4.9725 -1.98346,-17.52132 -3.92367,5.90985 -45.38595,-30.13272 z"
       style="display:inline;fill:#980101;fill-opacity:1;fill-rule:nonzero;stroke:#cccccf;stroke-width:2.99999976;stroke-linecap:square;stroke-miterlimit:4;stroke-dasharray:none;stroke-opacity:1" />
    <path
       style="display:inline;fill:#980101;fill-opacity:1;fill-rule:nonzero;stroke:#cccccf;stroke-width:2.99999976;stroke-linecap:square;stroke-miterlimit:4;stroke-dasharray:none;stroke-opacity:1"
       d="m 409.67801,417.94977 17.09869,4.30873 -1.29842,17.58536 -4.16953,-5.7776 -44.17588,31.88032 4.16952,5.77761 -17.09871,-4.30874 1.29843,-17.58536 4.15123,5.75227 44.1759,-31.88033 z"
       id="path3945"
       inkscape:connector-curvature="0"
       sodipodi:nodetypes="ccccccccccc"
       inkscape:transform-center-x="5.3029446"
       inkscape:transform-center-y="-7.9180227" />
  </g>
  <g
     transform="translate(198.46335,235.31587)"
     id="layer1"
     inkscape:groupmode="layer"
     inkscape:label="APIs"
     style="display:inline">
    <path
       sodipodi:nodetypes="sssccccsssccccs"
       inkscape:connector-curvature="0"
       id="path4422"
       d="m 474.12224,-52.200387 c -275.75577,0 -499.281248,223.556727 -499.281248,499.312497 0,275.75577 223.525478,499.3125 499.281248,499.3125 208.11558,0 386.47894,-127.33581 461.46875,-308.34375 4.9667,-11.99076 -0.728,-25.75202 -12.71875,-30.71875 l -91.5,-37.90625 c -11.99077,-4.96674 -25.75202,0.72799 -30.71875,12.71875 -53.14008,127.6929 -179.09445,217.46875 -326.03125,217.46875 -194.95652,0 -353,-158.04348 -353,-353 0,-194.95652 158.04348,-352.999997 353,-352.999997 147.11558,0 273.19153,89.996927 326.21875,217.937497 4.96673,11.99075 18.72798,17.68549 30.71875,12.71875 l 91.1875,-37.75 c 11.99075,-4.96673 17.68555,-18.72802 12.71875,-30.71875 C 860.40057,74.988533 682.11828,-52.200387 474.12224,-52.200387 Z"
       style="display:inline;fill:#333333;fill-opacity:1;stroke:#333333;stroke-width:3.00000024;stroke-miterlimit:4;stroke-dasharray:none;stroke-opacity:1;filter:url(#filter4428)"
       transform="translate(-77.049859,-83.252984)" />
    <path
       style="display:inline;fill:#00a400;fill-opacity:1;stroke:#000000;stroke-width:3.00000024;stroke-miterlimit:4;stroke-dasharray:none;stroke-opacity:1"
       d="M 537.78125,25.75 C 262.02548,25.75 38.5,249.30673 38.5,525.0625 c 0,275.75577 223.52548,499.3125 499.28125,499.3125 208.11558,0 386.47894,-127.33581 461.46875,-308.34375 4.9667,-11.99076 -0.728,-25.75202 -12.71875,-30.71875 l -91.5,-37.90625 c -11.99077,-4.96674 -25.75202,0.72799 -30.71875,12.71875 -53.14008,127.6929 -179.09445,217.46875 -326.03125,217.46875 -194.95652,0 -353,-158.04348 -353,-353 0,-194.95652 158.04348,-353 353,-353 147.11558,0 273.19153,89.99693 326.21875,217.9375 4.96673,11.99075 18.72798,17.68549 30.71875,12.71875 l 91.1875,-37.75 C 998.397,359.53327 1004.0918,345.77198 999.125,333.78125 924.05958,152.93892 745.77729,25.75 537.78125,25.75 Z"
       id="path4284"
       inkscape:connector-curvature="0"
       sodipodi:nodetypes="sssccccsssccccs"
       transform="translate(-128.94185,-172.97039)" />
    <path
       style="display:inline;fill:#980101;stroke:#ffffff;stroke-width:3;stroke-miterlimit:4;stroke-dasharray:none;stroke-opacity:1"
       d="m 409.13378,24.712587 c -13.22883,8.00817 -25.43652,16.81082 -36.59228,26.23333 6.38042,-0.77567 12.7948,-1.34318 19.21811,-1.71255 l 0.39762,6.86439 C 300.05368,61.365447 213.35788,109.58565 161.14845,189.16634 l -5.71202,-3.73161 c 3.52624,-5.37043 7.22063,-10.6182 11.08148,-15.75711 -13.73801,4.95537 -27.45282,11.12403 -40.97519,18.51585 0.34382,15.40615 1.84136,30.35127 4.40482,44.73355 2.52647,-5.91396 5.2433,-11.71901 8.13737,-17.45662 l 6.12176,3.09113 c -2.8033,5.56914 -5.45359,11.25374 -7.93687,17.06649 -35.66524,83.48235 -30.04837,174.23288 7.69606,249.49002 l -6.14319,3.08457 c -2.88304,-5.74288 -5.57597,-11.57285 -8.09138,-17.4915 -2.59063,14.37732 -4.12513,29.33056 -4.49932,44.73554 13.50731,7.41753 27.20372,13.59154 40.93138,18.57414 -3.85049,-5.14667 -7.52405,-10.38331 -11.03953,-15.76066 l 5.72385,-3.77339 c 30.92017,47.31766 75.68671,86.33272 131.56398,110.20448 32.40719,13.84495 65.89041,21.45939 99.15509,23.39858 l -0.40265,6.82848 c -6.42823,-0.37999 -12.81878,-0.95821 -19.20148,-1.74669 12.29331,10.15011 25.13838,19.00462 36.57844,26.2975 13.22872,-8.00817 25.44861,-16.83983 36.60447,-26.26218 -6.38052,0.77568 -12.7948,1.34331 -19.21801,1.71258 l -0.3934,-6.79468 c 92.10164,-5.26671 178.8245,-53.53986 231.03328,-133.12615 l 5.6709,3.74812 c -3.52604,5.37053 -7.22053,10.6184 -11.08148,15.75731 13.73792,-4.95557 27.48174,-11.11213 41.0039,-18.50375 -0.34382,-15.40625 -1.85777,-30.39228 -4.42112,-44.77466 -2.52648,5.91406 -5.22689,11.76002 -8.12106,17.49773 l -6.15038,-3.10333 c 2.80837,-5.5781 5.49034,-11.26058 7.97789,-17.08301 35.66513,-83.48224 30.02819,-174.20752 -7.70836,-249.4614 l 6.14329,-3.08437 c 2.88294,5.74288 5.57596,11.57295 8.09118,17.4913 2.59063,-14.37722 4.12532,-29.33026 4.49951,-44.73544 -13.5074,-7.41743 -27.22033,-13.63246 -40.94799,-18.61505 3.85039,5.14656 7.54056,10.42432 11.05604,15.80157 l -5.71154,3.74467 C 625.95298,142.36433 581.20888,103.35743 525.3329,79.486267 492.91614,65.637297 459.38457,58.029217 426.10808,56.091747 l 0.40265,-6.82825 c 6.42813,0.37979 12.8474,0.97031 19.2302,1.75876 -12.4799,-9.87295 -24.92427,-19.37207 -36.60715,-26.30967 z m 93.12626,108.701343 c 44.80524,19.14165 80.68575,50.42614 105.4868,88.35944 l -4.09616,2.66762 c -2.70384,-4.13731 -5.55406,-8.17672 -8.51176,-12.13198 -0.7923,12.31101 -2.61151,24.20171 -5.34707,35.50406 11.14583,3.31479 22.33314,7.70329 33.37095,13.20329 -1.93051,-4.54316 -4.00642,-9.01553 -6.22362,-13.43138 l 4.37568,-2.20838 c 30.27838,60.36563 34.80184,133.14657 6.19112,200.11623 -1.99455,4.66911 -4.14992,9.23941 -6.40182,13.71253 l -4.36027,-2.20252 c 2.22557,-4.4116 4.31107,-8.89828 6.25032,-13.43747 -11.04837,5.47869 -22.23451,9.8677 -33.38605,13.16063 2.71453,11.30755 4.5116,23.21276 5.28074,35.52478 2.96469,-3.94928 5.80108,-7.99906 8.51273,-12.13099 l 4.11057,2.7076 C 565.62027,546.64438 496.06316,585.32847 422.18838,589.53716 l -0.29273,-4.88264 c 4.92418,-0.28274 9.83092,-0.7205 14.73357,-1.3176 -10.2821,-6.8138 -19.64175,-14.31224 -28.01037,-22.33103 -9.19248,8.37752 -19.22162,16.41341 -28.03719,22.27616 4.89692,0.60629 9.82355,1.08119 14.74077,1.37022 l -0.28163,4.87496 c -26.70972,-1.54953 -53.59251,-7.67157 -79.61372,-18.78836 -44.79896,-19.13891 -80.6985,-50.40473 -105.4991,-88.33063 l 4.10836,-2.69644 c 2.70384,4.13741 5.54176,8.20554 8.49956,12.1606 0.7923,-12.31091 2.61151,-24.20161 5.34707,-35.50396 -11.14583,-3.31469 -22.33324,-7.70329 -33.37115,-13.20319 1.93062,4.54306 4.00642,9.01543 6.22382,13.43118 l -4.37568,2.20858 c -30.28336,-60.36787 -34.79127,-133.1715 -6.17892,-200.14514 1.99465,-4.66891 4.13772,-9.2105 6.38963,-13.68362 l 4.36026,2.20252 c -2.22567,4.4115 -4.29897,8.86947 -6.23802,13.40856 11.04837,-5.47839 22.25082,-9.82659 33.40237,-13.11942 -2.71453,-11.30755 -4.51151,-23.21287 -5.28064,-35.52478 -2.9646,3.94918 -5.80118,7.99885 -8.51284,12.13099 l -4.13918,-2.7199 C 252.05801,157.51405 321.62023,118.8577 395.51506,114.65665 l 0.26411,4.87034 c -4.92437,0.28274 -9.83102,0.7204 -14.73357,1.3176 10.28211,6.8139 19.68277,14.29582 28.05129,22.31471 9.21039,-8.34271 19.19391,-16.42473 28.00847,-22.28855 -4.89682,-0.6062 -9.80694,-1.04008 -14.72435,-1.32911 l 0.29393,-4.90378 c 26.68717,1.55627 53.58613,7.66882 79.5851,18.77607 z"
       id="path7142"
       inkscape:connector-curvature="0"
       sodipodi:nodetypes="cccccccccccscccccccsccccccccccccccscccccccsccccsccccccccccccccccccccccscccccccsccccccccccccccs" />
    <g
       style="font-style:normal;font-variant:normal;font-weight:bold;font-stretch:normal;font-size:48px;line-height:125%;font-family:Sans;-inkscape-font-specification:'Sans Bold';text-align:center;letter-spacing:0px;word-spacing:0px;text-anchor:middle;fill:#ffffff;fill-opacity:1;stroke:none"
       id="text3027">
      <path
         d="m 165.66107,199.23564 6.42002,3.69267 c -1.70315,1.23752 -3.2001,2.53954 -4.49083,3.90606 -1.29071,1.36659 -2.34118,2.75417 -3.1514,4.16275 -1.07507,1.86915 -1.61235,3.39869 -1.61185,4.58863 5.3e-4,1.18999 0.54256,2.09659 1.62609,2.7198 0.81268,0.46745 1.62065,0.53562 2.42393,0.20453 0.79754,-0.35239 1.81458,-1.22746 3.05112,-2.6252 l 2.5869,-2.94628 c 2.61704,-2.98299 5.02532,-4.78827 7.22484,-5.41583 2.19952,-0.6275 4.57245,-0.20896 7.11879,1.25561 3.34544,1.92427 5.265,4.35322 5.75869,7.28686 0.4879,2.91235 -0.44061,6.40694 -2.78552,10.48377 -1.10625,1.92331 -2.39924,3.74821 -3.87896,5.4747 -1.47974,1.72651 -3.13555,3.35173 -4.96743,4.87567 l -6.60287,-3.79784 c 2.14341,-1.34476 3.99729,-2.76593 5.56165,-4.26351 1.5586,-1.5189 2.82091,-3.1181 3.78693,-4.79761 0.98159,-1.70657 1.44894,-3.1772 1.40204,-4.41189 -0.0469,-1.23465 -0.59859,-2.15581 -1.65504,-2.76349 -0.94811,-0.54531 -1.85868,-0.65447 -2.73173,-0.32749 -0.86525,0.31348 -2.0308,1.27437 -3.49663,2.88266 l -2.41161,2.64154 c -2.39518,2.66001 -4.70896,4.28531 -6.94133,4.87591 -2.22456,0.57708 -4.54229,0.17227 -6.95321,-1.21444 -3.02036,-1.73726 -4.78231,-4.04851 -5.28583,-6.93377 -0.50347,-2.88522 0.29649,-6.15632 2.39989,-9.81333 0.95825,-1.66592 2.07241,-3.30527 3.34249,-4.91805 1.25658,-1.6205 2.67686,-3.22798 4.26086,-4.82243"
         style="font-style:normal;font-variant:normal;font-weight:bold;font-stretch:normal;font-size:48px;font-family:Sans;-inkscape-font-specification:'Sans Bold';fill:#ffffff"
         id="path3152"
         inkscape:connector-curvature="0" />
      <path
         d="m 177.5578,194.70006 5.09209,-6.66883 18.43861,5.20301 -10.51599,-15.5788 5.09209,-6.66882 16.13854,26.21208 c 1.64902,2.65496 2.48261,4.92317 2.50077,6.80464 0.04,1.87854 -0.67484,3.78026 -2.14461,5.70514 l -2.94431,3.856 -4.37758,-3.34258 1.59306,-2.08633 c 0.86289,-1.1301 1.30867,-2.08722 1.33732,-2.87139 0.0381,-0.79656 -0.29948,-1.69326 -1.01277,-2.69008 l -0.43523,-0.62722 -28.76199,-7.24682"
         style="font-style:normal;font-variant:normal;font-weight:bold;font-stretch:normal;font-size:48px;font-family:Sans;-inkscape-font-specification:'Sans Bold';fill:#ffffff"
         id="path3154"
         inkscape:connector-curvature="0" />
      <path
         d="m 215.97638,150.91684 4.577,4.43753 c -1.78925,0.76806 -3.40037,1.62172 -4.83337,2.561 -1.43299,0.93934 -2.66611,1.94186 -3.69937,3.00756 -1.10937,1.14427 -1.79014,2.13824 -2.04229,2.98191 -0.25247,0.82162 -0.0814,1.52064 0.51312,2.09706 0.48239,0.4677 1.0538,0.61908 1.71423,0.45415 0.67132,-0.17612 1.59618,-0.74845 2.77458,-1.71699 l 1.17925,-0.91328 c 3.38362,-2.7043 6.04077,-4.15426 7.97148,-4.34991 1.93069,-0.19559 3.85519,0.63652 5.7735,2.49634 2.00803,1.94688 2.79904,4.15014 2.37301,6.60978 -0.42605,2.45968 -2.06386,5.15908 -4.91344,8.09822 -1.20728,1.24523 -2.55901,2.43742 -4.05521,3.5766 -1.47412,1.13885 -3.08726,2.21907 -4.83943,3.24066 l -4.577,-4.43753 c 1.74711,-0.63476 3.37557,-1.43897 4.88539,-2.41263 1.52069,-0.98485 2.91186,-2.12794 4.17351,-3.42926 1.14201,-1.17789 1.83857,-2.22182 2.0897,-3.13181 0.25111,-0.90996 0.057,-1.67492 -0.58248,-2.29489 -0.53848,-0.52204 -1.13793,-0.70062 -1.79837,-0.53572 -0.66078,0.14284 -1.65685,0.75495 -2.9882,1.83631 l -1.16243,0.9296 c -2.93597,2.35486 -5.38036,3.63027 -7.33316,3.82622 -1.95278,0.19597 -3.85468,-0.60334 -5.70568,-2.39795 -1.99682,-1.93596 -2.81415,-4.05594 -2.45202,-6.35993 0.36216,-2.30395 1.91365,-4.86942 4.65446,-7.69642 1.07676,-1.11057 2.29203,-2.19568 3.64582,-3.25535 1.35379,-1.0596 2.90626,-2.13335 4.6574,-3.22127"
         style="font-style:normal;font-variant:normal;font-weight:bold;font-stretch:normal;font-size:48px;font-family:Sans;-inkscape-font-specification:'Sans Bold';fill:#ffffff"
         id="path3156"
         inkscape:connector-curvature="0" />
      <path
         d="m 225.56289,131.51325 4.79923,5.70232 6.61685,-5.56891 3.86353,4.59055 -6.61685,5.56891 7.16865,8.51763 c 0.78478,0.93247 1.50332,1.41011 2.15563,1.43292 0.64224,0.0109 1.51327,-0.44649 2.6131,-1.37214 l 3.29946,-2.77691 3.86353,4.59055 -5.50508,4.63321 c -2.53437,2.133 -4.77622,3.12122 -6.72557,2.96466 -1.94745,-0.17855 -3.98767,-1.53502 -6.12066,-4.06939 l -7.16866,-8.51762 -3.19187,2.68636 -3.86352,-4.59055 3.19186,-2.68636 -4.79922,-5.70233 6.41959,-5.4029"
         style="font-style:normal;font-variant:normal;font-weight:bold;font-stretch:normal;font-size:48px;font-family:Sans;-inkscape-font-specification:'Sans Bold';fill:#ffffff"
         id="path3158"
         inkscape:connector-curvature="0" />
      <path
         d="m 272.37646,122.9863 1.33093,1.98588 -16.29587,10.92147 c 1.26479,1.52235 2.67741,2.35312 4.23785,2.49231 1.56043,0.13921 3.24922,-0.40011 5.06637,-1.61797 1.46668,-0.98296 2.82229,-2.20184 4.06683,-3.65666 1.24879,-1.47645 2.38866,-3.19968 3.4196,-5.16967 l 3.60135,5.37355 c -1.23089,1.72779 -2.56613,3.29982 -4.00575,4.71607 -1.43095,1.42927 -2.97062,2.69627 -4.61901,3.80102 -3.94581,2.64447 -7.68529,3.70233 -11.21846,3.17359 -3.5289,-0.55042 -6.50685,-2.63628 -8.93385,-6.25759 -2.38349,-3.55639 -3.18728,-7.07115 -2.41139,-10.54429 0.78889,-3.48178 3.06537,-6.48403 6.82945,-9.00674 3.42661,-2.29647 6.85686,-3.10006 10.29077,-2.41077 3.44686,0.68066 6.32726,2.74726 8.64118,6.1998 m -8.71749,2.48494 c -0.88729,-1.32389 -1.98999,-2.12725 -3.30809,-2.41008 -1.31383,-0.30445 -2.59376,-0.0391 -3.8398,0.79592 -1.34988,0.90471 -2.19004,2.02267 -2.52047,3.35387 -0.33914,1.31826 -0.13411,2.76085 0.6151,4.32777 l 9.05326,-6.06748"
         style="font-style:normal;font-variant:normal;font-weight:bold;font-stretch:normal;font-size:48px;font-family:Sans;-inkscape-font-specification:'Sans Bold';fill:#ffffff"
         id="path3160"
         inkscape:connector-curvature="0" />
      <path
         d="m 298.10259,100.32235 c 0.29384,-1.91913 0.92729,-3.563671 1.90034,-4.93363 0.98076,-1.390581 2.26754,-2.448371 3.86033,-3.173376 2.74466,-1.24923 5.22031,-1.354586 7.42696,-0.31607 2.20658,1.038597 4.04456,3.171978 5.51394,6.40015 l 6.62179,14.548276 -7.67944,3.49537 -5.67027,-12.45776 c -0.07,-0.19132 -0.15023,-0.38654 -0.24082,-0.58567 -0.0764,-0.20554 -0.19878,-0.4932 -0.36704,-0.86298 -0.77031,-1.69229 -1.57585,-2.802035 -2.41662,-3.329239 -0.84731,-0.541358 -1.82557,-0.559611 -2.9348,-0.05476 -1.45058,0.660269 -2.30219,1.768919 -2.55484,3.325949 -0.23846,1.55062 0.1427,3.46297 1.14347,5.73706 l 5.34014,11.73247 -7.67944,3.49537 -5.67026,-12.45775 c -1.20397,-2.64512 -2.20502,-4.24098 -3.00315,-4.7876 -0.80463,-0.56078 -1.79,-0.5758 -2.95613,-0.045 -1.46479,0.66674 -2.32028,1.78573 -2.56646,3.35699 -0.25267,1.55708 0.12912,3.45198 1.14538,5.68468 l 5.34985,11.75381 -7.67944,3.49537 -10.87448,-23.89159 7.67944,-3.49537 1.59234,3.49841 c 0.32367,-1.77819 0.93455,-3.28371 1.83266,-4.51655 0.91231,-1.23926 2.10086,-2.19226 3.56565,-2.859001 1.64965,-0.750824 3.28856,-1.016103 4.91674,-0.795839 1.62816,0.220331 3.09621,0.899772 4.40416,2.03833"
         style="font-style:normal;font-variant:normal;font-weight:bold;font-stretch:normal;font-size:48px;font-family:Sans;-inkscape-font-specification:'Sans Bold';fill:#ffffff"
         id="path3162"
         inkscape:connector-curvature="0" />
      <path
         d="m 374.4417,98.961241 c -1.46286,1.158379 -3.0348,2.123009 -4.71581,2.893889 -1.68106,0.7709 -3.48036,1.34187 -5.39789,1.7129 -5.722,1.1072 -10.56381,0.38894 -14.52544,-2.15478 -3.9646,-2.559052 -6.47675,-6.576848 -7.53645,-12.053403 -1.06266,-5.49186 -0.23059,-10.156753 2.49621,-13.994694 2.72383,-3.853218 6.94674,-6.333438 12.66874,-7.440667 1.91754,-0.371003 3.79995,-0.512438 5.64723,-0.424304 1.84725,0.08821 3.66555,0.39684 5.45492,0.925882 l 1.37583,7.110301 c -1.85814,-0.802208 -3.63536,-1.309762 -5.33167,-1.522663 -1.69635,-0.212835 -3.42659,-0.148589 -5.19073,0.192737 -3.16014,0.61151 -5.44939,2.10485 -6.86773,4.480024 -1.41836,2.37523 -1.78321,5.342322 -1.09454,8.901285 0.68567,3.543661 2.12951,6.152819 4.33152,7.827481 2.20198,1.674686 4.88304,2.206285 8.04319,1.594797 1.76413,-0.341349 3.39345,-0.927169 4.88796,-1.757463 1.49445,-0.830271 2.95406,-1.964144 4.37883,-3.401623 l 1.37583,7.110301"
         style="font-style:normal;font-variant:normal;font-weight:bold;font-stretch:normal;font-size:48px;font-family:Sans;-inkscape-font-specification:'Sans Bold';fill:#ffffff"
         id="path3164"
         inkscape:connector-curvature="0" />
      <path
         d="m 393.00118,87.656449 c -1.74714,0.100236 -3.04828,0.472238 -3.90343,1.116008 -0.83957,0.642898 -1.22624,1.541517 -1.16001,2.695859 0.0608,1.060764 0.4597,1.875195 1.19658,2.443294 0.75156,0.551618 1.75912,0.791183 3.02268,0.718694 1.57552,-0.09037 2.86925,-0.728012 3.88119,-1.912917 1.01102,-1.200489 1.46776,-2.650901 1.37024,-4.351241 l -0.055,-0.95936 -4.35222,0.249663 m 12.61806,-3.893095 0.85772,14.951982 -8.44705,0.484562 -0.22282,-3.88424 c -1.0319,1.655567 -2.22878,2.890201 -3.59065,3.703905 -1.36279,0.798107 -3.05034,1.254877 -5.06264,1.370317 -2.7143,0.1557 -4.96679,-0.505444 -6.7575,-1.983441 -1.776,-1.494487 -2.73649,-3.505278 -2.88145,-6.032378 -0.17629,-3.073062 0.74736,-5.387569 2.77095,-6.943528 2.03918,-1.556824 5.32068,-2.464997 9.8445,-2.724521 l 4.93719,-0.28322 -0.0376,-0.655173 c -0.0761,-1.325925 -0.65414,-2.263107 -1.73418,-2.811548 -1.08096,-0.563997 -2.72899,-0.782472 -4.94409,-0.655425 -1.79393,0.10293 -3.45277,0.378071 -4.97652,0.825425 -1.52376,0.447396 -2.92802,1.0679 -4.2128,1.861512 l -0.36644,-6.387936 c 1.76886,-0.539663 3.55179,-0.970605 5.3488,-1.292825 1.79609,-0.337766 3.5989,-0.558563 5.40844,-0.662394 4.72658,-0.271111 8.18873,0.469324 10.38645,2.221309 2.21237,1.735542 3.43893,4.701412 3.67967,8.897617"
         style="font-style:normal;font-variant:normal;font-weight:bold;font-stretch:normal;font-size:48px;font-family:Sans;-inkscape-font-specification:'Sans Bold';fill:#ffffff"
         id="path3166"
         inkscape:connector-curvature="0" />
      <path
         d="m 415.7333,62.592246 8.38452,0.32007 -1.39114,36.442207 -8.38452,-0.32007 1.39114,-36.442207"
         style="font-style:normal;font-variant:normal;font-weight:bold;font-stretch:normal;font-size:48px;font-family:Sans;-inkscape-font-specification:'Sans Bold';fill:#ffffff"
         id="path3168"
         inkscape:connector-curvature="0" />
      <path
         d="m 434.54945,63.644225 8.34658,0.858618 -3.73187,36.277307 -8.34658,-0.858619 3.73187,-36.277306"
         style="font-style:normal;font-variant:normal;font-weight:bold;font-stretch:normal;font-size:48px;font-family:Sans;-inkscape-font-specification:'Sans Bold';fill:#ffffff"
         id="path3170"
         inkscape:connector-curvature="0" />
      <path
         d="m 472.17202,70.976172 8.77236,2.1138 -8.19715,34.018518 -8.77236,-2.1138 8.19715,-34.018518"
         style="font-style:normal;font-variant:normal;font-weight:bold;font-stretch:normal;font-size:48px;font-family:Sans;-inkscape-font-specification:'Sans Bold';fill:#ffffff"
         id="path3172"
         inkscape:connector-curvature="0" />
      <path
         d="m 511.25384,102.83999 -5.3333,15.06839 -7.95399,-2.81524 0.86803,-2.45248 3.21406,-9.08079 c 0.75592,-2.13579 1.2257,-3.626996 1.40936,-4.473625 0.19833,-0.841399 0.24745,-1.495295 0.14735,-1.961689 -0.12688,-0.625006 -0.40591,-1.171286 -0.8371,-1.638843 -0.42602,-0.482261 -0.9778,-0.843306 -1.65534,-1.083135 -1.64973,-0.583887 -3.17272,-0.401928 -4.56896,0.545876 -1.39106,0.933101 -2.48541,2.526458 -3.28304,4.780076 l -4.30887,12.17402 -7.9098,-2.7996 8.7585,-24.745727 7.9098,2.799593 -1.28249,3.623482 c 1.70398,-1.021198 3.34609,-1.633377 4.92633,-1.836538 1.58539,-0.217853 3.18823,-0.04005 4.80851,0.533402 2.85752,1.011415 4.71257,2.654194 5.56517,4.92834 0.86726,2.279387 0.70919,5.090881 -0.47422,8.434488"
         style="font-style:normal;font-variant:normal;font-weight:bold;font-stretch:normal;font-size:48px;font-family:Sans;-inkscape-font-specification:'Sans Bold';fill:#ffffff"
         id="path3174"
         inkscape:connector-curvature="0" />
      <path
         d="m 536.04237,94.97928 -3.26826,6.69833 7.77259,3.7924 -2.63104,5.39237 -7.77259,-3.79241 -4.88183,10.00537 c -0.53444,1.09532 -0.67992,1.94578 -0.43643,2.55138 0.25031,0.59155 1.02143,1.2025 2.31337,1.83286 l 3.87576,1.89106 -2.63105,5.39237 -6.46662,-3.1552 c -2.97705,-1.45257 -4.78898,-3.10162 -5.43582,-4.94716 -0.62596,-1.85274 -0.21266,-4.26763 1.23991,-7.24467 l 4.88182,-10.00536 -3.74938,-1.8294 2.63105,-5.392366 3.74938,1.8294 3.26825,-6.698328 7.54089,3.679354"
         style="font-style:normal;font-variant:normal;font-weight:bold;font-stretch:normal;font-size:48px;font-family:Sans;-inkscape-font-specification:'Sans Bold';fill:#ffffff"
         id="path3176"
         inkscape:connector-curvature="0" />
      <path
         d="m 562.80464,134.34796 -1.27774,2.02051 -16.58008,-10.48499 c -0.88059,1.77252 -1.06891,3.40046 -0.56496,4.88383 0.50392,1.48337 1.6803,2.80965 3.52915,3.97883 1.49226,0.94368 3.15534,1.69035 4.98925,2.24001 1.85543,0.54478 3.89247,0.89013 6.11112,1.03604 l -3.45741,5.46727 c -2.07804,-0.42674 -4.05584,-1.01193 -5.93341,-1.75558 -1.88595,-0.73047 -3.6675,-1.62601 -5.34464,-2.6866 -4.01462,-2.53879 -6.49478,-5.53072 -7.44049,-8.97579 -0.92416,-3.44993 -0.22124,-7.01712 2.10876,-10.70159 2.28823,-3.61842 5.17741,-5.77532 8.66756,-6.47072 3.50331,-0.68701 7.16984,0.1804 10.99959,2.60225 3.48634,2.20474 5.60887,5.01672 6.3676,8.43596 0.77186,3.4276 0.0471,6.89778 -2.1743,10.41057 m -5.79899,-6.96715 c 0.8518,-1.34701 1.14042,-2.68043 0.86587,-4.00028 -0.25305,-1.32469 -1.01345,-2.3879 -2.28119,-3.18963 -1.37345,-0.86852 -2.73571,-1.18462 -4.0868,-0.94831 -1.34278,0.22312 -2.57912,0.9942 -3.70904,2.31322 l 9.21116,5.825"
         style="font-style:normal;font-variant:normal;font-weight:bold;font-stretch:normal;font-size:48px;font-family:Sans;-inkscape-font-specification:'Sans Bold';fill:#ffffff"
         id="path3178"
         inkscape:connector-curvature="0" />
      <path
         d="m 587.88141,146.7321 c -0.35868,-0.72722 -0.77589,-1.38124 -1.25164,-1.96206 -0.45386,-0.58325 -0.96747,-1.10429 -1.54085,-1.5631 -1.68364,-1.34716 -3.41737,-1.84391 -5.20117,-1.49026 -1.76189,0.35122 -3.44819,1.53334 -5.05891,3.54636 l -7.55582,9.4429 -6.55147,-5.24222 16.40023,-20.49621 6.55147,5.24221 -2.69432,3.36724 c 1.9156,-0.66842 3.66038,-0.87323 5.23432,-0.61443 1.59584,0.25639 3.15629,0.99471 4.68133,2.21495 0.21957,0.17573 0.44771,0.37829 0.68443,0.60768 0.2464,0.21721 0.58922,0.55156 1.02845,1.00303 l -4.72605,5.94391"
         style="font-style:normal;font-variant:normal;font-weight:bold;font-stretch:normal;font-size:48px;font-family:Sans;-inkscape-font-specification:'Sans Bold';fill:#ffffff"
         id="path3180"
         inkscape:connector-curvature="0" />
      <path
         d="m 616.66011,150.16754 -3.80467,3.98252 -3.35549,-3.20564 c -0.85867,-0.82028 -1.60857,-1.23416 -2.24969,-1.24163 -0.63039,-0.0187 -1.31255,0.356 -2.04647,1.12425 l -1.26283,1.32186 5.18576,4.95417 -4.14467,4.3384 -5.18575,-4.95416 -13.98823,14.64212 -6.06699,-5.79605 13.98823,-14.64212 -3.01655,-2.88184 4.14467,-4.33841 3.01654,2.88184 1.26283,-1.32186 c 1.97517,-2.0675 4.00847,-3.04226 6.09991,-2.92427 2.10217,0.10672 4.36216,1.31497 6.77995,3.62474 l 4.64345,4.43608"
         style="font-style:normal;font-variant:normal;font-weight:bold;font-stretch:normal;font-size:48px;font-family:Sans;-inkscape-font-specification:'Sans Bold';fill:#ffffff"
         id="path3182"
         inkscape:connector-curvature="0" />
      <path
         d="m 610.64345,180.47781 c -1.13205,-1.33455 -2.21252,-2.14938 -3.24142,-2.44448 -1.01882,-0.28319 -1.9691,-0.0508 -2.85084,0.69713 -0.81027,0.6873 -1.22034,1.49615 -1.2302,2.42654 0.0121,0.93219 0.42756,1.88087 1.24627,2.84604 1.02083,1.20347 2.30892,1.85243 3.86427,1.94688 1.56723,0.0843 3.00025,-0.42436 4.29907,-1.52606 l 0.73281,-0.6216 -2.81996,-3.32445 m 10.70602,7.72999 -11.42109,9.68794 -5.47315,-6.45229 2.96698,-2.51674 c -1.94314,0.17302 -3.64955,-0.0392 -5.11923,-0.63649 -1.4578,-0.60747 -2.83861,-1.67976 -4.14246,-3.21686 -1.75869,-2.07332 -2.58715,-4.26979 -2.48538,-6.58943 0.12379,-2.31784 1.15085,-4.29546 3.08118,-5.93286 2.34736,-1.99115 4.75141,-2.64736 7.21215,-1.96865 2.47083,0.69065 5.17181,2.76372 8.10298,6.21924 l 3.19899,3.77129 0.50045,-0.42452 c 1.0128,-0.85913 1.41297,-1.88496 1.20051,-3.07749 -0.2006,-1.20264 -1.01851,-2.64996 -2.45373,-4.34198 -1.16238,-1.37029 -2.3809,-2.52902 -3.65556,-3.4762 -1.27472,-0.94716 -2.61568,-1.69469 -4.02291,-2.24258 l 4.87943,-4.13898 c 1.49597,1.0873 2.9136,2.25129 4.2529,3.49198 1.35116,1.23061 2.61299,2.53701 3.78547,3.91921 3.06251,3.61043 4.55604,6.82042 4.48059,9.63 -0.0535,2.81138 -1.68286,5.57651 -4.88812,8.29541"
         style="font-style:normal;font-variant:normal;font-weight:bold;font-stretch:normal;font-size:48px;font-family:Sans;-inkscape-font-specification:'Sans Bold';fill:#ffffff"
         id="path3184"
         inkscape:connector-curvature="0" />
      <path
         d="m 647.45841,207.95924 -5.71094,3.77122 c 0.0234,-1.38234 -0.12704,-2.65925 -0.45123,-3.83075 -0.31564,-1.15847 -0.81354,-2.25273 -1.49371,-3.28278 -1.29154,-1.9558 -2.87262,-3.10248 -4.74325,-3.44004 -1.84902,-0.33313 -3.79705,0.17619 -5.84411,1.52798 -2.04708,1.35178 -3.287,2.94762 -3.71975,4.78752 -0.41113,1.84432 0.0291,3.74438 1.32059,5.70019 0.72324,1.09524 1.57072,2.02418 2.54246,2.78685 0.98032,0.77567 2.06545,1.3698 3.25541,1.7824 l -5.73049,3.78413 c -1.12746,-0.82835 -2.16352,-1.74513 -3.10816,-2.75032 -0.9491,-0.98358 -1.79818,-2.04255 -2.54725,-3.17689 -2.60886,-3.95073 -3.63896,-7.70818 -3.09028,-11.27235 0.5617,-3.57278 2.64841,-6.55167 6.26013,-8.93667 3.61169,-2.38499 7.16421,-3.12996 10.65754,-2.23492 3.50634,0.88645 6.56394,3.30502 9.17283,7.25574 0.75765,1.1474 1.39812,2.34412 1.92139,3.59017 0.54485,1.25048 0.98113,2.56331 1.30882,3.93852"
         style="font-style:normal;font-variant:normal;font-weight:bold;font-stretch:normal;font-size:48px;font-family:Sans;-inkscape-font-specification:'Sans Bold';fill:#ffffff"
         id="path3186"
         inkscape:connector-curvature="0" />
      <path
         d="m 653.46954,245.81753 -2.13889,1.06782 -8.76245,-17.55145 c -1.67071,1.06111 -2.67423,2.35672 -3.01056,3.88684 -0.33635,1.53009 -0.016,3.27372 0.96114,5.23088 0.78864,1.57969 1.82541,3.07918 3.1103,4.49848 1.30582,1.42626 2.87025,2.77584 4.69329,4.04873 l -5.78757,2.88941 c -1.55741,-1.44044 -2.94704,-2.9646 -4.1689,-4.57249 -1.23587,-1.60096 -2.29698,-3.28913 -3.18333,-5.06453 -2.1217,-4.24982 -2.69586,-8.09341 -1.72248,-11.53077 0.99433,-3.43036 3.44165,-6.11915 7.34198,-8.06636 3.83041,-1.91231 7.41881,-2.26302 10.76521,-1.05212 3.35334,1.22488 6.04201,3.86437 8.06602,7.91847 1.84249,3.69062 2.20373,7.19517 1.08372,10.51367 -1.1131,3.33245 -3.52892,5.92692 -7.24748,7.78342 m -1.35718,-8.96257 c 1.4259,-0.71189 2.36285,-1.70358 2.81086,-2.97506 0.46892,-1.2645 0.36839,-2.56777 -0.30159,-3.90981 -0.72587,-1.45389 -1.72802,-2.42928 -3.00644,-2.92618 -1.2645,-0.50388 -2.72145,-0.4838 -4.37085,0.0602 l 4.86802,9.75081"
         style="font-style:normal;font-variant:normal;font-weight:bold;font-stretch:normal;font-size:48px;font-family:Sans;-inkscape-font-specification:'Sans Bold';fill:#ffffff"
         id="path3188"
         inkscape:connector-curvature="0" />
    </g>
    <g
       style="font-style:normal;font-variant:normal;font-weight:normal;font-stretch:normal;font-size:32px;line-height:125%;font-family:Sans;-inkscape-font-specification:Sans;text-align:start;letter-spacing:0px;word-spacing:0px;writing-mode:lr-tb;text-anchor:start;fill:#000000;fill-opacity:1;stroke:none"
       id="text4727">
      <path
         d="m 207.81807,559.62223 -3.27815,-3.28469 c 0.69531,-2.94559 1.59279,-5.50427 2.69245,-7.67605 1.10702,-2.17915 2.46788,-4.07446 4.08258,-5.68594 1.61468,-1.61147 3.51639,-2.97223 5.70512,-4.08228 2.20343,-1.11001 4.76758,-2.00607 7.69247,-2.68818 l 3.27814,3.28469 c -2.6893,0.80019 -5.10624,1.79951 -7.25083,2.99798 -2.13726,1.19112 -4.0206,2.59977 -5.65002,4.22596 -1.62945,1.6262 -3.04922,3.50672 -4.25932,5.64157 -1.20275,2.14221 -2.2069,4.56452 -3.01244,7.26694"
         style="font-weight:bold;font-size:32px;-inkscape-font-specification:'Sans Bold';fill:#ffffff;fill-opacity:1"
         id="path3109"
         inkscape:connector-curvature="0" />
      <path
         d="m 225.6487,559.60945 c -0.87451,-0.77225 -1.6653,-1.20652 -2.37235,-1.30284 -0.69927,-0.0894 -1.30402,0.15478 -1.81424,0.73257 -0.46888,0.53095 -0.66208,1.10381 -0.57961,1.71861 0.0971,0.61387 0.46195,1.20006 1.09441,1.75856 0.7886,0.69639 1.7005,1.00138 2.73571,0.91496 1.04208,-0.0942 1.93891,-0.56688 2.69048,-1.41795 l 0.42404,-0.4802 -2.17844,-1.92371 m 7.80274,4.07625 -6.60889,7.484 -4.22805,-3.73366 1.71686,-1.9442 c -1.26548,0.29997 -2.41161,0.32317 -3.43839,0.0696 -1.0199,-0.26139 -2.03347,-0.83681 -3.0407,-1.72626 -1.3586,-1.19975 -2.11524,-2.5697 -2.26991,-4.10986 -0.13998,-1.54109 0.34853,-2.94408 1.46553,-4.20898 1.35831,-1.53818 2.88169,-2.20103 4.57012,-1.98854 1.69623,0.21939 3.67651,1.32886 5.94085,3.32842 l 2.47125,2.18227 0.28959,-0.32793 c 0.58606,-0.66369 0.75198,-1.37877 0.49777,-2.14525 -0.24736,-0.77428 -0.9254,-1.65098 -2.03412,-2.63007 -0.89794,-0.79293 -1.81269,-1.4409 -2.74426,-1.94393 -0.93159,-0.50302 -1.88781,-0.86799 -2.86865,-1.0949 l 2.82351,-3.19739 c 1.09097,0.57431 2.1376,1.20672 3.13988,1.89722 1.00914,0.68271 1.96658,1.42398 2.87233,2.22379 2.36581,2.0892 3.65817,4.06425 3.87706,5.92514 0.23355,1.85999 -0.57704,3.84016 -2.43178,5.94053"
         style="font-weight:bold;font-size:32px;-inkscape-font-specification:'Sans Bold';fill:#ffffff;fill-opacity:1"
         id="path3111"
         inkscape:connector-curvature="0" />
      <path
         d="m 240.50151,577.21641 c 0.95711,0.72036 1.94844,0.9189 2.974,0.59564 1.03385,-0.31702 2.05191,-1.14134 3.05417,-2.47299 1.00222,-1.33164 1.51259,-2.53808 1.5311,-3.6193 0.0268,-1.07495 -0.43836,-1.97261 -1.39547,-2.69298 -0.95713,-0.72036 -1.95992,-0.921 -3.00836,-0.60194 -1.03388,0.31701 -2.04881,1.13718 -3.04478,2.4605 -0.99599,1.32332 -1.50635,2.52975 -1.5311,3.6193 -0.0102,1.08748 0.4633,1.9914 1.42044,2.71177 m 3.84089,-11.28729 c 1.22975,-0.35209 2.36323,-0.43768 3.40044,-0.25678 1.04344,0.1726 2.05205,0.62534 3.02584,1.35823 1.7228,1.29666 2.62089,3.04817 2.69428,5.25455 0.0796,2.19805 -0.69177,4.37487 -2.31413,6.53048 -1.62241,2.1556 -3.50385,3.50347 -5.64432,4.04362 -2.13425,0.53181 -4.06277,0.1494 -5.78558,-1.14725 -0.97378,-0.7329 -1.69111,-1.57265 -2.15201,-2.51925 -0.45465,-0.95494 -0.68297,-2.07199 -0.68498,-3.35116 l -1.52216,2.02244 -4.46934,-3.36379 14.62025,-19.42539 4.46934,3.36378 -5.63763,7.49052"
         style="font-weight:bold;font-size:32px;-inkscape-font-specification:'Sans Bold';fill:#ffffff;fill-opacity:1"
         id="path3113"
         inkscape:connector-curvature="0" />
      <path
         d="m 263.85213,580.82333 c -1.04639,-0.66456 -2.08671,-0.79465 -3.12093,-0.39028 -1.01988,0.40117 -1.97938,1.3096 -2.87849,2.72529 -0.89913,1.4157 -1.31624,2.67477 -1.25134,3.77722 0.0793,1.09925 0.6421,1.98116 1.68849,2.64573 1.02878,0.65339 2.05311,0.77951 3.07299,0.37834 1.02544,-0.40996 1.98772,-1.32279 2.88686,-2.73848 0.89911,-1.41569 1.31343,-2.67037 1.24296,-3.76403 -0.0649,-1.10245 -0.61176,-1.98038 -1.64054,-2.63379 m 2.1445,-3.37656 c 2.54119,1.61397 4.08844,3.55916 4.64174,5.83559 0.56206,2.28202 0.0724,4.63648 -1.46891,7.06338 -1.54137,2.4269 -3.46428,3.87106 -5.76874,4.33251 -2.2957,0.46701 -4.71415,-0.10646 -7.25535,-1.7204 -2.55002,-1.61955 -4.11045,-3.57312 -4.68132,-5.86072 -0.56208,-2.28201 -0.0724,-4.63647 1.46891,-7.06338 1.54135,-2.42689 3.46426,-3.87106 5.76875,-4.33251 2.31326,-0.45584 4.74489,0.12601 7.29492,1.74553"
         style="font-weight:bold;font-size:32px;-inkscape-font-specification:'Sans Bold';fill:#ffffff;fill-opacity:1"
         id="path3115"
         inkscape:connector-curvature="0" />
      <path
         d="m 271.05785,593.6312 4.997,-9.44736 4.97229,2.63 -0.81822,1.54693 c -0.44321,0.83794 -1.00548,1.88981 -1.68678,3.15563 -0.67646,1.25662 -1.1267,2.09672 -1.35073,2.52028 -0.65751,1.24308 -1.10014,2.1579 -1.3279,2.74446 -0.2229,0.57737 -0.32183,1.03175 -0.29679,1.36316 0.0321,0.42943 0.16303,0.81685 0.39278,1.16226 0.23894,0.35029 0.5702,0.63745 0.99377,0.86149 1.03128,0.54548 2.05101,0.57813 3.05918,0.0979 1.00815,-0.48018 1.88481,-1.42468 2.62999,-2.8335 l 4.03997,-7.638 4.94468,2.61539 -8.18222,15.46937 -4.94468,-2.61539 1.1835,-2.23754 c -1.22315,0.50788 -2.36813,0.7566 -3.43495,0.74618 -1.05277,-0.0148 -2.08098,-0.28759 -3.08463,-0.81846 -1.78635,-0.94485 -2.85934,-2.21354 -3.21898,-3.80606 -0.35043,-1.58765 0.0271,-3.42658 1.13272,-5.51679"
         style="font-weight:bold;font-size:32px;-inkscape-font-specification:'Sans Bold';fill:#ffffff;fill-opacity:1"
         id="path3117"
         inkscape:connector-curvature="0" />
      <path
         d="m 303.06859,592.09487 -2.02186,4.53878 5.2667,2.34612 -1.62765,3.65387 -5.26671,-2.34612 -3.02007,6.77963 c -0.33063,0.74219 -0.40779,1.3122 -0.23149,1.71003 0.18052,0.38831 0.70848,0.77745 1.5839,1.16741 l 2.62622,1.16988 -1.62766,3.65386 -4.38179,-1.95192 c -2.01724,-0.89861 -3.26279,-1.9552 -3.73663,-3.16979 -0.46011,-1.21986 -0.24086,-2.83841 0.65775,-4.85565 l 3.02007,-6.77963 -2.54058,-1.13173 1.62766,-3.65387 2.54058,1.13174 2.02186,-4.53879 5.1097,2.27618"
         style="font-weight:bold;font-size:32px;-inkscape-font-specification:'Sans Bold';fill:#ffffff;fill-opacity:1"
         id="path3119"
         inkscape:connector-curvature="0" />
      <path
         d="m 328.26993,612.06218 c 1.3709,0.87161 2.28697,1.91329 2.74822,3.12504 0.47432,1.20507 0.47213,2.54581 -0.007,4.02221 -0.7133,2.19975 -2.09854,3.60123 -4.15571,4.20444 -2.054,0.5933 -4.69612,0.36624 -7.92637,-0.68118 -1.13951,-0.3695 -2.25345,-0.83473 -3.34182,-1.3957 -1.08168,-0.54785 -2.12292,-1.18662 -3.12373,-1.91631 l 1.43138,-4.41435 c 0.89664,0.88207 1.82515,1.63212 2.78552,2.25014 0.97348,0.61132 1.97053,1.08245 2.99114,1.41339 1.51603,0.49158 2.7605,0.60492 3.73341,0.34 0.98279,-0.2617 1.63324,-0.88303 1.95134,-1.864 0.3277,-1.01069 0.15893,-1.90861 -0.50631,-2.69376 -0.65216,-0.79184 -1.78579,-1.44961 -3.40091,-1.97333 l -2.28892,-0.7422 1.19522,-3.68606 2.40783,0.78075 c 1.43676,0.46589 2.5792,0.58994 3.42732,0.37216 0.8513,-0.22767 1.42636,-0.80227 1.72519,-1.7238 0.2763,-0.85214 0.14811,-1.62192 -0.38457,-2.30934 -0.53271,-0.68739 -1.42331,-1.23351 -2.6718,-1.63836 -0.92153,-0.29879 -1.88669,-0.49677 -2.89549,-0.59394 -1.00881,-0.0971 -2.04479,-0.0936 -3.10794,0.0106 l 1.35909,-4.19141 c 1.2324,0.0492 2.4292,0.17448 3.5904,0.37577 1.16118,0.20133 2.27685,0.47549 3.34701,0.82247 2.88343,0.93499 4.88437,2.10943 6.00281,3.52332 1.13151,1.40723 1.38884,3.06208 0.77197,4.96455 -0.42092,1.29806 -1.10817,2.2524 -2.06174,2.86304 -0.9504,0.60074 -2.14905,0.85268 -3.59596,0.75582"
         style="font-weight:bold;font-size:32px;-inkscape-font-specification:'Sans Bold';fill:#ffffff;fill-opacity:1"
         id="path3121"
         inkscape:connector-curvature="0" />
      <path
         d="m 344.65452,618.74267 c -1.09399,-0.26233 -2.0064,-0.16513 -2.73721,0.29162 -0.73084,0.45676 -1.22985,1.24225 -1.49704,2.35649 -0.26721,1.11425 -0.17872,2.04063 0.26548,2.77916 0.44662,0.72839 1.21692,1.22376 2.31091,1.48611 1.08385,0.25991 1.98491,0.16534 2.70319,-0.28371 0.72068,-0.45918 1.21463,-1.24589 1.48185,-2.36014 0.26961,-1.12436 0.18618,-2.04953 -0.2503,-2.77551 -0.43408,-0.73609 -1.19304,-1.23409 -2.27688,-1.49402 m -3.80683,-2.95353 c -1.27802,-0.74565 -2.16326,-1.63279 -2.65572,-2.66142 -0.49246,-1.0286 -0.58445,-2.18613 -0.27594,-3.47258 0.45909,-1.91446 1.52301,-3.20185 3.19175,-3.86219 1.66873,-0.66029 3.88577,-0.65888 6.65113,0.004 2.74507,0.6583 4.7115,1.6601 5.8993,3.00541 1.19018,1.33521 1.55452,2.9651 1.09302,4.88969 -0.30852,1.28645 -0.92054,2.27516 -1.83605,2.96612 -0.90543,0.6934 -2.09673,1.08258 -3.57392,1.16752 1.43764,0.79467 2.43107,1.76667 2.9803,2.91601 0.56174,1.14164 0.66773,2.44178 0.31796,3.90043 -0.53928,2.24874 -1.69695,3.77074 -3.47301,4.566 -1.76354,0.78755 -4.11407,0.8291 -7.05161,0.12467 -2.94769,-0.70687 -5.03893,-1.81359 -6.27373,-3.32015 -1.22224,-1.51427 -1.56374,-3.39577 -1.02447,-5.64452 0.34978,-1.45864 1.02883,-2.57053 2.03714,-3.33567 1.02086,-0.77282 2.35214,-1.18734 3.99385,-1.24357 m 2.45693,-4.21514 c -0.2162,0.90154 -0.13442,1.65492 0.24534,2.26015 0.38986,0.60768 1.05076,1.02325 1.98268,1.24672 0.91164,0.21863 1.67394,0.14434 2.2869,-0.22286 0.61292,-0.36718 1.02749,-1.00153 1.24369,-1.90307 0.21617,-0.90151 0.13318,-1.64983 -0.24898,-2.24495 -0.37976,-0.60523 -1.02546,-1.01716 -1.9371,-1.23579 -0.93193,-0.22346 -1.70942,-0.15282 -2.33248,0.21192 -0.61295,0.36721 -1.0263,0.9965 -1.24005,1.88788"
         style="font-weight:bold;font-size:32px;-inkscape-font-specification:'Sans Bold';fill:#ffffff;fill-opacity:1"
         id="path3123"
         inkscape:connector-curvature="0" />
      <path
         d="m 369.40381,622.24901 c 0.45721,-2.88059 0.50628,-4.95058 0.1472,-6.20996 -0.3472,-1.268 -1.15863,-2.00325 -2.43432,-2.20576 -1.2757,-0.20247 -2.28008,0.24457 -3.01311,1.34111 -0.73143,1.08628 -1.32575,3.06972 -1.78297,5.95031 -0.46214,2.91148 -0.51529,5.00718 -0.15945,6.28711 0.35582,1.27995 1.17159,2.02116 2.4473,2.22365 1.26539,0.20085 2.26543,-0.25214 3.00013,-1.35899 0.73467,-1.10684 1.33307,-3.116 1.79522,-6.02747 m 5.9339,0.98933 c -0.60586,3.81681 -1.89673,6.63364 -3.87263,8.45052 -1.9743,1.80658 -4.47376,2.46983 -7.49838,1.98974 -3.03493,-0.48173 -5.21131,-1.88716 -6.52914,-4.21629 -1.3162,-2.33942 -1.67138,-5.41754 -1.06555,-9.23434 0.60746,-3.82708 1.89833,-6.64391 3.87263,-8.45052 1.97591,-1.81685 4.48133,-2.48443 7.51626,-2.00272 3.02462,0.48011 5.19503,1.88987 6.51125,4.22927 1.31781,2.32916 1.673,5.40727 1.06556,9.23434"
         style="font-weight:bold;font-size:32px;-inkscape-font-specification:'Sans Bold';fill:#ffffff;fill-opacity:1"
         id="path3125"
         inkscape:connector-curvature="0" />
      <path
         d="m 403.22922,619.8405 -0.197,4.24543 c -1.17347,-0.55498 -2.3111,-0.98317 -3.41288,-1.28458 -1.10181,-0.30138 -2.14696,-0.47501 -3.13547,-0.5209 -1.06137,-0.0492 -1.85846,0.0493 -2.39128,0.29573 -0.52195,0.23649 -0.79571,0.63047 -0.8213,1.18195 -0.0208,0.44744 0.1558,0.79976 0.52971,1.05694 0.38429,0.25768 1.07845,0.46717 2.08248,0.62845 l 0.9768,0.18611 c 2.84459,0.49698 4.74183,1.18462 5.69174,2.06292 0.94988,0.87832 1.38354,2.20714 1.30099,3.98647 -0.0864,1.86258 -0.83815,3.23024 -2.25511,4.103 -1.417,0.87275 -3.4886,1.24588 -6.21482,1.11937 -1.15502,-0.0536 -2.3473,-0.20277 -3.57685,-0.44753 -1.21964,-0.23387 -2.47135,-0.56307 -3.75513,-0.98762 l 0.197,-4.24543 c 1.08827,0.59275 2.20884,1.05144 3.3617,1.37605 1.16326,0.32511 2.34841,0.51567 3.55545,0.57167 1.09256,0.0507 1.9216,-0.062 2.4871,-0.3382 0.56548,-0.27616 0.86199,-0.7108 0.88952,-1.30392 0.0232,-0.49946 -0.15219,-0.87778 -0.52608,-1.13498 -0.36302,-0.26711 -1.10848,-0.49461 -2.23639,-0.68252 l -0.97752,-0.1705 c -2.47243,-0.42755 -4.18855,-1.08593 -5.14836,-1.97514 -0.95981,-0.88919 -1.39988,-2.19223 -1.32021,-3.90915 0.0859,-1.85216 0.78441,-3.19622 2.09541,-4.0322 1.31098,-0.83595 3.27757,-1.19309 5.89975,-1.07143 1.03013,0.0478 2.10868,0.17608 3.23564,0.38477 1.12694,0.20873 2.34864,0.51048 3.66511,0.90524"
         style="font-weight:bold;font-size:32px;-inkscape-font-specification:'Sans Bold';fill:#ffffff;fill-opacity:1"
         id="path3127"
         inkscape:connector-curvature="0" />
      <path
         d="m 405.13332,619.42808 5.59222,-0.13058 4.97907,11.76197 3.72169,-11.96515 5.59222,-0.13058 -6.91016,19.32283 c -0.69392,1.96465 -1.52654,3.34384 -2.49784,4.13757 -0.96067,0.80389 -2.24808,1.22468 -3.86221,1.26238 l -3.23349,0.0755 -0.0857,-3.67087 1.74952,-0.0408 c 0.94765,-0.0221 1.63144,-0.18919 2.05136,-0.50115 0.43032,-0.31222 0.75612,-0.86164 0.97741,-1.64827 l 0.1449,-0.48789 -8.21897,-17.98491"
         style="font-weight:bold;font-size:32px;-inkscape-font-specification:'Sans Bold';fill:#ffffff;fill-opacity:1"
         id="path3129"
         inkscape:connector-curvature="0" />
      <path
         d="m 440.73901,618.01242 0.39521,4.23158 c -1.23924,-0.38642 -2.42535,-0.65228 -3.55834,-0.79757 -1.13301,-0.14525 -2.19215,-0.17188 -3.17744,-0.0799 -1.0579,0.0988 -1.83355,0.30727 -2.32693,0.62534 -0.484,0.30677 -0.70032,0.73499 -0.64898,1.28467 0.0417,0.44599 0.26548,0.77033 0.67151,0.97302 0.4164,0.20175 1.13294,0.31268 2.14964,0.3328 l 0.99319,0.0485 c 2.88606,0.0966 4.86049,0.5138 5.92329,1.2515 1.06277,0.73771 1.67698,1.99332 1.84263,3.76685 0.17337,1.85651 -0.38087,3.31541 -1.66272,4.3767 -1.28188,1.0613 -3.28148,1.71884 -5.99881,1.97262 -1.15124,0.10752 -2.35269,0.12557 -3.60433,0.0542 -1.24031,-0.062 -2.52564,-0.21399 -3.85598,-0.45591 l -0.3952,-4.23159 c 1.16012,0.43568 2.33358,0.73411 3.52038,0.89527 1.19716,0.16021 2.39729,0.18413 3.6004,0.0718 1.089,-0.1017 1.8943,-0.32861 2.41592,-0.68073 0.52158,-0.35211 0.75478,-0.82375 0.69958,-1.41493 -0.0465,-0.49783 -0.27277,-0.8481 -0.67878,-1.05081 -0.39663,-0.21404 -1.16649,-0.33569 -2.30957,-0.36495 l -0.99173,-0.0329 c -2.50786,-0.0796 -4.29885,-0.49301 -5.37298,-1.24012 -1.07412,-0.74709 -1.6911,-1.9763 -1.85092,-3.68761 -0.17242,-1.84612 0.33238,-3.27425 1.51441,-4.28439 1.18202,-1.01011 3.07984,-1.63722 5.69347,-1.88133 1.02678,-0.0959 2.11268,-0.11883 3.25772,-0.0689 1.14501,0.05 2.3968,0.17896 3.75536,0.38685"
         style="font-weight:bold;font-size:32px;-inkscape-font-specification:'Sans Bold';fill:#ffffff;fill-opacity:1"
         id="path3131"
         inkscape:connector-curvature="0" />
      <path
         d="m 450.26817,611.03595 0.75866,4.91049 5.69803,-0.88034 0.61074,3.9531 -5.69802,0.88034 1.13323,7.33485 c 0.12405,0.80298 0.36791,1.32393 0.73158,1.56287 0.36206,0.22865 1.01665,0.26981 1.96375,0.12348 l 2.84129,-0.43897 0.61075,3.9531 -4.74063,0.73242 c -2.18245,0.33718 -3.80175,0.12359 -4.85792,-0.64078 -1.04748,-0.77624 -1.73981,-2.25559 -2.07699,-4.43803 l -1.13322,-7.33485 -2.74864,0.42466 -0.61075,-3.9531 2.74864,-0.42466 -0.75866,-4.91049 5.52816,-0.85409"
         style="font-weight:bold;font-size:32px;-inkscape-font-specification:'Sans Bold';fill:#ffffff;fill-opacity:1"
         id="path3133"
         inkscape:connector-curvature="0" />
      <path
         d="m 477.93761,619.39553 0.34501,1.55596 -12.768,2.83115 c 0.41633,1.25207 1.09214,2.1105 2.02745,2.57529 0.93529,0.46481 2.11481,0.53935 3.53857,0.22365 1.14916,-0.25481 2.28655,-0.68306 3.41217,-1.28476 1.1335,-0.6141 2.25919,-1.40786 3.37708,-2.38128 l 0.93357,4.21024 c -1.18333,0.77453 -2.39369,1.42702 -3.6311,1.95747 -1.23519,0.54063 -2.49855,0.95414 -3.79008,1.24052 -3.09159,0.68552 -5.67034,0.43576 -7.73628,-0.74927 -2.05803,-1.19745 -3.40161,-3.21485 -4.03075,-6.05219 -0.61787,-2.78647 -0.26483,-5.16407 1.05913,-7.13279 1.33413,-1.97095 3.47579,-3.28341 6.42499,-3.93738 2.68478,-0.59529 5.00985,-0.26261 6.97521,0.99805 1.97551,1.25845 3.26318,3.24023 3.86303,5.94534 m -6.01617,-0.57052 c -0.23002,-1.03729 -0.72002,-1.80355 -1.47,-2.29879 -0.74208,-0.50762 -1.60126,-0.65321 -2.57754,-0.43674 -1.05765,0.23453 -1.85047,0.72508 -2.37844,1.47165 -0.53024,0.73643 -0.7527,1.68201 -0.66736,2.83674 l 7.09334,-1.57286"
         style="font-weight:bold;font-size:32px;-inkscape-font-specification:'Sans Bold';fill:#ffffff;fill-opacity:1"
         id="path3135"
         inkscape:connector-curvature="0" />
      <path
         d="m 494.88396,608.18576 c 0.33762,-1.24952 0.87977,-2.29183 1.62646,-3.12693 0.75333,-0.8482 1.6846,-1.45313 2.79382,-1.81479 1.91137,-0.62316 3.55931,-0.50855 4.94384,0.34382 1.38448,0.85243 2.44322,2.40269 3.17621,4.65078 l 3.30321,10.13136 -5.34794,1.74363 -2.82855,-8.67554 c -0.0321,-0.13196 -0.0707,-0.26727 -0.11591,-0.40594 -0.0353,-0.14186 -0.0949,-0.34154 -0.17888,-0.59905 -0.38427,-1.17851 -0.83527,-1.97371 -1.35301,-2.38561 -0.52101,-0.42176 -1.16774,-0.50672 -1.9402,-0.25488 -1.01018,0.32937 -1.65695,1.0004 -1.9403,2.01311 -0.27348,1.00951 -0.16342,2.30481 0.33019,3.88593 l 2.66388,8.17045 -5.34794,1.74363 -2.82855,-8.67554 c -0.60059,-1.84205 -1.14491,-2.97386 -1.63294,-3.39544 -0.49129,-0.43145 -1.14298,-0.5148 -1.95506,-0.25005 -1.02008,0.3326 -1.67018,1.0102 -1.95031,2.03281 -0.28338,1.01274 -0.17159,2.29653 0.33536,3.85138 l 2.66871,8.18531 -5.34793,1.74362 -5.42462,-16.63801 5.34794,-1.74363 0.79432,2.43628 c 0.34688,-1.15393 0.86373,-2.10582 1.55055,-2.85567 0.69671,-0.75304 1.5551,-1.29586 2.57518,-1.62846 1.14881,-0.37454 2.25433,-0.4282 3.31658,-0.161 1.06223,0.26725 1.98419,0.82672 2.76589,1.67843"
         style="font-weight:bold;font-size:32px;-inkscape-font-specification:'Sans Bold';fill:#ffffff;fill-opacity:1"
         id="path3137"
         inkscape:connector-curvature="0" />
      <path
         d="m 531.18713,590.426 1.97258,4.11404 c -0.91086,-0.14086 -1.76786,-0.15738 -2.57101,-0.0495 -0.79376,0.10335 -1.56166,0.33291 -2.30368,0.68868 -1.40893,0.67556 -2.30972,1.61576 -2.70239,2.82061 -0.38779,1.19099 -0.22815,2.52381 0.47892,3.99846 0.70706,1.47468 1.64855,2.4384 2.82447,2.89115 1.18081,0.43888 2.47567,0.32054 3.88459,-0.35501 0.78899,-0.37829 1.47942,-0.85374 2.0713,-1.42634 0.60125,-0.57708 1.09211,-1.23987 1.47258,-1.98835 l 1.97934,4.12812 c -0.6494,0.66949 -1.3489,1.27058 -2.0985,1.80328 -0.73574,0.5376 -1.51218,1.00231 -2.32934,1.39412 -2.84602,1.36459 -5.42114,1.70401 -7.72536,1.01824 -2.30873,-0.69515 -4.08685,-2.34363 -5.33435,-4.94544 -1.24749,-2.60179 -1.41719,-5.01568 -0.50909,-7.2417 0.90361,-2.23537 2.77841,-4.03536 5.62443,-5.39998 0.82656,-0.39629 1.67506,-0.71071 2.54551,-0.94326 0.87533,-0.24639 1.78199,-0.41542 2.72,-0.50707"
         style="font-weight:bold;font-size:32px;-inkscape-font-specification:'Sans Bold';fill:#ffffff;fill-opacity:1"
         id="path3139"
         inkscape:connector-curvature="0" />
      <path
         d="m 545.74321,592.74971 c -1.01304,0.57868 -1.67917,1.18713 -1.9984,1.82533 -0.31019,0.63305 -0.27411,1.28424 0.10823,1.95356 0.35133,0.61507 0.83126,0.98272 1.43979,1.10297 0.6124,0.10605 1.28493,-0.0502 2.01758,-0.46869 0.91354,-0.52183 1.49636,-1.28663 1.74847,-2.29438 0.24692,-1.01677 0.0888,-2.01812 -0.47436,-3.00404 l -0.31775,-0.55626 -2.52356,1.44151 m 6.37516,-6.0709 4.9523,8.66963 -4.89786,2.79777 -1.28652,-2.2522 c -0.12424,1.2946 -0.47196,2.38696 -1.04317,3.27707 -0.57639,0.88108 -1.44798,1.65487 -2.61478,2.32137 -1.57383,0.89901 -3.11462,1.17333 -4.62236,0.82295 -1.50386,-0.36458 -2.6743,-1.27951 -3.51131,-2.74481 -1.01784,-1.78185 -1.15389,-3.43761 -0.40816,-4.96726 0.75479,-1.5348 2.4437,-3.05138 5.06675,-4.54974 l 2.86274,-1.63527 -0.217,-0.37989 c -0.43918,-0.76881 -1.06252,-1.15651 -1.87003,-1.16312 -0.81269,-0.0156 -1.86122,0.34341 -3.14561,1.07707 -1.04018,0.59419 -1.94857,1.25105 -2.72519,1.97057 -0.77662,0.71955 -1.43051,1.50694 -1.96167,2.36217 l -2.11577,-3.70393 c 0.89551,-0.84741 1.83171,-1.63411 2.80859,-2.3601 0.97172,-0.73499 1.98219,-1.40217 3.03141,-2.00153 2.74063,-1.56549 5.02696,-2.15172 6.859,-1.75868 1.83591,0.37887 3.44879,1.78484 4.83864,4.21793"
         style="font-weight:bold;font-size:32px;-inkscape-font-specification:'Sans Bold';fill:#ffffff;fill-opacity:1"
         id="path3141"
         inkscape:connector-curvature="0" />
      <path
         d="m 548.20383,572.10536 4.68926,-3.04974 13.25528,20.38125 -4.68925,3.04974 -13.25529,-20.38125"
         style="font-weight:bold;font-size:32px;-inkscape-font-specification:'Sans Bold';fill:#ffffff;fill-opacity:1"
         id="path3143"
         inkscape:connector-curvature="0" />
      <path
         d="m 556.58819,566.54984 4.5676,-3.22909 14.03483,19.85248 -4.5676,3.2291 -14.03483,-19.85249"
         style="font-weight:bold;font-size:32px;-inkscape-font-specification:'Sans Bold';fill:#ffffff;fill-opacity:1"
         id="path3145"
         inkscape:connector-curvature="0" />
      <path
         d="m 579.81701,558.24365 2.63275,3.33634 c -1.25013,0.34958 -2.39011,0.77146 -3.41995,1.26564 -1.02984,0.49421 -1.93318,1.04782 -2.71002,1.66081 -0.83408,0.65821 -1.37167,1.25492 -1.61277,1.79016 -0.23936,0.52063 -0.18805,0.99764 0.15395,1.43102 0.27747,0.35164 0.64169,0.50212 1.09267,0.45143 0.45915,-0.0571 1.12082,-0.35367 1.98499,-0.88965 l 0.85987,-0.4994 c 2.4746,-1.4883 4.35844,-2.21187 5.65151,-2.17072 1.29306,0.0412 2.49131,0.76092 3.59475,2.15922 1.15504,1.46375 1.48324,2.98949 0.9846,4.5772 -0.49866,1.58774 -1.81921,3.22692 -3.96165,4.91754 -0.90769,0.71627 -1.90616,1.38475 -2.9954,2.00544 -1.07462,0.62242 -2.23594,1.19382 -3.48394,1.71421 l -2.63275,-3.33633 c 1.21052,-0.26523 2.35759,-0.6529 3.44122,-1.16301 1.09181,-0.51655 2.11199,-1.14909 3.06056,-1.89762 0.85862,-0.67754 1.41106,-1.30588 1.65733,-1.88503 0.24626,-0.57913 0.18548,-1.10175 -0.18232,-1.56787 -0.30974,-0.3925 -0.69009,-0.56341 -1.14106,-0.51275 -0.44926,0.0361 -1.16149,0.35261 -2.1367,0.94964 l -0.85018,0.51167 c -2.14796,1.29691 -3.87579,1.92391 -5.18349,1.88101 -1.30769,-0.0429 -2.4939,-0.73895 -3.55862,-2.08822 -1.14859,-1.45555 -1.50154,-2.92857 -1.05886,-4.41907 0.44269,-1.49048 1.69438,-3.04877 3.75505,-4.6749 0.80956,-0.63881 1.70839,-1.24857 2.69651,-1.82928 0.98812,-0.58068 2.10876,-1.15317 3.36195,-1.71748"
         style="font-weight:bold;font-size:32px;-inkscape-font-specification:'Sans Bold';fill:#ffffff;fill-opacity:1"
         id="path3147"
         inkscape:connector-curvature="0" />
      <path
         d="m 597.12034,571.2743 c -0.6506,-2.73875 -1.51226,-5.21322 -2.58499,-7.42342 -1.07274,-2.21018 -2.37384,-4.17555 -3.9033,-5.89612 -1.52947,-1.72054 -3.32537,-3.23909 -5.38771,-4.55567 -2.06924,-1.32433 -4.42223,-2.46614 -7.05896,-3.42543 l 3.46836,-3.08316 c 2.87894,0.85548 5.38115,1.90646 7.50662,3.15293 2.12635,1.2318 3.94733,2.70018 5.46296,4.40515 1.51563,1.705 2.76093,3.67815 3.73592,5.91948 0.96805,2.23356 1.71121,4.84125 2.22947,7.82308 l -3.46837,3.08316"
         style="font-weight:bold;font-size:32px;-inkscape-font-specification:'Sans Bold';fill:#ffffff;fill-opacity:1"
         id="path3149"
         inkscape:connector-curvature="0" />
    </g>
    <g
       style="font-style:normal;font-variant:normal;font-weight:bold;font-stretch:normal;font-size:72px;line-height:125%;font-family:Sans;-inkscape-font-specification:'Sans Bold';text-align:center;letter-spacing:0px;word-spacing:0px;text-anchor:middle;display:inline;fill:#000000;fill-opacity:1;stroke:none"
       id="text4180">
      <path
         d="m 293.91049,-20.644056 -13.25544,-52.782891 12.30919,-3.091225 5.57448,22.197456 c 0.66218,2.63689 1.72427,4.46046 3.18626,5.470716 1.45625,0.987555 3.34369,1.190185 5.66234,0.60789 2.34134,-0.587974 3.92047,-1.661169 4.73739,-3.21959 0.81116,-1.581116 0.88566,-3.690118 0.22348,-6.32701 l -5.57448,-22.197457 12.2751,-3.082661 6.41364,25.539008 c 0.40528,1.61397 0.86971,2.693516 1.3933,3.238643 0.54623,0.53946 1.26264,0.697861 2.14922,0.475204 0.40912,-0.102735 0.78129,-0.256611 1.1165,-0.461627 0.35785,-0.210685 0.71849,-0.506659 1.08194,-0.887924 l 2.14073,8.524369 c -1.07352,0.825398 -2.11306,1.497267 -3.1186,2.015609 -0.98291,0.512656 -1.9858,0.897422 -3.00868,1.154301 -2.02316,0.508077 -3.78818,0.504272 -5.29506,-0.01142 -1.48994,-0.544109 -2.8696,-1.65963 -4.13899,-3.346566 -0.61744,2.064117 -1.58484,3.744895 -2.90222,5.042339 -1.30041,1.269019 -2.96216,2.157559 -4.98525,2.665621 -1.68216,0.422444 -3.18276,0.509308 -4.50179,0.260593 -1.31337,-0.225974 -2.44802,-0.798893 -3.40396,-1.718759 l 4.23009,16.844152 -12.30919,3.091225"
         id="path3108"
         inkscape:connector-curvature="0" />
      <path
         d="m 383.39558,-55.048909 c -2.32046,1.565082 -4.78188,2.827909 -7.38427,3.788484 -2.60247,0.960584 -5.35889,1.608617 -8.26928,1.9441 -8.6847,1.001093 -15.84404,-0.627282 -21.47804,-4.885128 -5.6367,-4.281115 -8.93412,-10.577745 -9.89226,-18.889909 -0.96084,-8.335395 0.8175,-15.217113 5.33502,-20.645174 4.51482,-5.45125 11.11457,-8.677444 19.79927,-9.678594 2.91038,-0.33543 5.74195,-0.33153 8.49472,0.0117 2.75269,0.34334 5.43688,1.01303 8.05256,2.00907 l 1.24398,10.791817 c -2.68728,-1.412461 -5.28725,-2.374967 -7.79993,-2.887522 -2.51275,-0.512461 -5.1079,-0.614392 -7.78545,-0.305792 -4.79639,0.552928 -8.39115,2.524416 -10.78429,5.914469 -2.39317,3.390136 -3.27842,7.786046 -2.65574,13.187743 0.61996,5.37847 2.4808,9.44604 5.58253,12.202721 3.10168,2.756713 7.05071,3.858621 11.8471,3.305727 2.67755,-0.308634 5.18144,-0.998336 7.51169,-2.069107 2.33018,-1.070742 4.64298,-2.599549 6.93841,-4.586425 l 1.24398,10.79182"
         id="path3110"
         inkscape:connector-curvature="0" />
      <path
         d="m 393.38057,-106.85593 12.5835,-0.24744 1.07548,54.692553 -12.5835,0.247443 -1.07548,-54.692556"
         id="path3112"
         inkscape:connector-curvature="0" />
      <path
         d="m 420.80017,-91.629803 12.57561,0.509728 -1.59468,39.342695 -12.57561,-0.509728 1.59468,-39.342695 m 0.62078,-15.315547 12.57562,0.50973 -0.41576,10.257199 -12.57561,-0.509728 0.41575,-10.257201"
         id="path3114"
         inkscape:connector-curvature="0" />
      <path
         d="m 465.82193,-56.589858 c 2.67096,0.361271 4.83518,-0.339343 6.49265,-2.101846 1.68063,-1.759349 2.77228,-4.497105 3.27495,-8.213278 0.5026,-3.716144 0.17746,-6.645529 -0.97541,-8.788164 -1.12971,-2.139447 -3.03004,-3.389815 -5.701,-3.751109 -2.67102,-0.361239 -4.86003,0.347848 -6.56704,2.127262 -1.68069,1.75938 -2.77077,4.485523 -3.27024,8.178439 -0.49951,3.692949 -0.17438,6.622334 0.97541,8.788164 1.1761,2.145761 3.09966,3.39927 5.77068,3.760532 m -4.87536,-26.379787 c 2.02656,-2.043649 4.15728,-3.458322 6.39215,-4.244022 2.23796,-0.808856 4.71568,-1.029527 7.43315,-0.662013 4.80775,0.650315 8.497,3.100505 11.06776,7.350578 2.57381,4.226903 3.45393,9.348106 2.64034,15.363625 -0.81368,6.015544 -3.0242,10.730548 -6.63155,14.145025 -3.6043,3.391249 -7.81032,4.761734 -12.61807,4.111459 -2.71747,-0.367555 -5.0491,-1.226892 -6.99491,-2.578015 -1.94272,-1.374355 -3.61949,-3.315838 -5.03034,-5.824455 l -0.76337,5.643921 -12.47237,-1.686959 7.33215,-54.209519 12.47237,1.68696 -2.82731,20.903415"
         id="path3116"
         inkscape:connector-curvature="0" />
      <path
         d="m 535.29208,-72.501458 -2.55555,9.942444 c -1.36539,-1.560888 -2.81793,-2.829617 -4.35763,-3.806189 -1.51709,-0.970694 -3.17224,-1.686518 -4.96548,-2.147474 -3.40497,-0.875165 -6.31755,-0.559029 -8.73774,0.94841 -2.3917,1.490619 -4.04556,4.017837 -4.96157,7.581663 -0.91605,3.563856 -0.68875,6.586695 0.6819,9.068527 1.39913,2.464978 3.80118,4.135059 7.20616,5.010246 1.90674,0.490107 3.78429,0.670211 5.63266,0.540315 1.871,-0.124062 3.67585,-0.555527 5.41456,-1.294396 l -2.5643,9.976494 c -2.08768,0.213575 -4.16269,0.236809 -6.22505,0.0697 -2.04555,-0.138589 -4.05574,-0.461684 -6.03058,-0.969286 -6.87802,-1.767888 -11.80565,-4.909906 -14.78291,-9.426065 -2.97145,-4.538854 -3.64908,-9.952179 -2.03289,-16.239993 1.61617,-6.287777 4.81726,-10.692038 9.60328,-13.212797 4.79181,-2.543395 10.62672,-2.931167 17.50474,-1.16332 1.99753,0.513477 3.91437,1.199766 5.75053,2.058869 1.86461,0.8423 3.67123,1.863249 5.41987,3.06285"
         id="path3118"
         inkscape:connector-curvature="0" />
    </g>
    <circle
       style="display:inline;fill:none;stroke:none"
       id="path4633"
       transform="matrix(0.00280692,0.77673194,-0.77673194,0.00280692,875.48885,54.68772)"
       cx="380.71429"
       cy="602.14288"
       r="520.71429" />
    <text
       xml:space="preserve"
       style="font-style:normal;font-variant:normal;font-weight:normal;font-stretch:normal;line-height:0%;font-family:sans-serif;-inkscape-font-specification:Sans;text-align:start;letter-spacing:0px;word-spacing:0px;writing-mode:lr-tb;text-anchor:start;fill:#000000;fill-opacity:1;stroke:none"
       x="1185.7144"
       y="220.71429"
       id="text3121"
       transform="translate(-128.94185,-172.97039)"><tspan
         sodipodi:role="line"
         id="tspan3123"
         x="1185.7144"
         y="220.71429"
         style="font-size:24px;line-height:1.25;font-family:sans-serif"> </tspan></text>
  </g>
  <g
     transform="translate(121.41349,152.06289)"
     style="display:inline"
     inkscape:label="resources"
     id="layer3"
     inkscape:groupmode="layer">
    <path
       id="path4226"
       d="M 804.53853,-50.460406 C 962.62263,54.816214 1067.7705,233.28059 1071.601,436.53959 h 253.8125 c 27.7,0 50,-22.3 50,-50 V -0.46040641 c 0,-27.69999959 -22.3,-49.99999959 -50,-49.99999959 z"
       style="fill:#333333;fill-opacity:1;stroke:#333333;stroke-width:3;stroke-miterlimit:4;stroke-dasharray:none;stroke-opacity:1;filter:url(#filter4228)"
       inkscape:connector-curvature="0" />
    <path
       style="fill:#0169c9;fill-opacity:1;stroke:#013397;stroke-width:3;stroke-miterlimit:4;stroke-dasharray:none;stroke-opacity:1"
       d="m 869.125,26.5625 c 158.0841,105.27662 263.232,283.741 267.0625,487 H 1390 c 27.7,0 50,-22.3 50,-50 v -387 c 0,-27.7 -22.3,-50 -50,-50 z"
       transform="translate(-51.891989,-89.717406)"
       id="rect4210"
       inkscape:connector-curvature="0" />
    <use
       x="0"
       y="0"
       xlink:href="#path4226"
       id="use4232"
       transform="matrix(1,0,0,-1,-9.9337848e-6,896.07915)"
       width="1440"
       height="1080" />
    <text
       xml:space="preserve"
       style="font-style:normal;font-variant:normal;font-weight:normal;font-stretch:normal;line-height:0%;font-family:sans-serif;-inkscape-font-specification:Sans;text-align:start;letter-spacing:0px;word-spacing:0px;writing-mode:lr-tb;text-anchor:start;fill:#000000;fill-opacity:1;stroke:none"
       x="1090.9647"
       y="983.02533"
       id="text4069"
       transform="translate(-51.891989,-89.717406)"><tspan
         sodipodi:role="line"
         id="tspan4071"
         x="1090.9647"
         y="983.02533"
         style="font-size:24px;line-height:1.25;font-family:sans-serif"> </tspan></text>
    <use
       x="0"
       y="0"
       xlink:href="#rect4210"
       id="use4212"
       transform="matrix(1,0,0,-1,-2.1345772e-5,870.69016)"
       width="1440"
       height="1080" />
    <text
       id="text4200"
       y="819.38275"
       x="1367.1331"
       style="font-style:normal;font-variant:normal;font-weight:bold;font-stretch:normal;line-height:0%;font-family:sans-serif;-inkscape-font-specification:'Sans Bold';text-align:end;letter-spacing:0px;word-spacing:0px;writing-mode:lr-tb;text-anchor:end;display:inline;fill:#000000;fill-opacity:1;stroke:none"
       xml:space="preserve"><tspan
         y="819.38275"
         x="1367.1331"
         id="tspan4202"
         sodipodi:role="line"
         style="font-size:40px;line-height:1.25;font-family:sans-serif">Linux-specific</tspan><tspan
         id="tspan4204"
         y="897.69525"
         x="1367.1331"
         sodipodi:role="line"
         style="font-size:72px;line-height:1.25;font-family:sans-serif">Application</tspan></text>
    <g
       id="g4921"
       inkscape:transform-center-x="-442.36541"
       transform="rotate(10.061324,485.90382,435.2531)"
       inkscape:transform-center-y="78.371772">
      <path
         sodipodi:nodetypes="cccccccc"
         inkscape:connector-curvature="0"
         id="path4915"
         d="m 1081.8635,452.56561 -230.55491,-4.0313 c -0.78904,4.9245 -1.99571,9.8474 -3.66193,14.75 -19.01103,-10.2822 -39.87996,-19.6939 -62.2527,-28.0624 23.30936,-9.1976 45.81715,-19.1914 62.16537,-28 1.69133,4.8967 2.94265,9.8013 3.74926,14.7187 l 230.55491,-4.125 c 1.7857,11.40476 1.6071,23.34524 0,34.75 z"
         style="display:inline;fill:#d9bb7a;fill-opacity:1;stroke:#ffffff;stroke-width:3;stroke-miterlimit:4;stroke-dasharray:none;stroke-opacity:1" />
      <text
         transform="translate(77.049861,83.252984)"
         xml:space="preserve"
         style="font-style:normal;font-variant:normal;font-weight:bold;font-stretch:normal;line-height:0%;font-family:sans-serif;-inkscape-font-specification:'Sans Bold';text-align:start;letter-spacing:0px;word-spacing:0px;writing-mode:lr-tb;text-anchor:start;display:inline;fill:#000000;fill-opacity:1;stroke:none"
         x="780.17426"
         y="358.64963"
         id="text4917"><tspan
           sodipodi:role="line"
           id="tspan4919"
           x="780.17426"
           y="358.64963"
           style="font-size:24px;line-height:1.25;font-family:sans-serif">system calls</tspan></text>
    </g>
    <g
       inkscape:transform-center-y="-85.528303"
       transform="rotate(-10.922009,485.90381,435.25312)"
       inkscape:transform-center-x="-441.25199"
       id="g4926">
      <path
         style="display:inline;fill:#d9bb7a;fill-opacity:1;stroke:#ffffff;stroke-width:3;stroke-miterlimit:4;stroke-dasharray:none;stroke-opacity:1"
         d="m 1081.8635,452.56561 -230.55491,-4.0313 c -0.78904,4.9245 -1.99571,9.8474 -3.66193,14.75 -19.01103,-10.2822 -39.87996,-19.6939 -62.2527,-28.0624 23.30936,-9.1976 45.81715,-19.1914 62.16537,-28 1.69133,4.8967 2.94265,9.8013 3.74926,14.7187 l 230.55491,-4.125 c 1.7857,11.40476 1.6071,23.34524 0,34.75 z"
         id="path4928"
         inkscape:connector-curvature="0"
         sodipodi:nodetypes="cccccccc" />
      <text
         id="text4930"
         y="358.64963"
         x="780.17426"
         style="font-style:normal;font-variant:normal;font-weight:bold;font-stretch:normal;line-height:0%;font-family:sans-serif;-inkscape-font-specification:'Sans Bold';text-align:start;letter-spacing:0px;word-spacing:0px;writing-mode:lr-tb;text-anchor:start;display:inline;fill:#000000;fill-opacity:1;stroke:none"
         xml:space="preserve"
         transform="translate(77.049861,83.252984)"><tspan
           y="358.64963"
           x="780.17426"
           id="tspan4932"
           sodipodi:role="line"
           style="font-size:24px;line-height:1.25;font-family:sans-serif">system calls</tspan></text>
    </g>
    <g
       id="g4942"
       inkscape:transform-center-x="-480.10573"
       transform="rotate(30.038091,485.90382,435.37528)"
       inkscape:transform-center-y="276.02348">
      <path
         style="display:inline;fill:#d9bb7a;stroke:#ffffff;stroke-width:3;stroke-miterlimit:4;stroke-dasharray:none;stroke-opacity:1"
         d="m 1081.04,477.95513 -40.0185,-9.91493 c -0.789,12.11175 -1.9957,24.21956 -3.6619,36.27744 -19.011,-25.28894 -39.88,-48.43689 -62.25272,-69.01911 23.30932,-22.62138 45.81712,-47.20101 62.16542,-68.86564 1.6913,12.04337 2.9426,24.10617 3.7492,36.20045 l 40.0185,-10.14539 c 3.9286,29.02477 3.0357,57.15669 0,85.46718 z"
         id="path4934"
         inkscape:connector-curvature="0"
         sodipodi:nodetypes="cccccccc" />
      <text
         id="text4936"
         y="429.29123"
         x="1039.3221"
         style="font-style:normal;font-variant:normal;font-weight:bold;font-stretch:normal;line-height:0%;font-family:sans-serif;-inkscape-font-specification:'Sans Bold';text-align:center;letter-spacing:0px;word-spacing:0px;writing-mode:lr-tb;text-anchor:middle;display:inline;fill:#000000;fill-opacity:1;stroke:none"
         xml:space="preserve"><tspan
           y="429.29123"
           x="1039.3221"
           id="tspan4938"
           sodipodi:role="line"
           style="font-size:24px;line-height:1.25;font-family:sans-serif">function</tspan><tspan
           y="459.29123"
           x="1039.3221"
           sodipodi:role="line"
           id="tspan4940"
           style="font-size:24px;line-height:1.25;font-family:sans-serif">calls</tspan></text>
    </g>
    <g
       inkscape:transform-center-y="-276.52271"
       transform="rotate(-30.098029,485.9038,435.37525)"
       inkscape:transform-center-x="-478.09111"
       id="g4948">
      <path
         sodipodi:nodetypes="cccccccc"
         inkscape:connector-curvature="0"
         id="path4950"
         d="m 1081.04,477.95513 -40.0185,-9.91493 c -0.789,12.11175 -1.9957,24.21956 -3.6619,36.27744 -19.011,-25.28894 -39.88,-48.43689 -62.25272,-69.01911 23.30932,-22.62138 45.81712,-47.20101 62.16542,-68.86564 1.6913,12.04337 2.9426,24.10617 3.7492,36.20045 l 40.0185,-10.14539 c 3.9286,29.02477 3.0357,57.15669 0,85.46718 z"
         style="display:inline;fill:#d9bb7a;stroke:#ffffff;stroke-width:3;stroke-miterlimit:4;stroke-dasharray:none;stroke-opacity:1" />
      <text
         xml:space="preserve"
         style="font-style:normal;font-variant:normal;font-weight:bold;font-stretch:normal;line-height:0%;font-family:sans-serif;-inkscape-font-specification:'Sans Bold';text-align:center;letter-spacing:0px;word-spacing:0px;writing-mode:lr-tb;text-anchor:middle;display:inline;fill:#000000;fill-opacity:1;stroke:none"
         x="1039.3221"
         y="429.29123"
         id="text4952"><tspan
           sodipodi:role="line"
           id="tspan4954"
           x="1039.3221"
           y="429.29123"
           style="font-size:24px;line-height:1.25;font-family:sans-serif">function</tspan><tspan
           id="tspan4956"
           sodipodi:role="line"
           x="1039.3221"
           y="459.29123"
           style="font-size:24px;line-height:1.25;font-family:sans-serif">calls</tspan></text>
    </g>
    <text
       style="font-style:normal;font-variant:normal;font-weight:normal;font-stretch:normal;font-size:12px;line-height:0%;font-family:'Liberation Mono';-inkscape-font-specification:'Liberation Mono';letter-spacing:0px;word-spacing:0px;display:inline;fill:#000000;fill-opacity:1;stroke:none"
       xml:space="preserve"
       id="text13468"
       y="-102.20764"
       x="-52.940819"><tspan
         id="tspan13470"
         y="-102.20764"
         x="-52.940819">by Shmuel Csaba Otto Traian; GNU FDL 1.3 &amp; CC-BY-SA 3.0; created 2014-02-27, last updated 2014-03-25</tspan></text>
    <text
       xml:space="preserve"
       style="font-style:normal;font-variant:normal;font-weight:normal;font-stretch:normal;line-height:0%;font-family:sans-serif;-inkscape-font-specification:Sans;text-align:start;letter-spacing:0px;word-spacing:0px;writing-mode:lr-tb;text-anchor:start;fill:#000000;fill-opacity:1;stroke:none"
       x="1143.8223"
       y="221.71118"
       id="text3125"><tspan
         sodipodi:role="line"
         id="tspan3127"
         x="1143.8223"
         y="221.71118"
         style="font-weight:bold;font-size:40px;line-height:1.25;font-family:sans-serif;-inkscape-font-specification:'Sans Bold'">BusyBox</tspan><tspan
         sodipodi:role="line"
         x="1143.8223"
         y="271.71118"
         style="font-weight:bold;font-size:40px;line-height:1.25;font-family:sans-serif;-inkscape-font-specification:'Sans Bold'"
         id="tspan3129">et al.</tspan></text>
    <text
       xml:space="preserve"
       style="font-style:normal;font-variant:normal;font-weight:bold;font-stretch:normal;line-height:0%;font-family:sans-serif;-inkscape-font-specification:'Sans Bold';text-align:end;letter-spacing:0px;word-spacing:0px;writing-mode:lr-tb;text-anchor:end;display:inline;fill:#000000;fill-opacity:1;stroke:none"
       x="1369.1533"
       y="7.2201381"
       id="text4061"><tspan
         sodipodi:role="line"
         id="tspan4063"
         x="1369.1533"
         y="7.2201381"
         style="font-size:72px;line-height:1.25;font-family:sans-serif">Application</tspan><tspan
         sodipodi:role="line"
         x="1369.1533"
         y="68.907639"
         id="tspan4198"
         style="font-size:40px;line-height:1.25;font-family:sans-serif">POSIX-compatible</tspan></text>
  </g>
</svg>
